<?xml version="1.0" encoding="UTF-8"?>
<!DOCTYPE svg PUBLIC "-//W3C//DTD SVG 1.1//EN" "http://www.w3.org/Graphics/SVG/1.1/DTD/svg11.dtd">
<!-- Creator: CorelDRAW X7 -->
<svg xmlns="http://www.w3.org/2000/svg" xml:space="preserve" width="34.8945mm" height="34.8919mm" version="1.1" style="shape-rendering:geometricPrecision; text-rendering:geometricPrecision; image-rendering:optimizeQuality; fill-rule:evenodd; clip-rule:evenodd"
viewBox="0 0 1582 1581"
 xmlns:xlink="http://www.w3.org/1999/xlink">
 <defs>
  <style type="text/css">
   <![CDATA[
    .fil0 {fill:#FEFEFE}
    .fil2 {fill:#E31E24}
    .fil1 {fill:#00568F}
    .fil3 {fill:#0C54A0;fill-rule:nonzero}
   ]]>
  </style>
 </defs>
 <g id="Слой_x0020_1">
  <metadata id="CorelCorpID_0Corel-Layer"/>
  <path class="fil0" d="M854 1581c26,-8 91,-14 124,-23 608,-151 804,-900 368,-1331 -331,-327 -894,-305 -1189,92 -154,207 -131,342 -157,416l0 846 854 0z"/>
  <path class="fil1" d="M155 1240l10 0 -3 -56 -13 0 -8 23c-2,6 -4,13 -6,19l0 0c-1,-6 -3,-13 -5,-19l-7 -23 -14 0 -3 56 9 0 1 -22c1,-8 1,-17 1,-24l0 0c2,7 4,14 6,22l8 23 7 0 9 -24c2,-7 4,-14 6,-21l0 0c0,7 1,16 1,23l1 23zm71 -33l-21 0 0 -14 22 0 0 -9 -32 0 0 56 34 0 0 -8 -24 0 0 -17 21 0 0 -8zm40 -23l0 15c0,8 -1,15 -3,21 -1,4 -3,8 -5,12l-5 0 1 22 8 0 0 -14 34 0 1 14 7 0 1 -22 -5 0 0 -48 -34 0zm9 9l14 0 0 39 -21 0c2,-3 3,-7 4,-10 2,-6 3,-13 3,-21l0 -8zm57 -9l0 56 12 0 14 -24c3,-5 7,-12 10,-19l0 0c-1,7 -1,15 -1,23l0 20 10 0 0 -56 -11 0 -14 25c-4,7 -8,13 -11,20l0 0c1,-8 1,-16 1,-25l0 -20 -10 0zm75 0l0 19c0,12 8,17 17,17 5,0 9,-1 13,-3l0 0 0 23 10 0 0 -56 -10 0 0 25c-3,2 -6,3 -10,3 -6,0 -10,-4 -10,-11l0 -17 -10 0zm71 0l0 56 10 0 0 -25 24 0 0 25 10 0 0 -56 -10 0 0 23 -24 0 0 -23 -10 0zm104 40l5 16 11 0 -18 -56 -13 0 -18 56 11 0 5 -16 17 0zm-16 -7l4 -14c1,-3 2,-7 3,-11l0 0c1,4 2,7 3,11l4 14 -14 0zm98 -33l0 24c0,9 -1,18 -4,22 -2,1 -4,2 -7,3l2 8c4,0 7,-1 10,-3 8,-5 9,-17 9,-30l0 -15 15 0 0 47 10 0 0 -56 -35 0zm139 0l0 56c2,0 7,1 12,1 8,0 17,-2 22,-7 3,-3 5,-7 5,-12 0,-6 -3,-11 -7,-14 -4,-2 -10,-4 -15,-4 -2,0 -5,0 -7,1l0 -12 24 0 0 -9 -34 0zm10 28c2,0 3,0 5,0 3,0 7,1 9,3 2,1 4,4 4,7 0,3 -1,6 -3,7 -2,3 -6,4 -10,4 -2,0 -4,0 -5,0l0 -21zm80 -29c-16,0 -27,12 -27,30 0,16 10,28 26,28 15,0 27,-11 27,-29 0,-16 -10,-29 -26,-29zm0 9c10,0 15,10 15,20 0,12 -5,21 -15,21 -10,0 -16,-9 -16,-21 0,-11 6,-20 16,-20zm54 48l10 0 0 -21c2,0 3,0 5,0 7,0 14,-2 18,-6 3,-3 5,-7 5,-12 0,-5 -3,-10 -6,-13 -3,-3 -9,-4 -16,-4 -7,0 -12,0 -16,1l0 55zm10 -48c1,0 3,0 6,0 7,0 11,3 11,9 0,7 -4,10 -12,10 -2,0 -4,0 -5,0l0 -19zm79 32l5 16 11 0 -18 -56 -13 0 -18 56 10 0 5 -16 18 0zm-16 -7l4 -14c1,-3 2,-7 3,-11l0 0c1,4 2,7 3,11l4 14 -14 0zm65 23l10 0 0 -47 16 0 0 -9 -42 0 0 9 16 0 0 47zm73 -57c-16,0 -26,12 -26,30 0,16 10,28 25,28 16,0 27,-11 27,-29 0,-16 -10,-29 -26,-29zm0 9c10,0 15,10 15,20 0,12 -5,21 -15,21 -10,0 -16,-9 -16,-21 0,-11 6,-20 16,-20zm54 48l10 0 0 -21c2,0 3,0 5,0 8,0 14,-2 18,-6 3,-3 5,-7 5,-12 0,-5 -2,-10 -6,-13 -3,-3 -9,-4 -16,-4 -7,0 -12,0 -16,1l0 55zm10 -48c1,0 3,0 6,0 7,0 12,3 12,9 0,7 -5,10 -13,10 -2,0 -3,0 -5,0l0 -19zm-462 32l5 16 11 0 -19 -56 -13 0 -17 56 10 0 5 -16 18 0zm-17 -7l5 -14c1,-3 2,-7 2,-11l1 0c0,4 1,7 2,11l5 14 -15 0zm535 23l10 0 0 -56 -10 0 0 56zm47 0c1,-2 2,-3 2,-4 2,-5 3,-13 7,-16 2,-2 4,-3 7,-3l4 0 0 23 10 0 0 -55c-4,-1 -9,-1 -15,-1 -7,0 -13,1 -17,4 -3,3 -5,7 -5,12 0,8 5,12 12,13l0 1c-2,0 -4,1 -5,3 -4,4 -6,11 -8,17 -1,2 -2,4 -3,6l11 0zm20 -30c-1,0 -3,0 -5,0 -7,0 -12,-4 -12,-9 0,-7 5,-9 11,-9 3,0 5,0 6,0l0 18z"/>
  <path class="fil2" d="M1191 1116c34,3 91,10 130,-6 23,-10 34,-23 37,-51 7,-59 -65,-64 -97,-48l3 -19c20,-3 44,-4 65,-3 2,-12 4,-24 5,-36 -44,-4 -90,-2 -119,7l1 1 -2 0 -23 155zm-215 -213l-50 0 -105 213 13 0 41 0 6 0 57 -120 20 120 4 0 6 0 35 0 11 0 -38 -213zm102 217c-11,0 -22,-3 -30,-9 -9,-7 -16,-15 -20,-26 -5,-10 -7,-21 -7,-33 0,-11 2,-21 5,-31 3,-11 9,-21 18,-31 8,-10 20,-18 36,-23 15,-6 34,-9 57,-9 9,0 17,0 23,1 6,0 15,2 26,3l2 1 -23 154 -55 0 2 -9c-4,3 -8,5 -12,7 -6,4 -13,5 -22,5zm44 -121c-8,0 -16,3 -23,8 -7,4 -12,11 -16,19 -4,8 -6,17 -6,27 0,6 1,12 5,16 3,4 7,6 12,6 3,0 6,-1 10,-2 4,-2 9,-4 14,-8l11 -66 -7 0zm132 61c2,-14 50,-25 49,-3 -1,15 -8,21 -29,21l-24 1 4 -19z"/>
  <path class="fil1" d="M526 965c-10,-6 -21,-8 -33,-8 -16,0 -30,4 -43,12 -26,17 -40,47 -40,78 0,11 2,22 6,33 4,11 13,20 25,28 12,8 28,13 49,13 10,0 18,-1 24,-3 7,-1 15,-4 25,-9l2 0 9 -45 -6 2c-10,5 -20,8 -28,10 -7,3 -16,4 -25,4 -17,0 -26,-8 -27,-25l93 0 0 -3c2,-8 2,-15 2,-23 0,-25 -9,-51 -33,-64zm219 96l23 0 -3 65 -57 0 1 -21 -88 0 -5 21 -58 0 17 -65 22 0 37 -100c33,-6 68,-5 103,0l8 100zm-54 0c0,-21 0,-35 0,-56 -7,-2 -15,-2 -19,0l-19 56 38 0zm-311 -156l-57 0 -66 125 -30 -125 -59 0 -68 213 57 0 41 -128 31 128 35 0 65 -123 5 123 56 0 -10 -213zm126 116c0,0 0,0 0,-1 0,-20 -8,-22 -14,-22 -13,0 -20,14 -22,23l36 0z"/>
  <path class="fil3" d="M1387 918c4,0 8,1 12,3 4,2 7,5 10,9 2,4 3,9 3,13 0,4 -1,9 -3,12 -3,4 -6,8 -10,10 -4,2 -8,3 -12,3 -5,0 -9,-1 -13,-3 -4,-2 -7,-6 -9,-10 -2,-3 -3,-8 -3,-12 0,-4 1,-9 3,-13 2,-4 5,-7 9,-9 4,-2 8,-3 13,-3zm0 5c-4,0 -7,1 -10,2 -3,2 -6,5 -8,8 -1,3 -2,6 -2,10 0,3 0,7 2,10 2,3 5,6 8,8 3,1 6,2 10,2 3,0 7,-1 10,-2 3,-2 6,-5 7,-8 2,-3 3,-7 3,-10 0,-4 -1,-7 -3,-10 -2,-3 -4,-6 -7,-8 -3,-1 -7,-2 -10,-2zm-12 33l0 -26 6 0c5,0 8,0 8,0 2,0 4,0 5,1 1,0 1,1 2,2 1,2 1,3 1,4 0,2 -1,4 -2,5 -1,2 -3,2 -5,3 1,0 1,0 2,1 0,0 1,1 2,2 0,0 0,1 2,3l3 5 -7 0 -2 -4c-2,-3 -3,-5 -4,-5 -1,-1 -2,-2 -4,-2l-1 0 0 11 -6 0zm6 -15l2 0c3,0 5,0 6,0 1,0 1,-1 2,-1 0,-1 0,-2 0,-2 0,-1 0,-2 0,-2 -1,-1 -1,-1 -2,-2 -1,0 -3,0 -6,0l-2 0 0 7z"/>
  <g id="_881391712">
   <path class="fil1" d="M672 648l-168 -79 21 -30 168 78 -21 31zm126 -260c18,2 33,6 47,14 32,17 52,48 63,78 1,3 2,6 3,8 1,4 2,7 3,11 13,57 1,116 -35,159 -3,4 -5,7 -9,11l7 0 39 0 0 74 -370 0 0 -74 135 0c42,0 107,-32 133,-63 1,-1 2,-2 3,-3 1,-1 1,-2 2,-4 16,-20 22,-49 16,-76 0,-2 -1,-3 -1,-5 -1,-1 -1,-2 -2,-4 -5,-14 -14,-29 -28,-37 -7,-4 -14,-6 -22,-7 -22,-2 -42,6 -55,20l-44 63 -19 -9 -19 31 -50 -24 21 -30 -17 -8 191 -273 17 8 21 -30 51 24 -22 30 17 8 -76 108z"/>
   <path class="fil2" d="M741 77c230,0 416,186 416,416 0,220 -178,398 -398,398 -220,0 -398,-178 -398,-398l-37 0c0,-230 187,-416 417,-416zm360 416l0 0c0,-189 -153,-342 -342,-342 -189,0 -342,153 -342,342l-37 0c0,199 161,361 361,361 199,0 360,-162 360,-361z"/>
  </g>
 </g>
</svg>
