<?xml version="1.0" encoding="UTF-8"?>
<!DOCTYPE svg PUBLIC "-//W3C//DTD SVG 1.1//EN" "http://www.w3.org/Graphics/SVG/1.1/DTD/svg11.dtd">
<!-- Creator: CorelDRAW X7 -->
<svg xmlns="http://www.w3.org/2000/svg" xml:space="preserve" width="26.5267mm" height="24.7904mm" version="1.1" style="shape-rendering:geometricPrecision; text-rendering:geometricPrecision; image-rendering:optimizeQuality; fill-rule:evenodd; clip-rule:evenodd"
viewBox="0 0 1039 971"
 xmlns:xlink="http://www.w3.org/1999/xlink">
 <defs>
  <style type="text/css">
   <![CDATA[
    .fil8 {fill:#005B81}
    .fil13 {fill:#006278}
    .fil16 {fill:#006786}
    .fil15 {fill:#0255AA}
    .fil17 {fill:#025B74}
    .fil14 {fill:#0453B2}
    .fil10 {fill:#06666C}
    .fil12 {fill:#084EA6}
    .fil9 {fill:#1548A1}
    .fil11 {fill:#1548A4}
    .fil19 {fill:#184B6C}
    .fil18 {fill:#264F88}
    .fil4 {fill:#3AB6FD}
    .fil7 {fill:#6D95AF}
    .fil3 {fill:#DE462C}
    .fil2 {fill:#E3452D}
    .fil6 {fill:#E84735}
    .fil5 {fill:#F84837}
    .fil1 {fill:#FB4A34}
    .fil0 {fill:#FEFEFE}
   ]]>
  </style>
 </defs>
 <g id="Слой_x0020_1">
  <metadata id="CorelCorpID_0Corel-Layer"/>
  <g id="_888417776">
   <path class="fil0" d="M236 642c18,19 31,-14 6,-14l-6 5 0 9zm-18 9c-13,-15 -23,-1 -19,6 3,6 8,9 14,6 5,-4 5,-8 5,-12zm-51 12c-12,4 -5,22 6,19 13,-4 8,-23 -6,-19zm233 -176l147 -70 41 -19c10,-6 4,-2 10,-10 6,4 2,3 8,2l92 -43c6,-3 12,-5 17,-8l51 -24c7,-3 9,-4 16,-8 1,0 1,-1 2,-1l2 -1c1,0 2,-1 3,-1 0,0 0,-1 1,-1l44 -20c12,-6 10,-7 22,-29l94 -168c8,-13 9,-22 21,-31 17,-14 56,-43 68,-55 1,7 -3,14 -4,21 -1,2 -1,3 -1,5 -1,11 -2,5 -5,18 -2,8 -4,15 -7,22l-6 23c-9,7 -28,17 -37,22 -22,12 -17,7 -29,27l58 -31c2,3 1,0 2,5 -2,5 -1,10 -6,15 -14,7 -28,15 -41,23 -12,6 -34,13 -33,29l68 -37c3,5 2,1 1,6 0,0 -1,5 -1,5 -1,4 -2,6 -4,10 -10,9 -37,22 -49,29 -15,8 -36,15 -41,33l85 -45c1,6 -1,8 -3,14l-6 20c-1,3 -1,3 -2,8 -1,5 -2,8 -3,13l-17 55c-5,-1 -6,-7 -14,-12l-127 75c14,7 42,7 56,13 -13,13 -132,92 -162,113l-74 50c-14,7 -16,11 -24,14 -7,4 -26,-10 -40,-17 -18,-9 -11,-8 -40,10l-79 52c22,-6 53,-22 75,-30 9,-3 9,-2 17,3 10,5 20,10 31,15 122,62 253,125 372,187 -7,4 -9,4 -15,5l-4 1c0,0 0,1 -1,1l-12 2c0,0 0,0 -1,0 -7,1 4,-1 -2,0 -23,3 -11,8 -50,-2l-198 -43c-5,-2 -7,-2 -11,-3l-19 -3c-3,-1 -1,0 -4,-1l-121 -27c-8,-2 -14,-3 -22,-4l-45 -11c-57,-11 -28,-14 -87,16 -5,2 -6,3 -11,6l-198 93c-22,7 -43,17 -68,22 -19,4 -10,3 -32,6 -10,2 -23,3 -33,-1 -9,-4 -14,-9 -15,-19l0 -5c0,-2 0,-4 1,-6 4,-14 40,-47 57,-67 12,-14 7,-4 13,-22 14,-39 1,-33 39,-60 30,-22 78,-48 112,-65 15,-8 29,-17 43,-23l135 -66z"/>
   <path class="fil1" d="M547 417l-147 70c3,-9 -4,4 3,-15 3,-8 -1,-4 5,-16l2 -9c6,-19 6,-24 14,-43 0,0 1,-1 1,-1 4,-11 -3,-1 5,-19 0,0 1,-4 1,-5 0,0 0,-1 1,-1l7 -30c1,-4 0,0 1,-4l12 -35c1,-4 0,0 1,-4 0,-1 0,-3 1,-5l5 -17c0,-1 0,-1 0,-1l13 -45c2,-3 0,-1 2,-3l1 -2c4,-8 2,-10 3,-14 0,0 0,0 0,0 0,-1 0,-1 0,-1l7 -23c0,-1 0,-1 0,-1 0,-4 -1,1 0,-4 0,0 0,0 0,0 0,0 0,-1 0,-1l3 -2c0,0 0,-1 0,-1l2 -3c3,-7 2,-11 7,-26 4,-10 1,-4 2,-12l54 -54c2,4 1,1 2,5 4,14 -3,25 1,42l1 9c1,4 1,1 0,4 -1,2 -2,3 -3,9 0,5 1,6 0,11l0 4c-3,14 1,5 1,16l-2 93c0,7 -2,5 -1,11 0,4 1,6 1,10 -1,10 -3,3 -1,20 1,8 0,5 -1,12 -2,13 3,8 0,29l-1 19c0,1 0,2 0,3 0,0 0,1 0,1l0 10c1,17 -8,8 3,13 -6,4 -5,4 -6,6z"/>
   <path class="fil2" d="M613 543c15,15 17,8 30,18 7,5 3,4 10,5 2,4 0,1 4,3 9,4 -2,-3 15,7l3 1c0,0 0,0 1,1l11 5c1,0 1,0 1,0 13,7 2,5 22,12 6,2 6,4 11,8l10 5c0,0 1,0 1,0l18 9c4,2 7,4 10,4l2 -1c0,0 0,0 0,-1 4,4 6,7 7,9 9,6 39,21 48,24l29 14c4,2 2,0 10,7l46 24c6,1 8,1 13,5 2,-1 0,0 1,-1 1,-1 -1,0 1,-1 9,8 1,4 12,10 15,9 8,3 15,6 5,3 8,6 13,9l15 5c9,12 15,1 18,11 1,1 0,3 -1,5l-18 17 0 0c-6,-5 -13,5 -22,0 -119,-62 -250,-125 -372,-187 -11,-5 -21,-10 -31,-15 -8,-5 -8,-6 -17,-3 -22,8 -53,24 -75,30l79 -52c29,-18 22,-19 40,-10 14,7 33,21 40,17z"/>
   <path class="fil3" d="M958 290c7,10 12,12 18,22l27 30c2,2 6,6 8,8 2,2 3,4 3,5 3,12 -9,11 -16,15 -7,4 -3,4 -10,6 -8,1 -4,-3 -11,3 3,4 2,1 0,5l-1 -4c-10,9 -27,3 -39,0 -7,-2 -5,-6 -11,3 -8,-8 -8,-6 -19,-9 -10,-3 -5,0 -13,-2l-21 -6c-14,-6 -42,-6 -56,-13l127 -75c8,5 9,11 14,12z"/>
   <path class="fil3" d="M583 168c-2,6 0,7 0,12 0,0 0,6 0,6 0,2 0,4 0,5 0,7 -1,17 2,23 3,7 0,0 0,6 0,4 0,4 0,7l0 20c0,0 0,0 0,1l0 6c0,0 0,1 0,1 0,1 0,1 0,2l0 10c-2,6 -1,13 -1,20 0,7 -1,13 1,19l1 52c0,0 1,1 0,1l0 3c0,4 -1,5 1,10 0,4 1,8 0,12l0 10c0,2 0,1 1,4l-41 19c1,-2 0,-2 6,-6 -11,-5 -2,4 -3,-13l0 -10c0,0 0,-1 0,-1 0,-1 0,-2 0,-3l1 -19c3,-21 -2,-16 0,-29 1,-7 2,-4 1,-12 -2,-17 0,-10 1,-20 0,-4 -1,-6 -1,-10 -1,-6 1,-4 1,-11l2 -93c0,-11 -4,-2 -1,-16l0 -4c1,-5 0,-6 0,-11 1,-6 2,-7 3,-9 1,-3 1,0 0,-4l-1 -9c-4,-17 3,-28 -1,-42 -1,-4 0,-1 -2,-5l29 -29c3,6 1,7 2,27l0 11c0,0 0,1 0,1 0,0 0,1 0,1l0 3c-1,11 -2,-3 0,16l0 16c0,3 0,2 0,4 0,1 0,1 0,1l0 5c0,11 1,8 -1,22z"/>
   <path class="fil4" d="M902 697l-46 -24 79 -35c14,-6 26,-13 40,-19l30 -13c7,-3 5,-4 10,-2l-108 87c-8,7 -7,0 -5,6z"/>
   <path class="fil4" d="M585 214c-3,-6 -2,-16 -2,-23 0,-1 0,-3 0,-5 0,0 0,-6 0,-6 0,-5 -2,-6 0,-12 5,0 11,-3 17,-5l87 -31c7,-2 12,-4 18,-6 3,-1 5,-1 8,-3l9 -2c-8,8 -124,82 -137,93z"/>
   <path class="fil4" d="M815 644l-4 1 6 7c-9,-3 -39,-18 -48,-24 4,-1 4,-1 8,-3l98 -44c6,-2 11,-5 17,-8 4,-1 5,-2 9,-4l10 -3c-7,7 -15,13 -24,20l-72 58z"/>
   <path class="fil4" d="M585 306c-2,-6 -1,-12 -1,-19 0,-7 -1,-14 1,-20l42 -14c5,-2 8,-3 14,-4 5,-2 8,-4 14,-6 6,-2 37,-13 41,-13l-111 76z"/>
   <path class="fil5" d="M994 163c0,5 1,4 -1,8l-4 9 -85 45c5,-18 26,-25 41,-33 12,-7 39,-20 49,-29z"/>
   <path class="fil5" d="M1004 127c4,9 -2,0 2,8l-8 7 -68 37c-1,-16 21,-23 33,-29 13,-8 27,-16 41,-23z"/>
   <path class="fil6" d="M1016 89c0,6 -3,19 -6,23 -1,-5 0,-2 -2,-5l-58 31c12,-20 7,-15 29,-27 9,-5 28,-15 37,-22z"/>
   <path class="fil3" d="M236 642l0 -9 6 -5c25,0 12,33 -6,14z"/>
   <path class="fil2" d="M218 651c0,4 0,8 -5,12 -6,3 -11,0 -14,-6 -4,-7 6,-21 19,-6z"/>
   <path class="fil3" d="M167 663c14,-4 19,15 6,19 -11,3 -18,-15 -6,-19z"/>
   <polygon class="fil7" points="782,952 763,971 762,970 781,951 "/>
   <polygon class="fil7" points="940,795 922,812 921,811 939,793 "/>
   <path class="fil8" d="M718 583l-5 -5 4 -4c2,7 2,3 1,9z"/>
   <path class="fil9" d="M633 548c0,3 0,2 -2,5l-4 -4c3,-1 4,-3 6,-1z"/>
   <polygon class="fil10" points="416,415 412,419 409,417 413,413 "/>
   <path class="fil11" d="M972 730l-5 -5c2,0 2,-1 4,0 4,1 1,0 4,2l-3 3z"/>
   <path class="fil11" d="M718 593l-3 -4 2 -2c3,4 3,1 1,6z"/>
   <path class="fil12" d="M595 387c-5,2 -2,2 -7,1l4 -4 3 3z"/>
   <path class="fil13" d="M1010 379l4 -4c1,7 3,5 -4,4z"/>
   <path class="fil11" d="M411 410l-4 4c-1,-3 -1,-7 4,-4z"/>
   <path class="fil11" d="M597 121l-1 -2c0,-4 0,-2 0,-4 5,7 4,1 1,6z"/>
   <path class="fil12" d="M951 713c0,3 -6,3 -2,1 0,0 2,-5 2,-1z"/>
   <path class="fil14" d="M877 374c0,3 -6,3 -2,1 0,0 2,-5 2,-1z"/>
   <path class="fil13" d="M393 451c0,2 -6,2 -2,0 0,0 2,-5 2,0z"/>
   <path class="fil15" d="M967 397c0,2 -6,2 -2,0 0,0 2,-4 2,0z"/>
   <path class="fil16" d="M957 710c2,1 1,5 -1,2 -3,-4 -4,3 0,-1 1,-2 -1,-4 1,-1z"/>
   <path class="fil12" d="M1009 373c1,1 0,5 -2,2 -2,-4 -3,3 0,-1 1,-2 -1,-4 2,-1z"/>
   <path class="fil14" d="M597 242c2,1 0,5 -2,1 -2,-3 -3,4 0,0 2,-2 0,-4 2,-1z"/>
   <path class="fil14" d="M603 310c3,3 -1,3 0,1 0,0 -3,-4 0,-1z"/>
   <path class="fil17" d="M598 305c3,3 -1,3 0,1 0,0 -3,-4 0,-1z"/>
   <path class="fil11" d="M598 80c3,3 -1,2 0,1 0,0 -3,-4 0,-1z"/>
   <path class="fil14" d="M588 90c3,3 -1,2 0,1 0,0 -3,-4 0,-1z"/>
   <path class="fil13" d="M593 123c3,3 -1,2 0,0 0,0 -3,-4 0,0z"/>
   <path class="fil11" d="M603 385c3,4 -1,3 0,1 0,0 -3,-4 0,-1z"/>
   <path class="fil13" d="M598 380c3,4 -1,3 0,1 0,0 -3,-4 0,-1z"/>
   <polygon class="fil11" points="815,644 816,646 814,646 "/>
   <polygon class="fil9" points="653,566 652,564 655,564 "/>
   <polygon class="fil14" points="472,237 471,238 470,235 "/>
   <polygon class="fil18" points="587,372 588,370 589,373 "/>
   <path class="fil13" d="M439 329c0,0 -1,0 0,0l0 0c0,0 0,0 0,0z"/>
   <path class="fil17" d="M421 385c0,1 -1,0 -1,0l0 0c0,0 1,0 1,0z"/>
   <path class="fil13" d="M447 299c0,0 -1,0 -1,0l0 0c0,0 1,0 1,0z"/>
   <path class="fil13" d="M421 348c0,0 -1,0 -1,0l0 0c0,0 1,0 1,0z"/>
   <path class="fil14" d="M791 616l-1 0c0,0 1,-1 1,0z"/>
   <path class="fil11" d="M590 119l-1 0c0,0 1,0 1,0z"/>
   <path class="fil11" d="M398 456l-1 0c0,0 1,-1 1,0z"/>
   <path class="fil13" d="M466 243l-1 0c0,0 1,0 1,0z"/>
   <path class="fil13" d="M753 611l0 0c0,0 0,-1 0,0z"/>
   <path class="fil19" d="M974 390l-1 0c0,0 1,0 1,0z"/>
   <path class="fil13" d="M861 658l-1 0c0,0 1,0 1,0z"/>
   <path class="fil11" d="M1019 383l-1 0c0,0 1,0 1,0z"/>
   <path class="fil17" d="M592 224l-1 0c0,0 1,0 1,0z"/>
   <path class="fil17" d="M456 275l-1 0c0,0 1,0 1,0z"/>
   <path class="fil14" d="M383 461l-1 0c0,0 1,-1 1,0z"/>
   <path class="fil11" d="M732 594l-1 0c1,0 1,0 1,0z"/>
   <path class="fil11" d="M458 278l-1 0c0,0 1,0 1,0z"/>
   <path class="fil17" d="M592 74l-1 0c0,0 1,0 1,0z"/>
   <path class="fil15" d="M957 772l0 0c0,0 0,0 0,0z"/>
   <polygon class="fil14" points="977,384 976,388 "/>
  </g>
 </g>
</svg>
