<?xml version="1.0" encoding="UTF-8"?>
<!DOCTYPE svg PUBLIC "-//W3C//DTD SVG 1.1//EN" "http://www.w3.org/Graphics/SVG/1.1/DTD/svg11.dtd">
<!-- Creator: CorelDRAW X7 -->
<svg xmlns="http://www.w3.org/2000/svg" xml:space="preserve" width="6.389mm" height="111.327mm" version="1.1" style="shape-rendering:geometricPrecision; text-rendering:geometricPrecision; image-rendering:optimizeQuality; fill-rule:evenodd; clip-rule:evenodd"
viewBox="0 0 639 11133"
 xmlns:xlink="http://www.w3.org/1999/xlink">
 <defs>
  <style type="text/css">
   <![CDATA[
    .fil0 {fill:#393185;fill-rule:nonzero}
   ]]>
  </style>
 </defs>
 <g id="Слой_x0020_1">
  <metadata id="CorelCorpID_0Corel-Layer"/>
  <g id="_883455440">
   <path class="fil0" d="M448 10959c2,0 5,0 8,0 3,0 6,0 9,0 3,0 3,0 6,0 0,0 3,3 6,3 3,3 6,3 12,9 3,3 9,9 14,14 3,6 9,12 12,21 3,6 6,15 6,24 0,17 -6,32 -18,44 -8,12 -23,23 -44,32 -20,9 -44,15 -76,21 -30,6 -62,6 -100,6 -42,0 -77,-3 -106,-6 -33,-6 -59,-15 -80,-24 -20,-9 -38,-20 -47,-32 -12,-15 -18,-30 -18,-44 0,-6 0,-15 3,-21 3,-6 6,-12 9,-18 6,-5 9,-11 15,-14 6,-6 9,-9 12,-9 3,-3 6,-3 8,-3 0,-3 3,-3 6,-3 3,0 6,0 9,0 3,0 6,0 9,0 6,0 12,0 15,0 3,0 6,0 9,0 0,3 3,3 3,3 2,0 2,0 2,3 0,0 -2,3 -5,6 -6,3 -12,9 -18,12 -6,5 -12,11 -15,20 -6,6 -9,15 -9,24 0,11 6,20 15,29 9,9 21,18 35,24 18,6 39,11 62,14 24,3 50,6 83,6 29,0 56,-3 79,-6 24,-3 41,-8 59,-14 15,-6 27,-12 35,-24 6,-9 12,-18 12,-29 0,-9 -3,-18 -9,-27 -3,-6 -9,-12 -14,-17 -6,-6 -12,-9 -15,-12 -6,-3 -9,-6 -9,-9 0,0 0,0 3,-3 0,0 0,0 3,0 3,0 6,0 9,0 3,0 9,0 14,0l1 0zm44 -227c6,0 9,0 11,0 3,0 6,0 9,0 0,3 3,3 3,6 0,3 0,6 0,9 0,6 0,9 0,9 0,3 0,6 -3,6 0,3 0,3 -3,3 0,0 -3,0 -6,3l-114 20 0 100 114 21c3,0 3,0 6,0 0,0 3,3 3,3 3,0 3,3 3,6 0,3 0,3 0,9 0,3 0,5 0,8 0,0 -3,3 -3,3 -3,3 -6,3 -9,3 -2,0 -5,0 -11,-3l-442 -79c-3,-3 -6,-3 -9,-3 0,0 -3,-3 -3,-3 0,-3 -3,-3 -3,-6 0,-3 0,-6 0,-9 0,-6 0,-9 0,-12 0,-2 3,-2 3,-5 0,-3 3,-3 3,-3 3,-3 6,-3 9,-3l442 -83 0 0zm-392 106l0 0 239 41 0 -82 -239 41zm403 -409c3,0 6,0 6,3 3,0 3,0 3,0 3,3 3,3 3,6 0,3 0,6 0,9 0,3 0,6 0,6 0,2 0,5 -3,5 0,0 0,3 -3,3 0,0 -3,0 -6,0l-415 0 0 0 418 86c3,0 3,3 3,3 3,0 3,0 3,3 3,0 3,3 3,3 0,3 0,5 0,8 0,3 0,3 0,6 0,3 0,3 -3,3 0,3 0,3 -3,3 0,3 -3,3 -3,3l-418 83 0 0 415 0c3,0 6,0 6,0 3,0 3,3 3,3 3,0 3,2 3,5 0,0 0,3 0,6 0,3 0,6 0,9 0,3 0,3 -3,6 0,0 0,0 -3,0 0,3 -3,3 -6,3l-435 0c-12,0 -18,-3 -24,-6 -3,-3 -6,-6 -6,-9l0 -20c0,-3 0,-6 3,-9 0,-3 3,-6 6,-9 3,-3 6,-3 12,-6 6,0 12,-3 18,-3l344 -71 0 0 -344 -73c-6,0 -12,-3 -18,-3 -6,-3 -9,-3 -12,-6 -3,-3 -6,-3 -9,-6 0,-3 0,-6 0,-9l0 -20c0,-3 0,-3 0,-6 3,0 3,-3 6,-3 3,-3 6,-3 9,-3 3,-3 9,-3 15,-3l435 0 0 0zm-232 -268c38,0 73,3 103,9 32,3 59,12 79,20 21,9 39,21 50,36 12,12 18,29 18,47 0,18 -6,35 -18,47 -8,15 -26,24 -44,32 -20,9 -47,15 -76,21 -30,3 -65,6 -103,6 -39,0 -74,-3 -103,-6 -33,-6 -56,-12 -80,-21 -20,-8 -38,-20 -50,-35 -12,-15 -18,-29 -18,-50 0,-18 6,-32 18,-44 9,-15 27,-27 47,-35 18,-9 44,-15 74,-18 29,-6 65,-9 103,-9zm3 35c-27,0 -50,0 -74,3 -23,3 -44,6 -62,12 -14,6 -29,15 -38,24 -9,9 -15,20 -15,35 0,15 6,27 15,35 12,9 24,18 41,24 18,6 39,9 62,12 21,3 44,3 71,3 29,0 53,0 76,-3 24,-3 45,-6 62,-12 18,-6 30,-12 38,-21 12,-11 15,-23 15,-35 0,-15 -6,-27 -15,-38 -11,-9 -23,-15 -41,-21 -17,-6 -38,-12 -62,-15 -23,-3 -47,-3 -73,-3l0 0zm229 -244c3,0 6,0 6,0 3,0 3,0 3,3 3,0 3,3 3,6 0,0 0,3 0,6 0,3 0,6 0,9 0,2 0,2 -3,5 0,0 0,0 -3,0 0,3 -3,3 -6,3l-412 0 0 68c56,3 106,6 150,9 45,3 83,9 112,12 33,3 59,9 80,11 20,6 38,9 53,15 12,6 20,15 26,21 6,6 9,15 9,23 0,3 -3,3 -3,6 0,0 -3,0 -6,0 0,3 -3,3 -6,3 -5,0 -8,0 -14,0 -6,0 -12,0 -15,0 -3,0 -6,0 -9,0 -3,-3 -6,-3 -6,-3 0,0 0,-3 0,-3 0,-6 -3,-8 -6,-11 -6,-6 -11,-9 -20,-12 -12,-6 -27,-9 -44,-12 -18,-3 -42,-6 -71,-9 -30,-6 -65,-9 -106,-12 -41,-3 -91,-6 -150,-8 -9,0 -18,0 -21,-3 -3,-3 -6,-6 -6,-9l0 -106c0,-6 3,-9 6,-9 3,-3 12,-3 21,-3l438 0 0 0zm0 -97c3,0 6,0 6,0 3,0 3,3 3,3 3,0 3,3 3,6 0,0 0,3 0,6 0,3 0,5 0,8 0,3 0,3 -3,6 0,0 0,0 -3,3 0,0 -3,0 -6,0l-456 0c-3,0 -3,0 -6,0 0,-3 -3,-3 -3,-3 0,-3 0,-3 -3,-6 0,-3 0,-5 0,-8 0,-3 0,-6 0,-6 3,-3 3,-6 3,-6 0,0 3,-3 3,-3 3,0 3,0 6,0l456 0zm0 -227c3,0 6,0 6,3 3,0 3,0 3,0 3,3 3,3 3,6 0,3 0,6 0,9 0,3 0,6 0,9 0,0 -3,3 -3,3 0,2 -3,2 -6,2 0,3 -3,3 -5,3l-115 24c-18,3 -30,6 -42,9 -11,3 -20,9 -26,12 -9,5 -15,11 -18,17 -3,6 -3,12 -3,18l0 15 206 0c3,0 6,0 6,0 3,0 3,3 3,3 3,3 3,3 3,5 0,3 0,3 0,6 0,6 0,6 0,9 0,3 0,3 -3,6 0,0 0,3 -3,3 0,0 -3,0 -6,0l-456 0c-3,0 -3,0 -6,0 0,0 -3,-3 -3,-3 0,-3 0,-3 -3,-6 0,-3 0,-3 0,-9 0,-3 0,-3 0,-6 3,-2 3,-2 3,-5 0,0 3,-3 3,-3 3,0 3,0 6,0l194 0 0 -15c0,-6 0,-12 -5,-18 -3,-6 -9,-12 -15,-14 -9,-6 -18,-9 -27,-12 -11,-3 -23,-6 -41,-9l-103 -18c-3,-3 -3,-3 -6,-3 -3,0 -3,0 -6,-3 0,0 0,-3 -3,-5 0,0 0,-3 0,-6 0,-6 0,-6 0,-9 0,-3 3,-3 3,-6 0,0 3,0 3,-3 3,0 3,0 6,0 3,0 6,0 9,0 3,3 9,3 12,3l100 21c15,2 26,5 38,8 12,0 21,6 27,9 8,3 14,6 20,12 6,3 9,9 12,12l0 0c6,-6 9,-9 15,-15 6,-3 11,-9 20,-12 9,-6 18,-9 30,-12 12,-2 23,-5 41,-8l112 -24c6,0 12,-3 15,-3 3,0 5,0 5,0l0 0zm-123 -144c29,6 53,12 70,18 18,2 33,8 42,14 11,6 17,12 20,18 6,6 6,12 6,21 0,2 0,5 0,8 0,3 -3,6 -3,6 -3,3 -3,6 -6,9 0,0 -3,3 -3,3 -3,0 -3,3 -5,3 0,0 -3,0 -6,0 -3,0 -6,0 -9,0 -3,0 -9,0 -12,0 -12,0 -18,0 -21,0 -5,0 -5,-3 -5,-6 0,0 0,0 0,-3 2,0 2,-3 5,-3 3,-3 3,-6 6,-9 0,-3 3,-6 3,-8 0,-3 -3,-6 -3,-9 -3,-3 -6,-6 -9,-6 -5,-3 -11,-6 -17,-9 -9,-3 -21,-6 -33,-9l-341 86c-6,2 -9,2 -12,2 -3,0 -6,0 -6,0 -3,-2 -3,-2 -6,-5 0,-3 0,-6 0,-9 0,-6 0,-9 0,-9 0,-3 3,-6 3,-6 0,-3 3,-3 6,-3 0,0 3,-3 6,-3l174 -44c20,-3 38,-9 56,-12 17,-6 35,-9 53,-15l0 0c-18,-2 -36,-5 -56,-8 -18,-3 -39,-9 -59,-12l-171 -35c-3,0 -3,0 -6,0 0,-3 -3,-3 -3,-3 0,-3 -3,-6 -3,-6 0,-3 0,-6 0,-9 0,-6 0,-9 0,-9 3,-3 3,-6 6,-6 0,0 3,0 6,0 0,0 3,0 9,0l324 68 0 0zm-3 -265c15,0 29,3 41,3 12,3 24,6 35,9 9,3 18,8 27,11 6,6 15,12 18,18 5,6 8,12 11,21 3,6 6,14 6,23l0 62c0,3 -3,6 -6,9 -6,3 -11,6 -20,6l-424 0c-12,0 -18,-3 -21,-6 -6,-3 -6,-6 -6,-9l0 -53c0,-15 3,-26 9,-35 3,-9 12,-18 24,-24 8,-6 20,-12 35,-15 15,-2 32,-5 53,-5 9,0 21,3 32,3 9,2 18,2 27,5 9,3 18,6 23,12 9,3 15,9 18,12 3,-6 6,-12 15,-18 6,-6 15,-11 23,-14 9,-3 21,-9 36,-9 14,-3 29,-6 44,-6l0 0zm-212 50c-12,0 -24,0 -33,0 -8,3 -17,6 -23,9 -6,3 -12,9 -15,14 -3,6 -6,12 -6,21l0 35 156 0 0 -38c0,-9 -3,-15 -8,-20 -3,-3 -9,-9 -15,-12 -9,-3 -18,-6 -27,-9 -9,0 -20,0 -29,0l0 0zm215 -15c-12,0 -27,0 -36,3 -11,3 -20,6 -29,9 -6,6 -12,12 -15,18 -6,6 -6,14 -6,26l0 38 168 0 0 -47c0,-9 -3,-14 -6,-20 -3,-6 -8,-9 -14,-15 -6,-3 -15,-6 -27,-9 -9,-3 -20,-3 -35,-3l0 0zm112 -262c6,0 9,0 11,0 3,0 6,0 9,0 0,3 3,3 3,6 0,3 0,6 0,9 0,3 0,6 0,9 0,3 0,6 -3,6 0,0 0,3 -3,3 0,0 -3,0 -6,0l-114 23 0 100 114 18c3,3 3,3 6,3 0,0 3,3 3,3 3,0 3,3 3,6 0,0 0,3 0,8 0,3 0,6 0,9 0,0 -3,3 -3,3 -3,3 -6,3 -9,3 -2,0 -5,-3 -11,-3l-442 -79c-3,-3 -6,-3 -9,-3 0,0 -3,-3 -3,-3 0,-3 -3,-6 -3,-6 0,-3 0,-6 0,-12 0,-3 0,-6 0,-9 0,-3 3,-6 3,-6 0,-2 3,-2 3,-2 3,-3 6,-3 9,-3l442 -83zm-392 106l0 0 239 41 0 -85 -239 44zm403 -321c3,0 6,0 6,3 3,0 3,0 3,0 3,3 3,3 3,6 0,3 0,6 0,9 0,3 0,6 0,6 0,3 0,6 -3,6 0,3 0,3 -3,3 0,0 -3,0 -6,0l-209 0 0 111 209 0c3,0 6,0 6,0 3,0 3,0 3,3 3,0 3,3 3,3 0,3 0,6 0,9 0,3 0,6 0,9 0,0 0,3 -3,3 0,3 0,3 -3,3 0,3 -3,3 -6,3l-456 0c-3,0 -3,0 -6,-3 0,0 -3,0 -3,-3 0,0 0,-3 -3,-3 0,-3 0,-6 0,-9 0,-3 0,-6 0,-9 3,0 3,-3 3,-3 0,-3 3,-3 3,-3 3,0 3,0 6,0l191 0 0 -111 -191 0c-3,0 -3,0 -6,0 0,0 -3,0 -3,-3 0,0 0,-3 -3,-6 0,0 0,-3 0,-6 0,-3 0,-6 0,-9 3,-3 3,-3 3,-6 0,0 3,0 3,0 3,-3 3,-3 6,-3l456 0zm0 -238c3,0 6,0 6,0 3,3 3,3 3,3 3,3 3,3 3,6 0,2 0,5 0,8 0,3 0,6 0,6 0,3 0,6 -3,6 0,0 0,3 -3,3 0,0 -3,0 -6,0l-209 0 0 112 209 0c3,0 6,0 6,0 3,0 3,0 3,3 3,0 3,3 3,3 0,3 0,6 0,9 0,3 0,6 0,9 0,0 0,2 -3,2 0,3 0,3 -3,3 0,0 -3,0 -6,0l-456 0c-3,0 -3,0 -6,0 0,0 -3,0 -3,-3 0,0 0,-2 -3,-2 0,-3 0,-6 0,-9 0,-3 0,-6 0,-9 3,0 3,-3 3,-3 0,-3 3,-3 3,-3 3,0 3,0 6,0l191 0 0 -112 -191 0c-3,0 -3,0 -6,0 0,0 -3,-3 -3,-3 0,0 0,-3 -3,-6 0,0 0,-3 0,-6 0,-3 0,-6 0,-8 3,-3 3,-3 3,-6 0,0 3,0 3,-3 3,0 3,0 6,0l456 0zm0 -212c3,0 6,0 6,0 3,0 3,0 3,3 3,0 3,3 3,6 0,0 0,2 0,5 0,3 0,6 0,9 0,3 0,3 -3,6 0,0 0,0 -3,0 0,3 -3,3 -6,3l-197 0 0 24c0,8 3,17 6,23 3,3 9,9 18,12 6,3 14,9 26,9 9,3 21,6 36,9l109 20c2,0 5,3 8,3 0,0 3,0 3,3 3,0 3,3 3,6 0,0 0,3 0,6 0,6 0,9 0,9 0,3 -3,6 -3,6 0,0 -3,3 -3,3 0,0 -3,0 -6,0 -2,0 -5,0 -8,0 -3,0 -9,-3 -15,-3l-103 -21c-12,-3 -21,-6 -33,-9 -8,0 -17,-3 -26,-6 -6,-3 -12,-9 -18,-11 -6,-3 -9,-6 -11,-12 -6,9 -9,14 -18,20 -6,6 -15,12 -24,15 -9,6 -20,9 -32,12 -12,0 -27,3 -41,3 -21,0 -39,-3 -56,-6 -15,-3 -30,-9 -41,-15 -12,-9 -21,-15 -30,-26 -6,-12 -9,-27 -9,-44l0 -51c0,-2 0,-5 6,-8 3,-3 9,-3 21,-3l438 0 0 0zm-415 32l0 30c0,11 3,23 6,29 6,6 12,12 18,15 9,6 18,9 26,9 9,2 21,2 33,2 12,0 23,0 32,-2 9,0 18,-3 27,-9 8,-3 14,-9 17,-15 6,-6 6,-18 6,-29l0 -30 -165 0 0 0zm415 -447c3,0 6,0 6,0 3,2 3,2 3,2 3,3 3,3 3,6 0,3 0,3 0,9 0,3 0,3 0,6 0,3 0,3 -3,6 0,0 0,3 -3,3 0,0 -3,0 -6,0l-415 0 0 0 418 85c3,0 3,0 3,3 3,0 3,0 3,3 3,0 3,3 3,3 0,3 0,6 0,6 0,3 0,6 0,9 0,0 0,3 -3,3 0,3 0,3 -3,3 0,3 -3,3 -3,3l-418 82 0 0 415 0c3,0 6,0 6,0 3,0 3,0 3,3 3,0 3,3 3,3 0,3 0,6 0,9 0,3 0,6 0,9 0,0 0,3 -3,3 0,3 0,3 -3,3 0,0 -3,2 -6,2l-435 0c-12,0 -18,-2 -24,-5 -3,-3 -6,-6 -6,-9l0 -21c0,-3 0,-6 3,-9 0,-3 3,-6 6,-9 3,-2 6,-5 12,-5 6,-3 12,-3 18,-3l344 -71 0 0 -344 -74c-6,0 -12,-3 -18,-3 -6,-2 -9,-2 -12,-5 -3,-3 -6,-6 -9,-6 0,-3 0,-6 0,-9l0 -21c0,-3 0,-3 0,-6 3,-3 3,-3 6,-6 3,0 6,0 9,-2 3,0 9,0 15,0l435 0 0 0z"/>
   <path class="fil0" d="M271 7644c38,0 73,3 103,8 32,3 59,12 79,21 21,9 39,21 50,32 12,15 18,33 18,50 0,18 -6,33 -18,48 -8,11 -26,23 -44,32 -20,9 -47,15 -76,21 -30,3 -65,5 -103,5 -39,0 -74,-2 -103,-5 -33,-6 -56,-12 -80,-24 -20,-9 -38,-21 -50,-32 -12,-15 -18,-30 -18,-50 0,-18 6,-33 18,-48 9,-11 27,-23 47,-32 18,-9 44,-15 74,-21 29,-2 65,-5 103,-5l0 0zm3 35c-27,0 -50,0 -74,3 -23,3 -44,6 -62,12 -14,6 -29,14 -38,23 -9,9 -15,21 -15,36 0,14 6,26 15,35 12,9 24,18 41,23 18,6 39,9 62,12 21,3 44,3 71,3 29,0 53,0 76,-3 24,-3 45,-6 62,-12 18,-5 30,-11 38,-23 12,-9 15,-21 15,-35 0,-12 -6,-24 -15,-36 -11,-9 -23,-17 -41,-23 -17,-6 -38,-9 -62,-12 -23,-3 -47,-3 -73,-3zm229 -339c3,0 6,0 6,3 3,0 3,0 3,0 3,3 3,3 3,6 0,3 0,6 0,9 0,3 0,6 0,9 0,0 -3,3 -3,3 0,3 -3,3 -6,3 0,3 -3,3 -5,3l-121 20c-15,3 -27,6 -38,9 -9,3 -18,6 -27,12 -6,3 -12,9 -15,15 -3,5 -3,11 -3,20l0 12 206 0c3,0 6,0 6,0 3,0 3,0 3,3 3,0 3,3 3,3 0,3 0,6 0,9 0,3 0,6 0,9 0,0 0,2 -3,2 0,3 0,3 -3,3 0,0 -3,0 -6,0l-206 0 0 12c0,9 0,15 3,21 6,6 12,12 18,17 9,3 18,9 26,12 12,3 24,6 36,6l121 21c2,0 5,0 5,3 3,0 6,0 6,3 0,0 3,3 3,3 0,3 0,5 0,8 0,3 0,6 0,9 0,3 0,3 -3,6 0,0 0,0 -3,3 0,0 -3,0 -6,0 0,0 0,0 -2,0 0,0 -3,0 -3,0 -3,0 -6,-3 -6,-3 -3,0 -6,0 -9,0l-106 -18c-18,-2 -33,-5 -44,-11 -12,-3 -21,-6 -30,-9 -9,-3 -14,-9 -20,-12 -6,-6 -12,-12 -15,-18l0 0c-3,6 -6,9 -12,15 -3,3 -9,6 -18,12 -8,3 -17,6 -29,9 -12,3 -26,6 -41,9l-100 14c-3,3 -9,3 -12,3 -3,0 -6,0 -9,0 -3,0 -3,0 -6,0 0,0 -3,0 -3,-3 0,0 -3,-3 -3,-3 0,-3 0,-6 0,-9 0,-2 0,-5 0,-8 3,-3 3,-3 3,-6 3,0 3,0 6,-3 3,0 3,0 6,0l112 -18c15,-3 26,-6 35,-9 12,-3 18,-6 27,-8 6,-3 12,-9 14,-15 3,-6 3,-12 3,-21l0 -12 -194 0c-3,0 -3,0 -6,0 0,0 -3,0 -3,-3 0,0 0,-2 -3,-2 0,-3 0,-6 0,-9 0,-3 0,-6 0,-9 3,0 3,-3 3,-3 0,-3 3,-3 3,-3 3,0 3,0 6,0l194 0 0 -12c0,-9 0,-15 -5,-20 -3,-6 -9,-9 -15,-15 -6,-3 -15,-6 -24,-9 -12,-3 -23,-6 -35,-9l-112 -17c-3,0 -3,0 -6,0 -3,0 -3,-3 -6,-3 0,-3 0,-3 -3,-6 0,-3 0,-6 0,-9 0,-3 0,-6 0,-6 0,-3 3,-6 3,-6 0,0 3,-3 3,-3 3,0 3,0 6,0 3,0 6,0 9,0 3,0 9,3 12,3l97 15c15,3 29,6 38,9 12,3 21,6 30,8 8,3 14,9 20,12 3,3 9,9 12,15l0 0c6,-6 9,-12 15,-18 6,-3 14,-9 23,-11 9,-3 18,-6 30,-9 11,-3 26,-6 44,-9l106 -21c3,0 6,0 9,0 0,0 3,0 6,-3 0,0 3,0 3,0 2,0 2,0 2,0l0 0zm-14 -182c3,0 6,0 12,0 2,0 5,0 5,3 3,0 6,0 6,0 0,3 3,3 3,3l0 117c0,3 -3,6 -6,9 -6,0 -11,3 -20,3l-424 0c-12,0 -18,-3 -21,-3 -6,-3 -6,-6 -6,-9l0 -114c0,-3 0,-3 0,-3 3,-3 3,-3 6,-3 3,0 6,0 9,0 3,0 6,0 12,0 3,0 9,0 12,0 2,0 5,0 8,0 0,0 3,3 3,3 3,0 3,0 3,3l0 94 147 0 0 -83c0,0 3,0 3,-3 0,0 3,0 6,0 0,-2 3,-2 6,-2 3,0 9,0 12,0 6,0 9,0 12,0 3,0 6,0 9,2 3,0 3,0 3,0 2,3 2,3 2,3l0 83 171 0 0 -97c0,0 0,0 0,-3 0,0 3,0 6,0 0,-3 3,-3 6,-3 6,0 9,0 15,0l0 0zm-118 -298c21,0 38,0 53,3 18,3 32,9 47,15 12,6 24,15 30,27 8,11 14,26 14,44l0 59c0,3 -3,6 -6,8 -6,0 -11,3 -20,3l-424 0c-12,0 -18,-3 -21,-3 -6,-2 -6,-5 -6,-8l0 -127c0,0 0,-3 0,-3 3,0 3,0 6,-3 3,0 6,0 9,0 3,0 6,0 12,0 3,0 9,0 12,0 2,0 5,0 8,0 0,3 3,3 3,3 3,0 3,3 3,3l0 106 150 0 0 -44c0,-15 3,-30 9,-38 6,-9 15,-18 27,-24 12,-9 23,-12 41,-18 15,-3 35,-3 53,-3l0 0zm6 33c-15,0 -27,0 -35,3 -12,3 -21,6 -27,9 -9,5 -15,8 -18,17 -6,6 -6,15 -6,24l0 41 171 0 0 -41c0,-12 -3,-18 -6,-24 -3,-9 -8,-12 -17,-17 -6,-3 -15,-6 -27,-9 -9,-3 -23,-3 -35,-3l0 0zm3 -177c29,6 53,12 70,18 18,6 33,9 42,15 11,5 17,11 20,17 6,6 6,12 6,21 0,3 0,6 0,9 0,3 -3,6 -3,8 -3,3 -3,3 -6,6 0,3 -3,3 -3,3 -3,3 -3,3 -5,3 0,0 -3,0 -6,0 -3,3 -6,3 -9,3 -3,0 -9,0 -12,0 -12,0 -18,0 -21,-3 -5,0 -5,-3 -5,-3 0,-3 0,-3 0,-3 2,-3 2,-3 5,-6 3,-2 3,-2 6,-5 0,-3 3,-6 3,-12 0,-3 -3,-6 -3,-6 -3,-3 -6,-6 -9,-9 -5,-3 -11,-6 -17,-9 -9,-3 -21,-6 -33,-9l-341 89c-6,0 -9,0 -12,0 -3,0 -6,0 -6,0 -3,0 -3,-3 -6,-6 0,-3 0,-6 0,-9 0,-3 0,-6 0,-9 0,-3 3,-3 3,-6 0,0 3,-3 6,-3 0,0 3,0 6,-3l174 -41c20,-6 38,-9 56,-15 17,-2 35,-8 53,-11l0 0c-18,-6 -36,-9 -56,-12 -18,-3 -39,-9 -59,-12l-171 -35c-3,0 -3,0 -6,0 0,0 -3,-3 -3,-3 0,-3 -3,-3 -3,-6 0,-3 0,-6 0,-9 0,-3 0,-6 0,-9 3,-3 3,-3 6,-6 0,0 3,0 6,0 0,0 3,0 9,0l324 68 0 0zm-315 -256c6,0 9,0 12,0 2,0 5,3 8,3 3,0 3,0 3,3 3,0 3,0 3,0l0 71 412 0c3,0 6,0 6,0 3,0 3,0 3,2 3,0 3,3 3,3 0,3 0,6 0,9 0,3 0,6 0,9 0,0 0,3 -3,3 0,3 0,3 -3,3 0,0 -3,0 -6,0l-412 0 0 71c0,0 0,0 -3,3 0,0 0,0 -3,0 -3,0 -6,0 -8,2 -3,0 -6,0 -12,0 -6,0 -9,0 -12,0 -3,-2 -6,-2 -9,-2 -3,0 -3,0 -6,0 0,-3 0,-3 0,-3l0 -171c0,0 0,0 0,0 3,-3 3,-3 6,-3 3,0 6,-3 9,-3 3,0 6,0 12,0l0 0zm438 -215c3,0 6,0 6,0 3,0 3,0 3,3 3,0 3,3 3,3 0,3 0,6 0,9 0,3 0,6 0,9 0,0 0,3 -3,3 0,2 0,2 -3,2 0,0 -3,3 -6,3l-312 0c-6,0 -14,0 -23,0 -9,-3 -15,-3 -21,-3l0 0c3,3 6,3 9,6 6,0 9,0 15,3 3,0 9,3 12,3 2,3 8,3 11,6l312 103c0,3 3,3 3,3 3,0 3,3 3,3 3,0 3,3 3,3 0,3 0,6 0,9 0,3 0,3 0,6 0,3 0,3 -3,3 0,3 -3,3 -3,3 -3,0 -3,0 -6,0l-456 0c-3,0 -3,0 -6,0 0,0 -3,0 -3,-3 0,0 -3,-3 -3,-6 0,0 0,-3 0,-6 0,-3 0,-6 0,-9 0,0 3,-3 3,-3 0,-3 3,-3 3,-3 3,0 3,-3 6,-3l315 0c6,0 12,0 21,0 9,0 14,3 20,3l0 0c-6,-3 -11,-6 -20,-9 -9,-3 -18,-6 -27,-9l-309 -103c-3,0 -3,-2 -6,-2 0,0 -3,-3 -3,-3 0,0 -3,-3 -3,-3 0,-3 0,-6 0,-6 0,-3 0,-6 0,-9 0,-3 3,-3 3,-3 0,-3 3,-3 3,-3 3,0 3,0 6,0l456 0 0 0zm-14 -421c9,0 14,3 17,3 6,3 9,6 9,9l0 244c0,6 -3,9 -9,9 -3,3 -8,3 -17,3l-442 0c-3,0 -3,0 -6,0 0,0 -3,0 -3,-3 0,0 -3,-3 -3,-3 0,-3 0,-6 0,-9 0,-3 0,-6 0,-9 0,0 3,-3 3,-3 0,-3 3,-3 3,-3 3,0 3,0 6,0l412 0 0 -88 -412 0c-3,0 -3,0 -6,0 0,0 -3,-3 -3,-3 0,0 -3,-3 -3,-6 0,0 0,-3 0,-6 0,-3 0,-5 0,-8 0,-3 3,-3 3,-3 0,-3 3,-3 3,-3 3,-3 3,-3 6,-3l412 0 0 -86 -412 0c-3,0 -3,0 -6,0 0,0 -3,-3 -3,-3 0,-2 -3,-2 -3,-5 0,-3 0,-3 0,-6 0,-3 0,-6 0,-9 0,-3 3,-3 3,-6 0,0 3,0 3,-3 3,0 3,0 6,0l442 0 0 0zm14 -224c3,0 6,0 6,0 3,0 3,0 3,3 3,0 3,3 3,3 0,3 0,6 0,9 0,3 0,6 0,9 0,3 -3,3 -3,6 0,0 -3,3 -6,3 0,0 -3,0 -5,0l-115 23c-18,3 -30,6 -42,9 -11,3 -20,9 -26,12 -9,6 -15,12 -18,17 -3,6 -3,12 -3,21l0 12 206 0c3,0 6,0 6,3 3,0 3,0 3,0 3,3 3,3 3,6 0,3 0,6 0,8 0,3 0,6 0,6 0,3 0,6 -3,6 0,3 0,3 -3,3 0,0 -3,0 -6,0l-456 0c-3,0 -3,0 -6,0 0,0 -3,0 -3,-3 0,0 0,-3 -3,-6 0,0 0,-3 0,-6 0,-2 0,-5 0,-8 3,-3 3,-3 3,-6 0,0 3,0 3,0 3,-3 3,-3 6,-3l194 0 0 -12c0,-9 0,-15 -5,-21 -3,-5 -9,-11 -15,-14 -9,-3 -18,-9 -27,-12 -11,-3 -23,-6 -41,-9l-103 -18c-3,0 -3,0 -6,-3 -3,0 -3,0 -6,-2 0,0 0,-3 -3,-3 0,-3 0,-6 0,-9 0,-3 0,-6 0,-9 0,-3 3,-3 3,-3 0,-3 3,-3 3,-3 3,0 3,0 6,0 3,0 6,0 9,0 3,0 9,0 12,0l100 21c15,3 26,6 38,9 12,2 21,5 27,8 8,3 14,9 20,12 6,3 9,9 12,15l0 0c6,-6 9,-12 15,-18 6,-3 11,-9 20,-12 9,-3 18,-6 30,-11 12,-3 23,-6 41,-9l112 -24c6,0 12,0 15,0 3,0 5,0 5,0zm0 -79c3,0 6,0 6,0 3,0 3,0 3,3 3,0 3,3 3,3 0,3 0,5 0,8 0,3 0,6 0,9 0,0 0,3 -3,3 0,3 0,3 -3,3 0,0 -3,3 -6,3l-456 0c-3,0 -3,-3 -6,-3 0,0 -3,0 -3,-3 0,0 0,-3 -3,-3 0,-3 0,-6 0,-9 0,-3 0,-5 0,-8 3,0 3,-3 3,-3 0,-3 3,-3 3,-3 3,0 3,0 6,0l456 0zm127 -271c0,0 3,0 3,0 3,0 3,0 3,3 3,0 3,0 3,3 0,3 0,3 0,6 0,3 0,5 0,8 0,0 0,3 -3,3 0,0 0,3 -3,3 0,0 -3,0 -3,0l-115 0 0 183 115 0c0,0 3,0 3,0 3,0 3,3 3,3 3,0 3,3 3,3 0,3 0,6 0,9 0,3 0,3 0,5 0,3 0,3 -3,3 0,3 0,3 -3,3 0,0 -3,0 -3,0l-150 0c-9,3 -12,0 -15,0 -3,-3 -6,-3 -6,-6l0 -14c-9,-3 -17,-6 -26,-9 -9,-3 -21,-6 -33,-9 -11,-3 -26,-6 -44,-9 -17,-3 -41,-6 -67,-6 -27,-3 -59,-6 -95,-8 -35,-3 -79,-6 -129,-9 -9,0 -18,-3 -21,-3 -3,-3 -6,-6 -6,-9l0 -112c0,-3 3,-6 6,-9 3,0 12,-3 21,-3l394 0 0 -23c0,-3 3,-3 6,-6 3,0 9,0 15,0l150 0 0 0zm-539 62l0 73c47,3 86,3 121,6 32,3 62,6 88,9 24,3 44,6 62,6 18,3 33,6 44,9 12,3 24,6 33,9 6,2 14,5 20,8l0 -120 -368 0 0 0zm412 -274c3,0 6,0 6,3 3,0 3,0 3,0 3,3 3,3 3,6 0,3 0,6 0,8 0,3 0,6 0,6 0,3 0,6 -3,6 0,3 0,3 -3,3 0,0 -3,0 -6,0l-412 0 0 68c56,3 106,9 150,12 45,3 83,6 112,9 33,5 59,8 80,14 20,3 38,9 53,15 12,6 20,12 26,18 6,8 9,17 9,26 0,0 -3,3 -3,3 0,0 -3,3 -6,3 0,0 -3,0 -6,3 -5,0 -8,0 -14,0 -6,0 -12,0 -15,0 -3,-3 -6,-3 -9,-3 -3,0 -6,0 -6,-3 0,0 0,0 0,-3 0,-3 -3,-9 -6,-12 -6,-3 -11,-8 -20,-11 -12,-3 -27,-6 -44,-12 -18,-3 -42,-6 -71,-9 -30,-3 -65,-6 -106,-9 -41,-3 -91,-6 -150,-9 -9,-3 -18,-3 -21,-6 -3,0 -6,-3 -6,-5l0 -109c0,-3 3,-6 6,-9 3,0 12,-3 21,-3l438 0zm0 -245c3,0 6,0 6,0 3,0 3,0 3,3 3,0 3,3 3,3 0,3 0,6 0,9 0,3 0,6 0,9 0,0 0,3 -3,3 0,3 0,3 -3,3 0,0 -3,0 -6,0l-312 0c-6,0 -14,0 -23,0 -9,0 -15,0 -21,0l0 0c3,3 6,3 9,3 6,3 9,3 15,6 3,0 9,3 12,3 2,3 8,3 11,6l312 103c0,0 3,3 3,3 3,0 3,2 3,2 3,0 3,3 3,3 0,3 0,6 0,6 0,3 0,6 0,9 0,0 0,3 -3,3 0,3 -3,3 -3,3 -3,0 -3,0 -6,0l-456 0c-3,0 -3,0 -6,0 0,0 -3,-3 -3,-3 0,0 -3,-3 -3,-6 0,0 0,-3 0,-6 0,-3 0,-6 0,-9 0,-2 3,-2 3,-5 0,0 3,0 3,0 3,-3 3,-3 6,-3l315 0c6,0 12,0 21,0 9,0 14,0 20,3l0 -3c-6,0 -11,-3 -20,-6 -9,-3 -18,-6 -27,-9l-309 -103c-3,-3 -3,-3 -6,-3 0,0 -3,-3 -3,-3 0,0 -3,-3 -3,-3 0,-3 0,-6 0,-9 0,-3 0,-3 0,-6 0,-3 3,-3 3,-3 0,-3 3,-3 3,-3 3,0 3,0 6,0l456 0 0 0z"/>
   <path class="fil0" d="M377 4567c15,0 29,3 41,3 12,3 24,6 35,9 9,2 18,8 27,11 6,6 15,12 18,18 5,6 8,12 11,21 3,5 6,14 6,23l0 65c0,3 -3,6 -6,6 -6,3 -11,6 -20,6l-424 0c-12,0 -18,-3 -21,-6 -6,0 -6,-3 -6,-6l0 -56c0,-15 3,-27 9,-35 3,-9 12,-18 24,-24 8,-6 20,-12 35,-15 15,-3 32,-3 53,-3 9,0 21,0 32,0 9,3 18,3 27,6 9,3 18,6 23,12 9,3 15,9 18,15 3,-9 6,-15 15,-21 6,-6 15,-9 23,-15 9,-2 21,-5 36,-8 14,-3 29,-6 44,-6l0 0zm-212 50c-12,0 -24,0 -33,3 -8,0 -17,3 -23,6 -6,3 -12,8 -15,14 -3,6 -6,12 -6,21l0 35 156 0 0 -38c0,-9 -3,-15 -8,-21 -3,-3 -9,-8 -15,-11 -9,-3 -18,-6 -27,-6 -9,-3 -20,-3 -29,-3l0 0zm215 -15c-12,0 -27,0 -36,3 -11,3 -20,6 -29,9 -6,6 -12,12 -15,18 -6,5 -6,14 -6,26l0 38 168 0 0 -47c0,-9 -3,-15 -6,-20 -3,-6 -8,-9 -14,-15 -6,-3 -15,-6 -27,-9 -9,-3 -20,-3 -35,-3l0 0zm123 -265c3,0 6,0 6,0 3,3 3,3 3,3 3,3 3,3 3,6 0,3 0,6 0,9 0,3 0,6 0,6 0,3 0,6 -3,6 0,0 0,2 -3,2 0,0 -3,0 -6,0l-312 0c-6,0 -14,0 -23,0 -9,0 -15,0 -21,0l0 0c3,0 6,3 9,3 6,0 9,3 15,3 3,3 9,3 12,6 2,0 8,3 11,3l312 106c0,0 3,0 3,0 3,3 3,3 3,3 3,3 3,3 3,6 0,0 0,3 0,6 0,3 0,6 0,6 0,3 0,6 -3,6 0,0 -3,0 -3,3 -3,0 -3,0 -6,0l-456 0c-3,0 -3,0 -6,0 0,-3 -3,-3 -3,-3 0,-3 -3,-3 -3,-6 0,-3 0,-6 0,-9 0,-3 0,-6 0,-6 0,-3 3,-6 3,-6 0,0 3,-3 3,-3 3,0 3,0 6,0l315 0c6,0 12,0 21,0 9,0 14,0 20,0l0 0c-6,-3 -11,-3 -20,-6 -9,-3 -18,-6 -27,-8l-309 -106c-3,0 -3,0 -6,0 0,-3 -3,-3 -3,-3 0,-3 -3,-3 -3,-6 0,0 0,-3 0,-6 0,-3 0,-6 0,-6 0,-3 3,-6 3,-6 0,0 3,-3 3,-3 3,0 3,0 6,0l456 0 0 0zm0 -327c3,0 6,0 6,0 3,0 3,3 3,3 3,0 3,3 3,6 0,0 0,3 0,6 0,3 0,6 0,9 0,3 0,3 -3,6 0,0 0,0 -3,0 0,3 -3,3 -6,3l-415 0 0 0 418 85c3,0 3,0 3,0 3,3 3,3 3,3 3,3 3,3 3,6 0,3 0,3 0,6 0,3 0,6 0,6 0,3 0,6 -3,6 0,0 0,2 -3,2 0,0 -3,0 -3,3l-418 80 0 0 415 0c3,0 6,0 6,3 3,0 3,0 3,3 3,0 3,3 3,3 0,3 0,6 0,9 0,2 0,5 0,8 0,0 0,3 -3,3 0,3 0,3 -3,3 0,0 -3,0 -6,0l-435 0c-12,0 -18,0 -24,-3 -3,-3 -6,-6 -6,-9l0 -20c0,-3 0,-9 3,-12 0,-3 3,-6 6,-6 3,-3 6,-6 12,-6 6,-3 12,-3 18,-6l344 -67 0 -3 -344 -71c-6,0 -12,-3 -18,-6 -6,0 -9,-3 -12,-3 -3,-3 -6,-6 -9,-9 0,0 0,-2 0,-5l0 -21c0,-3 0,-6 0,-6 3,-3 3,-3 6,-6 3,0 6,-3 9,-3 3,0 9,0 15,0l435 0 0 0zm127 -359c0,0 3,0 3,3 3,0 3,0 3,0 3,3 3,3 3,6 0,0 0,3 0,6 0,3 0,6 0,6 0,3 0,3 -3,6 0,0 0,0 -3,2 0,0 -3,0 -3,0l-115 0 0 183 115 0c0,0 3,0 3,0 3,0 3,0 3,3 3,0 3,3 3,3 0,3 0,6 0,6 0,3 0,6 0,9 0,0 0,3 -3,3 0,3 0,3 -3,3 0,0 -3,0 -3,0l-150 0c-9,0 -12,0 -15,0 -3,-3 -6,-3 -6,-6l0 -15c-9,-3 -17,-6 -26,-9 -9,-3 -21,-6 -33,-9 -11,-3 -26,-6 -44,-9 -17,-3 -41,-5 -67,-8 -27,-3 -59,-3 -95,-6 -35,-3 -79,-6 -129,-9 -9,0 -18,-3 -21,-3 -3,-3 -6,-6 -6,-9l0 -112c0,-3 3,-6 6,-9 3,-3 12,-3 21,-3l394 0 0 -23c0,-3 3,-6 6,-6 3,0 9,-3 15,-3l150 0zm-539 65l0 70c47,3 86,6 121,9 32,3 62,6 88,9 24,0 44,3 62,6 18,3 33,6 44,9 12,3 24,6 33,6 6,3 14,6 20,9l0 -118 -368 0 0 0zm412 -274c3,0 6,0 6,0 3,0 3,3 3,3 3,3 3,3 3,6 0,3 0,3 0,6 0,6 0,6 0,9 0,2 0,2 -3,5 0,0 0,3 -3,3 0,0 -3,0 -6,0l-412 0 0 68c56,3 106,6 150,9 45,6 83,9 112,12 33,3 59,9 80,11 20,6 38,12 53,18 12,6 20,12 26,18 6,9 9,17 9,26 0,0 -3,3 -3,3 0,0 -3,0 -6,3 0,0 -3,0 -6,0 -5,0 -8,0 -14,0 -6,0 -12,0 -15,0 -3,0 -6,0 -9,0 -3,0 -6,-3 -6,-3 0,0 0,0 0,-3 0,-3 -3,-9 -6,-11 -6,-6 -11,-9 -20,-12 -12,-3 -27,-9 -44,-12 -18,-3 -42,-6 -71,-9 -30,-3 -65,-6 -106,-9 -41,-6 -91,-9 -150,-11 -9,0 -18,0 -21,-3 -3,0 -6,-3 -6,-9l0 -106c0,-3 3,-6 6,-9 3,-3 12,-3 21,-3l438 0 0 0zm0 -215c3,0 6,3 6,3 3,0 3,0 3,3 3,0 3,3 3,3 0,3 0,6 0,9 0,3 0,6 0,9 0,0 0,2 -3,2 0,3 0,3 -3,3 0,0 -3,0 -6,0l-197 0 0 27c0,9 3,18 6,21 3,5 9,11 18,14 6,3 14,6 26,9 9,3 21,6 36,9l109 21c2,0 5,0 8,2 0,0 3,0 3,3 3,0 3,3 3,3 0,3 0,6 0,9 0,3 0,6 0,9 0,3 -3,3 -3,6 0,0 -3,0 -3,0 0,3 -3,3 -6,3 -2,0 -5,0 -8,-3 -3,0 -9,0 -15,-3l-103 -18c-12,-3 -21,-6 -33,-9 -8,-3 -17,-5 -26,-8 -6,-3 -12,-6 -18,-9 -6,-3 -9,-6 -11,-12 -6,9 -9,15 -18,21 -6,5 -15,11 -24,14 -9,6 -20,9 -32,9 -12,3 -27,3 -41,3 -21,0 -39,0 -56,-3 -15,-3 -30,-9 -41,-15 -12,-8 -21,-17 -30,-26 -6,-12 -9,-27 -9,-44l0 -50c0,-3 0,-6 6,-9 3,-3 9,-6 21,-6l438 0 0 0zm-415 32l0 33c0,12 3,20 6,29 6,6 12,12 18,15 9,3 18,6 26,9 9,3 21,3 33,3 12,0 23,0 32,-3 9,-3 18,-6 27,-9 8,-3 14,-9 17,-18 6,-6 6,-14 6,-26l0 -33 -165 0 0 0zm289 -341c15,0 29,0 41,3 12,3 24,6 35,9 9,3 18,6 27,11 6,6 15,12 18,18 5,6 8,12 11,18 3,9 6,17 6,26l0 62c0,3 -3,6 -6,9 -6,3 -11,3 -20,3l-424 0c-12,0 -18,0 -21,-3 -6,-3 -6,-6 -6,-9l0 -56c0,-12 3,-23 9,-35 3,-9 12,-15 24,-21 8,-9 20,-12 35,-14 15,-3 32,-6 53,-6 9,0 21,0 32,3 9,0 18,2 27,5 9,3 18,6 23,9 9,6 15,9 18,15 3,-6 6,-12 15,-18 6,-6 15,-11 23,-14 9,-6 21,-9 36,-12 14,-3 29,-3 44,-3l0 0zm-212 47c-12,0 -24,3 -33,3 -8,3 -17,6 -23,9 -6,3 -12,9 -15,12 -3,5 -6,14 -6,23l0 32 156 0 0 -35c0,-9 -3,-15 -8,-20 -3,-6 -9,-9 -15,-12 -9,-3 -18,-6 -27,-9 -9,0 -20,-3 -29,-3l0 0zm215 -15c-12,0 -27,3 -36,6 -11,0 -20,6 -29,9 -6,6 -12,9 -15,18 -6,6 -6,14 -6,23l0 39 168 0 0 -48c0,-5 -3,-11 -6,-17 -3,-6 -8,-12 -14,-15 -6,-3 -15,-9 -27,-9 -9,-3 -20,-6 -35,-6l0 0zm112 -259c6,0 9,0 11,0 3,0 6,0 9,0 0,0 3,3 3,6 0,0 0,6 0,9 0,3 0,6 0,9 0,3 0,3 -3,6 0,0 0,0 -3,3 0,0 -3,0 -6,0l-114 20 0 100 114 21c3,0 3,3 6,3 0,0 3,0 3,3 3,0 3,3 3,3 0,3 0,6 0,9 0,2 0,5 0,8 0,3 -3,6 -3,6 -3,0 -6,0 -9,0 -2,0 -5,0 -11,0l-442 -82c-3,0 -6,0 -9,0 0,-3 -3,-3 -3,-6 0,0 -3,-3 -3,-6 0,-3 0,-6 0,-9 0,-3 0,-6 0,-9 0,-3 3,-6 3,-6 0,-2 3,-2 3,-5 3,0 6,0 9,0l442 -83 0 0zm-392 103l0 3 239 41 0 -85 -239 41 0 0zm389 -412c9,0 14,0 17,3 6,3 9,6 9,9l0 244c0,6 -3,6 -9,9 -3,3 -8,3 -17,3l-442 0c-3,0 -3,0 -6,0 0,0 -3,0 -3,-3 0,0 -3,-3 -3,-3 0,-3 0,-6 0,-9 0,-3 0,-6 0,-9 0,0 3,-3 3,-3 0,-2 3,-2 3,-2 3,0 3,0 6,0l412 0 0 -89 -412 0c-3,0 -3,0 -6,0 0,0 -3,-3 -3,-3 0,-3 -3,-3 -3,-6 0,0 0,-3 0,-6 0,-2 0,-5 0,-8 0,-3 3,-3 3,-6 0,0 3,0 3,0 3,-3 3,-3 6,-3l412 0 0 -86 -412 0c-3,0 -3,0 -6,0 0,0 -3,-3 -3,-3 0,-2 -3,-2 -3,-5 0,-3 0,-3 0,-6 0,-3 0,-6 0,-9 0,-3 3,-3 3,-6 0,0 3,0 3,-3 3,0 3,0 6,0l442 0 0 0zm-218 -268c38,0 73,3 103,9 32,3 59,12 79,21 21,8 39,20 50,32 12,15 18,32 18,50 0,18 -6,32 -18,47 -8,15 -26,24 -44,32 -20,9 -47,15 -76,21 -30,3 -65,6 -103,6 -39,0 -74,-3 -103,-6 -33,-6 -56,-12 -80,-21 -20,-11 -38,-23 -50,-35 -12,-15 -18,-29 -18,-50 0,-18 6,-32 18,-47 9,-12 27,-24 47,-32 18,-9 44,-15 74,-18 29,-6 65,-9 103,-9zm3 35c-27,0 -50,0 -74,3 -23,3 -44,6 -62,12 -14,6 -29,15 -38,24 -9,9 -15,20 -15,35 0,15 6,27 15,35 12,9 24,18 41,24 18,6 39,9 62,12 21,3 44,3 71,3 29,0 53,0 76,-3 24,-3 45,-6 62,-12 18,-6 30,-12 38,-24 12,-8 15,-20 15,-35 0,-12 -6,-24 -15,-35 -11,-9 -23,-18 -41,-24 -17,-6 -38,-9 -62,-12 -23,-3 -47,-3 -73,-3zm-209 -215c6,0 9,0 12,0 2,0 5,0 8,0 3,3 3,3 6,3 0,0 0,3 0,3l0 92 412 0c3,0 6,0 6,0 3,0 3,3 3,3 3,3 3,3 3,5 0,3 0,3 0,9 0,3 0,3 0,6 0,3 0,3 -3,6 0,0 0,3 -3,3 0,0 -3,0 -6,0l-438 0c-9,0 -18,0 -21,-3 -3,-3 -6,-6 -6,-9l0 -112c0,-3 3,-3 6,-6 6,0 12,0 21,0l0 0zm206 -226c38,0 73,3 103,9 32,3 59,11 79,20 21,9 39,21 50,33 12,14 18,32 18,50 0,17 -6,32 -18,47 -8,12 -26,23 -44,32 -20,9 -47,15 -76,21 -30,3 -65,6 -103,6 -39,0 -74,-3 -103,-6 -33,-6 -56,-12 -80,-24 -20,-9 -38,-20 -50,-32 -12,-15 -18,-30 -18,-50 0,-18 6,-33 18,-47 9,-12 27,-24 47,-33 18,-9 44,-14 74,-17 29,-6 65,-9 103,-9l0 0zm3 35c-27,0 -50,0 -74,3 -23,3 -44,6 -62,12 -14,6 -29,15 -38,23 -9,9 -15,21 -15,36 0,14 6,26 15,35 12,9 24,18 41,24 18,5 39,8 62,11 21,3 44,3 71,3 29,0 53,0 76,-3 24,-3 45,-6 62,-11 18,-6 30,-12 38,-24 12,-9 15,-21 15,-35 0,-12 -6,-24 -15,-36 -11,-8 -23,-17 -41,-23 -17,-6 -38,-9 -62,-12 -23,-3 -47,-3 -73,-3zm106 -306c20,0 41,3 59,6 17,6 32,12 44,17 12,9 20,18 26,30 9,12 12,23 12,38 0,9 -3,15 -3,24 -3,6 -6,11 -9,14 -6,6 -8,9 -11,12 -3,3 -6,6 -6,6 -3,0 -3,3 -6,3 -3,0 -3,0 -6,0 -3,0 -9,0 -12,3 -3,0 -9,0 -15,0 -8,0 -11,0 -14,-3 -3,0 -6,0 -6,-3 0,0 3,-3 6,-6 3,-3 6,-6 11,-12 3,-3 9,-8 12,-14 3,-6 3,-15 3,-24 0,-6 0,-15 -6,-20 -3,-9 -9,-15 -14,-18 -9,-6 -18,-9 -27,-12 -12,-3 -23,-3 -35,-3 -15,0 -27,0 -39,3 -8,3 -20,6 -26,12 -9,3 -15,9 -18,18 -6,5 -9,14 -9,26l0 27c0,2 0,2 0,2 0,3 -2,3 -5,3 0,0 -3,3 -6,3 -3,0 -9,0 -12,0 -6,0 -9,0 -12,0 -3,0 -6,-3 -9,-3 -3,0 -3,0 -6,-3 0,0 0,0 0,-2l0 -27c0,-9 -3,-15 -5,-21 -3,-8 -9,-14 -15,-17 -9,-6 -18,-9 -27,-12 -11,-3 -23,-3 -38,-3 -9,0 -21,0 -29,0 -9,3 -18,6 -24,9 -6,3 -9,9 -15,15 -3,5 -3,11 -3,17 0,9 0,15 3,24 3,6 9,12 12,15 3,5 9,8 12,11 3,3 6,6 6,6 0,3 0,3 -3,3 0,0 0,0 -3,0 -3,3 -3,3 -9,3 -3,0 -6,0 -12,0 -3,0 -6,0 -9,0 -2,0 -5,0 -8,-3 0,0 -3,0 -6,0 -3,0 -3,0 -6,-3 -3,0 -6,-3 -9,-6 -3,-3 -6,-9 -9,-14 -6,-6 -9,-12 -9,-18 -3,-9 -6,-15 -6,-24 0,-11 3,-20 9,-29 6,-9 15,-18 24,-24 12,-6 23,-11 38,-14 15,-3 30,-3 47,-3 18,0 33,0 44,3 15,3 24,6 36,11 9,3 14,9 23,15 6,3 9,9 12,18l0 0c3,-9 6,-15 12,-24 9,-6 15,-12 26,-14 12,-6 24,-9 36,-12 14,-3 29,-6 44,-6l0 0z"/>
   <path class="fil0" d="M630 1184c0,0 3,0 3,0 3,0 3,0 3,3 3,0 3,3 3,3 0,2 0,5 0,8 0,0 0,3 0,6 0,0 0,3 -3,3 0,3 0,3 -3,3 0,0 -3,0 -3,0l-115 0 0 183 115 0c0,0 3,0 3,0 3,3 3,3 3,3 3,0 3,3 3,6 0,0 0,2 0,5 0,3 0,6 0,6 0,3 0,3 -3,6 0,0 0,0 -3,0 0,0 -3,3 -3,3l-150 0c-9,0 -12,-3 -15,-3 -3,0 -6,-3 -6,-6l0 -14c-9,-3 -17,-6 -26,-9 -9,-3 -21,-6 -33,-9 -11,-3 -26,-6 -44,-9 -17,-3 -41,-3 -67,-6 -27,-3 -59,-6 -95,-9 -35,-3 -79,-6 -129,-8 -9,0 -18,0 -21,-3 -3,-3 -6,-6 -6,-9l0 -112c0,-3 3,-6 6,-9 3,0 12,-3 21,-3l394 0 0 -23c0,-3 3,-3 6,-6 3,0 9,0 15,0l150 0zm-539 61l0 74c47,3 86,6 121,6 32,3 62,6 88,9 24,3 44,6 62,9 18,0 33,3 44,6 12,2 24,5 33,8 6,3 14,6 20,9l0 -121 -368 0 0 0zm180 -300c38,0 73,3 103,6 32,6 59,12 79,21 21,11 39,20 50,35 12,15 18,29 18,50 0,18 -6,32 -18,47 -8,12 -26,24 -44,33 -20,8 -47,14 -76,17 -30,6 -65,9 -103,9 -39,0 -74,-3 -103,-9 -33,-3 -56,-12 -80,-20 -20,-9 -38,-21 -50,-36 -12,-12 -18,-29 -18,-47 0,-18 6,-32 18,-47 9,-12 27,-24 47,-32 18,-9 44,-15 74,-21 29,-3 65,-6 103,-6zm3 35c-27,0 -50,0 -74,3 -23,3 -44,6 -62,12 -14,6 -29,12 -38,24 -9,9 -15,20 -15,35 0,12 6,24 15,35 12,9 24,15 41,21 18,6 39,12 62,15 21,3 44,3 71,3 29,0 53,0 76,-3 24,-3 45,-6 62,-12 18,-6 30,-15 38,-24 12,-8 15,-20 15,-35 0,-15 -6,-26 -15,-35 -11,-9 -23,-18 -41,-24 -17,-6 -38,-9 -62,-12 -23,-3 -47,-3 -73,-3l0 0zm-97 -235c23,0 47,3 64,6 21,6 36,9 50,17 12,9 24,18 30,27 9,12 12,24 12,38l0 30 170 0c3,0 6,0 6,0 3,0 3,3 3,3 3,0 3,3 3,6 0,0 0,2 0,5 0,3 0,6 0,9 0,3 0,3 -3,6 0,0 0,0 -3,0 0,3 -3,3 -6,3l-438 0c-9,0 -18,-3 -21,-6 -3,-3 -6,-6 -6,-9l0 -50c0,-6 0,-11 0,-14 3,-6 3,-12 6,-18 3,-6 9,-15 15,-21 9,-6 18,-11 29,-17 12,-3 24,-9 39,-12 17,0 32,-3 50,-3l0 0zm6 35c-21,0 -36,0 -51,3 -11,6 -20,9 -29,15 -6,6 -9,12 -12,18 0,5 -3,11 -3,17l0 30 192 0 0 -30c0,-9 0,-17 -6,-23 -6,-9 -12,-12 -21,-18 -9,-3 -20,-6 -32,-9 -12,-3 -24,-3 -38,-3zm88 -288c38,0 73,3 103,9 32,2 59,11 79,20 21,9 39,21 50,35 12,12 18,30 18,48 0,17 -6,35 -18,47 -8,14 -26,23 -44,32 -20,9 -47,15 -76,21 -30,3 -65,6 -103,6 -39,0 -74,-3 -103,-6 -33,-6 -56,-12 -80,-21 -20,-9 -38,-21 -50,-35 -12,-15 -18,-30 -18,-50 0,-18 6,-33 18,-44 9,-15 27,-27 47,-36 18,-9 44,-15 74,-17 29,-6 65,-9 103,-9zm3 35c-27,0 -50,0 -74,3 -23,3 -44,9 -62,12 -14,6 -29,14 -38,23 -9,9 -15,21 -15,36 0,14 6,26 15,35 12,9 24,18 41,24 18,5 39,8 62,11 21,3 44,3 71,3 29,0 53,0 76,-3 24,-3 45,-6 62,-11 18,-6 30,-12 38,-21 12,-12 15,-24 15,-35 0,-15 -6,-27 -15,-39 -11,-9 -23,-14 -41,-20 -17,-6 -38,-12 -62,-15 -23,-3 -47,-3 -73,-3l0 0zm103 -244c15,0 29,0 41,3 12,0 24,3 35,8 9,3 18,6 27,12 6,6 15,9 18,18 5,6 8,12 11,18 3,8 6,14 6,26l0 62c0,3 -3,6 -6,9 -6,3 -11,3 -20,3l-424 0c-12,0 -18,0 -21,-3 -6,-3 -6,-6 -6,-9l0 -56c0,-15 3,-27 9,-35 3,-9 12,-18 24,-24 8,-6 20,-9 35,-12 15,-3 32,-6 53,-6 9,0 21,0 32,3 9,0 18,3 27,6 9,3 18,6 23,9 9,6 15,9 18,15 3,-6 6,-12 15,-18 6,-6 15,-12 23,-15 9,-6 21,-8 36,-11 14,-3 29,-3 44,-3l0 0zm-212 47c-12,0 -24,3 -33,3 -8,3 -17,3 -23,9 -6,2 -12,5 -15,11 -3,6 -6,15 -6,24l0 32 156 0 0 -35c0,-9 -3,-15 -8,-21 -3,-6 -9,-8 -15,-11 -9,-6 -18,-6 -27,-9 -9,-3 -20,-3 -29,-3l0 0zm215 -15c-12,0 -27,3 -36,3 -11,3 -20,6 -29,12 -6,3 -12,9 -15,17 -6,6 -6,15 -6,24l0 38 168 0 0 -47c0,-6 -3,-12 -6,-17 -3,-6 -8,-12 -14,-15 -6,-6 -15,-9 -27,-9 -9,-3 -20,-6 -35,-6l0 0zm-197 -103c0,0 2,0 2,0 3,0 3,0 6,3 0,0 0,0 3,3 0,0 0,3 0,6 0,3 0,3 0,6 -3,0 -3,3 -3,3 -3,0 -3,3 -6,3 0,0 -2,0 -2,0l-171 2c-3,0 -3,0 -6,0 0,0 -3,0 -3,-2 0,0 -3,-3 -3,-6 0,0 0,-3 0,-6 0,-3 0,-6 0,-9 0,0 3,-3 3,-3 0,-3 3,-3 3,-3 3,-3 3,-3 6,-3l171 6zm320 -212c3,0 6,0 6,0 3,0 3,3 3,3 3,3 3,3 3,6 0,3 0,3 0,6 0,6 0,6 0,9 0,2 0,2 -3,5 0,0 0,0 -3,3 0,0 -3,0 -6,0l-197 0 0 24c0,9 3,18 6,24 3,5 9,8 18,11 6,6 14,9 26,12 9,3 21,3 36,6l109 21c2,3 5,3 8,3 0,0 3,2 3,2 3,3 3,3 3,6 0,3 0,3 0,9 0,3 0,6 0,6 0,3 -3,6 -3,6 0,3 -3,3 -3,3 0,0 -3,0 -6,0 -2,0 -5,0 -8,0 -3,0 -9,0 -15,-3l-103 -21c-12,-3 -21,-3 -33,-6 -8,-2 -17,-5 -26,-8 -6,-3 -12,-6 -18,-9 -6,-6 -9,-9 -11,-12 -6,6 -9,12 -18,18 -6,9 -15,11 -24,17 -9,3 -20,6 -32,9 -12,3 -27,3 -41,3 -21,0 -39,-3 -56,-6 -15,-3 -30,-9 -41,-14 -12,-6 -21,-15 -30,-27 -6,-9 -9,-24 -9,-44l0 -50c0,-3 0,-6 6,-9 3,-3 9,-3 21,-3l438 0 0 0zm-415 32l0 30c0,15 3,23 6,29 6,6 12,12 18,18 9,3 18,6 26,9 9,0 21,3 33,3 12,0 23,-3 32,-3 9,-3 18,-6 27,-12 8,-3 14,-9 17,-15 6,-6 6,-14 6,-26l0 -33 -165 0 0 0z"/>
  </g>
 </g>
</svg>
