<?xml version="1.0" encoding="UTF-8"?>
<!DOCTYPE svg PUBLIC "-//W3C//DTD SVG 1.1//EN" "http://www.w3.org/Graphics/SVG/1.1/DTD/svg11.dtd">
<!-- Creator: CorelDRAW X7 -->
<svg xmlns="http://www.w3.org/2000/svg" xml:space="preserve" width="32.6984mm" height="43.0616mm" version="1.1" style="shape-rendering:geometricPrecision; text-rendering:geometricPrecision; image-rendering:optimizeQuality; fill-rule:evenodd; clip-rule:evenodd"
viewBox="0 0 921 1213"
 xmlns:xlink="http://www.w3.org/1999/xlink">
 <defs>
  <style type="text/css">
   <![CDATA[
    .fil0 {fill:#005487;fill-rule:nonzero}
    .fil1 {fill:#E72910;fill-rule:nonzero}
   ]]>
  </style>
 </defs>
 <g id="Слой_x0020_1">
  <metadata id="CorelCorpID_0Corel-Layer"/>
  <g id="_770353968">
   <path class="fil0" d="M86 170l43 0 0 -137 33 0 0 137 43 0 0 -170 -119 0 0 170zm237 -51l0 -9c0,-31 -13,-63 -50,-63 -35,0 -53,29 -53,63 0,33 17,63 54,63 34,0 46,-28 47,-33l-26 -10c-2,10 -10,17 -19,17 -15,0 -17,-18 -17,-28l64 0zm-64 -23c0,-12 3,-24 14,-24 13,0 14,12 14,24l-28 0zm119 -16c1,-5 7,-10 13,-10 11,0 11,14 11,42 0,22 0,36 -13,36 -3,0 -7,0 -11,-4l0 -64zm-39 -30l0 156 39 0 0 -47c6,7 14,11 23,11 33,0 41,-34 41,-65 0,-36 -15,-56 -38,-56 -10,0 -20,5 -27,14l-1 0 0 -13 -37 0zm214 69l0 -9c0,-31 -13,-63 -50,-63 -36,0 -53,29 -53,63 0,33 16,63 53,63 35,0 46,-28 48,-33l-26 -10c-2,10 -10,17 -19,17 -16,0 -18,-18 -18,-28l65 0zm-65 -23c0,-12 4,-24 14,-24 14,0 15,12 15,24l-29 0zm77 74l59 0c30,0 43,-12 43,-33 0,-16 -12,-26 -27,-29l0 -1c12,-3 23,-12 23,-26 0,-18 -14,-31 -39,-31l-59 0 0 120zm39 -51l11 0c10,0 14,6 14,13 0,9 -5,13 -14,13l-11 0 0 -26zm0 -45l10 0c7,0 12,3 12,12 0,7 -2,11 -12,11l-10 0 0 -23zm115 -24l-39 0 0 120 39 0 0 -120zm-39 -16l39 0 0 -34 -39 0 0 34zm99 46c1,-5 8,-10 14,-10 10,0 11,14 11,42 0,22 -1,36 -13,36 -3,0 -8,0 -12,-4l0 -64zm-39 -30l0 156 39 0 0 -47c7,7 14,11 24,11 32,0 41,-34 41,-65 0,-36 -15,-56 -39,-56 -9,0 -20,5 -27,14l-1 0 0 -13 -37 0zm-399 305c0,-12 -6,-48 -47,-48 -36,0 -54,33 -54,66 0,29 18,60 53,60 28,0 44,-16 47,-45l-30 -4c0,9 -1,23 -15,23 -10,0 -14,-9 -14,-36 0,-24 1,-40 14,-40 13,0 13,14 13,24l33 0zm14 75l59 0c30,0 43,-12 43,-33 0,-16 -12,-26 -27,-29l0 -1c12,-3 23,-12 23,-26 0,-18 -14,-31 -39,-31l-59 0 0 120zm39 -51l11 0c10,0 14,6 14,13 0,9 -5,13 -14,13l-11 0 0 -26zm0 -45l10 0c7,0 12,3 12,12 0,7 -2,11 -12,11l-10 0 0 -23zm70 35c0,38 18,64 54,64 37,0 54,-26 54,-64 0,-35 -18,-62 -54,-62 -36,0 -54,27 -54,62zm41 0c0,-27 2,-38 13,-38 11,0 14,11 14,38 0,31 -4,39 -14,39 -9,0 -13,-8 -13,-39zm146 19c-1,7 -5,19 -15,19 -11,0 -15,-8 -15,-29l22 0 0 -21 -22 0c0,-15 3,-26 14,-26 8,0 12,8 14,17l31 -3c-5,-23 -19,-38 -45,-38 -37,0 -52,31 -52,61 0,37 17,65 53,65 28,0 41,-20 44,-35l-29 -10zm-595 261l-29 10c6,19 24,34 50,34 36,0 51,-15 51,-35 0,-20 -13,-27 -27,-31l0 0c15,-4 22,-13 22,-27 0,-19 -18,-33 -45,-33 -27,0 -41,14 -49,32l29 8c2,-7 7,-16 17,-16 8,0 12,6 12,13 0,7 -4,13 -15,13l-7 0 0 22 9 0c11,0 16,4 16,14 0,9 -5,14 -14,14 -11,0 -17,-7 -20,-18zm87 14l-8 0 0 55 34 0 0 -28 51 0 0 28 33 0 0 -55 -9 0 0 -93 -89 0 0 39c0,27 -4,41 -12,54l0 0zm33 0c8,-12 10,-25 10,-48l0 -18 21 0 0 66 -31 0zm83 -34c0,38 17,64 54,64 36,0 54,-26 54,-64 0,-35 -18,-62 -54,-62 -36,0 -54,27 -54,62zm40 0c0,-27 3,-38 14,-38 11,0 14,11 14,38 0,31 -5,39 -14,39 -10,0 -14,-8 -14,-39zm122 -29c1,-5 8,-10 14,-10 11,0 11,14 11,42 0,22 0,36 -13,36 -3,0 -8,0 -12,-4l0 -64zm-39 -30l0 155 39 0 0 -46c7,7 14,11 24,11 32,0 41,-34 41,-65 0,-36 -15,-56 -39,-56 -9,0 -20,5 -27,14l0 0 0 -13 -38 0zm111 59c0,38 17,64 54,64 37,0 54,-26 54,-64 0,-35 -18,-62 -54,-62 -36,0 -54,27 -54,62zm40 0c0,-27 3,-38 14,-38 11,0 14,11 14,38 0,31 -4,39 -14,39 -10,0 -14,-8 -14,-39zm81 61l58 0c30,0 43,-12 43,-33 0,-16 -12,-26 -27,-30l0 0c12,-3 24,-12 24,-26 0,-18 -15,-31 -40,-31l-58 0 0 120zm38 -51l11 0c10,0 14,6 14,13 0,9 -5,13 -14,13l-11 0 0 -26zm0 -45l10 0c7,0 12,3 12,12 0,7 -2,11 -12,11l-10 0 0 -23zm83 6l32 0 0 -80 -32 0 0 80zm152 -30l-58 0c-23,0 -41,12 -41,33 0,19 9,27 17,32l-22 55 38 0 14 -47 13 0 0 47 39 0 0 -120zm-47 51c-12,0 -15,-6 -15,-13 0,-10 6,-14 14,-14l9 0 0 27 -8 0zm-630 329l39 0 0 -93 21 0 0 93 39 0 0 -120 -99 0 0 120zm157 -120l-38 0 0 120 38 0 0 -120zm-38 -16l38 0 0 -34 -38 0 0 34zm153 61c0,-12 -6,-48 -47,-48 -37,0 -55,33 -55,65 0,30 18,61 53,61 28,0 45,-16 48,-45l-30 -4c0,9 -2,23 -15,23 -10,0 -14,-9 -14,-36 0,-24 1,-40 14,-40 12,0 13,14 13,24l33 0zm25 -45l0 78c0,11 -2,17 -8,17 -4,0 -8,0 -9,0l0 24c5,2 11,2 20,2 21,0 28,-19 28,-41l0 -53 21 0 0 93 39 0 0 -120 -91 0zm205 0l-58 0c-22,0 -41,12 -41,33 0,19 9,27 17,32l-22 55 38 0 14 -47 14 0 0 47 38 0 0 -120zm-46 51c-12,0 -16,-6 -16,-13 0,-10 6,-14 15,-14l9 0 0 27 -8 0z"/>
   <path class="fil1" d="M88 1147c-1,22 -4,34 -20,34 -20,0 -22,-21 -22,-56 0,-32 3,-57 21,-57 16,0 18,20 18,31l40 0c0,-35 -18,-63 -59,-63 -52,0 -66,48 -66,89 0,44 14,88 66,88 37,0 59,-25 59,-62l-37 -4zm45 -22c0,43 15,88 66,88 50,0 66,-45 66,-88 0,-44 -16,-89 -66,-89 -51,0 -66,45 -66,89zm46 0c0,-34 2,-57 20,-57 18,0 19,23 19,57 0,33 -1,56 -19,56 -18,0 -20,-23 -20,-56zm126 85l44 0 46 -170 -36 0 -28 118 -1 0 -20 -118 -43 0 38 170zm145 -170l-43 0 0 170 43 0 0 -170zm22 170l52 0c52,0 72,-40 72,-88 0,-50 -24,-82 -77,-82l-47 0 0 170zm43 -140l4 0c28,0 31,31 31,50 0,23 -2,60 -30,60l-5 0 0 -110zm90 94l57 0 0 -33 -57 0 0 33zm152 -124l-24 0c-5,7 -32,18 -41,19l0 29 25 -6 0 99 -25 0 0 29 91 0 0 -29 -26 0 0 -141zm47 127c5,29 23,45 53,45 47,0 64,-51 64,-90 0,-38 -15,-85 -61,-85 -38,0 -60,26 -60,64 0,26 21,45 45,45 11,0 22,-5 32,-11 0,11 -1,47 -20,47 -12,0 -15,-11 -16,-20l-37 5zm73 -54c-5,3 -11,5 -17,5 -13,0 -17,-10 -17,-24 0,-11 3,-27 17,-27 16,0 17,26 17,46z"/>
  </g>
 </g>
</svg>
