<?xml version="1.0" encoding="UTF-8"?>
<!DOCTYPE svg PUBLIC "-//W3C//DTD SVG 1.1//EN" "http://www.w3.org/Graphics/SVG/1.1/DTD/svg11.dtd">
<!-- Creator: CorelDRAW X7 -->
<svg xmlns="http://www.w3.org/2000/svg" xml:space="preserve" width="46.5414mm" height="24.7058mm" version="1.1" style="shape-rendering:geometricPrecision; text-rendering:geometricPrecision; image-rendering:optimizeQuality; fill-rule:evenodd; clip-rule:evenodd"
viewBox="0 0 2303 1223"
 xmlns:xlink="http://www.w3.org/1999/xlink">
 <defs>
  <style type="text/css">
   <![CDATA[
    .fil0 {fill:#005487;fill-rule:nonzero}
   ]]>
  </style>
 </defs>
 <g id="Слой_x0020_1">
  <metadata id="CorelCorpID_0Corel-Layer"/>
  <path class="fil0" d="M712 175l13 0c25,0 48,12 48,45 0,23 -14,35 -37,35 -23,0 -41,-12 -56,-46l-54 34c25,53 64,67 113,67 68,0 111,-24 111,-83 0,-42 -37,-69 -72,-74l0 -1c33,-7 64,-34 64,-70 0,-53 -46,-82 -99,-82 -49,0 -85,21 -107,63l54 29c7,-22 21,-37 44,-37 19,0 33,12 33,30 0,26 -14,37 -43,37l-12 0 0 53zm234 -29c3,-8 13,-17 24,-17 19,0 20,24 20,74 0,38 -1,63 -23,63 -5,0 -14,-1 -21,-8l0 -112zm-68 -52l0 273 68 0 0 -81c12,12 25,18 42,18 57,0 72,-59 72,-113 0,-64 -26,-100 -68,-100 -17,0 -35,9 -48,25l-1 0 0 -22 -65 0zm195 104c0,66 30,111 94,111 65,0 95,-45 95,-111 0,-63 -32,-109 -95,-109 -63,0 -94,46 -94,109zm70 0c0,-48 5,-66 24,-66 19,0 25,18 25,66 0,53 -8,68 -25,68 -17,0 -24,-15 -24,-68zm202 0c0,-32 5,-54 24,-54 19,0 24,24 24,54 0,53 -7,68 -24,68 -17,0 -24,-15 -24,-68zm119 0c0,-54 -30,-95 -84,-95 -26,0 -49,17 -60,41 0,-39 24,-56 53,-66 41,-13 55,-28 73,-52l-53 -15c-5,14 -18,18 -54,35 -59,28 -65,91 -65,139 0,73 31,124 95,124 65,0 95,-45 95,-111zm202 106l0 -210 -69 0 -44 118 0 -118 -66 0 0 210 68 0 45 -116 0 116 66 0zm-1666 457l68 0 0 -163 38 0 0 163 67 0 0 -210 -173 0 0 210zm198 -106c0,65 30,111 94,111 65,0 95,-46 95,-111 0,-63 -31,-110 -95,-110 -63,0 -94,47 -94,110zm70 0c0,-49 5,-67 24,-67 20,0 25,18 25,67 0,53 -8,68 -25,68 -16,0 -24,-15 -24,-68zm311 -26c0,-21 -11,-84 -83,-84 -64,0 -96,58 -96,115 0,52 32,106 93,106 49,0 78,-27 83,-78l-52 -8c0,16 -2,41 -26,41 -18,0 -25,-16 -25,-63 0,-42 2,-70 25,-70 22,0 23,25 23,41l58 0zm62 132l68 0 0 -163 52 0 0 -47 -172 0 0 47 52 0 0 163zm207 -210l-67 0 0 210 67 0 0 -78 16 -19 1 0 32 97 70 0 -55 -150 52 -60 -62 0 -53 65 -1 0 0 -65zm122 104c0,65 30,111 95,111 65,0 95,-46 95,-111 0,-63 -32,-110 -95,-110 -63,0 -95,47 -95,110zm71 0c0,-49 5,-67 24,-67 19,0 24,18 24,67 0,53 -7,68 -24,68 -17,0 -24,-15 -24,-68zm141 106l103 0c52,0 76,-21 76,-58 0,-28 -21,-45 -49,-52l0 0c22,-5 42,-21 42,-47 0,-30 -25,-53 -69,-53l-103 0 0 210zm68 -90l19 0c18,0 24,11 24,24 0,16 -9,23 -24,23l-19 0 0 -47zm0 -78l17 0c12,0 22,5 22,21 0,12 -5,19 -22,19l-17 0 0 -40zm201 -42l-68 0 0 210 68 0 0 -210zm-68 -28l68 0 0 -60 -68 0 0 60zm105 190l-15 0 0 97 60 0 0 -49 89 0 0 49 60 0 0 -97 -17 0 0 -162 -155 0 0 68c0,47 -9,72 -22,94l0 0zm58 0c13,-20 18,-43 18,-83l0 -32 36 0 0 115 -54 0zm225 -162l-68 0 0 210 68 0 0 -83 38 0 0 83 68 0 0 -210 -68 0 0 79 -38 0 0 -79zm319 210l0 -210 -68 0 -45 117 0 -117 -65 0 0 210 68 0 45 -116 0 116 65 0zm213 0l0 -210 -68 0 -45 117 0 -117 -65 0 0 210 67 0 46 -116 0 116 65 0zm-53 -290c-5,21 -19,25 -38,25 -16,0 -32,-7 -34,-25l-23 0c2,39 25,54 59,54 33,0 57,-18 59,-54l-23 0zm-1628 746l68 0 0 -162 38 0 0 162 68 0 0 -210 -174 0 0 210zm307 -133c-46,0 -109,17 -109,74 0,41 24,65 60,65 21,0 39,-11 51,-25 1,7 1,14 2,19l70 0c-2,-2 -6,-10 -6,-33l0 -118c0,-46 -42,-64 -83,-64 -38,0 -76,17 -84,58l59 13c2,-12 7,-28 23,-28 12,0 17,12 17,25l0 14zm0 80c-8,10 -16,13 -22,13 -12,0 -19,-8 -19,-22 0,-31 15,-36 41,-38l0 47zm172 -157l-68 0 0 210 68 0 0 -77 16 -19 1 0 31 96 71 0 -56 -149 53 -61 -62 0 -53 66 -1 0 0 -66zm303 120l0 -14c0,-55 -22,-111 -88,-111 -62,0 -93,50 -93,110 0,58 29,111 94,111 61,0 81,-48 84,-58l-45 -17c-4,18 -18,29 -35,29 -26,0 -30,-31 -30,-50l113 0zm-113 -40c0,-19 6,-42 25,-42 23,0 26,22 26,42l-51 0zm173 130l68 0 0 -162 53 0 0 -48 -173 0 0 48 52 0 0 162zm141 -137l73 0 0 -73 -73 0 0 73zm0 137l73 0 0 -72 -73 0 0 72z"/>
 </g>
</svg>
