<?xml version="1.0" encoding="UTF-8"?>
<!DOCTYPE svg PUBLIC "-//W3C//DTD SVG 1.1//EN" "http://www.w3.org/Graphics/SVG/1.1/DTD/svg11.dtd">
<!-- Creator: CorelDRAW X7 -->
<svg xmlns="http://www.w3.org/2000/svg" xml:space="preserve" width="49.94mm" height="59.94mm" version="1.1" style="shape-rendering:geometricPrecision; text-rendering:geometricPrecision; image-rendering:optimizeQuality; fill-rule:evenodd; clip-rule:evenodd"
viewBox="0 0 4994 5994"
 xmlns:xlink="http://www.w3.org/1999/xlink">
 <defs>
  <style type="text/css">
   <![CDATA[
    .fil1 {fill:#005487;fill-rule:nonzero}
    .fil0 {fill:#E72910;fill-rule:nonzero}
   ]]>
  </style>
 </defs>
 <g id="Слой_x0020_1">
  <metadata id="CorelCorpID_0Corel-Layer"/>
  <path class="fil0" d="M0 301c0,83 68,151 151,151 82,0 150,-68 150,-151 0,-82 -68,-150 -150,-150 -83,0 -151,68 -151,150z"/>
  <path class="fil0" d="M0 1485c0,83 68,151 151,151 82,0 150,-68 150,-151 0,-82 -68,-150 -150,-150 -83,0 -151,68 -151,150z"/>
  <path class="fil0" d="M0 2799c0,83 68,151 151,151 82,0 150,-68 150,-151 0,-82 -68,-150 -150,-150 -83,0 -151,68 -151,150z"/>
  <path class="fil0" d="M0 4873c0,83 68,151 151,151 82,0 150,-68 150,-151 0,-82 -68,-150 -150,-150 -83,0 -151,68 -151,150z"/>
  <path class="fil1" d="M628 603l184 0c184,0 257,-139 257,-311 0,-177 -89,-292 -275,-292l-166 0 0 603 0 0zm152 -496l14 0c100,0 110,109 110,179 0,80 -10,210 -107,210l-17 0 0 -389zm318 335l204 0 0 -117 -204 0 0 117zm269 64l-29 0 0 195 120 0 0 -98 180 0 0 98 120 0 0 -195 -33 0 0 -328 -315 0 0 139c0,94 -17,145 -43,189l0 0 0 0zm116 0c28,-40 38,-87 38,-168l0 -64 71 0 0 232 -109 0 0 0zm678 97l0 -425 -139 0 -90 237 0 -237 -132 0 0 425 137 0 91 -235 0 235 133 0zm359 -425l-59 237 -1 0 -48 -237 -177 0 0 425 105 0 0 -318 2 0 66 318 80 0 77 -300 1 0 0 300 138 0 0 -425 -184 0 0 0zm598 242l0 -28c0,-111 -45,-225 -178,-225 -125,0 -188,102 -188,222 0,118 59,224 190,224 122,0 164,-97 170,-116l-92 -34c-9,34 -37,58 -69,58 -55,0 -63,-63 -63,-101l230 0 0 0zm-230 -81c0,-39 13,-85 52,-85 47,0 51,44 51,85l-103 0zm423 -57c5,-15 27,-33 49,-33 38,0 39,49 39,149 0,77 -1,129 -45,129 -11,0 -28,-2 -43,-16l0 -229 0 0zm-138 -104l0 552 138 0 0 -165c24,25 50,38 85,38 115,0 146,-120 146,-228 0,-129 -54,-202 -138,-202 -34,0 -70,17 -97,49l-1 0 0 -44 -133 0 0 0z"/>
  <path class="fil1" d="M780 2592l27 0c44,0 96,19 96,75 0,57 -52,74 -96,74l-27 0 0 -149zm-152 496l152 0 0 -244c14,1 39,2 59,2 120,0 221,-51 221,-190 0,-118 -92,-171 -205,-171l-227 0 0 603 0 0zm454 -213c0,131 62,223 192,223 130,0 192,-92 192,-223 0,-128 -64,-221 -192,-221 -128,0 -192,93 -192,221zm143 0c0,-99 10,-135 49,-135 39,0 49,36 49,135 0,107 -15,137 -49,137 -33,0 -49,-30 -49,-137zm362 70l-103 33c22,70 84,120 178,120 128,0 181,-53 181,-123 0,-71 -46,-94 -98,-108l0 -1c55,-16 81,-47 81,-98 0,-67 -67,-114 -163,-114 -94,0 -145,50 -170,111l102 29c5,-24 24,-54 59,-54 28,0 44,18 44,44 0,24 -15,46 -53,46l-26 0 0 77 32 0c38,0 55,17 55,51 0,31 -18,49 -47,49 -40,0 -61,-25 -72,-62l0 0zm304 143l137 0 0 -328 150 0 0 -97 -287 0 0 425zm303 -213c0,131 62,223 192,223 130,0 191,-92 191,-223 0,-128 -63,-221 -191,-221 -128,0 -192,93 -192,221zm143 0c0,-99 10,-135 49,-135 39,0 49,36 49,135 0,107 -16,137 -49,137 -35,0 -49,-30 -49,-137zm433 -107c5,-16 27,-33 49,-33 39,0 39,49 39,148 0,78 0,129 -46,129 -11,0 -28,-2 -42,-16l0 -228 0 0zm-137 -105l0 552 137 0 0 -163c25,24 51,36 85,36 114,0 145,-120 145,-228 0,-129 -53,-202 -136,-202 -35,0 -72,18 -97,50l-2 0 0 -45 -132 0zm554 0l-138 0 0 425 138 0 0 -168 76 0 0 168 136 0 0 -425 -136 0 0 161 -76 0 0 -161zm249 0l111 366c3,14 5,29 5,39 0,39 -35,51 -76,51 -13,0 -25,-2 -37,-5l0 97c13,4 27,4 40,4 81,0 144,-25 173,-113l143 -439 -107 0 -59 246 -1 0 -50 -246 -142 0 0 0zm487 425l137 0 0 -328 106 0 0 -97 -349 0 0 97 106 0 0 328 0 0zm641 0l0 -425 -138 0 -90 239 0 -239 -133 0 0 425 137 0 91 -234 0 234 133 0zm430 0l0 -425 -138 0 -90 239 0 -239 -133 0 0 425 137 0 93 -234 0 234 131 0zm-108 -584c-9,40 -37,49 -76,49 -32,0 -64,-14 -68,-49l-47 0c4,77 50,109 118,109 68,0 116,-37 120,-109l-47 0 0 0z"/>
  <path class="fil1" d="M593 1529c0,151 106,239 245,239l11 0 0 68 152 0 0 -68 11 0c139,0 243,-88 243,-239 0,-148 -103,-239 -243,-239l-11 0 0 -57 -152 0 0 57 -11 0c-142,0 -245,91 -245,239zm408 -132c53,0 97,17 97,132 0,114 -43,132 -97,132l0 -264 0 0zm-152 264c-54,0 -97,-18 -97,-132 0,-115 44,-132 97,-132l0 264 0 0zm801 -7l0 -30c0,-110 -47,-223 -178,-223 -127,0 -190,101 -190,221 0,118 59,224 191,224 123,0 164,-97 171,-116l-93 -34c-8,34 -36,59 -70,59 -54,0 -61,-64 -61,-101l230 0 0 0zm-230 -82c0,-40 12,-85 50,-85 48,0 52,44 52,85l-102 0zm423 -57c5,-16 27,-33 49,-33 38,0 38,49 38,149 0,77 0,129 -46,129 -11,0 -28,-3 -41,-16l0 -229 0 0zm-138 -104l0 551 138 0 0 -164c24,24 50,38 84,38 115,0 145,-121 145,-229 0,-129 -52,-201 -136,-201 -34,0 -71,17 -97,49l-1 0 0 -44 -133 0 0 0zm560 104c5,-16 27,-33 49,-33 38,0 40,49 40,149 0,77 -2,129 -46,129 -11,0 -28,-3 -43,-16l0 -229 0 0zm-136 -104l0 551 136 0 0 -164c25,24 52,38 85,38 116,0 146,-121 146,-229 0,-129 -54,-201 -137,-201 -34,0 -70,17 -96,49l-3 0 0 -44 -131 0 0 0zm775 425l0 -425 -138 0 -90 237 0 -237 -133 0 0 425 138 0 90 -235 0 235 133 0zm143 0l137 0 0 -329 106 0 0 -96 -349 0 0 96 106 0 0 329 0 0zm641 0l0 -425 -138 0 -91 237 0 -237 -132 0 0 425 137 0 92 -235 0 235 132 0zm209 -425l-138 0 0 425 138 0 0 -169 76 0 0 169 136 0 0 -425 -136 0 0 161 -76 0 0 -161z"/>
  <path class="fil1" d="M854 3641c-94,0 -221,35 -221,150 0,83 48,130 121,130 42,0 79,-20 104,-49 1,13 1,27 4,39l142 0c-6,-6 -14,-21 -14,-69l0 -237c0,-93 -85,-129 -167,-129 -79,0 -155,33 -169,118l119 25c2,-25 13,-57 45,-57 25,0 36,25 36,51l0 28 0 0zm0 162c-17,20 -33,27 -44,27 -25,0 -41,-16 -41,-45 0,-63 32,-73 85,-78l0 96zm346 -317l-136 0 0 425 136 0 0 -167 76 0 0 167 138 0 0 -425 -138 0 0 161 -76 0 0 -161zm484 155c-93,0 -221,35 -221,150 0,83 48,130 122,130 42,0 78,-20 103,-49 1,13 1,27 5,39l141 0c-6,-6 -13,-21 -13,-69l0 -237c0,-93 -85,-129 -167,-129 -79,0 -155,33 -170,118l119 25c3,-25 14,-57 46,-57 24,0 35,25 35,51l0 28 0 0zm0 162c-17,20 -33,27 -44,27 -24,0 -40,-16 -40,-45 0,-63 31,-73 84,-78l0 96zm245 -317l0 276c0,38 -8,63 -30,63 -12,0 -27,-1 -32,-2l0 84c21,8 41,9 70,9 77,0 101,-69 101,-146l0 -187 76 0 0 328 138 0 0 -425 -323 0 0 0zm529 0l-136 0 0 425 136 0 0 -425zm-136 -55l136 0 0 -123 -136 0 0 123zm279 338l-103 31c22,71 83,121 178,121 128,0 180,-52 180,-123 0,-71 -45,-95 -98,-108l0 -1c55,-16 81,-47 81,-97 0,-68 -66,-116 -162,-116 -95,0 -146,51 -171,112l101 28c6,-23 26,-54 60,-54 27,0 44,19 44,44 0,26 -14,48 -52,48l-26 0 0 76 32 0c38,0 55,16 55,51 0,31 -18,49 -48,49 -40,0 -60,-26 -71,-61l0 0zm668 -283l-137 0 0 425 137 0 0 -157 32 -38 1 0 64 195 143 0 -112 -303 107 -122 -126 0 -108 133 -1 0 0 -133 0 0zm414 106c5,-18 27,-35 49,-35 38,0 38,49 38,149 0,77 0,129 -45,129 -11,0 -28,-3 -42,-16l0 -227 0 0zm-137 -106l0 552 137 0 0 -164c25,25 51,37 85,37 114,0 145,-120 145,-228 0,-129 -53,-202 -138,-202 -33,0 -70,17 -96,50l-2 0 0 -45 -131 0zm393 211c0,132 60,224 190,224 132,0 192,-92 192,-224 0,-127 -63,-221 -192,-221 -128,0 -190,94 -190,221zm141 0c0,-98 11,-135 49,-135 39,0 49,37 49,135 0,107 -14,138 -49,138 -33,0 -49,-31 -49,-138zm286 214l208 0c106,0 153,-42 153,-117 0,-56 -41,-91 -98,-104l0 -1c44,-10 85,-42 85,-95 0,-61 -50,-108 -140,-108l-208 0 0 425 0 0zm137 -181l39 0c36,0 48,21 48,47 0,33 -17,48 -48,48l-39 0 0 -95 0 0zm0 -158l35 0c25,0 43,10 43,42 0,24 -8,40 -43,40l-35 0 0 -82zm407 -86l-137 0 0 425 137 0 0 -425zm-137 -55l137 0 0 -123 -137 0 0 123z"/>
  <path class="fil1" d="M656 5866l138 0 0 -328 76 0 0 328 136 0 0 -425 -350 0 0 425zm568 -319c5,-16 27,-34 49,-34 38,0 38,49 38,148 0,78 0,129 -46,129 -11,0 -28,-2 -41,-16l0 -227 0 0zm-138 -106l0 553 138 0 0 -165c24,25 50,37 84,37 115,0 145,-120 145,-228 0,-129 -52,-202 -136,-202 -34,0 -71,19 -97,51l-1 0 0 -46 -133 0zm393 212c0,131 60,224 192,224 130,0 190,-93 190,-224 0,-127 -62,-222 -190,-222 -128,0 -192,95 -192,222zm143 0c0,-99 9,-136 49,-136 38,0 49,37 49,136 0,106 -16,137 -49,137 -35,0 -49,-31 -49,-137zm408 0c0,-66 9,-110 49,-110 38,0 49,48 49,110 0,106 -16,137 -49,137 -35,0 -49,-31 -49,-137zm239 0c0,-110 -59,-193 -169,-193 -52,0 -97,35 -121,83 0,-78 48,-114 106,-132 83,-27 113,-57 148,-107l-105 -29c-12,27 -37,36 -110,70 -121,57 -131,183 -131,282 0,146 61,250 192,250 130,0 190,-93 190,-224l0 0zm409 213l0 -425 -139 0 -89 239 0 -239 -133 0 0 425 138 0 91 -234 0 234 132 0z"/>
  <path class="fil1" d="M628 5104l152 0 0 -486 121 0 0 486 152 0 0 -604 -425 0 0 604zm843 -182l0 -28c0,-112 -46,-225 -179,-225 -125,0 -188,102 -188,221 0,118 59,224 191,224 121,0 163,-96 169,-116l-92 -34c-8,35 -37,59 -69,59 -55,0 -62,-64 -62,-101l230 0 0 0zm-230 -81c0,-41 12,-86 51,-86 47,0 52,45 52,86l-103 0zm279 -162l0 169c0,59 39,96 93,96 61,0 90,-16 120,-38l0 198 137 0 0 -425 -137 0 0 152c-13,10 -27,16 -40,16 -26,0 -36,-15 -36,-38l0 -130 -137 0 0 0zm556 0l-136 0 0 425 136 0 0 -425zm-136 -56l136 0 0 -123 -136 0 0 123zm344 56l-138 0 0 425 138 0 0 -167 76 0 0 167 136 0 0 -425 -136 0 0 161 -76 0 0 -161zm422 0l-137 0 0 425 137 0 0 -158 32 -38 3 0 63 196 142 0 -112 -304 107 -121 -125 0 -108 132 -2 0 0 -132 0 0zm247 211c0,131 61,224 191,224 130,0 191,-93 191,-224 0,-128 -63,-221 -191,-221 -128,0 -191,93 -191,221zm142 0c0,-98 11,-135 49,-135 39,0 49,37 49,135 0,107 -15,138 -49,138 -33,0 -49,-31 -49,-138zm286 214l208 0c105,0 153,-42 153,-117 0,-55 -43,-91 -98,-104l0 -2c44,-10 85,-41 85,-94 0,-62 -52,-108 -140,-108l-208 0 0 425 0 0zm136 -181l40 0c35,0 48,22 48,47 0,33 -18,48 -48,48l-40 0 0 -95 0 0zm0 -158l35 0c24,0 44,9 44,41 0,25 -9,41 -44,41l-35 0 0 -82zm408 -86l-137 0 0 425 137 0 0 -425zm-137 -56l137 0 0 -123 -137 0 0 123z"/>
 </g>
</svg>
