<?xml version="1.0" encoding="UTF-8"?>
<!DOCTYPE svg PUBLIC "-//W3C//DTD SVG 1.1//EN" "http://www.w3.org/Graphics/SVG/1.1/DTD/svg11.dtd">
<!-- Creator: CorelDRAW X7 -->
<svg xmlns="http://www.w3.org/2000/svg" xml:space="preserve" width="15.1665mm" height="15.9016mm" version="1.1" style="shape-rendering:geometricPrecision; text-rendering:geometricPrecision; image-rendering:optimizeQuality; fill-rule:evenodd; clip-rule:evenodd"
viewBox="0 0 63617 66700"
 xmlns:xlink="http://www.w3.org/1999/xlink">
 <defs>
  <style type="text/css">
   <![CDATA[
    .fil0 {fill:#393185;fill-rule:nonzero}
   ]]>
  </style>
 </defs>
 <g id="Слой_x0020_1">
  <metadata id="CorelCorpID_0Corel-Layer"/>
  <path class="fil0" d="M5904 7175l-1820 0 0 -2473c-412,141 -785,242 -1119,306 -333,64 -650,97 -948,97 -629,0 -1122,-156 -1480,-467 -359,-310 -537,-753 -537,-1322l0 -2829 1820 0 0 2229c0,300 60,526 180,681 120,153 336,231 643,231 189,0 404,-25 645,-76 240,-50 506,-128 796,-236l0 -2829 1820 0 0 6688zm3669 -5180c502,0 936,86 1303,259 365,172 648,430 847,774 198,346 296,776 296,1295l0 782 -3197 0c16,261 117,474 305,642 187,166 463,249 830,249 323,0 620,-31 890,-95 268,-64 548,-162 833,-297l0 1285c-249,131 -523,227 -818,287 -296,61 -670,92 -1121,92 -521,0 -988,-92 -1398,-274 -412,-183 -737,-466 -973,-849 -235,-385 -354,-878 -354,-1479 0,-612 106,-1114 320,-1510 214,-393 512,-685 896,-875 384,-190 832,-286 1341,-286zm64 1216c-211,0 -387,63 -529,186 -143,123 -225,319 -249,582l1536 0c-3,-142 -32,-271 -91,-388 -58,-116 -143,-208 -253,-277 -111,-68 -250,-103 -414,-103zm6558 -1216c573,0 1022,225 1349,676 326,451 490,1101 490,1950 0,577 -83,1065 -248,1458 -164,395 -389,691 -675,891 -284,198 -608,298 -971,298 -245,0 -451,-31 -619,-92 -171,-60 -311,-135 -422,-228 -111,-92 -205,-184 -281,-279l-54 0c15,119 28,247 39,382 10,136 15,297 15,478l0 1884 -1787 0 0 -7324 1453 0 251 655 83 0c86,-132 189,-257 311,-371 122,-115 271,-206 446,-275 175,-69 383,-103 620,-103zm-673 1403c-173,0 -310,41 -410,121 -102,78 -174,198 -219,359 -43,159 -69,359 -75,596l0 137c0,264 22,487 64,669 42,179 116,316 220,409 103,92 247,138 430,138 149,0 274,-40 374,-123 102,-82 178,-212 230,-392 51,-179 78,-417 78,-710 0,-437 -60,-748 -177,-930 -117,-181 -289,-274 -515,-274zm5319 -1309l0 1807 1417 0 0 -1807 1789 0 0 5086 -1789 0 0 -1949 -1417 0 0 1949 -1788 0 0 -5086 1788 0zm6237 0l0 5086 -1789 0 0 -5086 1789 0zm-886 -2089c256,0 479,55 670,161 190,106 285,318 285,635 0,308 -95,517 -285,625 -191,107 -414,162 -670,162 -263,0 -487,-55 -671,-162 -185,-108 -277,-317 -277,-625 0,-317 92,-529 277,-635 184,-106 408,-161 671,-161zm6932 3397c0,265 -81,501 -245,709 -162,207 -411,337 -747,390l0 37c368,42 652,167 852,377 200,209 300,476 300,804 0,256 -69,494 -208,718 -139,221 -384,401 -733,538 -352,136 -844,205 -1477,205l-2539 0 0 -5086 2547 0c521,0 947,50 1278,150 331,99 576,246 734,441 159,196 238,434 238,717zm-1660 2142c0,-128 -44,-233 -130,-314 -88,-80 -256,-120 -506,-120l-713 0 0 899 694 0c236,0 403,-44 505,-130 100,-86 150,-198 150,-335zm-119 -1903c0,-123 -42,-217 -128,-281 -86,-64 -209,-95 -370,-95l-732 0 0 719 668 0c189,0 329,-32 423,-97 92,-65 139,-146 139,-246zm5205 -1641c502,0 936,86 1303,259 365,172 648,430 846,774 198,346 297,776 297,1295l0 782 -3197 0c15,261 117,474 304,642 187,166 464,249 830,249 324,0 620,-31 891,-95 268,-64 547,-162 833,-297l0 1285c-250,131 -523,227 -818,287 -296,61 -670,92 -1121,92 -521,0 -988,-92 -1399,-274 -412,-183 -736,-466 -972,-849 -236,-385 -354,-878 -354,-1479 0,-612 106,-1114 320,-1510 214,-393 512,-685 896,-875 384,-190 832,-286 1341,-286zm64 1216c-211,0 -387,63 -530,186 -142,123 -224,319 -248,582l1536 0c-3,-142 -33,-271 -92,-388 -58,-116 -142,-208 -253,-277 -110,-68 -250,-103 -413,-103zm9791 5865l-1564 0 0 -1901 -4833 0 0 -5086 1787 0 0 3754 1659 0 0 -3754 1789 0 0 3754 1162 0 0 3233zm2519 -5152l591 0c546,0 974,62 1283,185 309,122 529,299 659,531 129,231 193,513 193,844 0,339 -72,634 -217,888 -145,255 -387,452 -727,592 -341,141 -806,211 -1397,211l-2172 0 0 -5086 1787 0 0 1835zm939 1644c0,-149 -44,-267 -132,-349 -87,-83 -260,-123 -523,-123l-284 0 0 908 302 0c220,0 380,-38 482,-112 103,-77 155,-183 155,-324zm6333 -3479l1974 0 -1938 2437 2090 2649 -2044 0 -1921 -2581 0 2581 -1787 0 0 -5086 1787 0 0 2465 1839 -2465zm5232 -94c656,0 1168,159 1536,478 369,320 553,774 553,1364l0 3338 -1238 0 -343 -684 -38 0c-145,183 -296,331 -449,446 -155,114 -331,199 -529,252 -199,53 -441,79 -726,79 -300,0 -569,-59 -806,-179 -237,-120 -425,-301 -562,-545 -137,-243 -206,-551 -206,-922 0,-547 192,-951 576,-1215 384,-264 941,-414 1669,-447l865 -26 0 -69c0,-220 -58,-376 -172,-468 -114,-94 -267,-139 -459,-139 -205,0 -432,36 -684,106 -251,72 -504,164 -757,278l-516 -1180c297,-153 636,-269 1014,-348 378,-80 803,-119 1272,-119zm311 2922l-412 17c-329,11 -560,66 -693,164 -133,97 -198,236 -198,416 0,168 47,293 142,373 93,79 218,118 374,118 217,0 401,-63 556,-195 154,-131 231,-301 231,-510l0 -383z"/>
  <path class="fil0" d="M25326 16505c0,425 -59,803 -178,1132 -118,331 -290,607 -516,832 -225,225 -499,395 -819,511 -319,115 -682,173 -1084,173 -375,0 -718,-58 -1031,-173 -312,-116 -585,-286 -816,-511 -233,-225 -411,-501 -537,-832 -127,-329 -191,-707 -191,-1132 0,-563 105,-1039 314,-1430 208,-390 507,-686 896,-889 389,-205 852,-306 1393,-306 496,0 939,101 1326,306 388,203 690,499 912,889 222,391 331,867 331,1430zm-3356 0c0,286 26,527 78,723 51,195 134,345 250,447 114,101 264,151 449,151 186,0 334,-50 444,-151 111,-102 190,-252 240,-447 50,-196 75,-437 75,-723 0,-285 -25,-524 -75,-716 -50,-191 -131,-336 -242,-433 -111,-97 -262,-147 -451,-147 -272,0 -467,110 -587,328 -120,219 -181,541 -181,968zm4162 -529c0,-740 98,-1377 295,-1912 197,-536 529,-968 999,-1297 470,-330 1113,-552 1929,-667 275,-38 578,-73 910,-111 333,-36 666,-67 998,-95l168 1481c-154,13 -320,27 -496,43 -175,13 -351,32 -527,51 -177,20 -350,39 -517,58 -167,18 -322,36 -462,55 -423,48 -742,132 -954,254 -211,122 -356,279 -432,473 -75,193 -124,426 -141,694l77 0c59,-112 149,-226 274,-341 125,-116 283,-213 472,-291 188,-78 409,-117 658,-117 384,0 729,77 1034,228 304,152 546,390 723,717 176,324 265,750 265,1275 0,592 -112,1085 -337,1483 -223,397 -534,696 -932,896 -398,200 -859,300 -1379,300 -399,0 -760,-70 -1081,-209 -322,-141 -598,-345 -829,-615 -230,-271 -406,-602 -531,-996 -124,-395 -184,-846 -184,-1357zm2716 1850c147,0 275,-37 387,-112 111,-75 199,-199 261,-369 62,-170 94,-395 94,-676 0,-331 -50,-604 -151,-818 -98,-214 -274,-322 -527,-322 -144,0 -282,40 -418,118 -136,78 -253,167 -350,267 -98,101 -164,188 -197,260 0,192 17,386 50,581 34,195 86,375 156,535 70,163 163,292 276,391 115,97 255,145 419,145zm8804 1233l-1789 0 0 -3756 -1052 0c-64,703 -142,1299 -236,1789 -92,490 -217,887 -371,1190 -156,304 -353,524 -593,663 -239,139 -537,208 -895,208 -139,0 -284,-12 -431,-39 -148,-25 -274,-59 -377,-98l0 -1331c60,30 123,52 188,65 66,11 138,16 214,16 77,0 147,-23 214,-70 67,-48 133,-143 195,-285 63,-144 122,-355 177,-632 54,-278 108,-645 159,-1101 51,-454 101,-1024 147,-1705l4450 0 0 5086zm1010 -780c0,-323 96,-550 286,-681 191,-131 420,-196 688,-196 253,0 474,65 659,196 186,131 280,358 280,681 0,309 -94,531 -280,668 -185,137 -406,206 -659,206 -268,0 -497,-69 -688,-206 -190,-137 -286,-359 -286,-668zm4591 -587l65 104c-55,223 -127,491 -213,803 -87,312 -181,625 -284,941 -102,315 -205,590 -309,821l-1275 0c60,-287 120,-588 178,-905 57,-317 112,-628 160,-932 48,-305 86,-583 114,-832l1564 0z"/>
  <path class="fil0" d="M5915 30944l-1815 0 0 -2726 -2100 0 0 2726 -1815 0 0 -6688 1815 0 0 2481 2100 0 0 -2481 1815 0 0 6688zm6289 -2554c0,424 -60,802 -179,1132 -118,331 -290,607 -516,831 -225,225 -498,396 -818,511 -320,116 -682,173 -1085,173 -375,0 -718,-57 -1030,-173 -313,-115 -586,-286 -817,-511 -232,-224 -411,-500 -537,-831 -126,-330 -190,-708 -190,-1132 0,-564 104,-1040 314,-1430 207,-390 507,-687 895,-890 389,-205 853,-306 1393,-306 496,0 940,101 1327,306 387,203 690,500 912,890 221,390 331,866 331,1430zm-3357 0c0,285 27,526 78,722 52,196 134,346 250,447 114,102 264,151 450,151 185,0 334,-49 443,-151 111,-101 191,-251 241,-447 49,-196 74,-437 74,-722 0,-286 -25,-525 -74,-717 -50,-190 -132,-335 -242,-432 -111,-97 -263,-147 -452,-147 -271,0 -467,109 -587,328 -120,218 -181,540 -181,968zm9174 -1224c0,265 -80,501 -244,708 -163,208 -412,338 -748,391l0 37c368,42 652,167 852,377 200,209 300,476 300,804 0,256 -69,494 -208,717 -139,222 -384,402 -733,539 -351,136 -843,205 -1477,205l-2538 0 0 -5086 2546 0c521,0 947,50 1278,149 331,100 576,247 734,442 159,196 238,434 238,717zm-1660 2142c0,-128 -44,-233 -130,-314 -87,-80 -256,-120 -506,-120l-713 0 0 899 695 0c235,0 402,-44 504,-130 100,-86 150,-198 150,-335zm-119 -1903c0,-124 -42,-217 -128,-281 -86,-65 -209,-96 -370,-96l-732 0 0 720 668 0c189,0 329,-32 423,-97 92,-65 139,-146 139,-246zm7820 985c0,424 -60,802 -179,1132 -118,331 -290,607 -516,831 -225,225 -498,396 -818,511 -320,116 -682,173 -1085,173 -375,0 -718,-57 -1030,-173 -313,-115 -586,-286 -817,-511 -232,-224 -411,-500 -537,-831 -126,-330 -190,-708 -190,-1132 0,-564 104,-1040 314,-1430 207,-390 507,-687 895,-890 389,-205 853,-306 1393,-306 496,0 940,101 1327,306 387,203 690,500 912,890 221,390 331,866 331,1430zm-3357 0c0,285 27,526 78,722 52,196 134,346 250,447 114,102 264,151 450,151 185,0 334,-49 443,-151 111,-101 191,-251 241,-447 49,-196 74,-437 74,-722 0,-286 -25,-525 -74,-717 -50,-190 -132,-335 -242,-432 -111,-97 -263,-147 -452,-147 -271,0 -467,109 -587,328 -120,218 -181,540 -181,968zm6736 2647c-524,0 -980,-92 -1367,-276 -387,-184 -687,-470 -898,-854 -212,-385 -318,-879 -318,-1481 0,-619 118,-1123 354,-1516 236,-392 561,-681 973,-866 410,-186 877,-280 1398,-280 317,0 619,34 904,105 284,70 550,167 793,288l-526 1323c-214,-95 -412,-171 -596,-227 -185,-58 -376,-86 -575,-86 -179,0 -339,47 -476,138 -137,90 -243,228 -320,412 -77,184 -114,417 -114,699 0,287 39,520 117,696 78,177 186,305 325,385 139,78 298,118 478,118 259,0 516,-40 776,-121 257,-82 501,-193 733,-336l0 1422c-214,140 -454,251 -722,334 -269,83 -581,123 -939,123zm5022 -5273c503,0 937,86 1304,259 365,172 648,430 846,774 198,346 297,776 297,1295l0 782 -3197 0c15,261 117,474 304,641 187,167 464,250 830,250 324,0 620,-31 890,-95 269,-64 548,-163 834,-297l0 1285c-250,131 -523,226 -818,287 -297,61 -670,92 -1121,92 -521,0 -988,-92 -1399,-275 -412,-182 -736,-465 -972,-849 -236,-384 -355,-877 -355,-1478 0,-612 106,-1115 320,-1510 214,-393 513,-685 896,-875 385,-191 833,-286 1341,-286zm65 1216c-211,0 -388,63 -530,186 -142,123 -225,318 -248,582l1536 0c-3,-142 -33,-272 -92,-389 -58,-115 -142,-207 -253,-276 -111,-68 -250,-103 -413,-103zm8593 3964l-1789 0 0 -3756 -1052 0c-64,702 -142,1298 -236,1789 -92,490 -217,887 -371,1189 -156,304 -353,525 -594,664 -238,139 -536,207 -894,207 -139,0 -284,-12 -431,-39 -148,-25 -274,-59 -378,-98l0 -1330c61,30 124,52 189,64 66,11 138,17 214,17 76,0 147,-23 214,-70 67,-48 133,-144 195,-286 63,-143 122,-354 177,-632 54,-278 107,-645 159,-1101 51,-454 101,-1024 146,-1704l4451 0 0 5086zm2866 -5086l0 1979c0,105 -1,214 -6,326 -4,113 -11,224 -19,334 -7,111 -14,219 -22,324 -7,104 -15,201 -21,291l1957 -3254 1949 0 0 5086 -1629 0 0 -1841c0,-159 4,-323 8,-493 5,-172 11,-337 20,-498 10,-162 22,-309 36,-441l-1974 3273 -1930 0 0 -5086 1631 0zm11471 6987l-1564 0 0 -1901 -4833 0 0 -5086 1787 0 0 3754 1660 0 0 -3754 1789 0 0 3754 1161 0 0 3233zm1894 -1901l-1894 0 1330 -1930c-157,-87 -302,-200 -433,-340 -132,-139 -236,-306 -316,-504 -79,-199 -118,-425 -118,-683 0,-538 203,-944 607,-1219 406,-273 958,-410 1656,-410l2474 0 0 5086 -1789 0 0 -1761 -526 0 -991 1761zm356 -3402c0,120 47,230 142,325 95,96 266,145 512,145l507 0 0 -984 -516 0c-228,0 -394,50 -494,152 -101,100 -151,222 -151,362zm5845 2034l64 105c-55,223 -127,490 -213,802 -87,312 -181,626 -284,941 -101,316 -205,591 -309,822l-1275 0c61,-288 120,-589 178,-906 57,-317 112,-627 160,-932 49,-304 86,-582 114,-832l1565 0z"/>
  <path class="fil0" d="M26859 39050c0,266 -81,501 -245,709 -162,208 -412,337 -748,390l0 38c369,42 653,167 853,376 200,209 299,476 299,804 0,256 -68,495 -207,718 -139,222 -384,401 -734,538 -351,136 -843,205 -1477,205l-2538 0 0 -5086 2546 0c522,0 948,50 1279,150 331,100 576,247 733,442 160,195 239,434 239,716zm-1661 2142c0,-128 -44,-233 -129,-314 -88,-79 -257,-120 -506,-120l-714 0 0 899 695 0c236,0 403,-43 504,-129 100,-86 150,-199 150,-336zm-118 -1903c0,-123 -43,-217 -128,-281 -86,-64 -210,-95 -370,-95l-733 0 0 720 669 0c188,0 329,-33 423,-97 92,-66 139,-147 139,-247zm2245 -1547l1884 0 879 2933c12,42 23,94 36,156 12,61 23,127 32,197 8,69 14,136 18,203l37 0c15,-123 33,-231 53,-323 19,-92 37,-165 56,-223l901 -2943 1825 0 -2048 5439c-160,415 -344,763 -551,1044 -210,281 -467,494 -773,637 -308,142 -687,214 -1141,214 -166,0 -306,-8 -423,-25 -119,-17 -220,-34 -309,-53l0 -1404c67,13 149,24 246,36 98,13 200,19 306,19 198,0 359,-39 482,-115 124,-77 225,-177 305,-302 80,-125 148,-259 206,-404l19 -45 -2040 -5041zm11539 5086l-1789 0 0 -3756 -1052 0c-64,702 -142,1299 -236,1789 -92,490 -217,887 -372,1190 -156,304 -352,524 -593,663 -238,139 -537,208 -894,208 -139,0 -284,-13 -431,-39 -148,-25 -274,-60 -378,-99l0 -1330c61,30 124,52 189,65 66,10 138,16 214,16 76,0 147,-23 214,-70 67,-48 133,-143 195,-285 63,-144 122,-355 177,-633 54,-278 107,-644 159,-1100 51,-454 101,-1024 146,-1705l4451 0 0 5086zm1010 -781c0,-323 95,-549 286,-680 190,-131 420,-197 688,-197 253,0 473,66 659,197 186,131 280,357 280,680 0,310 -94,531 -280,669 -186,137 -406,206 -659,206 -268,0 -498,-69 -688,-206 -191,-138 -286,-359 -286,-669z"/>
  <path class="fil0" d="M7364 53231l0 3561 -1761 0 0 -2079 -5132 0 0 -6688 1816 0 0 5206 1856 0 0 -5206 1817 0 0 5206 1404 0zm3119 -3698c502,0 936,86 1303,259 365,172 648,429 846,774 198,345 297,776 297,1295l0 781 -3197 0c15,261 117,475 304,642 187,167 464,250 830,250 324,0 620,-31 890,-95 269,-64 548,-163 834,-297l0 1285c-250,131 -523,226 -818,287 -297,61 -670,92 -1121,92 -521,0 -988,-92 -1399,-275 -412,-182 -736,-465 -972,-849 -236,-384 -354,-877 -354,-1478 0,-612 106,-1115 320,-1510 214,-393 512,-685 896,-875 384,-191 832,-286 1341,-286zm64 1216c-211,0 -387,63 -530,186 -142,123 -224,318 -248,582l1536 0c-3,-142 -33,-272 -92,-389 -58,-115 -142,-207 -253,-276 -110,-69 -250,-103 -413,-103zm5181 -1122l0 1807 1417 0 0 -1807 1789 0 0 5086 -1789 0 0 -1949 -1417 0 0 1949 -1787 0 0 -5086 1787 0zm9248 1330l-1707 0 0 3756 -1789 0 0 -3756 -1704 0 0 -1330 5200 0 0 1330zm4005 -1424c573,0 1023,224 1349,676 326,451 490,1100 490,1949 0,578 -83,1065 -248,1458 -164,396 -389,692 -674,892 -284,198 -609,298 -972,298 -244,0 -450,-31 -619,-92 -170,-61 -311,-136 -422,-228 -110,-92 -204,-184 -281,-279l-54 0c15,118 28,246 39,382 11,136 15,297 15,478l0 1884 -1787 0 0 -7324 1453 0 252 655 82 0c86,-132 189,-257 311,-371 122,-116 272,-206 446,-275 175,-69 383,-103 620,-103zm-672 1403c-174,0 -311,41 -411,121 -102,78 -173,198 -219,359 -43,159 -68,359 -75,596l0 137c0,264 22,487 65,668 41,180 115,317 219,409 104,93 247,139 430,139 150,0 275,-40 374,-123 102,-83 178,-212 230,-392 51,-179 78,-417 78,-710 0,-437 -59,-748 -176,-930 -117,-182 -289,-274 -515,-274zm6059 -1403c656,0 1168,159 1537,477 368,320 552,775 552,1365l0 3338 -1238 0 -343 -684 -38 0c-145,182 -296,331 -449,446 -155,114 -331,198 -529,251 -199,54 -441,80 -726,80 -300,0 -569,-59 -806,-179 -237,-120 -425,-302 -562,-545 -137,-244 -206,-551 -206,-923 0,-546 192,-951 576,-1214 384,-264 941,-414 1669,-447l865 -26 0 -69c0,-220 -58,-376 -172,-468 -114,-94 -267,-139 -459,-139 -204,0 -432,36 -683,106 -252,72 -505,164 -758,278l-516 -1180c297,-153 636,-269 1014,-349 378,-79 803,-118 1272,-118zm311 2922l-412 17c-329,11 -560,66 -693,164 -133,97 -198,236 -198,415 0,169 47,294 142,374 93,79 218,118 374,118 217,0 401,-64 556,-195 155,-131 231,-301 231,-510l0 -383zm8196 2258l-1789 0 0 -3756 -1052 0c-64,702 -142,1298 -236,1789 -92,490 -217,886 -372,1189 -156,304 -352,525 -593,663 -238,140 -537,208 -894,208 -139,0 -284,-12 -431,-39 -148,-25 -275,-59 -378,-98l0 -1330c61,30 124,51 189,64 66,11 138,17 214,17 76,0 147,-23 214,-70 67,-49 132,-144 195,-286 62,-143 121,-354 176,-632 55,-278 108,-645 159,-1101 52,-454 102,-1024 147,-1704l4451 0 0 5086zm3022 -3251l590 0c547,0 974,61 1284,185 309,121 529,299 658,530 130,231 194,514 194,845 0,339 -72,633 -217,888 -145,255 -387,451 -727,592 -341,140 -806,211 -1398,211l-2171 0 0 -5086 1787 0 0 1835zm939 1644c0,-150 -44,-267 -132,-349 -87,-83 -260,-124 -523,-124l-284 0 0 909 301 0c221,0 381,-38 483,-113 103,-76 155,-182 155,-323zm4494 -3479l0 1807 1417 0 0 -1807 1789 0 0 5086 -1789 0 0 -1949 -1417 0 0 1949 -1788 0 0 -5086 1788 0zm6970 -94c655,0 1167,159 1536,477 368,320 552,775 552,1365l0 3338 -1238 0 -343 -684 -38 0c-145,182 -296,331 -449,446 -155,114 -331,198 -529,251 -199,54 -441,80 -726,80 -300,0 -569,-59 -806,-179 -237,-120 -424,-302 -562,-545 -137,-244 -206,-551 -206,-923 0,-546 192,-951 576,-1214 384,-264 942,-414 1669,-447l865 -26 0 -69c0,-220 -58,-376 -172,-468 -114,-94 -267,-139 -459,-139 -204,0 -432,36 -683,106 -252,72 -505,164 -757,278l-517 -1180c298,-153 637,-269 1014,-349 378,-79 803,-118 1273,-118zm310 2922l-412 17c-329,11 -560,66 -693,164 -133,97 -198,236 -198,415 0,169 47,294 142,374 94,79 219,118 375,118 216,0 401,-64 555,-195 155,-131 231,-301 231,-510l0 -383zm4656 890l64 105c-55,223 -127,490 -213,802 -87,312 -181,626 -284,941 -101,316 -205,590 -309,821l-1275 0c61,-287 120,-588 178,-905 57,-317 112,-628 160,-932 49,-304 86,-582 114,-832l1565 0z"/>
  <path class="fil0" d="M26570 66597l-4852 0 0 -1190 1633 -1653c337,-354 601,-638 788,-852 187,-214 320,-396 395,-547 76,-149 115,-305 115,-466 0,-198 -63,-342 -191,-431 -128,-89 -280,-133 -453,-133 -211,0 -423,59 -639,180 -215,121 -459,298 -729,534l-993 -1163c202,-180 414,-352 640,-514 227,-164 492,-296 801,-400 308,-104 683,-156 1124,-156 455,0 850,80 1184,239 333,158 591,376 774,653 184,276 275,590 275,941 0,387 -71,734 -213,1036 -142,305 -354,609 -638,912 -283,304 -637,648 -1062,1033l-488 441 0 45 2529 0 0 1491zm5265 -5241c0,317 -69,592 -205,823 -135,231 -315,420 -540,567 -223,146 -468,256 -733,329l0 28c533,67 946,230 1238,489 290,257 437,624 437,1099 0,367 -99,703 -294,1007 -195,304 -498,548 -910,729 -412,183 -940,273 -1587,273 -433,0 -802,-33 -1107,-97 -305,-64 -600,-151 -887,-264l0 -1500c290,148 588,259 894,331 306,72 586,108 839,108 440,0 740,-64 899,-189 161,-127 240,-295 240,-508 0,-154 -37,-284 -114,-391 -76,-108 -217,-191 -422,-250 -207,-58 -502,-88 -886,-88l-412 0 0 -1358 422 0c340,0 612,-31 811,-92 200,-60 344,-145 433,-251 87,-106 132,-228 132,-365 0,-178 -68,-311 -206,-397 -137,-86 -318,-128 -544,-128 -202,0 -391,27 -567,81 -178,57 -331,117 -462,185 -131,67 -231,121 -298,164l-750 -1207c278,-189 595,-350 954,-481 357,-131 828,-197 1406,-197 689,0 1231,138 1626,412 395,277 593,655 593,1138zm777 3443l0 -1427 2584 0 0 1427 -2584 0zm7606 1798l-330 -1246 -2173 0 -337 1246 -1986 0 2181 -6688 2410 0 2210 6688 -1975 0zm-704 -2727l-289 -1093c-30,-119 -75,-287 -133,-507 -57,-220 -115,-447 -172,-683 -56,-235 -99,-429 -129,-580 -28,151 -67,338 -117,562 -50,223 -102,443 -156,661 -54,219 -99,402 -139,547l-287 1093 1422 0z"/>
 </g>
</svg>
