<?xml version="1.0" encoding="UTF-8"?>
<!DOCTYPE svg PUBLIC "-//W3C//DTD SVG 1.1//EN" "http://www.w3.org/Graphics/SVG/1.1/DTD/svg11.dtd">
<!-- Creator: CorelDRAW X7 -->
<svg xmlns="http://www.w3.org/2000/svg" xml:space="preserve" width="15.6665mm" height="19.7581mm" version="1.1" style="shape-rendering:geometricPrecision; text-rendering:geometricPrecision; image-rendering:optimizeQuality; fill-rule:evenodd; clip-rule:evenodd"
viewBox="0 0 156666 197582"
 xmlns:xlink="http://www.w3.org/1999/xlink">
 <defs>
  <style type="text/css">
   <![CDATA[
    .str0 {stroke:#FEFEFE;stroke-width:5000.03;stroke-linecap:round;stroke-linejoin:round}
    .fil0 {fill:none;fill-rule:nonzero}
    .fil1 {fill:#005487;fill-rule:nonzero}
   ]]>
  </style>
 </defs>
 <g id="Слой_x0020_1">
  <metadata id="CorelCorpID_0Corel-Layer"/>
  <g>
   <path class="fil0 str0" d="M16575 23216l-4339 0 0 -7141c-982,407 -1871,699 -2668,884 -794,185 -1550,280 -2260,280 -1500,0 -2675,-451 -3528,-1348 -856,-895 -1280,-2174 -1280,-3817l0 -8168 4339 0 0 6436c0,866 143,1518 429,1967 286,442 801,667 1533,667 451,0 963,-73 1538,-219 572,-144 1206,-370 1898,-682l0 -8168 4339 0 0 19310 -1 -1zm8747 -14956c1197,0 2231,248 3106,747 870,497 1545,1242 2019,2235 472,999 706,2240 706,3738l0 2258 -7622 0c38,753 279,1368 727,1854 446,479 1104,719 1979,719 770,0 1478,-89 2122,-273 639,-186 1306,-468 1986,-858l0 3710c-594,378 -1247,655 -1950,828 -706,176 -1597,265 -2673,265 -1242,0 -2355,-265 -3333,-791 -982,-528 -1757,-1345 -2320,-2451 -560,-1112 -844,-2535 -844,-4270 0,-1767 253,-3217 763,-4360 510,-1135 1221,-1978 2136,-2526 915,-549 1984,-826 3197,-826l1 1zm152 3511c-503,0 -923,182 -1261,536 -341,355 -536,922 -594,1681l3662 0c-7,-410 -76,-782 -217,-1120 -138,-335 -341,-601 -603,-799 -265,-196 -596,-298 -987,-298zm15635 -3511c1366,0 2436,649 3216,1952 777,1302 1168,3179 1168,5631 0,1666 -198,3074 -591,4209 -391,1141 -927,1995 -1609,2573 -677,571 -1449,860 -2315,860 -584,0 -1075,-90 -1476,-266 -408,-173 -741,-390 -1006,-659 -265,-265 -489,-531 -670,-805l-129 0c36,344 67,713 93,1103 24,393 36,858 36,1381l0 5440 -4260 0 0 -21147 3464 0 598 1892 198 0c205,-381 451,-742 741,-1070 291,-332 646,-595 1063,-795 417,-199 913,-298 1478,-298l1 -1zm-1605 4050c-412,0 -739,118 -977,349 -243,225 -415,571 -522,1036 -103,459 -164,1037 -179,1721l0 396c0,762 52,1406 153,1932 100,517 277,912 524,1181 246,265 589,398 1025,398 355,0 653,-115 892,-355 243,-236 424,-611 548,-1132 122,-517 186,-1204 186,-2050 0,-1262 -143,-2160 -422,-2685 -279,-524 -689,-791 -1228,-791zm12681 -3779l0 5218 3378 0 0 -5218 4265 0 0 14685 -4265 0 0 -5627 -3378 0 0 5627 -4263 0 0 -14685 4263 0zm14869 0l0 14685 -4265 0 0 -14685 4265 0zm-2112 -6031c610,0 1142,159 1597,465 453,306 679,918 679,1834 0,889 -226,1493 -679,1804 -455,309 -987,468 -1597,468 -627,0 -1161,-159 -1600,-468 -441,-311 -660,-915 -660,-1804 0,-916 219,-1528 660,-1834 439,-306 973,-465 1600,-465zm16527 9807c0,766 -193,1446 -584,2047 -386,597 -980,973 -1781,1126l0 107c877,121 1554,482 2031,1089 477,603 715,1374 715,2321 0,739 -164,1427 -496,2074 -331,638 -915,1158 -1747,1554 -839,392 -2013,592 -3522,592l-6053 0 0 -14685 6072 0c1242,0 2259,145 3048,434 789,286 1373,710 1750,1273 379,565 567,1253 567,2070l0 -2zm-3958 6185c0,-369 -105,-672 -310,-907 -210,-231 -610,-346 -1206,-346l-1700 0 0 2595 1655 0c563,0 961,-127 1204,-375 238,-248 358,-572 358,-968l-1 1zm-284 -5494c0,-355 -100,-626 -305,-812 -205,-185 -498,-273 -882,-273l-1745 0 0 2075 1593 0c451,0 784,-92 1008,-279 219,-188 331,-422 331,-710l0 -1zm12410 -4738c1197,0 2231,248 3106,747 870,497 1545,1242 2017,2235 472,999 708,2240 708,3738l0 2258 -7622 0c36,753 279,1368 725,1854 446,479 1106,719 1979,719 772,0 1478,-89 2124,-273 639,-186 1304,-468 1986,-858l0 3710c-596,378 -1247,655 -1950,828 -706,176 -1597,265 -2673,265 -1242,0 -2355,-265 -3335,-791 -982,-528 -1755,-1345 -2317,-2451 -563,-1112 -844,-2535 -844,-4270 0,-1767 253,-3217 763,-4360 510,-1135 1221,-1978 2136,-2526 915,-549 1984,-826 3197,-826l0 1zm152 3511c-503,0 -923,182 -1264,536 -339,355 -534,922 -591,1681l3662 0c-7,-410 -79,-782 -219,-1120 -138,-335 -339,-601 -603,-799 -262,-196 -596,-298 -985,-298zm23343 16933l-3729 0 0 -5488 -11522 0 0 -14685 4260 0 0 10839 3955 0 0 -10839 4265 0 0 10839 2770 0 0 9336 1 -2zm6005 -14875l1409 0c1302,0 2322,179 3059,534 737,352 1261,863 1571,1533 308,667 460,1481 460,2437 0,978 -172,1829 -517,2563 -346,737 -923,1306 -1733,1709 -813,407 -1922,609 -3330,609l-5178 0 0 -14684 4260 0 0 5299 -1 0zm2239 4747c0,-430 -105,-771 -315,-1008 -207,-239 -620,-355 -1247,-355l-677 0 0 2622 720 0c524,0 906,-110 1149,-323 246,-223 370,-528 370,-935l0 -1zm15098 -10045l4706 0 -4620 7037 4983 7648 -4873 0 -4580 -7452 0 7452 -4260 0 0 -14685 4260 0 0 7118 4384 -7118zm12473 -271c1564,0 2785,459 3662,1381 880,924 1318,2234 1318,3938l0 9638 -2951 0 -818 -1975 -91 0c-346,528 -706,955 -1070,1287 -370,329 -789,574 -1261,728 -474,152 -1051,228 -1731,228 -715,0 -1357,-171 -1922,-518 -565,-346 -1013,-869 -1340,-1573 -327,-701 -491,-1591 -491,-2662 0,-1579 458,-2745 1373,-3508 915,-762 2243,-1196 3979,-1291l2062 -75 0 -199c0,-635 -138,-1085 -410,-1352 -272,-271 -637,-400 -1094,-400 -489,0 -1030,104 -1631,306 -598,208 -1202,473 -1805,803l-1230 -3407c708,-442 1516,-776 2417,-1005 901,-231 1914,-344 3032,-344l2 0zm741 8436l-982 50c-784,32 -1335,190 -1652,474 -317,279 -472,681 -472,1201 0,486 112,846 339,1077 222,227 520,340 892,340 517,0 956,-182 1326,-563 367,-378 551,-870 551,-1473l0 -1106 -2 0z"/>
   <path id="1" class="fil1" d="M16575 23216l-4339 0 0 -7141c-982,407 -1871,699 -2668,884 -794,185 -1550,280 -2260,280 -1500,0 -2675,-451 -3528,-1348 -856,-895 -1280,-2174 -1280,-3817l0 -8168 4339 0 0 6436c0,866 143,1518 429,1967 286,442 801,667 1533,667 451,0 963,-73 1538,-219 572,-144 1206,-370 1898,-682l0 -8168 4339 0 0 19310 -1 -1zm8747 -14956c1197,0 2231,248 3106,747 870,497 1545,1242 2019,2235 472,999 706,2240 706,3738l0 2258 -7622 0c38,753 279,1368 727,1854 446,479 1104,719 1979,719 770,0 1478,-89 2122,-273 639,-186 1306,-468 1986,-858l0 3710c-594,378 -1247,655 -1950,828 -706,176 -1597,265 -2673,265 -1242,0 -2355,-265 -3333,-791 -982,-528 -1757,-1345 -2320,-2451 -560,-1112 -844,-2535 -844,-4270 0,-1767 253,-3217 763,-4360 510,-1135 1221,-1978 2136,-2526 915,-549 1984,-826 3197,-826l1 1zm152 3511c-503,0 -923,182 -1261,536 -341,355 -536,922 -594,1681l3662 0c-7,-410 -76,-782 -217,-1120 -138,-335 -341,-601 -603,-799 -265,-196 -596,-298 -987,-298zm15635 -3511c1366,0 2436,649 3216,1952 777,1302 1168,3179 1168,5631 0,1666 -198,3074 -591,4209 -391,1141 -927,1995 -1609,2573 -677,571 -1449,860 -2315,860 -584,0 -1075,-90 -1476,-266 -408,-173 -741,-390 -1006,-659 -265,-265 -489,-531 -670,-805l-129 0c36,344 67,713 93,1103 24,393 36,858 36,1381l0 5440 -4260 0 0 -21147 3464 0 598 1892 198 0c205,-381 451,-742 741,-1070 291,-332 646,-595 1063,-795 417,-199 913,-298 1478,-298l1 -1zm-1605 4050c-412,0 -739,118 -977,349 -243,225 -415,571 -522,1036 -103,459 -164,1037 -179,1721l0 396c0,762 52,1406 153,1932 100,517 277,912 524,1181 246,265 589,398 1025,398 355,0 653,-115 892,-355 243,-236 424,-611 548,-1132 122,-517 186,-1204 186,-2050 0,-1262 -143,-2160 -422,-2685 -279,-524 -689,-791 -1228,-791zm12681 -3779l0 5218 3378 0 0 -5218 4265 0 0 14685 -4265 0 0 -5627 -3378 0 0 5627 -4263 0 0 -14685 4263 0zm14869 0l0 14685 -4265 0 0 -14685 4265 0zm-2112 -6031c610,0 1142,159 1597,465 453,306 679,918 679,1834 0,889 -226,1493 -679,1804 -455,309 -987,468 -1597,468 -627,0 -1161,-159 -1600,-468 -441,-311 -660,-915 -660,-1804 0,-916 219,-1528 660,-1834 439,-306 973,-465 1600,-465zm16527 9807c0,766 -193,1446 -584,2047 -386,597 -980,973 -1781,1126l0 107c877,121 1554,482 2031,1089 477,603 715,1374 715,2321 0,739 -164,1427 -496,2074 -331,638 -915,1158 -1747,1554 -839,392 -2013,592 -3522,592l-6053 0 0 -14685 6072 0c1242,0 2259,145 3048,434 789,286 1373,710 1750,1273 379,565 567,1253 567,2070l0 -2zm-3958 6185c0,-369 -105,-672 -310,-907 -210,-231 -610,-346 -1206,-346l-1700 0 0 2595 1655 0c563,0 961,-127 1204,-375 238,-248 358,-572 358,-968l-1 1zm-284 -5494c0,-355 -100,-626 -305,-812 -205,-185 -498,-273 -882,-273l-1745 0 0 2075 1593 0c451,0 784,-92 1008,-279 219,-188 331,-422 331,-710l0 -1zm12410 -4738c1197,0 2231,248 3106,747 870,497 1545,1242 2017,2235 472,999 708,2240 708,3738l0 2258 -7622 0c36,753 279,1368 725,1854 446,479 1106,719 1979,719 772,0 1478,-89 2124,-273 639,-186 1304,-468 1986,-858l0 3710c-596,378 -1247,655 -1950,828 -706,176 -1597,265 -2673,265 -1242,0 -2355,-265 -3335,-791 -982,-528 -1755,-1345 -2317,-2451 -563,-1112 -844,-2535 -844,-4270 0,-1767 253,-3217 763,-4360 510,-1135 1221,-1978 2136,-2526 915,-549 1984,-826 3197,-826l0 1zm152 3511c-503,0 -923,182 -1264,536 -339,355 -534,922 -591,1681l3662 0c-7,-410 -79,-782 -219,-1120 -138,-335 -339,-601 -603,-799 -262,-196 -596,-298 -985,-298zm23343 16933l-3729 0 0 -5488 -11522 0 0 -14685 4260 0 0 10839 3955 0 0 -10839 4265 0 0 10839 2770 0 0 9336 1 -2zm6005 -14875l1409 0c1302,0 2322,179 3059,534 737,352 1261,863 1571,1533 308,667 460,1481 460,2437 0,978 -172,1829 -517,2563 -346,737 -923,1306 -1733,1709 -813,407 -1922,609 -3330,609l-5178 0 0 -14684 4260 0 0 5299 -1 0zm2239 4747c0,-430 -105,-771 -315,-1008 -207,-239 -620,-355 -1247,-355l-677 0 0 2622 720 0c524,0 906,-110 1149,-323 246,-223 370,-528 370,-935l0 -1zm15098 -10045l4706 0 -4620 7037 4983 7648 -4873 0 -4580 -7452 0 7452 -4260 0 0 -14685 4260 0 0 7118 4384 -7118zm12473 -271c1564,0 2785,459 3662,1381 880,924 1318,2234 1318,3938l0 9638 -2951 0 -818 -1975 -91 0c-346,528 -706,955 -1070,1287 -370,329 -789,574 -1261,728 -474,152 -1051,228 -1731,228 -715,0 -1357,-171 -1922,-518 -565,-346 -1013,-869 -1340,-1573 -327,-701 -491,-1591 -491,-2662 0,-1579 458,-2745 1373,-3508 915,-762 2243,-1196 3979,-1291l2062 -75 0 -199c0,-635 -138,-1085 -410,-1352 -272,-271 -637,-400 -1094,-400 -489,0 -1030,104 -1631,306 -598,208 -1202,473 -1805,803l-1230 -3407c708,-442 1516,-776 2417,-1005 901,-231 1914,-344 3032,-344l2 0zm741 8436l-982 50c-784,32 -1335,190 -1652,474 -317,279 -472,681 -472,1201 0,486 112,846 339,1077 222,227 520,340 892,340 517,0 956,-182 1326,-563 367,-378 551,-870 551,-1473l0 -1106 -2 0z"/>
  </g>
  <g>
   <path class="fil0 str0" d="M62878 50154c0,1227 -141,2318 -424,3269 -281,955 -691,1752 -1230,2402 -536,650 -1190,1141 -1953,1475 -761,332 -1626,499 -2584,499 -894,0 -1712,-167 -2458,-499 -744,-335 -1395,-825 -1945,-1475 -555,-649 -980,-1446 -1280,-2402 -303,-950 -455,-2042 -455,-3269 0,-1625 250,-3000 749,-4129 496,-1126 1209,-1980 2136,-2566 927,-592 2031,-884 3321,-884 1182,0 2239,292 3161,884 925,586 1645,1441 2174,2566 529,1129 789,2504 789,4129l-1 0zm-8001 0c0,826 62,1521 186,2088 122,563 319,995 596,1291 272,292 629,436 1070,436 443,0 796,-144 1059,-436 265,-295 453,-728 572,-1291 119,-566 179,-1262 179,-2088 0,-822 -60,-1513 -179,-2067 -119,-552 -312,-971 -577,-1250 -265,-280 -625,-424 -1075,-424 -648,0 -1113,317 -1399,947 -286,632 -432,1562 -432,2795l0 -1zm9922 -1527c0,-2137 234,-3976 703,-5520 470,-1548 1261,-2796 2382,-3745 1120,-953 2653,-1594 4599,-1926 656,-110 1378,-211 2169,-321 794,-104 1588,-193 2379,-273l401 4276c-367,37 -763,77 -1182,125 -417,37 -837,92 -1256,147 -422,59 -834,113 -1233,168 -398,52 -768,104 -1101,158 -1008,138 -1769,382 -2274,734 -503,353 -849,805 -1030,1366 -179,557 -296,1231 -336,2005l184 0c141,-324 355,-653 653,-985 298,-336 675,-615 1125,-841 448,-225 975,-337 1569,-337 915,0 1738,222 2465,658 725,439 1302,1127 1724,2070 420,935 632,2166 632,3682 0,1709 -267,3133 -803,4282 -532,1146 -1273,2009 -2222,2587 -949,578 -2048,866 -3288,866 -951,0 -1812,-202 -2577,-603 -768,-407 -1426,-996 -1976,-1775 -548,-783 -968,-1738 -1266,-2876 -296,-1140 -439,-2442 -439,-3917l-2 -5zm6475 5341c350,0 656,-107 923,-324 265,-217 474,-574 622,-1066 148,-490 224,-1140 224,-1952 0,-955 -119,-1744 -360,-2361 -234,-618 -653,-931 -1256,-931 -343,0 -672,115 -997,341 -324,225 -603,482 -834,771 -234,292 -391,543 -470,751 0,555 41,1114 119,1677 81,564 205,1083 372,1545 167,471 389,843 658,1128 274,280 608,419 999,419l0 2zm20990 3560l-4265 0 0 -10844 -2508 0c-153,2030 -339,3751 -563,5165 -219,1415 -517,2562 -884,3436 -372,878 -842,1513 -1414,1915 -570,401 -1280,601 -2134,601 -331,0 -677,-35 -1028,-113 -353,-73 -653,-171 -899,-283l0 -3843c143,87 293,150 448,188 157,31 329,46 510,46 184,0 350,-67 510,-203 160,-138 317,-413 465,-822 150,-415 291,-1025 422,-1825 129,-803 257,-1863 379,-3179 122,-1311 241,-2956 350,-4923l10609 0 0 14684 2 0zm2408 -2252c0,-933 229,-1588 682,-1967 455,-378 1001,-566 1640,-566 603,0 1130,188 1571,566 443,378 668,1033 668,1967 0,892 -224,1533 -668,1929 -441,396 -968,594 -1571,594 -639,0 -1185,-198 -1640,-594 -453,-396 -682,-1037 -682,-1929zm10945 -1695l155 301c-131,644 -303,1418 -508,2318 -207,901 -432,1804 -677,2716 -243,910 -489,1704 -737,2370l-3040 0c143,-828 286,-1698 424,-2613 136,-916 267,-1813 381,-2691 114,-881 205,-1684 272,-2403l3729 0 1 2z"/>
   <path id="1" class="fil1" d="M62878 50154c0,1227 -141,2318 -424,3269 -281,955 -691,1752 -1230,2402 -536,650 -1190,1141 -1953,1475 -761,332 -1626,499 -2584,499 -894,0 -1712,-167 -2458,-499 -744,-335 -1395,-825 -1945,-1475 -555,-649 -980,-1446 -1280,-2402 -303,-950 -455,-2042 -455,-3269 0,-1625 250,-3000 749,-4129 496,-1126 1209,-1980 2136,-2566 927,-592 2031,-884 3321,-884 1182,0 2239,292 3161,884 925,586 1645,1441 2174,2566 529,1129 789,2504 789,4129l-1 0zm-8001 0c0,826 62,1521 186,2088 122,563 319,995 596,1291 272,292 629,436 1070,436 443,0 796,-144 1059,-436 265,-295 453,-728 572,-1291 119,-566 179,-1262 179,-2088 0,-822 -60,-1513 -179,-2067 -119,-552 -312,-971 -577,-1250 -265,-280 -625,-424 -1075,-424 -648,0 -1113,317 -1399,947 -286,632 -432,1562 -432,2795l0 -1zm9922 -1527c0,-2137 234,-3976 703,-5520 470,-1548 1261,-2796 2382,-3745 1120,-953 2653,-1594 4599,-1926 656,-110 1378,-211 2169,-321 794,-104 1588,-193 2379,-273l401 4276c-367,37 -763,77 -1182,125 -417,37 -837,92 -1256,147 -422,59 -834,113 -1233,168 -398,52 -768,104 -1101,158 -1008,138 -1769,382 -2274,734 -503,353 -849,805 -1030,1366 -179,557 -296,1231 -336,2005l184 0c141,-324 355,-653 653,-985 298,-336 675,-615 1125,-841 448,-225 975,-337 1569,-337 915,0 1738,222 2465,658 725,439 1302,1127 1724,2070 420,935 632,2166 632,3682 0,1709 -267,3133 -803,4282 -532,1146 -1273,2009 -2222,2587 -949,578 -2048,866 -3288,866 -951,0 -1812,-202 -2577,-603 -768,-407 -1426,-996 -1976,-1775 -548,-783 -968,-1738 -1266,-2876 -296,-1140 -439,-2442 -439,-3917l-2 -5zm6475 5341c350,0 656,-107 923,-324 265,-217 474,-574 622,-1066 148,-490 224,-1140 224,-1952 0,-955 -119,-1744 -360,-2361 -234,-618 -653,-931 -1256,-931 -343,0 -672,115 -997,341 -324,225 -603,482 -834,771 -234,292 -391,543 -470,751 0,555 41,1114 119,1677 81,564 205,1083 372,1545 167,471 389,843 658,1128 274,280 608,419 999,419l0 2zm20990 3560l-4265 0 0 -10844 -2508 0c-153,2030 -339,3751 -563,5165 -219,1415 -517,2562 -884,3436 -372,878 -842,1513 -1414,1915 -570,401 -1280,601 -2134,601 -331,0 -677,-35 -1028,-113 -353,-73 -653,-171 -899,-283l0 -3843c143,87 293,150 448,188 157,31 329,46 510,46 184,0 350,-67 510,-203 160,-138 317,-413 465,-822 150,-415 291,-1025 422,-1825 129,-803 257,-1863 379,-3179 122,-1311 241,-2956 350,-4923l10609 0 0 14684 2 0zm2408 -2252c0,-933 229,-1588 682,-1967 455,-378 1001,-566 1640,-566 603,0 1130,188 1571,566 443,378 668,1033 668,1967 0,892 -224,1533 -668,1929 -441,396 -968,594 -1571,594 -639,0 -1185,-198 -1640,-594 -453,-396 -682,-1037 -682,-1929zm10945 -1695l155 301c-131,644 -303,1418 -508,2318 -207,901 -432,1804 -677,2716 -243,910 -489,1704 -737,2370l-3040 0c143,-828 286,-1698 424,-2613 136,-916 267,-1813 381,-2691 114,-881 205,-1684 272,-2403l3729 0 1 2z"/>
  </g>
  <g>
   <path class="fil0 str0" d="M16601 91844l-4327 0 0 -7871 -5006 0 0 7871 -4327 0 0 -19310 4327 0 0 7164 5006 0 0 -7164 4327 0 0 19310zm14993 -7374c0,1224 -143,2315 -427,3269 -281,955 -691,1752 -1230,2399 -536,649 -1187,1143 -1950,1475 -763,335 -1626,499 -2587,499 -894,0 -1712,-165 -2456,-499 -746,-332 -1397,-826 -1948,-1475 -553,-647 -980,-1444 -1280,-2399 -300,-954 -453,-2045 -453,-3269 0,-1629 248,-3002 749,-4129 493,-1126 1209,-1984 2134,-2571 927,-592 2034,-884 3321,-884 1182,0 2241,292 3164,884 923,587 1645,1445 2174,2571 527,1127 789,2501 789,4129zm-8003 0c0,822 64,1518 186,2084 124,566 319,999 596,1291 272,294 629,436 1073,436 441,0 796,-142 1056,-436 265,-292 455,-724 575,-1291 117,-566 176,-1262 176,-2084 0,-826 -60,-1516 -176,-2070 -119,-549 -315,-968 -577,-1247 -265,-280 -627,-424 -1078,-424 -646,0 -1113,315 -1399,947 -286,630 -432,1558 -432,2795l0 -1zm21871 -3534c0,765 -191,1446 -582,2044 -389,601 -982,976 -1783,1129l0 106c877,122 1554,482 2031,1089 477,603 715,1375 715,2322 0,739 -164,1427 -496,2070 -331,640 -915,1160 -1747,1556 -837,392 -2010,592 -3521,592l-6051 0 0 -14685 6070 0c1242,0 2258,144 3047,430 789,288 1373,713 1750,1277 379,566 567,1254 567,2070zm-3957 6185c0,-370 -105,-672 -310,-907 -207,-232 -610,-347 -1206,-347l-1700 0 0 2596 1657 0c560,0 958,-127 1202,-376 238,-248 358,-571 358,-967l-1 1zm-284 -5495c0,-358 -100,-626 -305,-811 -205,-188 -498,-278 -882,-278l-1745 0 0 2080 1593 0c451,0 784,-92 1008,-280 219,-188 331,-421 331,-710l0 -1zm18643 2844c0,1224 -143,2315 -427,3269 -281,955 -691,1752 -1230,2399 -536,649 -1187,1143 -1950,1475 -763,335 -1626,499 -2587,499 -894,0 -1712,-165 -2456,-499 -746,-332 -1397,-826 -1948,-1475 -553,-647 -980,-1444 -1280,-2399 -300,-954 -453,-2045 -453,-3269 0,-1629 248,-3002 749,-4129 493,-1126 1209,-1984 2134,-2571 927,-592 2034,-884 3321,-884 1182,0 2241,292 3164,884 923,587 1645,1445 2174,2571 527,1127 789,2501 789,4129zm-8003 0c0,822 64,1518 186,2084 124,566 319,999 596,1291 272,294 629,436 1073,436 441,0 796,-142 1056,-436 265,-292 455,-724 575,-1291 117,-566 176,-1262 176,-2084 0,-826 -60,-1516 -176,-2070 -119,-549 -315,-968 -577,-1247 -265,-280 -627,-424 -1078,-424 -646,0 -1113,315 -1399,947 -286,630 -432,1558 -432,2795l0 -1zm16059 7643c-1249,0 -2336,-265 -3259,-797 -923,-532 -1638,-1356 -2141,-2466 -505,-1111 -758,-2538 -758,-4276 0,-1788 281,-3242 844,-4377 563,-1132 1337,-1968 2320,-2502 977,-536 2091,-809 3333,-809 756,0 1476,98 2155,303 677,202 1311,482 1891,832l-1254 3821c-510,-274 -982,-494 -1421,-655 -441,-168 -896,-249 -1371,-249 -427,0 -808,136 -1135,399 -327,260 -579,659 -763,1189 -184,532 -272,1204 -272,2018 0,828 93,1501 279,2009 186,511 443,880 775,1112 331,225 710,340 1140,340 617,0 1230,-115 1850,-349 613,-236 1194,-557 1747,-970l0 4106c-510,404 -1082,724 -1721,964 -641,239 -1385,355 -2239,355l0 2zm11973 -15226c1199,0 2234,249 3109,748 870,496 1545,1242 2017,2235 472,999 708,2241 708,3739l0 2257 -7623 0c36,753 280,1369 726,1851 446,482 1106,722 1979,722 772,0 1478,-90 2122,-274 641,-185 1306,-471 1988,-858l0 3710c-596,378 -1247,653 -1950,828 -708,176 -1597,266 -2673,266 -1242,0 -2356,-266 -3336,-795 -982,-526 -1755,-1343 -2317,-2451 -563,-1108 -846,-2533 -846,-4268 0,-1767 253,-3219 763,-4360 510,-1135 1223,-1979 2136,-2527 918,-551 1987,-826 3198,-826l-1 3zm155 3512c-503,0 -925,182 -1264,537 -339,355 -537,918 -592,1681l3663 0c-7,-411 -79,-785 -219,-1123 -138,-332 -339,-597 -603,-797 -265,-196 -596,-298 -985,-298zm20486 11445l-4265 0 0 -10844 -2508 0c-153,2027 -339,3747 -563,5165 -219,1415 -517,2562 -884,3434 -372,878 -842,1516 -1416,1917 -567,401 -1278,597 -2131,597 -331,0 -677,-35 -1028,-113 -353,-72 -653,-170 -901,-283l0 -3840c145,87 296,150 451,185 157,31 329,50 510,50 181,0 350,-67 510,-203 160,-138 317,-415 465,-826 150,-413 291,-1022 422,-1825 129,-803 255,-1862 379,-3179 122,-1310 241,-2956 348,-4920l10611 0 0 14685zm6833 -14685l0 5715c0,302 -2,617 -14,941 -10,325 -26,646 -45,964 -17,321 -33,632 -52,935 -17,300 -36,580 -50,840l4666 -9397 4646 0 0 14686 -3884 0 0 -5316c0,-459 10,-932 19,-1423 12,-496 26,-972 48,-1437 24,-468 52,-893 86,-1273l-4706 9450 -4601 0 0 -14685 3888 0 -1 0zm27347 20174l-3729 0 0 -5489 -11522 0 0 -14685 4260 0 0 10840 3957 0 0 -10840 4265 0 0 10840 2768 0 0 9335 1 -1zm4516 -5489l-4515 0 3171 -5572c-374,-251 -720,-578 -1032,-982 -315,-401 -563,-884 -753,-1456 -188,-574 -281,-1227 -281,-1972 0,-1554 484,-2726 1447,-3519 968,-790 2284,-1184 3948,-1184l5898 0 0 14685 -4265 0 0 -5084 -1254 0 -2363 5084 -1 0zm848 -9822c0,347 112,664 339,939 226,277 634,419 1221,419l1209 0 0 -2841 -1230 0c-544,0 -939,144 -1178,438 -241,288 -360,641 -360,1045l-1 0zm13935 5873l153 303c-131,644 -303,1414 -508,2315 -207,901 -432,1807 -677,2717 -241,912 -489,1706 -737,2373l-3040 0c145,-832 286,-1700 424,-2616 136,-915 267,-1810 381,-2691 117,-878 205,-1681 272,-2402l3731 0 1 1z"/>
   <path id="1" class="fil1" d="M16601 91844l-4327 0 0 -7871 -5006 0 0 7871 -4327 0 0 -19310 4327 0 0 7164 5006 0 0 -7164 4327 0 0 19310zm14993 -7374c0,1224 -143,2315 -427,3269 -281,955 -691,1752 -1230,2399 -536,649 -1187,1143 -1950,1475 -763,335 -1626,499 -2587,499 -894,0 -1712,-165 -2456,-499 -746,-332 -1397,-826 -1948,-1475 -553,-647 -980,-1444 -1280,-2399 -300,-954 -453,-2045 -453,-3269 0,-1629 248,-3002 749,-4129 493,-1126 1209,-1984 2134,-2571 927,-592 2034,-884 3321,-884 1182,0 2241,292 3164,884 923,587 1645,1445 2174,2571 527,1127 789,2501 789,4129zm-8003 0c0,822 64,1518 186,2084 124,566 319,999 596,1291 272,294 629,436 1073,436 441,0 796,-142 1056,-436 265,-292 455,-724 575,-1291 117,-566 176,-1262 176,-2084 0,-826 -60,-1516 -176,-2070 -119,-549 -315,-968 -577,-1247 -265,-280 -627,-424 -1078,-424 -646,0 -1113,315 -1399,947 -286,630 -432,1558 -432,2795l0 -1zm21871 -3534c0,765 -191,1446 -582,2044 -389,601 -982,976 -1783,1129l0 106c877,122 1554,482 2031,1089 477,603 715,1375 715,2322 0,739 -164,1427 -496,2070 -331,640 -915,1160 -1747,1556 -837,392 -2010,592 -3521,592l-6051 0 0 -14685 6070 0c1242,0 2258,144 3047,430 789,288 1373,713 1750,1277 379,566 567,1254 567,2070zm-3957 6185c0,-370 -105,-672 -310,-907 -207,-232 -610,-347 -1206,-347l-1700 0 0 2596 1657 0c560,0 958,-127 1202,-376 238,-248 358,-571 358,-967l-1 1zm-284 -5495c0,-358 -100,-626 -305,-811 -205,-188 -498,-278 -882,-278l-1745 0 0 2080 1593 0c451,0 784,-92 1008,-280 219,-188 331,-421 331,-710l0 -1zm18643 2844c0,1224 -143,2315 -427,3269 -281,955 -691,1752 -1230,2399 -536,649 -1187,1143 -1950,1475 -763,335 -1626,499 -2587,499 -894,0 -1712,-165 -2456,-499 -746,-332 -1397,-826 -1948,-1475 -553,-647 -980,-1444 -1280,-2399 -300,-954 -453,-2045 -453,-3269 0,-1629 248,-3002 749,-4129 493,-1126 1209,-1984 2134,-2571 927,-592 2034,-884 3321,-884 1182,0 2241,292 3164,884 923,587 1645,1445 2174,2571 527,1127 789,2501 789,4129zm-8003 0c0,822 64,1518 186,2084 124,566 319,999 596,1291 272,294 629,436 1073,436 441,0 796,-142 1056,-436 265,-292 455,-724 575,-1291 117,-566 176,-1262 176,-2084 0,-826 -60,-1516 -176,-2070 -119,-549 -315,-968 -577,-1247 -265,-280 -627,-424 -1078,-424 -646,0 -1113,315 -1399,947 -286,630 -432,1558 -432,2795l0 -1zm16059 7643c-1249,0 -2336,-265 -3259,-797 -923,-532 -1638,-1356 -2141,-2466 -505,-1111 -758,-2538 -758,-4276 0,-1788 281,-3242 844,-4377 563,-1132 1337,-1968 2320,-2502 977,-536 2091,-809 3333,-809 756,0 1476,98 2155,303 677,202 1311,482 1891,832l-1254 3821c-510,-274 -982,-494 -1421,-655 -441,-168 -896,-249 -1371,-249 -427,0 -808,136 -1135,399 -327,260 -579,659 -763,1189 -184,532 -272,1204 -272,2018 0,828 93,1501 279,2009 186,511 443,880 775,1112 331,225 710,340 1140,340 617,0 1230,-115 1850,-349 613,-236 1194,-557 1747,-970l0 4106c-510,404 -1082,724 -1721,964 -641,239 -1385,355 -2239,355l0 2zm11973 -15226c1199,0 2234,249 3109,748 870,496 1545,1242 2017,2235 472,999 708,2241 708,3739l0 2257 -7623 0c36,753 280,1369 726,1851 446,482 1106,722 1979,722 772,0 1478,-90 2122,-274 641,-185 1306,-471 1988,-858l0 3710c-596,378 -1247,653 -1950,828 -708,176 -1597,266 -2673,266 -1242,0 -2356,-266 -3336,-795 -982,-526 -1755,-1343 -2317,-2451 -563,-1108 -846,-2533 -846,-4268 0,-1767 253,-3219 763,-4360 510,-1135 1223,-1979 2136,-2527 918,-551 1987,-826 3198,-826l-1 3zm155 3512c-503,0 -925,182 -1264,537 -339,355 -537,918 -592,1681l3663 0c-7,-411 -79,-785 -219,-1123 -138,-332 -339,-597 -603,-797 -265,-196 -596,-298 -985,-298zm20486 11445l-4265 0 0 -10844 -2508 0c-153,2027 -339,3747 -563,5165 -219,1415 -517,2562 -884,3434 -372,878 -842,1516 -1416,1917 -567,401 -1278,597 -2131,597 -331,0 -677,-35 -1028,-113 -353,-72 -653,-170 -901,-283l0 -3840c145,87 296,150 451,185 157,31 329,50 510,50 181,0 350,-67 510,-203 160,-138 317,-415 465,-826 150,-413 291,-1022 422,-1825 129,-803 255,-1862 379,-3179 122,-1310 241,-2956 348,-4920l10611 0 0 14685zm6833 -14685l0 5715c0,302 -2,617 -14,941 -10,325 -26,646 -45,964 -17,321 -33,632 -52,935 -17,300 -36,580 -50,840l4666 -9397 4646 0 0 14686 -3884 0 0 -5316c0,-459 10,-932 19,-1423 12,-496 26,-972 48,-1437 24,-468 52,-893 86,-1273l-4706 9450 -4601 0 0 -14685 3888 0 -1 0zm27347 20174l-3729 0 0 -5489 -11522 0 0 -14685 4260 0 0 10840 3957 0 0 -10840 4265 0 0 10840 2768 0 0 9335 1 -1zm4516 -5489l-4515 0 3171 -5572c-374,-251 -720,-578 -1032,-982 -315,-401 -563,-884 -753,-1456 -188,-574 -281,-1227 -281,-1972 0,-1554 484,-2726 1447,-3519 968,-790 2284,-1184 3948,-1184l5898 0 0 14685 -4265 0 0 -5084 -1254 0 -2363 5084 -1 0zm848 -9822c0,347 112,664 339,939 226,277 634,419 1221,419l1209 0 0 -2841 -1230 0c-544,0 -939,144 -1178,438 -241,288 -360,641 -360,1045l-1 0zm13935 5873l153 303c-131,644 -303,1414 -508,2315 -207,901 -432,1807 -677,2717 -241,912 -489,1706 -737,2373l-3040 0c145,-832 286,-1700 424,-2616 136,-915 267,-1810 381,-2691 117,-878 205,-1681 272,-2402l3731 0 1 1z"/>
  </g>
  <g>
   <path class="fil0 str0" d="M66532 115248c0,768 -193,1446 -584,2047 -386,601 -982,973 -1783,1126l0 111c880,121 1557,482 2034,1085 477,603 713,1374 713,2321 0,739 -162,1429 -493,2074 -331,640 -915,1158 -1750,1554 -837,392 -2010,592 -3521,592l-6051 0 0 -14685 6070 0c1244,0 2260,145 3049,434 789,288 1373,713 1747,1276 381,564 570,1254 570,2068l-1 -3zm-3960 6185c0,-369 -105,-672 -308,-907 -210,-227 -613,-346 -1206,-346l-1702 0 0 2595 1657 0c563,0 961,-124 1202,-373 238,-248 358,-574 358,-970l-1 1zm-281 -5494c0,-355 -103,-626 -305,-812 -205,-185 -501,-273 -882,-273l-1747 0 0 2079 1595 0c448,0 784,-96 1008,-280 219,-190 331,-424 331,-713l0 -1zm5352 -4467l4492 0 2096 8468c29,121 55,271 86,451 29,175 55,367 76,569 19,198 33,392 43,586l88 0c36,-355 79,-667 126,-933 45,-265 88,-475 134,-644l2148 -8497 4352 0 -4883 15704c-381,1198 -820,2203 -1314,3015 -501,811 -1113,1426 -1843,1839 -734,411 -1638,618 -2720,618 -396,0 -730,-23 -1008,-73 -284,-49 -524,-98 -737,-152l0 -4054c160,38 355,69 586,104 234,38 477,55 730,55 472,0 856,-113 1149,-332 296,-223 536,-511 727,-872 191,-361 353,-747 491,-1166l45 -130 -4863 -14555 -1 -1zm27511 14685l-4265 0 0 -10844 -2508 0c-153,2027 -339,3750 -563,5165 -219,1414 -517,2561 -887,3436 -372,878 -839,1512 -1414,1914 -567,401 -1280,601 -2131,601 -331,0 -677,-37 -1028,-113 -353,-72 -653,-173 -901,-285l0 -3841c145,88 296,150 451,188 157,29 329,46 510,46 181,0 350,-67 510,-202 160,-138 317,-413 465,-823 150,-415 291,-1024 422,-1827 129,-803 255,-1859 379,-3176 122,-1310 241,-2956 348,-4923l10611 0 0 14685 1 -1zm2407 -2255c0,-933 226,-1586 682,-1964 453,-377 1001,-569 1640,-569 603,0 1128,190 1571,569 443,378 668,1031 668,1964 0,895 -224,1533 -668,1931 -443,396 -968,595 -1571,595 -639,0 -1187,-199 -1640,-595 -455,-398 -682,-1036 -682,-1931z"/>
   <path id="1" class="fil1" d="M66532 115248c0,768 -193,1446 -584,2047 -386,601 -982,973 -1783,1126l0 111c880,121 1557,482 2034,1085 477,603 713,1374 713,2321 0,739 -162,1429 -493,2074 -331,640 -915,1158 -1750,1554 -837,392 -2010,592 -3521,592l-6051 0 0 -14685 6070 0c1244,0 2260,145 3049,434 789,288 1373,713 1747,1276 381,564 570,1254 570,2068l-1 -3zm-3960 6185c0,-369 -105,-672 -308,-907 -210,-227 -613,-346 -1206,-346l-1702 0 0 2595 1657 0c563,0 961,-124 1202,-373 238,-248 358,-574 358,-970l-1 1zm-281 -5494c0,-355 -103,-626 -305,-812 -205,-185 -501,-273 -882,-273l-1747 0 0 2079 1595 0c448,0 784,-96 1008,-280 219,-190 331,-424 331,-713l0 -1zm5352 -4467l4492 0 2096 8468c29,121 55,271 86,451 29,175 55,367 76,569 19,198 33,392 43,586l88 0c36,-355 79,-667 126,-933 45,-265 88,-475 134,-644l2148 -8497 4352 0 -4883 15704c-381,1198 -820,2203 -1314,3015 -501,811 -1113,1426 -1843,1839 -734,411 -1638,618 -2720,618 -396,0 -730,-23 -1008,-73 -284,-49 -524,-98 -737,-152l0 -4054c160,38 355,69 586,104 234,38 477,55 730,55 472,0 856,-113 1149,-332 296,-223 536,-511 727,-872 191,-361 353,-747 491,-1166l45 -130 -4863 -14555 -1 -1zm27511 14685l-4265 0 0 -10844 -2508 0c-153,2027 -339,3750 -563,5165 -219,1414 -517,2561 -887,3436 -372,878 -839,1512 -1414,1914 -567,401 -1280,601 -2131,601 -331,0 -677,-37 -1028,-113 -353,-72 -653,-173 -901,-285l0 -3841c145,88 296,150 451,188 157,29 329,46 510,46 181,0 350,-67 510,-202 160,-138 317,-413 465,-823 150,-415 291,-1024 422,-1827 129,-803 255,-1859 379,-3176 122,-1310 241,-2956 348,-4923l10611 0 0 14685 1 -1zm2407 -2255c0,-933 226,-1586 682,-1964 453,-377 1001,-569 1640,-569 603,0 1128,190 1571,569 443,378 668,1031 668,1964 0,895 -224,1533 -668,1931 -443,396 -968,595 -1571,595 -639,0 -1187,-199 -1640,-595 -455,-398 -682,-1036 -682,-1931z"/>
  </g>
  <g>
   <path class="fil0 str0" d="M20056 156193l0 10282 -4198 0 0 -6002 -12235 0 0 -19310 4329 0 0 15031 4425 0 0 -15031 4332 0 0 15031 3347 0 0 -1zm7435 -10677c1197,0 2231,248 3106,747 870,497 1545,1239 2017,2235 472,995 708,2240 708,3738l0 2255 -7622 0c36,754 279,1371 725,1854 446,482 1106,722 1979,722 772,0 1478,-89 2122,-274 641,-185 1306,-471 1988,-857l0 3710c-596,377 -1247,652 -1950,828 -708,176 -1597,265 -2673,265 -1242,0 -2355,-265 -3335,-794 -982,-526 -1755,-1343 -2317,-2452 -563,-1108 -844,-2532 -844,-4267 0,-1767 253,-3219 763,-4360 510,-1135 1221,-1978 2136,-2527 915,-551 1984,-826 3197,-826l0 3zm153 3511c-503,0 -923,181 -1264,536 -339,355 -534,918 -591,1681l3662 0c-7,-410 -79,-785 -219,-1122 -138,-332 -339,-597 -603,-797 -262,-199 -596,-298 -985,-298zm12352 -3240l0 5217 3378 0 0 -5217 4265 0 0 14685 -4265 0 0 -5627 -3378 0 0 5627 -4260 0 0 -14685 4260 0zm22047 3840l-4070 0 0 10845 -4265 0 0 -10845 -4062 0 0 -3840 12397 0 0 3840zm9548 -4111c1366,0 2439,647 3216,1952 777,1302 1168,3176 1168,5627 0,1669 -198,3075 -591,4210 -391,1143 -927,1998 -1607,2576 -677,571 -1452,859 -2317,859 -582,0 -1073,-89 -1476,-265 -405,-175 -741,-392 -1006,-659 -262,-265 -486,-531 -670,-805l-129 0c36,340 67,710 93,1103 26,393 36,858 36,1381l0 5440 -4260 0 0 -21147 3464 0 601 1892 195 0c205,-381 451,-742 741,-1071 291,-335 648,-594 1063,-794 417,-199 913,-298 1478,-298l1 -1zm-1602 4051c-415,0 -741,119 -980,349 -243,225 -412,571 -522,1036 -103,459 -162,1037 -179,1721l0 396c0,762 52,1406 155,1930 98,519 274,915 522,1180 248,269 589,401 1025,401 358,0 656,-115 892,-355 243,-239 424,-611 548,-1132 122,-517 186,-1204 186,-2050 0,-1262 -141,-2160 -420,-2685 -279,-526 -689,-791 -1228,-791l1 0zm14446 -4051c1564,0 2785,459 3664,1377 877,924 1316,2238 1316,3941l0 9638 -2951 0 -818 -1976 -91 0c-346,526 -706,956 -1070,1288 -370,329 -789,571 -1261,724 -474,156 -1051,231 -1731,231 -715,0 -1357,-171 -1922,-517 -565,-346 -1013,-872 -1341,-1573 -327,-705 -491,-1592 -491,-2665 0,-1576 458,-2745 1374,-3504 915,-762 2243,-1196 3979,-1291l2062 -76 0 -198c0,-635 -138,-1085 -410,-1352 -272,-271 -637,-401 -1094,-401 -486,0 -1030,105 -1628,307 -601,208 -1204,473 -1807,803l-1230 -3407c708,-442 1516,-776 2417,-1008 901,-227 1914,-340 3032,-340l1 -1zm741 8436l-982 50c-784,31 -1335,190 -1652,473 -317,280 -472,682 -472,1198 0,488 112,849 339,1081 222,227 520,340 892,340 517,0 956,-185 1326,-563 370,-378 551,-870 551,-1473l0 -1106 -2 0zm19540 6520l-4265 0 0 -10845 -2508 0c-153,2028 -339,3748 -563,5166 -219,1414 -517,2558 -887,3433 -372,878 -839,1516 -1414,1915 -567,404 -1280,601 -2131,601 -331,0 -677,-35 -1028,-113 -353,-73 -656,-171 -901,-283l0 -3841c145,87 296,148 451,186 157,31 329,49 510,49 181,0 350,-66 510,-202 160,-142 315,-415 465,-826 148,-413 288,-1022 420,-1825 131,-803 257,-1863 379,-3179 124,-1311 243,-2956 350,-4920l10611 0 0 14685 1 -1zm7204 -9386l1407 0c1304,0 2322,175 3061,534 737,349 1261,863 1569,1531 310,667 463,1483 463,2440 0,978 -172,1827 -517,2564 -346,736 -923,1302 -1733,1709 -813,404 -1922,609 -3333,609l-5176 0 0 -14685 4260 0 0 5299 -1 -1zm2239 4746c0,-434 -105,-772 -315,-1008 -207,-240 -620,-358 -1247,-358l-677 0 0 2624 718 0c527,0 908,-110 1151,-326 246,-219 370,-525 370,-932zm10714 -10045l0 5217 3378 0 0 -5217 4265 0 0 14685 -4265 0 0 -5627 -3378 0 0 5627 -4263 0 0 -14685 4263 0zm16617 -271c1562,0 2782,459 3662,1377 877,924 1316,2238 1316,3941l0 9638 -2951 0 -818 -1976 -91 0c-346,526 -706,956 -1070,1288 -370,329 -789,571 -1261,724 -474,156 -1051,231 -1731,231 -715,0 -1357,-171 -1922,-517 -565,-346 -1011,-872 -1340,-1573 -327,-705 -491,-1592 -491,-2665 0,-1576 458,-2745 1373,-3504 915,-762 2246,-1196 3979,-1291l2062 -76 0 -198c0,-635 -138,-1085 -410,-1352 -272,-271 -637,-401 -1094,-401 -486,0 -1030,105 -1628,307 -601,208 -1204,473 -1805,803l-1233 -3407c710,-442 1519,-776 2417,-1008 901,-227 1914,-340 3035,-340l1 -1zm739 8436l-982 50c-784,31 -1335,190 -1652,473 -317,280 -472,682 -472,1198 0,488 112,849 339,1081 224,227 522,340 894,340 515,0 956,-185 1323,-563 370,-378 551,-870 551,-1473l0 -1106 -1 0zm11100 2570l153 303c-131,644 -303,1415 -508,2316 -207,901 -432,1807 -677,2716 -241,912 -489,1704 -737,2370l-3040 0c145,-828 286,-1698 424,-2613 136,-916 267,-1813 381,-2691 117,-878 205,-1681 272,-2403l3731 0 1 2z"/>
   <path id="1" class="fil1" d="M20056 156193l0 10282 -4198 0 0 -6002 -12235 0 0 -19310 4329 0 0 15031 4425 0 0 -15031 4332 0 0 15031 3347 0 0 -1zm7435 -10677c1197,0 2231,248 3106,747 870,497 1545,1239 2017,2235 472,995 708,2240 708,3738l0 2255 -7622 0c36,754 279,1371 725,1854 446,482 1106,722 1979,722 772,0 1478,-89 2122,-274 641,-185 1306,-471 1988,-857l0 3710c-596,377 -1247,652 -1950,828 -708,176 -1597,265 -2673,265 -1242,0 -2355,-265 -3335,-794 -982,-526 -1755,-1343 -2317,-2452 -563,-1108 -844,-2532 -844,-4267 0,-1767 253,-3219 763,-4360 510,-1135 1221,-1978 2136,-2527 915,-551 1984,-826 3197,-826l0 3zm153 3511c-503,0 -923,181 -1264,536 -339,355 -534,918 -591,1681l3662 0c-7,-410 -79,-785 -219,-1122 -138,-332 -339,-597 -603,-797 -262,-199 -596,-298 -985,-298zm12352 -3240l0 5217 3378 0 0 -5217 4265 0 0 14685 -4265 0 0 -5627 -3378 0 0 5627 -4260 0 0 -14685 4260 0zm22047 3840l-4070 0 0 10845 -4265 0 0 -10845 -4062 0 0 -3840 12397 0 0 3840zm9548 -4111c1366,0 2439,647 3216,1952 777,1302 1168,3176 1168,5627 0,1669 -198,3075 -591,4210 -391,1143 -927,1998 -1607,2576 -677,571 -1452,859 -2317,859 -582,0 -1073,-89 -1476,-265 -405,-175 -741,-392 -1006,-659 -262,-265 -486,-531 -670,-805l-129 0c36,340 67,710 93,1103 26,393 36,858 36,1381l0 5440 -4260 0 0 -21147 3464 0 601 1892 195 0c205,-381 451,-742 741,-1071 291,-335 648,-594 1063,-794 417,-199 913,-298 1478,-298l1 -1zm-1602 4051c-415,0 -741,119 -980,349 -243,225 -412,571 -522,1036 -103,459 -162,1037 -179,1721l0 396c0,762 52,1406 155,1930 98,519 274,915 522,1180 248,269 589,401 1025,401 358,0 656,-115 892,-355 243,-239 424,-611 548,-1132 122,-517 186,-1204 186,-2050 0,-1262 -141,-2160 -420,-2685 -279,-526 -689,-791 -1228,-791l1 0zm14446 -4051c1564,0 2785,459 3664,1377 877,924 1316,2238 1316,3941l0 9638 -2951 0 -818 -1976 -91 0c-346,526 -706,956 -1070,1288 -370,329 -789,571 -1261,724 -474,156 -1051,231 -1731,231 -715,0 -1357,-171 -1922,-517 -565,-346 -1013,-872 -1341,-1573 -327,-705 -491,-1592 -491,-2665 0,-1576 458,-2745 1374,-3504 915,-762 2243,-1196 3979,-1291l2062 -76 0 -198c0,-635 -138,-1085 -410,-1352 -272,-271 -637,-401 -1094,-401 -486,0 -1030,105 -1628,307 -601,208 -1204,473 -1807,803l-1230 -3407c708,-442 1516,-776 2417,-1008 901,-227 1914,-340 3032,-340l1 -1zm741 8436l-982 50c-784,31 -1335,190 -1652,473 -317,280 -472,682 -472,1198 0,488 112,849 339,1081 222,227 520,340 892,340 517,0 956,-185 1326,-563 370,-378 551,-870 551,-1473l0 -1106 -2 0zm19540 6520l-4265 0 0 -10845 -2508 0c-153,2028 -339,3748 -563,5166 -219,1414 -517,2558 -887,3433 -372,878 -839,1516 -1414,1915 -567,404 -1280,601 -2131,601 -331,0 -677,-35 -1028,-113 -353,-73 -656,-171 -901,-283l0 -3841c145,87 296,148 451,186 157,31 329,49 510,49 181,0 350,-66 510,-202 160,-142 315,-415 465,-826 148,-413 288,-1022 420,-1825 131,-803 257,-1863 379,-3179 124,-1311 243,-2956 350,-4920l10611 0 0 14685 1 -1zm7204 -9386l1407 0c1304,0 2322,175 3061,534 737,349 1261,863 1569,1531 310,667 463,1483 463,2440 0,978 -172,1827 -517,2564 -346,736 -923,1302 -1733,1709 -813,404 -1922,609 -3333,609l-5176 0 0 -14685 4260 0 0 5299 -1 -1zm2239 4746c0,-434 -105,-772 -315,-1008 -207,-240 -620,-358 -1247,-358l-677 0 0 2624 718 0c527,0 908,-110 1151,-326 246,-219 370,-525 370,-932zm10714 -10045l0 5217 3378 0 0 -5217 4265 0 0 14685 -4265 0 0 -5627 -3378 0 0 5627 -4263 0 0 -14685 4263 0zm16617 -271c1562,0 2782,459 3662,1377 877,924 1316,2238 1316,3941l0 9638 -2951 0 -818 -1976 -91 0c-346,526 -706,956 -1070,1288 -370,329 -789,571 -1261,724 -474,156 -1051,231 -1731,231 -715,0 -1357,-171 -1922,-517 -565,-346 -1011,-872 -1340,-1573 -327,-705 -491,-1592 -491,-2665 0,-1576 458,-2745 1373,-3504 915,-762 2246,-1196 3979,-1291l2062 -76 0 -198c0,-635 -138,-1085 -410,-1352 -272,-271 -637,-401 -1094,-401 -486,0 -1030,105 -1628,307 -601,208 -1204,473 -1805,803l-1233 -3407c710,-442 1519,-776 2417,-1008 901,-227 1914,-340 3035,-340l1 -1zm739 8436l-982 50c-784,31 -1335,190 -1652,473 -317,280 -472,682 -472,1198 0,488 112,849 339,1081 224,227 522,340 894,340 515,0 956,-185 1323,-563 370,-378 551,-870 551,-1473l0 -1106 -1 0zm11100 2570l153 303c-131,644 -303,1415 -508,2316 -207,901 -432,1807 -677,2716 -241,912 -489,1704 -737,2370l-3040 0c145,-828 286,-1698 424,-2613 136,-916 267,-1813 381,-2691 117,-878 205,-1681 272,-2403l3731 0 1 2z"/>
  </g>
  <g>
   <path class="fil0 str0" d="M65843 194784l-11567 0 0 -3436 3893 -4773c803,-1022 1433,-1842 1879,-2459 446,-618 763,-1144 942,-1580 181,-430 274,-880 274,-1345 0,-572 -150,-987 -455,-1245 -305,-257 -668,-384 -1080,-384 -503,0 -1008,171 -1523,519 -513,349 -1094,860 -1738,1542l-2367 -3358c482,-520 987,-1016 1526,-1484 541,-473 1173,-855 1910,-1155 734,-300 1628,-451 2680,-451 1085,0 2026,232 2823,691 794,456 1409,1085 1845,1885 439,797 656,1704 656,2717 0,1118 -169,2119 -508,2991 -339,881 -844,1759 -1521,2633 -675,878 -1519,1871 -2532,2983l-1163 1273 0 129 6029 0 0 4306 -3 1zm12553 -15132c0,915 -165,1708 -490,2376 -322,667 -751,1212 -1287,1637 -532,422 -1116,739 -1747,950l0 81c1271,193 2255,663 2951,1412 692,742 1043,1802 1043,3173 0,1060 -236,2030 -702,2908 -465,878 -1187,1581 -2169,2105 -982,528 -2241,788 -3783,788 -1032,0 -1912,-96 -2639,-280 -727,-185 -1430,-436 -2115,-762l0 -4330c691,427 1402,747 2131,955 730,208 1397,311 2000,311 1049,0 1764,-185 2143,-546 384,-367 572,-851 572,-1466 0,-445 -88,-820 -272,-1129 -181,-311 -517,-551 -1006,-722 -493,-167 -1197,-254 -2112,-254l-982 0 0 -3922 1006 0c811,0 1459,-89 1933,-265 477,-173 820,-419 1032,-724 207,-307 315,-659 315,-1054 0,-513 -162,-897 -491,-1146 -327,-248 -758,-369 -1297,-369 -482,0 -932,78 -1352,234 -424,164 -789,338 -1101,534 -312,194 -551,349 -710,473l-1788 -3485c663,-546 1418,-1010 2274,-1389 851,-378 1974,-569 3352,-569 1643,0 2935,398 3876,1189 942,799 1415,1892 1415,3286zm1853 9940l0 -4120 6160 0 0 4120 -6160 0zm18133 5192l-787 -3598 -5181 0 -803 3598 -4735 0 5200 -19310 5746 0 5269 19310 -4708 0 -1 0zm-1679 -7873l-689 -3156c-72,-344 -179,-829 -317,-1465 -136,-634 -274,-1291 -410,-1971 -134,-678 -236,-1239 -308,-1675 -67,436 -160,976 -279,1623 -119,644 -243,1279 -372,1908 -129,633 -236,1161 -331,1580l-684 3156 3390 0z"/>
   <path id="1" class="fil1" d="M65843 194784l-11567 0 0 -3436 3893 -4773c803,-1022 1433,-1842 1879,-2459 446,-618 763,-1144 942,-1580 181,-430 274,-880 274,-1345 0,-572 -150,-987 -455,-1245 -305,-257 -668,-384 -1080,-384 -503,0 -1008,171 -1523,519 -513,349 -1094,860 -1738,1542l-2367 -3358c482,-520 987,-1016 1526,-1484 541,-473 1173,-855 1910,-1155 734,-300 1628,-451 2680,-451 1085,0 2026,232 2823,691 794,456 1409,1085 1845,1885 439,797 656,1704 656,2717 0,1118 -169,2119 -508,2991 -339,881 -844,1759 -1521,2633 -675,878 -1519,1871 -2532,2983l-1163 1273 0 129 6029 0 0 4306 -3 1zm12553 -15132c0,915 -165,1708 -490,2376 -322,667 -751,1212 -1287,1637 -532,422 -1116,739 -1747,950l0 81c1271,193 2255,663 2951,1412 692,742 1043,1802 1043,3173 0,1060 -236,2030 -702,2908 -465,878 -1187,1581 -2169,2105 -982,528 -2241,788 -3783,788 -1032,0 -1912,-96 -2639,-280 -727,-185 -1430,-436 -2115,-762l0 -4330c691,427 1402,747 2131,955 730,208 1397,311 2000,311 1049,0 1764,-185 2143,-546 384,-367 572,-851 572,-1466 0,-445 -88,-820 -272,-1129 -181,-311 -517,-551 -1006,-722 -493,-167 -1197,-254 -2112,-254l-982 0 0 -3922 1006 0c811,0 1459,-89 1933,-265 477,-173 820,-419 1032,-724 207,-307 315,-659 315,-1054 0,-513 -162,-897 -491,-1146 -327,-248 -758,-369 -1297,-369 -482,0 -932,78 -1352,234 -424,164 -789,338 -1101,534 -312,194 -551,349 -710,473l-1788 -3485c663,-546 1418,-1010 2274,-1389 851,-378 1974,-569 3352,-569 1643,0 2935,398 3876,1189 942,799 1415,1892 1415,3286zm1853 9940l0 -4120 6160 0 0 4120 -6160 0zm18133 5192l-787 -3598 -5181 0 -803 3598 -4735 0 5200 -19310 5746 0 5269 19310 -4708 0 -1 0zm-1679 -7873l-689 -3156c-72,-344 -179,-829 -317,-1465 -136,-634 -274,-1291 -410,-1971 -134,-678 -236,-1239 -308,-1675 -67,436 -160,976 -279,1623 -119,644 -243,1279 -372,1908 -129,633 -236,1161 -331,1580l-684 3156 3390 0z"/>
  </g>
 </g>
</svg>
