<?xml version="1.0" encoding="UTF-8"?>
<!DOCTYPE svg PUBLIC "-//W3C//DTD SVG 1.1//EN" "http://www.w3.org/Graphics/SVG/1.1/DTD/svg11.dtd">
<!-- Creator: CorelDRAW X7 -->
<svg xmlns="http://www.w3.org/2000/svg" xml:space="preserve" width="17.7405mm" height="10.3724mm" version="1.1" style="shape-rendering:geometricPrecision; text-rendering:geometricPrecision; image-rendering:optimizeQuality; fill-rule:evenodd; clip-rule:evenodd"
viewBox="0 0 177406 103725"
 xmlns:xlink="http://www.w3.org/1999/xlink">
 <defs>
  <style type="text/css">
   <![CDATA[
    .str0 {stroke:#FEFEFE;stroke-width:5000.03;stroke-linecap:round;stroke-linejoin:round}
    .fil0 {fill:none;fill-rule:nonzero}
    .fil1 {fill:#005487;fill-rule:nonzero}
   ]]>
  </style>
 </defs>
 <g id="Слой_x0020_1">
  <metadata id="CorelCorpID_0Corel-Layer"/>
  <g>
   <path class="fil0 str0" d="M47726 23846l-4339 0 0 -7355c-982,418 -1871,720 -2667,907 -794,191 -1548,291 -2259,291 -1499,0 -2676,-466 -3528,-1389 -856,-925 -1282,-2239 -1282,-3935l0 -8415 4342 0 0 6633c0,891 140,1564 428,2025 286,455 798,687 1532,687 450,0 965,-75 1537,-227 574,-150 1206,-382 1898,-703l0 -8415 4339 0 0 19896 -1 0zm8747 -15411c1197,0 2233,255 3109,773 869,511 1543,1275 2016,2302 472,1027 707,2308 707,3853l0 2327 -7621 0c35,775 277,1411 725,1909 446,496 1104,742 1978,742 772,0 1479,-91 2124,-282 639,-191 1304,-485 1987,-883l0 3822c-596,390 -1248,675 -1951,854 -707,180 -1596,275 -2672,275 -1242,0 -2355,-275 -3335,-819 -982,-543 -1756,-1384 -2317,-2523 -563,-1146 -845,-2612 -845,-4400 0,-1821 253,-3315 763,-4492 510,-1170 1220,-2039 2135,-2607 916,-564 1985,-850 3197,-850l0 -1zm153 3619c-503,0 -922,186 -1262,553 -339,366 -537,946 -592,1732l3661 0c-7,-423 -78,-811 -220,-1159 -137,-343 -337,-617 -601,-822 -266,-203 -596,-305 -987,-305l1 1zm15634 -3619c1366,0 2437,670 3215,2012 778,1341 1169,3273 1169,5800 0,1719 -197,3169 -592,4340 -390,1175 -927,2055 -1608,2650 -676,589 -1450,889 -2315,889 -583,0 -1075,-94 -1477,-275 -406,-180 -741,-404 -1004,-677 -264,-275 -488,-548 -672,-833l-129 0c38,355 67,736 93,1141 27,404 35,880 35,1419l0 5605 -4260 0 0 -21791 3466 0 599 1950 195 0c206,-395 450,-766 743,-1107 288,-343 645,-611 1064,-816 417,-204 911,-307 1477,-307l1 0zm-1603 4176c-415,0 -741,122 -980,357 -242,232 -412,593 -521,1068 -104,473 -164,1068 -180,1777l0 407c0,786 53,1450 153,1989 102,534 277,941 526,1214 246,277 588,416 1024,416 357,0 654,-122 891,-368 244,-246 426,-632 548,-1164 124,-535 186,-1240 186,-2115 0,-1300 -142,-2225 -419,-2766 -279,-539 -690,-814 -1228,-814l0 -1zm12679 -3896l0 5376 3379 0 0 -5376 4265 0 0 15130 -4265 0 0 -5797 -3379 0 0 5797 -4262 0 0 -15130 4262 0zm14873 0l0 15130 -4266 0 0 -15130 4266 0zm-2113 -6215c610,0 1142,163 1594,479 455,316 681,946 681,1890 0,916 -226,1538 -681,1859 -452,318 -984,482 -1594,482 -628,0 -1162,-164 -1601,-482 -439,-321 -661,-943 -661,-1859 0,-944 222,-1575 661,-1890 439,-316 973,-479 1601,-479zm16525 10108c0,789 -193,1489 -583,2106 -388,620 -982,1004 -1783,1162l0 111c878,124 1554,498 2033,1120 475,623 714,1417 714,2391 0,764 -164,1473 -497,2137 -330,661 -914,1195 -1749,1602 -836,405 -2009,609 -3519,609l-6051 0 0 -15130 6069 0c1244,0 2259,150 3049,446 789,295 1373,733 1749,1314 379,581 568,1291 568,2134l0 -2zm-3958 6370c0,-379 -106,-691 -310,-932 -208,-239 -610,-357 -1206,-357l-1701 0 0 2673 1656 0c563,0 960,-127 1202,-384 239,-255 359,-590 359,-999l0 -1zm-283 -5661c0,-365 -102,-645 -306,-836 -204,-191 -499,-282 -880,-282l-1747 0 0 2142 1594 0c450,0 785,-100 1009,-291 220,-194 330,-435 330,-734l0 1zm22098 16187l-3727 0 0 -5658 -11524 0 0 -15130 4262 0 0 11168 3956 0 0 -11168 4266 0 0 11168 2767 0 0 9622 0 -2zm6031 -20789l0 15130 -4266 0 0 -15130 4266 0zm-2113 -6215c610,0 1142,163 1594,479 455,316 681,946 681,1890 0,916 -226,1538 -681,1859 -452,318 -984,482 -1594,482 -628,0 -1162,-164 -1601,-482 -439,-321 -661,-943 -661,-1859 0,-944 222,-1575 661,-1890 439,-316 973,-479 1601,-479zm9046 17278l153 309c-131,664 -302,1459 -508,2389 -208,930 -430,1862 -676,2800 -242,939 -488,1757 -738,2444l-3040 0c146,-855 286,-1752 426,-2696 135,-941 266,-1864 381,-2773 115,-904 206,-1732 273,-2473l3730 0 -1 0z"/>
   <path id="1" class="fil1" d="M47726 23846l-4339 0 0 -7355c-982,418 -1871,720 -2667,907 -794,191 -1548,291 -2259,291 -1499,0 -2676,-466 -3528,-1389 -856,-925 -1282,-2239 -1282,-3935l0 -8415 4342 0 0 6633c0,891 140,1564 428,2025 286,455 798,687 1532,687 450,0 965,-75 1537,-227 574,-150 1206,-382 1898,-703l0 -8415 4339 0 0 19896 -1 0zm8747 -15411c1197,0 2233,255 3109,773 869,511 1543,1275 2016,2302 472,1027 707,2308 707,3853l0 2327 -7621 0c35,775 277,1411 725,1909 446,496 1104,742 1978,742 772,0 1479,-91 2124,-282 639,-191 1304,-485 1987,-883l0 3822c-596,390 -1248,675 -1951,854 -707,180 -1596,275 -2672,275 -1242,0 -2355,-275 -3335,-819 -982,-543 -1756,-1384 -2317,-2523 -563,-1146 -845,-2612 -845,-4400 0,-1821 253,-3315 763,-4492 510,-1170 1220,-2039 2135,-2607 916,-564 1985,-850 3197,-850l0 -1zm153 3619c-503,0 -922,186 -1262,553 -339,366 -537,946 -592,1732l3661 0c-7,-423 -78,-811 -220,-1159 -137,-343 -337,-617 -601,-822 -266,-203 -596,-305 -987,-305l1 1zm15634 -3619c1366,0 2437,670 3215,2012 778,1341 1169,3273 1169,5800 0,1719 -197,3169 -592,4340 -390,1175 -927,2055 -1608,2650 -676,589 -1450,889 -2315,889 -583,0 -1075,-94 -1477,-275 -406,-180 -741,-404 -1004,-677 -264,-275 -488,-548 -672,-833l-129 0c38,355 67,736 93,1141 27,404 35,880 35,1419l0 5605 -4260 0 0 -21791 3466 0 599 1950 195 0c206,-395 450,-766 743,-1107 288,-343 645,-611 1064,-816 417,-204 911,-307 1477,-307l1 0zm-1603 4176c-415,0 -741,122 -980,357 -242,232 -412,593 -521,1068 -104,473 -164,1068 -180,1777l0 407c0,786 53,1450 153,1989 102,534 277,941 526,1214 246,277 588,416 1024,416 357,0 654,-122 891,-368 244,-246 426,-632 548,-1164 124,-535 186,-1240 186,-2115 0,-1300 -142,-2225 -419,-2766 -279,-539 -690,-814 -1228,-814l0 -1zm12679 -3896l0 5376 3379 0 0 -5376 4265 0 0 15130 -4265 0 0 -5797 -3379 0 0 5797 -4262 0 0 -15130 4262 0zm14873 0l0 15130 -4266 0 0 -15130 4266 0zm-2113 -6215c610,0 1142,163 1594,479 455,316 681,946 681,1890 0,916 -226,1538 -681,1859 -452,318 -984,482 -1594,482 -628,0 -1162,-164 -1601,-482 -439,-321 -661,-943 -661,-1859 0,-944 222,-1575 661,-1890 439,-316 973,-479 1601,-479zm16525 10108c0,789 -193,1489 -583,2106 -388,620 -982,1004 -1783,1162l0 111c878,124 1554,498 2033,1120 475,623 714,1417 714,2391 0,764 -164,1473 -497,2137 -330,661 -914,1195 -1749,1602 -836,405 -2009,609 -3519,609l-6051 0 0 -15130 6069 0c1244,0 2259,150 3049,446 789,295 1373,733 1749,1314 379,581 568,1291 568,2134l0 -2zm-3958 6370c0,-379 -106,-691 -310,-932 -208,-239 -610,-357 -1206,-357l-1701 0 0 2673 1656 0c563,0 960,-127 1202,-384 239,-255 359,-590 359,-999l0 -1zm-283 -5661c0,-365 -102,-645 -306,-836 -204,-191 -499,-282 -880,-282l-1747 0 0 2142 1594 0c450,0 785,-100 1009,-291 220,-194 330,-435 330,-734l0 1zm22098 16187l-3727 0 0 -5658 -11524 0 0 -15130 4262 0 0 11168 3956 0 0 -11168 4266 0 0 11168 2767 0 0 9622 0 -2zm6031 -20789l0 15130 -4266 0 0 -15130 4266 0zm-2113 -6215c610,0 1142,163 1594,479 455,316 681,946 681,1890 0,916 -226,1538 -681,1859 -452,318 -984,482 -1594,482 -628,0 -1162,-164 -1601,-482 -439,-321 -661,-943 -661,-1859 0,-944 222,-1575 661,-1890 439,-316 973,-479 1601,-479zm9046 17278l153 309c-131,664 -302,1459 -508,2389 -208,930 -430,1862 -676,2800 -242,939 -488,1757 -738,2444l-3040 0c146,-855 286,-1752 426,-2696 135,-941 266,-1864 381,-2773 115,-904 206,-1732 273,-2473l3730 0 -1 0z"/>
  </g>
  <g>
   <path class="fil0 str0" d="M13936 47967c0,788 -193,1488 -585,2105 -386,620 -982,1004 -1783,1162l0 111c878,125 1557,498 2033,1120 477,623 714,1417 714,2391 0,762 -164,1473 -494,2137 -333,661 -916,1195 -1749,1602 -838,405 -2011,609 -3521,609l-6051 0 0 -15130 6071 0c1242,0 2257,150 3047,446 789,295 1373,733 1749,1314 379,581 570,1291 570,2134l-1 -1zm-3961 6369c0,-379 -104,-691 -308,-932 -211,-239 -612,-357 -1206,-357l-1701 0 0 2673 1656 0c561,0 958,-127 1202,-384 237,-255 357,-589 357,-999l0 -1zm-283 -5661c0,-365 -100,-645 -304,-836 -206,-191 -499,-282 -883,-282l-1745 0 0 2142 1592 0c450,0 785,-100 1009,-291 220,-194 330,-437 330,-734l1 1zm5352 -4602l4492 0 2095 8727c29,125 55,277 86,462 29,182 53,376 78,586 18,205 33,404 40,603l89 0c38,-366 80,-687 129,-960 44,-274 89,-493 133,-664l2146 -8755 4353 0 -4885 16179c-379,1237 -818,2272 -1313,3108 -499,838 -1113,1469 -1843,1895 -732,423 -1639,637 -2721,637 -395,0 -730,-23 -1009,-75 -282,-50 -523,-102 -736,-157l0 -4176c160,39 357,69 588,107 235,37 477,55 730,55 472,0 856,-116 1151,-343 293,-227 534,-525 725,-896 191,-371 355,-772 490,-1204l47 -136 -4865 -14996 0 3zm27511 15131l-4264 0 0 -11174 -2510 0c-151,2089 -337,3863 -561,5321 -220,1459 -517,2640 -887,3540 -370,904 -840,1561 -1412,1975 -570,412 -1282,617 -2133,617 -330,0 -679,-37 -1027,-116 -355,-75 -654,-178 -900,-294l0 -3957c144,89 293,155 450,191 155,34 326,50 510,50 182,0 348,-69 510,-207 160,-144 315,-426 463,-850 149,-426 290,-1055 421,-1882 131,-827 257,-1918 379,-3273 124,-1353 242,-3050 350,-5072l10610 0 0 15130 1 1zm2408 -2322c0,-960 228,-1635 681,-2026 455,-390 1002,-584 1643,-584 603,0 1126,194 1570,584 443,391 665,1066 665,2026 0,918 -222,1580 -665,1987 -443,409 -967,614 -1570,614 -641,0 -1188,-205 -1643,-614 -452,-407 -681,-1069 -681,-1987zm13040 2322l0 -19896 13065 0 0 19896 -4339 0 0 -15504 -4397 0 0 15504 -4328 0 -1 0zm22280 -15411c1561,0 2783,473 3661,1423 878,952 1317,2303 1317,4060l0 9928 -2951 0 -818 -2034 -89 0c-346,543 -707,985 -1073,1328 -368,341 -789,589 -1262,747 -472,158 -1049,239 -1730,239 -716,0 -1355,-177 -1920,-534 -565,-357 -1013,-896 -1339,-1621 -328,-725 -492,-1639 -492,-2746 0,-1625 457,-2828 1373,-3614 916,-784 2244,-1232 3978,-1328l2062 -77 0 -205c0,-656 -137,-1120 -408,-1391 -273,-280 -636,-416 -1095,-416 -488,0 -1029,108 -1630,316 -599,213 -1202,487 -1805,827l-1231 -3511c710,-455 1517,-800 2419,-1035 900,-238 1911,-354 3033,-354l0 -2zm738 8695l-982 50c-785,33 -1335,196 -1652,489 -317,288 -472,700 -472,1234 0,504 113,875 339,1112 222,235 521,352 894,352 517,0 956,-191 1324,-582 368,-390 550,-896 550,-1518l0 -1137 -1 0zm14689 -8695c1366,0 2437,671 3215,2012 778,1342 1169,3273 1169,5801 0,1718 -197,3168 -592,4339 -390,1175 -927,2055 -1608,2650 -676,589 -1450,889 -2315,889 -585,0 -1075,-94 -1477,-275 -406,-179 -741,-404 -1004,-677 -266,-275 -490,-548 -672,-833l-129 0c35,355 67,734 93,1141 24,404 35,880 35,1419l0 5606 -4261 0 0 -21792 3464 0 601 1950 195 0c206,-395 450,-766 743,-1106 288,-344 645,-612 1062,-817 417,-204 914,-307 1479,-307l2 0zm-1603 4176c-415,0 -743,122 -980,357 -242,232 -412,593 -521,1068 -104,473 -164,1068 -180,1777l0 407c0,786 53,1450 153,1989 100,534 275,941 526,1215 246,277 588,415 1022,415 357,0 656,-122 894,-368 242,-246 424,-631 548,-1164 122,-534 186,-1243 186,-2114 0,-1301 -142,-2225 -421,-2767 -277,-539 -687,-814 -1226,-814l-1 -1zm17062 -3896l4707 0 -4621 7249 4982 7881 -4871 0 -4581 -7676 0 7676 -4262 0 0 -15130 4262 0 0 7333 4384 -7333zm18240 7533c0,1264 -142,2388 -426,3368 -282,984 -692,1807 -1231,2477 -537,666 -1188,1173 -1951,1516 -761,346 -1625,518 -2585,518 -894,0 -1712,-171 -2457,-518 -745,-343 -1395,-850 -1947,-1516 -554,-670 -978,-1491 -1279,-2477 -302,-980 -455,-2103 -455,-3368 0,-1678 251,-3092 749,-4253 494,-1162 1208,-2046 2135,-2649 927,-609 2031,-911 3319,-911 1184,0 2240,302 3164,911 922,603 1645,1487 2173,2649 528,1161 789,2575 789,4253l2 0zm-8002 0c0,849 64,1566 186,2150 122,581 319,1027 596,1328 271,304 628,450 1071,450 443,0 796,-147 1058,-450 264,-302 455,-748 572,-1328 120,-584 180,-1301 180,-2150 0,-850 -60,-1562 -180,-2131 -118,-568 -313,-998 -577,-1286 -264,-289 -625,-437 -1075,-437 -647,0 -1113,327 -1399,977 -288,650 -432,1607 -432,2878l0 -1zm21871 -3639c0,788 -193,1488 -583,2105 -388,620 -982,1004 -1783,1162l0 111c878,125 1554,498 2033,1120 475,623 714,1417 714,2391 0,762 -164,1473 -497,2137 -330,661 -914,1195 -1747,1602 -838,405 -2011,609 -3521,609l-6051 0 0 -15130 6069 0c1244,0 2259,150 3049,446 789,295 1373,733 1749,1314 379,581 568,1291 568,2134l0 -1zm-3958 6369c0,-379 -106,-691 -310,-932 -208,-239 -610,-357 -1206,-357l-1701 0 0 2673 1656 0c563,0 960,-127 1202,-384 239,-255 359,-589 359,-999l0 -1zm-283 -5661c0,-365 -100,-645 -304,-836 -206,-191 -501,-282 -883,-282l-1747 0 0 2142 1594 0c450,0 785,-100 1009,-291 220,-194 330,-437 330,-734l1 1zm10736 -4602l0 5888c0,309 -2,636 -13,971 -11,334 -27,664 -47,993 -18,329 -33,650 -51,963 -18,310 -38,598 -53,867l4667 -9682 4645 0 0 15130 -3883 0 0 -5476c0,-473 9,-960 20,-1466 11,-512 27,-1005 49,-1480 20,-485 51,-921 84,-1312l-4707 9735 -4601 0 0 -15130 3889 0 1 -1zm15985 0l0 5888c0,309 -2,636 -13,971 -11,334 -27,664 -47,993 -18,329 -31,650 -51,963 -18,310 -38,598 -51,867l4665 -9682 4645 0 0 15130 -3883 0 0 -5476c0,-473 9,-960 20,-1466 11,-512 27,-1005 49,-1480 22,-485 51,-921 84,-1312l-4707 9735 -4599 0 0 -15130 3887 0 1 -1zm8100 -6940c-86,1018 -324,1914 -707,2696 -388,777 -960,1389 -1723,1829 -763,441 -1754,659 -2967,659 -1180,0 -2149,-191 -2909,-570 -763,-382 -1344,-957 -1736,-1724 -392,-766 -625,-1727 -698,-2889l3554 0c44,991 220,1658 523,2007 306,348 727,525 1266,525 481,0 883,-179 1208,-542 328,-369 521,-1028 579,-1990l3610 0 0 -1z"/>
   <path id="1" class="fil1" d="M13936 47967c0,788 -193,1488 -585,2105 -386,620 -982,1004 -1783,1162l0 111c878,125 1557,498 2033,1120 477,623 714,1417 714,2391 0,762 -164,1473 -494,2137 -333,661 -916,1195 -1749,1602 -838,405 -2011,609 -3521,609l-6051 0 0 -15130 6071 0c1242,0 2257,150 3047,446 789,295 1373,733 1749,1314 379,581 570,1291 570,2134l-1 -1zm-3961 6369c0,-379 -104,-691 -308,-932 -211,-239 -612,-357 -1206,-357l-1701 0 0 2673 1656 0c561,0 958,-127 1202,-384 237,-255 357,-589 357,-999l0 -1zm-283 -5661c0,-365 -100,-645 -304,-836 -206,-191 -499,-282 -883,-282l-1745 0 0 2142 1592 0c450,0 785,-100 1009,-291 220,-194 330,-437 330,-734l1 1zm5352 -4602l4492 0 2095 8727c29,125 55,277 86,462 29,182 53,376 78,586 18,205 33,404 40,603l89 0c38,-366 80,-687 129,-960 44,-274 89,-493 133,-664l2146 -8755 4353 0 -4885 16179c-379,1237 -818,2272 -1313,3108 -499,838 -1113,1469 -1843,1895 -732,423 -1639,637 -2721,637 -395,0 -730,-23 -1009,-75 -282,-50 -523,-102 -736,-157l0 -4176c160,39 357,69 588,107 235,37 477,55 730,55 472,0 856,-116 1151,-343 293,-227 534,-525 725,-896 191,-371 355,-772 490,-1204l47 -136 -4865 -14996 0 3zm27511 15131l-4264 0 0 -11174 -2510 0c-151,2089 -337,3863 -561,5321 -220,1459 -517,2640 -887,3540 -370,904 -840,1561 -1412,1975 -570,412 -1282,617 -2133,617 -330,0 -679,-37 -1027,-116 -355,-75 -654,-178 -900,-294l0 -3957c144,89 293,155 450,191 155,34 326,50 510,50 182,0 348,-69 510,-207 160,-144 315,-426 463,-850 149,-426 290,-1055 421,-1882 131,-827 257,-1918 379,-3273 124,-1353 242,-3050 350,-5072l10610 0 0 15130 1 1zm2408 -2322c0,-960 228,-1635 681,-2026 455,-390 1002,-584 1643,-584 603,0 1126,194 1570,584 443,391 665,1066 665,2026 0,918 -222,1580 -665,1987 -443,409 -967,614 -1570,614 -641,0 -1188,-205 -1643,-614 -452,-407 -681,-1069 -681,-1987zm13040 2322l0 -19896 13065 0 0 19896 -4339 0 0 -15504 -4397 0 0 15504 -4328 0 -1 0zm22280 -15411c1561,0 2783,473 3661,1423 878,952 1317,2303 1317,4060l0 9928 -2951 0 -818 -2034 -89 0c-346,543 -707,985 -1073,1328 -368,341 -789,589 -1262,747 -472,158 -1049,239 -1730,239 -716,0 -1355,-177 -1920,-534 -565,-357 -1013,-896 -1339,-1621 -328,-725 -492,-1639 -492,-2746 0,-1625 457,-2828 1373,-3614 916,-784 2244,-1232 3978,-1328l2062 -77 0 -205c0,-656 -137,-1120 -408,-1391 -273,-280 -636,-416 -1095,-416 -488,0 -1029,108 -1630,316 -599,213 -1202,487 -1805,827l-1231 -3511c710,-455 1517,-800 2419,-1035 900,-238 1911,-354 3033,-354l0 -2zm738 8695l-982 50c-785,33 -1335,196 -1652,489 -317,288 -472,700 -472,1234 0,504 113,875 339,1112 222,235 521,352 894,352 517,0 956,-191 1324,-582 368,-390 550,-896 550,-1518l0 -1137 -1 0zm14689 -8695c1366,0 2437,671 3215,2012 778,1342 1169,3273 1169,5801 0,1718 -197,3168 -592,4339 -390,1175 -927,2055 -1608,2650 -676,589 -1450,889 -2315,889 -585,0 -1075,-94 -1477,-275 -406,-179 -741,-404 -1004,-677 -266,-275 -490,-548 -672,-833l-129 0c35,355 67,734 93,1141 24,404 35,880 35,1419l0 5606 -4261 0 0 -21792 3464 0 601 1950 195 0c206,-395 450,-766 743,-1106 288,-344 645,-612 1062,-817 417,-204 914,-307 1479,-307l2 0zm-1603 4176c-415,0 -743,122 -980,357 -242,232 -412,593 -521,1068 -104,473 -164,1068 -180,1777l0 407c0,786 53,1450 153,1989 100,534 275,941 526,1215 246,277 588,415 1022,415 357,0 656,-122 894,-368 242,-246 424,-631 548,-1164 122,-534 186,-1243 186,-2114 0,-1301 -142,-2225 -421,-2767 -277,-539 -687,-814 -1226,-814l-1 -1zm17062 -3896l4707 0 -4621 7249 4982 7881 -4871 0 -4581 -7676 0 7676 -4262 0 0 -15130 4262 0 0 7333 4384 -7333zm18240 7533c0,1264 -142,2388 -426,3368 -282,984 -692,1807 -1231,2477 -537,666 -1188,1173 -1951,1516 -761,346 -1625,518 -2585,518 -894,0 -1712,-171 -2457,-518 -745,-343 -1395,-850 -1947,-1516 -554,-670 -978,-1491 -1279,-2477 -302,-980 -455,-2103 -455,-3368 0,-1678 251,-3092 749,-4253 494,-1162 1208,-2046 2135,-2649 927,-609 2031,-911 3319,-911 1184,0 2240,302 3164,911 922,603 1645,1487 2173,2649 528,1161 789,2575 789,4253l2 0zm-8002 0c0,849 64,1566 186,2150 122,581 319,1027 596,1328 271,304 628,450 1071,450 443,0 796,-147 1058,-450 264,-302 455,-748 572,-1328 120,-584 180,-1301 180,-2150 0,-850 -60,-1562 -180,-2131 -118,-568 -313,-998 -577,-1286 -264,-289 -625,-437 -1075,-437 -647,0 -1113,327 -1399,977 -288,650 -432,1607 -432,2878l0 -1zm21871 -3639c0,788 -193,1488 -583,2105 -388,620 -982,1004 -1783,1162l0 111c878,125 1554,498 2033,1120 475,623 714,1417 714,2391 0,762 -164,1473 -497,2137 -330,661 -914,1195 -1747,1602 -838,405 -2011,609 -3521,609l-6051 0 0 -15130 6069 0c1244,0 2259,150 3049,446 789,295 1373,733 1749,1314 379,581 568,1291 568,2134l0 -1zm-3958 6369c0,-379 -106,-691 -310,-932 -208,-239 -610,-357 -1206,-357l-1701 0 0 2673 1656 0c563,0 960,-127 1202,-384 239,-255 359,-589 359,-999l0 -1zm-283 -5661c0,-365 -100,-645 -304,-836 -206,-191 -501,-282 -883,-282l-1747 0 0 2142 1594 0c450,0 785,-100 1009,-291 220,-194 330,-437 330,-734l1 1zm10736 -4602l0 5888c0,309 -2,636 -13,971 -11,334 -27,664 -47,993 -18,329 -33,650 -51,963 -18,310 -38,598 -53,867l4667 -9682 4645 0 0 15130 -3883 0 0 -5476c0,-473 9,-960 20,-1466 11,-512 27,-1005 49,-1480 20,-485 51,-921 84,-1312l-4707 9735 -4601 0 0 -15130 3889 0 1 -1zm15985 0l0 5888c0,309 -2,636 -13,971 -11,334 -27,664 -47,993 -18,329 -31,650 -51,963 -18,310 -38,598 -51,867l4665 -9682 4645 0 0 15130 -3883 0 0 -5476c0,-473 9,-960 20,-1466 11,-512 27,-1005 49,-1480 22,-485 51,-921 84,-1312l-4707 9735 -4599 0 0 -15130 3887 0 1 -1zm8100 -6940c-86,1018 -324,1914 -707,2696 -388,777 -960,1389 -1723,1829 -763,441 -1754,659 -2967,659 -1180,0 -2149,-191 -2909,-570 -763,-382 -1344,-957 -1736,-1724 -392,-766 -625,-1727 -698,-2889l3554 0c44,991 220,1658 523,2007 306,348 727,525 1266,525 481,0 883,-179 1208,-542 328,-369 521,-1028 579,-1990l3610 0 0 -1z"/>
  </g>
  <g>
   <path class="fil0 str0" d="M37506 94563l0 -19897 13062 0 0 19897 -4339 0 0 -15505 -4395 0 0 15505 -4328 0zm23792 -15410c1366,0 2437,670 3215,2011 778,1342 1169,3274 1169,5801 0,1718 -197,3169 -592,4340 -390,1176 -927,2055 -1608,2651 -676,589 -1450,888 -2315,888 -583,0 -1075,-93 -1477,-274 -406,-180 -741,-405 -1004,-678 -264,-274 -488,-548 -670,-832l-131 0c38,354 67,733 93,1140 27,405 38,880 38,1419l0 5606 -4262 0 0 -21793 3466 0 599 1951 197 0c204,-396 450,-766 741,-1107 290,-343 647,-612 1064,-816 417,-205 911,-307 1477,-307zm-1603 4174c-415,0 -741,122 -980,357 -242,232 -412,593 -521,1068 -102,473 -164,1069 -177,1777l0 407c0,786 51,1450 153,1990 100,535 275,941 523,1215 246,274 588,415 1024,415 357,0 654,-122 894,-368 242,-246 424,-631 545,-1164 124,-535 186,-1244 186,-2115 0,-1301 -140,-2225 -419,-2767 -279,-539 -690,-814 -1228,-814l0 -1zm20211 3637c0,1264 -142,2389 -424,3369 -282,985 -692,1807 -1231,2477 -537,666 -1188,1173 -1951,1516 -763,346 -1628,518 -2588,518 -891,0 -1712,-171 -2455,-518 -745,-343 -1397,-850 -1947,-1516 -554,-670 -980,-1491 -1282,-2477 -302,-980 -452,-2104 -452,-3369 0,-1678 248,-3094 747,-4253 494,-1162 1208,-2046 2135,-2648 927,-609 2033,-911 3322,-911 1182,0 2240,302 3162,911 922,602 1645,1486 2175,2648 528,1159 787,2575 787,4253l2 0zm-8000 0c0,850 62,1566 184,2151 124,581 322,1027 596,1328 271,304 630,450 1073,450 441,0 796,-147 1055,-450 264,-302 455,-748 574,-1328 118,-585 177,-1301 177,-2151 0,-850 -60,-1561 -177,-2131 -120,-567 -313,-998 -577,-1286 -264,-288 -625,-437 -1078,-437 -645,0 -1113,327 -1399,977 -286,650 -430,1605 -430,2878l2 -1zm14718 7599l-4266 0 0 -15131 4266 0 0 15131zm-6610 -19233c0,-743 177,-1286 537,-1635 357,-343 796,-517 1317,-517 503,0 942,174 1313,517 377,349 563,892 563,1635 0,714 -186,1248 -563,1596 -370,349 -809,526 -1313,526 -521,0 -960,-177 -1317,-526 -359,-348 -537,-882 -537,-1596zm5227 0c0,-743 177,-1286 539,-1635 357,-343 803,-517 1337,-517 506,0 949,174 1324,517 374,349 560,892 560,1635 0,714 -186,1248 -560,1596 -375,349 -818,526 -1324,526 -534,0 -980,-177 -1337,-526 -361,-348 -539,-882 -539,-1596zm8362 3823c1009,0 1927,136 2758,404 829,275 1488,705 1980,1300 488,596 732,1389 732,2383 0,818 -204,1514 -614,2095 -408,582 -949,985 -1619,1209l0 133c654,107 1184,334 1585,677 404,343 701,767 883,1264 186,497 279,1042 279,1631 0,985 -217,1821 -654,2505 -437,686 -1111,1207 -2022,1557 -911,355 -2084,532 -3517,532 -747,0 -1384,-36 -1902,-107 -521,-75 -978,-178 -1379,-307 -399,-133 -800,-277 -1200,-446l0 -4067c494,207 1093,426 1798,650 707,219 1521,330 2446,330 632,0 1102,-69 1408,-214 310,-143 510,-315 608,-514 93,-200 142,-377 142,-534 0,-271 -55,-493 -171,-675 -111,-175 -339,-317 -674,-410 -339,-98 -854,-144 -1545,-144l-1603 0 0 -3453 1344 0c885,0 1508,-89 1858,-260 353,-171 528,-436 528,-800 0,-293 -126,-520 -379,-691 -257,-166 -674,-252 -1255,-252 -588,0 -1142,86 -1663,246 -521,163 -1064,404 -1641,720l-1200 -3589c734,-391 1468,-684 2204,-877 734,-196 1563,-294 2486,-294l-1 -2zm20138 0l0 11448 1832 0 0 9618 -3730 0 0 -5656 -7566 0 0 5656 -3730 0 0 -9618 1091 0c428,-913 812,-1979 1151,-3194 337,-1212 621,-2524 851,-3930 226,-1403 395,-2848 494,-4325l9606 0 1 1zm-4259 3956l-2062 0c-93,882 -211,1729 -339,2534 -131,814 -290,1621 -486,2430 -193,809 -424,1651 -692,2527l3579 0 0 -7491zm11785 7386l153 310c-131,664 -302,1458 -508,2388 -206,927 -430,1862 -676,2801 -242,938 -488,1757 -736,2443l-3040 0c144,-855 286,-1752 424,-2695 137,-941 268,-1865 384,-2773 113,-905 204,-1733 271,-2474l3730 0 -2 0zm18974 -11526c0,944 -164,1762 -488,2449 -324,686 -752,1250 -1288,1688 -532,435 -1118,762 -1749,980l0 84c1273,199 2255,683 2951,1452 692,766 1042,1857 1042,3272 0,1091 -235,2089 -701,2994 -463,907 -1186,1632 -2169,2169 -982,545 -2240,813 -3785,813 -1031,0 -1909,-99 -2639,-288 -725,-191 -1428,-450 -2113,-786l0 -4464c692,443 1401,773 2131,985 730,213 1397,320 2000,320 1049,0 1763,-191 2144,-561 381,-377 572,-880 572,-1512 0,-460 -91,-844 -273,-1165 -182,-321 -517,-568 -1007,-741 -492,-175 -1195,-263 -2111,-263l-982 0 0 -4040 1004 0c812,0 1459,-91 1936,-275 475,-179 818,-431 1031,-747 208,-316 315,-678 315,-1087 0,-529 -164,-925 -490,-1179 -328,-255 -758,-382 -1299,-382 -479,0 -929,80 -1350,243 -424,166 -789,346 -1102,548 -313,200 -550,359 -710,487l-1787 -3592c663,-561 1417,-1041 2273,-1428 851,-393 1973,-586 3353,-586 1643,0 2934,407 3876,1225 940,823 1415,1946 1415,3385l0 2z"/>
   <path id="1" class="fil1" d="M37506 94563l0 -19897 13062 0 0 19897 -4339 0 0 -15505 -4395 0 0 15505 -4328 0zm23792 -15410c1366,0 2437,670 3215,2011 778,1342 1169,3274 1169,5801 0,1718 -197,3169 -592,4340 -390,1176 -927,2055 -1608,2651 -676,589 -1450,888 -2315,888 -583,0 -1075,-93 -1477,-274 -406,-180 -741,-405 -1004,-678 -264,-274 -488,-548 -670,-832l-131 0c38,354 67,733 93,1140 27,405 38,880 38,1419l0 5606 -4262 0 0 -21793 3466 0 599 1951 197 0c204,-396 450,-766 741,-1107 290,-343 647,-612 1064,-816 417,-205 911,-307 1477,-307zm-1603 4174c-415,0 -741,122 -980,357 -242,232 -412,593 -521,1068 -102,473 -164,1069 -177,1777l0 407c0,786 51,1450 153,1990 100,535 275,941 523,1215 246,274 588,415 1024,415 357,0 654,-122 894,-368 242,-246 424,-631 545,-1164 124,-535 186,-1244 186,-2115 0,-1301 -140,-2225 -419,-2767 -279,-539 -690,-814 -1228,-814l0 -1zm20211 3637c0,1264 -142,2389 -424,3369 -282,985 -692,1807 -1231,2477 -537,666 -1188,1173 -1951,1516 -763,346 -1628,518 -2588,518 -891,0 -1712,-171 -2455,-518 -745,-343 -1397,-850 -1947,-1516 -554,-670 -980,-1491 -1282,-2477 -302,-980 -452,-2104 -452,-3369 0,-1678 248,-3094 747,-4253 494,-1162 1208,-2046 2135,-2648 927,-609 2033,-911 3322,-911 1182,0 2240,302 3162,911 922,602 1645,1486 2175,2648 528,1159 787,2575 787,4253l2 0zm-8000 0c0,850 62,1566 184,2151 124,581 322,1027 596,1328 271,304 630,450 1073,450 441,0 796,-147 1055,-450 264,-302 455,-748 574,-1328 118,-585 177,-1301 177,-2151 0,-850 -60,-1561 -177,-2131 -120,-567 -313,-998 -577,-1286 -264,-288 -625,-437 -1078,-437 -645,0 -1113,327 -1399,977 -286,650 -430,1605 -430,2878l2 -1zm14718 7599l-4266 0 0 -15131 4266 0 0 15131zm-6610 -19233c0,-743 177,-1286 537,-1635 357,-343 796,-517 1317,-517 503,0 942,174 1313,517 377,349 563,892 563,1635 0,714 -186,1248 -563,1596 -370,349 -809,526 -1313,526 -521,0 -960,-177 -1317,-526 -359,-348 -537,-882 -537,-1596zm5227 0c0,-743 177,-1286 539,-1635 357,-343 803,-517 1337,-517 506,0 949,174 1324,517 374,349 560,892 560,1635 0,714 -186,1248 -560,1596 -375,349 -818,526 -1324,526 -534,0 -980,-177 -1337,-526 -361,-348 -539,-882 -539,-1596zm8362 3823c1009,0 1927,136 2758,404 829,275 1488,705 1980,1300 488,596 732,1389 732,2383 0,818 -204,1514 -614,2095 -408,582 -949,985 -1619,1209l0 133c654,107 1184,334 1585,677 404,343 701,767 883,1264 186,497 279,1042 279,1631 0,985 -217,1821 -654,2505 -437,686 -1111,1207 -2022,1557 -911,355 -2084,532 -3517,532 -747,0 -1384,-36 -1902,-107 -521,-75 -978,-178 -1379,-307 -399,-133 -800,-277 -1200,-446l0 -4067c494,207 1093,426 1798,650 707,219 1521,330 2446,330 632,0 1102,-69 1408,-214 310,-143 510,-315 608,-514 93,-200 142,-377 142,-534 0,-271 -55,-493 -171,-675 -111,-175 -339,-317 -674,-410 -339,-98 -854,-144 -1545,-144l-1603 0 0 -3453 1344 0c885,0 1508,-89 1858,-260 353,-171 528,-436 528,-800 0,-293 -126,-520 -379,-691 -257,-166 -674,-252 -1255,-252 -588,0 -1142,86 -1663,246 -521,163 -1064,404 -1641,720l-1200 -3589c734,-391 1468,-684 2204,-877 734,-196 1563,-294 2486,-294l-1 -2zm20138 0l0 11448 1832 0 0 9618 -3730 0 0 -5656 -7566 0 0 5656 -3730 0 0 -9618 1091 0c428,-913 812,-1979 1151,-3194 337,-1212 621,-2524 851,-3930 226,-1403 395,-2848 494,-4325l9606 0 1 1zm-4259 3956l-2062 0c-93,882 -211,1729 -339,2534 -131,814 -290,1621 -486,2430 -193,809 -424,1651 -692,2527l3579 0 0 -7491zm11785 7386l153 310c-131,664 -302,1458 -508,2388 -206,927 -430,1862 -676,2801 -242,938 -488,1757 -736,2443l-3040 0c144,-855 286,-1752 424,-2695 137,-941 268,-1865 384,-2773 113,-905 204,-1733 271,-2474l3730 0 -2 0zm18974 -11526c0,944 -164,1762 -488,2449 -324,686 -752,1250 -1288,1688 -532,435 -1118,762 -1749,980l0 84c1273,199 2255,683 2951,1452 692,766 1042,1857 1042,3272 0,1091 -235,2089 -701,2994 -463,907 -1186,1632 -2169,2169 -982,545 -2240,813 -3785,813 -1031,0 -1909,-99 -2639,-288 -725,-191 -1428,-450 -2113,-786l0 -4464c692,443 1401,773 2131,985 730,213 1397,320 2000,320 1049,0 1763,-191 2144,-561 381,-377 572,-880 572,-1512 0,-460 -91,-844 -273,-1165 -182,-321 -517,-568 -1007,-741 -492,-175 -1195,-263 -2111,-263l-982 0 0 -4040 1004 0c812,0 1459,-91 1936,-275 475,-179 818,-431 1031,-747 208,-316 315,-678 315,-1087 0,-529 -164,-925 -490,-1179 -328,-255 -758,-382 -1299,-382 -479,0 -929,80 -1350,243 -424,166 -789,346 -1102,548 -313,200 -550,359 -710,487l-1787 -3592c663,-561 1417,-1041 2273,-1428 851,-393 1973,-586 3353,-586 1643,0 2934,407 3876,1225 940,823 1415,1946 1415,3385l0 2z"/>
  </g>
 </g>
</svg>
