<?xml version="1.0" encoding="UTF-8"?>
<!DOCTYPE svg PUBLIC "-//W3C//DTD SVG 1.1//EN" "http://www.w3.org/Graphics/SVG/1.1/DTD/svg11.dtd">
<!-- Creator: CorelDRAW X7 -->
<svg xmlns="http://www.w3.org/2000/svg" xml:space="preserve" width="17.2407mm" height="7.9108mm" version="1.1" style="shape-rendering:geometricPrecision; text-rendering:geometricPrecision; image-rendering:optimizeQuality; fill-rule:evenodd; clip-rule:evenodd"
viewBox="0 0 77754 35677"
 xmlns:xlink="http://www.w3.org/1999/xlink">
 <defs>
  <style type="text/css">
   <![CDATA[
    .fil0 {fill:#393185;fill-rule:nonzero}
   ]]>
  </style>
 </defs>
 <g id="Слой_x0020_1">
  <metadata id="CorelCorpID_0Corel-Layer"/>
  <path class="fil0" d="M20397 7714l-1957 0 0 -2658c-443,151 -844,260 -1203,328 -358,69 -698,105 -1019,105 -676,0 -1207,-168 -1591,-502 -386,-334 -578,-809 -578,-1422l0 -3041 1958 0 0 2397c0,322 63,565 193,732 129,164 360,248 691,248 203,0 435,-27 693,-82 259,-54 544,-138 856,-254l0 -3041 1957 0 0 7190zm3945 -5569c540,0 1007,92 1402,279 392,185 696,461 909,832 213,371 319,834 319,1392l0 841 -3437 0c16,280 125,510 327,690 201,179 498,268 892,268 348,0 667,-33 958,-102 288,-69 588,-175 896,-319l0 1381c-269,141 -563,244 -880,309 -319,65 -720,99 -1205,99 -560,0 -1062,-99 -1504,-296 -443,-196 -792,-500 -1045,-912 -254,-414 -381,-944 -381,-1590 0,-658 114,-1198 344,-1623 230,-423 550,-737 963,-942 413,-204 895,-307 1442,-307zm69 1308c-227,0 -416,67 -569,200 -153,132 -242,342 -267,626l1651 0c-3,-153 -35,-293 -99,-419 -62,-124 -152,-223 -271,-297 -120,-73 -269,-110 -445,-110zm7051 -1308c616,0 1099,242 1450,727 351,485 527,1183 527,2096 0,621 -89,1145 -267,1568 -176,425 -418,743 -725,958 -305,213 -654,321 -1044,321 -263,0 -485,-34 -666,-99 -183,-65 -334,-146 -453,-245 -119,-99 -220,-198 -303,-301l-58 0c17,128 30,266 42,412 12,146 16,318 16,513l0 2026 -1921 0 0 -7875 1563 0 270 705 88 0c93,-143 203,-277 335,-400 130,-124 291,-221 480,-295 188,-74 411,-111 666,-111zm-723 1509c-187,0 -334,44 -442,129 -109,84 -186,214 -235,386 -47,171 -74,386 -81,642l0 147c0,284 24,524 69,719 46,193 125,340 237,439 111,100 265,150 462,150 161,0 295,-44 402,-133 110,-89 192,-228 247,-421 56,-193 84,-448 84,-764 0,-470 -64,-804 -189,-1000 -126,-195 -311,-294 -554,-294zm5718 -1408l0 1943 1524 0 0 -1943 1923 0 0 5468 -1923 0 0 -2095 -1524 0 0 2095 -1922 0 0 -5468 1922 0zm6707 0l0 5468 -1924 0 0 -5468 1924 0zm-953 -2246c275,0 515,59 719,173 205,114 307,342 307,683 0,331 -102,556 -307,672 -204,115 -444,174 -719,174 -283,0 -524,-59 -722,-174 -198,-116 -298,-341 -298,-672 0,-341 100,-569 298,-683 198,-114 439,-173 722,-173zm7453 3653c0,285 -87,538 -263,761 -175,224 -443,363 -804,420l0 40c396,45 701,180 917,405 214,225 322,512 322,864 0,276 -74,532 -224,772 -149,239 -412,432 -789,579 -377,146 -906,220 -1587,220l-2729 0 0 -5468 2737 0c561,0 1019,54 1375,161 356,107 619,265 789,475 171,210 256,467 256,771zm-1785 2302c0,-137 -48,-250 -140,-337 -94,-86 -275,-129 -544,-129l-767 0 0 966 747 0c254,0 433,-46 542,-139 108,-92 162,-213 162,-361zm-128 -2046c0,-132 -46,-233 -138,-302 -92,-69 -225,-102 -397,-102l-788 0 0 774 719 0c203,0 354,-36 455,-105 99,-70 149,-157 149,-265zm9966 5850l-1681 0 0 -2045 -5197 0 0 -5468 1922 0 0 4036 1784 0 0 -4036 1924 0 0 4036 1248 0 0 3477zm2720 -7513l0 5468 -1924 0 0 -5468 1924 0zm-953 -2246c275,0 515,59 719,173 205,114 307,342 307,683 0,331 -102,556 -307,672 -204,115 -444,174 -719,174 -283,0 -524,-59 -722,-174 -198,-116 -298,-341 -298,-672 0,-341 100,-569 298,-683 198,-114 439,-173 722,-173zm4080 6244l69 112c-59,240 -136,527 -229,863 -94,336 -194,673 -305,1012 -109,339 -220,635 -333,883l-1371 0c66,-309 129,-633 192,-974 61,-340 120,-674 172,-1002 52,-327 93,-626 123,-894l1682 0z"/>
  <path class="fil0" d="M5158 16431c0,285 -87,538 -264,761 -174,224 -443,363 -804,420l0 40c396,45 702,180 917,405 215,225 322,512 322,864 0,275 -74,532 -223,772 -150,239 -413,432 -789,579 -378,146 -907,220 -1588,220l-2729 0 0 -5468 2738 0c560,0 1018,54 1374,161 356,107 619,265 789,475 171,210 257,467 257,771zm-1786 2302c0,-137 -47,-250 -139,-337 -95,-86 -276,-129 -544,-129l-767 0 0 966 747 0c253,0 432,-46 542,-139 107,-92 161,-213 161,-361zm-128 -2046c0,-132 -45,-233 -137,-302 -93,-69 -225,-102 -398,-102l-787 0 0 774 718 0c203,0 354,-36 455,-105 99,-70 149,-158 149,-265zm2414 -1663l2026 0 945 3154c13,45 25,100 39,167 13,66 24,136 35,212 8,74 15,146 18,218l40 0c17,-132 36,-248 58,-347 20,-99 40,-178 60,-240l968 -3164 1963 0 -2203 5847c-171,447 -369,821 -592,1123 -225,303 -502,531 -831,685 -330,153 -739,230 -1227,230 -178,0 -329,-8 -455,-27 -127,-18 -236,-37 -332,-57l0 -1509c72,14 161,25 265,39 106,13 215,20 329,20 213,0 386,-42 519,-124 132,-82 241,-190 327,-324 86,-134 160,-279 221,-435l21 -49 -2194 -5419zm12407 5468l-1923 0 0 -4038 -1132 0c-68,755 -152,1396 -253,1923 -99,527 -233,954 -400,1279 -167,327 -379,564 -637,714 -257,149 -578,223 -962,223 -149,0 -306,-13 -463,-42 -160,-27 -295,-64 -406,-106l0 -1430c65,32 132,56 203,69 70,12 147,18 230,18 82,0 157,-25 230,-75 72,-52 142,-154 209,-307 67,-154 131,-381 190,-680 59,-299 116,-693 171,-1183 56,-489 109,-1102 158,-1833l4785 0 0 5468zm1086 -839c0,-347 103,-591 307,-732 205,-141 452,-211 741,-211 272,0 508,70 708,211 200,141 300,385 300,732 0,332 -100,571 -300,718 -200,148 -436,222 -708,222 -289,0 -536,-74 -741,-222 -204,-147 -307,-386 -307,-718zm5881 839l0 -7190 5892 0 0 7190 -1957 0 0 -5603 -1983 0 0 5603 -1952 0zm10048 -5569c704,0 1255,171 1651,514 396,344 594,832 594,1467l0 3588 -1331 0 -369 -735 -40 0c-156,196 -319,356 -484,480 -166,123 -356,213 -569,270 -213,57 -473,86 -780,86 -323,0 -611,-64 -866,-193 -255,-129 -457,-324 -604,-586 -148,-262 -222,-592 -222,-992 0,-587 206,-1022 619,-1306 413,-283 1012,-445 1794,-480l930 -28 0 -74c0,-237 -62,-405 -184,-503 -123,-101 -287,-150 -494,-150 -220,0 -464,39 -735,114 -270,77 -542,176 -814,299l-555 -1269c320,-164 684,-289 1091,-374 406,-86 862,-128 1368,-128zm333 3142l-443 18c-354,12 -602,71 -745,177 -143,104 -213,253 -213,446 0,182 51,316 153,402 100,85 235,127 403,127 233,0 431,-69 597,-210 166,-141 248,-324 248,-549l0 -411zm6624 -3142c616,0 1099,242 1450,727 351,485 527,1183 527,2096 0,621 -89,1145 -267,1568 -176,425 -418,743 -725,958 -305,213 -654,321 -1044,321 -264,0 -485,-34 -666,-99 -183,-65 -334,-146 -453,-245 -120,-99 -221,-198 -303,-301l-58 0c16,128 30,265 42,412 11,146 16,318 16,513l0 2026 -1921 0 0 -7875 1562 0 271 705 88 0c93,-143 203,-277 335,-400 130,-124 291,-221 479,-295 188,-74 412,-111 667,-111zm-723 1509c-187,0 -335,44 -442,129 -109,84 -186,214 -235,386 -47,171 -74,386 -81,642l0 147c0,284 24,524 69,719 45,193 124,340 237,439 111,100 265,150 461,150 161,0 296,-44 403,-133 109,-89 191,-228 247,-421 55,-193 84,-449 84,-764 0,-470 -64,-804 -190,-1000 -125,-195 -310,-294 -553,-294zm7695 -1408l2123 0 -2084 2620 2247 2848 -2197 0 -2066 -2774 0 2774 -1922 0 0 -5468 1922 0 0 2650 1977 -2650zm8226 2722c0,457 -64,863 -192,1217 -127,356 -312,653 -555,895 -242,241 -536,424 -880,548 -343,125 -733,187 -1166,187 -403,0 -772,-62 -1108,-187 -336,-124 -629,-307 -878,-548 -250,-242 -441,-539 -577,-895 -136,-354 -205,-760 -205,-1217 0,-606 113,-1117 338,-1537 223,-420 545,-739 963,-957 418,-220 916,-329 1497,-329 534,0 1010,109 1427,329 416,218 742,537 980,957 238,420 356,931 356,1537zm-3609 0c0,307 29,566 84,777 55,210 144,371 269,480 122,110 283,163 483,163 200,0 359,-53 477,-163 119,-109 205,-270 258,-480 54,-211 81,-470 81,-777 0,-307 -27,-564 -81,-770 -53,-205 -141,-361 -260,-465 -119,-104 -282,-158 -485,-158 -292,0 -502,118 -631,353 -130,235 -195,581 -195,1040zm9864 -1315c0,285 -87,538 -263,761 -175,224 -443,363 -804,420l0 40c396,45 701,180 917,405 214,225 322,512 322,864 0,275 -74,532 -224,772 -149,239 -412,432 -788,579 -378,146 -907,220 -1588,220l-2729 0 0 -5468 2737 0c561,0 1019,54 1375,161 356,107 619,265 789,475 171,210 256,467 256,771zm-1785 2302c0,-137 -48,-250 -140,-337 -94,-86 -275,-129 -544,-129l-767 0 0 966 747 0c254,0 433,-46 542,-139 108,-92 162,-213 162,-361zm-128 -2046c0,-132 -45,-233 -137,-302 -93,-69 -226,-102 -398,-102l-788 0 0 774 719 0c203,0 354,-36 455,-105 99,-70 149,-158 149,-265zm4842 -1663l0 2128c0,112 -1,230 -6,351 -5,121 -12,240 -21,359 -8,119 -15,235 -23,348 -8,112 -17,216 -24,313l2105 -3499 2095 0 0 5468 -1751 0 0 -1979c0,-171 4,-347 9,-530 5,-185 12,-363 22,-535 9,-175 23,-333 38,-474l-2123 3518 -2075 0 0 -5468 1754 0zm7209 0l0 2128c0,112 -1,230 -6,351 -5,121 -12,240 -21,359 -8,119 -14,235 -23,348 -8,112 -17,216 -23,313l2104 -3499 2095 0 0 5468 -1751 0 0 -1979c0,-171 4,-347 9,-530 5,-185 12,-363 22,-535 10,-175 23,-333 38,-474l-2123 3518 -2074 0 0 -5468 1753 0zm3653 -2508c-39,368 -146,692 -319,974 -175,281 -433,502 -777,661 -344,159 -791,238 -1338,238 -532,0 -969,-69 -1312,-206 -344,-138 -606,-346 -783,-623 -177,-277 -282,-624 -315,-1044l1603 0c20,358 99,599 236,725 138,126 328,190 571,190 217,0 398,-65 545,-196 148,-133 235,-371 261,-719l1628 0z"/>
  <path class="fil0" d="M15788 33270l0 -7190 5891 0 0 7190 -1957 0 0 -5603 -1982 0 0 5603 -1952 0zm10730 -5569c616,0 1099,242 1450,727 351,485 527,1183 527,2096 0,621 -89,1145 -267,1568 -176,425 -418,743 -725,958 -305,213 -654,321 -1044,321 -263,0 -485,-34 -666,-99 -183,-65 -334,-146 -453,-245 -119,-99 -220,-198 -302,-301l-59 0c17,128 30,265 42,412 12,146 17,318 17,513l0 2026 -1922 0 0 -7875 1563 0 270 705 89 0c92,-143 203,-277 334,-400 131,-124 292,-221 480,-295 188,-74 411,-111 666,-111zm-723 1509c-187,0 -334,44 -442,129 -109,84 -186,214 -235,386 -46,171 -74,386 -80,642l0 147c0,284 23,524 69,719 45,193 124,340 236,439 111,99 265,150 462,150 161,0 295,-44 403,-133 109,-89 191,-228 246,-421 56,-193 84,-449 84,-764 0,-470 -63,-804 -189,-1000 -126,-195 -311,-294 -554,-294zm9115 1314c0,457 -64,863 -191,1217 -127,356 -312,653 -555,895 -242,241 -536,424 -880,548 -344,125 -734,187 -1167,187 -402,0 -772,-62 -1107,-187 -336,-124 -630,-307 -878,-548 -250,-242 -442,-539 -578,-895 -136,-354 -204,-760 -204,-1217 0,-606 112,-1118 337,-1537 223,-420 545,-739 963,-957 418,-220 917,-329 1498,-329 533,0 1010,109 1426,329 416,218 742,537 981,957 238,419 355,931 355,1537zm-3608 0c0,307 28,566 83,777 56,210 145,371 269,480 122,110 284,163 484,163 199,0 359,-53 476,-163 119,-109 205,-270 259,-480 53,-211 80,-470 80,-777 0,-307 -27,-564 -80,-770 -54,-205 -141,-361 -260,-465 -119,-104 -282,-158 -486,-158 -291,0 -502,118 -631,353 -129,235 -194,580 -194,1040zm6638 2746l-1924 0 0 -5468 1924 0 0 5468zm-2981 -6950c0,-269 80,-465 242,-591 161,-124 359,-187 594,-187 227,0 425,63 592,187 170,126 254,322 254,591 0,258 -84,451 -254,577 -167,126 -365,190 -592,190 -235,0 -433,-64 -594,-190 -162,-126 -242,-319 -242,-577zm2357 0c0,-269 80,-465 243,-591 161,-124 362,-187 603,-187 228,0 428,63 597,187 168,126 252,322 252,591 0,258 -84,451 -252,577 -169,126 -369,190 -597,190 -241,0 -442,-64 -603,-190 -163,-126 -243,-319 -243,-577zm3771 1381c455,0 869,49 1244,146 374,99 671,255 893,470 220,215 330,502 330,861 0,296 -92,547 -277,757 -184,210 -428,356 -730,437l0 48c295,39 534,121 715,245 182,124 316,277 398,457 84,179 126,376 126,589 0,356 -98,658 -295,905 -197,248 -501,436 -912,563 -411,128 -940,192 -1586,192 -337,0 -624,-13 -858,-39 -235,-27 -441,-64 -622,-111 -180,-48 -361,-100 -541,-161l0 -1470c223,75 493,154 811,235 319,79 686,119 1103,119 285,0 497,-25 635,-77 140,-52 230,-114 274,-186 42,-72 64,-136 64,-193 0,-98 -25,-178 -77,-244 -50,-63 -153,-114 -304,-148 -153,-35 -385,-52 -697,-52l-723 0 0 -1248 606 0c399,0 680,-32 838,-94 159,-62 238,-158 238,-289 0,-106 -57,-188 -171,-250 -116,-60 -304,-91 -566,-91 -265,0 -515,31 -750,89 -235,59 -480,146 -740,260l-541 -1297c331,-141 662,-247 994,-317 331,-71 705,-106 1121,-106zm9082 0l0 4137 826 0 0 3476 -1682 0 0 -2044 -3412 0 0 2044 -1682 0 0 -3476 492 0c193,-330 366,-715 519,-1154 152,-438 280,-912 384,-1420 102,-507 178,-1029 223,-1563l4332 0zm-1921 1430l-930 0c-42,319 -95,625 -153,916 -59,294 -131,586 -219,878 -87,292 -191,596 -312,913l1614 0 0 -2707zm5315 2669l69 112c-59,240 -136,527 -229,863 -93,335 -194,673 -305,1012 -109,339 -220,635 -332,883l-1371 0c65,-309 129,-633 191,-974 62,-340 121,-674 173,-1002 51,-327 92,-626 122,-894l1682 0zm8557 -4165c0,341 -74,637 -220,885 -146,248 -339,452 -581,610 -240,157 -504,275 -789,354l0 30c574,72 1017,247 1331,525 312,277 470,671 470,1182 0,394 -106,755 -316,1082 -209,328 -535,590 -978,784 -443,197 -1010,294 -1707,294 -465,0 -861,-36 -1190,-104 -327,-69 -644,-163 -953,-284l0 -1613c312,160 632,279 961,356 329,77 630,116 902,116 473,0 795,-69 967,-203 172,-136 258,-318 258,-546 0,-166 -41,-305 -123,-421 -82,-116 -233,-205 -454,-268 -222,-63 -539,-95 -952,-95l-443 0 0 -1460 453 0c366,0 658,-33 873,-99 214,-65 369,-156 465,-270 94,-114 142,-245 142,-393 0,-191 -74,-334 -221,-426 -148,-92 -342,-138 -586,-138 -216,0 -419,29 -609,88 -191,60 -356,125 -497,198 -141,72 -248,130 -320,176l-806 -1298c299,-203 639,-376 1025,-516 384,-142 890,-212 1512,-212 741,0 1323,147 1748,443 424,297 638,703 638,1223z"/>
 </g>
</svg>
