<?xml version="1.0" encoding="UTF-8"?>
<!DOCTYPE svg PUBLIC "-//W3C//DTD SVG 1.1//EN" "http://www.w3.org/Graphics/SVG/1.1/DTD/svg11.dtd">
<!-- Creator: CorelDRAW X7 -->
<svg xmlns="http://www.w3.org/2000/svg" xml:space="preserve" width="34.3925mm" height="30.8522mm" version="1.1" style="shape-rendering:geometricPrecision; text-rendering:geometricPrecision; image-rendering:optimizeQuality; fill-rule:evenodd; clip-rule:evenodd"
viewBox="0 0 3439 3085"
 xmlns:xlink="http://www.w3.org/1999/xlink">
 <defs>
  <style type="text/css">
   <![CDATA[
    .str0 {stroke:#FEFEFE;stroke-width:49.9999;stroke-linecap:round;stroke-linejoin:round}
    .fil0 {fill:none;fill-rule:nonzero}
    .fil1 {fill:#008DD2;fill-rule:nonzero}
    .fil2 {fill:#E31E24;fill-rule:nonzero}
   ]]>
  </style>
 </defs>
 <g id="Слой_x0020_1">
  <metadata id="CorelCorpID_0Corel-Layer"/>
  <g>
   <path class="fil0 str0" d="M640 489c6,0 12,0 18,0 0,0 5,0 11,0 12,0 23,-6 35,-11 6,-6 12,-18 12,-41l0 -406 267 0 0 458 40 0 0 134 -81 0 0 -58 -215 0 0 58 -87 0 0 -134 0 0zm163 -58c0,23 -6,41 -6,58l104 0 0 -383 -98 0 0 325 0 0 0 0zm330 12c0,17 6,29 12,40 12,6 17,12 35,12 12,0 23,-6 29,-12 12,-11 12,-23 12,-40l0 -290c0,-18 0,-35 -12,-41 -6,-6 -17,-12 -29,-12 -18,0 -23,6 -35,12 -6,6 -12,23 -12,41l0 290zm-81 -285c0,-40 12,-75 35,-98 17,-23 52,-35 93,-35 41,0 70,12 93,35 23,23 35,58 35,98l0 279c0,41 -12,75 -35,99 -23,23 -52,35 -93,35 -41,0 -76,-12 -93,-35 -23,-24 -35,-58 -35,-99l0 -279zm435 -127c41,0 76,11 93,29 18,23 29,52 29,93l0 17c0,29 -5,52 -11,70 -12,17 -23,29 -41,40 23,6 35,24 47,41 11,23 11,46 11,75l0 41c0,41 -6,75 -29,93 -23,23 -52,35 -93,35l-133 0 0 -534 127 0 0 0zm-46 296l0 162 52 0c12,0 23,-6 29,-11 6,-12 12,-24 12,-41l0 -46c0,-29 -6,-47 -12,-53 -11,-11 -23,-11 -40,-11l-41 0 0 0 0 0zm0 -221l0 140 35 0c17,0 29,0 35,-12 11,-6 17,-23 17,-41l0 -29c0,-23 -6,-35 -12,-46 -5,-6 -17,-12 -34,-12l-41 0 0 0 0 0zm226 -75l82 0 0 534 -82 0 0 -534zm116 458c0,0 6,0 12,0 6,0 12,0 17,0 12,0 24,-6 30,-11 11,-6 17,-18 17,-41l0 -406 261 0 0 458 47 0 0 134 -88 0 0 -58 -214 0 0 58 -82 0 0 -134 0 0 0 0zm157 -58c0,23 0,41 -6,58l105 0 0 -383 -99 0 0 325 0 0 0 0zm372 -81l-29 52 0 163 -82 0 0 -534 82 0 0 232 110 -232 81 0 -116 238 116 296 -81 0 -81 -215 0 0zm475 215l-87 0 -11 -99 -105 0 -17 99 -76 0 88 -534 121 0 87 534 0 0zm-191 -169l81 0 -40 -272 -41 272 0 0 0 0zm-2269 999l-87 0 -12 -99 -104 0 -12 99 -81 0 87 -534 122 0 87 534 0 0zm-192 -169l82 0 -41 -272 -41 272 0 0 0 0zm314 169l-82 0 0 -534 82 0 0 232 93 0 0 -232 87 0 0 534 -87 0 0 -227 -93 0 0 227zm325 0l-82 0 0 -534 221 0 0 75 -139 0 0 459 0 0zm412 -459l-99 0 0 325c0,29 -6,52 -12,70 -5,17 -11,29 -23,40 -11,6 -23,18 -40,18 -12,6 -29,6 -47,6 -6,0 -11,0 -17,0 -6,0 -12,0 -23,0l0 -76c5,0 11,0 17,0 6,0 6,0 12,0 17,0 23,-6 34,-11 12,-6 18,-18 18,-41l0 -406 261 0 0 534 -81 0 0 -459 0 0zm145 -75l81 0 0 534 -81 0 0 -534zm226 534l-81 0 0 -534 70 0 0 319 87 -319 104 0 0 534 -75 0 0 -383 -105 383 0 0zm145 -627l0 64 -185 0 0 -64 185 0zm343 429l0 70c0,41 -12,75 -35,99 -23,23 -52,34 -93,34 -41,0 -70,-11 -93,-34 -23,-24 -29,-58 -29,-99l0 -279c0,-40 6,-75 29,-98 23,-23 52,-35 93,-35 41,0 70,12 93,35 23,23 35,58 35,98l0 53 -82 0 0 -58c0,-18 -5,-29 -11,-41 -6,-6 -18,-12 -35,-12 -12,0 -23,6 -29,12 -6,12 -12,23 -12,41l0 290c0,17 6,35 12,40 6,6 17,12 29,12 17,0 29,-6 35,-12 6,-5 11,-23 11,-40l0 -76 82 0 0 0zm174 122c11,0 23,-6 29,-11 6,-6 11,-18 11,-41l0 -81c0,-18 -5,-29 -11,-35 -6,-12 -18,-12 -29,-12l-41 0 0 180 41 0zm-122 76l0 -534 81 0 0 203 41 0c40,0 75,11 93,29 23,23 29,58 29,99l0 69c0,47 -6,76 -29,99 -18,23 -53,35 -93,35l-122 0zm394 -215l-29 52 0 163 -81 0 0 -534 81 0 0 232 117 -232 81 0 -116 238 116 296 -87 0 -82 -215 0 0zm279 93c0,17 6,35 12,40 11,6 23,12 34,12 12,0 24,-6 30,-12 11,-5 11,-23 11,-40l0 -290c0,-18 0,-29 -11,-41 -6,-6 -18,-12 -30,-12 -11,0 -23,6 -34,12 -6,12 -12,23 -12,41l0 290zm-81 -285c0,-40 11,-75 35,-98 17,-23 52,-35 92,-35 41,0 70,12 93,35 24,23 35,58 35,98l0 279c0,41 -11,75 -35,99 -23,23 -52,34 -93,34 -40,0 -75,-11 -92,-34 -24,-24 -35,-58 -35,-99l0 -279zm389 407l-82 0 0 -534 82 0 0 232 52 0 0 -105c0,-40 11,-75 35,-98 17,-23 52,-35 93,-35 40,0 69,12 92,35 24,23 35,58 35,98l0 279c0,41 -11,75 -35,99 -23,23 -52,34 -92,34 -41,0 -76,-11 -93,-34 -24,-24 -35,-58 -35,-99l0 -99 -52 0 0 227 0 0zm133 -122c0,17 6,35 12,40 11,6 23,12 35,12 11,0 23,-6 29,-12 11,-5 11,-23 11,-40l0 -290c0,-18 0,-29 -11,-41 -6,-6 -18,-12 -29,-12 -12,0 -24,6 -35,12 -6,12 -12,23 -12,41l0 290zm-2165 801l53 -383 122 0 0 534 -82 0 0 -384 -58 384 -81 0 -58 -378 0 378 -76 0 0 -534 117 0 63 383 0 0 0 0zm308 29c0,17 6,34 12,40 11,6 17,12 34,12 12,0 24,-6 29,-12 6,-6 12,-23 12,-40l0 -285c0,-23 -6,-35 -12,-40 -5,-12 -17,-18 -29,-18 -17,0 -23,6 -34,18 -6,5 -12,17 -12,40l0 285zm-81 -285c0,-40 11,-75 29,-98 23,-24 58,-35 98,-35 41,0 70,11 93,35 24,23 29,58 29,98l0 279c0,46 -5,75 -29,99 -23,23 -52,34 -93,34 -40,0 -75,-11 -98,-34 -18,-24 -29,-53 -29,-99l0 -279zm429 -127c47,0 76,11 99,34 17,18 29,47 29,93l0 18c0,29 -6,46 -12,64 -11,23 -23,34 -40,40 17,12 34,23 46,47 6,17 12,40 12,69l0 41c0,46 -12,75 -29,99 -24,17 -53,29 -99,29l-128 0 0 -534 122 0 0 0zm-40 296l0 162 46 0c17,0 29,-6 35,-12 6,-5 11,-23 11,-40l0 -47c0,-23 -5,-40 -11,-52 -12,-6 -23,-11 -41,-11l-40 0 0 0 0 0zm0 -215l0 139 34 0c12,0 29,-6 35,-11 12,-12 12,-24 12,-47l0 -29c0,-17 0,-35 -6,-41 -12,-11 -17,-11 -35,-11l-40 0 0 0 0 0zm301 331c0,17 6,34 12,40 6,6 17,12 29,12 17,0 23,-6 35,-12 6,-6 11,-23 11,-40l0 -285c0,-23 -5,-35 -11,-40 -12,-12 -18,-18 -35,-18 -12,0 -23,6 -29,18 -6,5 -12,17 -12,40l0 285zm-87 -285c0,-40 12,-75 35,-98 23,-24 52,-35 93,-35 41,0 75,11 99,35 17,23 29,58 29,98l0 279c0,46 -12,75 -29,99 -24,23 -58,34 -99,34 -41,0 -70,-11 -93,-34 -23,-24 -35,-53 -35,-99l0 -279zm395 407l-87 0 0 -534 87 0 0 232 52 0 0 -105c0,-40 6,-75 29,-98 23,-24 52,-35 93,-35 41,0 76,11 99,35 17,23 29,58 29,98l0 279c0,46 -12,75 -29,99 -23,23 -58,34 -99,34 -41,0 -70,-11 -93,-34 -23,-24 -29,-53 -29,-99l0 -99 -52 0 0 227 0 0zm133 -122c0,17 6,34 12,40 6,6 17,12 29,12 17,0 29,-6 35,-12 6,-6 12,-23 12,-40l0 -285c0,-23 -6,-35 -12,-40 -6,-12 -18,-18 -35,-18 -12,0 -23,6 -29,18 -6,5 -12,17 -12,40l0 285z"/>
   <path id="1" class="fil1" d="M640 489c6,0 12,0 18,0 0,0 5,0 11,0 12,0 23,-6 35,-11 6,-6 12,-18 12,-41l0 -406 267 0 0 458 40 0 0 134 -81 0 0 -58 -215 0 0 58 -87 0 0 -134 0 0zm163 -58c0,23 -6,41 -6,58l104 0 0 -383 -98 0 0 325 0 0 0 0zm330 12c0,17 6,29 12,40 12,6 17,12 35,12 12,0 23,-6 29,-12 12,-11 12,-23 12,-40l0 -290c0,-18 0,-35 -12,-41 -6,-6 -17,-12 -29,-12 -18,0 -23,6 -35,12 -6,6 -12,23 -12,41l0 290zm-81 -285c0,-40 12,-75 35,-98 17,-23 52,-35 93,-35 41,0 70,12 93,35 23,23 35,58 35,98l0 279c0,41 -12,75 -35,99 -23,23 -52,35 -93,35 -41,0 -76,-12 -93,-35 -23,-24 -35,-58 -35,-99l0 -279zm435 -127c41,0 76,11 93,29 18,23 29,52 29,93l0 17c0,29 -5,52 -11,70 -12,17 -23,29 -41,40 23,6 35,24 47,41 11,23 11,46 11,75l0 41c0,41 -6,75 -29,93 -23,23 -52,35 -93,35l-133 0 0 -534 127 0 0 0zm-46 296l0 162 52 0c12,0 23,-6 29,-11 6,-12 12,-24 12,-41l0 -46c0,-29 -6,-47 -12,-53 -11,-11 -23,-11 -40,-11l-41 0 0 0 0 0zm0 -221l0 140 35 0c17,0 29,0 35,-12 11,-6 17,-23 17,-41l0 -29c0,-23 -6,-35 -12,-46 -5,-6 -17,-12 -34,-12l-41 0 0 0 0 0zm226 -75l82 0 0 534 -82 0 0 -534zm116 458c0,0 6,0 12,0 6,0 12,0 17,0 12,0 24,-6 30,-11 11,-6 17,-18 17,-41l0 -406 261 0 0 458 47 0 0 134 -88 0 0 -58 -214 0 0 58 -82 0 0 -134 0 0 0 0zm157 -58c0,23 0,41 -6,58l105 0 0 -383 -99 0 0 325 0 0 0 0zm372 -81l-29 52 0 163 -82 0 0 -534 82 0 0 232 110 -232 81 0 -116 238 116 296 -81 0 -81 -215 0 0zm475 215l-87 0 -11 -99 -105 0 -17 99 -76 0 88 -534 121 0 87 534 0 0zm-191 -169l81 0 -40 -272 -41 272 0 0 0 0zm-2269 999l-87 0 -12 -99 -104 0 -12 99 -81 0 87 -534 122 0 87 534 0 0zm-192 -169l82 0 -41 -272 -41 272 0 0 0 0zm314 169l-82 0 0 -534 82 0 0 232 93 0 0 -232 87 0 0 534 -87 0 0 -227 -93 0 0 227zm325 0l-82 0 0 -534 221 0 0 75 -139 0 0 459 0 0zm412 -459l-99 0 0 325c0,29 -6,52 -12,70 -5,17 -11,29 -23,40 -11,6 -23,18 -40,18 -12,6 -29,6 -47,6 -6,0 -11,0 -17,0 -6,0 -12,0 -23,0l0 -76c5,0 11,0 17,0 6,0 6,0 12,0 17,0 23,-6 34,-11 12,-6 18,-18 18,-41l0 -406 261 0 0 534 -81 0 0 -459 0 0zm145 -75l81 0 0 534 -81 0 0 -534zm226 534l-81 0 0 -534 70 0 0 319 87 -319 104 0 0 534 -75 0 0 -383 -105 383 0 0zm145 -627l0 64 -185 0 0 -64 185 0zm343 429l0 70c0,41 -12,75 -35,99 -23,23 -52,34 -93,34 -41,0 -70,-11 -93,-34 -23,-24 -29,-58 -29,-99l0 -279c0,-40 6,-75 29,-98 23,-23 52,-35 93,-35 41,0 70,12 93,35 23,23 35,58 35,98l0 53 -82 0 0 -58c0,-18 -5,-29 -11,-41 -6,-6 -18,-12 -35,-12 -12,0 -23,6 -29,12 -6,12 -12,23 -12,41l0 290c0,17 6,35 12,40 6,6 17,12 29,12 17,0 29,-6 35,-12 6,-5 11,-23 11,-40l0 -76 82 0 0 0zm174 122c11,0 23,-6 29,-11 6,-6 11,-18 11,-41l0 -81c0,-18 -5,-29 -11,-35 -6,-12 -18,-12 -29,-12l-41 0 0 180 41 0zm-122 76l0 -534 81 0 0 203 41 0c40,0 75,11 93,29 23,23 29,58 29,99l0 69c0,47 -6,76 -29,99 -18,23 -53,35 -93,35l-122 0zm394 -215l-29 52 0 163 -81 0 0 -534 81 0 0 232 117 -232 81 0 -116 238 116 296 -87 0 -82 -215 0 0zm279 93c0,17 6,35 12,40 11,6 23,12 34,12 12,0 24,-6 30,-12 11,-5 11,-23 11,-40l0 -290c0,-18 0,-29 -11,-41 -6,-6 -18,-12 -30,-12 -11,0 -23,6 -34,12 -6,12 -12,23 -12,41l0 290zm-81 -285c0,-40 11,-75 35,-98 17,-23 52,-35 92,-35 41,0 70,12 93,35 24,23 35,58 35,98l0 279c0,41 -11,75 -35,99 -23,23 -52,34 -93,34 -40,0 -75,-11 -92,-34 -24,-24 -35,-58 -35,-99l0 -279zm389 407l-82 0 0 -534 82 0 0 232 52 0 0 -105c0,-40 11,-75 35,-98 17,-23 52,-35 93,-35 40,0 69,12 92,35 24,23 35,58 35,98l0 279c0,41 -11,75 -35,99 -23,23 -52,34 -92,34 -41,0 -76,-11 -93,-34 -24,-24 -35,-58 -35,-99l0 -99 -52 0 0 227 0 0zm133 -122c0,17 6,35 12,40 11,6 23,12 35,12 11,0 23,-6 29,-12 11,-5 11,-23 11,-40l0 -290c0,-18 0,-29 -11,-41 -6,-6 -18,-12 -29,-12 -12,0 -24,6 -35,12 -6,12 -12,23 -12,41l0 290zm-2165 801l53 -383 122 0 0 534 -82 0 0 -384 -58 384 -81 0 -58 -378 0 378 -76 0 0 -534 117 0 63 383 0 0 0 0zm308 29c0,17 6,34 12,40 11,6 17,12 34,12 12,0 24,-6 29,-12 6,-6 12,-23 12,-40l0 -285c0,-23 -6,-35 -12,-40 -5,-12 -17,-18 -29,-18 -17,0 -23,6 -34,18 -6,5 -12,17 -12,40l0 285zm-81 -285c0,-40 11,-75 29,-98 23,-24 58,-35 98,-35 41,0 70,11 93,35 24,23 29,58 29,98l0 279c0,46 -5,75 -29,99 -23,23 -52,34 -93,34 -40,0 -75,-11 -98,-34 -18,-24 -29,-53 -29,-99l0 -279zm429 -127c47,0 76,11 99,34 17,18 29,47 29,93l0 18c0,29 -6,46 -12,64 -11,23 -23,34 -40,40 17,12 34,23 46,47 6,17 12,40 12,69l0 41c0,46 -12,75 -29,99 -24,17 -53,29 -99,29l-128 0 0 -534 122 0 0 0zm-40 296l0 162 46 0c17,0 29,-6 35,-12 6,-5 11,-23 11,-40l0 -47c0,-23 -5,-40 -11,-52 -12,-6 -23,-11 -41,-11l-40 0 0 0 0 0zm0 -215l0 139 34 0c12,0 29,-6 35,-11 12,-12 12,-24 12,-47l0 -29c0,-17 0,-35 -6,-41 -12,-11 -17,-11 -35,-11l-40 0 0 0 0 0zm301 331c0,17 6,34 12,40 6,6 17,12 29,12 17,0 23,-6 35,-12 6,-6 11,-23 11,-40l0 -285c0,-23 -5,-35 -11,-40 -12,-12 -18,-18 -35,-18 -12,0 -23,6 -29,18 -6,5 -12,17 -12,40l0 285zm-87 -285c0,-40 12,-75 35,-98 23,-24 52,-35 93,-35 41,0 75,11 99,35 17,23 29,58 29,98l0 279c0,46 -12,75 -29,99 -24,23 -58,34 -99,34 -41,0 -70,-11 -93,-34 -23,-24 -35,-53 -35,-99l0 -279zm395 407l-87 0 0 -534 87 0 0 232 52 0 0 -105c0,-40 6,-75 29,-98 23,-24 52,-35 93,-35 41,0 76,11 99,35 17,23 29,58 29,98l0 279c0,46 -12,75 -29,99 -23,23 -58,34 -99,34 -41,0 -70,-11 -93,-34 -23,-24 -29,-53 -29,-99l0 -99 -52 0 0 227 0 0zm133 -122c0,17 6,34 12,40 6,6 17,12 29,12 17,0 29,-6 35,-12 6,-6 12,-23 12,-40l0 -285c0,-23 -6,-35 -12,-40 -6,-12 -18,-18 -35,-18 -12,0 -23,6 -29,18 -6,5 -12,17 -12,40l0 285z"/>
  </g>
  <g id="_823770864">
   <g>
    <path class="fil0 str0" d="M112 2724l41 0c40,0 69,11 93,34 17,24 29,53 29,99l0 70c0,40 -12,75 -29,98 -24,18 -53,29 -93,29l-128 0 0 -528 221 0 0 76 -134 0 0 122 0 0 0 0zm41 255c11,0 23,0 29,-12 5,-5 11,-17 11,-34l0 -82c0,-17 -5,-35 -11,-40 -6,-6 -18,-12 -29,-12l-41 0 0 180 41 0zm255 -232l116 0 0 75 -116 0 0 157 145 0 0 75 -226 0 0 -528 226 0 0 76 -145 0 0 145 0 0 0 0zm354 -93c0,-23 -6,-41 -12,-46 -11,-12 -17,-12 -34,-12 -12,0 -24,0 -29,12 -12,5 -12,17 -12,40l0 58 -81 0 0 -52c0,-46 11,-75 35,-99 17,-23 52,-34 92,-34 41,0 70,11 93,34 18,24 29,53 29,99l0 12c0,58 -17,92 -58,110 23,6 35,23 47,40 5,18 11,41 11,70l0 41c0,46 -11,81 -29,98 -23,24 -52,35 -93,35 -40,0 -75,-11 -92,-35 -24,-17 -35,-52 -35,-98l0 -64 81 0 0 70c0,23 0,34 12,40 5,12 17,12 29,12 17,0 23,0 34,-12 6,-6 12,-23 12,-46l0 -41c0,-29 -6,-46 -17,-52 -6,-12 -18,-18 -41,-18l-12 0 0 -75 18 0c17,0 29,-6 35,-12 11,-11 17,-23 17,-46l0 -29 0 0 0 0zm244 192l-23 46 0 162 -87 0 0 -528 87 0 0 232 110 -232 81 0 -116 238 116 290 -87 0 -81 -208 0 0 0 0zm284 87c0,23 0,34 12,40 6,12 17,12 29,12 11,0 23,0 35,-12 5,-6 11,-17 11,-40l0 -285c0,-23 -6,-35 -11,-40 -12,-12 -24,-12 -35,-12 -12,0 -23,0 -29,12 -12,5 -12,17 -12,40l0 285zm-87 -279c0,-46 12,-75 35,-99 23,-23 52,-34 93,-34 40,0 75,11 93,34 23,24 34,53 34,99l0 273c0,46 -11,81 -34,98 -18,24 -53,35 -93,35 -41,0 -70,-11 -93,-35 -23,-17 -35,-52 -35,-98l0 -273zm546 325l63 0 0 -453 88 0 0 528 -389 0 0 -528 87 0 0 453 64 0 0 -453 87 0 0 453 0 0zm191 -453l256 0 0 76 -88 0 0 452 -81 0 0 -452 -87 0 0 -76 0 0zm372 407c0,23 0,34 11,40 6,12 18,12 29,12 18,0 23,0 35,-12 6,-6 12,-17 12,-40l0 -285c0,-23 -6,-35 -12,-40 -12,-12 -17,-12 -35,-12 -11,0 -23,0 -29,12 -11,5 -11,17 -11,40l0 285zm-87 -279c0,-46 11,-75 34,-99 24,-23 53,-34 93,-34 41,0 76,11 99,34 17,24 29,53 29,99l0 273c0,46 -12,81 -29,98 -23,24 -58,35 -99,35 -40,0 -69,-11 -93,-35 -23,-17 -34,-52 -34,-98l0 -273zm435 -128c46,0 75,6 93,29 23,18 34,53 34,93l0 18c0,29 -5,52 -17,69 -6,18 -23,29 -41,35 24,12 41,23 53,46 5,18 11,41 11,70l0 47c0,40 -11,69 -35,92 -17,24 -52,29 -92,29l-134 0 0 -528 128 0 0 0zm-41 290l0 163 47 0c11,0 23,0 34,-12 6,-5 12,-17 12,-40l0 -47c0,-23 -6,-40 -17,-52 -6,-6 -18,-12 -41,-12l-35 0 0 0 0 0zm0 -214l0 139 29 0c18,0 29,-6 41,-12 6,-11 11,-23 11,-46l0 -29c0,-17 -5,-35 -11,-41 -6,-11 -18,-11 -29,-11l-41 0 0 0 0 0zm308 452l-87 0 0 -528 87 0 0 227 93 0 0 -227 87 0 0 528 -87 0 0 -226 -93 0 0 226zm319 -121c0,23 0,34 12,40 5,12 17,12 29,12 11,0 23,0 29,-12 11,-6 17,-17 17,-40l0 -285c0,-23 -6,-35 -17,-40 -6,-12 -18,-12 -29,-12 -12,0 -24,0 -29,12 -12,5 -12,17 -12,40l0 285zm-87 -279c0,-46 12,-75 35,-99 23,-23 52,-34 93,-34 40,0 75,11 92,34 24,24 35,53 35,99l0 273c0,46 -11,81 -35,98 -17,24 -52,35 -92,35 -41,0 -70,-11 -93,-35 -23,-17 -35,-52 -35,-98l0 -273z"/>
   </g>
   <g>
    <path id="_1" class="fil0 str0" d="M112 2724l41 0c40,0 69,11 93,34 17,24 29,53 29,99l0 70c0,40 -12,75 -29,98 -24,18 -53,29 -93,29l-128 0 0 -528 221 0 0 76 -134 0 0 122 0 0 0 0zm41 255c11,0 23,0 29,-12 5,-5 11,-17 11,-34l0 -82c0,-17 -5,-35 -11,-40 -6,-6 -18,-12 -29,-12l-41 0 0 180 41 0zm255 -232l116 0 0 75 -116 0 0 157 145 0 0 75 -226 0 0 -528 226 0 0 76 -145 0 0 145 0 0 0 0zm354 -93c0,-23 -6,-41 -12,-46 -11,-12 -17,-12 -34,-12 -12,0 -24,0 -29,12 -12,5 -12,17 -12,40l0 58 -81 0 0 -52c0,-46 11,-75 35,-99 17,-23 52,-34 92,-34 41,0 70,11 93,34 18,24 29,53 29,99l0 12c0,58 -17,92 -58,110 23,6 35,23 47,40 5,18 11,41 11,70l0 41c0,46 -11,81 -29,98 -23,24 -52,35 -93,35 -40,0 -75,-11 -92,-35 -24,-17 -35,-52 -35,-98l0 -64 81 0 0 70c0,23 0,34 12,40 5,12 17,12 29,12 17,0 23,0 34,-12 6,-6 12,-23 12,-46l0 -41c0,-29 -6,-46 -17,-52 -6,-12 -18,-18 -41,-18l-12 0 0 -75 18 0c17,0 29,-6 35,-12 11,-11 17,-23 17,-46l0 -29 0 0 0 0zm244 192l-23 46 0 162 -87 0 0 -528 87 0 0 232 110 -232 81 0 -116 238 116 290 -87 0 -81 -208 0 0 0 0zm284 87c0,23 0,34 12,40 6,12 17,12 29,12 11,0 23,0 35,-12 5,-6 11,-17 11,-40l0 -285c0,-23 -6,-35 -11,-40 -12,-12 -24,-12 -35,-12 -12,0 -23,0 -29,12 -12,5 -12,17 -12,40l0 285zm-87 -279c0,-46 12,-75 35,-99 23,-23 52,-34 93,-34 40,0 75,11 93,34 23,24 34,53 34,99l0 273c0,46 -11,81 -34,98 -18,24 -53,35 -93,35 -41,0 -70,-11 -93,-35 -23,-17 -35,-52 -35,-98l0 -273zm546 325l63 0 0 -453 88 0 0 528 -389 0 0 -528 87 0 0 453 64 0 0 -453 87 0 0 453 0 0zm191 -453l256 0 0 76 -88 0 0 452 -81 0 0 -452 -87 0 0 -76 0 0zm372 407c0,23 0,34 11,40 6,12 18,12 29,12 18,0 23,0 35,-12 6,-6 12,-17 12,-40l0 -285c0,-23 -6,-35 -12,-40 -12,-12 -17,-12 -35,-12 -11,0 -23,0 -29,12 -11,5 -11,17 -11,40l0 285zm-87 -279c0,-46 11,-75 34,-99 24,-23 53,-34 93,-34 41,0 76,11 99,34 17,24 29,53 29,99l0 273c0,46 -12,81 -29,98 -23,24 -58,35 -99,35 -40,0 -69,-11 -93,-35 -23,-17 -34,-52 -34,-98l0 -273zm435 -128c46,0 75,6 93,29 23,18 34,53 34,93l0 18c0,29 -5,52 -17,69 -6,18 -23,29 -41,35 24,12 41,23 53,46 5,18 11,41 11,70l0 47c0,40 -11,69 -35,92 -17,24 -52,29 -92,29l-134 0 0 -528 128 0 0 0zm-41 290l0 163 47 0c11,0 23,0 34,-12 6,-5 12,-17 12,-40l0 -47c0,-23 -6,-40 -17,-52 -6,-6 -18,-12 -41,-12l-35 0 0 0 0 0zm0 -214l0 139 29 0c18,0 29,-6 41,-12 6,-11 11,-23 11,-46l0 -29c0,-17 -5,-35 -11,-41 -6,-11 -18,-11 -29,-11l-41 0 0 0 0 0zm308 452l-87 0 0 -528 87 0 0 227 93 0 0 -227 87 0 0 528 -87 0 0 -226 -93 0 0 226zm319 -121c0,23 0,34 12,40 5,12 17,12 29,12 11,0 23,0 29,-12 11,-6 17,-17 17,-40l0 -285c0,-23 -6,-35 -17,-40 -6,-12 -18,-12 -29,-12 -12,0 -24,0 -29,12 -12,5 -12,17 -12,40l0 285zm-87 -279c0,-46 12,-75 35,-99 23,-23 52,-34 93,-34 40,0 75,11 92,34 24,24 35,53 35,99l0 273c0,46 -11,81 -35,98 -17,24 -52,35 -92,35 -41,0 -70,-11 -93,-35 -23,-17 -35,-52 -35,-98l0 -273z"/>
    <path id="1" class="fil2" d="M112 2724l41 0c40,0 69,11 93,34 17,24 29,53 29,99l0 70c0,40 -12,75 -29,98 -24,18 -53,29 -93,29l-128 0 0 -528 221 0 0 76 -134 0 0 122 0 0 0 0zm41 255c11,0 23,0 29,-12 5,-5 11,-17 11,-34l0 -82c0,-17 -5,-35 -11,-40 -6,-6 -18,-12 -29,-12l-41 0 0 180 41 0zm255 -232l116 0 0 75 -116 0 0 157 145 0 0 75 -226 0 0 -528 226 0 0 76 -145 0 0 145 0 0 0 0zm354 -93c0,-23 -6,-41 -12,-46 -11,-12 -17,-12 -34,-12 -12,0 -24,0 -29,12 -12,5 -12,17 -12,40l0 58 -81 0 0 -52c0,-46 11,-75 35,-99 17,-23 52,-34 92,-34 41,0 70,11 93,34 18,24 29,53 29,99l0 12c0,58 -17,92 -58,110 23,6 35,23 47,40 5,18 11,41 11,70l0 41c0,46 -11,81 -29,98 -23,24 -52,35 -93,35 -40,0 -75,-11 -92,-35 -24,-17 -35,-52 -35,-98l0 -64 81 0 0 70c0,23 0,34 12,40 5,12 17,12 29,12 17,0 23,0 34,-12 6,-6 12,-23 12,-46l0 -41c0,-29 -6,-46 -17,-52 -6,-12 -18,-18 -41,-18l-12 0 0 -75 18 0c17,0 29,-6 35,-12 11,-11 17,-23 17,-46l0 -29 0 0 0 0zm244 192l-23 46 0 162 -87 0 0 -528 87 0 0 232 110 -232 81 0 -116 238 116 290 -87 0 -81 -208 0 0 0 0zm284 87c0,23 0,34 12,40 6,12 17,12 29,12 11,0 23,0 35,-12 5,-6 11,-17 11,-40l0 -285c0,-23 -6,-35 -11,-40 -12,-12 -24,-12 -35,-12 -12,0 -23,0 -29,12 -12,5 -12,17 -12,40l0 285zm-87 -279c0,-46 12,-75 35,-99 23,-23 52,-34 93,-34 40,0 75,11 93,34 23,24 34,53 34,99l0 273c0,46 -11,81 -34,98 -18,24 -53,35 -93,35 -41,0 -70,-11 -93,-35 -23,-17 -35,-52 -35,-98l0 -273zm546 325l63 0 0 -453 88 0 0 528 -389 0 0 -528 87 0 0 453 64 0 0 -453 87 0 0 453 0 0zm191 -453l256 0 0 76 -88 0 0 452 -81 0 0 -452 -87 0 0 -76 0 0zm372 407c0,23 0,34 11,40 6,12 18,12 29,12 18,0 23,0 35,-12 6,-6 12,-17 12,-40l0 -285c0,-23 -6,-35 -12,-40 -12,-12 -17,-12 -35,-12 -11,0 -23,0 -29,12 -11,5 -11,17 -11,40l0 285zm-87 -279c0,-46 11,-75 34,-99 24,-23 53,-34 93,-34 41,0 76,11 99,34 17,24 29,53 29,99l0 273c0,46 -12,81 -29,98 -23,24 -58,35 -99,35 -40,0 -69,-11 -93,-35 -23,-17 -34,-52 -34,-98l0 -273zm435 -128c46,0 75,6 93,29 23,18 34,53 34,93l0 18c0,29 -5,52 -17,69 -6,18 -23,29 -41,35 24,12 41,23 53,46 5,18 11,41 11,70l0 47c0,40 -11,69 -35,92 -17,24 -52,29 -92,29l-134 0 0 -528 128 0 0 0zm-41 290l0 163 47 0c11,0 23,0 34,-12 6,-5 12,-17 12,-40l0 -47c0,-23 -6,-40 -17,-52 -6,-6 -18,-12 -41,-12l-35 0 0 0 0 0zm0 -214l0 139 29 0c18,0 29,-6 41,-12 6,-11 11,-23 11,-46l0 -29c0,-17 -5,-35 -11,-41 -6,-11 -18,-11 -29,-11l-41 0 0 0 0 0zm308 452l-87 0 0 -528 87 0 0 227 93 0 0 -227 87 0 0 528 -87 0 0 -226 -93 0 0 226zm319 -121c0,23 0,34 12,40 5,12 17,12 29,12 11,0 23,0 29,-12 11,-6 17,-17 17,-40l0 -285c0,-23 -6,-35 -17,-40 -6,-12 -18,-12 -29,-12 -12,0 -24,0 -29,12 -12,5 -12,17 -12,40l0 285zm-87 -279c0,-46 12,-75 35,-99 23,-23 52,-34 93,-34 40,0 75,11 92,34 24,24 35,53 35,99l0 273c0,46 -11,81 -35,98 -17,24 -52,35 -92,35 -41,0 -70,-11 -93,-35 -23,-17 -35,-52 -35,-98l0 -273z"/>
   </g>
  </g>
 </g>
</svg>
