<?xml version="1.0" encoding="UTF-8"?>
<!DOCTYPE svg PUBLIC "-//W3C//DTD SVG 1.1//EN" "http://www.w3.org/Graphics/SVG/1.1/DTD/svg11.dtd">
<!-- Creator: CorelDRAW X7 -->
<svg xmlns="http://www.w3.org/2000/svg" xml:space="preserve" width="40.1964mm" height="34.1401mm" version="1.1" style="shape-rendering:geometricPrecision; text-rendering:geometricPrecision; image-rendering:optimizeQuality; fill-rule:evenodd; clip-rule:evenodd"
viewBox="0 0 6263 5320"
 xmlns:xlink="http://www.w3.org/1999/xlink">
 <defs>
  <style type="text/css">
   <![CDATA[
    .fil0 {fill:#005487}
    .fil2 {fill:#E74B37}
    .fil1 {fill:white}
   ]]>
  </style>
 </defs>
 <g id="Слой_x0020_1">
  <metadata id="CorelCorpID_0Corel-Layer"/>
  <path class="fil0" d="M4522 1342c0,-608 -496,-1103 -1104,-1103 -611,0 -1107,495 -1107,1103l-119 0c0,643 523,1165 1165,1165 645,0 1165,-519 1165,-1165z"/>
  <path class="fil1" d="M3545 1004c58,7 105,21 150,45 106,54 171,157 205,252 3,11 7,21 10,28 3,10 7,24 10,34 41,184 4,376 -112,516 -11,13 -21,20 -31,34l20 0 127 0 0 239 -1192 0 0 -239 433 0c137,0 345,-103 427,-202 4,-3 7,-6 11,-13 3,-4 6,-7 10,-11 51,-64 68,-157 51,-246 0,-6 -3,-10 -3,-17 0,-3 -4,-6 -4,-13 -17,-45 -44,-96 -92,-120 -20,-10 -41,-17 -68,-20 -72,-7 -137,20 -178,61l-143 205 -62 -27 -61 99 -164 -75 68 -99 -55 -24 615 -882 55 24 68 -99 164 75 -68 100 55 23 -246 352zm-407 837l-543 -253 68 -99 540 253 -65 99z"/>
  <path class="fil2" d="M5739 4353c10,-68 252,-123 246,-10 -4,75 -41,99 -144,106l-119 3 17 -99zm-656 -300c-41,0 -82,13 -116,34 -35,24 -62,58 -82,99 -21,41 -31,85 -31,133 0,31 7,58 24,79 13,20 37,30 65,30 13,0 30,-3 48,-10 17,-7 41,-20 71,-38l52 -327 -31 0zm-222 601c-55,0 -106,-17 -151,-48 -44,-31 -75,-75 -99,-127 -24,-51 -34,-109 -34,-170 0,-52 7,-103 24,-154 17,-55 48,-106 89,-154 41,-48 102,-89 181,-116 75,-31 171,-44 283,-44 48,0 86,3 117,7 30,3 71,10 129,17l14 3 -119 772 -274 0 11 -48c-21,17 -41,28 -59,38 -30,17 -68,24 -112,24zm-506 -1083l-253 0 -522 1066 61 0 209 0 27 0 283 -598 103 598 20 0 28 0 174 0 55 0 -185 -1066zm1069 1062c171,14 455,51 649,-31 113,-47 171,-112 188,-252 34,-297 -328,-321 -488,-243l17 -92c102,-14 222,-24 328,-17 10,-62 17,-123 24,-185 -222,-20 -455,-6 -595,38l0 3 -10 0 -113 779z"/>
  <path class="fil0" d="M2029 4162c0,-4 -3,-4 -3,-7 0,-99 -38,-113 -65,-113 -65,0 -103,72 -113,120l181 0zm-629 -584l-286 0 -328 625 -151 -625 -293 0 -342 1065 287 0 201 -635 154 635 178 0 324 -614 28 614 280 0 -52 -1065zm1551 782c0,-106 0,-174 0,-280 -34,-10 -75,-10 -99,0l-92 280 191 0zm270 0l116 0 -13 328 -291 0 7 -109 -437 0 -27 109 -287 0 82 -328 109 0 188 -499c160,-31 338,-27 509,0l44 499zm-1093 -482c-51,-27 -106,-41 -164,-41 -78,0 -150,21 -215,62 -133,85 -202,232 -202,389 0,55 11,110 31,164 21,55 65,106 123,144 58,41 144,61 246,61 48,0 89,-3 120,-10 30,-7 75,-24 126,-45l7 -3 44 -225 -27 13c-55,24 -99,41 -140,51 -38,11 -82,18 -130,18 -85,0 -126,-41 -133,-123l461 0 7 -17c7,-38 10,-79 10,-113 0,-130 -44,-260 -164,-325z"/>
  <path class="fil0" d="M6196 5101c-7,0 -17,0 -27,0 -34,0 -58,-17 -58,-44 0,-34 27,-45 55,-45 13,0 23,0 30,4l0 85zm-99 150c4,-6 7,-13 11,-20 10,-24 17,-62 34,-82 6,-7 20,-14 34,-14l20 0 0 113 52 0 0 -273c-21,-4 -48,-7 -76,-7 -34,0 -64,7 -85,20 -17,14 -27,35 -27,59 0,40 27,61 61,68 -10,3 -17,7 -24,13 -20,21 -27,59 -41,89 -3,11 -7,21 -13,28l54 0 0 6zm-235 -276l0 276 51 0 0 -276 -51 0zm-2668 160l20 -68c4,-17 11,-38 14,-51 3,17 10,34 14,51l20 68 -68 0zm78 38l24 78 55 0 -92 -276 -65 0 -89 276 51 0 24 -78 92 0zm2309 -161c7,0 14,-3 31,-3 34,0 58,17 58,48 0,34 -24,51 -61,51 -10,0 -17,0 -24,-3l0 -93 -4 0zm-47 239l51 0 0 -105c7,0 14,0 24,0 37,0 68,-11 89,-31 17,-14 24,-38 24,-65 0,-27 -11,-48 -28,-62 -17,-13 -44,-23 -82,-23 -34,0 -58,3 -78,6l0 280zm-274 -239c52,0 76,52 76,103 0,58 -28,102 -76,102 -47,0 -78,-44 -78,-102 3,-58 27,-103 78,-103zm4 -41c-79,0 -133,62 -133,147 0,82 47,140 126,140 75,0 133,-54 133,-147 0,-78 -48,-140 -126,-140zm-366 280l52 0 0 -235 78 0 0 -41 -212 0 0 41 79 0 0 235 3 0zm-328 -116l21 -68c3,-17 10,-38 14,-51 3,17 6,34 13,51l21 68 -69 0zm82 38l24 78 55 0 -89 -276 -65 0 -89 276 52 0 24 -78 88 0zm-392 -161c6,0 13,-3 30,-3 34,0 58,17 58,48 0,34 -24,51 -61,51 -10,0 -17,0 -24,-3l0 -93 -3 0zm-52 239l52 0 0 -105c6,0 13,0 23,0 38,0 69,-11 89,-31 17,-14 24,-38 24,-65 0,-27 -10,-48 -27,-62 -17,-13 -45,-23 -82,-23 -34,0 -58,3 -79,6l0 280zm-270 -239c52,0 76,52 76,103 0,58 -28,102 -76,102 -47,0 -78,-44 -78,-102 0,-58 27,-103 78,-103zm0 -41c-78,0 -133,62 -133,147 0,82 51,140 127,140 78,0 133,-54 133,-147 3,-78 -45,-140 -127,-140zm-399 144c7,0 17,0 24,0 17,0 34,3 48,13 10,7 17,21 17,38 0,14 -7,27 -14,38 -10,10 -31,17 -48,17 -10,0 -20,0 -27,0l0 -106zm-51 -140l0 276c13,0 34,4 61,4 41,0 82,-10 106,-31 14,-14 24,-34 24,-61 0,-31 -14,-55 -34,-69 -21,-13 -48,-20 -75,-20 -11,0 -24,0 -35,3l0 -61 120 0 0 -41 -167 0zm-690 0l0 119c0,45 -4,89 -24,106 -7,7 -17,14 -31,14l7 41c20,0 37,-7 51,-14 41,-24 48,-85 48,-154l0 -75 75 0 0 236 51 0 0 -277 -177 0 0 4zm-489 160l21 -68c3,-17 10,-38 13,-51 4,17 11,34 14,51l20 68 -68 0zm79 38l24 78 54 0 -92 -276 -65 0 -89 276 52 0 23 -78 93 0zm-520 -198l0 276 52 0 0 -123 116 0 0 123 51 0 0 -276 -51 0 0 112 -116 0 0 -112 -52 0zm-355 0l0 92c0,61 41,85 86,85 24,0 44,-3 65,-17l0 116 51 0 0 -276 -51 0 0 123c-14,7 -31,13 -48,13 -34,0 -52,-17 -52,-51l0 -85 -51 0zm-372 0l0 276 58 0 72 -116c17,-30 37,-65 51,-95 -3,37 -3,71 -3,116l0 99 47 0 0 -277 -51 0 -75 127c-17,30 -38,64 -51,95 3,-37 3,-78 3,-123l0 -99 -51 0 0 -3zm-287 41l72 0 0 194 -106 0c7,-13 13,-30 20,-51 11,-31 14,-65 14,-102l0 -41zm-48 -41l0 72c0,40 -3,75 -10,102 -7,20 -17,41 -27,61l-24 0 3 110 38 0 3 -69 167 0 4 69 37 0 4 -110 -27 0 0 -239 -168 0 0 4zm-195 112l-105 0 0 -71 112 0 0 -41 -160 0 0 276 167 0 0 -41 -119 0 0 -82 105 0 0 -41zm-355 164l51 0 -17 -276 -65 0 -37 112c-10,35 -21,69 -27,96 -7,-31 -18,-65 -24,-96l-38 -112 -68 0 -17 276 47 0 7 -112c4,-38 4,-82 4,-120 7,34 17,72 27,109l38 120 37 0 41 -120c14,-34 24,-71 34,-105 0,37 0,82 4,116l3 112z"/>
  <path class="fil2" d="M4522 1342c0,-608 -496,-1103 -1104,-1103 -611,0 -1107,495 -1107,1103l-119 0c0,643 523,1165 1165,1165 645,0 1165,-519 1165,-1165zm-1165 -1342c741,0 1346,601 1346,1342 0,711 -574,1285 -1285,1285 -710,0 -1284,-574 -1284,-1285l-120 0c0,-741 601,-1342 1343,-1342z"/>
 </g>
</svg>
