<?xml version="1.0" encoding="UTF-8"?>
<!DOCTYPE svg PUBLIC "-//W3C//DTD SVG 1.1//EN" "http://www.w3.org/Graphics/SVG/1.1/DTD/svg11.dtd">
<!-- Creator: CorelDRAW X7 -->
<svg xmlns="http://www.w3.org/2000/svg" xml:space="preserve" width="2.8151mm" height="31.7118mm" version="1.1" style="shape-rendering:geometricPrecision; text-rendering:geometricPrecision; image-rendering:optimizeQuality; fill-rule:evenodd; clip-rule:evenodd"
viewBox="0 0 146 1643"
 xmlns:xlink="http://www.w3.org/1999/xlink">
 <defs>
  <style type="text/css">
   <![CDATA[
    .fil1 {fill:#E31E24;fill-rule:nonzero}
    .fil0 {fill:#1B4E9B;fill-rule:nonzero}
   ]]>
  </style>
 </defs>
 <g id="Слой_x0020_1">
  <metadata id="CorelCorpID_0Corel-Layer"/>
  <g id="_803334848">
   <path class="fil0" d="M143 1530c0,0 1,0 1,0 0,0 1,1 1,2 0,0 1,1 1,3 0,1 0,3 0,5 0,2 0,3 0,4 0,2 -1,3 -1,3 0,1 -1,2 -1,2 0,0 -1,0 -1,0l-26 0 0 74 26 0c0,0 1,0 1,1 0,0 1,1 1,1 0,1 1,2 1,3 0,2 0,3 0,5 0,2 0,4 0,5 0,1 -1,2 -1,3 0,1 -1,1 -1,2 0,0 -1,0 -1,0l-40 0c-2,0 -3,0 -4,-1 -1,0 -1,-2 -1,-3l0 -5c-2,-1 -4,-3 -6,-4 -2,-1 -4,-2 -7,-4 -3,-1 -6,-2 -10,-3 -4,-1 -9,-2 -15,-3 -5,-1 -12,-2 -20,-4 -7,-1 -17,-2 -27,-3 -3,0 -4,-1 -6,-2 -1,-1 -1,-2 -1,-4l0 -57c0,-2 0,-4 1,-5 2,-1 3,-2 6,-2l85 0 0 -9c0,-2 1,-3 1,-3 1,-1 2,-1 4,-1l40 0zm-119 36l0 26c9,1 16,2 23,3 6,1 12,2 17,3 5,1 9,2 13,3 4,1 7,2 9,3 3,1 5,2 7,3 2,2 4,3 5,4l0 -45 -74 0zm90 -72c0,0 1,0 1,0 1,0 1,1 1,2 0,1 1,2 1,3 0,2 0,3 0,5 0,3 0,4 0,6 0,1 -1,2 -1,3 0,1 0,1 -1,2 0,0 -1,0 -1,0l-77 0c0,0 -1,0 -1,0 -1,-1 -1,-1 -1,-2 -1,-1 -1,-2 -1,-3 0,-2 0,-3 0,-6 0,-2 0,-3 0,-5 0,-1 0,-2 1,-3 0,-1 0,-2 1,-2 0,0 1,0 1,0l77 0zm-103 -2c5,0 7,1 9,3 2,1 3,5 3,9 0,5 -1,9 -3,10 -1,2 -4,3 -8,3 -5,0 -8,-1 -9,-3 -2,-2 -3,-5 -3,-10 0,-5 1,-8 2,-10 2,-1 5,-2 9,-2zm103 -85c1,0 1,0 2,1 0,0 1,1 1,3 0,1 0,3 0,5 0,3 0,4 0,6 0,1 -1,2 -1,2 -1,1 -1,1 -2,1l-6 0c3,3 6,7 8,11 2,4 2,8 2,13 0,4 0,8 -1,11 -1,4 -3,7 -5,9 -2,2 -4,4 -8,6 -3,1 -6,2 -10,2 -5,0 -9,-1 -12,-3 -3,-2 -6,-4 -8,-8 -2,-3 -4,-7 -5,-12 -1,-6 -1,-12 -1,-18l0 -8 -5 0c-2,0 -5,0 -6,1 -2,0 -4,1 -5,2 -1,1 -2,3 -3,5 0,2 0,4 0,7 0,3 0,6 1,9 1,3 2,6 2,8 1,2 2,4 3,5 1,2 1,3 1,4 0,0 0,1 0,1 -1,1 -1,1 -2,2 -1,0 -2,0 -3,0 -1,1 -2,1 -3,1 -2,0 -3,-1 -4,-1 -2,0 -2,-1 -3,-1 -1,-1 -2,-3 -3,-5 -1,-2 -2,-4 -3,-7 -1,-2 -1,-5 -2,-8 0,-4 -1,-7 -1,-10 0,-6 1,-11 2,-16 1,-4 3,-7 5,-10 3,-3 6,-5 10,-6 4,-1 8,-2 13,-2l52 0zm-33 21l0 8c0,4 0,7 1,9 0,3 1,5 2,6 1,2 2,3 4,4 1,0 3,1 5,1 3,0 6,-1 7,-3 2,-2 3,-5 3,-9 0,-3 -1,-5 -2,-8 -2,-3 -4,-5 -7,-8l-13 0zm-37 -92c1,0 3,0 4,0 1,0 2,0 3,1 1,0 1,0 2,1 0,0 0,0 0,1l0 25 61 0c0,0 1,0 1,0 1,1 1,1 1,2 0,1 1,2 1,3 0,2 0,4 0,6 0,2 0,4 0,5 0,1 -1,2 -1,3 0,1 0,2 -1,2 0,0 -1,0 -1,0l-73 0c-2,0 -4,0 -5,-1 -1,-1 -2,-2 -2,-5l0 -40c0,-1 0,-1 1,-1 0,-1 1,-1 1,-1 1,-1 2,-1 3,-1 1,0 3,0 5,0zm70 -87c0,0 1,0 1,1 1,0 1,1 1,1 0,1 1,2 1,4 0,1 0,3 0,5 0,2 0,4 0,5 0,2 -1,3 -1,4 0,0 0,1 -1,1 0,1 -1,1 -1,1l-30 0 0 31 30 0c0,0 1,0 1,0 1,0 1,1 1,2 0,1 1,2 1,3 0,2 0,3 0,5 0,3 0,4 0,6 0,1 -1,2 -1,3 0,1 0,1 -1,2 0,0 -1,0 -1,0l-77 0c0,0 -1,0 -1,0 -1,-1 -1,-1 -1,-2 -1,-1 -1,-2 -1,-3 0,-2 0,-3 0,-6 0,-2 0,-3 0,-5 0,-1 0,-2 1,-3 0,-1 0,-2 1,-2 0,0 1,0 1,0l29 0 0 -31 -29 0c0,0 -1,0 -1,-1 -1,0 -1,-1 -1,-1 -1,-1 -1,-2 -1,-4 0,-1 0,-3 0,-5 0,-2 0,-4 0,-5 0,-2 0,-3 1,-4 0,0 0,-1 1,-1 0,-1 1,-1 1,-1l77 0zm-39 -99c6,0 12,1 17,3 6,2 10,4 14,8 4,3 7,7 9,13 2,5 3,11 3,18 0,7 0,13 -2,18 -2,5 -5,9 -9,12 -3,4 -8,6 -13,8 -5,1 -11,2 -18,2 -6,0 -12,-1 -18,-2 -5,-2 -10,-5 -14,-8 -3,-4 -6,-8 -9,-13 -2,-6 -3,-12 -3,-19 0,-7 1,-13 3,-18 2,-5 5,-9 8,-12 4,-3 8,-6 14,-7 5,-2 11,-3 18,-3zm0 22c-3,0 -7,1 -10,1 -3,1 -6,2 -8,3 -3,2 -4,4 -6,6 -1,2 -2,5 -2,9 0,3 1,6 2,9 1,2 3,4 5,5 2,2 5,3 8,4 4,1 7,1 11,1 4,0 7,0 11,-1 3,0 6,-1 8,-3 2,-1 4,-3 5,-6 2,-2 2,-5 2,-9 0,-3 0,-6 -1,-8 -2,-3 -3,-5 -6,-6 -2,-2 -5,-3 -8,-4 -3,0 -6,-1 -11,-1zm26 -97c2,0 3,0 4,0 1,1 2,1 3,1 0,0 1,0 1,0 1,1 1,1 2,2 1,0 2,2 2,3 1,2 2,4 3,6 1,2 1,4 2,7 0,2 0,5 0,7 0,6 0,12 -2,16 -2,5 -5,8 -8,12 -4,3 -8,5 -13,6 -6,2 -12,3 -18,3 -8,0 -14,-1 -20,-3 -6,-2 -10,-5 -14,-8 -4,-3 -6,-8 -8,-12 -2,-5 -3,-10 -3,-16 0,-2 1,-4 1,-6 0,-3 1,-5 2,-7 0,-1 1,-3 2,-5 1,-1 1,-2 2,-3 1,-1 1,-1 2,-1 0,0 1,-1 1,-1 1,0 2,0 3,0 1,0 2,0 4,0 3,0 5,0 7,1 1,0 2,1 2,2 0,1 -1,2 -2,3 0,1 -1,2 -2,4 -1,1 -2,3 -3,5 -1,2 -1,5 -1,7 0,6 2,10 6,13 5,3 11,5 19,5 4,0 8,-1 11,-1 3,-1 6,-2 8,-4 2,-1 4,-3 5,-5 1,-2 1,-5 1,-8 0,-3 0,-5 -1,-8 -1,-2 -2,-4 -3,-5 -1,-2 -2,-3 -3,-4 -1,-1 -1,-2 -1,-3 0,0 0,-1 0,-1 1,-1 1,-1 2,-1 1,0 2,0 3,0 1,-1 3,-1 4,-1zm-57 -72c2,0 3,0 4,0 2,0 3,1 3,1 1,0 2,0 2,1 0,0 0,1 0,1l0 20 61 0c0,0 1,0 1,0 1,0 1,1 1,2 0,1 1,2 1,3 0,2 0,3 0,5 0,2 0,4 0,6 0,1 -1,2 -1,3 0,1 0,1 -1,2 0,0 -1,0 -1,0l-61 0 0 19c0,1 0,1 0,2 0,0 -1,1 -2,1 0,0 -1,0 -3,0 -1,1 -3,1 -5,1 -1,0 -3,0 -4,-1 -1,0 -2,0 -3,0 0,-1 -1,-1 -1,-1 -1,-1 -1,-1 -1,-2l0 -60c0,0 0,-1 1,-1 0,-1 1,-1 1,-1 1,0 2,-1 3,-1 1,0 3,0 5,0zm70 -88c0,0 1,0 1,1 1,0 1,0 1,1 1,1 1,2 1,3 0,2 0,3 0,6 0,2 0,3 0,5 0,1 0,2 -1,3 0,1 0,2 -1,2 0,0 -1,1 -1,1l-34 0c-3,0 -5,0 -8,-1 -2,0 -5,0 -7,0 2,1 5,3 7,4 2,2 4,3 7,5l35 26c0,0 1,1 1,1 1,1 1,1 1,2 1,1 1,2 1,3 0,1 0,2 0,4 0,2 0,4 0,5 0,1 0,2 -1,3 0,1 0,1 -1,2 0,0 -1,0 -1,0l-77 0c0,0 -1,0 -1,0 -1,-1 -1,-1 -1,-2 -1,-1 -1,-2 -1,-3 0,-2 0,-3 0,-5 0,-4 0,-7 1,-9 0,-2 1,-2 2,-2l34 0c2,0 5,0 7,0 3,0 5,0 8,1 -3,-2 -5,-3 -7,-5 -2,-1 -5,-3 -7,-4l-35 -26c-1,-1 -1,-1 -2,-2 0,0 0,-1 -1,-2 0,0 0,-1 0,-2 0,-2 0,-3 0,-5 0,-2 0,-3 0,-5 0,-1 0,-2 0,-3 1,-1 1,-1 2,-1 0,-1 1,-1 1,-1l77 0zm1 -93c0,0 0,0 1,0 0,1 0,1 0,2 1,1 1,2 1,3 0,2 0,3 0,5 0,3 0,5 0,6 0,2 0,3 -1,4 0,1 0,2 0,2 -1,0 -1,1 -2,1l-18 7c-3,1 -5,2 -6,3 -2,1 -3,2 -4,3 -1,1 -2,3 -3,4 0,2 0,4 0,6l0 4 31 0c0,0 1,0 1,1 1,0 1,1 1,1 0,1 1,2 1,4 0,1 0,3 0,5 0,2 0,3 0,5 0,1 -1,2 -1,3 0,1 0,2 -1,2 0,0 -1,1 -1,1l-77 0c-1,0 -1,-1 -2,-1 0,0 0,-1 0,-2 -1,-1 -1,-2 -1,-3 0,-2 0,-3 0,-5 0,-2 0,-4 0,-5 0,-2 0,-3 1,-4 0,0 0,-1 0,-1 1,-1 1,-1 2,-1l29 0 0 -4c0,-2 0,-4 0,-5 -1,-2 -1,-3 -2,-4 -1,-1 -3,-2 -4,-3 -2,-1 -4,-2 -7,-3l-16 -7c-1,0 -1,0 -2,-1 0,0 0,-1 -1,-1 0,-1 0,-2 0,-4 0,-1 0,-3 0,-6 0,-2 0,-3 0,-5 0,-1 0,-2 0,-3 1,-1 1,-1 1,-2 1,0 1,0 1,0 1,0 2,0 2,0 1,1 2,1 4,2l14 6c3,1 6,2 8,3 2,2 3,3 5,5 1,1 2,2 3,4 1,1 1,3 2,4l0 0c1,-2 1,-4 2,-5 1,-2 2,-3 4,-4 1,-2 3,-3 5,-4 2,-2 4,-3 7,-4l17 -8c1,0 2,0 2,-1 1,0 1,0 2,0 0,0 0,0 1,0 0,0 0,0 1,0zm-1 -78c1,0 1,0 2,1 0,0 1,1 1,2 0,2 0,3 0,6 0,2 0,4 0,5 0,2 -1,2 -1,3 -1,0 -1,1 -2,1l-6 0c3,3 6,6 8,10 2,4 2,9 2,14 0,4 0,8 -1,11 -1,3 -3,6 -5,9 -2,2 -4,4 -8,6 -3,1 -6,2 -10,2 -5,0 -9,-1 -12,-3 -3,-2 -6,-4 -8,-8 -2,-3 -4,-7 -5,-13 -1,-5 -1,-11 -1,-18l0 -7 -5 0c-2,0 -5,0 -6,1 -2,0 -4,1 -5,2 -1,1 -2,3 -3,5 0,1 0,4 0,6 0,4 0,7 1,10 1,3 2,5 2,8 1,2 2,4 3,5 1,2 1,3 1,4 0,0 0,1 0,1 -1,1 -1,1 -2,1 -1,1 -2,1 -3,1 -1,0 -2,0 -3,0 -2,0 -3,0 -4,0 -2,0 -2,-1 -3,-2 -1,0 -2,-2 -3,-4 -1,-2 -2,-4 -3,-7 -1,-3 -1,-5 -2,-9 0,-3 -1,-6 -1,-9 0,-6 1,-12 2,-16 1,-4 3,-8 5,-10 3,-3 6,-5 10,-6 4,-2 8,-2 13,-2l52 0zm-33 21l0 8c0,4 0,7 1,9 0,3 1,5 2,6 1,2 2,3 4,4 1,0 3,1 5,1 3,0 6,-1 7,-3 2,-2 3,-5 3,-9 0,-3 -1,-6 -2,-8 -2,-3 -4,-5 -7,-8l-13 0z"/>
   <path class="fil1" d="M100 605c1,0 2,0 3,0 1,0 2,0 3,0 1,0 1,1 2,1 0,0 1,1 2,1 0,1 1,2 2,4 1,2 2,4 3,6 1,3 2,6 2,9 1,4 1,7 1,11 0,8 -1,15 -3,21 -3,6 -6,11 -11,15 -4,5 -10,8 -17,10 -7,2 -15,4 -24,4 -10,0 -18,-2 -26,-4 -7,-3 -13,-6 -18,-11 -5,-4 -9,-10 -11,-16 -3,-6 -4,-13 -4,-21 0,-3 0,-6 1,-9 0,-3 1,-5 2,-8 0,-2 1,-4 3,-6 1,-2 2,-3 2,-4 1,-1 2,-2 2,-2 1,0 1,0 2,0 1,-1 2,-1 3,-1 1,0 2,0 4,0 2,0 3,0 4,0 2,0 3,0 3,1 1,0 2,0 2,1 0,0 0,1 0,1 0,1 0,2 -1,3 -1,2 -2,3 -3,6 -2,2 -3,4 -4,7 -1,3 -1,6 -1,10 0,5 1,9 3,12 1,3 4,6 7,9 4,2 8,4 12,5 5,2 10,2 16,2 7,0 12,0 17,-2 5,-1 9,-3 12,-6 3,-2 5,-5 7,-9 1,-3 2,-7 2,-11 0,-4 0,-8 -1,-11 -1,-3 -2,-5 -3,-7 -1,-2 -2,-4 -3,-5 -1,-2 -2,-3 -2,-3 0,-1 0,-1 1,-2 0,0 0,0 1,-1 1,0 2,0 3,0 1,0 3,0 5,0zm-40 -115c9,0 17,1 24,3 8,3 14,6 19,11 5,4 9,10 12,16 2,7 3,15 3,24 0,8 -1,16 -3,22 -2,6 -6,12 -10,16 -5,4 -11,8 -18,10 -7,2 -15,3 -25,3 -9,0 -17,-1 -24,-3 -8,-3 -14,-6 -19,-11 -5,-4 -9,-10 -11,-16 -3,-7 -4,-15 -4,-24 0,-8 1,-15 3,-22 2,-6 6,-12 10,-16 5,-4 11,-7 18,-10 7,-2 15,-3 25,-3zm1 24c-6,0 -11,0 -16,1 -5,1 -9,3 -12,5 -4,2 -6,5 -8,9 -2,3 -3,8 -3,13 0,6 1,10 3,14 2,4 5,7 9,9 3,2 7,4 12,5 4,1 9,1 15,1 6,0 11,0 16,-1 5,-1 9,-3 12,-5 4,-2 6,-5 8,-8 2,-4 3,-9 3,-14 0,-6 -1,-10 -3,-14 -2,-4 -5,-7 -9,-9 -3,-2 -7,-4 -12,-5 -5,-1 -10,-1 -15,-1zm52 -95c1,0 1,0 2,1 1,0 1,1 1,2 1,1 1,3 1,4 0,2 0,4 0,7 0,3 0,5 0,6 0,2 0,3 0,4 0,1 0,2 -1,3 0,1 0,1 -1,2 0,0 0,1 -1,1 0,0 -1,0 -2,1l-98 33c-2,0 -4,1 -5,1 -1,0 -2,0 -3,-1 0,-1 -1,-2 -1,-4 0,-1 0,-4 0,-7 0,-2 0,-4 0,-6 0,-1 1,-3 1,-3 0,-1 1,-2 1,-2 1,0 1,-1 2,-1l86 -27 0 0 -85 -26c-1,-1 -2,-1 -3,-1 0,-1 -1,-1 -1,-2 0,-1 -1,-2 -1,-4 0,-1 0,-3 0,-6 0,-3 0,-5 0,-6 1,-2 1,-3 2,-3 0,-1 1,-1 2,-1 2,0 3,1 5,2l99 33zm0 -71c1,0 2,0 2,0 0,1 1,1 1,2 0,1 1,2 1,3 0,2 0,4 0,6 0,2 0,4 0,5 0,2 -1,3 -1,4 0,1 -1,1 -1,2 0,0 -1,0 -2,0l-104 0c-1,0 -1,0 -2,0 0,-1 -1,-1 -1,-2 0,-1 0,-2 -1,-4 0,-1 0,-3 0,-5 0,-2 0,-4 0,-6 1,-1 1,-2 1,-3 0,-1 1,-1 1,-2 1,0 1,0 2,0l104 0zm-54 -117c11,0 19,2 27,4 7,3 13,7 17,12 5,5 8,11 10,18 2,7 4,15 4,25l0 27c0,2 -1,3 -2,4 -1,2 -3,2 -6,2l-96 0c-3,0 -5,0 -6,-2 -1,-1 -1,-2 -1,-4l0 -29c0,-10 1,-18 3,-25 2,-7 6,-13 10,-17 5,-5 11,-9 17,-11 7,-3 15,-4 23,-4zm1 24c-5,0 -10,0 -14,1 -5,2 -9,4 -12,6 -3,3 -6,7 -8,11 -2,4 -3,10 -3,17l0 11 76 0 0 -12c0,-6 -1,-11 -3,-15 -1,-5 -4,-8 -7,-11 -3,-3 -7,-5 -12,-6 -5,-2 -10,-2 -17,-2zm13 -79c4,0 6,0 7,1 2,1 2,2 2,3l0 36c0,1 0,2 -2,3 -1,0 -3,1 -7,1 -3,0 -5,-1 -6,-1 -2,-1 -2,-2 -2,-3l0 -36c0,-1 0,-1 0,-2 0,0 1,-1 1,-1 1,0 2,-1 3,-1 1,0 3,0 4,0zm35 -86c2,0 3,0 4,0 1,1 2,1 3,1 0,0 1,1 1,1 0,1 1,1 1,2l0 61c0,0 -1,1 -1,1 0,1 -1,1 -1,1 -1,1 -2,1 -3,1 -1,0 -2,0 -4,0 -2,0 -3,0 -4,0 -1,0 -2,0 -3,-1 -1,0 -1,0 -1,-1 -1,0 -1,-1 -1,-1l0 -21 -72 0 10 18c0,1 1,2 1,3 0,1 0,2 0,2 -1,1 -2,1 -3,1 -1,0 -3,0 -5,0 -1,0 -3,0 -3,0 -1,0 -2,0 -3,0 0,0 -1,-1 -1,-1 -1,0 -1,-1 -2,-2l-15 -23c0,-1 0,-1 -1,-1 0,-1 0,-1 0,-2 0,-1 0,-2 0,-3 0,-1 0,-2 0,-4 0,-2 0,-4 0,-5 0,-2 0,-3 0,-3 1,-1 1,-2 1,-2 1,0 1,0 2,0l91 0 0 -18c0,-1 0,-1 1,-2 0,0 0,-1 1,-1 1,0 2,0 3,-1 1,0 2,0 4,0zm-52 -90c5,0 9,0 14,1 5,0 10,1 14,2 5,2 9,3 13,6 5,2 8,5 11,8 3,4 6,8 8,13 2,6 2,12 2,19 0,2 0,4 0,7 0,2 -1,5 -1,7 -1,2 -1,3 -2,5 -1,1 -1,2 -2,3 0,0 -1,1 -2,1 -1,0 -3,0 -5,0 -2,0 -3,0 -5,0 -1,0 -2,0 -2,0 -1,0 -1,-1 -2,-1 0,0 0,-1 0,-1 0,-1 0,-2 1,-3 0,-2 1,-3 1,-5 1,-2 1,-4 1,-6 1,-2 1,-5 1,-8 0,-5 -1,-9 -2,-12 -2,-3 -5,-6 -7,-8 -3,-2 -7,-4 -11,-5 -3,-1 -7,-1 -12,-1 2,2 3,6 5,9 1,4 1,8 1,13 0,6 0,11 -2,15 -1,4 -4,8 -7,10 -2,3 -6,5 -10,6 -4,1 -9,2 -14,2 -6,0 -11,-1 -16,-3 -4,-2 -8,-4 -12,-7 -3,-4 -6,-8 -7,-12 -2,-5 -3,-11 -3,-17 0,-6 0,-10 1,-14 2,-4 3,-7 6,-10 2,-3 5,-5 8,-7 3,-2 6,-3 10,-4 4,-1 8,-2 13,-2 4,-1 9,-1 14,-1zm-3 22c-6,0 -11,1 -15,1 -5,1 -8,2 -10,3 -3,2 -4,4 -5,6 -1,2 -2,4 -2,7 0,2 1,5 1,7 1,2 3,3 4,5 2,1 4,2 6,2 3,1 5,1 8,1 3,0 6,0 8,0 2,-1 4,-2 6,-3 1,-1 2,-3 3,-5 1,-1 1,-4 1,-6 0,-4 0,-7 -1,-10 -1,-3 -3,-5 -4,-8z"/>
  </g>
 </g>
</svg>
