<?xml version="1.0" encoding="UTF-8"?>
<!DOCTYPE svg PUBLIC "-//W3C//DTD SVG 1.1//EN" "http://www.w3.org/Graphics/SVG/1.1/DTD/svg11.dtd">
<!-- Creator: CorelDRAW X7 -->
<svg xmlns="http://www.w3.org/2000/svg" xml:space="preserve" width="17.3339mm" height="6.8262mm" version="1.1" style="shape-rendering:geometricPrecision; text-rendering:geometricPrecision; image-rendering:optimizeQuality; fill-rule:evenodd; clip-rule:evenodd"
viewBox="0 0 2255 888"
 xmlns:xlink="http://www.w3.org/1999/xlink">
 <defs>
  <style type="text/css">
   <![CDATA[
    .fil0 {fill:#1B4E9B;fill-rule:nonzero}
    .fil1 {fill:#E31E24;fill-rule:nonzero}
   ]]>
  </style>
 </defs>
 <g id="Слой_x0020_1">
  <metadata id="CorelCorpID_0Corel-Layer"/>
  <path class="fil0" d="M283 359c0,0 0,2 0,2 0,0 -2,3 -5,3 0,0 -2,2 -7,2 -3,0 -8,0 -13,0 -5,0 -7,0 -10,0 -5,0 -7,-2 -7,-2 -3,0 -5,-3 -5,-3 0,0 0,-2 0,-2l0 -65 -186 0 0 65c0,0 0,2 -2,2 0,0 -3,3 -3,3 -2,0 -5,2 -7,2 -5,0 -8,0 -13,0 -5,0 -10,0 -12,0 -3,0 -5,-2 -8,-2 -2,0 -2,-3 -5,-3 0,0 0,-2 0,-2l0 -101c0,-5 0,-7 3,-10 0,-2 5,-2 7,-2l13 0c2,-5 7,-10 10,-15 2,-5 5,-10 10,-18 2,-7 5,-15 7,-25 3,-10 5,-22 8,-37 2,-13 5,-31 10,-51 2,-17 5,-42 7,-67 0,-8 3,-10 5,-15 3,-3 5,-3 10,-3l143 0c5,0 10,0 13,3 2,5 5,7 5,15l0 213 22 0c5,0 8,2 8,2 2,3 2,5 2,10l0 101 0 0zm-90 -299l-65 0c-3,23 -5,40 -8,58 -2,15 -5,30 -7,43 -3,12 -5,22 -8,32 -2,10 -5,18 -7,23 -3,7 -5,12 -8,17 -5,5 -7,10 -10,13l113 0 0 -186 0 0zm181 226c0,0 0,2 0,2 0,3 -3,3 -5,3 -3,0 -5,3 -8,3 -5,0 -7,0 -12,0 -8,0 -10,0 -15,0 -3,0 -5,-3 -8,-3 -2,0 -2,0 -5,-3 0,0 0,-2 0,-2l0 -193c0,0 0,-3 0,-3 3,-2 3,-2 5,-2 3,-3 5,-3 8,-3 5,0 7,0 15,0 5,0 7,0 12,0 3,0 5,0 8,3 2,0 5,0 5,2 0,0 0,3 0,3l0 193zm5 -258c0,12 -3,17 -8,22 -2,5 -12,8 -22,8 -13,0 -23,-3 -25,-8 -5,-2 -8,-10 -8,-20 0,-12 3,-20 8,-22 5,-6 12,-8 25,-8 12,0 20,3 25,5 2,5 5,13 5,23l0 0zm213 258c0,2 0,2 -2,5 0,0 -3,3 -8,3 -3,0 -8,0 -13,0 -7,0 -10,0 -15,0 -2,0 -5,-3 -5,-3 -2,-3 -2,-3 -2,-5l0 -15c-8,7 -18,15 -28,20 -10,5 -20,5 -32,5 -10,0 -20,0 -28,-2 -10,-3 -18,-8 -23,-13 -5,-5 -10,-10 -15,-20 -2,-8 -5,-15 -5,-25 0,-13 3,-23 8,-30 5,-8 10,-15 20,-20 8,-5 18,-10 30,-13 15,-2 30,-2 45,-2l20 0 0 -13c0,-5 0,-13 -2,-15 0,-5 -3,-10 -5,-13 -3,-2 -8,-5 -13,-7 -5,0 -10,0 -17,0 -8,0 -15,0 -23,2 -7,3 -15,5 -20,5 -5,3 -10,5 -12,8 -6,2 -8,2 -11,2 0,0 -2,0 -2,0 -3,-2 -3,-2 -5,-5 0,-2 0,-5 0,-7 -3,-3 -3,-5 -3,-8 0,-5 3,-7 3,-10 0,-5 2,-5 2,-7 3,-3 8,-5 13,-8 5,-2 10,-5 18,-7 5,-3 12,-3 20,-5 10,0 17,-3 25,-3 15,0 27,3 40,5 10,3 17,8 25,13 7,7 12,15 15,25 3,10 5,20 5,33l0 130 0 0zm-53 -83l-20 0c-10,0 -17,0 -22,3 -8,0 -13,2 -15,5 -5,2 -8,5 -10,10 0,2 -3,7 -3,12 0,8 3,15 8,18 5,5 12,7 22,7 8,0 13,-2 20,-5 8,-5 13,-10 20,-17l0 -33 0 0zm231 -93c0,3 0,8 0,10 0,3 0,5 -2,8 0,2 0,2 -3,5 0,0 0,0 -2,0l-63 0 0 153c0,0 0,2 0,2 -3,3 -3,3 -5,3 -3,0 -5,3 -8,3 -5,0 -10,0 -15,0 -5,0 -10,0 -12,0 -3,0 -5,-3 -8,-3 -2,0 -5,0 -5,-3 0,0 0,-2 0,-2l0 -183c0,-5 0,-10 3,-13 2,-2 5,-5 12,-5l101 0c2,0 2,0 2,3 3,0 3,2 3,2 2,3 2,5 2,8 0,2 0,7 0,12l0 0zm218 176c0,0 0,2 -2,2 0,3 -3,3 -3,3 -2,0 -5,3 -10,3 -2,0 -7,0 -12,0 -5,0 -10,0 -13,0 -5,0 -7,-3 -10,-3 0,0 -2,0 -2,-3 -3,0 -3,-2 -3,-2l0 -75 -78 0 0 75c0,0 0,2 0,2 0,3 -2,3 -5,3 -2,0 -5,3 -7,3 -5,0 -8,0 -13,0 -7,0 -10,0 -15,0 -2,0 -5,-3 -7,-3 -3,0 -3,0 -5,-3 0,0 0,-2 0,-2l0 -193c0,0 0,-3 0,-3 2,-2 2,-2 5,-2 2,-3 5,-3 7,-3 5,0 8,0 15,0 5,0 8,0 13,0 2,0 5,0 7,3 3,0 5,0 5,2 0,0 0,3 0,3l0 73 78 0 0 -73c0,0 0,-3 3,-3 0,-2 2,-2 2,-2 3,-3 5,-3 10,-3 3,0 8,0 13,0 5,0 10,0 12,0 5,0 8,0 10,3 0,0 3,0 3,2 2,0 2,3 2,3l0 193zm249 -98c0,15 -3,30 -8,43 -5,15 -10,25 -20,35 -7,10 -17,17 -32,22 -13,6 -28,8 -46,8 -17,0 -32,0 -45,-5 -12,-5 -22,-13 -30,-23 -10,-7 -15,-20 -20,-32 -2,-13 -5,-28 -5,-45 0,-15 3,-30 5,-46 5,-12 13,-25 20,-35 10,-7 20,-15 33,-22 15,-5 30,-8 47,-8 18,0 33,3 46,8 12,5 22,12 30,20 7,10 15,20 17,35 5,13 8,28 8,45l0 0zm-55 0c0,-7 -3,-17 -3,-25 -2,-7 -5,-15 -7,-20 -6,-8 -11,-10 -16,-15 -5,-3 -12,-5 -22,-5 -8,0 -15,2 -23,5 -5,2 -10,7 -12,12 -5,6 -8,13 -10,21 -3,10 -3,17 -3,27 0,10 0,18 3,28 0,7 2,15 7,20 3,5 8,10 15,12 5,5 13,5 23,5 7,0 15,0 20,-2 7,-5 12,-8 15,-15 5,-5 8,-13 10,-20 0,-8 3,-15 3,-28l0 0zm243 65c0,5 0,8 0,10 -3,3 -3,5 -3,8 0,0 0,2 0,2 -2,3 -2,3 -5,5 0,3 -5,5 -7,5 -5,3 -10,6 -15,8 -5,3 -10,3 -18,5 -5,0 -12,0 -17,0 -15,0 -30,0 -41,-5 -12,-5 -20,-13 -30,-20 -7,-10 -12,-20 -15,-33 -5,-15 -7,-30 -7,-45 0,-20 2,-35 7,-50 5,-15 13,-25 20,-35 8,-10 20,-15 31,-20 12,-5 25,-8 40,-8 5,0 10,3 15,3 7,0 12,2 17,5 3,0 8,2 13,5 2,2 5,2 7,5 3,2 3,2 3,5 0,0 2,2 2,2 0,3 0,5 0,8 0,2 0,5 0,10 0,7 0,12 -2,18 0,2 -3,5 -5,5 -3,0 -5,-3 -8,-5 -2,0 -5,-3 -10,-6 -2,-2 -7,-5 -12,-7 -5,-3 -13,-3 -18,-3 -15,0 -25,5 -32,16 -8,12 -13,27 -13,47 0,10 3,20 3,28 2,7 5,15 10,20 2,5 7,10 12,12 5,3 13,3 20,3 8,0 13,0 20,-3 5,-2 10,-5 13,-7 5,-3 7,-5 10,-8 2,-2 5,-2 7,-2 0,0 3,0 3,0 2,2 2,2 2,5 0,2 0,5 0,7 3,3 3,8 3,10l0 0zm180 -143c0,5 0,8 0,10 0,5 -2,8 -2,8 0,2 0,5 -3,5 0,0 -2,0 -2,0l-50 0 0 153c0,0 0,2 0,2 0,3 -3,3 -5,3 -3,0 -5,3 -8,3 -5,0 -7,0 -12,0 -5,0 -10,0 -15,0 -3,0 -5,-3 -8,-3 -2,0 -2,0 -5,-3 0,0 0,-2 0,-2l0 -153 -48 0c-2,0 -2,0 -5,0 0,0 -2,-3 -2,-5 0,0 0,-3 0,-8 -3,-2 -3,-7 -3,-12 0,-3 0,-8 3,-10 0,-3 0,-5 0,-8 2,0 2,-2 2,-2 3,-3 3,-3 5,-3l151 0c0,0 2,0 2,3 3,0 3,2 3,2 0,3 3,5 3,8 0,2 0,7 0,12l-1 0zm221 176c0,0 0,2 -2,2 0,3 0,3 -3,3 -2,3 -5,3 -7,3 -5,0 -8,0 -15,0 -5,0 -8,0 -13,0 -2,0 -5,0 -7,-3 -3,0 -5,0 -5,-3 0,0 -3,-2 -3,-2l0 -85c0,-8 0,-13 3,-20 0,-5 0,-13 0,-18 -3,5 -8,13 -10,18 -5,5 -8,10 -13,17l-65 88c0,0 -3,2 -3,2 -2,3 -2,3 -5,3 -2,3 -5,3 -7,3 -3,0 -5,0 -10,0 -5,0 -10,0 -13,0 -2,0 -5,0 -7,-3 -3,0 -3,0 -5,-3 0,0 0,-2 0,-2l0 -193c0,0 0,-3 0,-3 2,-2 2,-2 5,-2 2,-3 5,-3 7,-3 5,0 8,0 13,0 10,0 17,0 22,3 5,0 5,2 5,5l0 85c0,5 0,13 0,18 0,7 0,12 -2,20 5,-8 7,-13 12,-18 3,-5 8,-12 10,-17l66 -88c2,-3 2,-3 5,-5 0,0 2,0 5,-3 0,0 2,0 5,0 5,0 7,0 12,0 5,0 8,0 13,0 2,0 5,0 7,0 3,3 3,3 3,5 2,0 2,3 2,3l0 193 0 0zm234 2c0,0 0,0 0,3 -3,0 -3,0 -5,0 -3,3 -5,3 -8,3 -5,0 -7,0 -13,0 -7,0 -12,0 -15,0 -5,0 -7,0 -10,-3 -2,0 -5,0 -5,0 0,-3 -2,-3 -2,-5l-18 -45c-2,-8 -5,-13 -7,-15 -3,-5 -5,-8 -8,-10 -2,-3 -7,-5 -10,-8 -5,0 -10,0 -15,0l-10 0 0 78c0,0 0,2 -2,2 0,3 -3,3 -3,3 -2,0 -5,3 -10,3 -2,0 -7,0 -12,0 -5,0 -8,0 -13,0 -3,0 -5,-3 -8,-3 -2,0 -5,0 -5,-3 0,0 -2,-2 -2,-2l0 -193c0,-3 2,-3 2,-5 0,0 3,0 5,0 3,-3 6,-3 8,-3 5,0 8,0 13,0 5,0 10,0 12,0 5,0 8,0 10,3 0,0 3,0 3,0 2,2 2,2 2,5l0 73 10 0c5,0 10,0 13,0 5,-3 7,-3 10,-5 2,-3 5,-8 7,-10 3,-6 5,-11 8,-18l17 -40c0,-3 0,-3 3,-5 0,0 2,0 2,-3 3,0 5,0 10,0 3,0 8,0 15,0 5,0 8,0 13,0 3,0 5,0 8,0 2,3 2,3 5,3 0,2 0,2 0,2 0,3 0,5 0,5 -3,3 -3,5 -5,10l-16 35c-2,8 -5,16 -7,21 -5,5 -8,7 -13,12 -2,3 -5,5 -10,8 -2,2 -7,2 -10,5l0 0c5,2 10,2 13,5 5,2 7,5 10,10 5,2 7,7 10,12 5,5 7,10 10,18l20 42c0,3 0,5 3,5 0,3 0,3 0,5 0,0 0,0 0,3 0,0 0,0 0,3l0 -1zm195 -2c0,2 0,2 -2,5 0,0 -3,3 -5,3 -5,0 -8,0 -15,0 -5,0 -10,0 -13,0 -5,0 -5,-3 -7,-3 0,-3 -3,-3 -3,-5l0 -15c-7,7 -15,15 -25,20 -10,5 -23,5 -35,5 -10,0 -20,0 -28,-2 -7,-3 -15,-8 -22,-13 -5,-5 -10,-10 -15,-20 -3,-8 -5,-15 -5,-25 0,-13 2,-23 7,-30 5,-8 10,-15 20,-20 8,-5 18,-10 33,-13 12,-2 27,-2 45,-2l18 0 0 -13c0,-5 0,-13 -3,-15 0,-5 -2,-10 -5,-13 -2,-2 -7,-5 -13,-7 -2,0 -10,0 -15,0 -10,0 -17,0 -25,2 -7,3 -12,5 -20,5 -5,3 -10,5 -12,8 -5,2 -8,2 -10,2 0,0 -3,0 -3,0 -2,-2 -2,-2 -2,-5 -3,-2 -3,-5 -3,-7 0,-3 0,-5 0,-8 0,-5 0,-7 0,-10 0,-5 3,-5 5,-7 0,-3 5,-5 10,-8 5,-2 10,-5 18,-7 7,-3 12,-3 22,-5 8,0 15,-3 23,-3 15,0 30,3 40,5 10,3 20,8 25,13 8,7 13,15 15,25 5,10 5,20 5,33l0 130 0 0zm-52 -83l-21 0c-10,0 -17,0 -22,3 -8,0 -13,2 -15,5 -5,2 -8,5 -10,10 0,2 -3,7 -3,12 0,8 3,15 8,18 5,5 12,7 22,7 8,0 15,-2 20,-5 8,-5 13,-10 21,-17l0 -33 0 0z"/>
  <path class="fil1" d="M457 843c0,2 0,5 0,7 0,3 0,6 0,8 0,3 -3,3 -3,5 0,0 -2,3 -2,5 -3,0 -6,3 -11,5 -5,3 -10,5 -15,8 -7,2 -15,5 -22,5 -10,2 -18,2 -28,2 -20,0 -37,-2 -52,-7 -15,-8 -28,-15 -38,-28 -13,-10 -20,-25 -25,-43 -5,-17 -10,-37 -10,-60 0,-25 5,-45 10,-65 7,-18 15,-33 27,-45 11,-13 26,-23 41,-28 15,-7 32,-10 52,-10 8,0 15,0 23,3 7,0 12,2 20,5 5,0 10,2 15,7 5,3 8,5 10,5 3,3 5,5 5,5 0,3 0,3 0,5 3,3 3,5 3,8 0,2 0,5 0,10 0,5 0,7 0,10 0,5 0,7 -3,7 0,3 0,5 -2,5 0,0 -3,0 -3,0 -2,0 -5,0 -8,-2 -5,-3 -7,-5 -15,-8 -5,-5 -10,-7 -17,-10 -8,-2 -15,-2 -25,-2 -13,0 -23,2 -30,7 -8,3 -15,10 -23,18 -5,10 -10,20 -12,30 -5,13 -5,25 -5,40 0,18 0,30 5,43 2,12 7,22 15,30 5,7 12,12 22,17 8,3 18,5 28,5 10,0 20,0 27,-2 8,-3 13,-5 18,-8 5,-2 10,-5 12,-7 6,-3 8,-5 8,-5 3,0 3,0 5,2 0,0 0,0 3,3 0,2 0,5 0,7 0,3 0,8 0,13l0 0zm288 -100c0,22 -2,42 -7,60 -8,20 -16,35 -28,47 -10,13 -25,23 -40,31 -18,5 -38,7 -60,7 -21,0 -41,-2 -56,-7 -15,-5 -30,-15 -40,-25 -10,-13 -20,-28 -25,-46 -5,-17 -7,-37 -7,-62 0,-23 2,-43 7,-61 8,-20 15,-35 28,-47 10,-13 25,-23 40,-28 17,-7 38,-10 60,-10 20,0 38,3 55,8 15,5 30,15 40,25 10,12 18,27 26,45 5,17 7,38 7,63zm-60 2c0,-15 0,-27 -3,-40 -2,-13 -7,-23 -12,-30 -5,-10 -13,-15 -23,-20 -7,-5 -20,-8 -32,-8 -15,0 -25,3 -36,8 -10,5 -17,12 -22,22 -5,8 -10,18 -13,30 -2,11 -2,23 -2,38 0,15 0,28 2,40 3,13 8,23 13,30 5,10 12,15 20,20 10,5 23,8 35,8 15,0 25,-3 35,-8 10,-5 18,-12 23,-22 5,-8 10,-18 12,-30 3,-13 3,-25 3,-38zm238 131c0,2 0,2 -2,5 0,2 -3,2 -5,2 -3,3 -8,3 -10,3 -5,0 -10,0 -18,0 -8,0 -13,0 -15,0 -5,0 -8,0 -10,0 -3,0 -5,0 -8,-3 -2,0 -2,0 -5,-2 0,0 -2,0 -2,-3 0,0 0,-2 -3,-5l-82 -246c0,-5 -3,-10 -3,-12 0,-3 0,-5 3,-8 2,0 5,-2 10,-2 2,0 10,0 17,0 5,0 10,0 15,0 3,0 8,2 8,2 2,0 5,3 5,3 0,2 2,2 2,5l68 215 0 0 65 -213c3,-2 3,-5 3,-7 2,0 2,-3 5,-3 2,0 5,-2 10,-2 2,0 7,0 15,0 7,0 12,0 15,0 5,2 7,2 7,5 3,0 3,2 3,5 0,5 -3,7 -5,12l-83 249 0 0zm178 0c0,2 0,5 0,5 -2,0 -2,2 -5,2 -2,0 -5,3 -7,3 -5,0 -10,0 -15,0 -5,0 -10,0 -13,0 -5,0 -7,-3 -10,-3 -2,0 -2,-2 -5,-2 0,0 0,-3 0,-5l0 -261c0,-3 0,-3 0,-5 3,0 3,-3 5,-3 3,0 5,0 10,-2 3,0 8,0 13,0 5,0 10,0 15,0 2,2 5,2 7,2 3,0 3,3 5,3 0,2 0,2 0,5l0 261zm294 -136c0,28 -5,48 -10,68 -8,17 -18,32 -30,42 -13,13 -28,21 -46,26 -17,5 -37,10 -62,10l-68 0c-5,0 -7,-3 -10,-5 -5,-3 -5,-8 -5,-15l0 -241c0,-8 0,-13 5,-15 3,-3 5,-3 10,-3l73 0c25,0 45,3 62,8 18,5 33,15 43,25 13,12 23,27 28,42 7,18 10,38 10,58l0 0zm-60 3c0,-13 0,-25 -3,-36 -5,-12 -10,-22 -15,-30 -8,-7 -18,-15 -28,-20 -10,-5 -25,-7 -42,-7l-28 0 0 190 30 0c15,0 28,-2 38,-7 12,-3 20,-10 27,-18 8,-7 13,-17 16,-30 5,-12 5,-25 5,-42zm198 32c0,10 0,15 -3,18 -2,5 -5,5 -7,5l-91 0c-2,0 -5,0 -7,-5 0,-3 -3,-8 -3,-18 0,-7 3,-12 3,-15 2,-5 5,-5 7,-5l91 0c2,0 2,0 5,0 0,0 2,3 2,3 0,2 3,5 3,7 0,3 0,8 0,10l0 0zm215 88c0,5 0,8 0,10 -2,3 -2,5 -2,8 0,0 -3,2 -3,2 -2,0 -2,3 -5,3l-153 0c0,0 -2,-3 -2,-3 -3,0 -3,-2 -3,-2 -2,-3 -2,-5 -2,-8 0,-2 0,-5 0,-10 0,-5 0,-7 0,-10 0,-3 0,-5 2,-8 0,-2 0,-2 3,-2 0,-3 2,-3 2,-3l53 0 0 -180 -45 25c-3,0 -5,2 -8,2 -2,0 -5,0 -5,0 -2,-2 -2,-5 -2,-7 0,-3 0,-8 0,-13 0,-2 0,-7 0,-7 0,-3 0,-5 0,-8 0,0 2,-2 2,-2 0,-3 3,-3 5,-5l58 -38c3,0 3,0 3,-2 2,0 2,0 5,0 2,0 5,0 7,0 3,0 5,0 10,0 5,0 10,0 13,0 5,0 7,0 7,0 3,2 5,2 5,2 0,3 0,3 0,5l0 228 45 0c3,0 3,0 5,3 0,0 3,0 3,3 0,2 0,5 2,7 0,3 0,5 0,10l0 0zm226 -130c0,12 0,22 -2,35 0,12 -3,25 -5,35 -5,12 -8,22 -15,32 -5,13 -13,21 -20,28 -10,8 -20,15 -33,20 -15,5 -30,5 -48,5 -5,0 -10,0 -17,0 -5,0 -13,-2 -18,-2 -5,-3 -7,-3 -12,-5 -3,-3 -5,-3 -8,-5 0,0 -2,-3 -2,-5 0,-3 0,-8 0,-13 0,-5 0,-8 0,-13 0,-2 0,-5 0,-5 0,-2 2,-2 2,-5 0,0 3,0 3,0 2,0 5,0 7,3 5,0 8,2 13,2 5,3 10,3 15,3 5,2 12,2 20,2 12,0 22,-2 30,-5 7,-5 15,-12 20,-17 5,-8 10,-18 13,-28 2,-7 2,-17 2,-30 -5,5 -15,8 -22,13 -11,2 -21,2 -33,2 -15,0 -28,0 -38,-5 -10,-2 -20,-10 -25,-17 -7,-5 -12,-15 -15,-25 -2,-10 -5,-23 -5,-36 0,-15 3,-27 8,-40 5,-10 10,-20 17,-30 10,-7 20,-15 30,-17 13,-5 28,-8 43,-8 15,0 25,0 35,3 10,5 18,7 25,15 8,5 13,12 18,20 5,7 7,15 10,25 2,10 5,20 5,32 2,10 2,23 2,36l0 0zm-55 -8c0,-15 -2,-28 -2,-38 -3,-12 -5,-20 -8,-25 -5,-7 -10,-10 -15,-12 -5,-3 -10,-5 -18,-5 -5,0 -12,2 -17,2 -5,3 -8,8 -13,10 -2,5 -5,10 -5,15 -2,8 -2,13 -2,20 0,8 0,16 0,21 2,5 5,10 7,15 3,2 8,5 13,7 2,3 10,3 15,3 10,0 17,0 25,-3 8,-2 13,-7 20,-10l0 0z"/>
 </g>
</svg>
