<?xml version="1.0" encoding="UTF-8"?>
<!DOCTYPE svg PUBLIC "-//W3C//DTD SVG 1.1//EN" "http://www.w3.org/Graphics/SVG/1.1/DTD/svg11.dtd">
<!-- Creator: CorelDRAW X7 -->
<svg xmlns="http://www.w3.org/2000/svg" xml:space="preserve" width="14.4135mm" height="29.6641mm" version="1.1" style="shape-rendering:geometricPrecision; text-rendering:geometricPrecision; image-rendering:optimizeQuality; fill-rule:evenodd; clip-rule:evenodd"
viewBox="0 0 1402 2886"
 xmlns:xlink="http://www.w3.org/1999/xlink">
 <defs>
  <style type="text/css">
   <![CDATA[
    .fil0 {fill:#1B4E9B;fill-rule:nonzero}
    .fil1 {fill:#E31E24;fill-rule:nonzero}
   ]]>
  </style>
 </defs>
 <g id="Слой_x0020_1">
  <metadata id="CorelCorpID_0Corel-Layer"/>
  <path class="fil0" d="M523 338c0,1 -2,4 -3,5 -1,1 -2,2 -5,4 -3,0 -7,1 -11,1 -4,1 -10,1 -17,1 -7,0 -13,0 -17,-1 -4,0 -8,-1 -10,-1 -4,-2 -5,-3 -6,-4 -2,-1 -3,-4 -3,-5l0 -279 -128 0 0 279c0,1 -2,4 -3,5 -1,1 -2,2 -6,4 -2,0 -6,1 -11,1 -3,1 -9,1 -17,1 -6,0 -12,0 -17,-1 -3,0 -7,-1 -11,-1 -2,-2 -3,-3 -4,-4 -2,-1 -3,-4 -3,-5l0 -316c0,-7 3,-12 6,-16 4,-4 9,-6 15,-6l230 0c6,0 11,2 15,6 3,4 6,9 6,16l0 316 0 0zm345 0c0,1 -1,4 -3,5 -1,1 -2,2 -4,4 -4,0 -8,1 -11,1 -5,1 -11,1 -17,1 -7,0 -14,0 -18,-1 -4,0 -8,-1 -10,-1 -4,-2 -5,-3 -6,-4 -1,-1 -1,-4 -1,-5l0 -280 -75 0c-5,40 -10,77 -15,107 -6,31 -11,57 -17,79 -6,21 -12,40 -19,54 -8,13 -16,24 -25,33 -9,8 -19,13 -31,17 -11,2 -24,5 -39,5 -2,0 -5,-2 -6,-2 -2,-1 -4,-2 -5,-4 -1,-2 -2,-5 -2,-8 -1,-3 -1,-8 -1,-14 0,-8 0,-14 0,-18 1,-5 1,-9 2,-11 1,-3 2,-5 4,-5 1,-1 2,-3 4,-3 7,0 11,0 16,-2 6,-2 11,-7 16,-13 4,-8 8,-16 13,-28 4,-12 9,-28 14,-47 3,-21 7,-44 12,-73 3,-28 8,-62 13,-101 0,-8 3,-14 6,-18 3,-4 7,-6 15,-6l169 0c6,0 11,2 15,6 4,4 6,9 6,16l0 316 0 0zm313 -233c0,20 -3,37 -9,53 -6,14 -16,27 -27,37 -12,11 -26,18 -43,24 -17,5 -37,8 -60,8l-29 0 0 111c0,1 0,2 -1,5 -1,1 -4,2 -6,2 -2,2 -6,3 -11,3 -5,1 -10,1 -17,1 -7,0 -12,0 -17,-1 -5,0 -8,-1 -11,-3 -2,0 -5,-1 -6,-2 0,-2 -1,-4 -1,-5l0 -313c0,-8 2,-14 7,-19 4,-4 10,-6 17,-6l81 0c9,0 17,0 25,1 7,0 15,1 26,4 10,2 21,6 32,12 11,5 19,12 27,21 8,8 13,18 18,30 3,11 5,23 5,37l0 0zm-73 5c0,-12 -3,-22 -7,-30 -4,-7 -10,-13 -16,-17 -6,-4 -14,-6 -20,-7 -7,-1 -14,-1 -21,-1l-31 0 0 117 32 0c12,0 22,-1 29,-4 7,-3 13,-7 18,-13 5,-5 9,-12 12,-19 3,-8 4,-16 4,-26l0 0zm242 102c0,11 -1,18 -2,22 -3,3 -6,6 -10,6l-111 0c-5,0 -9,-2 -10,-6 -3,-5 -4,-12 -4,-22 0,-10 1,-17 4,-22 1,-3 5,-6 10,-6l111 0c2,0 4,1 5,1 2,2 4,3 5,5 0,3 1,5 2,9 0,3 0,8 0,13l0 0z"/>
  <path class="fil0" d="M766 1480c0,4 0,8 -1,11 -1,2 -3,3 -5,3l-17 0c3,3 4,6 6,9 1,4 1,7 1,11 0,8 -1,15 -4,22 -3,6 -7,11 -12,15 -5,5 -12,8 -19,10 -7,3 -15,4 -24,4 -4,0 -9,-1 -13,-2 -4,-1 -7,-2 -10,-4 -1,2 -2,3 -3,5 -1,2 -2,4 -2,7 0,3 2,6 4,8 3,1 7,3 12,3l34 1c8,0 16,2 22,4 6,2 12,4 16,8 4,4 8,8 10,12 2,5 4,11 4,17 0,7 -2,14 -5,20 -3,7 -8,12 -14,17 -6,4 -14,7 -24,10 -9,2 -19,4 -32,4 -12,0 -22,-1 -31,-3 -9,-2 -16,-4 -20,-7 -6,-4 -10,-8 -13,-13 -2,-4 -3,-10 -3,-15 0,-4 0,-7 1,-10 1,-4 2,-7 4,-10 2,-3 4,-6 7,-8 2,-3 5,-5 8,-7 -4,-2 -8,-6 -10,-10 -3,-4 -4,-9 -4,-14 0,-6 1,-12 4,-17 3,-6 7,-10 11,-15 -3,-2 -6,-7 -8,-12 -3,-5 -4,-12 -4,-20 0,-8 2,-16 5,-22 3,-7 6,-12 11,-16 5,-5 12,-8 19,-11 7,-2 15,-3 24,-3 5,0 9,0 13,1 3,0 7,1 11,2l45 0c2,0 4,1 5,3 1,3 2,7 2,12l-1 0zm-52 33c0,-7 -2,-13 -6,-18 -4,-4 -9,-6 -17,-6 -4,0 -8,1 -11,2 -3,1 -5,3 -7,5 -2,3 -4,5 -5,8 -1,4 -1,7 -1,10 0,7 2,13 6,17 5,5 10,7 18,7 4,0 8,-1 11,-2 2,-1 4,-3 6,-5 2,-3 4,-5 5,-8 1,-3 1,-6 1,-10zm10 113c0,-4 -2,-8 -6,-11 -4,-2 -9,-4 -15,-4l-29 -1c-3,2 -5,4 -7,6 -1,2 -3,4 -4,6 -1,1 -1,3 -2,5 0,1 0,3 0,5 0,5 3,9 8,12 6,3 13,4 23,4 6,0 11,-1 15,-2 4,-1 7,-3 10,-5 2,-2 4,-4 5,-7 1,-2 2,-5 2,-8l0 0zm236 -183c0,3 0,6 -1,8 0,3 0,4 -1,6 0,1 -1,2 -2,3 0,0 -1,0 -2,0 -1,0 -3,-1 -6,-3 -3,-1 -7,-4 -12,-6 -6,-2 -12,-4 -19,-6 -7,-2 -15,-3 -25,-3 -9,0 -18,2 -26,5 -8,4 -15,9 -21,15 -6,6 -10,14 -14,22 -2,9 -3,19 -3,30 0,12 1,22 3,31 4,9 8,16 14,23 6,6 12,10 20,13 8,4 17,5 26,5 5,0 9,0 14,-1 5,-2 9,-3 13,-5l0 -48 -38 0c-2,0 -4,-1 -5,-4 -1,-2 -2,-6 -2,-12 0,-3 0,-6 1,-8 0,-2 0,-3 1,-5 1,-1 1,-2 2,-2 1,-1 2,-1 3,-1l69 0c2,0 3,0 4,1 1,0 2,1 3,2 1,2 2,3 3,5 0,1 0,3 0,5l0 83c0,3 0,6 -1,8 -1,2 -4,4 -6,5 -4,1 -8,3 -13,4 -5,2 -11,3 -16,4 -6,1 -12,2 -17,3 -6,0 -12,1 -16,1 -17,0 -32,-3 -45,-8 -13,-5 -23,-10 -33,-20 -9,-9 -16,-20 -21,-33 -4,-13 -7,-27 -7,-43 0,-18 3,-33 8,-46 5,-13 12,-25 22,-34 9,-10 20,-17 33,-21 14,-5 28,-8 44,-8 9,0 17,1 25,2 7,1 14,3 19,5 6,1 10,3 14,4 3,2 5,4 7,6 1,1 2,3 3,6 0,3 1,7 1,12l0 0z"/>
  <path class="fil1" d="M176 2255c0,7 -1,14 -4,21 -3,6 -7,12 -11,17 -4,5 -10,8 -17,10 -6,3 -13,4 -21,4 -7,0 -14,-1 -20,-4 -7,-2 -12,-5 -16,-10 -5,-5 -9,-11 -12,-17 -3,-7 -4,-14 -4,-21 0,-8 1,-15 4,-20 3,-7 7,-12 12,-17 4,-5 9,-9 16,-11 6,-3 13,-5 21,-5 7,0 14,2 21,4 6,3 12,7 16,12 4,4 8,10 11,17 3,5 4,12 4,20z"/>
  <path class="fil0" d="M146 1750c-7,14 -12,29 -15,44 -4,15 -6,30 -6,45 0,15 2,30 6,45 3,15 8,30 14,44 1,1 1,1 1,2 0,1 0,1 -1,2 0,0 -1,0 -2,0 -1,0 -3,0 -4,0 -2,0 -3,0 -3,0 -1,0 -2,0 -3,0 -1,0 -1,0 -1,0 -1,-1 -1,-1 -1,-2 -4,-7 -8,-14 -10,-21 -4,-8 -6,-15 -8,-23 -2,-8 -3,-16 -4,-23 -1,-7 -2,-15 -2,-23 0,-9 1,-17 2,-24 1,-8 2,-15 5,-23 1,-8 4,-15 7,-23 3,-7 6,-14 10,-22 0,0 0,0 0,-1 1,0 1,0 1,0 1,-1 2,-1 3,-1 1,0 2,0 4,0 1,0 3,0 4,0 0,1 1,1 2,1 1,1 1,1 1,2 0,1 0,1 0,1l0 0zm149 142c0,2 0,4 -2,4 0,0 -3,1 -6,1 -2,0 -3,0 -4,0 -1,-1 -2,-1 -3,-1 -1,0 -1,0 -2,0 0,-1 0,-1 0,-2l-7 -56c0,-1 0,-4 0,-6 0,-2 0,-5 -1,-7 0,-2 0,-4 0,-6 -1,-3 -1,-5 -1,-7l0 -3c-1,3 -2,5 -2,6 -1,3 -2,5 -3,8 -1,2 -1,4 -2,7 -1,2 -2,4 -2,6l-20 56c0,1 -1,2 -1,3 -1,0 -1,1 -1,1 -1,0 -2,0 -3,0 -1,1 -2,1 -4,1 -1,0 -3,0 -4,-1 0,0 -1,0 -2,0 -1,0 -2,0 -2,-1 0,-1 0,-2 0,-3l-20 -56c-1,-2 -2,-4 -2,-6 -1,-3 -2,-5 -2,-7 -1,-3 -1,-5 -2,-7 -1,-2 -2,-4 -3,-7l0 3c0,2 0,4 0,7 0,2 0,4 0,6 -1,2 -1,5 -1,7 -1,2 -1,5 -1,6l-6 55c0,1 0,2 -1,2 0,1 -1,1 -2,1 0,0 -1,0 -2,1 -1,0 -2,0 -5,0 -1,0 -3,0 -4,-1 0,0 -1,0 -2,0 -1,0 -1,-1 -1,-1 0,-1 0,-2 0,-3l11 -89c0,-2 0,-4 2,-6 1,0 3,-1 5,-1l9 0c2,0 3,0 5,1 1,0 3,0 4,1 0,1 1,2 2,3 1,1 2,3 2,5l14 40c1,3 2,6 3,8 1,2 1,5 2,7 1,2 2,5 3,7 0,2 0,5 1,7l0 0c1,-2 2,-5 2,-7 1,-2 1,-5 2,-7 1,-3 2,-5 2,-8 1,-2 2,-5 3,-7l14 -40c1,-1 1,-3 2,-5 1,-1 2,-2 3,-3 0,-1 2,-1 3,-1 1,-1 3,-1 5,-1l8 0c3,0 5,1 6,1 1,1 2,3 3,5l10 90 0 0zm107 -50c0,3 0,5 -2,6 -2,1 -3,1 -5,1l-62 0c0,6 0,10 2,15 1,4 2,8 5,10 2,3 6,6 10,7 4,2 8,3 14,3 5,0 9,0 12,-1 4,-1 7,-2 9,-2 2,-1 5,-2 6,-3 2,-1 4,-1 4,-1 1,0 1,0 2,0 0,0 0,1 1,1 0,1 0,2 0,3 0,0 0,1 0,3 0,1 0,1 0,2 0,1 0,2 0,2 0,0 0,0 -1,1 0,1 0,1 -1,2 0,0 -1,1 -3,1 -2,1 -5,2 -8,3 -2,1 -6,1 -10,2 -4,1 -8,1 -13,1 -8,0 -15,-1 -20,-3 -6,-3 -11,-6 -15,-10 -4,-4 -7,-10 -9,-16 -2,-6 -4,-14 -4,-23 0,-8 2,-15 4,-22 2,-6 5,-12 9,-16 4,-5 9,-8 14,-11 6,-2 13,-4 20,-4 7,0 13,2 19,4 4,3 9,6 12,10 4,4 6,8 8,14 2,5 2,12 2,18l0 3 0 0zm-18 -5c1,-10 -1,-17 -5,-22 -5,-5 -11,-7 -20,-7 -4,0 -8,0 -11,2 -3,2 -6,3 -8,6 -2,3 -4,6 -5,10 -1,3 -2,7 -2,11l51 0 0 0zm110 -33c0,1 0,2 0,4 0,0 0,1 -1,2 0,0 0,1 0,1 -1,1 -1,1 -2,1l-28 0 0 82c0,0 -1,1 -1,1 0,1 -1,1 -2,1 0,0 -1,0 -2,0 -1,1 -2,1 -5,1 -1,0 -3,0 -4,-1 -1,0 -2,0 -2,0 -1,0 -1,0 -1,-1 -1,0 -1,-1 -1,-1l0 -82 -28 0c-1,0 -1,0 -2,-1 -1,0 -1,-1 -1,-1 -1,-1 -1,-2 -1,-2 0,-2 0,-3 0,-4 0,-2 0,-3 0,-3 0,-2 0,-3 1,-4 0,0 1,0 1,0 1,-1 1,-1 2,-1l74 0c1,0 1,0 2,1 0,0 0,0 0,0 1,1 1,2 1,4 0,0 0,1 0,3l0 0zm104 41c0,7 -1,14 -3,21 -3,7 -6,12 -10,17 -4,5 -8,9 -15,11 -6,3 -13,4 -21,4 -8,0 -15,-1 -20,-3 -6,-3 -11,-6 -14,-10 -4,-5 -7,-11 -10,-17 -1,-6 -2,-13 -2,-21 0,-8 1,-15 3,-21 2,-7 5,-13 9,-18 4,-4 9,-7 15,-11 6,-2 13,-3 22,-3 7,0 14,1 20,3 5,3 10,6 14,11 4,4 7,9 9,15 2,7 3,14 3,22l0 0zm-18 1c0,-5 -1,-10 -2,-15 -1,-5 -2,-8 -5,-12 -2,-3 -5,-6 -8,-7 -4,-3 -9,-4 -14,-4 -6,0 -10,1 -14,3 -4,2 -7,4 -9,8 -2,3 -4,7 -6,11 0,5 -1,10 -1,15 0,6 1,11 1,15 1,5 3,9 5,12 3,4 6,6 9,9 4,1 8,3 14,3 5,0 9,-2 13,-3 4,-2 7,-5 10,-8 2,-3 4,-7 5,-12 1,-5 2,-9 2,-15l0 0zm38 82c0,1 0,1 0,1 0,0 -1,1 -1,1 0,0 -1,1 -3,1 0,0 -1,0 -3,0 -1,0 -2,0 -4,0 -1,0 -1,-1 -1,-1 -1,0 -2,-1 -2,-1 0,0 -1,0 -1,-1l0 -42c0,-2 1,-3 2,-4 0,-1 1,-1 3,-1l6 0c3,-3 6,-7 8,-11 2,-3 4,-8 6,-14 2,-7 4,-15 6,-23 1,-9 3,-19 4,-31 0,-1 1,-2 1,-3 0,-1 0,-2 0,-2 1,0 2,0 2,0 1,-1 2,-1 2,-1l53 0c2,0 3,1 5,1 0,1 0,3 0,5l0 79 14 0c1,0 2,0 3,1 1,1 1,2 1,4l0 42c0,1 0,1 0,1 0,0 -1,1 -2,1 0,0 -1,1 -2,1 -1,0 -2,0 -3,0 -2,0 -3,0 -4,0 -1,0 -2,-1 -2,-1 -1,0 -1,-1 -1,-1 0,0 0,0 0,-1l0 -32 -87 0 0 32 0 0zm66 -118l-30 0c-1,12 -3,21 -4,29 -2,8 -4,15 -6,20 -1,6 -3,10 -5,14 -2,3 -4,6 -7,8l52 0 0 -71 0 0zm141 35c0,7 -2,14 -4,21 -2,7 -5,12 -9,17 -4,5 -9,9 -15,11 -6,3 -13,4 -21,4 -8,0 -15,-1 -20,-3 -7,-3 -11,-6 -15,-10 -4,-5 -7,-11 -9,-17 -2,-6 -2,-13 -2,-21 0,-8 0,-15 3,-21 1,-7 5,-13 8,-18 4,-4 10,-7 15,-11 7,-2 14,-3 22,-3 7,0 14,1 20,3 6,3 11,6 15,11 4,4 7,9 8,15 2,7 4,14 4,22l0 0zm-18 1c0,-5 -1,-10 -2,-15 -1,-5 -2,-8 -5,-12 -2,-3 -5,-6 -9,-7 -3,-3 -8,-4 -13,-4 -6,0 -11,1 -14,3 -4,2 -7,4 -9,8 -3,3 -4,7 -6,11 -1,5 -1,10 -1,15 0,6 0,11 1,15 1,5 3,9 5,12 2,4 5,6 9,9 4,1 8,3 14,3 5,0 9,-2 13,-3 4,-2 7,-5 10,-8 2,-3 3,-7 4,-12 2,-5 3,-9 3,-15l0 0zm163 46c1,2 0,4 -1,4 -2,0 -3,1 -7,1 -2,0 -3,0 -4,0 -2,-1 -2,-1 -2,-1 -1,0 -2,0 -2,0 0,-1 -1,-1 -1,-2l-7 -56c0,-1 0,-4 0,-6 0,-2 0,-5 0,-7 0,-2 -1,-4 -1,-6 0,-3 0,-5 -1,-7l0 -3c-1,3 -2,5 -2,6 0,3 -1,5 -2,8 -1,2 -2,4 -2,7 -1,2 -2,4 -3,6l-19 56c-1,1 -1,2 -2,3 0,0 -1,1 -1,1 -1,0 -2,0 -3,0 -1,1 -2,1 -4,1 -1,0 -2,0 -3,-1 -1,0 -2,0 -3,0 0,0 -1,0 -2,-1 0,-1 0,-2 0,-3l-19 -56c-1,-2 -2,-4 -3,-6 0,-3 -1,-5 -2,-7 -1,-3 -1,-5 -2,-7 -1,-2 -2,-4 -2,-7l0 3c-1,2 -1,4 -1,7 0,2 0,4 0,6 0,2 -1,5 -1,7 0,2 0,5 -1,6l-6 55c0,1 0,2 0,2 -1,1 -1,1 -2,1 -1,0 -1,0 -3,1 -1,0 -2,0 -4,0 -2,0 -3,0 -5,-1 0,0 -1,0 -2,0 0,0 -1,-1 -1,-1 0,-1 0,-2 0,-3l11 -89c0,-2 1,-4 2,-6 1,0 3,-1 5,-1l9 0c2,0 4,0 5,1 1,0 3,0 4,1 1,1 2,2 3,3 1,1 1,3 1,5l14 40c1,3 2,6 3,8 1,2 1,5 2,7 1,2 2,5 3,7 0,2 1,5 1,7l1 0c0,-2 1,-5 1,-7 1,-2 2,-5 3,-7 1,-3 1,-5 2,-8 1,-2 2,-5 2,-7l15 -40c0,-1 0,-3 1,-5 1,-1 2,-2 3,-3 1,-1 2,-1 3,-1 2,-1 4,-1 5,-1l9 0c2,0 4,1 5,1 2,1 3,3 3,5l10 90 0 0zm96 1c0,1 0,2 -1,2 0,1 -1,1 -1,1 -1,0 -2,0 -3,0 -1,1 -2,1 -5,1 -1,0 -3,0 -4,-1 -1,0 -2,0 -3,0 -1,0 -1,0 -1,-1 0,0 0,-1 0,-2l0 -131c0,-1 0,-1 0,-1 0,0 1,-1 1,-1 1,0 2,-1 3,-1 2,0 3,0 4,0 3,0 4,0 5,0 1,0 2,1 3,1 0,0 1,1 1,1 1,0 1,0 1,1l0 131zm159 -69c0,7 -2,14 -4,21 -2,6 -6,11 -10,16 -5,4 -11,8 -18,10 -7,3 -15,5 -25,5l0 18c0,0 0,1 0,1 0,1 -1,1 -2,1 -1,0 -2,0 -2,0 -2,1 -3,1 -5,1 -2,0 -3,0 -4,0 -2,-1 -2,-1 -3,-1 -1,0 -1,0 -2,0 0,-1 0,-2 0,-2l0 -18c-10,0 -18,-2 -26,-4 -7,-2 -12,-6 -17,-9 -5,-5 -8,-10 -10,-16 -2,-6 -4,-14 -4,-22 0,-7 2,-14 4,-20 2,-6 5,-11 10,-16 5,-5 11,-8 18,-11 7,-3 16,-5 25,-5l0 -16c0,-1 0,-1 0,-2 1,0 1,-1 2,-1 1,0 2,-1 3,-1 1,0 2,0 4,0 2,0 3,0 5,0 0,0 1,1 2,1 1,0 2,1 2,1 0,1 0,1 0,2l0 16c10,0 18,2 25,4 8,2 13,6 18,10 4,4 8,10 11,16 1,5 3,12 3,21zm-19 1c0,-6 -1,-10 -2,-15 -1,-5 -3,-8 -7,-11 -2,-4 -6,-6 -11,-8 -5,-2 -11,-3 -18,-4l0 75c7,-1 13,-2 18,-4 4,-2 8,-5 11,-8 4,-3 6,-7 7,-12 1,-4 2,-8 2,-13l0 0zm-56 -38c-7,1 -13,2 -18,4 -4,3 -8,5 -11,8 -4,3 -6,7 -7,11 -1,5 -2,9 -2,14 0,6 1,10 1,15 2,4 4,8 8,11 3,3 7,6 11,8 5,2 11,3 18,4l0 -75 0 0z"/>
  <path class="fil0" d="M114 2704c-8,14 -12,29 -15,44 -4,15 -6,30 -6,45 0,15 2,29 6,44 3,15 7,30 14,44 1,1 1,2 1,3 0,0 0,0 -1,1 0,0 -1,1 -3,1 0,0 -2,0 -4,0 -1,0 -2,0 -3,0 0,0 -1,0 -2,-1 -1,0 -2,0 -2,0 0,-1 0,-1 0,-1 -4,-7 -8,-14 -11,-22 -3,-7 -5,-14 -7,-22 -2,-8 -4,-16 -4,-23 -1,-8 -2,-16 -2,-24 0,-8 1,-16 2,-23 0,-8 2,-16 4,-24 2,-8 5,-15 7,-22 4,-8 7,-15 11,-22 0,0 0,0 0,-1 0,0 0,0 1,0 1,-1 2,-1 3,-1 0,0 2,0 3,0 2,0 4,0 4,0 1,1 2,1 3,1 1,1 1,1 1,1 0,1 0,2 0,2l0 0zm149 142c0,2 0,3 -2,3 -1,1 -3,2 -6,2 -2,0 -3,0 -4,0 -2,-1 -2,-1 -3,-1 -1,0 -1,-1 -2,-1 0,-1 0,-1 0,-1l-7 -56c0,-2 -1,-4 -1,-6 0,-3 0,-5 0,-7 0,-2 0,-4 0,-7 -1,-2 -1,-4 -1,-7l0 -2c-1,2 -2,5 -3,6 0,2 -1,5 -2,7 -1,3 -2,5 -2,7 -1,3 -2,5 -2,6l-20 57c0,1 -1,2 -1,2 -1,0 -1,1 -2,1 0,1 -1,1 -2,1 -2,1 -2,1 -4,1 -1,0 -3,0 -4,-1 -1,0 -1,0 -2,0 -1,-1 -2,-1 -2,-2 -1,0 -1,-1 -1,-2l-19 -57c-1,-1 -2,-3 -2,-6 -1,-2 -2,-4 -2,-7 -1,-2 -2,-5 -2,-6 -1,-2 -2,-5 -3,-7l0 2c0,3 0,5 0,7 -1,3 -1,5 -1,7 0,2 0,4 0,7 -1,2 -1,4 -1,6l-6 55c0,1 0,1 -1,1 0,1 -1,1 -2,2 0,0 -1,0 -2,1 -2,0 -2,0 -5,0 -1,0 -3,0 -4,-1 -1,0 -1,0 -2,-1 -1,0 -1,-1 -1,-1 -1,0 -1,-1 0,-2l10 -89c0,-3 1,-4 3,-6 0,-1 3,-2 5,-2l9 0c1,0 3,0 5,1 1,0 3,1 3,2 1,1 2,1 3,3 1,1 1,2 2,5l14 40c1,3 2,5 3,8 0,2 1,4 2,7 1,2 2,4 2,7 0,2 1,4 2,7l0 0c1,-3 1,-5 2,-7 1,-3 1,-5 2,-7 1,-4 1,-6 2,-8 1,-3 2,-5 3,-7l14 -40c0,-2 1,-3 2,-5 1,-2 2,-2 2,-3 1,-1 3,-2 3,-2 2,-1 4,-1 6,-1l8 0c3,0 5,1 6,2 1,1 2,2 2,5l11 90 0 0zm107 -50c0,2 -1,4 -2,5 -2,2 -3,2 -5,2l-62 0c0,5 0,10 2,15 0,4 2,8 4,10 3,3 7,5 11,7 4,2 8,2 14,2 4,0 8,0 11,0 4,-1 8,-2 10,-3 2,-1 5,-1 6,-2 2,-1 3,-2 4,-2 1,0 1,0 2,1 0,0 0,1 0,1 0,1 0,1 0,2 0,1 1,2 1,3 0,1 -1,2 -1,3 0,0 0,1 0,1 0,1 0,1 0,2 0,1 0,1 -1,1 0,0 -2,1 -3,2 -3,1 -5,2 -8,2 -2,1 -6,2 -10,3 -4,0 -8,0 -13,0 -8,0 -15,0 -20,-3 -7,-2 -11,-5 -15,-9 -4,-5 -7,-10 -10,-17 -1,-6 -3,-14 -3,-22 0,-8 2,-15 3,-22 3,-7 6,-12 10,-17 4,-5 8,-8 14,-10 6,-2 12,-4 20,-4 7,0 13,2 18,4 5,2 10,5 13,9 4,4 6,9 8,15 1,5 2,11 2,18l0 3 0 0zm-18 -6c1,-9 -1,-16 -5,-21 -5,-5 -11,-8 -20,-8 -4,0 -8,1 -11,3 -3,1 -6,3 -8,6 -2,2 -4,5 -5,9 -1,3 -2,7 -2,11l51 0 0 0zm110 -33c0,2 0,3 0,4 0,1 0,2 -1,3 0,0 -1,0 -1,0 0,1 0,1 -1,1l-28 0 0 83c0,0 -1,0 -1,0 0,1 -1,1 -2,2 -1,0 -1,0 -2,0 -2,1 -2,1 -5,1 -1,0 -3,0 -4,-1 -1,0 -2,0 -2,0 -1,-1 -2,-1 -2,-2 0,0 0,0 0,0l0 -83 -29 0c0,0 0,0 -1,-1 -1,0 -1,0 -1,0 -1,-1 -1,-2 -1,-3 0,-1 -1,-2 -1,-4 0,-1 1,-2 1,-3 0,-1 0,-2 1,-3 0,0 1,-1 1,-1 1,-1 1,-1 1,-1l75 0c1,0 1,0 1,1 0,0 1,1 1,1 1,1 1,2 1,3 0,1 0,2 0,3l0 0zm104 41c0,8 -1,15 -4,22 -2,6 -5,12 -9,17 -4,4 -9,8 -15,11 -6,3 -13,3 -21,3 -8,0 -15,0 -20,-3 -6,-2 -11,-5 -15,-10 -4,-5 -7,-10 -9,-16 -2,-7 -2,-14 -2,-22 0,-7 0,-14 3,-21 1,-7 4,-12 8,-17 4,-5 10,-8 16,-11 6,-2 13,-4 21,-4 8,0 14,2 21,4 5,2 10,6 14,10 4,4 7,10 8,16 3,6 4,13 4,21l0 0zm-18 2c0,-6 -1,-11 -2,-15 -1,-5 -2,-9 -5,-12 -2,-3 -5,-6 -8,-8 -4,-2 -9,-3 -15,-3 -5,0 -10,1 -13,2 -4,3 -7,5 -9,8 -3,3 -4,7 -6,12 -1,5 -1,9 -1,15 0,5 0,10 1,15 1,5 3,8 5,12 2,3 5,6 9,8 4,2 8,3 14,3 5,0 9,-1 13,-3 4,-1 7,-5 9,-8 3,-3 4,-7 6,-11 1,-5 2,-10 2,-15l0 0zm38 81c0,1 0,2 0,2 0,0 -1,1 -2,1 0,0 0,0 -2,0 -1,0 -1,0 -3,0 -2,0 -2,0 -4,0 -1,0 -2,0 -2,0 0,0 -1,-1 -1,-1 0,0 -1,-1 -1,-2l0 -41c0,-3 1,-3 2,-4 0,-1 1,-1 3,-1l6 0c3,-3 6,-7 8,-11 2,-4 4,-9 6,-15 2,-6 4,-14 6,-23 1,-8 3,-18 4,-30 0,-1 0,-3 0,-3 0,-1 1,-2 1,-2 1,-1 2,-1 2,-1 1,-1 1,-1 2,-1l53 0c2,0 3,1 4,2 1,1 1,2 1,5l0 79 14 0c1,0 2,0 3,1 0,1 0,1 0,4l0 41c0,1 0,2 0,2 0,0 0,1 -1,1 0,0 -1,0 -2,0 -1,0 -2,0 -4,0 -1,0 -2,0 -3,0 -1,0 -2,0 -2,0 -1,0 -2,-1 -2,-1 0,0 0,-1 0,-2l0 -31 -86 0 0 31 0 0zm66 -117l-30 0c-1,11 -3,21 -5,29 -1,7 -3,15 -5,20 -2,6 -3,9 -6,13 -1,4 -4,7 -6,9l52 0 0 -71 0 0zm140 34c0,8 -1,15 -3,22 -2,6 -5,12 -9,17 -4,4 -9,8 -15,11 -6,3 -13,3 -21,3 -8,0 -15,0 -21,-3 -6,-2 -11,-5 -15,-10 -3,-5 -6,-10 -8,-16 -2,-7 -3,-14 -3,-22 0,-7 1,-14 4,-21 1,-7 4,-12 8,-17 4,-5 10,-8 15,-11 6,-2 13,-4 21,-4 8,0 15,2 21,4 6,2 11,6 15,10 4,4 7,10 8,16 2,6 3,13 3,21l0 0zm-18 2c0,-6 0,-11 -1,-15 -1,-5 -3,-9 -5,-12 -2,-3 -5,-6 -9,-8 -3,-2 -8,-3 -14,-3 -5,0 -10,1 -13,2 -4,3 -7,5 -9,8 -3,3 -4,7 -6,12 -1,5 -2,9 -2,15 0,5 0,10 2,15 1,5 2,8 5,12 2,3 4,6 8,8 4,2 9,3 15,3 5,0 9,-1 13,-3 4,-1 7,-5 9,-8 3,-3 4,-7 5,-11 2,-5 2,-10 2,-15l0 0zm164 46c0,2 0,3 -1,3 -2,1 -3,2 -7,2 -2,0 -3,0 -4,0 -2,-1 -3,-1 -3,-1 0,0 -1,-1 -1,-1 0,-1 -1,-1 -1,-1l-7 -56c0,-2 0,-4 0,-6 -1,-3 -1,-5 -1,-7 0,-2 0,-4 0,-7 0,-2 0,-4 -1,-7l0 -2c-1,2 -2,5 -2,6 -1,2 -1,5 -2,7 -1,3 -2,5 -3,7 0,3 -1,5 -2,6l-20 57c0,1 0,2 -1,2 0,0 -1,1 -2,1 0,1 -1,1 -2,1 -1,1 -2,1 -4,1 -1,0 -2,0 -3,-1 -2,0 -2,0 -3,0 0,-1 -1,-1 -2,-2 0,0 -1,-1 -1,-2l-18 -57c-1,-1 -2,-3 -3,-6 -1,-2 -1,-4 -2,-7 -1,-2 -2,-5 -2,-6 -1,-2 -2,-5 -2,-7l0 2c-1,3 -1,5 -1,7 0,3 -1,5 -1,7 0,2 0,4 0,7 0,2 0,4 -1,6l-6 55c0,1 0,1 0,1 -1,1 -1,1 -2,2 -1,0 -2,0 -3,1 -1,0 -2,0 -4,0 -2,0 -3,0 -5,-1 -1,0 -1,0 -2,-1 0,0 -1,-1 -1,-1 0,0 0,-1 0,-2l10 -89c1,-3 2,-4 3,-6 1,-1 3,-2 5,-2l9 0c2,0 4,0 5,1 1,0 3,1 3,2 2,1 3,1 4,3 0,1 0,2 1,5l14 40c1,3 2,5 3,8 0,2 1,4 2,7 1,2 2,4 2,7 1,2 2,4 2,7l1 0c0,-3 0,-5 1,-7 1,-3 2,-5 3,-7 0,-4 1,-6 2,-8 1,-3 1,-5 2,-7l14 -40c0,-2 1,-3 2,-5 1,-2 2,-2 2,-3 2,-1 3,-2 4,-2 2,-1 3,-1 5,-1l9 0c2,0 4,1 5,2 2,1 2,2 2,5l11 90 0 0zm95 1c0,1 0,1 0,1 0,1 -1,1 -1,2 -1,0 -2,0 -3,0 -1,1 -3,1 -5,1 -2,0 -3,0 -4,-1 -2,0 -2,0 -3,0 -1,-1 -1,-1 -2,-2 0,0 0,0 0,-1l0 -131c0,-1 0,-1 0,-2 1,0 2,-1 2,-1 1,0 2,0 3,0 2,0 2,0 4,0 2,0 4,0 5,0 1,0 2,0 3,0 0,0 1,1 1,1 0,1 0,1 0,2l0 131zm160 -69c0,7 -2,14 -4,20 -3,6 -6,12 -10,17 -5,4 -11,7 -18,10 -8,3 -15,5 -25,5l0 18c0,0 -1,0 -1,0 0,1 0,1 -1,2 -1,0 -2,0 -3,0 -1,1 -3,1 -4,1 -2,0 -3,0 -4,0 -2,-1 -3,-1 -3,-1 -1,-1 -1,-1 -2,-1 0,-1 0,-1 0,-1l0 -18c-10,0 -18,-2 -26,-4 -7,-3 -12,-6 -17,-10 -5,-5 -8,-9 -10,-16 -3,-6 -4,-14 -4,-22 0,-7 1,-14 4,-20 2,-5 5,-11 10,-16 5,-4 11,-7 18,-11 7,-2 16,-4 25,-4l0 -17c0,-1 0,-1 0,-1 1,0 1,-1 2,-1 0,0 2,-1 3,-1 1,0 2,0 4,0 1,0 3,0 4,0 1,0 2,1 3,1 1,0 1,1 1,1 0,0 1,0 1,1l0 17c10,0 18,1 25,4 7,2 13,5 18,10 4,4 8,9 11,16 1,5 3,12 3,21zm-19 0c0,-5 -1,-10 -2,-14 -1,-5 -4,-8 -7,-11 -2,-4 -6,-7 -12,-8 -4,-3 -10,-3 -17,-4l0 74c6,0 13,-1 17,-4 5,-2 9,-4 12,-7 3,-4 6,-7 7,-12 1,-4 2,-9 2,-14l0 0zm-56 -37c-7,1 -13,1 -18,4 -5,2 -9,4 -12,8 -3,3 -5,7 -6,11 -2,4 -2,9 -2,14 0,5 0,10 1,15 2,4 4,7 7,11 3,3 7,6 12,7 5,3 11,4 18,4l0 -74 0 0z"/>
  <path class="fil0" d="M1346 1890c1,2 1,2 1,3 0,2 0,3 -1,3 0,0 -2,0 -3,0 -1,1 -3,1 -5,1 -2,0 -4,0 -6,0 0,-1 -1,-1 -2,-1 -1,0 -1,0 -1,0 -1,-1 -1,-2 -1,-2l-12 -34 -57 0 -11 33c0,1 -1,1 -1,2 0,1 -1,1 -2,1 0,0 -1,0 -3,0 -1,1 -2,1 -5,1 -1,0 -3,0 -4,-1 -2,0 -3,0 -3,0 0,-1 -1,-1 -1,-3 1,-1 1,-1 1,-3l46 -127c0,-1 1,-2 1,-2 0,0 1,-1 2,-1 1,-1 2,-1 3,-1 2,0 3,0 6,0 2,0 4,0 5,0 2,0 3,0 4,1 1,0 2,1 2,1 0,0 1,1 1,2l46 127zm-59 -112l0 0 -24 68 48 0 -24 -68zm115 62c0,8 0,16 -1,23 -1,7 -3,15 -5,23 -2,8 -4,15 -7,23 -3,7 -6,14 -10,21 0,1 0,1 -1,2 0,0 -1,0 -2,0 0,0 -1,0 -2,0 -1,0 -2,0 -3,0 -2,0 -3,0 -5,0 -1,0 -1,0 -1,0 -1,-1 -1,-1 -1,-2 0,-1 0,-1 0,-2 7,-14 12,-29 15,-44 3,-15 5,-30 5,-45 0,-15 -2,-30 -5,-45 -3,-15 -8,-30 -15,-44 0,0 0,0 0,-1 0,-1 0,-1 1,-2 0,0 1,0 2,-1 1,0 2,0 4,0 1,0 2,0 4,0 1,0 1,0 2,1 0,0 1,0 1,0 1,1 1,1 1,1 7,15 13,30 17,45 4,15 6,30 6,47l0 0z"/>
  <path class="fil0" d="M1314 2844c0,1 0,2 0,3 0,1 0,2 0,2 0,1 -2,1 -3,1 -1,1 -3,1 -5,1 -3,0 -4,0 -6,0 -1,-1 -1,-1 -2,-1 -1,-1 -2,-1 -2,-1 0,-1 0,-1 0,-1l-12 -34 -58 0 -11 33c0,1 0,1 0,1 0,1 -1,1 -2,2 -1,0 -1,0 -3,0 -1,1 -2,1 -5,1 -1,0 -3,0 -4,-1 -2,0 -3,0 -4,-1 0,-1 0,-1 0,-2 0,-1 0,-2 1,-3l46 -128c0,0 0,-1 0,-2 1,0 2,-1 3,-1 1,0 2,0 3,0 2,0 3,0 5,0 3,0 4,0 6,0 2,0 3,0 4,0 1,0 1,1 1,1 1,1 2,2 2,2l46 128zm-59 -113l0 0 -24 69 48 0 -24 -69zm115 62c0,8 -1,16 -2,24 0,7 -2,15 -4,23 -2,8 -4,15 -7,22 -3,8 -7,15 -10,22 0,0 0,0 -1,1 0,0 -1,0 -2,0 -1,1 -1,1 -2,1 -1,0 -3,0 -3,0 -3,0 -3,0 -5,0 -1,0 -2,-1 -2,-1 0,-1 0,-1 0,-1 0,-1 0,-2 0,-3 7,-14 11,-29 15,-44 3,-15 5,-29 5,-44 0,-15 -2,-30 -5,-45 -4,-15 -8,-30 -15,-44 0,0 0,-1 0,-2 0,0 0,0 0,-1 1,0 2,0 3,-1 1,0 2,0 4,0 1,0 2,0 4,0 0,0 1,0 2,1 0,0 1,0 1,0 1,1 1,1 1,1 7,14 13,29 17,44 4,16 6,31 6,47l0 0z"/>
  <path class="fil0" d="M370 1282c1,3 1,6 2,8 0,2 0,3 -1,5 -2,1 -3,1 -6,1 -3,1 -7,1 -12,1 -5,0 -9,0 -11,0 -2,-1 -4,-1 -6,-1 -1,-1 -2,-1 -3,-2 -1,-1 -1,-2 -1,-3l-13 -38 -71 0 -12 37c-1,1 -1,2 -2,3 0,1 -2,2 -3,2 -1,1 -3,1 -6,1 -3,1 -6,1 -9,1 -5,0 -8,0 -11,-1 -3,0 -4,-1 -5,-2 -1,-1 -2,-3 -1,-5 0,-2 1,-4 2,-7l58 -168c0,-2 1,-3 2,-4 1,-1 2,-2 4,-2 1,-1 4,-1 7,-1 3,-1 7,-1 11,-1 6,0 11,0 14,1 3,0 6,0 8,1 2,0 3,1 4,2 1,1 2,3 2,4l59 168zm-87 -138l-1 0 -25 79 53 0 -27 -79 0 0zm237 147c0,1 0,2 -1,2 0,1 -1,2 -3,2 -1,1 -3,1 -5,1 -3,1 -6,1 -9,1 -4,0 -7,0 -9,-1 -3,0 -5,0 -6,-1 -2,0 -3,-1 -3,-2 -1,0 -1,-1 -1,-2l0 -51 -52 0 0 51c0,1 -1,2 -1,2 -1,1 -2,2 -3,2 -2,1 -4,1 -6,1 -2,1 -5,1 -9,1 -4,0 -6,0 -8,-1 -2,0 -4,0 -6,-1 -1,0 -2,-1 -3,-2 0,0 -1,-1 -1,-2l0 -130c0,-1 1,-1 1,-2 1,-1 2,-1 3,-2 2,0 4,-1 6,-1 2,0 4,0 8,0 4,0 7,0 9,0 2,0 4,1 6,1 1,1 2,1 3,2 0,1 1,1 1,2l0 49 52 0 0 -49c0,-1 0,-1 1,-2 0,-1 1,-1 3,-2 1,0 3,-1 6,-1 2,0 5,0 9,0 3,0 6,0 9,0 2,0 4,1 5,1 2,1 3,1 3,2 1,1 1,1 1,2l0 130zm133 -119c0,3 0,6 0,8 0,2 0,4 -1,5 0,2 -1,2 -2,3 -1,0 -1,1 -2,1l-34 0 0 102c0,1 0,2 0,2 -1,1 -2,2 -3,2 -2,1 -4,1 -6,1 -3,1 -6,1 -9,1 -4,0 -6,0 -8,-1 -2,0 -4,0 -6,-1 -1,0 -2,-1 -3,-2 0,0 -1,-1 -1,-2l0 -102 -33 0c-1,0 -2,-1 -2,-1 -1,-1 -2,-2 -2,-3 -1,-1 -1,-3 -1,-5 -1,-2 -1,-5 -1,-8 0,-3 0,-6 1,-8 0,-2 0,-4 1,-4 0,-1 1,-2 2,-3 0,0 1,0 2,0l103 0c1,0 1,0 2,0 1,1 2,2 2,3 1,0 1,2 1,4 0,2 1,5 1,8l-1 0zm149 119c0,1 0,2 0,3 -1,1 -2,1 -3,2 -2,0 -4,0 -6,0 -2,1 -5,1 -9,1 -3,0 -6,0 -8,-1 -2,0 -4,0 -6,0 -1,-1 -2,-1 -3,-2 -1,-1 -1,-2 -1,-3l0 -58c0,-4 0,-8 0,-12 1,-4 1,-8 2,-13 -3,5 -5,9 -8,13 -3,3 -6,7 -9,11l-43 59c-1,1 -2,2 -3,3 0,1 -1,1 -3,2 -1,0 -3,0 -4,1 -2,0 -5,0 -8,0 -3,0 -6,0 -8,-1 -3,0 -4,0 -6,0 -1,-1 -2,-1 -2,-2 -1,-1 -1,-2 -1,-3l0 -130c0,0 0,-1 1,-2 0,-1 1,-1 3,-2 1,0 3,-1 5,-1 2,0 5,0 9,0 7,0 12,0 15,1 3,1 4,3 4,4l0 58c0,4 0,7 0,12 -1,4 -1,8 -2,12 3,-4 5,-7 8,-11 1,-4 4,-8 7,-11l45 -60c0,-1 1,-1 2,-2 1,-1 2,-2 3,-2 2,0 3,-1 5,-1 1,0 4,0 7,0 3,0 6,0 8,0 3,0 4,1 6,1 1,1 2,1 3,2 0,1 0,2 0,2l0 130 0 0zm133 -119c0,3 0,6 0,8 0,2 -1,4 -1,5 0,2 -1,2 -2,3 -1,0 -1,1 -2,1l-33 0 0 102c0,1 0,2 -1,2 0,1 -1,2 -2,2 -2,1 -4,1 -6,1 -3,1 -6,1 -9,1 -4,0 -7,0 -9,-1 -2,0 -4,0 -6,-1 -1,0 -2,-1 -3,-2 0,0 -1,-1 -1,-2l0 -102 -32 0c-1,0 -2,-1 -2,-1 -1,-1 -2,-2 -2,-3 -1,-1 -1,-3 -1,-5 -1,-2 -1,-5 -1,-8 0,-3 0,-6 1,-8 0,-2 0,-4 1,-4 0,-1 1,-2 2,-3 0,0 1,0 2,0l102 0c1,0 1,0 2,0 1,1 2,2 2,3 1,0 1,2 1,4 0,2 0,5 0,8l0 0zm57 119c0,1 0,2 -1,2 0,1 -1,2 -3,2 -1,1 -3,1 -6,1 -2,1 -5,1 -9,1 -3,0 -6,0 -8,-1 -2,0 -4,0 -5,-1 -2,0 -3,-1 -3,-2 -1,0 -1,-1 -1,-2l0 -130c0,-1 0,-1 1,-2 0,0 1,-1 3,-2 1,0 3,0 5,-1 2,0 5,0 8,0 4,0 7,0 9,0 3,1 5,1 6,1 2,1 3,2 3,2 1,1 1,1 1,2l0 130zm3 -174c0,7 -1,12 -5,15 -3,3 -8,5 -17,5 -8,0 -13,-2 -16,-4 -3,-3 -4,-8 -4,-15 0,-8 1,-13 5,-16 3,-3 7,-4 16,-4 8,0 14,1 17,4 3,3 4,8 4,15l0 0zm154 174c0,1 0,2 -1,2 0,1 -1,2 -2,2 -2,1 -4,1 -6,1 -3,1 -6,1 -9,1 -4,0 -7,0 -9,-1 -3,0 -5,0 -6,-1 -2,0 -3,-1 -3,-2 -1,0 -1,-1 -1,-2l0 -105 -26 0c-1,15 -3,29 -5,40 -3,12 -5,22 -9,30 -3,9 -6,16 -10,21 -3,6 -7,9 -12,13 -4,3 -9,5 -14,7 -6,1 -10,2 -16,2 -1,0 -2,-1 -3,-1 -1,0 -2,-1 -2,-2 -1,-1 -1,-3 -1,-5 0,-2 -1,-5 -1,-8 0,-4 0,-6 1,-9 0,-2 0,-4 0,-5 1,-1 1,-2 2,-2 1,-1 2,-1 3,-1 2,0 5,-1 8,-2 1,-1 4,-3 6,-6 2,-3 4,-7 6,-11 2,-5 4,-11 6,-19 1,-6 3,-15 4,-25 2,-10 3,-22 5,-35 0,-4 1,-7 2,-8 2,-2 4,-3 8,-3l75 0c4,0 6,1 8,3 2,1 2,4 2,8l0 123 0 0zm147 0c0,2 0,3 -1,4 -1,0 -3,1 -5,1 -2,1 -5,1 -9,1 -5,0 -7,0 -9,-1 -2,0 -4,-1 -4,-1 -1,-1 -2,-2 -2,-4l0 -9c-5,5 -11,9 -18,12 -7,4 -15,5 -23,5 -7,0 -13,-1 -19,-3 -6,-1 -11,-4 -15,-8 -4,-3 -8,-7 -10,-12 -2,-5 -4,-12 -4,-19 0,-7 2,-14 5,-20 3,-5 7,-10 13,-14 6,-3 14,-5 22,-7 9,-2 19,-3 31,-3l12 0 0 -8c0,-4 0,-7 -1,-11 -1,-3 -2,-5 -4,-7 -2,-2 -4,-4 -8,-5 -3,-1 -7,-1 -12,-1 -6,0 -11,0 -16,2 -5,1 -8,3 -12,4 -4,2 -7,3 -9,5 -3,1 -5,2 -7,2 -1,0 -2,0 -2,-1 -1,-1 -2,-2 -3,-3 0,-1 -1,-3 -1,-5 0,-2 0,-4 0,-6 0,-3 0,-6 0,-7 1,-2 2,-4 3,-5 2,-2 4,-3 8,-5 3,-1 7,-2 12,-4 4,-1 8,-2 14,-3 5,-1 11,-2 17,-2 10,0 19,1 26,3 8,2 13,5 17,9 5,4 9,9 11,16 2,6 3,14 3,23l0 87 0 0zm-36 -55l-14 0c-6,0 -11,0 -15,1 -4,1 -8,2 -10,4 -3,2 -5,4 -6,6 -1,3 -1,6 -1,9 0,6 1,10 4,13 4,3 8,5 15,5 5,0 10,-1 14,-4 4,-3 9,-7 13,-12l0 -22 0 0z"/>
  <path class="fil1" d="M105 1203c0,7 -1,14 -4,20 -3,6 -7,12 -11,17 -4,5 -10,8 -17,11 -6,3 -13,4 -21,4 -7,0 -14,-1 -20,-4 -6,-3 -12,-6 -16,-11 -5,-5 -9,-11 -12,-17 -3,-6 -4,-13 -4,-20 0,-8 1,-15 4,-21 3,-7 7,-12 12,-17 4,-5 10,-8 16,-11 6,-2 13,-4 21,-4 7,0 14,2 21,4 6,3 12,6 17,11 3,4 7,10 10,17 3,6 4,13 4,21z"/>
  <path class="fil0" d="M598 1611c0,1 0,2 -1,3 0,1 -1,2 -3,2 -2,1 -4,1 -6,1 -3,1 -6,1 -9,1 -4,0 -7,0 -10,-1 -2,0 -5,0 -6,-1 -2,0 -3,-1 -3,-2 -1,-1 -1,-2 -1,-3l0 -208c0,-1 0,-2 1,-3 0,-1 1,-2 3,-2 1,-1 4,-1 6,-2 3,0 6,0 10,0 3,0 6,0 9,0 2,1 4,1 6,2 2,0 3,1 3,2 1,1 1,2 1,3l0 208z"/>
  <path class="fil0" d="M441 2334c1,4 2,7 2,9 0,2 0,4 -1,5 -1,1 -3,1 -6,2 -3,0 -7,0 -12,0 -5,0 -9,0 -11,0 -3,0 -5,-1 -7,-1 0,-1 -1,-1 -2,-2 0,-1 -1,-2 -1,-3l-13 -39 -71 0 -12 38c-1,1 -1,2 -2,3 0,1 -1,2 -3,2 -1,1 -3,1 -6,2 -3,0 -6,0 -10,0 -4,0 -7,0 -10,-1 -3,0 -4,-1 -5,-2 -1,-1 -2,-2 -1,-5 0,-2 1,-4 2,-8l58 -167c1,-2 1,-3 2,-4 1,-1 2,-2 4,-2 2,-1 4,-1 7,-1 2,-1 6,-1 11,-1 6,0 11,0 14,1 4,0 6,0 8,1 2,0 3,1 4,2 1,1 2,3 2,5l59 166zm-87 -138l0 0 -26 80 53 0 -27 -80 0 0zm237 148c0,1 0,2 -1,3 0,0 -1,1 -3,1 -1,1 -3,1 -5,2 -3,0 -6,0 -9,0 -4,0 -7,0 -9,0 -3,-1 -5,-1 -6,-2 -2,0 -3,-1 -3,-1 -1,-1 -1,-2 -1,-3l0 -51 -52 0 0 51c0,1 -1,2 -1,3 -1,0 -2,1 -3,1 -2,1 -4,1 -6,2 -2,0 -5,0 -9,0 -4,0 -7,0 -9,0 -2,-1 -3,-1 -5,-2 -1,0 -2,-1 -3,-1 0,-1 -1,-2 -1,-3l0 -130c0,-1 1,-2 1,-3 1,-1 2,-1 3,-2 2,0 3,-1 5,-1 2,0 5,0 9,0 4,0 7,0 9,0 2,0 4,1 6,1 1,1 2,1 3,2 0,1 1,2 1,3l0 48 52 0 0 -48c0,-1 0,-2 1,-3 0,-1 1,-1 3,-2 1,0 3,-1 6,-1 2,0 5,0 9,0 3,0 6,0 9,0 2,0 4,1 5,1 2,1 3,1 3,2 1,1 1,2 1,3l0 130zm133 -119c0,3 0,6 -1,8 0,2 0,4 -1,5 0,2 -1,2 -2,2 0,1 -1,1 -2,1l-33 0 0 103c0,1 0,2 0,3 -1,0 -2,1 -3,1 -2,1 -4,1 -6,2 -2,0 -6,0 -9,0 -4,0 -7,0 -9,0 -1,-1 -3,-1 -5,-2 -1,0 -2,-1 -3,-1 0,-1 -1,-2 -1,-3l0 -103 -33 0c-1,0 -2,0 -2,-1 -1,0 -2,0 -2,-2 -1,-1 -1,-3 -1,-5 -1,-2 -1,-5 -1,-8 0,-3 1,-6 1,-8 0,-2 1,-3 1,-5 1,-1 1,-2 2,-2 0,-1 1,-1 2,-1l103 0c1,0 1,0 1,1 1,0 2,1 2,2 1,2 1,3 1,5 1,3 1,5 1,8l0 0zm149 119c0,1 0,2 0,3 -1,1 -2,1 -3,2 -2,0 -4,0 -6,1 -2,0 -5,0 -9,0 -3,0 -6,0 -9,0 -2,-1 -3,-1 -5,-1 -1,-1 -2,-1 -3,-2 -1,-1 -1,-2 -1,-3l0 -58c0,-4 0,-8 0,-13 1,-4 1,-8 2,-13 -3,5 -5,9 -8,13 -3,4 -6,8 -9,12l-43 59c-1,1 -2,2 -3,3 0,1 -1,1 -3,2 -1,0 -2,1 -4,1 -2,0 -5,0 -8,0 -3,0 -6,0 -8,0 -2,-1 -4,-1 -6,-1 -1,-1 -2,-1 -2,-2 -1,-1 -1,-2 -1,-3l0 -130c0,-1 0,-2 1,-3 0,-1 1,-1 3,-2 1,0 3,-1 5,-1 3,0 5,0 9,0 7,0 12,0 15,1 3,1 4,3 4,5l0 57c0,4 0,9 0,13 -1,4 -1,8 -2,12 3,-3 4,-7 7,-11 2,-4 5,-8 8,-12l45 -59c0,-1 1,-2 2,-3 1,-1 2,-1 2,-2 2,0 3,-1 5,-1 2,0 5,0 8,0 3,0 6,0 9,0 2,0 4,1 5,1 1,1 2,1 3,2 0,1 0,2 0,3l0 130 0 0z"/>
  <path class="fil0" d="M1007 2225c0,3 -1,6 -1,8 0,2 0,4 -1,5 0,2 -1,2 -2,2 -1,1 -1,1 -2,1l-34 0 0 103c0,1 0,2 0,3 0,0 -1,1 -2,1 -2,1 -4,1 -6,2 -3,0 -6,0 -9,0 -4,0 -7,0 -9,0 -2,-1 -4,-1 -6,-2 -1,0 -2,-1 -3,-1 0,-1 -1,-2 -1,-3l0 -103 -32 0c-1,0 -2,0 -2,-1 -1,0 -2,0 -2,-2 -1,-1 -1,-3 -1,-5 -1,-2 -1,-5 -1,-8 0,-3 0,-6 1,-8 0,-2 0,-3 1,-5 0,-1 1,-2 2,-2 0,-1 1,-1 2,-1l102 0c1,0 1,0 2,1 1,0 2,1 2,2 1,2 1,3 1,5 0,3 1,5 1,8l0 0zm56 119c0,1 0,2 -1,3 0,0 -1,1 -3,1 -1,1 -3,1 -6,2 -2,0 -5,0 -9,0 -3,0 -6,0 -9,0 -2,-1 -4,-1 -5,-2 -1,0 -2,-1 -2,-1 -1,-1 -1,-2 -1,-3l0 -130c0,-1 0,-2 1,-3 0,0 1,-1 2,-1 1,-1 3,-1 5,-2 3,0 6,0 9,0 4,0 7,0 9,0 3,1 5,1 6,2 2,0 3,1 3,1 1,1 1,2 1,3l0 130zm3 -174c0,7 -1,12 -5,14 -3,3 -8,5 -17,5 -8,0 -14,-2 -16,-4 -2,-3 -4,-7 -4,-14 0,-8 2,-13 4,-16 3,-3 8,-4 17,-4 8,0 14,1 17,4 3,3 4,8 4,15l0 0zm153 174c0,1 0,2 0,3 -1,0 -2,1 -3,1 -1,1 -3,1 -5,2 -3,0 -6,0 -9,0 -4,0 -7,0 -9,0 -3,-1 -5,-1 -6,-2 -1,0 -2,-1 -3,-1 -1,-1 -1,-2 -1,-3l0 -105 -27 0c-1,15 -2,28 -4,40 -3,12 -5,22 -8,29 -3,9 -7,16 -11,21 -3,6 -7,10 -12,14 -4,3 -9,5 -14,7 -5,1 -11,2 -16,2 -1,0 -2,-1 -3,-1 -1,0 -2,-1 -2,-2 -1,-1 -1,-3 -1,-5 0,-2 -1,-5 -1,-9 0,-3 1,-6 1,-9 0,-2 0,-4 1,-5 0,-1 0,-2 1,-2 1,-1 2,-1 3,-1 2,0 4,-1 7,-2 2,-1 5,-3 7,-6 2,-3 4,-7 6,-10 2,-5 4,-11 6,-18 1,-8 3,-16 4,-27 2,-10 3,-21 5,-34 0,-4 1,-7 2,-9 2,-2 4,-3 8,-3l75 0c4,0 6,1 7,3 2,2 2,5 2,9l0 123 0 0zm148 0c0,2 0,3 -1,4 -1,0 -3,1 -5,1 -2,1 -5,1 -9,1 -5,0 -8,0 -10,-1 -2,0 -3,-1 -3,-1 -1,-1 -2,-2 -2,-4l0 -10c-5,6 -11,10 -18,13 -7,4 -15,5 -23,5 -7,0 -14,-1 -19,-2 -6,-2 -11,-5 -15,-9 -4,-3 -8,-8 -10,-13 -2,-5 -3,-12 -3,-19 0,-6 1,-13 4,-19 3,-5 8,-10 14,-14 5,-3 12,-6 21,-8 9,-2 19,-3 31,-3l13 0 0 -8c0,-4 -1,-7 -2,-11 -1,-3 -2,-5 -4,-6 -2,-2 -4,-4 -8,-5 -3,-1 -7,-1 -11,-1 -7,0 -12,0 -17,2 -5,1 -9,3 -12,4 -4,1 -7,3 -9,4 -3,1 -5,2 -7,2 -1,0 -2,0 -2,-1 -1,-1 -2,-2 -2,-3 -1,0 -1,-2 -2,-4 0,-2 0,-4 0,-6 0,-3 0,-5 1,-7 0,-2 1,-4 2,-5 2,-1 4,-3 8,-5 3,-1 7,-3 11,-5 4,-1 9,-2 15,-3 5,-1 11,-2 17,-2 10,0 19,1 26,3 7,2 13,6 18,10 4,4 8,9 10,16 2,7 3,13 3,23l0 87 0 0zm-35 -55l-15 0c-6,0 -11,0 -15,1 -4,1 -8,2 -10,4 -3,2 -5,4 -6,6 -1,2 -2,5 -2,8 0,6 2,10 5,13 4,3 9,5 15,5 5,0 10,-1 14,-4 5,-3 9,-7 14,-12l0 -21 0 0z"/>
  <path class="fil0" d="M568 2639c0,1 0,2 -1,3 0,0 -1,1 -3,1 -1,1 -3,1 -5,2 -3,0 -6,0 -9,0 -4,0 -7,0 -9,0 -3,-1 -5,-1 -6,-2 -2,0 -3,-1 -3,-1 -1,-1 -1,-2 -1,-3l0 -192c0,-1 0,-2 1,-3 0,0 1,-1 3,-2 1,0 3,0 6,-1 2,0 5,0 9,0 3,0 6,0 9,0 2,1 4,1 5,1 2,1 3,2 3,2 1,1 1,2 1,3l0 192zm153 -121c0,5 0,8 -1,11 -1,2 -3,3 -4,3l-16 0c2,2 4,5 5,8 1,3 1,6 1,9 0,8 -1,15 -4,20 -2,6 -5,11 -10,15 -4,4 -10,7 -17,9 -7,2 -14,3 -23,3 -4,0 -8,0 -12,-1 -4,-1 -6,-2 -8,-4 -1,2 -2,3 -3,5 -1,2 -1,4 -1,6 0,3 1,5 4,7 2,2 5,3 9,3l32 1c8,0 15,1 20,3 6,2 10,5 14,8 4,2 7,6 9,11 2,5 4,10 4,16 0,6 -2,12 -5,18 -3,6 -7,11 -13,15 -4,3 -12,7 -20,9 -9,3 -19,4 -30,4 -12,0 -20,-1 -28,-3 -8,-2 -15,-4 -20,-7 -5,-2 -9,-6 -11,-10 -2,-5 -3,-10 -3,-15 0,-3 0,-6 1,-9 1,-3 2,-6 4,-9 1,-2 3,-5 6,-7 2,-3 5,-5 8,-8 -5,-2 -8,-4 -10,-8 -2,-4 -4,-8 -4,-13 0,-6 2,-11 4,-16 3,-4 7,-9 11,-13 -4,-3 -6,-7 -9,-12 -2,-4 -3,-10 -3,-17 0,-8 2,-15 4,-21 3,-6 7,-11 12,-15 5,-4 10,-7 17,-10 6,-2 13,-2 21,-2 4,0 8,0 12,0 4,0 8,1 11,2l41 0c1,0 3,1 4,3 1,2 1,6 1,11l0 0zm-47 31c0,-7 -1,-12 -5,-16 -4,-4 -10,-6 -17,-6 -4,0 -7,0 -10,2 -3,1 -5,3 -6,5 -2,2 -3,4 -4,7 -1,3 -1,6 -1,9 0,7 2,12 5,15 4,4 9,6 16,6 4,0 7,-1 10,-2 3,-1 5,-3 7,-5 2,-1 3,-3 4,-6 1,-3 1,-6 1,-9zm9 104c0,-5 -2,-8 -5,-11 -4,-2 -9,-3 -15,-3l-26 -1c-2,2 -4,4 -5,5 -2,2 -3,4 -4,5 -1,2 -2,3 -2,5 0,1 0,3 0,4 0,5 2,9 7,12 4,2 11,3 20,3 6,0 11,0 14,-1 4,-1 7,-3 10,-5 2,-2 4,-4 5,-6 1,-2 1,-5 1,-7l0 0z"/>
  <path class="fil0" d="M967 2639c0,1 0,2 0,2 -1,1 -2,2 -3,2 -2,1 -4,1 -6,1 -2,1 -5,1 -9,1 -3,0 -6,0 -8,-1 -2,0 -4,0 -6,-1 -1,0 -2,-1 -3,-2 0,0 -1,-1 -1,-2l0 -153 0 0 -54 152c-1,2 -1,3 -2,4 -1,1 -2,1 -4,2 -1,0 -3,1 -6,1 -2,0 -5,0 -8,0 -4,0 -6,0 -9,0 -2,-1 -4,-1 -6,-2 -1,0 -2,-1 -3,-2 -1,0 -2,-1 -2,-3l-52 -152 -1 0 0 153c0,1 0,2 -1,2 0,1 -1,2 -3,2 -1,1 -3,1 -5,1 -3,1 -6,1 -9,1 -3,0 -6,0 -8,-1 -3,0 -4,0 -6,-1 -1,0 -2,-1 -3,-2 0,0 -1,-1 -1,-2l0 -168c0,-5 2,-9 4,-12 3,-2 7,-4 11,-4l24 0c5,0 9,1 12,1 3,1 6,2 9,4 2,2 4,4 6,7 1,3 3,6 4,10l40 113 1 0 41 -112c2,-4 3,-8 5,-11 1,-3 3,-5 5,-7 2,-2 4,-3 7,-4 3,0 6,-1 10,-1l25 0c3,0 5,1 7,1 2,1 3,2 5,3 1,2 2,3 3,5 0,2 0,4 0,7l0 168 0 0z"/>
  <path class="fil0" d="M431 508c0,6 0,11 -1,16 0,4 -1,6 -1,8 -1,3 -3,4 -4,5 -1,2 -2,2 -5,2l-60 0 0 189c0,1 0,3 -1,4 -2,2 -3,3 -5,4 -3,0 -6,1 -11,1 -5,1 -10,1 -17,1 -6,0 -11,0 -16,-1 -4,0 -7,-1 -10,-1 -2,-1 -4,-2 -6,-4 -1,-1 -1,-3 -1,-4l0 -189 -60 0c-2,0 -3,0 -4,-2 -2,-1 -2,-2 -4,-5 -1,-2 -2,-6 -2,-9 0,-4 0,-9 0,-15 0,-6 0,-9 0,-13 1,-4 1,-7 2,-10 2,-2 3,-3 4,-5 1,-1 2,-1 4,-1l187 0c3,0 4,0 5,1 1,2 3,3 4,5 0,3 1,6 1,10 1,4 1,8 1,13l0 0zm254 94c0,7 -2,13 -5,18 -4,3 -9,5 -16,5l-145 0c0,10 1,19 3,27 3,9 6,16 12,22 5,5 12,10 20,14 8,2 18,3 30,3 12,0 22,0 31,-2 9,-1 16,-4 23,-5 7,-2 13,-5 16,-6 5,-3 9,-3 11,-3 1,0 3,0 4,0 1,2 2,3 2,4 1,3 1,4 3,7 0,3 0,6 0,11 0,4 0,8 0,10 0,4 -2,6 -2,7 0,3 -1,4 -1,5 -1,1 -2,3 -3,4 -2,1 -4,3 -9,6 -6,2 -12,3 -21,6 -8,2 -16,3 -27,6 -10,1 -21,1 -33,1 -22,0 -40,-2 -56,-7 -16,-6 -29,-13 -40,-24 -11,-11 -19,-26 -24,-42 -5,-17 -9,-36 -9,-59 0,-21 4,-40 9,-57 6,-17 13,-31 24,-44 11,-12 24,-20 39,-26 16,-7 33,-10 51,-10 20,0 37,3 52,9 13,6 25,14 35,24 9,11 16,23 19,37 5,15 7,31 7,48l0 11 0 0zm-66 -20c1,-19 -2,-34 -11,-45 -8,-11 -20,-17 -37,-17 -9,0 -16,3 -23,5 -6,4 -11,9 -16,14 -4,6 -7,12 -10,19 -2,7 -3,16 -3,24l100 0 0 0zm303 108c0,4 0,8 -1,11 0,4 0,6 -1,8 0,2 0,4 -2,5 0,1 -2,4 -3,5 -3,3 -6,5 -11,7 -6,4 -12,6 -18,9 -8,2 -14,5 -22,6 -7,1 -16,1 -24,1 -19,0 -34,-2 -49,-8 -14,-5 -26,-14 -36,-26 -10,-11 -17,-24 -22,-40 -5,-17 -7,-35 -7,-56 0,-24 3,-44 9,-61 6,-18 14,-33 25,-44 11,-12 24,-21 38,-25 15,-6 31,-9 49,-9 7,0 13,0 21,1 7,2 13,4 19,6 6,2 11,4 16,8 5,2 8,5 11,6 1,2 2,3 3,6 1,1 1,2 1,5 2,2 2,4 2,7 1,4 1,7 1,12 0,10 -1,17 -3,22 -2,3 -4,6 -7,6 -4,0 -6,-1 -10,-4 -3,-2 -7,-5 -12,-8 -5,-3 -11,-6 -17,-9 -6,-2 -14,-3 -23,-3 -17,0 -30,7 -40,20 -9,14 -14,33 -14,60 0,13 1,24 3,34 3,9 6,18 11,24 5,7 10,12 17,16 8,2 15,4 25,4 8,0 16,-1 24,-4 6,-3 12,-6 17,-9 5,-4 9,-7 12,-10 3,-2 7,-3 10,-3 1,0 2,0 3,1 1,0 1,2 3,5 0,2 1,5 1,10 0,3 1,8 1,14l0 0zm227 -182c0,6 -2,11 -2,16 0,4 -1,6 -2,8 0,3 -1,4 -2,5 -3,2 -4,2 -5,2l-61 0 0 189c0,1 0,3 -1,4 -1,2 -4,3 -6,4 -3,0 -6,1 -10,1 -5,1 -10,1 -17,1 -6,0 -12,0 -16,-1 -4,0 -7,-1 -10,-1 -3,-1 -4,-2 -5,-4 -2,-1 -2,-3 -2,-4l0 -189 -60 0c-1,0 -4,0 -5,-2 -1,-1 -2,-2 -2,-5 -2,-2 -3,-6 -3,-9 -1,-4 -1,-9 -1,-15 0,-6 1,-9 1,-13 0,-4 1,-7 3,-10 1,-2 1,-3 2,-5 1,-1 4,-1 5,-1l188 0c1,0 2,0 5,1 1,2 2,3 2,5 1,3 2,6 2,10 0,4 2,8 2,13l0 0z"/>
 </g>
</svg>
