<?xml version="1.0" encoding="UTF-8"?>
<!DOCTYPE svg PUBLIC "-//W3C//DTD SVG 1.1//EN" "http://www.w3.org/Graphics/SVG/1.1/DTD/svg11.dtd">
<!-- Creator: CorelDRAW X7 -->
<svg xmlns="http://www.w3.org/2000/svg" xml:space="preserve" width="14.4107mm" height="29.6642mm" version="1.1" style="shape-rendering:geometricPrecision; text-rendering:geometricPrecision; image-rendering:optimizeQuality; fill-rule:evenodd; clip-rule:evenodd"
viewBox="0 0 1441 2966"
 xmlns:xlink="http://www.w3.org/1999/xlink">
 <defs>
  <style type="text/css">
   <![CDATA[
    .fil0 {fill:#1B4E9B;fill-rule:nonzero}
    .fil1 {fill:#E31E24;fill-rule:nonzero}
   ]]>
  </style>
 </defs>
 <g id="Слой_x0020_1">
  <metadata id="CorelCorpID_0Corel-Layer"/>
  <path class="fil0" d="M538 347c0,1 -2,5 -4,6 -1,1 -2,2 -5,4 -3,0 -7,1 -11,1 -4,1 -10,1 -17,1 -8,0 -14,0 -18,-1 -4,0 -8,-1 -10,-1 -4,-2 -5,-3 -6,-4 -2,-1 -3,-5 -3,-6l0 -286 -132 0 0 286c0,1 -2,5 -3,6 -1,1 -2,2 -6,4 -2,0 -6,1 -12,1 -3,1 -9,1 -17,1 -6,0 -12,0 -17,-1 -4,0 -8,-1 -12,-1 -2,-2 -3,-3 -4,-4 -2,-1 -3,-5 -3,-6l0 -324c0,-8 3,-13 6,-17 4,-4 9,-6 16,-6l236 0c6,0 11,2 15,6 4,4 7,9 7,17l0 324 0 0 0 0zm354 0c0,1 -1,5 -3,6 -1,1 -2,2 -4,4 -4,0 -8,1 -11,1 -5,1 -12,1 -18,1 -7,0 -14,0 -18,-1 -4,0 -9,-1 -11,-1 -4,-2 -5,-3 -6,-4 -1,-1 -1,-5 -1,-6l0 -287 -77 0c-5,41 -10,79 -15,110 -6,31 -12,58 -18,81 -6,21 -12,41 -19,55 -8,14 -17,25 -26,34 -9,8 -20,14 -32,18 -11,2 -25,5 -40,5 -2,0 -5,-2 -6,-2 -2,-1 -4,-2 -5,-4 -1,-2 -2,-5 -2,-9 -1,-3 -1,-8 -1,-14 0,-8 0,-14 0,-18 1,-6 1,-10 2,-12 1,-3 2,-5 4,-5 1,-1 2,-3 4,-3 7,0 11,0 16,-2 7,-2 12,-7 17,-13 4,-9 8,-17 13,-29 4,-13 9,-29 15,-48 3,-22 7,-46 12,-76 3,-28 8,-63 13,-103 0,-9 3,-15 6,-19 4,-4 8,-6 16,-6l174 0c6,0 11,2 15,6 4,4 6,9 6,17l0 324 0 0zm322 -239c0,20 -3,38 -9,54 -7,15 -17,28 -28,38 -12,12 -27,19 -44,25 -18,5 -38,8 -62,8l-30 0 0 114c0,1 0,2 -1,6 -1,1 -4,2 -6,2 -2,2 -6,3 -11,3 -5,1 -11,1 -18,1 -7,0 -12,0 -17,-1 -5,0 -8,-1 -12,-3 -2,0 -5,-1 -6,-2 0,-3 -1,-5 -1,-6l0 -321c0,-9 2,-15 7,-20 5,-4 11,-6 18,-6l83 0c9,0 18,0 26,1 7,0 15,1 27,4 10,2 21,6 33,12 11,6 19,13 27,22 8,8 14,19 19,31 3,11 5,24 5,38l0 0 0 0zm-75 5c0,-12 -3,-23 -7,-31 -4,-7 -11,-13 -17,-17 -6,-4 -14,-6 -20,-7 -8,-1 -15,-1 -22,-1l-32 0 0 120 33 0c12,0 23,-1 30,-4 7,-3 13,-8 18,-14 6,-5 10,-12 13,-19 3,-8 4,-17 4,-27l0 0 0 0zm249 105c0,11 -1,18 -2,23 -4,3 -7,6 -11,6l-114 0c-5,0 -9,-2 -10,-6 -3,-6 -4,-13 -4,-23 0,-10 1,-18 4,-23 1,-3 5,-6 10,-6l114 0c2,0 4,1 5,1 2,2 5,3 6,5 0,3 1,5 2,10 0,3 0,8 0,13l0 0z"/>
  <path class="fil0" d="M787 1521c0,4 0,8 -1,12 -1,2 -3,3 -5,3l-17 0c3,3 4,6 6,9 1,4 1,7 1,11 0,8 -1,16 -4,23 -3,6 -7,11 -13,15 -5,5 -12,8 -19,10 -7,4 -15,5 -25,5 -4,0 -9,-1 -13,-2 -4,-1 -7,-3 -10,-5 -1,2 -2,4 -3,6 -1,2 -3,4 -3,7 0,3 3,6 5,8 3,1 7,3 12,3l35 1c8,0 16,2 22,4 7,2 13,4 17,8 4,5 8,9 10,13 2,5 4,11 4,17 0,7 -2,15 -5,21 -3,7 -8,12 -14,17 -6,4 -15,7 -25,11 -9,2 -19,4 -33,4 -12,0 -22,-1 -32,-3 -9,-2 -16,-5 -20,-8 -6,-4 -10,-8 -14,-13 -2,-4 -3,-10 -3,-15 0,-5 0,-8 1,-11 1,-4 2,-7 5,-10 2,-3 4,-6 7,-8 2,-3 5,-5 8,-7 -4,-2 -8,-7 -10,-11 -3,-4 -4,-9 -4,-14 0,-6 1,-12 4,-18 3,-6 7,-10 11,-15 -3,-2 -6,-7 -8,-12 -3,-5 -4,-13 -4,-21 0,-8 2,-16 5,-22 3,-8 6,-13 11,-17 5,-5 12,-8 20,-11 7,-2 15,-3 24,-3 5,0 10,0 14,1 3,0 7,1 11,2l46 0c2,0 4,1 5,3 1,3 2,7 2,12l-1 0 0 0zm-53 34c0,-7 -2,-13 -6,-18 -4,-4 -10,-7 -18,-7 -4,0 -8,2 -11,3 -3,1 -5,3 -7,5 -2,3 -4,5 -5,8 -1,4 -1,7 -1,10 0,7 2,14 6,18 5,5 10,7 18,7 4,0 8,-1 12,-2 2,-1 4,-3 6,-5 2,-3 4,-5 5,-9 1,-3 1,-6 1,-10zm10 116c0,-4 -2,-8 -6,-11 -4,-2 -9,-4 -15,-4l-30 -1c-3,2 -5,4 -7,6 -1,2 -4,4 -5,6 -1,1 -1,3 -2,5 0,1 0,3 0,5 0,6 3,10 9,13 6,3 13,4 23,4 6,0 12,-1 16,-2 4,-1 7,-3 10,-5 2,-2 4,-4 5,-7 1,-3 2,-6 2,-9l0 0 0 0zm243 -188c0,3 0,6 -1,8 0,3 0,5 -1,7 0,1 -1,2 -2,3 0,0 -1,0 -2,0 -1,0 -4,-1 -7,-3 -3,-1 -7,-5 -12,-7 -6,-2 -12,-4 -19,-6 -8,-2 -16,-3 -26,-3 -9,0 -19,2 -27,5 -8,4 -15,10 -21,16 -7,6 -11,14 -15,22 -2,10 -3,20 -3,31 0,13 1,23 3,32 4,9 8,16 15,24 6,6 12,10 20,13 8,4 18,5 27,5 5,0 9,0 14,-1 5,-2 9,-3 14,-5l0 -49 -39 0c-3,0 -5,-1 -6,-4 -1,-3 -2,-7 -2,-13 0,-3 0,-6 1,-8 0,-2 0,-3 1,-5 1,-1 1,-2 2,-2 1,-1 2,-1 4,-1l70 0c2,0 4,0 5,1 1,0 2,1 3,2 1,2 2,3 3,5 0,1 0,3 0,5l0 85c0,4 0,7 -1,9 -1,2 -4,4 -7,5 -4,1 -8,3 -13,4 -5,2 -11,3 -16,4 -6,1 -13,2 -18,3 -6,0 -12,1 -16,1 -18,0 -33,-3 -46,-8 -14,-5 -24,-10 -34,-21 -10,-9 -17,-20 -22,-34 -4,-13 -7,-27 -7,-44 0,-18 3,-34 8,-47 5,-13 12,-26 23,-35 9,-10 20,-17 34,-22 14,-5 28,-8 45,-8 9,0 17,1 25,2 8,1 15,3 20,5 6,1 10,3 14,5 3,2 6,4 8,6 1,1 2,3 3,6 0,3 1,7 1,12l0 0 0 0z"/>
  <path class="fil1" d="M181 2318c0,7 -1,14 -4,21 -3,7 -7,13 -12,18 -4,5 -10,8 -17,10 -6,3 -13,4 -22,4 -7,0 -14,-1 -20,-4 -7,-2 -12,-5 -17,-10 -5,-5 -9,-11 -12,-18 -3,-7 -4,-14 -4,-21 0,-8 1,-16 4,-21 3,-7 7,-12 12,-17 5,-5 10,-9 17,-12 6,-3 13,-5 21,-5 8,0 15,2 22,4 6,4 12,8 16,13 5,4 9,10 12,17 3,5 4,13 4,21l0 0z"/>
  <path class="fil0" d="M150 1799c-7,14 -12,30 -15,45 -4,15 -7,31 -7,46 0,16 3,31 7,46 3,16 8,31 14,46 1,1 1,1 1,2 0,1 0,1 -1,2 0,0 -1,0 -2,0 -1,0 -3,0 -4,0 -2,0 -3,0 -3,0 -1,0 -2,0 -3,0 -1,0 -1,0 -1,0 -1,-1 -1,-1 -1,-2 -4,-7 -9,-15 -11,-22 -4,-8 -6,-15 -8,-23 -2,-9 -3,-17 -4,-24 -1,-7 -2,-16 -2,-24 0,-9 1,-17 2,-24 1,-9 2,-16 5,-24 1,-8 4,-15 7,-24 3,-7 7,-14 11,-22 0,0 0,0 0,-1 1,0 1,0 1,0 1,-1 2,-1 3,-1 1,0 2,0 4,0 1,0 3,0 4,0 0,1 1,1 2,1 1,1 1,1 1,2 0,1 0,1 0,1l0 0 0 0zm153 146c0,2 0,4 -2,4 0,0 -3,1 -6,1 -2,0 -3,0 -4,0 -1,-1 -2,-1 -3,-1 -1,0 -1,0 -2,0 0,-1 0,-1 0,-2l-7 -58c0,-1 0,-4 0,-6 0,-2 0,-5 -1,-7 0,-2 0,-4 0,-6 -2,-3 -2,-5 -2,-8l0 -3c-1,3 -2,6 -2,7 -1,3 -2,5 -3,8 -1,2 -1,4 -2,7 -1,2 -2,4 -2,6l-20 58c0,1 -1,2 -1,3 -1,0 -1,1 -1,1 -1,0 -2,0 -3,0 -2,1 -3,1 -5,1 -1,0 -3,0 -4,-1 0,0 -1,0 -2,0 -1,0 -2,0 -2,-1 0,-1 0,-2 0,-3l-20 -58c-1,-2 -2,-4 -2,-6 -1,-3 -2,-5 -2,-7 -2,-3 -2,-5 -3,-7 -1,-2 -2,-5 -3,-8l0 3c0,3 0,5 0,8 0,2 0,4 0,6 -1,2 -1,5 -1,7 -1,2 -1,5 -1,6l-6 57c0,1 0,2 -1,2 0,1 -1,1 -2,1 0,0 -1,0 -2,1 -1,0 -2,0 -5,0 -1,0 -3,0 -4,-1 0,0 -1,0 -2,0 -1,0 -1,-1 -1,-1 0,-1 0,-2 0,-3l11 -92c0,-2 0,-4 2,-6 1,0 3,-1 5,-1l9 0c2,0 3,0 6,1 1,0 3,0 4,1 0,1 1,2 2,3 1,1 2,3 2,5l14 41c1,3 2,7 3,9 1,2 1,5 2,7 1,2 2,5 3,7 0,2 0,5 1,7l0 0c1,-2 2,-5 2,-7 2,-2 2,-5 3,-7 1,-3 2,-5 2,-8 1,-2 2,-6 3,-8l14 -41c1,-1 1,-3 2,-5 1,-1 2,-2 3,-3 0,-1 2,-1 3,-1 1,-1 3,-1 5,-1l9 0c3,0 5,1 6,1 1,1 2,3 3,5l10 93 0 0 0 0zm110 -52c0,3 0,5 -2,6 -2,2 -3,2 -5,2l-64 0c0,6 0,10 2,15 1,4 2,8 5,10 3,3 7,6 11,7 4,2 8,3 14,3 5,0 9,0 12,-1 5,-1 8,-2 10,-2 2,-1 5,-2 6,-3 2,-1 4,-1 4,-1 1,0 1,0 2,0 0,0 0,1 1,1 0,1 0,2 0,3 0,0 0,1 0,3 0,2 0,2 0,3 0,1 0,2 0,2 0,0 0,0 -1,1 0,1 0,1 -1,2 0,0 -1,1 -3,1 -2,1 -5,2 -8,3 -2,1 -6,1 -11,2 -4,1 -8,1 -13,1 -8,0 -15,-1 -20,-3 -7,-3 -12,-6 -16,-10 -4,-5 -7,-11 -9,-17 -2,-6 -4,-14 -4,-24 0,-8 2,-15 4,-22 2,-6 5,-12 9,-17 4,-5 9,-8 15,-11 6,-2 13,-4 20,-4 7,0 13,2 20,4 4,3 9,6 12,10 4,4 6,9 8,15 2,5 2,12 2,18l0 3 0 0 0 0zm-18 -5c1,-10 -1,-17 -5,-22 -6,-6 -12,-8 -21,-8 -4,0 -8,0 -11,2 -3,2 -6,4 -9,7 -2,3 -4,6 -5,10 -1,3 -2,7 -2,11l53 0 0 0 0 0zm113 -34c0,1 0,2 0,4 0,0 0,1 -1,2 0,0 0,1 0,1 -1,1 -1,1 -2,1l-29 0 0 85c0,0 -1,1 -1,1 0,1 -1,1 -2,1 0,0 -1,0 -2,0 -1,1 -2,1 -5,1 -1,0 -3,0 -5,-1 -1,0 -2,0 -2,0 -1,0 -1,0 -1,-1 -1,0 -1,-1 -1,-1l0 -85 -28 0c-1,0 -1,0 -2,-1 -1,0 -1,-1 -1,-1 -2,-1 -2,-2 -2,-2 0,-2 0,-3 0,-4 0,-2 0,-3 0,-3 0,-2 0,-3 2,-4 0,0 1,0 1,0 1,-1 1,-1 2,-1l76 0c1,0 1,0 2,1 0,0 0,0 0,0 1,1 1,2 1,4 0,0 0,1 0,3l0 0 0 0zm107 42c0,8 -1,15 -3,22 -3,7 -7,12 -11,17 -4,6 -8,10 -15,12 -6,3 -13,4 -22,4 -8,0 -15,-1 -20,-3 -6,-3 -12,-6 -15,-10 -4,-6 -7,-12 -10,-18 -1,-6 -2,-13 -2,-22 0,-8 1,-15 3,-21 2,-7 5,-13 9,-19 4,-4 10,-7 16,-11 6,-2 13,-3 22,-3 8,0 15,1 21,3 5,3 10,6 14,11 4,4 8,10 10,16 2,7 3,14 3,22l0 0 0 0zm-19 1c0,-5 -1,-10 -2,-15 -1,-5 -2,-8 -5,-12 -2,-3 -5,-6 -8,-8 -4,-3 -10,-4 -15,-4 -6,0 -10,1 -14,3 -4,3 -7,5 -9,9 -2,3 -4,7 -6,11 0,5 -1,10 -1,15 0,7 1,12 1,16 1,5 3,9 5,12 3,4 6,6 9,9 4,1 8,3 14,3 5,0 10,-2 14,-3 4,-2 7,-5 10,-8 2,-3 4,-7 5,-12 1,-5 2,-9 2,-16l0 0zm39 85c0,1 0,1 0,1 0,0 -1,1 -1,1 0,0 -1,1 -3,1 0,0 -1,0 -3,0 -1,0 -2,0 -4,0 -1,0 -1,-1 -1,-1 -1,0 -2,-1 -2,-1 0,0 -1,0 -1,-1l0 -43c0,-3 1,-4 2,-5 0,-1 1,-1 3,-1l6 0c3,-3 6,-7 8,-11 2,-3 4,-8 7,-14 2,-8 4,-16 6,-24 1,-9 3,-19 4,-32 0,-1 1,-2 1,-3 0,-1 0,-2 0,-2 1,0 2,0 2,0 1,-1 2,-1 2,-1l54 0c2,0 3,1 6,1 0,1 0,3 0,5l0 81 14 0c1,0 2,0 3,1 1,1 1,2 1,5l0 43c0,1 0,1 0,1 0,0 -1,1 -2,1 0,0 -1,1 -2,1 -1,0 -2,0 -3,0 -2,0 -3,0 -4,0 -1,0 -2,-1 -2,-1 -1,0 -1,-1 -1,-1 0,0 0,0 0,-1l0 -33 -90 0 0 33 0 0 0 0zm68 -122l-31 0c-1,13 -3,22 -4,30 -2,8 -4,16 -6,21 -1,6 -3,10 -5,14 -2,3 -4,6 -7,8l53 0 0 -73 0 0 0 0zm145 36c0,8 -2,15 -4,22 -2,7 -5,12 -9,17 -4,6 -10,10 -16,12 -6,3 -13,4 -21,4 -9,0 -16,-1 -21,-3 -7,-3 -11,-6 -15,-10 -4,-6 -8,-12 -10,-18 -2,-6 -2,-13 -2,-22 0,-8 0,-15 3,-21 1,-7 6,-13 9,-19 4,-4 10,-7 15,-11 7,-2 14,-3 23,-3 7,0 14,1 20,3 6,3 12,6 16,11 4,4 7,10 8,16 2,7 4,14 4,22l0 0 0 0zm-19 1c0,-5 -1,-10 -2,-15 -1,-5 -2,-8 -5,-12 -2,-3 -5,-6 -9,-8 -3,-3 -8,-4 -13,-4 -6,0 -12,1 -15,3 -4,3 -7,5 -9,9 -3,3 -4,7 -6,11 -1,5 -1,10 -1,15 0,7 0,12 1,16 1,5 3,9 5,12 2,4 5,6 9,9 4,1 8,3 15,3 5,0 9,-2 13,-3 4,-2 7,-5 10,-8 2,-3 3,-7 4,-12 2,-5 3,-9 3,-16l0 0 0 0zm168 48c1,2 0,4 -1,4 -2,0 -3,1 -7,1 -2,0 -3,0 -4,0 -2,-1 -2,-1 -2,-1 -1,0 -2,0 -2,0 0,-1 -1,-1 -1,-2l-8 -58c0,-1 0,-4 0,-6 0,-2 0,-5 0,-7 0,-2 -1,-4 -1,-6 0,-3 0,-5 -1,-8l0 -3c-1,3 -2,6 -2,7 0,3 -1,5 -2,8 -1,2 -2,4 -2,7 -1,2 -2,4 -3,6l-20 58c-1,1 -1,2 -2,3 0,0 -1,1 -1,1 -1,0 -2,0 -3,0 -1,1 -2,1 -4,1 -1,0 -2,0 -3,-1 -1,0 -2,0 -3,0 0,0 -1,0 -2,-1 0,-1 0,-2 0,-3l-20 -58c-1,-2 -2,-4 -3,-6 0,-3 -1,-5 -2,-7 -1,-3 -1,-5 -2,-7 -1,-2 -2,-5 -2,-8l0 3c-1,3 -1,5 -1,8 0,2 0,4 0,6 0,2 -1,5 -1,7 0,2 0,5 -1,6l-6 57c0,1 0,2 0,2 -1,1 -1,1 -2,1 -1,0 -1,0 -3,1 -1,0 -2,0 -4,0 -2,0 -3,0 -5,-1 0,0 -1,0 -3,0 0,0 -1,-1 -1,-1 0,-1 0,-2 0,-3l12 -92c0,-2 1,-4 2,-6 1,0 3,-1 5,-1l9 0c2,0 4,0 5,1 1,0 3,0 4,1 1,1 3,2 4,3 1,1 1,3 1,5l14 41c1,3 2,7 3,9 1,2 1,5 2,7 1,2 2,5 3,7 0,2 1,5 1,7l1 0c0,-2 1,-5 1,-7 1,-2 2,-5 3,-7 1,-3 1,-5 2,-8 1,-2 2,-6 2,-8l16 -41c0,-1 0,-3 1,-5 1,-1 2,-2 3,-3 1,-1 2,-1 3,-1 2,-1 4,-1 5,-1l9 0c3,0 5,1 6,1 2,1 3,3 3,5l10 93 0 0 0 0zm99 1c0,1 0,2 -1,2 0,1 -1,1 -1,1 -1,0 -2,0 -3,0 -1,1 -2,1 -6,1 -1,0 -3,0 -4,-1 -1,0 -2,0 -3,0 -1,0 -1,0 -1,-1 0,0 0,-1 0,-2l0 -135c0,-1 0,-1 0,-1 0,0 1,-1 1,-1 1,0 2,-1 3,-1 2,0 3,0 4,0 4,0 5,0 6,0 1,0 2,1 3,1 0,0 1,1 1,1 1,0 1,0 1,1l0 135zm163 -71c0,7 -2,14 -4,21 -2,7 -6,12 -10,17 -5,4 -12,8 -19,10 -7,3 -15,5 -25,5l0 19c0,0 0,1 0,1 0,1 -1,1 -3,1 -1,0 -2,0 -2,0 -2,1 -3,1 -5,1 -2,0 -3,0 -4,0 -2,-1 -2,-1 -3,-1 -1,0 -1,0 -2,0 0,-1 0,-2 0,-2l0 -19c-10,0 -18,-2 -27,-4 -7,-2 -12,-6 -17,-9 -5,-5 -8,-10 -10,-17 -2,-6 -5,-14 -5,-22 0,-7 3,-15 5,-21 2,-6 5,-11 10,-16 5,-5 11,-8 18,-11 8,-4 17,-6 26,-6l0 -16c0,-1 0,-1 0,-2 1,0 1,-1 2,-1 1,0 2,-1 3,-1 1,0 2,0 4,0 2,0 3,0 5,0 0,0 1,1 2,1 2,0 3,1 3,1 0,1 0,1 0,2l0 16c10,0 18,2 25,5 8,2 14,6 19,10 4,4 8,10 11,16 1,5 3,13 3,22l0 0zm-19 1c0,-6 -1,-10 -2,-16 -1,-5 -4,-8 -8,-11 -2,-4 -6,-6 -11,-8 -5,-2 -11,-3 -18,-4l0 77c7,-1 13,-2 18,-4 4,-2 8,-5 11,-8 4,-4 7,-8 8,-13 1,-4 2,-8 2,-13l0 0 0 0zm-58 -39c-7,1 -13,2 -18,4 -5,3 -9,5 -12,8 -4,3 -6,7 -7,11 -1,6 -2,10 -2,15 0,6 1,10 1,15 2,4 4,8 8,12 3,3 7,6 12,8 5,2 11,3 18,4l0 -77 0 0 0 0z"/>
  <path class="fil0" d="M117 2779c-8,15 -12,30 -15,46 -4,15 -6,30 -6,46 0,15 2,30 6,45 3,15 7,31 14,45 1,1 1,2 1,3 0,0 0,0 -1,1 0,0 -1,1 -3,1 0,0 -2,0 -4,0 -1,0 -2,0 -3,0 0,0 -1,0 -2,-1 -1,0 -2,0 -2,0 0,-1 0,-1 0,-1 -4,-7 -8,-14 -12,-22 -3,-7 -5,-15 -7,-23 -2,-8 -4,-16 -4,-24 -1,-8 -2,-16 -2,-24 0,-8 1,-17 2,-24 0,-8 2,-16 4,-24 2,-9 5,-16 7,-23 5,-8 8,-16 12,-23 0,0 0,0 0,-1 0,0 0,0 1,0 1,-1 2,-1 3,-1 0,0 2,0 3,0 2,0 4,0 4,0 1,1 2,1 3,1 1,1 1,1 1,1 0,1 0,2 0,2l0 0 0 0zm153 146c0,2 0,3 -2,3 -1,1 -3,2 -6,2 -2,0 -3,0 -4,0 -2,-1 -2,-1 -3,-1 -1,0 -1,-1 -2,-1 0,-1 0,-1 0,-1l-7 -57c0,-2 -1,-4 -1,-6 0,-3 0,-6 0,-8 0,-2 0,-4 0,-7 -1,-2 -1,-4 -1,-7l0 -2c-1,2 -2,5 -3,6 0,2 -2,5 -3,7 -1,3 -2,5 -2,8 -1,3 -2,5 -2,6l-20 58c0,1 -1,2 -1,2 -1,0 -1,1 -2,1 0,1 -1,1 -2,1 -2,1 -2,1 -4,1 -2,0 -4,0 -5,-1 -1,0 -1,0 -2,0 -1,-1 -2,-1 -2,-2 -1,0 -1,-1 -1,-2l-19 -58c-1,-1 -2,-3 -2,-6 -1,-3 -2,-5 -2,-8 -1,-2 -2,-5 -2,-6 -1,-2 -3,-5 -4,-7l0 2c0,3 0,5 0,7 -1,3 -1,5 -1,7 0,2 0,5 0,8 -1,2 -1,4 -1,6l-6 56c0,1 0,1 -1,1 0,1 -1,1 -2,2 0,0 -1,0 -2,1 -2,0 -2,0 -5,0 -1,0 -3,0 -4,-1 -1,0 -1,0 -2,-1 -1,0 -1,-1 -1,-1 -1,0 -1,-1 0,-2l10 -91c0,-3 1,-4 3,-6 0,-1 3,-2 5,-2l9 0c2,0 4,0 6,1 1,0 3,1 3,2 1,1 2,1 3,3 1,1 1,2 2,5l14 41c1,3 2,5 3,8 0,2 1,4 2,7 1,2 2,5 2,8 0,2 1,4 3,7l0 0c1,-3 1,-5 2,-7 1,-3 1,-6 2,-8 1,-4 1,-6 2,-8 1,-3 2,-5 3,-7l14 -41c0,-2 1,-3 2,-5 1,-2 2,-2 2,-3 1,-1 3,-2 3,-2 2,-1 4,-1 7,-1l8 0c3,0 5,1 6,2 1,1 2,2 2,5l11 92 0 0 0 0zm110 -51c0,2 -1,4 -2,5 -2,2 -3,2 -5,2l-64 0c0,5 0,10 2,16 0,4 3,8 5,10 3,3 7,5 11,7 4,2 8,2 14,2 4,0 8,0 12,0 4,-1 8,-2 10,-3 2,-1 5,-1 6,-2 2,-1 3,-2 4,-2 1,0 1,0 2,1 0,0 0,1 0,1 0,1 0,1 0,2 0,1 1,2 1,3 0,1 -1,2 -1,3 0,0 0,1 0,1 0,1 0,1 0,2 0,1 0,1 -1,1 0,0 -2,1 -3,2 -3,1 -5,2 -8,2 -2,1 -6,2 -10,3 -5,0 -9,0 -14,0 -8,0 -15,0 -20,-3 -8,-2 -12,-5 -16,-9 -4,-5 -7,-10 -10,-17 -1,-7 -3,-15 -3,-23 0,-8 2,-15 3,-23 3,-7 6,-12 10,-17 4,-5 8,-8 15,-10 6,-2 12,-4 20,-4 7,0 14,2 19,4 5,2 10,5 13,9 4,4 6,9 8,15 1,5 2,12 2,19l0 3 0 0 0 0zm-18 -6c1,-10 -1,-17 -5,-22 -5,-5 -12,-8 -21,-8 -4,0 -8,1 -11,3 -3,1 -6,3 -8,6 -2,2 -5,5 -6,9 -1,3 -2,8 -2,12l53 0 0 0 0 0zm113 -34c0,2 0,3 0,4 0,1 0,2 -1,3 0,0 -1,0 -1,0 0,1 0,1 -1,1l-29 0 0 85c0,0 -1,0 -1,0 0,1 -1,1 -2,2 -1,0 -1,0 -2,0 -2,1 -2,1 -5,1 -1,0 -3,0 -4,-1 -1,0 -2,0 -2,0 -1,-1 -3,-1 -3,-2 0,0 0,0 0,0l0 -85 -29 0c0,0 0,0 -1,-1 -1,0 -1,0 -1,0 -1,-1 -1,-2 -1,-3 0,-1 -1,-2 -1,-4 0,-1 1,-2 1,-3 0,-1 0,-2 1,-3 0,0 1,-1 1,-1 1,-1 1,-1 1,-1l77 0c1,0 1,0 1,1 0,0 1,1 1,1 1,1 1,2 1,3 0,1 0,2 0,3l0 0 0 0zm107 42c0,8 -1,15 -4,23 -2,6 -5,12 -10,17 -4,4 -9,8 -15,11 -6,3 -13,3 -22,3 -8,0 -15,0 -20,-3 -6,-2 -11,-5 -16,-10 -4,-5 -7,-10 -9,-16 -2,-8 -2,-15 -2,-23 0,-7 0,-14 3,-22 1,-7 4,-12 8,-17 5,-5 11,-8 17,-11 6,-2 13,-4 21,-4 9,0 15,2 22,4 5,2 10,6 14,10 5,4 8,10 9,16 3,7 4,14 4,22l0 0 0 0zm-19 2c0,-6 -1,-11 -2,-15 -1,-6 -2,-10 -5,-13 -2,-3 -5,-6 -8,-8 -4,-2 -9,-3 -16,-3 -5,0 -10,1 -13,2 -4,3 -7,5 -9,8 -3,3 -4,7 -6,13 -1,5 -1,9 -1,15 0,5 0,10 1,15 1,6 3,9 5,13 2,3 5,6 9,8 4,2 8,3 14,3 6,0 10,-1 14,-3 4,-1 7,-5 9,-8 3,-3 4,-7 6,-12 1,-5 2,-10 2,-15l0 0zm39 83c0,1 0,2 0,2 0,0 -1,1 -2,1 0,0 0,0 -2,0 -1,0 -1,0 -3,0 -2,0 -2,0 -4,0 -1,0 -2,0 -2,0 0,0 -1,-1 -1,-1 0,0 -1,-1 -1,-2l0 -42c0,-3 1,-3 2,-4 0,-1 1,-1 3,-1l6 0c3,-3 6,-7 8,-11 2,-4 5,-10 7,-16 2,-6 4,-14 6,-23 1,-9 3,-19 4,-31 0,-1 0,-3 0,-3 0,-1 1,-2 1,-2 1,-1 2,-1 2,-1 1,-1 1,-1 2,-1l55 0c2,0 3,1 4,2 1,1 1,2 1,5l0 81 14 0c1,0 2,0 3,1 0,1 0,1 0,4l0 42c0,1 0,2 0,2 0,0 0,1 -1,1 0,0 -1,0 -2,0 -1,0 -2,0 -4,0 -1,0 -2,0 -3,0 -1,0 -2,0 -2,0 -1,0 -2,-1 -2,-1 0,0 0,-1 0,-2l0 -32 -89 0 0 32 0 0 0 0zm68 -120l-31 0c-1,11 -3,22 -5,30 -1,7 -3,15 -5,20 -2,7 -3,10 -6,14 -1,4 -4,7 -6,9l53 0 0 -73 0 0 0 0zm144 35c0,8 -1,15 -3,23 -2,6 -5,12 -9,17 -4,4 -10,8 -16,11 -6,3 -13,3 -21,3 -8,0 -16,0 -22,-3 -6,-2 -11,-5 -15,-10 -3,-5 -6,-10 -8,-16 -3,-8 -4,-15 -4,-23 0,-7 1,-14 5,-22 1,-7 4,-12 8,-17 4,-5 10,-8 15,-11 6,-2 14,-4 22,-4 8,0 15,2 21,4 7,2 12,6 16,10 4,4 7,10 8,16 2,7 3,14 3,22l0 0zm-18 2c0,-6 0,-11 -1,-15 -1,-6 -4,-10 -6,-13 -2,-3 -5,-6 -9,-8 -3,-2 -8,-3 -14,-3 -5,0 -11,1 -14,2 -4,3 -7,5 -9,8 -3,3 -4,7 -6,13 -1,5 -2,9 -2,15 0,5 0,10 2,15 1,6 2,9 5,13 2,3 4,6 8,8 4,2 10,3 16,3 5,0 9,-1 13,-3 4,-1 7,-5 9,-8 3,-3 4,-7 6,-12 2,-5 2,-10 2,-15l0 0zm168 47c0,2 0,3 -1,3 -2,1 -3,2 -7,2 -2,0 -3,0 -4,0 -2,-1 -3,-1 -3,-1 0,0 -1,-1 -1,-1 0,-1 -1,-1 -1,-1l-8 -57c0,-2 0,-4 0,-6 -1,-3 -1,-6 -1,-8 0,-2 0,-4 0,-7 0,-2 0,-4 -1,-7l0 -2c-1,2 -2,5 -2,6 -1,2 -1,5 -2,7 -1,3 -2,5 -3,8 0,3 -1,5 -2,6l-20 58c0,1 0,2 -1,2 0,0 -1,1 -3,1 0,1 -1,1 -2,1 -1,1 -2,1 -4,1 -1,0 -2,0 -3,-1 -2,0 -2,0 -3,0 0,-1 -1,-1 -2,-2 0,0 -1,-1 -1,-2l-18 -58c-1,-1 -2,-3 -4,-6 -1,-3 -1,-5 -2,-8 -1,-2 -2,-5 -2,-6 -1,-2 -2,-5 -2,-7l0 2c-1,3 -1,5 -1,7 0,3 -1,5 -1,7 0,2 0,5 0,8 0,2 0,4 -1,6l-6 56c0,1 0,1 0,1 -1,1 -1,1 -2,2 -1,0 -2,0 -3,1 -1,0 -2,0 -4,0 -2,0 -3,0 -5,-1 -1,0 -1,0 -2,-1 0,0 -1,-1 -1,-1 0,0 0,-1 0,-2l10 -91c1,-3 2,-4 3,-6 1,-1 3,-2 5,-2l9 0c2,0 4,0 5,1 1,0 4,1 4,2 2,1 3,1 4,3 0,1 0,2 1,5l14 41c1,3 2,5 3,8 0,2 1,4 2,7 1,2 2,5 2,8 1,2 2,4 2,7l1 0c0,-3 0,-5 1,-7 1,-3 2,-6 3,-8 0,-4 1,-6 3,-8 1,-3 1,-5 2,-7l14 -41c0,-2 1,-3 2,-5 1,-2 2,-2 2,-3 2,-1 3,-2 4,-2 2,-1 3,-1 5,-1l10 0c2,0 4,1 5,2 2,1 2,2 2,5l11 92 0 0 0 0zm98 1c0,1 0,1 0,1 0,1 -1,1 -1,2 -1,0 -2,0 -3,0 -1,1 -3,1 -5,1 -3,0 -4,0 -5,-1 -2,0 -2,0 -3,0 -1,-1 -1,-1 -2,-2 0,0 0,0 0,-1l0 -134c0,-1 0,-1 0,-2 1,0 2,-1 2,-1 1,0 2,0 3,0 2,0 2,0 5,0 2,0 4,0 5,0 1,0 2,0 3,0 0,0 1,1 1,1 0,1 0,1 0,2l0 134zm164 -71c0,8 -2,15 -4,21 -3,6 -6,12 -10,17 -5,5 -11,8 -19,11 -8,3 -15,5 -25,5l0 18c0,0 -1,0 -1,0 0,1 0,1 -1,2 -1,0 -2,0 -3,0 -2,1 -4,1 -5,1 -2,0 -3,0 -4,0 -2,-1 -3,-1 -3,-1 -1,-1 -1,-1 -2,-1 0,-1 0,-1 0,-1l0 -18c-10,0 -18,-2 -27,-4 -7,-3 -12,-6 -17,-11 -5,-5 -8,-9 -10,-16 -3,-6 -4,-14 -4,-23 0,-7 1,-14 4,-20 2,-5 5,-11 10,-17 5,-4 11,-7 18,-11 8,-2 17,-4 26,-4l0 -18c0,-1 0,-1 0,-1 1,0 1,-1 2,-1 0,0 2,-1 3,-1 1,0 2,0 4,0 1,0 3,0 5,0 1,0 2,1 3,1 1,0 1,1 1,1 0,0 1,0 1,1l0 18c10,0 18,1 25,4 8,2 14,5 19,10 4,4 8,10 11,17 1,5 3,12 3,21l0 0zm-19 0c0,-5 -1,-10 -2,-14 -1,-5 -4,-8 -8,-11 -2,-4 -6,-8 -12,-9 -4,-3 -10,-3 -17,-4l0 76c6,0 13,-1 17,-4 5,-2 9,-4 12,-7 4,-4 7,-7 8,-12 1,-4 2,-9 2,-15l0 0zm-58 -38c-7,1 -13,1 -18,4 -5,3 -10,5 -13,9 -3,3 -5,7 -6,11 -2,4 -2,9 -2,14 0,6 0,11 1,16 2,4 4,7 7,11 3,3 8,6 13,7 5,3 11,4 18,4l0 -76 0 0 0 0z"/>
  <path class="fil0" d="M1384 1943c1,2 1,2 1,3 0,2 0,3 -1,3 0,0 -3,0 -4,0 -1,1 -3,1 -5,1 -2,0 -4,0 -6,0 0,-1 -1,-1 -2,-1 -1,0 -1,0 -1,0 -1,-1 -1,-2 -1,-2l-12 -35 -59 0 -11 34c0,1 -1,1 -1,2 0,1 -1,1 -2,1 0,0 -1,0 -3,0 -1,1 -2,1 -6,1 -1,0 -3,0 -4,-1 -2,0 -3,0 -3,0 0,-1 -1,-1 -1,-3 1,-1 1,-1 1,-3l48 -131c0,-1 1,-2 1,-2 0,0 1,-1 2,-1 1,-1 2,-1 3,-1 2,0 3,0 6,0 2,0 4,0 5,0 2,0 3,0 4,1 1,0 2,1 2,1 0,0 1,1 1,2l48 131zm-61 -115l0 0 -25 69 50 0 -25 -69zm118 63c0,8 0,17 -1,24 -1,7 -3,15 -5,24 -2,8 -4,15 -7,23 -3,7 -6,15 -11,22 0,1 0,1 -1,2 0,0 -1,0 -2,0 0,0 -1,0 -2,0 -1,0 -2,0 -3,0 -2,0 -3,0 -5,0 -1,0 -1,0 -1,0 -1,-1 -1,-1 -1,-2 0,-1 0,-1 0,-2 7,-15 12,-30 15,-46 3,-15 6,-30 6,-46 0,-15 -3,-31 -6,-46 -3,-15 -8,-31 -15,-45 0,0 0,0 0,-1 0,-1 0,-1 1,-2 0,0 1,0 2,-1 1,0 2,0 4,0 1,0 2,0 4,0 1,0 1,0 2,1 0,0 1,0 1,0 1,1 1,1 1,1 8,15 14,31 18,46 4,15 6,31 6,48l0 0 0 0z"/>
  <path class="fil0" d="M1351 2923c0,1 0,2 0,3 0,1 0,2 0,2 0,1 -2,1 -3,1 -1,1 -4,1 -6,1 -3,0 -4,0 -6,0 -1,-1 -1,-1 -2,-1 -1,-1 -2,-1 -2,-1 0,-1 0,-1 0,-1l-12 -35 -60 0 -11 34c0,1 0,1 0,1 0,1 -1,1 -2,2 -1,0 -1,0 -3,0 -1,1 -2,1 -5,1 -1,0 -4,0 -5,-1 -2,0 -3,0 -4,-1 0,-1 0,-1 0,-2 0,-1 0,-2 1,-3l48 -131c0,0 0,-1 0,-2 1,0 2,-1 3,-1 1,0 2,0 3,0 2,0 3,0 5,0 3,0 4,0 6,0 2,0 3,0 4,0 1,0 1,1 1,1 1,1 2,2 2,2l48 131 0 0zm-61 -116l0 0 -25 71 50 0 -25 -71zm118 64c0,8 -1,16 -2,24 0,8 -2,16 -4,24 -2,8 -4,16 -7,23 -3,8 -7,15 -10,22 0,0 0,0 -2,1 0,0 -1,0 -2,0 -1,1 -1,1 -2,1 -1,0 -3,0 -3,0 -3,0 -3,0 -5,0 -1,0 -2,-1 -2,-1 0,-1 0,-1 0,-1 0,-1 0,-2 0,-3 7,-14 11,-30 16,-45 3,-15 5,-30 5,-45 0,-16 -2,-31 -5,-46 -5,-16 -9,-31 -16,-46 0,0 0,-1 0,-2 0,0 0,0 0,-1 1,0 2,0 3,-1 1,0 2,0 4,0 1,0 2,0 4,0 0,0 1,0 2,1 0,0 1,0 1,0 2,1 2,1 2,1 7,15 13,30 17,45 4,17 6,32 6,49l0 0 0 0z"/>
  <path class="fil0" d="M380 1318c1,3 1,6 2,8 0,2 0,3 -1,5 -2,1 -3,1 -6,1 -3,1 -7,1 -12,1 -5,0 -9,0 -11,0 -3,-1 -5,-1 -7,-1 -1,-1 -2,-1 -3,-2 -1,-1 -1,-2 -1,-3l-13 -39 -73 0 -12 38c-1,1 -1,2 -2,3 0,1 -3,2 -4,2 -1,1 -3,1 -6,1 -3,1 -6,1 -9,1 -5,0 -8,0 -11,-1 -3,0 -4,-1 -5,-2 -1,-1 -2,-3 -1,-5 0,-2 1,-4 2,-7l59 -173c0,-2 1,-3 2,-4 1,-1 2,-2 4,-2 1,-1 5,-1 8,-1 3,-1 7,-1 11,-1 6,0 11,0 14,1 3,0 6,0 9,1 2,0 3,1 4,2 1,1 2,3 2,4l60 173 0 0zm-89 -142l-1 0 -26 81 55 0 -28 -81 0 0zm243 151c0,1 0,2 -1,2 0,1 -1,2 -3,2 -1,1 -3,1 -5,1 -3,1 -6,1 -9,1 -4,0 -7,0 -9,-1 -3,0 -5,0 -6,-1 -2,0 -4,-1 -4,-2 -1,0 -1,-1 -1,-2l0 -52 -53 0 0 52c0,1 -1,2 -1,2 -1,1 -2,2 -3,2 -2,1 -4,1 -6,1 -2,1 -5,1 -10,1 -4,0 -6,0 -8,-1 -2,0 -4,0 -6,-1 -1,0 -2,-1 -3,-2 0,0 -1,-1 -1,-2l0 -134c0,-1 1,-1 1,-2 1,-1 2,-1 3,-2 2,0 4,-1 6,-1 2,0 4,0 8,0 5,0 8,0 10,0 2,0 4,1 6,1 1,1 2,1 3,2 0,1 1,1 1,2l0 51 53 0 0 -51c0,-1 0,-1 1,-2 0,-1 2,-1 4,-2 1,0 3,-1 6,-1 2,0 5,0 9,0 3,0 6,0 9,0 2,0 4,1 5,1 2,1 3,1 3,2 1,1 1,1 1,2l0 134zm137 -122c0,3 0,6 0,8 0,2 0,4 -1,5 0,2 -1,2 -2,3 -1,0 -1,1 -2,1l-35 0 0 105c0,1 0,2 0,2 -1,1 -2,2 -3,2 -2,1 -4,1 -6,1 -3,1 -6,1 -9,1 -5,0 -7,0 -9,-1 -2,0 -4,0 -6,-1 -1,0 -2,-1 -3,-2 0,0 -1,-1 -1,-2l0 -105 -34 0c-1,0 -2,-1 -2,-1 -1,-1 -2,-2 -2,-3 -1,-1 -1,-3 -1,-5 -1,-2 -1,-5 -1,-8 0,-3 0,-7 1,-9 0,-2 0,-4 1,-4 0,-1 1,-2 2,-3 0,0 1,0 2,0l106 0c1,0 1,0 2,0 1,1 2,2 2,3 1,0 1,2 1,4 0,2 1,6 1,9l-1 0zm153 122c0,1 0,2 0,3 -1,1 -2,1 -3,2 -2,0 -4,0 -6,0 -2,1 -5,1 -9,1 -3,0 -6,0 -8,-1 -2,0 -4,0 -7,0 -1,-1 -2,-1 -3,-2 -1,-1 -1,-2 -1,-3l0 -60c0,-4 0,-8 0,-12 1,-4 1,-8 2,-13 -3,5 -5,9 -8,13 -3,3 -6,7 -9,11l-44 61c-1,1 -2,2 -3,3 0,1 -1,1 -3,2 -1,0 -4,0 -5,1 -2,0 -5,0 -8,0 -3,0 -6,0 -8,-1 -3,0 -4,0 -6,0 -1,-1 -2,-1 -2,-2 -1,-1 -1,-2 -1,-3l0 -134c0,0 0,-1 1,-2 0,-1 1,-1 3,-2 1,0 3,-1 5,-1 2,0 5,0 9,0 7,0 13,0 16,1 3,1 4,3 4,4l0 60c0,4 0,7 0,12 -1,4 -1,9 -2,13 3,-4 5,-8 8,-12 1,-4 4,-8 7,-11l46 -62c0,-1 1,-1 2,-2 1,-1 3,-2 4,-2 2,0 3,-1 5,-1 1,0 4,0 7,0 3,0 6,0 8,0 3,0 4,1 6,1 1,1 2,1 3,2 0,1 0,2 0,2l0 134 0 0 0 0zm137 -122c0,3 0,6 0,8 0,2 -1,4 -1,5 0,2 -1,2 -2,3 -1,0 -1,1 -2,1l-34 0 0 105c0,1 0,2 -1,2 0,1 -1,2 -2,2 -2,1 -4,1 -6,1 -3,1 -6,1 -10,1 -4,0 -7,0 -9,-1 -2,0 -4,0 -6,-1 -1,0 -2,-1 -3,-2 0,0 -1,-1 -1,-2l0 -105 -33 0c-1,0 -2,-1 -2,-1 -1,-1 -2,-2 -2,-3 -1,-1 -1,-3 -1,-5 -1,-2 -1,-5 -1,-8 0,-3 0,-7 1,-9 0,-2 0,-4 1,-4 0,-1 1,-2 2,-3 0,0 1,0 2,0l105 0c1,0 1,0 2,0 1,1 2,2 2,3 1,0 1,2 1,4 0,2 0,6 0,9l0 0 0 0zm59 122c0,1 0,2 -1,2 0,1 -1,2 -3,2 -1,1 -4,1 -7,1 -2,1 -5,1 -9,1 -3,0 -6,0 -8,-1 -2,0 -4,0 -5,-1 -2,0 -3,-1 -3,-2 -1,0 -1,-1 -1,-2l0 -134c0,-1 0,-1 1,-2 0,0 1,-1 3,-2 1,0 3,0 5,-1 2,0 5,0 8,0 4,0 7,0 9,0 3,1 6,1 7,1 2,1 3,2 3,2 1,1 1,1 1,2l0 134zm3 -179c0,7 -1,12 -5,16 -3,3 -9,5 -18,5 -8,0 -13,-2 -16,-4 -3,-4 -4,-9 -4,-16 0,-8 1,-13 5,-16 3,-3 7,-4 16,-4 8,0 15,1 18,4 3,3 4,8 4,15l0 0zm158 179c0,1 0,2 -1,2 0,1 -1,2 -2,2 -2,1 -4,1 -6,1 -3,1 -6,1 -9,1 -5,0 -8,0 -10,-1 -3,0 -5,0 -6,-1 -2,0 -3,-1 -3,-2 -1,0 -1,-1 -1,-2l0 -108 -27 0c-1,15 -3,30 -5,41 -3,12 -5,23 -9,31 -3,9 -6,16 -10,22 -3,6 -8,9 -13,13 -4,3 -9,5 -14,7 -6,1 -10,2 -17,2 -1,0 -2,-1 -3,-1 -1,0 -2,-1 -2,-2 -1,-1 -1,-3 -1,-5 0,-2 -1,-5 -1,-8 0,-4 0,-6 1,-10 0,-2 0,-4 0,-5 1,-1 1,-2 2,-2 1,-1 2,-1 3,-1 2,0 6,-1 9,-2 1,-1 4,-3 6,-6 2,-3 4,-7 6,-11 2,-5 4,-12 6,-20 1,-6 3,-15 4,-26 2,-10 3,-22 5,-35 0,-5 1,-8 2,-9 2,-2 5,-3 9,-3l77 0c4,0 6,1 8,3 2,1 2,4 2,9l0 126 0 0 0 0zm151 0c0,2 0,3 -1,4 -1,0 -3,1 -5,1 -2,1 -5,1 -9,1 -5,0 -8,0 -10,-1 -2,0 -4,-1 -4,-1 -1,-1 -2,-2 -2,-4l0 -9c-5,5 -11,9 -18,12 -7,4 -16,5 -24,5 -7,0 -13,-1 -19,-3 -7,-1 -12,-4 -16,-8 -4,-3 -8,-7 -10,-12 -2,-6 -4,-13 -4,-20 0,-7 2,-14 5,-21 3,-5 7,-10 13,-14 6,-3 15,-5 23,-7 9,-2 19,-3 32,-3l12 0 0 -8c0,-5 0,-8 -1,-12 -1,-3 -2,-5 -4,-7 -2,-2 -4,-4 -8,-5 -3,-1 -7,-1 -13,-1 -6,0 -11,0 -16,2 -5,1 -8,3 -12,4 -4,2 -8,3 -10,5 -3,1 -5,2 -7,2 -1,0 -2,0 -2,-1 -1,-1 -2,-2 -3,-3 0,-1 -1,-3 -1,-5 0,-2 0,-4 0,-6 0,-3 0,-6 0,-7 1,-2 2,-4 3,-5 2,-3 4,-4 8,-6 3,-1 8,-2 13,-4 4,-1 8,-2 14,-3 5,-1 11,-2 17,-2 11,0 20,1 27,3 8,2 14,5 18,9 5,5 9,10 11,17 2,6 3,14 3,24l0 89 0 0 0 0zm-37 -57l-14 0c-6,0 -12,0 -16,1 -4,1 -8,3 -10,5 -3,2 -5,4 -6,6 -1,3 -1,6 -1,9 0,6 1,10 4,13 4,3 8,5 15,5 5,0 11,-1 15,-4 4,-3 9,-7 13,-12l0 -23 0 0 0 0z"/>
  <path class="fil1" d="M108 1237c0,7 -1,14 -4,20 -3,6 -7,12 -11,18 -5,5 -11,8 -18,11 -6,3 -13,4 -22,4 -7,0 -14,-1 -20,-4 -6,-3 -12,-6 -17,-11 -5,-6 -9,-12 -12,-18 -3,-6 -4,-13 -4,-20 0,-9 1,-16 4,-22 3,-7 7,-12 12,-18 5,-5 11,-8 17,-11 6,-2 13,-4 21,-4 8,0 15,2 22,4 6,3 12,6 18,11 3,5 7,11 10,18 3,6 4,13 4,22z"/>
  <path class="fil1" d="M112 225c0,7 -1,14 -4,20 -3,7 -7,13 -11,18 -5,5 -11,8 -18,11 -6,3 -13,4 -21,4 -8,0 -15,-1 -21,-4 -6,-3 -12,-6 -16,-11 -6,-5 -10,-11 -13,-18 -3,-6 -4,-13 -4,-20 0,-8 1,-16 4,-22 3,-7 7,-12 13,-17 4,-5 10,-8 16,-12 6,-2 13,-4 22,-4 7,0 14,2 21,4 6,4 12,7 18,12 3,4 7,10 10,17 3,6 4,14 4,22z"/>
  <path class="fil0" d="M615 1656c0,1 0,2 -1,3 0,1 -1,2 -3,2 -3,1 -5,1 -7,1 -3,1 -6,1 -9,1 -4,0 -7,0 -10,-1 -2,0 -5,0 -6,-1 -2,0 -3,-1 -3,-2 -1,-1 -1,-2 -1,-3l0 -214c0,-1 0,-2 1,-3 0,-1 1,-2 3,-2 1,-1 4,-1 6,-2 3,0 6,0 10,0 3,0 6,0 9,0 2,1 4,1 7,2 2,0 3,1 3,2 1,1 1,2 1,3l0 214z"/>
  <path class="fil0" d="M453 2399c1,4 2,7 2,9 0,2 0,4 -1,5 -1,1 -3,1 -6,2 -3,0 -7,0 -12,0 -5,0 -9,0 -11,0 -4,0 -6,-1 -8,-1 0,-1 -1,-1 -2,-2 0,-1 -1,-2 -1,-3l-13 -40 -73 0 -12 39c-1,1 -1,2 -3,3 0,1 -1,2 -3,2 -1,1 -3,1 -6,2 -3,0 -6,0 -10,0 -4,0 -7,0 -10,-1 -3,0 -4,-1 -5,-2 -1,-1 -3,-2 -1,-5 0,-2 1,-4 2,-8l59 -172c1,-2 1,-3 2,-4 1,-1 2,-2 4,-2 2,-1 4,-1 8,-1 2,-1 6,-1 11,-1 6,0 11,0 14,1 4,0 6,0 8,1 3,0 4,1 5,2 1,1 2,3 2,5l60 171 0 0zm-89 -142l0 0 -27 82 55 0 -28 -82 0 0 0 0zm243 152c0,1 0,2 -1,3 0,0 -1,1 -3,1 -1,1 -3,1 -5,2 -3,0 -6,0 -9,0 -4,0 -7,0 -9,0 -3,-1 -5,-1 -6,-2 -3,0 -4,-1 -4,-1 -1,-1 -1,-2 -1,-3l0 -52 -53 0 0 52c0,1 -1,2 -1,3 -1,0 -2,1 -3,1 -2,1 -4,1 -6,2 -2,0 -5,0 -10,0 -4,0 -7,0 -9,0 -2,-1 -3,-1 -5,-2 -1,0 -2,-1 -3,-1 0,-1 -1,-2 -1,-3l0 -133c0,-1 1,-2 1,-3 1,-1 2,-1 3,-2 2,0 3,-1 5,-1 2,0 5,0 9,0 5,0 8,0 10,0 2,0 4,1 6,1 1,1 2,1 3,2 0,1 1,2 1,3l0 49 53 0 0 -49c0,-1 0,-2 1,-3 0,-1 2,-1 4,-2 1,0 3,-1 6,-1 2,0 5,0 9,0 3,0 6,0 9,0 2,0 4,1 5,1 2,1 3,1 3,2 1,1 1,2 1,3l0 133zm137 -122c0,3 0,6 -1,8 0,2 0,4 -1,5 0,2 -1,2 -2,2 0,1 -1,1 -2,1l-34 0 0 106c0,1 0,2 0,3 -1,0 -2,1 -3,1 -2,1 -4,1 -6,2 -2,0 -6,0 -9,0 -5,0 -8,0 -10,0 -1,-1 -3,-1 -5,-2 -1,0 -2,-1 -3,-1 0,-1 -1,-2 -1,-3l0 -106 -34 0c-1,0 -2,0 -2,-1 -1,0 -2,0 -2,-2 -1,-1 -1,-3 -1,-5 -1,-2 -1,-5 -1,-8 0,-3 1,-6 1,-8 0,-2 1,-3 1,-5 1,-1 1,-2 2,-2 0,-1 1,-1 2,-1l106 0c1,0 1,0 1,1 1,0 2,1 2,2 1,2 1,3 1,5 1,3 1,5 1,8l0 0zm153 122c0,1 0,2 0,3 -1,1 -2,1 -3,2 -2,0 -4,0 -6,1 -2,0 -5,0 -9,0 -3,0 -6,0 -9,0 -2,-1 -4,-1 -6,-1 -1,-1 -2,-1 -3,-2 -1,-1 -1,-2 -1,-3l0 -59c0,-4 0,-9 0,-14 1,-4 1,-8 2,-13 -3,5 -5,9 -8,13 -3,4 -6,9 -9,13l-44 60c-1,1 -2,2 -3,3 0,1 -1,1 -3,2 -1,0 -3,1 -5,1 -2,0 -5,0 -8,0 -3,0 -6,0 -8,0 -2,-1 -4,-1 -6,-1 -1,-1 -2,-1 -2,-2 -1,-1 -1,-2 -1,-3l0 -133c0,-1 0,-2 1,-3 0,-1 1,-1 3,-2 1,0 3,-2 5,-2 3,0 5,0 9,0 7,0 13,0 16,2 3,1 4,3 4,5l0 58c0,4 0,10 0,14 -1,4 -1,8 -2,12 3,-3 4,-7 7,-11 2,-4 5,-9 8,-13l46 -60c0,-1 1,-2 2,-3 1,-1 3,-1 3,-2 2,0 3,-2 5,-2 2,0 5,0 8,0 3,0 6,0 9,0 2,0 4,2 5,2 1,1 2,1 3,2 0,1 0,2 0,3l0 133 0 0 0 0z"/>
  <path class="fil0" d="M1035 2287c0,3 -1,6 -1,8 0,2 0,4 -1,5 0,2 -1,2 -2,2 -1,1 -1,1 -2,1l-35 0 0 106c0,1 0,2 0,3 0,0 -1,1 -2,1 -2,1 -4,1 -6,2 -3,0 -6,0 -10,0 -4,0 -7,0 -9,0 -2,-1 -4,-1 -6,-2 -1,0 -2,-1 -3,-1 0,-1 -1,-2 -1,-3l0 -106 -33 0c-1,0 -2,0 -2,-1 -1,0 -2,0 -2,-2 -1,-1 -1,-3 -1,-5 -1,-2 -1,-5 -1,-8 0,-3 0,-6 1,-8 0,-2 0,-3 1,-5 0,-1 1,-2 2,-2 0,-1 1,-1 2,-1l105 0c1,0 1,0 2,1 1,0 2,1 2,2 1,2 1,3 1,5 0,3 1,5 1,8l0 0 0 0zm58 122c0,1 0,2 -1,3 0,0 -1,1 -3,1 -2,1 -4,1 -7,2 -2,0 -5,0 -9,0 -3,0 -6,0 -9,0 -2,-1 -4,-1 -5,-2 -1,0 -2,-1 -2,-1 -1,-1 -1,-2 -1,-3l0 -133c0,-1 0,-2 1,-3 0,0 1,-1 2,-1 1,-1 3,-1 5,-2 3,0 6,0 9,0 4,0 7,0 9,0 3,1 5,1 7,2 2,0 3,1 3,1 1,1 1,2 1,3l0 133zm3 -179c0,8 -1,13 -5,15 -4,3 -9,5 -18,5 -8,0 -14,-2 -16,-4 -2,-3 -4,-7 -4,-15 0,-8 2,-13 4,-16 3,-3 8,-4 17,-4 8,0 15,1 18,4 3,3 4,8 4,15l0 0 0 0zm157 179c0,1 0,2 0,3 -1,0 -2,1 -3,1 -1,1 -3,1 -5,2 -3,0 -6,0 -10,0 -4,0 -7,0 -9,0 -3,-1 -5,-1 -6,-2 -1,0 -2,-1 -3,-1 -1,-1 -1,-2 -1,-3l0 -108 -28 0c-1,16 -2,29 -4,41 -3,13 -5,23 -8,30 -3,10 -7,17 -11,22 -4,6 -8,10 -13,14 -4,3 -9,5 -14,7 -5,1 -11,3 -17,3 -1,0 -2,-2 -3,-2 -1,0 -2,-1 -2,-2 -1,-1 -1,-3 -1,-5 0,-2 -1,-5 -1,-9 0,-3 1,-6 1,-9 0,-2 0,-4 1,-5 0,-1 0,-2 1,-2 1,-1 2,-1 3,-1 2,0 4,-1 8,-2 2,-2 5,-4 7,-7 2,-3 4,-7 6,-10 2,-5 4,-11 6,-18 1,-9 3,-17 4,-28 2,-10 3,-22 5,-35 0,-4 1,-7 2,-9 2,-2 5,-3 9,-3l77 0c4,0 6,1 7,3 2,2 2,5 2,9l0 126 0 0 0 0zm152 0c0,2 0,3 -1,4 -1,0 -3,1 -5,1 -2,1 -5,1 -9,1 -5,0 -9,0 -11,-1 -2,0 -3,-1 -3,-1 -1,-1 -2,-2 -2,-4l0 -10c-5,6 -11,10 -18,13 -7,4 -16,6 -24,6 -7,0 -14,-2 -19,-3 -7,-2 -12,-5 -16,-9 -4,-3 -8,-8 -10,-13 -2,-5 -3,-12 -3,-20 0,-6 1,-13 4,-19 3,-5 8,-10 14,-15 5,-3 13,-6 22,-8 9,-2 19,-3 32,-3l13 0 0 -8c0,-4 -1,-7 -2,-11 -1,-4 -2,-6 -4,-7 -2,-2 -4,-4 -8,-5 -3,-1 -7,-1 -12,-1 -7,0 -12,0 -17,2 -5,1 -9,3 -12,4 -4,1 -8,3 -10,5 -3,1 -5,2 -7,2 -1,0 -2,0 -2,-1 -1,-1 -2,-3 -2,-4 -1,0 -1,-2 -2,-4 0,-2 0,-4 0,-6 0,-3 0,-5 1,-7 0,-2 1,-4 2,-5 2,-1 4,-3 8,-5 3,-1 7,-3 12,-5 4,-1 9,-3 15,-4 5,-1 11,-2 17,-2 11,0 20,1 27,3 7,3 14,7 19,11 4,4 8,9 10,16 2,7 3,14 3,24l0 89 0 0 0 0zm-36 -56l-15 0c-6,0 -12,0 -16,1 -4,1 -8,2 -10,4 -3,2 -5,4 -6,6 -1,2 -2,5 -2,8 0,6 2,11 5,14 4,3 9,5 15,5 5,0 11,-1 15,-4 5,-3 9,-8 14,-13l0 -21 0 0 0 0z"/>
  <path class="fil0" d="M584 2713c0,1 0,2 -1,3 0,0 -1,1 -3,1 -1,1 -3,1 -5,2 -4,0 -7,0 -10,0 -4,0 -7,0 -9,0 -3,-1 -5,-1 -6,-2 -2,0 -3,-1 -3,-1 -1,-1 -1,-2 -1,-3l0 -198c0,-1 0,-2 1,-3 0,0 1,-1 3,-2 1,0 3,0 6,-1 2,0 5,0 9,0 3,0 6,0 10,0 2,1 4,1 5,1 2,1 3,2 3,2 1,1 1,2 1,3l0 198zm157 -125c0,5 0,8 -1,11 -1,3 -3,4 -4,4l-16 0c2,2 4,5 5,8 1,3 1,6 1,9 0,8 -1,15 -4,21 -2,6 -6,11 -11,15 -4,4 -10,7 -17,9 -7,2 -15,3 -24,3 -4,0 -8,0 -12,-1 -4,-1 -6,-2 -8,-4 -1,2 -2,3 -3,5 -1,2 -1,4 -1,6 0,4 1,6 4,8 2,2 5,3 9,3l33 1c8,0 15,1 20,3 6,2 11,5 15,8 4,2 7,6 9,11 2,6 4,11 4,17 0,6 -2,12 -5,18 -3,7 -7,12 -13,16 -5,3 -13,7 -21,9 -9,3 -20,4 -31,4 -12,0 -20,-1 -29,-3 -8,-2 -15,-4 -20,-7 -5,-2 -9,-6 -11,-10 -3,-6 -4,-11 -4,-16 0,-3 0,-6 1,-9 2,-3 3,-6 5,-9 1,-2 3,-5 6,-8 2,-3 5,-5 8,-8 -5,-2 -8,-4 -10,-8 -2,-4 -4,-8 -4,-13 0,-7 2,-12 4,-17 3,-4 7,-9 11,-13 -4,-3 -6,-7 -9,-12 -2,-5 -3,-11 -3,-18 0,-8 2,-15 4,-22 3,-6 7,-11 12,-15 5,-4 10,-7 18,-10 6,-2 13,-2 21,-2 4,0 8,0 13,0 4,0 8,1 11,2l42 0c1,0 3,1 4,3 1,2 1,6 1,11l0 0zm-48 32c0,-7 -1,-12 -5,-16 -4,-5 -11,-7 -18,-7 -4,0 -7,0 -10,2 -3,1 -5,4 -6,6 -2,2 -3,4 -4,7 -1,3 -1,6 -1,9 0,7 2,12 5,15 4,5 9,7 16,7 4,0 7,-1 10,-2 4,-1 6,-4 8,-6 2,-1 3,-3 4,-6 1,-3 1,-6 1,-9l0 0zm9 107c0,-5 -2,-8 -5,-11 -4,-2 -9,-3 -16,-3l-26 -2c-2,3 -4,5 -5,6 -2,2 -3,4 -4,5 -2,2 -3,3 -3,5 0,1 0,3 0,4 0,5 3,9 8,12 4,2 11,3 20,3 6,0 12,0 15,-1 4,-1 7,-3 10,-5 2,-2 4,-4 5,-6 1,-2 1,-5 1,-7l0 0 0 0z"/>
  <path class="fil0" d="M994 2713c0,1 0,2 0,2 -1,1 -2,2 -3,2 -2,1 -4,1 -6,1 -2,1 -5,1 -10,1 -3,0 -6,0 -8,-1 -2,0 -4,0 -6,-1 -1,0 -2,-1 -3,-2 0,0 -1,-1 -1,-2l0 -158 0 0 -56 156c-1,3 -1,4 -2,5 -1,1 -2,1 -4,2 -1,0 -3,1 -6,1 -2,0 -5,0 -8,0 -4,0 -6,0 -9,0 -2,-1 -4,-1 -7,-2 -1,0 -2,-1 -3,-2 -1,0 -2,-1 -2,-4l-53 -156 -1 0 0 158c0,1 0,2 -1,2 0,1 -1,2 -3,2 -1,1 -3,1 -5,1 -3,1 -7,1 -10,1 -3,0 -6,0 -8,-1 -3,0 -4,0 -6,-1 -1,0 -2,-1 -3,-2 0,0 -1,-1 -1,-2l0 -173c0,-5 2,-9 4,-12 3,-3 7,-5 11,-5l25 0c5,0 9,1 12,1 3,1 6,2 10,5 2,2 4,4 6,7 1,3 3,6 4,10l41 116 1 0 42 -115c2,-4 3,-8 5,-11 1,-3 3,-5 5,-7 2,-3 4,-4 8,-5 3,0 6,-1 10,-1l26 0c3,0 5,1 7,1 2,1 3,2 5,4 1,2 2,3 3,5 0,2 0,4 0,7l0 173 0 0 0 0z"/>
  <path class="fil0" d="M443 522c0,6 0,11 -1,17 0,4 -1,6 -1,8 -1,3 -3,4 -4,5 -1,2 -2,2 -5,2l-62 0 0 194c0,1 0,3 -1,4 -2,2 -3,3 -5,5 -3,0 -6,1 -11,1 -6,1 -11,1 -18,1 -6,0 -11,0 -16,-1 -4,0 -8,-1 -11,-1 -2,-2 -4,-3 -6,-5 -1,-1 -1,-3 -1,-4l0 -194 -62 0c-2,0 -3,0 -4,-2 -2,-1 -2,-2 -4,-5 -1,-2 -2,-6 -2,-9 0,-5 0,-10 0,-16 0,-6 0,-9 0,-13 1,-4 1,-7 2,-10 2,-3 3,-4 4,-6 1,-1 2,-1 4,-1l193 0c3,0 4,0 5,1 1,2 3,3 4,6 0,3 1,6 1,10 1,4 1,8 1,13l0 0 0 0zm261 97c0,7 -2,13 -5,18 -4,3 -9,5 -17,5l-149 0c0,11 1,20 4,28 3,9 6,17 12,23 5,5 12,10 20,14 9,2 19,3 31,3 13,0 23,0 32,-2 9,-1 17,-4 24,-5 7,-2 13,-5 16,-6 5,-3 9,-3 12,-3 1,0 3,0 4,0 1,2 2,3 2,4 1,3 1,4 3,7 0,3 0,6 0,11 0,5 0,9 0,11 0,4 -2,6 -2,7 0,3 -1,4 -1,5 -1,1 -2,3 -3,4 -2,1 -5,3 -10,6 -6,2 -12,3 -21,6 -8,3 -17,4 -28,7 -10,1 -22,1 -34,1 -23,0 -41,-2 -57,-8 -17,-6 -30,-13 -42,-24 -11,-11 -19,-27 -24,-43 -5,-18 -9,-37 -9,-61 0,-22 4,-41 9,-59 6,-17 13,-31 24,-45 12,-12 25,-20 41,-27 16,-7 33,-10 52,-10 20,0 38,3 53,9 14,7 26,15 36,25 10,11 17,24 20,38 5,16 7,32 7,49l0 12 0 0 0 0zm-68 -21c1,-19 -2,-35 -11,-46 -8,-11 -21,-18 -38,-18 -9,0 -17,4 -24,6 -6,4 -11,9 -16,14 -4,6 -7,12 -10,20 -3,7 -4,16 -4,24l103 0 0 0 0 0zm312 111c0,4 0,8 -1,12 0,4 0,6 -1,8 0,2 0,4 -2,5 0,1 -2,4 -4,5 -3,3 -6,5 -11,7 -6,4 -12,6 -18,9 -9,3 -15,6 -23,7 -7,1 -16,1 -25,1 -19,0 -35,-2 -50,-9 -14,-5 -27,-14 -37,-26 -10,-12 -17,-25 -23,-41 -5,-18 -7,-36 -7,-58 0,-25 3,-45 9,-63 7,-18 15,-34 26,-45 11,-12 25,-21 39,-26 16,-6 32,-9 51,-9 7,0 13,0 21,1 7,2 14,4 20,6 6,2 11,5 16,9 5,2 8,5 11,6 2,2 3,3 4,6 1,1 1,2 1,5 2,2 2,4 2,7 1,4 1,7 1,13 0,10 -1,17 -3,22 -2,3 -5,6 -8,6 -4,0 -6,-1 -10,-4 -3,-2 -7,-5 -12,-8 -5,-3 -12,-6 -18,-9 -6,-2 -14,-3 -23,-3 -18,0 -31,7 -41,20 -10,15 -15,34 -15,62 0,13 1,25 3,35 3,9 6,18 12,25 5,7 10,12 17,16 8,2 15,4 26,4 8,0 16,-1 24,-4 7,-3 13,-6 18,-9 5,-4 9,-7 12,-10 3,-3 7,-4 10,-4 2,0 3,0 4,1 1,0 1,3 3,6 0,2 1,5 1,10 0,3 1,8 1,14l0 0 0 0zm233 -187c0,6 -2,11 -2,17 0,4 -1,6 -2,8 0,3 -1,4 -2,5 -3,2 -4,2 -5,2l-63 0 0 194c0,1 0,3 -1,4 -1,2 -4,3 -6,5 -3,0 -6,1 -10,1 -6,1 -11,1 -18,1 -6,0 -12,0 -16,-1 -5,0 -8,-1 -11,-1 -3,-2 -4,-3 -5,-5 -2,-1 -2,-3 -2,-4l0 -194 -62 0c-1,0 -4,0 -5,-2 -1,-1 -2,-2 -2,-5 -2,-2 -3,-6 -3,-9 -1,-5 -1,-10 -1,-16 0,-6 1,-9 1,-13 0,-4 1,-7 3,-10 1,-3 1,-4 2,-6 1,-1 4,-1 5,-1l194 0c1,0 2,0 5,1 1,2 2,3 2,6 1,3 2,6 2,10 0,4 2,8 2,13l0 0 0 0z"/>
 </g>
</svg>
