<?xml version="1.0" encoding="UTF-8"?>
<!DOCTYPE svg PUBLIC "-//W3C//DTD SVG 1.1//EN" "http://www.w3.org/Graphics/SVG/1.1/DTD/svg11.dtd">
<!-- Creator: CorelDRAW X7 -->
<svg xmlns="http://www.w3.org/2000/svg" xml:space="preserve" width="7.4836mm" height="6.5724mm" version="1.1" style="shape-rendering:geometricPrecision; text-rendering:geometricPrecision; image-rendering:optimizeQuality; fill-rule:evenodd; clip-rule:evenodd"
viewBox="0 0 816 717"
 xmlns:xlink="http://www.w3.org/1999/xlink">
 <defs>
  <style type="text/css">
   <![CDATA[
    .fil0 {fill:#E31E24;fill-rule:nonzero}
   ]]>
  </style>
 </defs>
 <g id="Слой_x0020_1">
  <metadata id="CorelCorpID_0Corel-Layer"/>
  <path class="fil0" d="M165 252c0,3 -1,7 -1,9 0,3 -1,5 -2,7 0,1 -1,3 -2,3 -1,1 -2,1 -4,1l-148 0c-1,0 -2,0 -3,-1 -1,0 -1,-2 -2,-3 -1,-2 -2,-4 -2,-7 0,-2 -1,-6 -1,-9 0,-4 1,-8 1,-10 0,-3 1,-5 2,-7 0,-2 1,-3 2,-4 1,0 2,-1 3,-1l50 0 0 -174 -43 24c-3,1 -5,2 -7,3 -2,0 -4,0 -5,-1 -1,-2 -2,-4 -2,-6 -1,-3 -1,-7 -1,-13 0,-3 0,-6 0,-8 0,-2 1,-4 1,-5 1,-2 2,-3 3,-4 0,-1 2,-2 3,-3l58 -37c1,-1 1,-1 2,-2 1,0 3,0 4,-1 2,0 4,0 7,0 3,0 6,0 10,0 6,0 10,0 13,0 3,0 6,1 7,1 2,1 3,1 4,2 0,1 1,2 1,3l0 221 43 0c2,0 3,1 4,1 1,1 2,2 2,4 1,2 2,4 2,7 1,2 1,6 1,10zm216 -58c0,13 -3,25 -8,35 -5,11 -12,19 -21,26 -10,7 -20,13 -33,16 -13,4 -27,6 -42,6 -9,0 -17,-1 -25,-2 -8,-1 -15,-3 -21,-5 -6,-2 -11,-4 -16,-6 -3,-2 -6,-4 -7,-5 -2,-1 -3,-2 -3,-4 -1,-1 -1,-3 -2,-4 0,-2 -1,-5 -1,-7 0,-3 0,-7 0,-11 0,-6 0,-11 1,-13 2,-3 3,-4 5,-4 2,0 4,1 8,3 3,1 7,3 13,6 5,2 11,4 18,6 7,1 15,2 24,2 7,0 14,-1 20,-2 6,-2 11,-5 15,-8 4,-3 7,-7 9,-12 2,-4 3,-9 3,-15 0,-6 -1,-12 -4,-17 -2,-5 -6,-9 -11,-12 -4,-4 -10,-6 -18,-8 -7,-2 -15,-3 -25,-3l-23 0c-2,0 -4,0 -5,-1 -1,0 -2,-1 -3,-3 -1,-1 -1,-4 -2,-6 0,-3 0,-6 0,-11 0,-4 0,-7 0,-9 1,-3 1,-5 2,-6 1,-2 2,-3 3,-3 1,-1 2,-1 4,-1l23 0c8,0 15,-1 22,-3 6,-2 11,-4 15,-8 4,-3 7,-7 10,-12 2,-5 3,-11 3,-17 0,-4 -1,-9 -2,-13 -2,-4 -4,-7 -7,-10 -3,-3 -7,-6 -11,-7 -5,-2 -11,-3 -17,-3 -7,0 -14,1 -20,3 -6,3 -12,5 -17,7 -5,3 -9,5 -13,8 -3,2 -6,3 -8,3 -1,0 -2,0 -2,-1 -1,0 -2,-1 -3,-3 0,-1 -1,-3 -1,-6 0,-2 0,-6 0,-10 0,-3 0,-6 0,-8 0,-3 0,-5 1,-6 0,-2 1,-3 1,-4 1,-1 2,-2 3,-4 2,-1 5,-3 9,-6 4,-2 9,-5 16,-7 6,-3 14,-5 22,-6 9,-2 18,-3 28,-3 13,0 24,2 34,5 10,3 19,7 25,13 7,5 12,12 16,21 3,8 5,18 5,28 0,8 -1,16 -3,23 -2,7 -5,13 -9,19 -4,5 -9,10 -15,14 -6,4 -13,7 -21,8l0 1c10,1 18,4 26,7 7,4 13,8 18,14 6,5 10,12 12,19 3,7 5,14 5,22zm220 6c0,13 -3,23 -7,33 -4,9 -10,17 -18,24 -9,6 -19,11 -31,15 -12,3 -26,5 -42,5 -15,0 -28,-2 -40,-5 -11,-3 -21,-7 -29,-13 -7,-6 -13,-13 -17,-22 -4,-8 -6,-18 -6,-29 0,-8 1,-15 4,-22 2,-6 5,-13 10,-18 4,-6 10,-11 17,-16 6,-5 14,-10 23,-15 -7,-4 -14,-8 -19,-12 -6,-5 -11,-10 -15,-15 -4,-5 -7,-11 -9,-17 -2,-7 -3,-14 -3,-21 0,-11 2,-21 6,-29 3,-9 9,-17 17,-23 7,-6 17,-11 28,-15 11,-3 24,-5 39,-5 15,0 28,2 38,5 11,3 19,7 26,13 7,6 12,13 15,21 3,8 5,17 5,27 0,6 -1,12 -3,19 -2,6 -5,12 -9,17 -4,6 -9,11 -14,16 -6,5 -13,9 -20,13 9,4 16,9 23,14 6,5 12,10 17,16 4,6 8,12 10,18 2,7 4,14 4,21zm-61 -129c0,-5 0,-9 -2,-13 -1,-4 -3,-7 -6,-10 -3,-3 -7,-5 -11,-6 -4,-1 -9,-2 -15,-2 -12,0 -20,2 -26,8 -6,5 -9,12 -9,22 0,4 1,8 3,12 1,4 3,7 6,10 3,4 7,7 12,10 5,3 11,7 17,10 10,-6 18,-12 23,-19 6,-6 8,-14 8,-22zm7 133c0,-5 -1,-10 -3,-14 -1,-4 -4,-8 -8,-12 -4,-3 -8,-7 -14,-10 -5,-4 -12,-7 -19,-11 -6,3 -12,7 -17,10 -5,4 -9,7 -12,11 -3,4 -5,8 -7,12 -2,4 -2,9 -2,14 0,10 3,19 10,24 7,6 18,9 31,9 14,0 24,-3 31,-9 6,-6 10,-14 10,-24zm269 -67c0,22 -1,41 -5,58 -3,17 -9,32 -17,44 -7,12 -18,22 -30,28 -12,7 -28,10 -46,10 -18,0 -33,-3 -45,-10 -12,-6 -22,-15 -29,-27 -7,-11 -12,-26 -15,-43 -3,-17 -4,-36 -4,-58 0,-21 2,-40 5,-57 4,-18 10,-32 17,-44 8,-13 18,-22 31,-28 12,-7 27,-10 45,-10 19,0 34,3 46,9 12,7 22,16 29,27 7,12 12,27 14,44 3,17 4,36 4,57zm-54 3c0,-13 -1,-24 -1,-33 -1,-10 -2,-18 -3,-26 -2,-7 -4,-13 -6,-18 -2,-5 -5,-9 -8,-12 -3,-3 -6,-5 -10,-6 -4,-1 -8,-2 -13,-2 -8,0 -15,2 -20,6 -6,4 -10,10 -13,18 -3,8 -5,17 -6,29 -2,12 -2,25 -2,41 0,19 0,35 2,47 1,12 4,22 7,30 3,7 8,12 13,15 5,3 11,5 18,5 6,0 10,-1 15,-3 4,-2 7,-4 11,-8 3,-3 5,-7 7,-13 2,-5 4,-11 5,-18 2,-7 3,-14 3,-23 1,-9 1,-18 1,-29zm-521 326c0,5 0,8 -1,11 0,3 0,6 -1,7 -1,2 -2,3 -3,4 -1,1 -2,1 -3,1l-60 0 0 146c0,1 -1,3 -1,4 -1,1 -3,2 -5,2 -2,1 -4,2 -8,2 -3,0 -7,0 -12,0 -5,0 -9,0 -13,0 -3,0 -6,-1 -8,-2 -2,0 -3,-1 -4,-2 -1,-1 -1,-3 -1,-4l0 -175c0,-5 1,-9 3,-12 3,-3 6,-4 11,-4l98 0c1,0 2,0 3,1 1,0 2,2 3,3 1,2 1,5 1,8 1,3 1,6 1,10zm215 74c0,16 -1,31 -5,44 -3,14 -9,25 -15,34 -7,9 -15,16 -25,21 -11,5 -22,8 -35,8 -5,0 -10,-1 -15,-2 -4,-1 -9,-2 -13,-5 -4,-2 -8,-4 -12,-8 -4,-3 -9,-6 -13,-11l0 87c0,2 0,3 -1,4 -1,1 -2,2 -5,3 -2,0 -4,1 -7,1 -4,1 -8,1 -13,1 -5,0 -9,0 -13,-1 -3,0 -6,-1 -8,-1 -2,-1 -3,-2 -4,-3 -1,-1 -1,-2 -1,-4l0 -257c0,-2 0,-3 1,-4 1,-1 2,-2 4,-3 1,0 4,-1 6,-1 3,-1 7,-1 11,-1 4,0 8,0 10,1 3,0 6,1 7,1 2,1 3,2 4,3 1,1 1,2 1,4l0 21c5,-5 11,-10 16,-14 5,-4 10,-8 15,-11 6,-3 11,-5 17,-6 6,-1 12,-2 18,-2 14,0 25,3 35,8 9,5 17,12 23,22 6,9 10,20 13,32 3,12 4,25 4,39zm-54 4c0,-8 0,-16 -2,-23 -1,-7 -3,-13 -6,-19 -2,-6 -6,-10 -11,-14 -4,-3 -10,-5 -17,-5 -3,0 -7,1 -10,2 -4,1 -7,3 -10,5 -4,2 -8,5 -11,9 -4,4 -8,8 -12,14l0 61c7,9 14,16 21,21 6,5 13,7 20,7 7,0 13,-1 18,-5 4,-3 8,-8 11,-13 3,-6 6,-12 7,-19 1,-7 2,-14 2,-21zm275 91c0,1 -1,3 -2,4 0,1 -2,2 -4,2 -2,1 -4,2 -8,2 -3,0 -7,0 -12,0 -5,0 -10,0 -13,0 -3,0 -6,-1 -8,-2 -2,0 -3,-1 -4,-2 -1,-1 -1,-3 -1,-4l0 -73 -75 0 0 73c0,1 0,3 -1,4 -1,1 -2,2 -4,2 -2,1 -5,2 -8,2 -4,0 -8,0 -13,0 -5,0 -9,0 -13,0 -3,0 -5,-1 -7,-2 -2,0 -4,-1 -5,-2 0,-1 -1,-3 -1,-4l0 -184c0,-2 1,-3 1,-4 1,-1 3,-2 5,-3 2,0 4,-1 7,-1 4,-1 8,-1 13,-1 5,0 9,0 13,1 3,0 6,1 8,1 2,1 3,2 4,3 1,1 1,2 1,4l0 69 75 0 0 -69c0,-2 0,-3 1,-4 1,-1 2,-2 4,-3 2,0 5,-1 8,-1 3,-1 8,-1 13,-1 5,0 9,0 12,1 4,0 6,1 8,1 2,1 4,2 4,3 1,1 2,2 2,4l0 184z"/>
 </g>
</svg>
