<?xml version="1.0" encoding="UTF-8"?>
<!DOCTYPE svg PUBLIC "-//W3C//DTD SVG 1.1//EN" "http://www.w3.org/Graphics/SVG/1.1/DTD/svg11.dtd">
<!-- Creator: CorelDRAW X7 -->
<svg xmlns="http://www.w3.org/2000/svg" xml:space="preserve" width="28.82mm" height="34.46mm" version="1.1" style="shape-rendering:geometricPrecision; text-rendering:geometricPrecision; image-rendering:optimizeQuality; fill-rule:evenodd; clip-rule:evenodd"
viewBox="0 0 2882 3446"
 xmlns:xlink="http://www.w3.org/1999/xlink">
 <defs>
  <style type="text/css">
   <![CDATA[
    .str0 {stroke:#FEFEFE;stroke-width:50;stroke-linecap:round;stroke-linejoin:round}
    .fil0 {fill:none}
    .fil2 {fill:none;fill-rule:nonzero}
    .fil1 {fill:#006CB5;fill-rule:nonzero}
    .fil3 {fill:#E31E24;fill-rule:nonzero}
   ]]>
  </style>
 </defs>
 <g id="Слой_x0020_1">
  <metadata id="CorelCorpID_0Corel-Layer"/>
  <g id="_751768176">
   <path class="fil0 str0" d="M402 498c0,0 0,0 0,0 -7,8 -7,8 -15,8 0,0 -7,0 -15,0 0,7 -7,7 -22,7 -7,0 -15,0 -22,-7 -7,0 -7,0 -15,0 0,0 -7,0 -7,-8 0,0 0,0 0,0l0 -392 -185 0 0 392c0,0 0,0 0,0 0,8 -7,8 -7,8 -8,0 -8,0 -15,0 -8,7 -15,7 -22,7 -15,0 -22,0 -30,-7 0,0 -7,0 -15,0 0,0 -7,0 -7,-8 0,0 0,0 0,0l0 -443c0,-8 0,-15 7,-22 8,-8 15,-8 23,-8l317 0c8,0 15,0 23,8 0,7 7,14 7,22l0 443zm481 0c0,0 0,0 -8,0 0,8 0,8 -7,8 0,0 -7,0 -15,0 0,7 -15,7 -22,7 -7,0 -15,0 -22,-7 -8,0 -15,0 -15,0 -7,0 -7,0 -7,-8 0,0 0,0 0,0l0 -392 -104 0c-7,60 -15,104 -22,148 -8,45 -15,82 -22,111 -15,30 -22,52 -30,74 -7,22 -22,37 -37,45 -7,14 -22,22 -37,22 -22,7 -37,7 -59,7 0,0 -7,0 -7,0 0,0 -8,0 -8,-7 0,0 0,-8 0,-8 0,-7 -7,-14 -7,-22 0,-7 0,-15 7,-22 0,-7 0,-15 0,-15 0,-7 0,-7 8,-7 0,-8 0,-8 7,-8 7,0 15,0 22,0 0,-7 8,-14 15,-22 7,-7 15,-22 22,-37 8,-14 15,-37 15,-66 7,-30 15,-59 22,-96 0,-45 8,-89 15,-141 0,-15 7,-22 7,-29 8,-8 15,-8 23,-8l236 0c8,0 15,0 22,8 0,7 8,14 8,22l0 443 0 0zm436 -325c0,30 -7,52 -15,74 -7,15 -22,37 -37,52 -15,15 -37,22 -59,29 -22,8 -52,15 -81,15l-45 0 0 148c0,7 0,7 0,7 0,8 -7,8 -7,8 -7,0 -7,0 -15,0 -7,7 -15,7 -22,7 -15,0 -22,0 -30,-7 0,0 -7,0 -14,0 0,0 0,0 -8,-8 0,0 0,0 0,-7l0 -429c0,-15 0,-22 8,-29 7,-8 14,-8 29,-8l111 0c8,0 22,0 30,0 15,0 22,8 37,8 14,0 29,7 44,14 15,8 30,15 37,30 15,15 22,29 30,44 0,15 7,30 7,52zm-104 7c0,-14 0,-29 -7,-44 -7,-7 -15,-15 -22,-22 -7,-8 -22,-8 -30,-8 -7,-7 -22,-7 -29,-7l-45 0 0 163 45 0c15,0 29,0 44,0 7,-8 15,-15 22,-22 8,-8 15,-15 15,-30 7,-7 7,-22 7,-30l0 0zm341 141c0,15 -8,22 -8,30 0,7 -7,7 -15,7l-155 0c-7,0 -7,0 -15,-7 0,-8 0,-15 0,-30 0,-15 0,-22 0,-30 8,-7 8,-7 15,-7l155 0c8,0 8,0 8,0 7,0 7,0 7,7 0,0 0,8 0,8 8,7 8,15 8,22l0 0zm303 -133c0,15 0,15 0,22 0,7 0,15 0,15 -8,0 -8,7 -8,7 0,0 -7,0 -7,0l-81 0 0 266c0,0 0,0 -8,0 0,8 0,8 -7,8 0,0 -7,0 -15,0 0,7 -7,7 -22,7 -7,0 -15,0 -22,-7 0,0 -8,0 -15,0 0,0 0,0 -7,-8 0,0 0,0 0,0l0 -266 -82 0c-7,0 -7,0 -7,0 0,0 -8,-7 -8,-7 0,-8 0,-8 0,-15 0,-7 0,-15 0,-22 0,-8 0,-15 0,-15 0,-7 0,-15 0,-15 0,0 8,-7 8,-7 0,0 0,0 7,0l259 0c0,0 7,0 7,0 0,0 0,7 8,7 0,0 0,8 0,15 0,7 0,7 0,15l0 0zm355 133c0,7 -8,15 -8,22 -7,7 -14,7 -22,7l-207 0c0,15 8,30 8,45 7,7 7,15 14,22 8,15 22,15 30,22 15,8 29,8 44,8 15,0 30,0 45,-8 7,0 22,0 29,-7 8,0 15,0 22,-8 8,0 8,0 15,0 0,0 8,0 8,0 0,0 0,0 0,8 0,0 0,0 7,7 0,0 0,8 0,15 0,7 0,7 0,15 0,0 -7,7 -7,7 0,0 0,8 0,8 0,0 0,7 0,7 -8,0 -8,0 -15,7 -8,0 -15,8 -30,8 -7,0 -22,7 -37,7 -15,0 -29,0 -44,0 -30,0 -59,0 -81,-7 -23,-8 -37,-22 -52,-37 -15,-15 -30,-30 -37,-52 -8,-30 -8,-52 -8,-81 0,-30 0,-59 8,-82 7,-22 22,-44 37,-59 15,-22 29,-29 52,-44 22,-8 44,-8 73,-8 23,0 52,0 67,8 22,7 37,22 52,37 7,15 22,29 29,52 0,22 8,44 8,66l0 15 0 0zm-96 -30c7,-22 0,-44 -15,-59 -8,-15 -30,-22 -52,-22 -7,0 -22,0 -30,7 -7,0 -14,8 -22,15 -7,8 -7,15 -14,30 0,7 0,22 -8,29l141 0 0 0zm421 148c0,8 0,15 0,22 0,0 0,8 0,8 0,7 0,7 0,7 0,0 -7,8 -7,8 -8,0 -8,7 -15,7 -7,7 -15,15 -30,15 -7,0 -14,7 -29,7 -8,0 -22,0 -30,0 -29,0 -52,0 -66,-7 -23,-8 -37,-22 -52,-37 -15,-15 -22,-37 -30,-59 -7,-23 -14,-45 -14,-74 0,-37 7,-59 14,-89 8,-22 22,-44 37,-59 15,-15 30,-30 52,-37 22,-8 44,-8 67,-8 7,0 22,0 29,0 8,0 22,8 30,8 7,0 15,7 22,7 7,8 7,8 15,15 0,0 0,0 0,7 7,0 7,0 7,8 0,0 0,7 0,7 0,8 0,8 0,15 0,15 0,30 0,30 -7,7 -7,14 -15,14 0,0 -7,-7 -14,-7 0,-7 -8,-7 -15,-15 -8,0 -15,-7 -22,-7 -8,-8 -23,-8 -30,-8 -30,0 -44,8 -59,30 -15,15 -22,44 -22,81 0,15 7,37 7,45 7,14 7,29 15,37 7,7 15,14 22,22 15,0 22,7 37,7 15,0 22,0 30,-7 14,-8 22,-8 29,-15 8,0 8,-7 15,-7 7,-8 7,-8 15,-8 0,0 0,0 0,0 7,0 7,0 7,8 0,0 0,7 0,14 0,0 0,8 0,15l0 0zm318 -251c0,15 0,15 0,22 0,7 0,15 -7,15 0,0 0,7 0,7 -8,0 -8,0 -8,0l-81 0 0 266c0,0 -7,0 -7,0 0,8 0,8 -8,8 0,0 -7,0 -15,0 -7,7 -14,7 -22,7 -7,0 -15,0 -22,-7 -7,0 -7,0 -15,0 0,0 -7,0 -7,-8 0,0 0,0 0,0l0 -266 -81 0c-8,0 -8,0 -8,0 -7,0 -7,-7 -7,-7 0,-8 0,-8 0,-15 0,-7 0,-15 0,-22 0,-8 0,-15 0,-15 0,-7 0,-15 0,-15 0,0 7,-7 7,-7 0,0 0,0 8,0l258 0c0,0 0,0 8,0 0,0 0,7 0,7 7,0 7,8 7,15 0,7 0,7 0,15l0 0zm-1479 843c0,15 -7,29 -7,37 -8,15 -15,22 -30,29 -7,8 -22,15 -37,15 -15,8 -37,8 -52,8 -14,0 -22,0 -29,0 -8,0 -22,-8 -30,-8 -7,0 -15,-7 -15,-7 -7,0 -7,-8 -14,-8 0,0 0,0 0,-7 -8,0 -8,0 -8,0 0,-7 0,-7 0,-15 0,0 0,-7 0,-7 0,-8 0,-8 0,-15 0,0 0,0 0,-7 0,0 8,0 8,0 0,0 0,0 0,0 7,0 7,0 7,0 7,7 15,7 22,7 0,7 8,7 22,7 8,8 15,8 30,8 7,0 15,0 22,0 8,-8 15,-8 15,-8 7,-7 7,-7 15,-14 0,-8 0,-8 0,-15 0,-8 0,-15 0,-15 -8,-7 -8,-7 -15,-15 -7,0 -7,0 -22,-7 -8,0 -15,0 -30,0l-22 0c-7,0 -7,0 -7,0 0,0 -8,0 -8,-8 0,0 0,0 0,-7 0,0 0,-7 0,-7 0,-8 0,-8 0,-15 0,0 0,-7 0,-7 0,0 8,0 8,0 0,0 0,-8 7,-8l22 0c15,0 22,0 30,0 7,0 15,0 15,-7 7,0 14,-8 14,-8 0,-7 0,-14 0,-14 0,-8 0,-15 0,-15 0,-8 -7,-8 -7,-15 -7,0 -15,0 -15,0 -7,-7 -15,-7 -22,-7 -7,0 -22,7 -30,7 -7,0 -14,7 -22,7 -7,0 -7,8 -15,8 -7,0 -7,7 -7,7 0,0 -7,0 -7,-7 0,0 0,0 0,0 0,0 0,-8 0,-8 0,0 0,-7 0,-14 0,-8 0,-8 0,-15 0,-8 0,-8 0,-8 7,-7 7,-7 15,-14 7,0 14,0 22,-8 7,0 22,0 29,0 8,-7 22,-7 30,-7 15,0 29,0 44,7 15,0 22,8 30,15 15,7 22,15 22,22 7,8 7,22 7,30 0,7 0,15 0,22 0,7 -7,15 -7,22 -7,8 -15,8 -22,15 0,0 -8,7 -15,7l0 0c7,0 15,8 22,8 8,7 15,7 15,14 7,8 15,15 15,23 7,7 7,14 7,22l0 0zm281 74c0,0 -7,7 -7,7 0,0 -8,0 -8,0 -7,0 -14,0 -22,0 -7,0 -15,0 -15,0 -7,0 -7,0 -7,0 -7,0 -7,-7 -7,-7l0 -22c-8,14 -23,22 -37,29 -15,8 -30,8 -45,8 -15,0 -29,0 -37,-8 -14,0 -22,-7 -29,-15 -8,-7 -15,-14 -22,-22 0,-15 -8,-29 -8,-37 0,-15 8,-29 8,-44 7,-8 14,-22 29,-30 15,-7 30,-7 44,-15 15,0 37,0 60,0l29 0 0 -22c0,-7 0,-14 -7,-22 0,0 0,-7 -8,-15 0,0 -7,-7 -14,-7 -8,0 -15,0 -23,0 -14,0 -22,0 -29,0 -15,7 -22,7 -30,15 -7,0 -14,0 -14,7 -8,0 -15,0 -15,0 0,0 -8,0 -8,0 0,0 0,0 0,-7 -7,0 -7,0 -7,-8 0,0 0,-7 0,-14 0,0 0,-8 0,-15 7,0 7,0 7,-8 8,0 8,-7 15,-7 8,-7 15,-7 22,-7 15,-8 23,-8 30,-8 15,-7 22,-7 37,-7 22,0 37,7 52,7 14,8 29,8 37,22 7,8 14,15 22,30 0,15 7,30 7,44l0 178 0 0zm-74 -111l-29 0c-15,0 -23,0 -30,0 -7,0 -15,7 -22,7 -8,8 -8,8 -15,15 0,7 0,7 0,15 0,15 0,22 7,29 8,8 23,8 30,8 15,0 22,0 30,-8 7,-7 14,-14 29,-22l0 -44z"/>
   <path id="_1" class="fil1" d="M402 498c0,0 0,0 0,0 -7,8 -7,8 -15,8 0,0 -7,0 -15,0 0,7 -7,7 -22,7 -7,0 -15,0 -22,-7 -7,0 -7,0 -15,0 0,0 -7,0 -7,-8 0,0 0,0 0,0l0 -392 -185 0 0 392c0,0 0,0 0,0 0,8 -7,8 -7,8 -8,0 -8,0 -15,0 -8,7 -15,7 -22,7 -15,0 -22,0 -30,-7 0,0 -7,0 -15,0 0,0 -7,0 -7,-8 0,0 0,0 0,0l0 -443c0,-8 0,-15 7,-22 8,-8 15,-8 23,-8l317 0c8,0 15,0 23,8 0,7 7,14 7,22l0 443zm481 0c0,0 0,0 -8,0 0,8 0,8 -7,8 0,0 -7,0 -15,0 0,7 -15,7 -22,7 -7,0 -15,0 -22,-7 -8,0 -15,0 -15,0 -7,0 -7,0 -7,-8 0,0 0,0 0,0l0 -392 -104 0c-7,60 -15,104 -22,148 -8,45 -15,82 -22,111 -15,30 -22,52 -30,74 -7,22 -22,37 -37,45 -7,14 -22,22 -37,22 -22,7 -37,7 -59,7 0,0 -7,0 -7,0 0,0 -8,0 -8,-7 0,0 0,-8 0,-8 0,-7 -7,-14 -7,-22 0,-7 0,-15 7,-22 0,-7 0,-15 0,-15 0,-7 0,-7 8,-7 0,-8 0,-8 7,-8 7,0 15,0 22,0 0,-7 8,-14 15,-22 7,-7 15,-22 22,-37 8,-14 15,-37 15,-66 7,-30 15,-59 22,-96 0,-45 8,-89 15,-141 0,-15 7,-22 7,-29 8,-8 15,-8 23,-8l236 0c8,0 15,0 22,8 0,7 8,14 8,22l0 443 0 0zm436 -325c0,30 -7,52 -15,74 -7,15 -22,37 -37,52 -15,15 -37,22 -59,29 -22,8 -52,15 -81,15l-45 0 0 148c0,7 0,7 0,7 0,8 -7,8 -7,8 -7,0 -7,0 -15,0 -7,7 -15,7 -22,7 -15,0 -22,0 -30,-7 0,0 -7,0 -14,0 0,0 0,0 -8,-8 0,0 0,0 0,-7l0 -429c0,-15 0,-22 8,-29 7,-8 14,-8 29,-8l111 0c8,0 22,0 30,0 15,0 22,8 37,8 14,0 29,7 44,14 15,8 30,15 37,30 15,15 22,29 30,44 0,15 7,30 7,52zm-104 7c0,-14 0,-29 -7,-44 -7,-7 -15,-15 -22,-22 -7,-8 -22,-8 -30,-8 -7,-7 -22,-7 -29,-7l-45 0 0 163 45 0c15,0 29,0 44,0 7,-8 15,-15 22,-22 8,-8 15,-15 15,-30 7,-7 7,-22 7,-30l0 0zm341 141c0,15 -8,22 -8,30 0,7 -7,7 -15,7l-155 0c-7,0 -7,0 -15,-7 0,-8 0,-15 0,-30 0,-15 0,-22 0,-30 8,-7 8,-7 15,-7l155 0c8,0 8,0 8,0 7,0 7,0 7,7 0,0 0,8 0,8 8,7 8,15 8,22l0 0zm303 -133c0,15 0,15 0,22 0,7 0,15 0,15 -8,0 -8,7 -8,7 0,0 -7,0 -7,0l-81 0 0 266c0,0 0,0 -8,0 0,8 0,8 -7,8 0,0 -7,0 -15,0 0,7 -7,7 -22,7 -7,0 -15,0 -22,-7 0,0 -8,0 -15,0 0,0 0,0 -7,-8 0,0 0,0 0,0l0 -266 -82 0c-7,0 -7,0 -7,0 0,0 -8,-7 -8,-7 0,-8 0,-8 0,-15 0,-7 0,-15 0,-22 0,-8 0,-15 0,-15 0,-7 0,-15 0,-15 0,0 8,-7 8,-7 0,0 0,0 7,0l259 0c0,0 7,0 7,0 0,0 0,7 8,7 0,0 0,8 0,15 0,7 0,7 0,15l0 0zm355 133c0,7 -8,15 -8,22 -7,7 -14,7 -22,7l-207 0c0,15 8,30 8,45 7,7 7,15 14,22 8,15 22,15 30,22 15,8 29,8 44,8 15,0 30,0 45,-8 7,0 22,0 29,-7 8,0 15,0 22,-8 8,0 8,0 15,0 0,0 8,0 8,0 0,0 0,0 0,8 0,0 0,0 7,7 0,0 0,8 0,15 0,7 0,7 0,15 0,0 -7,7 -7,7 0,0 0,8 0,8 0,0 0,7 0,7 -8,0 -8,0 -15,7 -8,0 -15,8 -30,8 -7,0 -22,7 -37,7 -15,0 -29,0 -44,0 -30,0 -59,0 -81,-7 -23,-8 -37,-22 -52,-37 -15,-15 -30,-30 -37,-52 -8,-30 -8,-52 -8,-81 0,-30 0,-59 8,-82 7,-22 22,-44 37,-59 15,-22 29,-29 52,-44 22,-8 44,-8 73,-8 23,0 52,0 67,8 22,7 37,22 52,37 7,15 22,29 29,52 0,22 8,44 8,66l0 15 0 0zm-96 -30c7,-22 0,-44 -15,-59 -8,-15 -30,-22 -52,-22 -7,0 -22,0 -30,7 -7,0 -14,8 -22,15 -7,8 -7,15 -14,30 0,7 0,22 -8,29l141 0 0 0zm421 148c0,8 0,15 0,22 0,0 0,8 0,8 0,7 0,7 0,7 0,0 -7,8 -7,8 -8,0 -8,7 -15,7 -7,7 -15,15 -30,15 -7,0 -14,7 -29,7 -8,0 -22,0 -30,0 -29,0 -52,0 -66,-7 -23,-8 -37,-22 -52,-37 -15,-15 -22,-37 -30,-59 -7,-23 -14,-45 -14,-74 0,-37 7,-59 14,-89 8,-22 22,-44 37,-59 15,-15 30,-30 52,-37 22,-8 44,-8 67,-8 7,0 22,0 29,0 8,0 22,8 30,8 7,0 15,7 22,7 7,8 7,8 15,15 0,0 0,0 0,7 7,0 7,0 7,8 0,0 0,7 0,7 0,8 0,8 0,15 0,15 0,30 0,30 -7,7 -7,14 -15,14 0,0 -7,-7 -14,-7 0,-7 -8,-7 -15,-15 -8,0 -15,-7 -22,-7 -8,-8 -23,-8 -30,-8 -30,0 -44,8 -59,30 -15,15 -22,44 -22,81 0,15 7,37 7,45 7,14 7,29 15,37 7,7 15,14 22,22 15,0 22,7 37,7 15,0 22,0 30,-7 14,-8 22,-8 29,-15 8,0 8,-7 15,-7 7,-8 7,-8 15,-8 0,0 0,0 0,0 7,0 7,0 7,8 0,0 0,7 0,14 0,0 0,8 0,15l0 0zm318 -251c0,15 0,15 0,22 0,7 0,15 -7,15 0,0 0,7 0,7 -8,0 -8,0 -8,0l-81 0 0 266c0,0 -7,0 -7,0 0,8 0,8 -8,8 0,0 -7,0 -15,0 -7,7 -14,7 -22,7 -7,0 -15,0 -22,-7 -7,0 -7,0 -15,0 0,0 -7,0 -7,-8 0,0 0,0 0,0l0 -266 -81 0c-8,0 -8,0 -8,0 -7,0 -7,-7 -7,-7 0,-8 0,-8 0,-15 0,-7 0,-15 0,-22 0,-8 0,-15 0,-15 0,-7 0,-15 0,-15 0,0 7,-7 7,-7 0,0 0,0 8,0l258 0c0,0 0,0 8,0 0,0 0,7 0,7 7,0 7,8 7,15 0,7 0,7 0,15l0 0zm-1479 843c0,15 -7,29 -7,37 -8,15 -15,22 -30,29 -7,8 -22,15 -37,15 -15,8 -37,8 -52,8 -14,0 -22,0 -29,0 -8,0 -22,-8 -30,-8 -7,0 -15,-7 -15,-7 -7,0 -7,-8 -14,-8 0,0 0,0 0,-7 -8,0 -8,0 -8,0 0,-7 0,-7 0,-15 0,0 0,-7 0,-7 0,-8 0,-8 0,-15 0,0 0,0 0,-7 0,0 8,0 8,0 0,0 0,0 0,0 7,0 7,0 7,0 7,7 15,7 22,7 0,7 8,7 22,7 8,8 15,8 30,8 7,0 15,0 22,0 8,-8 15,-8 15,-8 7,-7 7,-7 15,-14 0,-8 0,-8 0,-15 0,-8 0,-15 0,-15 -8,-7 -8,-7 -15,-15 -7,0 -7,0 -22,-7 -8,0 -15,0 -30,0l-22 0c-7,0 -7,0 -7,0 0,0 -8,0 -8,-8 0,0 0,0 0,-7 0,0 0,-7 0,-7 0,-8 0,-8 0,-15 0,0 0,-7 0,-7 0,0 8,0 8,0 0,0 0,-8 7,-8l22 0c15,0 22,0 30,0 7,0 15,0 15,-7 7,0 14,-8 14,-8 0,-7 0,-14 0,-14 0,-8 0,-15 0,-15 0,-8 -7,-8 -7,-15 -7,0 -15,0 -15,0 -7,-7 -15,-7 -22,-7 -7,0 -22,7 -30,7 -7,0 -14,7 -22,7 -7,0 -7,8 -15,8 -7,0 -7,7 -7,7 0,0 -7,0 -7,-7 0,0 0,0 0,0 0,0 0,-8 0,-8 0,0 0,-7 0,-14 0,-8 0,-8 0,-15 0,-8 0,-8 0,-8 7,-7 7,-7 15,-14 7,0 14,0 22,-8 7,0 22,0 29,0 8,-7 22,-7 30,-7 15,0 29,0 44,7 15,0 22,8 30,15 15,7 22,15 22,22 7,8 7,22 7,30 0,7 0,15 0,22 0,7 -7,15 -7,22 -7,8 -15,8 -22,15 0,0 -8,7 -15,7l0 0c7,0 15,8 22,8 8,7 15,7 15,14 7,8 15,15 15,23 7,7 7,14 7,22l0 0zm281 74c0,0 -7,7 -7,7 0,0 -8,0 -8,0 -7,0 -14,0 -22,0 -7,0 -15,0 -15,0 -7,0 -7,0 -7,0 -7,0 -7,-7 -7,-7l0 -22c-8,14 -23,22 -37,29 -15,8 -30,8 -45,8 -15,0 -29,0 -37,-8 -14,0 -22,-7 -29,-15 -8,-7 -15,-14 -22,-22 0,-15 -8,-29 -8,-37 0,-15 8,-29 8,-44 7,-8 14,-22 29,-30 15,-7 30,-7 44,-15 15,0 37,0 60,0l29 0 0 -22c0,-7 0,-14 -7,-22 0,0 0,-7 -8,-15 0,0 -7,-7 -14,-7 -8,0 -15,0 -23,0 -14,0 -22,0 -29,0 -15,7 -22,7 -30,15 -7,0 -14,0 -14,7 -8,0 -15,0 -15,0 0,0 -8,0 -8,0 0,0 0,0 0,-7 -7,0 -7,0 -7,-8 0,0 0,-7 0,-14 0,0 0,-8 0,-15 7,0 7,0 7,-8 8,0 8,-7 15,-7 8,-7 15,-7 22,-7 15,-8 23,-8 30,-8 15,-7 22,-7 37,-7 22,0 37,7 52,7 14,8 29,8 37,22 7,8 14,15 22,30 0,15 7,30 7,44l0 178 0 0zm-74 -111l-29 0c-15,0 -23,0 -30,0 -7,0 -15,7 -22,7 -8,8 -8,8 -15,15 0,7 0,7 0,15 0,15 0,22 7,29 8,8 23,8 30,8 15,0 22,0 30,-8 7,-7 14,-14 29,-22l0 -44z"/>
  </g>
  <g id="_751816048">
   <path class="fil2 str0" d="M752 2223l-143 0 0 -541c-52,49 -114,85 -185,109l0 -131c38,-12 78,-35 122,-69 44,-34 74,-74 90,-120l116 0 0 752zm495 0l0 -150 -305 0 0 -125 324 -476 120 0 0 475 93 0 0 126 -93 0 0 150 -139 0zm0 -276l0 -255 -171 255 171 0zm543 -476c72,0 129,26 170,78 48,61 73,163 73,305 0,142 -25,244 -74,306 -40,51 -97,77 -169,77 -73,0 -132,-28 -176,-84 -45,-56 -67,-156 -67,-300 0,-141 25,-243 73,-305 41,-51 97,-77 170,-77zm0 119c-17,0 -33,6 -46,17 -13,11 -24,31 -31,60 -10,37 -15,99 -15,187 0,88 5,149 13,181 9,33 20,55 33,66 14,11 29,17 46,17 17,0 32,-6 46,-17 13,-11 23,-31 31,-60 9,-36 14,-99 14,-187 0,-88 -4,-148 -13,-181 -9,-33 -20,-55 -33,-66 -13,-11 -28,-17 -45,-17zm580 -119c73,0 129,26 170,78 49,61 73,163 73,305 0,142 -24,244 -73,306 -41,51 -97,77 -170,77 -72,0 -131,-28 -175,-84 -45,-56 -67,-156 -67,-300 0,-141 24,-243 73,-305 41,-51 97,-77 169,-77zm0 119c-17,0 -32,6 -45,17 -14,11 -24,31 -31,60 -10,37 -15,99 -15,187 0,88 4,149 13,181 9,33 20,55 33,66 13,11 28,17 45,17 18,0 33,-6 46,-17 13,-11 24,-31 31,-60 10,-36 15,-99 15,-187 0,-88 -5,-148 -13,-181 -9,-33 -20,-55 -33,-66 -13,-11 -28,-17 -46,-17zm-1650 1083l367 0 0 116 -224 0 0 426 -143 0 0 -542zm437 0l134 0 0 80c17,-27 41,-49 70,-66 30,-17 63,-25 99,-25 63,0 116,24 160,74 44,49 66,118 66,206 0,91 -22,161 -67,211 -44,51 -97,76 -160,76 -30,0 -57,-6 -82,-18 -24,-12 -50,-32 -77,-61l0 271 -143 0 0 -748zm141 263c0,61 12,106 37,135 24,29 53,44 87,44 34,0 61,-14 83,-40 23,-27 33,-71 33,-132 0,-57 -11,-99 -34,-127 -22,-28 -50,-42 -84,-42 -35,0 -64,14 -87,41 -23,27 -35,68 -35,121zm495 -263l143 0 0 199 207 0 0 -199 143 0 0 542 -143 0 0 -228 -207 0 0 228 -143 0 0 -542z"/>
   <path id="_1_0" class="fil3" d="M752 2223l-143 0 0 -541c-52,49 -114,85 -185,109l0 -131c38,-12 78,-35 122,-69 44,-34 74,-74 90,-120l116 0 0 752zm495 0l0 -150 -305 0 0 -125 324 -476 120 0 0 475 93 0 0 126 -93 0 0 150 -139 0zm0 -276l0 -255 -171 255 171 0zm543 -476c72,0 129,26 170,78 48,61 73,163 73,305 0,142 -25,244 -74,306 -40,51 -97,77 -169,77 -73,0 -132,-28 -176,-84 -45,-56 -67,-156 -67,-300 0,-141 25,-243 73,-305 41,-51 97,-77 170,-77zm0 119c-17,0 -33,6 -46,17 -13,11 -24,31 -31,60 -10,37 -15,99 -15,187 0,88 5,149 13,181 9,33 20,55 33,66 14,11 29,17 46,17 17,0 32,-6 46,-17 13,-11 23,-31 31,-60 9,-36 14,-99 14,-187 0,-88 -4,-148 -13,-181 -9,-33 -20,-55 -33,-66 -13,-11 -28,-17 -45,-17zm580 -119c73,0 129,26 170,78 49,61 73,163 73,305 0,142 -24,244 -73,306 -41,51 -97,77 -170,77 -72,0 -131,-28 -175,-84 -45,-56 -67,-156 -67,-300 0,-141 24,-243 73,-305 41,-51 97,-77 169,-77zm0 119c-17,0 -32,6 -45,17 -14,11 -24,31 -31,60 -10,37 -15,99 -15,187 0,88 4,149 13,181 9,33 20,55 33,66 13,11 28,17 45,17 18,0 33,-6 46,-17 13,-11 24,-31 31,-60 10,-36 15,-99 15,-187 0,-88 -5,-148 -13,-181 -9,-33 -20,-55 -33,-66 -13,-11 -28,-17 -46,-17zm-1650 1083l367 0 0 116 -224 0 0 426 -143 0 0 -542zm437 0l134 0 0 80c17,-27 41,-49 70,-66 30,-17 63,-25 99,-25 63,0 116,24 160,74 44,49 66,118 66,206 0,91 -22,161 -67,211 -44,51 -97,76 -160,76 -30,0 -57,-6 -82,-18 -24,-12 -50,-32 -77,-61l0 271 -143 0 0 -748zm141 263c0,61 12,106 37,135 24,29 53,44 87,44 34,0 61,-14 83,-40 23,-27 33,-71 33,-132 0,-57 -11,-99 -34,-127 -22,-28 -50,-42 -84,-42 -35,0 -64,14 -87,41 -23,27 -35,68 -35,121zm495 -263l143 0 0 199 207 0 0 -199 143 0 0 542 -143 0 0 -228 -207 0 0 228 -143 0 0 -542z"/>
  </g>
 </g>
</svg>
