<?xml version="1.0" encoding="UTF-8"?>
<!DOCTYPE svg PUBLIC "-//W3C//DTD SVG 1.1//EN" "http://www.w3.org/Graphics/SVG/1.1/DTD/svg11.dtd">
<!-- Creator: CorelDRAW X7 -->
<svg xmlns="http://www.w3.org/2000/svg" xml:space="preserve" width="13.3691mm" height="16.6117mm" version="1.1" style="shape-rendering:geometricPrecision; text-rendering:geometricPrecision; image-rendering:optimizeQuality; fill-rule:evenodd; clip-rule:evenodd"
viewBox="0 0 612 760"
 xmlns:xlink="http://www.w3.org/1999/xlink">
 <defs>
  <style type="text/css">
   <![CDATA[
    .fil0 {fill:#E72910;fill-rule:nonzero}
   ]]>
  </style>
 </defs>
 <g id="Слой_x0020_1">
  <metadata id="CorelCorpID_0Corel-Layer"/>
  <path class="fil0" d="M99 237c-18,0 -32,-11 -32,-29 0,-17 4,-24 21,-43 30,13 44,23 44,43 0,19 -17,29 -33,29zm7 -195c20,0 30,11 30,31 0,14 -8,26 -21,39 -31,-17 -39,-27 -39,-43 0,-17 15,-27 30,-27l0 0zm-1 -42c-47,0 -94,28 -94,81 0,29 17,53 45,64l0 1c-30,7 -56,29 -56,63 0,51 54,75 95,75 50,0 104,-25 104,-81 0,-37 -19,-62 -54,-71l0 -1c24,-9 44,-31 44,-59 0,-51 -40,-72 -84,-72zm105 142c0,77 18,142 97,142 70,0 97,-65 97,-142 0,-70 -18,-142 -97,-142 -79,0 -97,72 -97,142zm97 -96c16,0 25,12 25,54l0 84c0,42 -9,53 -25,53 -16,0 -25,-11 -25,-53l0 -84c0,-42 9,-54 25,-54zm111 96c0,77 18,142 97,142 70,0 97,-65 97,-142 0,-70 -18,-142 -97,-142 -79,0 -97,72 -97,142zm97 -96c16,0 25,12 25,54l0 84c0,42 -9,53 -25,53 -16,0 -25,-11 -25,-53l0 -84c0,-42 9,-54 25,-54zm-460 656l63 0 0 -150 69 0 0 -44 -132 0 0 194zm216 -146c2,-8 12,-16 22,-16 18,0 18,23 18,68 0,36 0,59 -21,59 -5,0 -13,-1 -19,-7l0 -104zm-63 -48l0 252 63 0 0 -75c11,11 23,17 39,17 52,0 66,-55 66,-104 0,-59 -24,-93 -63,-93 -15,0 -32,8 -44,23l0 0 0 -20 -61 0zm254 0l-63 0 0 194 63 0 0 -77 34 0 0 77 63 0 0 -194 -63 0 0 73 -34 0 0 -73z"/>
 </g>
</svg>
