<?xml version="1.0" encoding="UTF-8"?>
<!DOCTYPE svg PUBLIC "-//W3C//DTD SVG 1.1//EN" "http://www.w3.org/Graphics/SVG/1.1/DTD/svg11.dtd">
<!-- Creator: CorelDRAW X7 -->
<svg xmlns="http://www.w3.org/2000/svg" xml:space="preserve" width="33.3368mm" height="19.6981mm" version="1.1" style="shape-rendering:geometricPrecision; text-rendering:geometricPrecision; image-rendering:optimizeQuality; fill-rule:evenodd; clip-rule:evenodd"
viewBox="0 0 1367 808"
 xmlns:xlink="http://www.w3.org/1999/xlink">
 <defs>
  <style type="text/css">
   <![CDATA[
    .fil8 {fill:#005B81}
    .fil13 {fill:#006278}
    .fil16 {fill:#006786}
    .fil15 {fill:#0255AA}
    .fil17 {fill:#025B74}
    .fil14 {fill:#0453B2}
    .fil10 {fill:#06666C}
    .fil12 {fill:#084EA6}
    .fil9 {fill:#1548A1}
    .fil11 {fill:#1548A4}
    .fil19 {fill:#184B6C}
    .fil18 {fill:#264F88}
    .fil4 {fill:#3AB6FD}
    .fil7 {fill:#6D95AF}
    .fil3 {fill:#DE462C}
    .fil2 {fill:#E3452D}
    .fil6 {fill:#E84735}
    .fil5 {fill:#F84837}
    .fil1 {fill:#FB4A34}
    .fil0 {fill:#FEFEFE}
   ]]>
  </style>
 </defs>
 <g id="Слой_x0020_1">
  <metadata id="CorelCorpID_0Corel-Layer"/>
  <g id="_903350416">
   <path class="fil0" d="M1069 174c1,26 -33,12 -14,-6l8 0 6 6zm20 -7c-1,-21 17,-17 19,-9 2,6 0,12 -6,14 -6,1 -9,-2 -13,-5zm47 -29c12,-6 19,13 9,18 -12,7 -22,-11 -9,-18zm-303 42l-160 58 -45 16c-11,3 -4,1 -15,0 -1,7 2,3 -4,7l-100 36c-7,3 -12,5 -18,7l-56 20c-7,3 -10,4 -18,6 0,0 -1,0 -1,0l-3 1c-1,1 -2,1 -3,1 0,1 -1,1 -1,1l-48 17c-14,5 -13,3 -38,-4l-193 -55c-16,-3 -24,-10 -39,-8 -23,3 -73,10 -91,10 4,6 12,8 19,13 2,1 2,1 4,3 9,7 5,2 17,9 7,4 14,8 21,12l22 12c12,-1 33,-9 43,-12 25,-7 18,-7 43,-1l-67 20c1,4 -1,1 2,5 6,2 8,7 16,7 15,-5 32,-10 47,-14 14,-3 35,-15 47,-2l-79 23c2,5 0,2 3,5 1,0 5,3 5,3 4,2 6,2 11,5 14,-2 43,-12 57,-16 17,-5 38,-15 55,-5l-96 29c4,5 7,5 13,8l19 11c3,1 3,2 7,4 5,3 8,4 13,7l52 29c4,-5 0,-10 2,-20l149 -38c-5,15 -26,36 -31,51 19,0 165,-30 203,-36l92 -18c16,-6 21,-4 28,-7 8,-3 12,-27 17,-42 7,-21 2,-15 37,-23l98 -20c-22,12 -57,23 -79,34 -8,3 -7,5 -10,14 -3,11 -8,23 -11,34 -45,137 -95,280 -138,414 8,-2 9,-3 16,-7l3 -2c0,0 0,0 1,-1l10 -7c0,0 1,0 1,-1 6,-4 -3,3 2,-1 19,-15 14,-2 36,-39l114 -178c3,-5 4,-6 7,-10l11 -17c1,-3 0,-1 2,-3l70 -110c4,-7 8,-12 13,-19l25 -41c34,-51 11,-32 76,-54 6,-2 7,-2 13,-3l215 -78c22,-11 44,-19 67,-34 17,-11 10,-4 29,-19 8,-6 18,-15 22,-25 4,-10 4,-17 -2,-25l-4 -4c-1,-1 -3,-3 -5,-4 -13,-7 -65,-5 -92,-7 -19,-1 -8,2 -26,-7 -39,-19 -25,-23 -73,-15 -39,6 -93,22 -131,34 -17,5 -34,10 -49,16l-149 50z"/>
   <path class="fil1" d="M673 238l160 -58c-9,-4 6,0 -13,-9 -8,-3 -2,-3 -16,-8l-8 -5c-19,-9 -21,-13 -42,-21 0,0 -1,0 -1,-1 -11,-4 1,-2 -18,-10 0,0 -4,-2 -5,-2 0,-1 0,-1 -1,-1l-28 -16c-3,-3 0,-1 -3,-3l-35 -17c-3,-2 0,0 -3,-2 -2,-1 -3,-2 -5,-3l-16 -9c-1,0 -1,-1 -2,-1l-42 -24c-3,0 -1,0 -4,0l-3 -1c-7,-3 -8,-6 -11,-8 0,0 -1,0 -1,0 0,-1 0,-1 -1,-1l-21 -12c-1,0 -1,-1 -1,-1 -3,-2 2,0 -3,-2 0,0 0,-1 0,-1 0,0 -1,0 -1,0l-3 0c-1,0 -1,0 -1,0l-4 -1c-8,-3 -10,-7 -24,-13 -11,-5 -4,-3 -11,-8l-80 0c1,4 0,1 3,5 7,13 20,17 30,32l6 7c2,4 0,2 3,3 2,1 3,0 8,5 4,3 5,5 9,8l3 3c12,8 3,4 11,12l70 67c5,5 5,3 9,8 3,3 4,5 7,8 8,7 4,0 15,14 5,7 3,4 9,8 11,8 5,9 23,22l14 13c0,1 2,2 2,2 0,0 1,1 1,1l7 8c12,13 12,-1 8,11 7,-1 7,-1 9,1z"/>
   <path class="fil2" d="M717 380c0,22 -7,18 -9,35 -1,8 1,5 -4,11 2,5 2,1 0,6 -4,9 -1,-4 -6,15l-1 3c-1,1 -1,1 -1,2l-4 12c0,0 -1,1 -1,1 -5,14 2,5 -7,24 -3,6 -2,8 -3,14l-3 12c-1,0 -1,0 -1,1l-6 19c-2,5 -3,9 -5,11l-2 0c0,0 -1,0 -1,1 0,4 1,8 2,11 -3,11 -13,44 -18,53l-11 32c-2,5 -2,2 -3,13l-16 51c-4,5 -5,7 -6,14 -2,0 0,0 -1,0 -2,0 0,-1 -2,0 0,12 2,3 -1,15 -5,18 -4,9 -6,17 -2,6 -2,10 -4,16l-8 15c4,15 -10,11 -5,21 1,1 3,2 5,3l26 0 0 0c1,-9 14,-7 16,-17 43,-134 93,-277 138,-414 3,-11 8,-23 11,-34 3,-9 2,-11 10,-14 22,-11 57,-22 79,-34l-98 20c-35,8 -30,2 -37,23 -5,15 -9,39 -17,42z"/>
   <path class="fil3" d="M274 448c3,12 0,18 3,29l3 42c0,3 -1,9 0,13 0,2 1,4 1,5 6,11 15,1 23,-1 8,-2 5,1 12,-3 7,-4 1,-4 10,-5 1,5 -1,2 4,4l-2 -4c14,-2 22,-18 28,-29 4,-8 0,-8 11,-6 0,-12 2,-10 7,-21 6,-10 4,-4 9,-11l11 -20c5,-15 26,-36 31,-51l-149 38c-2,10 2,15 -2,20z"/>
   <path class="fil3" d="M461 80c6,2 6,5 10,9 0,0 4,3 5,4 1,1 2,2 3,4 5,4 13,12 16,18 3,7 -1,0 4,5 3,2 3,2 5,4l15 15c0,0 0,1 0,1l5 5c0,0 0,1 1,1 0,0 0,1 1,1l8 8c6,2 10,8 15,13 5,6 10,9 13,15l38 40c0,0 0,1 1,1l2 2c3,3 5,2 7,7 3,4 5,7 9,10l7 7c1,2 1,1 2,4l45 -16c-2,-2 -2,-2 -9,-1 4,-12 4,2 -8,-11l-7 -8c0,0 -1,-1 -1,-1 0,0 -2,-1 -2,-2l-14 -13c-18,-13 -12,-14 -23,-22 -6,-4 -4,-1 -9,-8 -11,-14 -7,-7 -15,-14 -3,-3 -4,-5 -7,-8 -4,-5 -4,-3 -9,-8l-70 -67c-8,-8 1,-4 -11,-12l-3 -3c-4,-3 -5,-5 -9,-8 -5,-5 -6,-4 -8,-5 -3,-1 -1,1 -3,-3l-6 -7c-10,-15 -23,-19 -30,-32 -3,-4 -2,-1 -3,-5l-43 0c2,7 4,6 19,21l8 8c0,0 1,1 1,1 0,0 0,1 1,1l2 2c8,8 -1,-4 11,12l13 12c1,2 1,1 2,3 1,0 1,0 1,1l4 3c8,8 5,7 16,16z"/>
   <path class="fil4" d="M617 707l16 -51 -84 32c-15,6 -29,10 -43,16l-33 12c-7,3 -6,1 -8,7l144 -17c11,0 5,-5 8,1z"/>
   <path class="fil4" d="M495 115c-3,-6 -11,-14 -16,-18 -1,-2 -2,-3 -3,-4 -1,-1 -5,-4 -5,-4 -4,-4 -4,-7 -10,-9 -3,4 -10,6 -15,8l-88 42c-6,3 -11,6 -17,9 -3,1 -5,2 -9,4l-8 5c12,0 152,-32 171,-33z"/>
   <path class="fil4" d="M643 604l3 -2 1 9c5,-9 15,-42 18,-53 -5,2 -4,2 -9,3l-104 41c-7,2 -12,4 -19,7 -5,1 -5,2 -10,3l-10 5c11,0 22,-1 33,-3l97 -10z"/>
   <path class="fil4" d="M562 183c-3,-6 -8,-9 -13,-15 -5,-5 -9,-11 -15,-13l-42 20c-5,3 -8,5 -13,7 -6,3 -9,4 -14,6 -7,3 -38,18 -41,21l138 -26z"/>
   <path class="fil5" d="M154 381c3,3 2,2 7,5l9 3 96 -29c-17,-10 -38,0 -55,5 -14,4 -43,14 -57,16z"/>
   <path class="fil5" d="M120 361c4,9 1,-1 4,8l11 -1 79 -23c-12,-13 -33,-1 -47,2 -15,4 -32,9 -47,14z"/>
   <path class="fil6" d="M83 342c5,4 16,11 21,12 -3,-4 -1,-1 -2,-5l67 -20c-25,-6 -18,-6 -43,1 -10,3 -31,11 -43,12z"/>
   <path class="fil3" d="M1069 174l-6 -6 -8 0c-19,18 15,32 14,6z"/>
   <path class="fil2" d="M1089 167c4,3 7,6 13,5 6,-2 8,-8 6,-14 -2,-8 -20,-12 -19,9z"/>
   <path class="fil3" d="M1136 138c-13,7 -3,25 9,18 10,-5 3,-24 -9,-18z"/>
   <polygon class="fil7" points="895,808 923,808 923,806 895,806 "/>
   <polygon class="fil7" points="661,808 687,808 687,806 661,806 "/>
   <path class="fil8" d="M669 487l0 -7 -6 0c4,6 0,3 6,7z"/>
   <path class="fil9" d="M706 398c2,2 2,1 5,2l0 -5c-3,0 -5,0 -5,3z"/>
   <polygon class="fil10" points="769,139 774,139 774,135 769,135 "/>
   <path class="fil11" d="M589 784l0 -8c-1,2 -1,1 -2,3 -2,4 -1,1 -2,5l4 0z"/>
   <path class="fil11" d="M676 495l0 -6 -3 0c1,5 -1,3 3,6z"/>
   <path class="fil12" d="M615 250c5,-1 3,0 6,-4l-6 0 0 4z"/>
   <path class="fil13" d="M302 552l-6 0c5,6 2,6 6,0z"/>
   <path class="fil11" d="M769 132l5 0c-1,-3 -4,-6 -5,0z"/>
   <path class="fil11" d="M417 56l-1 -3c-3,-3 -1,-1 -3,-3 1,9 -2,4 4,6z"/>
   <path class="fil12" d="M593 756c2,2 7,-3 2,-1 0,0 -5,-2 -2,1z"/>
   <path class="fil14" d="M396 450c2,2 7,-2 3,-1 0,0 -6,-2 -3,1z"/>
   <path class="fil13" d="M811 148c2,2 7,-2 3,-1 0,0 -6,-2 -3,1z"/>
   <path class="fil15" d="M346 534c2,1 7,-3 3,-1 0,0 -6,-3 -3,1z"/>
   <path class="fil16" d="M585 758c0,2 4,4 3,0 -1,-4 5,0 -1,-1 -2,0 -2,-3 -2,1z"/>
   <path class="fil12" d="M298 547c0,2 4,4 3,0 -1,-5 5,-1 -1,-1 -2,0 -2,-3 -2,1z"/>
   <path class="fil14" d="M506 145c0,2 4,4 3,0 -1,-5 4,-1 -1,-1 -3,0 -2,-3 -2,1z"/>
   <path class="fil14" d="M552 200c0,5 3,1 1,0 0,0 -1,-5 -1,0z"/>
   <path class="fil17" d="M552 193c0,4 3,0 1,0 0,0 -1,-6 -1,0z"/>
   <path class="fil11" d="M385 26c0,5 3,0 1,0 0,0 -1,-5 -1,0z"/>
   <path class="fil14" d="M400 26c0,5 3,0 1,0 0,0 -1,-5 -1,0z"/>
   <path class="fil13" d="M421 54c0,4 3,0 1,0 0,0 -1,-6 -1,0z"/>
   <path class="fil11" d="M608 256c0,4 3,0 1,0 0,0 -1,-6 -1,0z"/>
   <path class="fil13" d="M608 248c0,5 3,1 1,0 0,0 -1,-5 -1,0z"/>
   <polygon class="fil11" points="643,604 643,606 645,604 "/>
   <polygon class="fil9" points="704,426 704,424 702,426 "/>
   <polygon class="fil14" points="595,48 597,48 595,46 "/>
   <polygon class="fil18" points="610,233 608,233 609,236 "/>
   <path class="fil13" d="M687 93c1,0 1,-1 1,-1l0 0c0,0 -1,0 -1,1z"/>
   <path class="fil17" d="M743 120c0,1 0,0 0,0l0 0c0,0 0,0 0,0z"/>
   <path class="fil13" d="M660 76c0,0 0,-1 0,-1l0 0c0,0 -1,1 0,1z"/>
   <path class="fil13" d="M715 93c0,0 1,-1 1,-1l0 0c0,0 -1,0 -1,1z"/>
   <path class="fil14" d="M639 565l1 -1c0,1 -1,1 -1,1z"/>
   <path class="fil11" d="M421 48l0 0c0,0 -1,0 0,0z"/>
   <path class="fil11" d="M811 156l1 -1c0,0 -1,0 -1,1z"/>
   <path class="fil13" d="M604 48l1 0c-1,0 -1,0 -1,0z"/>
   <path class="fil13" d="M663 534l1 -1c0,0 -1,0 -1,1z"/>
   <path class="fil19" d="M337 534l1 -1c0,0 -1,0 -1,1z"/>
   <path class="fil13" d="M619 648l0 0c0,0 0,0 0,0z"/>
   <path class="fil11" d="M298 561l1 0c0,0 -1,0 -1,0z"/>
   <path class="fil17" d="M497 128l0 -1c0,0 -1,1 0,1z"/>
   <path class="fil17" d="M635 65l1 -1c0,0 -1,1 -1,1z"/>
   <path class="fil14" d="M826 148l1 0c0,0 -1,0 -1,0z"/>
   <path class="fil11" d="M667 506l0 -1c0,0 0,1 0,1z"/>
   <path class="fil11" d="M635 69l1 -1c0,0 -1,0 -1,1z"/>
   <path class="fil17" d="M385 17l1 -1c0,0 -1,0 -1,1z"/>
   <path class="fil15" d="M632 804l0 -1c0,1 0,1 0,1z"/>
   <polygon class="fil14" points="330,532 333,534 "/>
  </g>
 </g>
</svg>
