<?xml version="1.0" encoding="utf-8"?>
<!-- Generator: Adobe Illustrator 24.3.0, SVG Export Plug-In . SVG Version: 6.00 Build 0)  -->
<svg version="1.1" id="Layer_1" xmlns="http://www.w3.org/2000/svg" xmlns:xlink="http://www.w3.org/1999/xlink" x="0px" y="0px"
	 viewBox="0 0 14.2 99.8" style="enable-background:new 0 0 14.2 99.8;" xml:space="preserve">
<style type="text/css">
	.st0{fill:#005487;}
</style>
<g>
	<path class="st0" d="M0.2,95.6c0-1.2,0.6-2.1,1.8-2.7c1.2-0.6,2.9-0.9,5.2-0.9c2.2,0,3.9,0.3,5.1,1s1.8,1.5,1.8,2.7
		c0,1.1-0.5,2-1.6,2.7s-2.9,1-5.3,1c-2.2,0-3.8-0.3-5-1C0.8,97.7,0.2,96.8,0.2,95.6L0.2,95.6z M7,96.9c2.8,0,4.2-0.4,4.2-1.2
		c0-0.4-0.3-0.8-0.9-1c-0.6-0.2-1.6-0.3-2.9-0.3c-1.5,0-2.6,0.1-3.2,0.3c-0.7,0.2-1,0.5-1,1C3,96.4,4.3,96.9,7,96.9z"/>
	<path class="st0" d="M6.5,81.7c0.3-0.6,0.8-1.1,1.5-1.5s1.4-0.5,2.2-0.5c1.2,0,2.1,0.3,2.8,0.9c0.7,0.6,1,1.4,1,2.4
		c0,1-0.3,1.9-1,2.5c-0.7,0.6-1.6,0.9-2.8,0.9c-0.3,0-0.6,0-0.8-0.1c-0.3,0-0.5-0.1-0.7-0.2C8.4,86.1,8.2,86,8,85.9
		s-0.4-0.2-0.6-0.4c-0.2-0.1-0.3-0.3-0.5-0.5c-0.1-0.2-0.3-0.4-0.4-0.6h0v0c0,0,0,0,0,0c0,0,0,0,0,0c-0.2,0.3-0.4,0.6-0.6,0.8
		c-0.2,0.2-0.5,0.4-0.9,0.6C4.5,86,4,86.1,3.5,86.1c-0.9,0-1.7-0.3-2.3-0.9c-0.6-0.6-0.9-1.3-0.9-2.2c0-0.9,0.3-1.6,0.9-2.2
		S2.6,80,3.6,80c0.7,0,1.2,0.1,1.7,0.4C5.7,80.6,6.1,81.1,6.5,81.7z M9.9,82.1C8.6,82.1,8,82.4,8,83C8,83.7,8.6,84,9.7,84
		c1.3,0,1.9-0.3,1.9-1C11.6,82.4,11,82.1,9.9,82.1z M4,82.4c-0.9,0-1.4,0.2-1.4,0.6c0,0.4,0.4,0.7,1.3,0.7c0.5,0,0.9-0.1,1.1-0.2
		c0.2-0.1,0.3-0.3,0.3-0.5C5.2,82.6,4.8,82.4,4,82.4z"/>
	<path class="st0" d="M0.2,74.7c0-1.2,0.6-2.1,1.8-2.7C3.1,71.3,4.8,71,7.1,71c2.2,0,3.9,0.3,5.1,1s1.8,1.5,1.8,2.7
		c0,1.1-0.5,2-1.6,2.7s-2.9,1-5.3,1c-2.2,0-3.8-0.3-5-1C0.8,76.7,0.2,75.9,0.2,74.7L0.2,74.7z M7,75.9c2.8,0,4.2-0.4,4.2-1.2
		c0-0.4-0.3-0.8-0.9-1c-0.6-0.2-1.6-0.3-2.9-0.3c-1.5,0-2.6,0.1-3.2,0.3c-0.7,0.2-1,0.5-1,1C3,75.5,4.3,75.9,7,75.9z"/>
	<path class="st0" d="M0.2,66.3c0-1.2,0.6-2.1,1.8-2.7s2.9-0.9,5.2-0.9c2.2,0,3.9,0.3,5.1,1s1.8,1.5,1.8,2.7c0,1.1-0.5,2-1.6,2.7
		c-1.1,0.7-2.9,1-5.3,1c-2.2,0-3.8-0.3-5-1S0.2,67.5,0.2,66.3L0.2,66.3z M7,67.5c2.8,0,4.2-0.4,4.2-1.2c0-0.4-0.3-0.8-0.9-1
		c-0.6-0.2-1.6-0.3-2.9-0.3c-1.5,0-2.6,0.1-3.2,0.3c-0.7,0.2-1,0.5-1,1C3,67.1,4.3,67.5,7,67.5z"/>
	<path class="st0" d="M4.5,54.2v2.4c-0.8,0-1.3-0.1-1.8-0.2c-0.4-0.1-0.8-0.3-1.2-0.5c-0.4-0.3-0.7-0.6-1-1s-0.4-0.9-0.4-1.3
		c0-0.9,0.4-1.6,1.1-2.1C2,50.9,2.9,50.6,4,50.6c1.3,0,2.3,0.4,3,1.3c0.6-1,1.7-1.5,3.2-1.5c0.6,0,1.2,0.1,1.9,0.4
		c0.6,0.2,1.1,0.6,1.3,1.1c0.3,0.5,0.4,1,0.4,1.7c0,1-0.3,1.7-1,2.3c-0.7,0.6-1.6,0.9-2.7,1v-2.4c0.8,0,1.2-0.3,1.2-0.8
		c0-0.5-0.5-0.8-1.6-0.8c-0.5,0-0.9,0.1-1.1,0.2s-0.3,0.4-0.3,0.8v0.8H5.7v-0.8c0-0.4-0.1-0.6-0.3-0.8c-0.2-0.2-0.6-0.2-1.1-0.2
		c-1.1,0-1.6,0.3-1.6,0.8c0,0.2,0.1,0.4,0.3,0.5c0.2,0.1,0.6,0.1,1.2,0.1H4.5z"/>
	<path class="st0" d="M0.2,45.4c0-1.2,0.6-2.1,1.8-2.7c1.2-0.6,2.9-0.9,5.2-0.9c2.2,0,3.9,0.3,5.1,1c1.2,0.6,1.8,1.5,1.8,2.7
		c0,1.1-0.5,2-1.6,2.7S9.4,49,7,49c-2.2,0-3.8-0.3-5-1C0.8,47.4,0.2,46.5,0.2,45.4L0.2,45.4z M7,46.6c2.8,0,4.2-0.4,4.2-1.2
		c0-0.4-0.3-0.8-0.9-1c-0.6-0.2-1.6-0.3-2.9-0.3c-1.5,0-2.6,0.1-3.2,0.3s-1,0.5-1,1C3,46.2,4.3,46.6,7,46.6z"/>
	<path class="st0" d="M6.5,31.4c0.3-0.6,0.8-1.1,1.5-1.5s1.4-0.5,2.2-0.5c1.2,0,2.1,0.3,2.8,0.9c0.7,0.6,1,1.4,1,2.4
		c0,1-0.3,1.9-1,2.5c-0.7,0.6-1.6,0.9-2.8,0.9c-0.3,0-0.6,0-0.8-0.1c-0.3,0-0.5-0.1-0.7-0.2c-0.2-0.1-0.4-0.2-0.6-0.3
		c-0.2-0.1-0.4-0.2-0.6-0.4S7.1,35,6.9,34.8c-0.1-0.2-0.3-0.4-0.4-0.6h0v0c0,0,0,0,0,0c0,0,0,0,0,0c-0.2,0.3-0.4,0.6-0.6,0.8
		c-0.2,0.2-0.5,0.4-0.9,0.6S4,35.9,3.5,35.9c-0.9,0-1.7-0.3-2.3-0.9s-0.9-1.3-0.9-2.2c0-0.9,0.3-1.6,0.9-2.2s1.4-0.9,2.4-0.9
		c0.7,0,1.2,0.1,1.7,0.4S6.1,30.8,6.5,31.4z M9.9,31.9c-1.3,0-1.9,0.3-1.9,0.9c0,0.6,0.6,0.9,1.8,0.9c1.3,0,1.9-0.3,1.9-1
		C11.6,32.2,11,31.9,9.9,31.9z M4,32.1c-0.9,0-1.4,0.2-1.4,0.6c0,0.4,0.4,0.7,1.3,0.7c0.5,0,0.9-0.1,1.1-0.2
		c0.2-0.1,0.3-0.3,0.3-0.5C5.2,32.4,4.8,32.1,4,32.1z"/>
	<path class="st0" d="M0.5,27v-6.5l13.1,4.2v2.6L3.2,24V27H0.5z"/>
	<path class="st0" d="M0.5,14.5V7.9l13.1,4.2v2.6L3.2,11.4v3.1H0.5z"/>
	<path class="st0" d="M6.5,2.1C6.8,1.5,7.3,1,7.9,0.6s1.4-0.5,2.2-0.5c1.2,0,2.1,0.3,2.8,0.9c0.7,0.6,1,1.4,1,2.4c0,1-0.3,1.9-1,2.5
		c-0.7,0.6-1.6,0.9-2.8,0.9c-0.3,0-0.6,0-0.8-0.1c-0.3,0-0.5-0.1-0.7-0.2C8.4,6.6,8.2,6.5,8,6.4S7.6,6.1,7.4,6
		C7.2,5.8,7.1,5.7,6.9,5.5C6.8,5.3,6.6,5.1,6.5,4.9h0v0c0,0,0,0,0,0c0,0,0,0,0,0C6.3,5.3,6,5.6,5.8,5.8C5.6,6,5.3,6.2,4.9,6.3
		C4.5,6.5,4,6.6,3.5,6.6c-0.9,0-1.7-0.3-2.3-0.9S0.2,4.4,0.2,3.5c0-0.9,0.3-1.6,0.9-2.2s1.4-0.9,2.4-0.9c0.7,0,1.2,0.1,1.7,0.4
		S6.1,1.5,6.5,2.1z M9.9,2.6C8.6,2.6,8,2.9,8,3.5c0,0.6,0.6,0.9,1.8,0.9c1.3,0,1.9-0.3,1.9-1C11.6,2.9,11,2.6,9.9,2.6z M4,2.8
		c-0.9,0-1.4,0.2-1.4,0.6c0,0.4,0.4,0.7,1.3,0.7c0.5,0,0.9-0.1,1.1-0.2c0.2-0.1,0.3-0.3,0.3-0.5C5.2,3,4.8,2.8,4,2.8z"/>
</g>
</svg>
