<?xml version="1.0" encoding="UTF-8"?>
<!DOCTYPE svg PUBLIC "-//W3C//DTD SVG 1.1//EN" "http://www.w3.org/Graphics/SVG/1.1/DTD/svg11.dtd">
<!-- Creator: CorelDRAW X7 -->
<svg xmlns="http://www.w3.org/2000/svg" xml:space="preserve" width="4.9995mm" height="35.2144mm" version="1.1" style="shape-rendering:geometricPrecision; text-rendering:geometricPrecision; image-rendering:optimizeQuality; fill-rule:evenodd; clip-rule:evenodd"
viewBox="0 0 39 276"
 xmlns:xlink="http://www.w3.org/1999/xlink">
 <defs>
  <style type="text/css">
   <![CDATA[
    .fil0 {fill:#005487;fill-rule:nonzero}
   ]]>
  </style>
 </defs>
 <g id="Слой_x0020_1">
  <metadata id="CorelCorpID_0Corel-Layer"/>
  <path class="fil0" d="M0 265c0,7 9,11 20,11 10,0 19,-3 19,-11 0,-6 -6,-11 -20,-11 -9,0 -19,2 -19,11zm7 0c0,-3 4,-4 13,-4 8,0 13,1 13,4 0,2 -4,3 -13,3 -9,0 -13,-1 -13,-3zm-7 -34l0 16 20 2c0,-1 0,-2 0,-3 0,-4 1,-8 6,-8 4,0 7,2 7,6 0,2 -1,4 -1,5l6 2c0,-2 1,-5 1,-8 0,-8 -6,-13 -13,-13 -4,0 -7,1 -9,3 -2,3 -3,6 -3,8 0,0 0,0 0,1l-7 -1 0 -10 -7 0zm0 -17c0,8 9,12 20,12 10,0 19,-3 19,-11 0,-6 -6,-11 -20,-11 -9,0 -19,2 -19,10zm7 1c0,-3 4,-4 13,-4 8,0 13,1 13,4 0,2 -4,3 -13,3 -9,0 -13,-1 -13,-3zm-7 -44l0 16 20 2c0,0 0,-1 0,-2 0,-5 1,-9 6,-9 4,0 7,3 7,7 0,2 -1,4 -1,5l6 1c0,-1 1,-4 1,-7 0,-8 -6,-13 -13,-13 -4,0 -7,1 -9,3 -2,2 -3,6 -3,7 0,1 0,1 0,1l-7 -1 0 -10 -7 0zm0 -16c0,8 9,11 20,11 10,0 19,-2 19,-11 0,-6 -6,-11 -20,-11 -9,0 -19,2 -19,11zm7 0c0,-2 4,-3 13,-3 8,0 13,1 13,3 0,3 -4,4 -13,4 -9,0 -13,-2 -13,-4zm-7 -15l7 0 0 -13 0 0 32 12 0 -7 -33 -12 -6 0 0 20zm19 -39c2,3 5,6 10,6 6,0 10,-5 10,-11 0,-6 -4,-12 -11,-12 -5,0 -8,3 -10,6l0 0c-3,-4 -6,-5 -9,-5 -5,0 -9,5 -9,10 0,6 4,11 10,11 3,0 6,-1 8,-5l1 0zm15 -5c0,2 -3,4 -6,4 -3,0 -5,-2 -7,-4 1,-2 4,-4 7,-4 4,0 6,1 6,4zm-29 -1c0,-2 3,-3 5,-3 2,0 5,1 6,3 -2,2 -3,4 -6,4 -3,0 -5,-1 -5,-4zm14 -19c2,3 5,6 10,6 6,0 10,-5 10,-11 0,-6 -4,-12 -11,-12 -5,0 -8,3 -10,6l0 0c-3,-4 -6,-5 -9,-5 -5,0 -9,5 -9,10 0,6 4,11 10,11 3,0 6,-1 8,-5l1 0zm15 -5c0,2 -3,4 -6,4 -3,0 -5,-2 -7,-4 1,-2 4,-4 7,-4 4,0 6,1 6,4zm-29 -1c0,-2 3,-3 5,-3 2,0 5,1 6,3 -2,2 -3,4 -6,4 -3,0 -5,-1 -5,-4zm-5 -43l0 16 20 2c0,-1 0,-1 0,-2 0,-5 1,-9 6,-9 4,0 7,3 7,6 0,3 -1,5 -1,6l6 1c0,-1 1,-4 1,-7 0,-8 -6,-13 -13,-13 -4,0 -7,1 -9,3 -2,2 -3,6 -3,7 0,1 0,1 0,1l-7 -1 0 -10 -7 0zm0 -16c0,8 9,11 20,11 10,0 19,-2 19,-11 0,-6 -6,-11 -20,-11 -9,0 -19,2 -19,11zm7 0c0,-2 4,-3 13,-3 8,0 13,1 13,3 0,3 -4,4 -13,4 -9,0 -13,-2 -13,-4z"/>
 </g>
</svg>
