<?xml version="1.0" encoding="utf-8"?>
<!-- Generator: Adobe Illustrator 24.3.0, SVG Export Plug-In . SVG Version: 6.00 Build 0)  -->
<svg version="1.1" id="Layer_1" xmlns="http://www.w3.org/2000/svg" xmlns:xlink="http://www.w3.org/1999/xlink" x="0px" y="0px"
	 viewBox="0 0 14.2 99.8" style="enable-background:new 0 0 14.2 99.8;" xml:space="preserve">
<style type="text/css">
	.st0{fill:#19568B;}
</style>
<g id="Слой_x0020_1">
	<g>
		<path class="st0" d="M3.9,99.2c-1,0-1.7-0.3-2.3-0.9c-0.5-0.6-0.8-1.5-0.8-2.7s0.3-2,0.8-2.7C2.2,92.3,3,92,3.9,92h6.3
			c1,0,1.7,0.3,2.3,0.9c0.5,0.6,0.8,1.5,0.8,2.7s-0.3,2-0.8,2.7c-0.5,0.6-1.3,0.9-2.3,0.9H3.9z M10.4,96.8c0.4,0,0.7-0.1,0.9-0.3
			c0.2-0.2,0.3-0.5,0.3-0.9s-0.1-0.7-0.3-0.9c-0.2-0.2-0.5-0.3-0.9-0.3H3.8c-0.4,0-0.7,0.1-0.9,0.3c-0.2,0.2-0.3,0.5-0.3,0.9
			s0.1,0.7,0.3,0.9c0.2,0.2,0.5,0.3,0.9,0.3H10.4z"/>
		<path class="st0" d="M10.2,80c1,0,1.7,0.3,2.3,0.9c0.5,0.6,0.8,1.5,0.8,2.7s-0.3,2.1-0.8,2.7s-1.3,0.9-2.3,0.9h-1
			c-0.6,0-1.1-0.1-1.5-0.3c-0.4-0.2-0.8-0.6-1-1.1c-0.4,1-1.2,1.5-2.4,1.5H3.9c-1,0-1.7-0.3-2.3-0.9c-0.5-0.6-0.8-1.5-0.8-2.7
			s0.3-2.1,0.8-2.7c0.6-0.6,1.4-1,2.3-1h0.4c1.2,0,2,0.5,2.4,1.5c0.2-0.5,0.6-0.9,1-1.1c0.5-0.2,1-0.4,1.6-0.4H10.2z M4.7,85.1
			c0.5,0,0.8-0.1,1-0.4c0.2-0.2,0.3-0.6,0.3-1S5.9,83,5.7,82.8s-0.5-0.4-1-0.4H4c-0.5,0-0.9,0.1-1.1,0.4s-0.3,0.6-0.3,0.9
			c0,0.4,0.1,0.7,0.3,0.9S3.5,85,4,85L4.7,85.1L4.7,85.1z M10.2,85.1c0.5,0,0.9-0.1,1.1-0.4c0.2-0.3,0.3-0.6,0.3-0.9
			c0-0.4-0.1-0.7-0.3-0.9c-0.2-0.3-0.5-0.4-1.1-0.4H9.1c-0.5,0-0.8,0.1-1,0.4c-0.2,0.2-0.3,0.6-0.3,1s0.1,0.7,0.3,1
			c0.2,0.2,0.6,0.4,1,0.4h1.1V85.1z"/>
		<path class="st0" d="M3.9,78.8c-1,0-1.7-0.3-2.3-0.9c-0.5-0.6-0.8-1.5-0.8-2.7s0.3-2,0.8-2.7c0.5-0.6,1.3-0.9,2.3-0.9h6.3
			c1,0,1.7,0.3,2.3,0.9c0.5,0.6,0.8,1.5,0.8,2.7s-0.3,2-0.8,2.7c-0.5,0.6-1.3,0.9-2.3,0.9H3.9z M10.4,76.5c0.4,0,0.7-0.1,0.9-0.3
			c0.2-0.2,0.3-0.5,0.3-0.9s-0.1-0.7-0.3-0.9c-0.2-0.2-0.5-0.3-0.9-0.3H3.8c-0.4,0-0.7,0.1-0.9,0.3c-0.2,0.2-0.3,0.5-0.3,0.9
			s0.1,0.7,0.3,0.9c0.2,0.2,0.5,0.3,0.9,0.3H10.4z"/>
		<path class="st0" d="M3.9,70.3c-1,0-1.7-0.3-2.3-0.9c-0.5-0.6-0.8-1.5-0.8-2.7s0.3-2,0.8-2.7c0.5-0.6,1.3-0.9,2.3-0.9h6.3
			c1,0,1.7,0.3,2.3,0.9c0.5,0.6,0.8,1.5,0.8,2.7s-0.3,2-0.8,2.7c-0.5,0.6-1.3,0.9-2.3,0.9H3.9z M10.4,67.9c0.4,0,0.7-0.1,0.9-0.3
			c0.2-0.2,0.3-0.5,0.3-0.9s-0.1-0.7-0.3-0.9c-0.2-0.2-0.5-0.3-0.9-0.3H3.8c-0.4,0-0.7,0.1-0.9,0.3c-0.2,0.2-0.3,0.5-0.3,0.9
			s0.1,0.7,0.3,0.9c0.2,0.2,0.5,0.3,0.9,0.3H10.4z"/>
		<path class="st0" d="M4,53.7c-0.5,0-0.9,0.1-1.1,0.3c-0.2,0.2-0.3,0.5-0.3,0.9s0.1,0.7,0.3,0.9s0.5,0.3,0.9,0.3h0.8v2.2H3.9
			c-1,0-1.7-0.3-2.3-0.9c-0.5-0.6-0.8-1.5-0.8-2.6c0-1.2,0.3-2,0.8-2.6s1.3-0.9,2.3-0.9h0.3c1.3,0,2.1,0.6,2.5,1.7
			c0.2-0.6,0.5-1,1-1.3c0.4-0.2,1-0.4,1.6-0.4h1c1,0,1.7,0.3,2.3,0.9c0.5,0.6,0.8,1.5,0.8,2.6c0,1.2-0.3,2-0.8,2.6s-1.3,0.9-2.3,0.9
			h-1v-2.2h1.1c0.4,0,0.7-0.1,0.9-0.3s0.3-0.5,0.3-0.9s-0.1-0.7-0.3-0.9s-0.5-0.3-1.1-0.3h-1c-0.6,0-1,0.1-1.2,0.4
			c-0.2,0.2-0.3,0.6-0.3,1.2v0.8H6v-0.9c0-0.4-0.1-0.8-0.3-1c-0.2-0.3-0.5-0.4-1-0.4L4,53.7L4,53.7z"/>
		<path class="st0" d="M3.9,50c-1,0-1.7-0.3-2.3-0.9c-0.5-0.6-0.8-1.5-0.8-2.7s0.3-2,0.8-2.7c0.5-0.6,1.3-0.9,2.3-0.9h6.3
			c1,0,1.7,0.3,2.3,0.9c0.5,0.6,0.8,1.5,0.8,2.7s-0.3,2-0.8,2.7C12,49.7,11.2,50,10.2,50H3.9z M10.4,47.6c0.4,0,0.7-0.1,0.9-0.3
			s0.3-0.5,0.3-0.9s-0.1-0.7-0.3-0.9s-0.5-0.3-0.9-0.3H3.8c-0.4,0-0.7,0.1-0.9,0.3c-0.2,0.2-0.3,0.5-0.3,0.9s0.1,0.7,0.3,0.9
			s0.5,0.3,0.9,0.3H10.4z"/>
		<path class="st0" d="M10.2,30.9c1,0,1.7,0.3,2.3,0.9c0.5,0.6,0.8,1.5,0.8,2.7s-0.3,2.1-0.8,2.7c-0.5,0.6-1.3,0.9-2.3,0.9h-1
			c-0.6,0-1.1-0.1-1.5-0.3s-0.8-0.6-1-1.1c-0.4,1-1.2,1.5-2.4,1.5H3.9c-1,0-1.7-0.3-2.3-0.9c-0.5-0.6-0.8-1.5-0.8-2.7
			s0.3-2.1,0.8-2.7C2.1,31.3,2.9,31,3.9,31h0.4c1.2,0,2,0.5,2.4,1.5c0.2-0.5,0.6-0.9,1-1.1s0.9-0.3,1.5-0.3h1V30.9z M4.7,35.9
			c0.5,0,0.8-0.1,1-0.4s0.3-0.6,0.3-1s-0.1-0.7-0.3-0.9s-0.5-0.4-1-0.4H4c-0.5,0-0.9,0.1-1.1,0.4s-0.3,0.6-0.3,0.9s0.1,0.7,0.3,0.9
			s0.6,0.4,1.1,0.4L4.7,35.9L4.7,35.9z M10.2,35.9c0.5,0,0.9-0.1,1.1-0.4c0.2-0.3,0.3-0.6,0.3-0.9s-0.1-0.7-0.3-0.9
			c-0.2-0.3-0.5-0.4-1.1-0.4H9.1c-0.5,0-0.8,0.1-1,0.4c-0.2,0.2-0.3,0.6-0.3,1s0.1,0.7,0.3,1c0.2,0.2,0.6,0.4,1,0.4h1.1V35.9z"/>
		<path class="st0" d="M1,22.5h1.7L13.1,26v2.4L2.8,24.9v4.7H1V22.5z"/>
		<path class="st0" d="M1,10.7h1.7l10.4,3.5v2.4L2.8,13.1v4.7H1V10.7z"/>
		<path class="st0" d="M10.2,2c1,0,1.7,0.3,2.3,0.9c0.5,0.6,0.8,1.5,0.8,2.7S13,7.7,12.5,8.3s-1.3,0.9-2.3,0.9h-1
			c-0.6,0-1.1-0.1-1.5-0.3S7,8.5,6.8,7.9c-0.4,1-1.2,1.5-2.4,1.5H3.9c-1,0-1.7-0.3-2.3-0.9C1.2,7.8,0.9,6.9,0.9,5.7S1.2,3.6,1.7,3
			C2.2,2.3,3,2,3.9,2h0.4c1.2,0,2,0.5,2.4,1.5C7,3,7.3,2.6,7.8,2.4S8.7,2,9.3,2H10.2z M4.7,7c0.5,0,0.8-0.1,1-0.4S6,6.1,6,5.7
			C6,5.3,5.9,5,5.7,4.8s-0.5-0.4-1-0.4H4c-0.5,0-0.9,0.1-1.1,0.4S2.6,5.3,2.6,5.7s0.1,0.7,0.3,0.9S3.5,7,4,7H4.7z M10.2,7
			c0.5,0,0.9-0.1,1.1-0.4c0.2-0.3,0.3-0.6,0.3-0.9S11.5,5,11.3,4.8c-0.2-0.3-0.5-0.4-1.1-0.4H9.1c-0.5,0-0.8,0.1-1,0.4
			C7.8,5,7.7,5.3,7.7,5.7c0,0.4,0.1,0.7,0.3,1C8.2,6.9,8.6,7,9.1,7H10.2z"/>
	</g>
</g>
</svg>
