<?xml version="1.0" encoding="UTF-8"?>
<!DOCTYPE svg PUBLIC "-//W3C//DTD SVG 1.1//EN" "http://www.w3.org/Graphics/SVG/1.1/DTD/svg11.dtd">
<!-- Creator: CorelDRAW X7 -->
<svg xmlns="http://www.w3.org/2000/svg" xml:space="preserve" width="17.5132mm" height="23.7703mm" version="1.1" style="shape-rendering:geometricPrecision; text-rendering:geometricPrecision; image-rendering:optimizeQuality; fill-rule:evenodd; clip-rule:evenodd"
viewBox="0 0 1148 1559"
 xmlns:xlink="http://www.w3.org/1999/xlink">
 <defs>
  <style type="text/css">
   <![CDATA[
    .str0 {stroke:#FEFEFE;stroke-width:32.7869;stroke-linecap:round;stroke-linejoin:round}
    .fil0 {fill:none;fill-rule:nonzero}
    .fil1 {fill:#E31E24;fill-rule:nonzero}
   ]]>
  </style>
 </defs>
 <g id="Слой_x0020_1">
  <metadata id="CorelCorpID_0Corel-Layer"/>
  <g>
   <path class="fil0 str0" d="M89 55c7,-4 17,-8 26,-8 15,0 23,9 23,22 0,17 -16,25 -33,25l-4 0 0 28 6 0c19,0 37,8 37,29 0,15 -11,26 -30,26 -10,0 -21,-2 -29,-7l-5 30c8,4 22,8 38,8 33,0 63,-20 63,-56 0,-25 -15,-42 -37,-47l0 0c19,-5 32,-23 32,-43 0,-24 -17,-46 -52,-46 -18,0 -33,6 -41,11l6 28zm203 69c0,-27 -7,-56 -48,-56 -19,0 -35,6 -43,10l7 25c8,-5 17,-8 28,-8 13,0 19,7 19,18l0 3c-31,1 -62,15 -62,51 0,24 15,41 36,41 12,0 22,-5 30,-16l0 0 2 14 33 0c-2,-9 -2,-21 -2,-31l0 -51zm-36 39c0,3 0,5 -1,7 -2,8 -9,11 -15,11 -5,0 -13,-5 -13,-18 0,-19 17,-23 29,-23l0 23zm105 43c8,1 21,1 34,1 27,0 72,-5 72,-41 0,-16 -12,-29 -32,-32l0 -1c14,-4 26,-14 26,-31 0,-30 -36,-34 -60,-34 -14,0 -29,1 -40,3l0 135zm36 -114c2,0 5,-1 9,-1 12,0 21,6 21,16 0,11 -10,17 -22,17l-8 0 0 -32zm-1 55l9 0c14,0 26,6 26,19 0,13 -13,18 -26,18 -3,0 -6,-1 -9,-1l0 -36zm184 -23c0,-27 -7,-56 -48,-56 -19,0 -35,6 -42,10l6 25c9,-5 17,-8 28,-8 13,0 19,7 19,18l0 3c-31,1 -62,15 -62,51 0,24 15,41 36,41 12,0 23,-5 30,-16l1 0 2 14 32 0c-1,-9 -2,-21 -2,-31l0 -51zm-36 39c0,3 0,5 -1,7 -2,8 -8,11 -15,11 -5,0 -13,-5 -13,-18 0,-19 17,-23 29,-23l0 23zm62 -93l0 136 159 0 0 -136 -36 0 0 106 -26 0 0 -106 -36 0 0 106 -26 0 0 -106 -35 0zm184 0l0 136 34 0c8,-17 18,-43 22,-52 5,-14 9,-25 13,-39l1 0c-1,18 -2,34 -2,61l0 30 33 0 0 -136 -35 0 -20 52c-5,11 -11,26 -15,40l-1 0c1,-14 3,-38 3,-63l0 -29 -33 0zm122 136l33 0 1 -47c1,-14 1,-30 2,-58l0 0c3,14 8,40 11,55l11 47 29 0 11 -46c5,-21 9,-45 12,-56l0 0c1,28 1,44 2,57l1 48 34 0 -9 -136 -45 0 -10 43c-2,12 -4,23 -8,40l-1 0c-3,-18 -6,-28 -8,-40l-11 -43 -45 0 -10 136zm-893 183l0 136 36 0 0 -106 28 0 0 106 37 0 0 -136 -101 0zm126 189l36 0 0 -64 1 0c4,6 11,13 22,13 23,0 44,-22 44,-70 0,-38 -12,-70 -41,-70 -13,0 -23,7 -29,18l-1 0 -2 -16 -31 0c0,13 1,27 1,43l0 146zm36 -139c0,-3 1,-7 2,-10 1,-6 7,-11 12,-11 11,0 17,13 17,39 0,22 -4,40 -17,40 -4,0 -9,-2 -12,-10 -1,-3 -2,-7 -2,-11l0 -37zm136 -52c-27,0 -52,22 -52,70 0,45 19,70 51,70 21,0 52,-14 52,-70 0,-43 -19,-70 -51,-70zm0 27c12,0 15,24 15,43 0,20 -3,42 -15,42 -13,0 -16,-19 -16,-42 0,-19 2,-43 16,-43zm57 -25l30 68 -31 68 37 0 8 -26c2,-7 4,-13 6,-20l1 0c2,7 4,13 6,20l10 26 39 0 -31 -69 30 -67 -36 0 -8 24c-3,8 -4,16 -6,23l-1 0c-2,-6 -4,-15 -7,-23l-8 -24 -39 0zm212 55c0,-28 -7,-57 -48,-57 -19,0 -35,6 -42,10l6 25c8,-5 17,-8 28,-8 13,0 19,8 19,18l0 4c-31,0 -62,14 -62,50 0,24 15,41 36,41 12,0 22,-5 30,-15l1 0 1 13 33 0c-1,-9 -2,-20 -2,-31l0 -50zm-36 38c0,3 0,5 -1,7 -2,8 -9,12 -15,12 -5,0 -13,-5 -13,-19 0,-19 17,-23 29,-23l0 23zm62 -93l0 136 36 0 0 -54 28 0 0 54 37 0 0 -136 -37 0 0 52 -28 0 0 -52 -36 0zm126 0l0 136 37 0 0 -54 28 0 0 54 37 0 0 -136 -37 0 0 52 -28 0 0 -52 -37 0zm223 2c-9,-2 -23,-3 -38,-3 -19,0 -36,4 -46,10 -9,7 -15,16 -15,29 0,20 14,30 31,34l0 0c-7,2 -12,6 -16,10 -9,9 -13,27 -16,39 -2,6 -5,11 -7,15l38 0c1,-3 2,-6 4,-10 4,-16 7,-35 17,-41 2,-1 5,-2 10,-2l3 0 0 53 35 0 0 -134zm-35 59c-1,0 -2,0 -5,0 -13,0 -23,-9 -23,-21 0,-11 8,-18 21,-18 2,0 5,0 7,1l0 38zm57 75l33 0 1 -47c1,-13 1,-30 1,-58l1 0c3,14 8,41 11,56l11 47 29 0 11 -47c4,-21 9,-44 11,-56l1 0c0,29 1,45 1,57l2 48 34 0 -9 -136 -45 0 -10 43c-3,12 -4,23 -8,40l-1 0c-4,-17 -6,-28 -9,-40l-10 -43 -45 0 -10 136zm-965 183l0 136 36 0 0 -106 28 0 0 106 37 0 0 -136 -101 0zm174 -2c-27,0 -52,22 -52,71 0,44 19,69 52,69 20,0 51,-13 51,-70 0,-43 -19,-70 -51,-70zm0 28c12,0 15,23 15,42 0,20 -3,43 -15,43 -13,0 -16,-20 -16,-43 0,-19 2,-42 16,-42zm69 -26l0 52c0,26 12,43 38,43 10,0 20,-2 26,-6l0 0 0 49 37 0 0 -138 -37 0 0 65c-3,2 -7,4 -13,4 -11,0 -14,-7 -14,-19l0 -50 -37 0zm126 0l0 136 34 0c8,-16 18,-43 22,-52 5,-13 9,-24 13,-39l1 0c-1,19 -2,34 -2,61l0 30 33 0 0 -136 -35 0 -20 52c-5,11 -11,26 -15,40l-1 0c1,-14 3,-37 3,-62l0 -30 -33 0zm126 0l0 136 36 0 0 -53 29 0 0 53 36 0 0 -136 -36 0 0 52 -29 0 0 -52 -36 0zm218 55c0,-28 -6,-57 -48,-57 -19,0 -34,6 -42,10l7 25c8,-5 17,-8 27,-8 13,0 20,8 20,19l0 3c-31,0 -63,15 -63,50 0,24 16,41 36,41 12,0 23,-5 30,-15l1 0 2 13 32 0c-1,-9 -2,-20 -2,-31l0 -50zm-35 39c0,2 -1,4 -1,6 -3,8 -9,12 -15,12 -6,0 -13,-5 -13,-19 0,-18 17,-23 29,-23l0 24zm61 -94l0 136 36 0 0 -55 12 0c3,37 22,57 50,57 20,0 51,-13 51,-70 0,-43 -19,-70 -51,-70 -23,0 -44,17 -49,54l-13 0 0 -52 -36 0zm98 111c-12,0 -16,-20 -16,-43 0,-19 3,-42 16,-42 12,0 15,23 15,42 0,20 -3,43 -15,43zm59 -111l0 30 30 0 0 106 37 0 0 -106 30 0 0 -30 -97 0zm112 0l0 135c11,1 24,3 36,3 19,0 39,-3 53,-14 10,-7 17,-19 17,-35 0,-33 -26,-46 -56,-46 -4,0 -8,0 -14,1l0 -44 -36 0zm36 70c3,0 5,-1 8,-1 13,0 25,6 25,21 0,15 -12,21 -25,21 -3,0 -5,0 -8,0l0 -41zm-1046 250l0 135 37 0 0 -106 28 0 0 106 36 0 0 -135 -101 0zm127 189l36 0 0 -65 1 0c4,7 11,14 22,14 23,0 44,-22 44,-71 0,-37 -12,-70 -42,-70 -12,0 -23,7 -28,18l-1 0 -2 -15 -31 0c0,13 1,26 1,43l0 146zm36 -140c0,-3 0,-7 2,-9 1,-7 6,-12 12,-12 11,0 17,14 17,40 0,21 -5,40 -17,40 -5,0 -9,-2 -12,-11 -1,-2 -2,-7 -2,-11l0 -37zm180 5c0,-28 -7,-57 -48,-57 -20,0 -35,7 -43,11l7 24c8,-5 17,-8 28,-8 13,0 19,8 19,19l0 3c-31,0 -62,15 -62,51 0,23 15,41 35,41 12,0 23,-6 30,-16l1 0 2 13 33 0c-2,-9 -2,-20 -2,-31l0 -50zm-36 39c0,2 0,4 -1,6 -2,8 -9,12 -15,12 -6,0 -13,-5 -13,-18 0,-19 17,-23 29,-24l0 24zm61 -93l0 135 83 0 2 38 27 0 2 -64 -13 0 0 -109 -36 0 0 106 -28 0 0 -106 -37 0zm130 0l0 135 36 0 0 -55 12 0c3,37 22,58 50,58 20,0 51,-14 51,-71 0,-43 -19,-70 -51,-70 -22,0 -44,17 -49,54l-13 0 0 -51 -36 0zm98 110c-12,0 -16,-20 -16,-43 0,-19 3,-42 16,-42 12,0 15,23 15,42 0,20 -3,43 -15,43zm71 25c8,2 21,2 34,2 27,0 72,-5 72,-41 0,-17 -12,-30 -32,-33l0 -1c14,-3 26,-13 26,-31 0,-30 -36,-34 -60,-34 -14,0 -29,2 -40,3l0 135zm35 -113c3,-1 6,-1 10,-1 12,0 21,5 21,16 0,11 -10,17 -23,17l-8 0 0 -32zm0 55l9 0c14,0 26,6 26,18 0,14 -13,18 -26,18 -3,0 -6,0 -9,0l0 -36zm184 -23c0,-28 -7,-57 -48,-57 -19,0 -35,7 -43,11l7 24c8,-5 17,-8 28,-8 13,0 19,8 19,19l0 3c-31,0 -62,15 -62,51 0,23 15,41 36,41 12,0 22,-6 30,-16l0 0 2 13 33 0c-2,-9 -2,-20 -2,-31l0 -50zm-36 39c0,2 0,4 -1,6 -2,8 -9,12 -15,12 -5,0 -13,-5 -13,-18 0,-19 17,-23 29,-24l0 24zm49 -93l0 29 30 0 0 106 37 0 0 -106 30 0 0 -29 -97 0zm112 0l0 135 34 0c8,-16 19,-43 22,-52 6,-13 9,-24 14,-38l1 0c-2,18 -3,33 -3,61l0 29 33 0 0 -135 -34 0 -21 52c-4,10 -10,25 -15,40l-1 0c2,-14 3,-38 3,-63l0 -29 -33 0zm-796 319l0 136 37 0 0 -106 28 0 0 106 36 0 0 -136 -101 0zm113 0l38 126c1,1 1,3 1,5 0,2 -1,3 -2,5 -2,6 -6,12 -11,17 -6,5 -12,9 -18,11l11 31c5,-1 19,-7 31,-21 14,-17 23,-44 30,-69l28 -105 -36 0 -11 71c-1,8 -2,16 -4,22l0 0c-1,-7 -2,-14 -4,-22l-13 -71 -40 0zm121 0l0 136 36 0 0 -54 29 0 0 54 36 0 0 -136 -36 0 0 51 -29 0 0 -51 -36 0zm127 0l0 136 35 0 0 -56 3 0c9,0 14,9 17,23 3,13 6,25 10,33l36 0c-4,-10 -9,-29 -12,-39 -3,-17 -10,-34 -23,-39l34 -58 -37 0 -24 54 -4 0 0 -54 -35 0zm108 0l0 30 30 0 0 106 37 0 0 -106 30 0 0 -30 -97 0zm113 0l0 136 33 0c8,-17 19,-43 23,-53 5,-13 8,-24 13,-38l1 0c-1,18 -3,33 -3,61l0 30 33 0 0 -136 -34 0 -21 52c-4,11 -10,26 -15,40l-1 0c2,-14 3,-38 3,-63l0 -29 -32 0z"/>
   <path id="1" class="fil1" d="M89 55c7,-4 17,-8 26,-8 15,0 23,9 23,22 0,17 -16,25 -33,25l-4 0 0 28 6 0c19,0 37,8 37,29 0,15 -11,26 -30,26 -10,0 -21,-2 -29,-7l-5 30c8,4 22,8 38,8 33,0 63,-20 63,-56 0,-25 -15,-42 -37,-47l0 0c19,-5 32,-23 32,-43 0,-24 -17,-46 -52,-46 -18,0 -33,6 -41,11l6 28zm203 69c0,-27 -7,-56 -48,-56 -19,0 -35,6 -43,10l7 25c8,-5 17,-8 28,-8 13,0 19,7 19,18l0 3c-31,1 -62,15 -62,51 0,24 15,41 36,41 12,0 22,-5 30,-16l0 0 2 14 33 0c-2,-9 -2,-21 -2,-31l0 -51zm-36 39c0,3 0,5 -1,7 -2,8 -9,11 -15,11 -5,0 -13,-5 -13,-18 0,-19 17,-23 29,-23l0 23zm105 43c8,1 21,1 34,1 27,0 72,-5 72,-41 0,-16 -12,-29 -32,-32l0 -1c14,-4 26,-14 26,-31 0,-30 -36,-34 -60,-34 -14,0 -29,1 -40,3l0 135zm36 -114c2,0 5,-1 9,-1 12,0 21,6 21,16 0,11 -10,17 -22,17l-8 0 0 -32zm-1 55l9 0c14,0 26,6 26,19 0,13 -13,18 -26,18 -3,0 -6,-1 -9,-1l0 -36zm184 -23c0,-27 -7,-56 -48,-56 -19,0 -35,6 -42,10l6 25c9,-5 17,-8 28,-8 13,0 19,7 19,18l0 3c-31,1 -62,15 -62,51 0,24 15,41 36,41 12,0 23,-5 30,-16l1 0 2 14 32 0c-1,-9 -2,-21 -2,-31l0 -51zm-36 39c0,3 0,5 -1,7 -2,8 -8,11 -15,11 -5,0 -13,-5 -13,-18 0,-19 17,-23 29,-23l0 23zm62 -93l0 136 159 0 0 -136 -36 0 0 106 -26 0 0 -106 -36 0 0 106 -26 0 0 -106 -35 0zm184 0l0 136 34 0c8,-17 18,-43 22,-52 5,-14 9,-25 13,-39l1 0c-1,18 -2,34 -2,61l0 30 33 0 0 -136 -35 0 -20 52c-5,11 -11,26 -15,40l-1 0c1,-14 3,-38 3,-63l0 -29 -33 0zm122 136l33 0 1 -47c1,-14 1,-30 2,-58l0 0c3,14 8,40 11,55l11 47 29 0 11 -46c5,-21 9,-45 12,-56l0 0c1,28 1,44 2,57l1 48 34 0 -9 -136 -45 0 -10 43c-2,12 -4,23 -8,40l-1 0c-3,-18 -6,-28 -8,-40l-11 -43 -45 0 -10 136zm-893 183l0 136 36 0 0 -106 28 0 0 106 37 0 0 -136 -101 0zm126 189l36 0 0 -64 1 0c4,6 11,13 22,13 23,0 44,-22 44,-70 0,-38 -12,-70 -41,-70 -13,0 -23,7 -29,18l-1 0 -2 -16 -31 0c0,13 1,27 1,43l0 146zm36 -139c0,-3 1,-7 2,-10 1,-6 7,-11 12,-11 11,0 17,13 17,39 0,22 -4,40 -17,40 -4,0 -9,-2 -12,-10 -1,-3 -2,-7 -2,-11l0 -37zm136 -52c-27,0 -52,22 -52,70 0,45 19,70 51,70 21,0 52,-14 52,-70 0,-43 -19,-70 -51,-70zm0 27c12,0 15,24 15,43 0,20 -3,42 -15,42 -13,0 -16,-19 -16,-42 0,-19 2,-43 16,-43zm57 -25l30 68 -31 68 37 0 8 -26c2,-7 4,-13 6,-20l1 0c2,7 4,13 6,20l10 26 39 0 -31 -69 30 -67 -36 0 -8 24c-3,8 -4,16 -6,23l-1 0c-2,-6 -4,-15 -7,-23l-8 -24 -39 0zm212 55c0,-28 -7,-57 -48,-57 -19,0 -35,6 -42,10l6 25c8,-5 17,-8 28,-8 13,0 19,8 19,18l0 4c-31,0 -62,14 -62,50 0,24 15,41 36,41 12,0 22,-5 30,-15l1 0 1 13 33 0c-1,-9 -2,-20 -2,-31l0 -50zm-36 38c0,3 0,5 -1,7 -2,8 -9,12 -15,12 -5,0 -13,-5 -13,-19 0,-19 17,-23 29,-23l0 23zm62 -93l0 136 36 0 0 -54 28 0 0 54 37 0 0 -136 -37 0 0 52 -28 0 0 -52 -36 0zm126 0l0 136 37 0 0 -54 28 0 0 54 37 0 0 -136 -37 0 0 52 -28 0 0 -52 -37 0zm223 2c-9,-2 -23,-3 -38,-3 -19,0 -36,4 -46,10 -9,7 -15,16 -15,29 0,20 14,30 31,34l0 0c-7,2 -12,6 -16,10 -9,9 -13,27 -16,39 -2,6 -5,11 -7,15l38 0c1,-3 2,-6 4,-10 4,-16 7,-35 17,-41 2,-1 5,-2 10,-2l3 0 0 53 35 0 0 -134zm-35 59c-1,0 -2,0 -5,0 -13,0 -23,-9 -23,-21 0,-11 8,-18 21,-18 2,0 5,0 7,1l0 38zm57 75l33 0 1 -47c1,-13 1,-30 1,-58l1 0c3,14 8,41 11,56l11 47 29 0 11 -47c4,-21 9,-44 11,-56l1 0c0,29 1,45 1,57l2 48 34 0 -9 -136 -45 0 -10 43c-3,12 -4,23 -8,40l-1 0c-4,-17 -6,-28 -9,-40l-10 -43 -45 0 -10 136zm-965 183l0 136 36 0 0 -106 28 0 0 106 37 0 0 -136 -101 0zm174 -2c-27,0 -52,22 -52,71 0,44 19,69 52,69 20,0 51,-13 51,-70 0,-43 -19,-70 -51,-70zm0 28c12,0 15,23 15,42 0,20 -3,43 -15,43 -13,0 -16,-20 -16,-43 0,-19 2,-42 16,-42zm69 -26l0 52c0,26 12,43 38,43 10,0 20,-2 26,-6l0 0 0 49 37 0 0 -138 -37 0 0 65c-3,2 -7,4 -13,4 -11,0 -14,-7 -14,-19l0 -50 -37 0zm126 0l0 136 34 0c8,-16 18,-43 22,-52 5,-13 9,-24 13,-39l1 0c-1,19 -2,34 -2,61l0 30 33 0 0 -136 -35 0 -20 52c-5,11 -11,26 -15,40l-1 0c1,-14 3,-37 3,-62l0 -30 -33 0zm126 0l0 136 36 0 0 -53 29 0 0 53 36 0 0 -136 -36 0 0 52 -29 0 0 -52 -36 0zm218 55c0,-28 -6,-57 -48,-57 -19,0 -34,6 -42,10l7 25c8,-5 17,-8 27,-8 13,0 20,8 20,19l0 3c-31,0 -63,15 -63,50 0,24 16,41 36,41 12,0 23,-5 30,-15l1 0 2 13 32 0c-1,-9 -2,-20 -2,-31l0 -50zm-35 39c0,2 -1,4 -1,6 -3,8 -9,12 -15,12 -6,0 -13,-5 -13,-19 0,-18 17,-23 29,-23l0 24zm61 -94l0 136 36 0 0 -55 12 0c3,37 22,57 50,57 20,0 51,-13 51,-70 0,-43 -19,-70 -51,-70 -23,0 -44,17 -49,54l-13 0 0 -52 -36 0zm98 111c-12,0 -16,-20 -16,-43 0,-19 3,-42 16,-42 12,0 15,23 15,42 0,20 -3,43 -15,43zm59 -111l0 30 30 0 0 106 37 0 0 -106 30 0 0 -30 -97 0zm112 0l0 135c11,1 24,3 36,3 19,0 39,-3 53,-14 10,-7 17,-19 17,-35 0,-33 -26,-46 -56,-46 -4,0 -8,0 -14,1l0 -44 -36 0zm36 70c3,0 5,-1 8,-1 13,0 25,6 25,21 0,15 -12,21 -25,21 -3,0 -5,0 -8,0l0 -41zm-1046 250l0 135 37 0 0 -106 28 0 0 106 36 0 0 -135 -101 0zm127 189l36 0 0 -65 1 0c4,7 11,14 22,14 23,0 44,-22 44,-71 0,-37 -12,-70 -42,-70 -12,0 -23,7 -28,18l-1 0 -2 -15 -31 0c0,13 1,26 1,43l0 146zm36 -140c0,-3 0,-7 2,-9 1,-7 6,-12 12,-12 11,0 17,14 17,40 0,21 -5,40 -17,40 -5,0 -9,-2 -12,-11 -1,-2 -2,-7 -2,-11l0 -37zm180 5c0,-28 -7,-57 -48,-57 -20,0 -35,7 -43,11l7 24c8,-5 17,-8 28,-8 13,0 19,8 19,19l0 3c-31,0 -62,15 -62,51 0,23 15,41 35,41 12,0 23,-6 30,-16l1 0 2 13 33 0c-2,-9 -2,-20 -2,-31l0 -50zm-36 39c0,2 0,4 -1,6 -2,8 -9,12 -15,12 -6,0 -13,-5 -13,-18 0,-19 17,-23 29,-24l0 24zm61 -93l0 135 83 0 2 38 27 0 2 -64 -13 0 0 -109 -36 0 0 106 -28 0 0 -106 -37 0zm130 0l0 135 36 0 0 -55 12 0c3,37 22,58 50,58 20,0 51,-14 51,-71 0,-43 -19,-70 -51,-70 -22,0 -44,17 -49,54l-13 0 0 -51 -36 0zm98 110c-12,0 -16,-20 -16,-43 0,-19 3,-42 16,-42 12,0 15,23 15,42 0,20 -3,43 -15,43zm71 25c8,2 21,2 34,2 27,0 72,-5 72,-41 0,-17 -12,-30 -32,-33l0 -1c14,-3 26,-13 26,-31 0,-30 -36,-34 -60,-34 -14,0 -29,2 -40,3l0 135zm35 -113c3,-1 6,-1 10,-1 12,0 21,5 21,16 0,11 -10,17 -23,17l-8 0 0 -32zm0 55l9 0c14,0 26,6 26,18 0,14 -13,18 -26,18 -3,0 -6,0 -9,0l0 -36zm184 -23c0,-28 -7,-57 -48,-57 -19,0 -35,7 -43,11l7 24c8,-5 17,-8 28,-8 13,0 19,8 19,19l0 3c-31,0 -62,15 -62,51 0,23 15,41 36,41 12,0 22,-6 30,-16l0 0 2 13 33 0c-2,-9 -2,-20 -2,-31l0 -50zm-36 39c0,2 0,4 -1,6 -2,8 -9,12 -15,12 -5,0 -13,-5 -13,-18 0,-19 17,-23 29,-24l0 24zm49 -93l0 29 30 0 0 106 37 0 0 -106 30 0 0 -29 -97 0zm112 0l0 135 34 0c8,-16 19,-43 22,-52 6,-13 9,-24 14,-38l1 0c-2,18 -3,33 -3,61l0 29 33 0 0 -135 -34 0 -21 52c-4,10 -10,25 -15,40l-1 0c2,-14 3,-38 3,-63l0 -29 -33 0zm-796 319l0 136 37 0 0 -106 28 0 0 106 36 0 0 -136 -101 0zm113 0l38 126c1,1 1,3 1,5 0,2 -1,3 -2,5 -2,6 -6,12 -11,17 -6,5 -12,9 -18,11l11 31c5,-1 19,-7 31,-21 14,-17 23,-44 30,-69l28 -105 -36 0 -11 71c-1,8 -2,16 -4,22l0 0c-1,-7 -2,-14 -4,-22l-13 -71 -40 0zm121 0l0 136 36 0 0 -54 29 0 0 54 36 0 0 -136 -36 0 0 51 -29 0 0 -51 -36 0zm127 0l0 136 35 0 0 -56 3 0c9,0 14,9 17,23 3,13 6,25 10,33l36 0c-4,-10 -9,-29 -12,-39 -3,-17 -10,-34 -23,-39l34 -58 -37 0 -24 54 -4 0 0 -54 -35 0zm108 0l0 30 30 0 0 106 37 0 0 -106 30 0 0 -30 -97 0zm113 0l0 136 33 0c8,-17 19,-43 23,-53 5,-13 8,-24 13,-38l1 0c-1,18 -3,33 -3,61l0 30 33 0 0 -136 -34 0 -21 52c-4,11 -10,26 -15,40l-1 0c2,-14 3,-38 3,-63l0 -29 -32 0z"/>
  </g>
 </g>
</svg>
