<?xml version="1.0" encoding="UTF-8"?>
<!DOCTYPE svg PUBLIC "-//W3C//DTD SVG 1.1//EN" "http://www.w3.org/Graphics/SVG/1.1/DTD/svg11.dtd">
<!-- Creator: CorelDRAW X7 -->
<svg xmlns="http://www.w3.org/2000/svg" xml:space="preserve" width="34.6585mm" height="32.8262mm" version="1.1" style="shape-rendering:geometricPrecision; text-rendering:geometricPrecision; image-rendering:optimizeQuality; fill-rule:evenodd; clip-rule:evenodd"
viewBox="0 0 617 584"
 xmlns:xlink="http://www.w3.org/1999/xlink">
 <defs>
  <style type="text/css">
   <![CDATA[
    .fil0 {fill:#E31E24;fill-rule:nonzero}
    .fil1 {fill:#005487;fill-rule:nonzero}
   ]]>
  </style>
 </defs>
 <g id="Слой_x0020_1">
  <metadata id="CorelCorpID_0Corel-Layer"/>
  <g id="_666767104">
   <path class="fil0" d="M70 0l15 44c1,2 1,3 0,4 -1,3 -3,7 -7,7 -1,0 -2,-1 -3,-1l0 10c1,1 3,1 5,1 5,0 10,-3 13,-8 3,-6 5,-14 8,-22l9 -35 -13 0 -4 24c0,4 -1,8 -1,11l-1 0c0,-3 -1,-7 -2,-10l-5 -25 -14 0zm99 64l11 0 -4 -64 -13 0 -5 23c-2,8 -3,15 -4,22l0 0c-1,-7 -3,-14 -5,-22l-5 -23 -13 0 -4 64 10 0 1 -22c1,-7 1,-15 1,-21l0 0c2,6 3,14 4,19l6 23 8 0 6 -23c1,-5 3,-13 4,-19l0 0c0,6 0,15 1,21l1 22zm26 1c5,0 8,-4 8,-9 0,-5 -4,-8 -8,-8 -4,0 -7,4 -7,8 0,5 3,9 7,9zm16 -65l0 23c0,11 3,18 14,18 4,0 7,-1 9,-2l1 0 0 26 12 0 0 -65 -12 0 0 29c-1,1 -4,2 -5,2 -5,0 -7,-4 -7,-9l0 -22 -12 0zm74 26l-15 0 0 -15 15 0 0 -11 -27 0 0 64 28 0 0 -11 -16 0 0 -17 15 0 0 -10zm10 38l12 0 0 -24c1,0 2,0 3,0 5,0 11,-2 15,-6 3,-3 6,-8 6,-15 0,-6 -2,-11 -6,-14 -4,-4 -10,-5 -17,-5 -5,0 -10,0 -13,1l0 63zm12 -54c1,0 2,0 3,0 6,0 8,4 8,10 0,6 -2,10 -9,10 0,0 -1,0 -2,0l0 -20zm31 -10l0 64 12 0 0 -27 13 0 0 27 13 0 0 -64 -13 0 0 26 -13 0 0 -26 -12 0zm48 0l0 64 13 0 0 -64 -13 0zm24 63c3,1 7,1 11,1 11,0 17,-2 21,-6 3,-3 5,-7 5,-13 0,-7 -4,-13 -11,-15l0 0c6,-3 9,-8 9,-14 0,-4 -2,-9 -5,-11 -4,-4 -10,-5 -16,-5 -5,0 -10,0 -14,1l0 62zm12 -53c1,-1 2,-1 3,-1 5,0 8,4 8,8 0,6 -4,9 -8,9l-3 0 0 -16zm0 26l3 0c5,0 9,3 9,9 0,7 -4,10 -9,10 -1,0 -2,0 -3,0l0 -19zm33 -36l0 64 32 0 1 14 9 0 0 -24 -4 -1 0 -53 -13 0 0 53 -12 0 0 -53 -13 0zm49 0l0 64 13 0 0 -64 -13 0zm30 34c4,0 7,-4 7,-8 0,-5 -3,-8 -7,-8 -4,0 -7,3 -7,8 0,4 3,8 7,8zm0 31c4,0 7,-4 7,-8 0,-5 -3,-8 -7,-8 -4,0 -7,3 -7,8 0,4 3,8 7,8zm-423 381l0 51 10 0 0 -42 13 0 0 -9 -23 0zm22 66l10 0 0 -18 0 0c1,2 4,4 7,4 6,0 12,-6 12,-19 0,-11 -4,-19 -12,-19 -3,0 -6,1 -8,4l0 0 0 -4 -9 0c0,4 0,7 0,12l0 40zm10 -38c0,-1 0,-2 1,-3 0,-2 2,-3 3,-3 3,0 5,4 5,11 0,6 -2,11 -5,11 -1,0 -2,-1 -3,-3 -1,-1 -1,-2 -1,-3l0 -10zm49 1c0,-8 -2,-15 -13,-15 -5,0 -9,1 -12,2l2 7c3,-1 5,-2 8,-2 3,0 5,2 5,5l0 1c-8,0 -17,4 -17,14 0,6 4,11 10,11 3,0 6,-2 8,-5l0 0 1 4 9 0c-1,-2 -1,-5 -1,-8l0 -14zm-10 11c0,0 0,1 0,1 -1,2 -2,3 -4,3 -2,0 -4,-1 -4,-5 0,-5 5,-6 8,-6l0 7zm30 -39l0 13c-9,1 -14,8 -14,19 0,11 4,18 14,19l0 14 9 0 0 -14c10,-1 14,-8 14,-19 0,-11 -5,-18 -14,-20l0 -12 -9 0zm0 45c-4,-2 -6,-8 -6,-13 0,-5 1,-12 6,-14l0 27zm9 -26c4,2 5,8 5,13 0,5 -1,11 -5,13l0 -26zm30 31l0 -37 -10 0 0 37 10 0zm-5 -52c-3,0 -5,2 -5,6 0,3 2,5 5,5 3,0 5,-2 5,-5 0,-4 -2,-6 -5,-6zm12 15l0 37 9 0 0 -15 1 0c2,0 4,2 5,6 1,4 1,7 3,9l9 0c-1,-2 -2,-8 -3,-10 -1,-5 -3,-10 -6,-11l9 -16 -10 0 -7 15 -1 0 0 -15 -9 0zm43 52l10 0 0 -18 0 0c1,2 3,4 6,4 6,0 12,-6 12,-19 0,-11 -3,-19 -11,-19 -4,0 -7,1 -8,4l0 0 -1 -4 -8 0c0,4 0,7 0,12l0 40zm10 -38c0,-1 0,-2 0,-3 1,-2 2,-3 3,-3 3,0 5,4 5,11 0,6 -1,11 -5,11 -1,0 -2,-1 -3,-3 0,-1 0,-2 0,-3l0 -10zm37 -14c-8,0 -15,6 -15,19 0,12 6,19 14,19 6,0 15,-4 15,-19 0,-12 -6,-19 -14,-19zm-1 7c4,0 5,7 5,12 0,5 -1,11 -4,11 -4,0 -5,-5 -5,-11 0,-5 1,-12 4,-12zm46 -23c-2,1 -7,2 -9,2 -7,1 -11,5 -14,9 -3,5 -4,12 -4,20 0,10 3,23 15,23 10,0 15,-9 15,-20 0,-12 -5,-18 -12,-18 -5,0 -8,3 -9,6l-1 0c1,-2 1,-5 2,-6 2,-3 4,-5 10,-6 2,0 5,-1 6,-1l1 -9zm-7 35c0,3 -1,11 -5,11 -4,0 -5,-8 -5,-12 0,-2 0,-4 1,-6 0,-2 2,-4 4,-4 4,0 5,7 5,11zm28 -19c-7,0 -14,6 -14,19 0,12 5,19 14,19 6,0 14,-4 14,-19 0,-12 -5,-19 -14,-19zm0 7c3,0 4,7 4,12 0,5 -1,11 -4,11 -3,0 -4,-5 -4,-11 0,-5 0,-12 4,-12zm16 -7l0 8 9 0 0 29 9 0 0 -29 9 0 0 -8 -27 0zm31 0l0 37 9 0c2,-4 5,-12 6,-14 1,-4 2,-7 4,-11l0 0c0,5 -1,10 -1,17l0 8 9 0 0 -37 -9 0 -6 14c-1,3 -3,7 -4,11l0 0c0,-4 1,-10 1,-17l0 -8 -9 0zm40 13c3,0 6,-3 6,-6 0,-4 -3,-7 -6,-7 -3,0 -6,3 -6,7 0,3 3,6 6,6zm0 25c3,0 6,-3 6,-7 0,-3 -3,-6 -6,-6 -3,0 -6,3 -6,6 0,4 3,7 6,7zm-345 60c-4,3 -7,7 -7,13 0,8 5,13 14,13 8,0 15,-5 15,-14 0,-6 -4,-10 -8,-13l0 0c5,-3 6,-8 6,-11 0,-7 -5,-12 -12,-12 -8,0 -14,5 -14,13 0,4 2,8 6,11l0 0zm7 20c-3,0 -5,-4 -5,-8 0,-4 2,-7 4,-9 3,2 6,5 6,9 0,5 -2,8 -5,8zm0 -37c3,0 4,3 4,6 0,3 -1,6 -3,7 -3,-1 -5,-4 -5,-7 0,-3 1,-6 4,-6zm25 19c4,0 6,-3 6,-7 0,-3 -2,-6 -5,-6 -3,0 -6,3 -6,6 0,4 2,7 5,7zm0 24c4,0 6,-2 6,-6 0,-4 -2,-6 -5,-6 -3,0 -6,3 -6,6 0,4 2,6 5,6zm25 -50c-10,0 -15,11 -15,25 0,13 4,25 15,25 8,0 14,-7 14,-25 0,-12 -2,-25 -14,-25zm0 9c3,0 4,6 4,16 0,12 -1,17 -4,17 -3,0 -5,-5 -5,-17 0,-11 2,-16 5,-16zm32 -9c-10,0 -14,11 -14,25 0,13 3,25 14,25 8,0 14,-7 14,-25 0,-12 -2,-25 -14,-25zm0 9c3,0 4,6 4,16 0,12 -1,17 -4,17 -3,0 -5,-5 -5,-17 0,-11 2,-16 5,-16zm30 18l0 6 33 0 0 -6 -33 0zm61 23l10 0 0 -49 -9 0 -11 6 2 7 8 -4 0 0 0 40zm45 0l0 -12 5 0 0 -8 -5 0 0 -29 -9 0 -17 30 0 7 17 0 0 12 9 0zm-17 -20l0 0 5 -10c1,-3 2,-5 4,-8l0 0c0,3 -1,6 -1,8l0 10 -8 0zm32 -4c4,0 6,-3 6,-7 0,-3 -3,-6 -6,-6 -3,0 -5,3 -5,6 0,4 2,7 5,7zm0 24c4,0 6,-2 6,-6 0,-4 -3,-6 -6,-6 -3,0 -5,3 -5,6 0,4 2,6 5,6zm25 -50c-10,0 -15,11 -15,25 0,13 4,25 14,25 8,0 15,-7 15,-25 0,-12 -3,-25 -14,-25zm0 9c3,0 4,6 4,16 0,12 -1,17 -4,17 -4,0 -5,-5 -5,-17 0,-11 2,-16 5,-16zm32 -9c-10,0 -15,11 -15,25 0,13 4,25 14,25 8,0 15,-7 15,-25 0,-12 -3,-25 -14,-25zm0 9c3,0 4,6 4,16 0,12 -1,17 -4,17 -4,0 -5,-5 -5,-17 0,-11 2,-16 5,-16z"/>
   <path class="fil1" d="M65 150c2,1 5,1 9,1 8,0 13,-2 16,-5 3,-3 4,-6 4,-10 0,-6 -3,-11 -9,-12l0 -1c5,-2 7,-6 7,-11 0,-3 -1,-7 -3,-9 -4,-3 -9,-4 -13,-4 -4,0 -8,1 -11,1l0 50zm9 -43c1,0 2,0 3,0 4,0 6,3 6,6 0,5 -3,8 -7,8l-2 0 0 -14zm0 21l2 0c4,0 8,2 8,8 0,5 -3,7 -7,7 -1,0 -2,0 -3,0l0 -15zm23 -14l10 34c0,0 0,1 0,1 0,1 0,1 -1,2 0,1 -1,3 -3,4 -1,1 -3,3 -5,3l4 9c1,-1 5,-2 8,-6 4,-5 6,-12 8,-19l8 -28 -10 0 -3 19c0,2 -1,4 -1,6l0 0c0,-2 -1,-4 -1,-6l-4 -19 -10 0zm33 0l0 16c0,4 0,8 -1,11 -1,1 -2,2 -4,2l2 8c2,0 3,0 5,-1 7,-3 8,-11 8,-21l0 -7 5 0 0 28 10 0 0 -36 -25 0zm38 37c3,0 6,-3 6,-7 0,-4 -3,-6 -6,-6 -3,0 -6,3 -6,6 0,4 3,7 6,7zm24 -1l10 0 0 -18c1,0 1,0 2,0 4,0 9,-2 13,-5 2,-3 4,-7 4,-13 0,-4 -2,-8 -5,-11 -3,-3 -7,-4 -13,-4 -4,0 -8,1 -11,1l0 50zm10 -42c1,0 2,-1 3,-1 4,0 6,4 6,8 0,5 -2,9 -7,9 -1,0 -1,0 -2,0l0 -16zm21 6l11 34c0,0 0,1 0,1 0,1 0,1 -1,2 0,1 -1,3 -3,4 -1,1 -3,3 -5,3l3 9c2,-1 6,-2 9,-6 4,-5 6,-12 8,-19l7 -28 -9 0 -3 19c-1,2 -1,4 -1,6l0 0c-1,-2 -1,-4 -1,-6l-4 -19 -11 0zm52 28c-1,1 -2,1 -4,1 -4,0 -7,-4 -7,-11 0,-6 3,-11 7,-11 2,0 3,1 4,1l1 -8c-1,0 -3,-1 -5,-1 -10,0 -17,8 -17,19 0,12 6,19 15,19 3,0 6,-1 7,-1l-1 -8zm5 -28l0 36c2,1 6,1 9,1 5,0 11,-1 15,-4 2,-2 4,-5 4,-9 0,-9 -7,-13 -15,-13 -1,0 -2,0 -4,0l0 -11 -9 0zm9 18c1,0 2,0 2,0 4,0 7,2 7,6 0,4 -3,6 -7,6 0,0 -1,0 -2,0l0 -12zm25 -18l0 36 9 0 0 -15 1 0c2,0 4,3 5,6 1,4 1,7 3,9l9 0c-1,-2 -2,-7 -3,-10 -1,-5 -3,-9 -6,-11l9 -15 -10 0 -7 14 -1 0 0 -14 -9 0zm57 14c0,-7 -2,-15 -13,-15 -5,0 -10,2 -12,3l2 6c2,-1 5,-2 8,-2 3,0 5,2 5,5l0 1c-9,0 -17,4 -17,14 0,6 4,11 10,11 3,0 6,-1 8,-4l0 0 0 3 9 0c0,-2 0,-5 0,-8l0 -14zm-10 11c0,1 0,1 0,2 -1,2 -3,3 -4,3 -2,0 -4,-2 -4,-5 0,-5 5,-6 8,-6l0 6zm20 20c4,-5 7,-13 9,-20l-10 1c-1,6 -3,14 -5,20l6 -1zm36 -9l10 0 0 -49 -9 0 -11 6 2 8 8 -4 0 0 0 39zm24 1c2,0 3,0 5,0 5,-1 9,-3 12,-6 5,-5 8,-13 8,-24 0,-12 -5,-20 -14,-20 -9,0 -14,9 -14,17 0,9 5,15 11,15 3,0 6,-2 7,-3l0 0c0,4 -2,7 -4,10 -2,1 -4,2 -6,2 -2,1 -3,1 -5,1l0 8zm11 -43c2,0 4,4 4,10 0,3 0,4 0,5 -1,2 -2,3 -4,3 -3,0 -5,-4 -5,-9 0,-6 2,-9 5,-9zm42 42l0 -11 5 0 0 -8 -5 0 0 -30 -9 0 -16 31 0 7 17 0 0 11 8 0zm-17 -19l0 0 5 -11c2,-2 3,-5 4,-7l0 0c0,2 0,5 0,8l0 10 -9 0zm25 -5l0 7 15 0 0 -7 -15 0zm22 -26l0 50c2,1 5,1 9,1 7,0 13,-2 16,-6 3,-2 5,-6 5,-11 0,-5 -2,-9 -5,-12 -3,-2 -7,-4 -11,-4 -2,0 -3,0 -4,1l0 -11 16 0 0 -8 -26 0zm10 27c1,-1 1,-1 2,-1 2,0 4,1 5,3 2,1 2,3 2,6 0,2 0,4 -2,5 -1,2 -3,3 -5,3 -1,0 -1,0 -2,0l0 -16zm-500 110c2,0 5,0 9,0 8,0 13,-1 17,-5 2,-2 3,-5 3,-10 0,-5 -3,-10 -9,-12l0 0c5,-2 8,-7 8,-11 0,-4 -2,-7 -4,-9 -4,-3 -8,-4 -13,-4 -4,0 -8,0 -11,1l0 50zm10 -43c0,0 1,-1 2,-1 4,0 6,3 6,7 0,4 -3,7 -6,7l-2 0 0 -13zm0 20l2 0c4,0 7,3 7,8 0,5 -3,8 -7,8 -1,0 -2,0 -2,0l0 -16zm22 -14l10 34c0,1 0,1 0,2 0,0 0,1 0,1 -1,2 -2,3 -3,5 -2,1 -4,2 -5,3l3 8c1,0 5,-2 8,-5 4,-5 6,-12 8,-19l8 -29 -10 0 -3 20c0,2 -1,4 -1,6l0 0c0,-2 -1,-4 -1,-7l-4 -19 -10 0zm34 0l0 16c0,5 -1,9 -2,11 -1,2 -2,3 -3,3l1 8c2,0 4,-1 5,-1 7,-3 8,-11 8,-21l0 -8 5 0 0 29 10 0 0 -37 -24 0zm37 38c3,0 6,-3 6,-7 0,-4 -3,-6 -6,-6 -3,0 -6,2 -6,6 0,4 3,7 6,7zm24 -52l0 51 10 0 0 -42 14 0 0 -9 -24 0zm48 36c0,-1 0,-2 0,-5 0,-11 -5,-17 -13,-17 -8,0 -14,7 -14,19 0,12 5,19 15,19 4,0 8,-1 10,-2l-1 -7c-2,0 -4,1 -7,1 -4,0 -8,-2 -8,-8l18 0zm-18 -7c0,-3 2,-8 5,-8 3,0 4,4 4,8l-9 0zm23 37l10 0 0 -18 0 0c2,2 4,4 7,4 6,0 12,-6 12,-19 0,-11 -4,-19 -12,-19 -3,0 -6,1 -8,4l0 0 0 -4 -9 0c0,4 0,7 0,12l0 40zm10 -38c0,-1 0,-2 1,-3 0,-2 2,-3 3,-3 3,0 5,4 5,11 0,6 -2,11 -5,11 -1,0 -2,-1 -3,-3 -1,-1 -1,-2 -1,-3l0 -10zm37 -14c-7,0 -14,6 -14,19 0,12 5,19 14,19 6,0 14,-4 14,-19 0,-12 -5,-19 -14,-19zm0 7c3,0 4,7 4,12 0,5 -1,11 -4,11 -3,0 -4,-5 -4,-11 0,-5 0,-12 4,-12zm30 30l0 -37 -10 0 0 37 10 0zm-12 -42c3,0 4,-2 4,-5 0,-3 -1,-5 -4,-5 -2,0 -5,2 -5,5 0,3 2,5 5,5zm13 0c3,0 5,-2 5,-5 0,-3 -2,-5 -5,-5 -2,0 -4,2 -4,5 0,3 2,5 4,5zm5 42c3,0 6,1 10,1 7,0 19,-2 19,-12 0,-4 -3,-8 -9,-8l0 -1c4,-1 7,-3 7,-8 0,-8 -9,-9 -16,-9 -4,0 -8,0 -11,0l0 37zm10 -31c1,0 1,0 2,0 4,0 6,1 6,4 0,3 -3,5 -6,5l-2 0 0 -9zm0 15l2 0c4,0 7,2 7,5 0,4 -3,5 -7,5 0,0 -1,0 -2,0l0 -10zm69 16l9 0 -3 -51 -10 0 -4 19c-2,6 -3,12 -4,17l0 0c-1,-5 -2,-11 -3,-17l-4 -19 -11 0 -3 51 8 0 1 -18c0,-5 1,-11 1,-16l0 0c1,5 2,11 3,15l4 18 7 0 5 -18c1,-4 2,-10 3,-15l0 0c0,5 0,11 0,16l1 18zm41 -22c0,-8 -2,-15 -13,-15 -6,0 -10,1 -12,2l2 7c2,-1 4,-2 7,-2 4,0 6,2 6,5l0 1c-9,0 -17,4 -17,14 0,6 4,11 9,11 4,0 7,-2 9,-5l0 0 0 4 9 0c0,-2 0,-5 0,-8l0 -14zm-10 11c0,0 0,1 0,1 -1,2 -3,3 -4,3 -2,0 -4,-1 -4,-5 0,-5 5,-6 8,-6l0 7zm17 -26l0 37 9 0c2,-4 5,-12 6,-14 1,-4 2,-7 3,-11l1 0c-1,5 -1,10 -1,17l0 8 9 0 0 -37 -9 0 -6 14c-1,3 -3,7 -4,11l0 0c0,-4 0,-10 0,-17l0 -8 -8 0zm4 -14c0,6 3,9 9,9 6,0 9,-3 10,-9l-6 0c0,3 -1,5 -4,5 -2,0 -3,-2 -3,-5l-6 0zm34 14l0 10c0,4 -1,9 -1,12 -1,3 -2,6 -3,8l-3 0 0 17 8 0 0 -10 18 0 1 10 7 0 0 -17 -3 0 0 -30 -24 0zm8 8l6 0 0 22 -9 0c1,-3 2,-5 3,-8 0,-4 0,-7 0,-11l0 -3zm49 7c0,-8 -1,-15 -13,-15 -5,0 -9,1 -11,2l2 7c2,-1 4,-2 7,-2 4,0 5,2 5,5l0 1c-8,0 -17,4 -17,14 0,6 5,11 10,11 3,0 6,-2 8,-5l1 0 0 4 9 0c0,-2 -1,-5 -1,-8l0 -14zm-9 11c0,0 0,1 -1,1 0,2 -2,3 -4,3 -1,0 -3,-1 -3,-5 0,-5 4,-6 8,-6l0 7zm16 -26l0 37 10 0 0 -14 8 0 0 14 10 0 0 -37 -10 0 0 14 -8 0 0 -14 -10 0zm31 0l10 34c0,1 1,1 1,2 0,0 -1,1 -1,1 -1,2 -2,3 -3,5 -2,1 -3,2 -5,3l3 8c2,0 5,-2 8,-5 4,-5 7,-12 9,-19l7 -29 -10 0 -3 20c0,2 0,4 0,6l-1 0c0,-2 0,-4 -1,-7l-3 -19 -11 0zm-463 124c2,0 5,0 9,0 9,0 14,-2 17,-5 2,-2 3,-6 3,-10 0,-6 -3,-10 -8,-12l0 0c4,-3 7,-7 7,-11 0,-4 -1,-7 -4,-10 -4,-3 -8,-3 -13,-3 -4,0 -8,0 -11,1l0 50zm10 -44c0,0 1,0 2,0 4,0 6,3 6,7 0,4 -3,7 -6,7l-2 0 0 -14zm0 21l2 0c4,0 7,3 7,8 0,5 -3,8 -7,8 -1,0 -2,0 -2,-1l0 -15zm22 -14l10 34c0,1 0,1 0,1 0,1 0,1 0,2 -1,2 -2,3 -3,4 -2,2 -3,3 -5,3l3 9c1,0 5,-2 8,-6 4,-5 7,-12 8,-19l8 -28 -10 0 -3 19c0,2 0,4 -1,6l0 0c0,-2 0,-4 -1,-6l-3 -19 -11 0zm34 0l0 16c0,4 -1,9 -2,11 -1,1 -1,2 -3,3l1 8c2,0 4,-1 5,-2 7,-3 8,-10 8,-20l0 -8 5 0 0 29 10 0 0 -37 -24 0zm37 37c4,0 6,-2 6,-6 0,-4 -3,-7 -6,-7 -3,0 -6,3 -6,7 0,4 3,6 6,6zm25 -51l0 51 10 0 0 -42 13 0 0 -9 -23 0zm47 36c0,-1 0,-3 0,-5 0,-12 -4,-18 -12,-18 -9,0 -15,8 -15,20 0,12 5,18 15,18 4,0 8,0 10,-1l-1 -8c-2,1 -4,2 -7,2 -4,0 -7,-2 -8,-8l18 0zm-18 -7c1,-4 2,-9 5,-9 3,0 4,4 4,9l-9 0zm24 36l10 0 0 -17 0 0c1,1 3,3 6,3 6,0 12,-6 12,-19 0,-10 -4,-19 -12,-19 -3,0 -6,2 -7,5l-1 0 0 -4 -9 0c1,3 1,7 1,12l0 39zm10 -38c0,0 0,-1 0,-2 0,-2 2,-3 3,-3 3,0 5,3 5,10 0,6 -1,11 -5,11 -1,0 -2,0 -3,-3 0,0 0,-1 0,-3l0 -10zm36 -14c-7,0 -14,6 -14,19 0,12 5,19 14,19 6,0 14,-3 14,-19 0,-11 -5,-19 -14,-19zm0 8c4,0 5,6 5,11 0,6 -1,12 -5,12 -3,0 -4,-5 -4,-12 0,-5 1,-11 4,-11zm30 30l0 -37 -10 0 0 37 10 0zm-12 -42c3,0 5,-2 5,-5 0,-3 -2,-5 -5,-5 -2,0 -4,2 -4,5 0,3 2,5 4,5zm13 0c3,0 5,-2 5,-5 0,-3 -2,-5 -4,-5 -3,0 -5,2 -5,5 0,3 2,5 4,5zm6 42c2,0 5,0 9,0 7,0 19,-1 19,-11 0,-4 -3,-8 -8,-9l0 0c3,-1 7,-4 7,-8 0,-9 -10,-10 -17,-10 -3,0 -7,1 -10,1l0 37zm9 -31c1,0 2,0 3,0 3,0 5,1 5,4 0,3 -2,5 -6,5l-2 0 0 -9zm0 15l2 0c4,0 7,2 7,5 0,4 -3,5 -6,5 -1,0 -2,0 -3,0l0 -10zm38 -35l0 51 9 0 0 -22 1 0c4,0 5,4 7,10 1,4 1,8 2,12l10 0c-1,-5 -2,-10 -3,-15 -2,-6 -3,-11 -8,-13l11 -23 -11 0 -8 22 -1 0 0 -22 -9 0zm33 65l10 0 0 -17 0 0c1,1 3,3 6,3 6,0 12,-6 12,-19 0,-10 -3,-19 -11,-19 -4,0 -7,2 -8,5l0 0 -1 -4 -8 0c0,3 0,7 0,12l0 39zm10 -38c0,0 0,-1 0,-2 1,-2 2,-3 4,-3 2,0 4,3 4,10 0,6 -1,11 -5,11 -1,0 -2,0 -3,-3 0,0 0,-1 0,-3l0 -10zm20 -13l10 34c0,1 0,1 0,1 0,1 0,1 -1,2 0,2 -1,3 -3,4 -1,2 -3,3 -5,3l3 9c2,0 6,-2 9,-6 4,-5 6,-12 8,-19l8 -28 -10 0 -3 19c0,2 -1,4 -1,6l0 0c0,-2 -1,-4 -1,-6l-4 -19 -10 0zm31 0l0 8 8 0 0 29 10 0 0 -29 8 0 0 -8 -26 0zm-499 123c2,1 5,1 9,1 9,0 14,-2 17,-5 2,-3 4,-6 4,-10 0,-6 -3,-11 -9,-12l0 -1c5,-2 7,-6 7,-11 0,-3 -1,-7 -4,-9 -3,-3 -8,-4 -13,-4 -4,0 -8,1 -11,1l0 50zm10 -43c0,0 1,0 3,0 4,0 5,3 5,6 0,5 -2,8 -6,8l-2 0 0 -14zm0 21l2 0c4,0 7,2 7,8 0,5 -3,7 -7,7 -1,0 -2,0 -2,0l0 -15zm22 -14l10 34c0,0 1,1 1,1 0,1 -1,1 -1,2 -1,1 -2,3 -3,4 -2,1 -3,3 -5,3l3 9c2,-1 5,-2 8,-6 4,-5 7,-12 9,-19l7 -28 -10 0 -3 19c0,2 0,4 -1,6l0 0c0,-2 0,-4 -1,-6l-3 -19 -11 0zm34 0l0 16c0,4 0,8 -2,11 0,1 -1,2 -3,2l1 8c2,0 4,0 6,-1 6,-3 7,-11 7,-21l0 -7 6 0 0 28 9 0 0 -36 -24 0zm37 37c4,0 6,-3 6,-7 0,-4 -3,-6 -6,-6 -3,0 -5,3 -5,6 0,4 2,7 5,7zm24 -51l0 18c0,8 4,14 12,14 3,0 5,0 8,-2l0 0 0 21 10 0 0 -51 -10 0 0 23c-1,1 -3,1 -4,1 -4,0 -6,-3 -6,-7l0 -17 -10 0zm50 13c-7,0 -14,6 -14,19 0,12 5,19 14,19 5,0 14,-4 14,-19 0,-12 -5,-19 -14,-19zm0 7c3,0 4,7 4,12 0,5 -1,12 -4,12 -3,0 -4,-6 -4,-12 0,-5 0,-12 4,-12zm19 45l10 0 0 -18 0 0c2,2 4,4 7,4 6,0 12,-6 12,-19 0,-10 -4,-19 -12,-19 -3,0 -6,2 -8,5l0 0 0 -4 -9 0c0,3 0,7 0,11l0 40zm10 -38c0,-1 0,-2 1,-3 0,-1 2,-3 3,-3 3,0 5,4 5,11 0,6 -2,11 -5,11 -1,0 -2,-1 -3,-3 -1,-1 -1,-2 -1,-3l0 -10zm24 -13l0 36 10 0 0 -14 8 0 0 14 10 0 0 -36 -10 0 0 14 -8 0 0 -14 -10 0zm48 -1c-8,0 -15,6 -15,19 0,12 6,19 14,19 6,0 15,-4 15,-19 0,-12 -6,-19 -14,-19zm0 7c3,0 4,7 4,12 0,5 -1,12 -4,12 -4,0 -5,-6 -5,-12 0,-5 1,-12 5,-12zm18 30l9 0 0 -12c0,-4 0,-8 1,-16l0 0c0,4 2,11 3,15l3 13 8 0 2 -13c2,-5 3,-12 4,-15l0 0c0,8 0,12 0,16l0 12 10 0 -3 -36 -12 0 -3 11c0,3 -1,7 -2,11l0 0c-1,-5 -2,-7 -2,-11l-3 -11 -12 0 -3 36zm58 -37c-7,0 -14,6 -14,19 0,12 5,19 14,19 6,0 14,-4 14,-19 0,-12 -5,-19 -14,-19zm0 7c4,0 4,7 4,12 0,5 0,12 -4,12 -3,0 -4,-6 -4,-12 0,-5 1,-12 4,-12zm20 45l10 0 0 -18 0 0c1,2 3,4 6,4 6,0 12,-6 12,-19 0,-10 -3,-19 -12,-19 -3,0 -6,2 -7,5l0 0 -1 -4 -9 0c1,3 1,7 1,11l0 40zm10 -38c0,-1 0,-2 0,-3 0,-1 2,-3 3,-3 3,0 5,4 5,11 0,6 -1,11 -5,11 -1,0 -2,-1 -3,-3 0,-1 0,-2 0,-3l0 -10zm43 15c-1,1 -2,1 -4,1 -4,0 -7,-4 -7,-11 0,-6 3,-11 8,-11 1,0 2,1 3,1l2 -8c-1,0 -4,-1 -6,-1 -10,0 -17,8 -17,19 0,12 6,19 16,19 2,0 5,-1 6,-1l-1 -8zm5 -28l0 36c3,1 6,1 9,1 6,0 11,-1 15,-4 2,-2 4,-5 4,-9 0,-9 -7,-13 -15,-13 -1,0 -2,0 -3,0l0 -11 -10 0zm10 18c0,0 1,0 2,0 3,0 7,2 7,6 0,4 -4,6 -7,6 -1,0 -2,0 -2,0l0 -12zm24 -18l0 36 10 0 0 -15 0 0c3,0 4,3 5,6 1,4 2,7 3,9l10 0c-2,-2 -3,-7 -4,-10 -1,-5 -3,-9 -6,-11l9 -15 -10 0 -6 14 -1 0 0 -14 -10 0zm57 14c0,-7 -2,-15 -13,-15 -5,0 -9,2 -12,3l2 6c3,-1 5,-2 8,-2 3,0 5,2 5,5l0 1c-8,0 -17,4 -17,14 0,6 4,11 10,11 3,0 6,-1 8,-4l0 0 1 3 9 0c-1,-2 -1,-5 -1,-8l0 -14zm-10 11c0,1 0,1 0,2 -1,2 -2,3 -4,3 -2,0 -4,-2 -4,-5 0,-5 5,-6 8,-7l0 7zm21 20c3,-5 6,-13 8,-20l-10 1c-1,6 -3,14 -5,20l7 -1zm48 -9l0 -11 5 0 0 -8 -5 0 0 -30 -9 0 -16 31 0 7 17 0 0 11 8 0zm-17 -19l0 0 5 -11c2,-2 3,-5 4,-7l0 0c0,2 0,5 0,8l0 10 -9 0zm51 -3c0,-7 -1,-15 -13,-15 -5,0 -9,2 -11,3l2 6c2,-1 4,-2 7,-2 4,0 5,2 5,5l0 1c-8,0 -16,4 -16,14 0,6 4,11 9,11 4,0 6,-1 8,-4l1 0 0 3 9 0c0,-2 -1,-5 -1,-8l0 -14zm-9 11c0,1 0,1 0,2 -1,2 -3,3 -5,3 -1,0 -3,-2 -3,-5 0,-5 4,-6 8,-7l0 7z"/>
  </g>
 </g>
</svg>
