<?xml version="1.0" encoding="UTF-8"?>
<!DOCTYPE svg PUBLIC "-//W3C//DTD SVG 1.1//EN" "http://www.w3.org/Graphics/SVG/1.1/DTD/svg11.dtd">
<!-- Creator: CorelDRAW X7 -->
<svg xmlns="http://www.w3.org/2000/svg" xml:space="preserve" width="51.8836mm" height="6.1972mm" version="1.1" style="shape-rendering:geometricPrecision; text-rendering:geometricPrecision; image-rendering:optimizeQuality; fill-rule:evenodd; clip-rule:evenodd"
viewBox="0 0 2208 264"
 xmlns:xlink="http://www.w3.org/1999/xlink">
 <defs>
  <style type="text/css">
   <![CDATA[
    .fil0 {fill:#005487;fill-rule:nonzero}
   ]]>
  </style>
 </defs>
 <g id="Слой_x0020_1">
  <metadata id="CorelCorpID_0Corel-Layer"/>
  <path class="fil0" d="M0 132c0,71 16,132 90,132 65,0 90,-61 90,-132 0,-65 -16,-132 -90,-132 -74,0 -90,67 -90,132zm90 -89c15,0 23,11 23,50l0 78c0,39 -8,50 -23,50 -15,0 -23,-11 -23,-50l0 -78c0,-39 8,-50 23,-50zm113 94l45 19c6,-10 15,-19 28,-19 23,0 31,22 31,43 0,16 -9,38 -30,38 -21,0 -29,-16 -34,-35l-49 17c11,39 42,64 83,64 50,0 95,-39 95,-87 0,-47 -28,-83 -78,-83 -12,0 -28,3 -38,9l3 -47 98 0 4 -52 -148 0 -10 133 0 0zm183 -5c0,71 17,132 90,132 65,0 90,-61 90,-132 0,-65 -16,-132 -90,-132 -73,0 -90,67 -90,132zm90 -89c15,0 23,11 23,50l0 78c0,39 -8,50 -23,50 -15,0 -23,-11 -23,-50l0 -78c0,-39 8,-50 23,-50zm210 94l45 19c6,-10 15,-19 27,-19 23,0 32,22 32,43 0,16 -10,38 -30,38 -21,0 -29,-16 -34,-35l-49 17c11,39 42,64 83,64 50,0 95,-39 95,-87 0,-47 -28,-83 -78,-83 -12,0 -28,3 -38,9l3 -47 98 0 4 -52 -148 0 -10 133 0 0zm183 -5c0,71 17,132 90,132 65,0 90,-61 90,-132 0,-65 -16,-132 -90,-132 -73,0 -90,67 -90,132zm90 -89c15,0 23,11 23,50l0 78c0,39 -8,50 -23,50 -15,0 -23,-11 -23,-50l0 -78c0,-39 8,-50 23,-50zm110 15l100 0c-37,61 -72,131 -82,202l73 0c5,-95 30,-149 75,-224l0 -32 -166 0 0 54 0 0zm373 163c-17,0 -30,-12 -30,-28 0,-15 4,-22 19,-40 28,13 41,22 41,41 0,17 -16,27 -30,27l0 0zm6 -182c18,0 28,11 28,29 0,13 -7,24 -20,36 -28,-16 -36,-25 -36,-40 0,-15 14,-25 28,-25l0 0zm-1 -39c-44,0 -87,26 -87,75 0,28 16,50 41,60l0 1c-28,6 -52,27 -52,58 0,48 51,70 89,70 47,0 97,-23 97,-75 0,-34 -19,-58 -51,-66l0 -1c23,-9 42,-29 42,-55 0,-47 -38,-67 -79,-67l0 0zm188 221c-17,0 -30,-12 -30,-28 0,-15 4,-22 19,-40 28,13 41,22 41,41 0,17 -15,27 -30,27l0 0zm6 -182c18,0 28,11 28,29 0,13 -7,24 -19,36 -29,-16 -36,-25 -36,-40 0,-15 13,-25 27,-25l0 0zm-1 -39c-44,0 -87,26 -87,75 0,28 16,50 41,60l0 1c-28,6 -52,27 -52,58 0,48 51,70 89,70 47,0 97,-23 97,-75 0,-34 -19,-58 -51,-66l0 -1c23,-9 42,-29 42,-55 0,-47 -38,-67 -79,-67l0 0zm205 137l45 19c6,-10 14,-19 27,-19 23,0 32,22 32,43 0,16 -10,38 -30,38 -22,0 -29,-16 -35,-35l-48 17c11,39 41,64 83,64 50,0 95,-39 95,-87 0,-47 -29,-83 -78,-83 -12,0 -28,3 -38,9l3 -47 98 0 4 -52 -148 0 -10 133 0 0zm183 -5c0,71 16,132 90,132 65,0 90,-61 90,-132 0,-65 -17,-132 -90,-132 -74,0 -90,67 -90,132zm90 -89c15,0 23,11 23,50l0 78c0,39 -8,50 -23,50 -15,0 -23,-11 -23,-50l0 -78c0,-39 8,-50 23,-50z"/>
 </g>
</svg>
