<?xml version="1.0" encoding="UTF-8"?>
<!DOCTYPE svg PUBLIC "-//W3C//DTD SVG 1.1//EN" "http://www.w3.org/Graphics/SVG/1.1/DTD/svg11.dtd">
<!-- Creator: CorelDRAW X7 -->
<svg xmlns="http://www.w3.org/2000/svg" xml:space="preserve" width="35.1585mm" height="33.3262mm" version="1.1" style="shape-rendering:geometricPrecision; text-rendering:geometricPrecision; image-rendering:optimizeQuality; fill-rule:evenodd; clip-rule:evenodd"
viewBox="0 0 618 586"
 xmlns:xlink="http://www.w3.org/1999/xlink">
 <defs>
  <style type="text/css">
   <![CDATA[
    .str0 {stroke:#FEFEFE;stroke-width:8.79408;stroke-linecap:round;stroke-linejoin:round}
    .fil0 {fill:none;fill-rule:nonzero}
    .fil1 {fill:#005487;fill-rule:nonzero}
   ]]>
  </style>
 </defs>
 <g id="Слой_x0020_1">
  <metadata id="CorelCorpID_0Corel-Layer"/>
  <g id="_925751232">
   <g>
    <path class="fil0 str0" d="M74 5l14 43c1,2 1,3 1,4 -1,3 -4,6 -7,6 -2,0 -3,0 -3,0l-1 10c2,0 3,1 5,1 6,0 10,-4 13,-9 3,-5 6,-14 8,-21l9 -34 -12 0 -4 24c-1,3 -2,7 -2,10l0 0c-1,-3 -1,-7 -2,-10l-6 -24 -13 0zm97 62l11 0 -4 -62 -12 0 -5 22c-2,8 -3,15 -4,22l-1 0c-1,-7 -2,-14 -4,-22l-5 -22 -13 0 -4 62 10 0 1 -21c0,-7 1,-15 1,-21l0 0c1,6 3,14 4,19l5 22 9 0 5 -22c2,-5 3,-13 4,-19l1 0c-1,6 0,14 0,20l1 22zm26 1c5,0 7,-3 7,-8 0,-5 -3,-8 -7,-8 -3,0 -7,3 -7,8 0,5 3,8 7,8zm15 -63l0 22c0,11 4,18 15,18 3,0 6,-1 9,-2l0 0 0 25 12 0 0 -63 -12 0 0 28c-1,1 -3,2 -5,2 -5,0 -7,-4 -7,-9l0 -21 -12 0zm74 25l-15 0 0 -15 15 0 0 -10 -27 0 0 62 28 0 0 -10 -16 0 0 -17 15 0 0 -10zm10 37l12 0 0 -23c1,0 2,0 2,0 6,0 12,-2 16,-6 3,-3 5,-8 5,-15 0,-5 -2,-11 -5,-14 -4,-4 -10,-5 -17,-5 -5,0 -10,1 -13,2l0 61zm12 -52c1,-1 2,-1 3,-1 6,0 8,5 8,10 0,6 -3,10 -9,10 -1,0 -1,0 -2,0l0 -19zm30 -10l0 62 13 0 0 -26 12 0 0 26 12 0 0 -62 -12 0 0 25 -12 0 0 -25 -13 0zm48 0l0 62 12 0 0 -62 -12 0zm23 62c3,1 7,1 12,1 10,0 17,-2 20,-6 3,-4 5,-8 5,-13 0,-7 -4,-13 -11,-15l0 0c6,-3 9,-8 9,-14 0,-4 -2,-8 -5,-11 -4,-4 -10,-5 -16,-5 -5,0 -10,1 -14,2l0 61zm13 -53c0,0 1,0 3,0 5,0 7,3 7,8 0,5 -4,8 -8,8l-2 0 0 -16zm0 25l2 0c5,0 9,4 9,10 0,6 -4,9 -9,9 -1,0 -2,0 -2,0l0 -19zm32 -34l0 62 32 0 0 14 9 0 1 -24 -5 0 0 -52 -12 0 0 52 -13 0 0 -52 -12 0zm49 0l0 62 12 0 0 -62 -12 0zm29 33c4,0 7,-4 7,-8 0,-5 -3,-8 -7,-8 -4,0 -7,4 -7,8 0,4 3,8 7,8zm0 30c4,0 7,-3 7,-8 0,-4 -3,-7 -7,-7 -4,0 -7,3 -7,7 0,5 3,8 7,8zm-464 85c2,0 5,0 9,0 9,0 14,-1 17,-5 2,-2 3,-5 3,-9 0,-6 -3,-11 -8,-12l0 -1c4,-2 7,-6 7,-11 0,-3 -1,-7 -4,-9 -4,-3 -8,-3 -13,-3 -4,0 -8,0 -11,1l0 49zm10 -43c0,0 1,0 2,0 4,0 6,3 6,6 0,4 -3,7 -6,7l-2 0 0 -13zm0 21l2 0c4,0 7,2 7,7 0,5 -3,8 -7,8 -1,0 -2,0 -2,0l0 -15zm22 -14l10 33c0,1 0,1 0,2 0,0 0,1 0,1 -1,2 -2,3 -3,5 -2,1 -4,2 -5,3l3 8c1,0 5,-2 8,-6 4,-4 6,-11 8,-18l8 -28 -10 0 -3 19c0,2 -1,4 -1,6l0 0c0,-2 -1,-4 -1,-6l-4 -19 -10 0zm33 0l0 16c0,4 0,8 -1,10 -1,2 -2,3 -4,3l2 8c1,0 3,-1 5,-1 6,-3 7,-11 7,-21l0 -7 6 0 0 28 9 0 0 -36 -24 0zm37 37c4,0 6,-3 6,-7 0,-4 -3,-6 -6,-6 -3,0 -6,2 -6,6 0,4 3,7 6,7zm24 -1l10 0 0 -19c1,0 1,0 2,0 4,0 9,-1 12,-4 3,-3 5,-7 5,-12 0,-5 -2,-9 -5,-12 -3,-3 -8,-3 -13,-3 -4,0 -8,0 -11,1l0 49zm10 -42c1,0 2,0 3,0 4,0 6,3 6,7 0,5 -2,9 -7,9 -1,0 -1,0 -2,-1l0 -15zm21 6l10 33c0,1 0,1 0,2 0,0 0,1 0,1 -1,2 -2,3 -3,5 -2,1 -3,2 -5,3l3 8c1,0 5,-2 8,-6 4,-4 7,-11 8,-18l8 -28 -10 0 -3 19c0,2 0,4 -1,6l0 0c0,-2 0,-4 -1,-6l-3 -19 -11 0zm51 28c-1,0 -2,1 -4,1 -4,0 -7,-5 -7,-11 0,-6 3,-11 7,-11 2,0 3,1 4,1l1 -8c-1,0 -3,-1 -5,-1 -10,0 -17,8 -17,19 0,12 6,18 16,18 2,0 5,0 6,-1l-1 -7zm5 -28l0 36c2,0 6,0 9,0 5,0 11,0 14,-3 3,-2 5,-5 5,-10 0,-8 -7,-12 -15,-12 -1,0 -2,0 -4,0l0 -11 -9 0zm9 18c1,0 2,0 2,0 4,0 7,2 7,6 0,4 -3,5 -7,5 0,0 -1,0 -2,0l0 -11zm24 -18l0 36 10 0 0 -15 0 0c3,0 4,3 5,6 1,4 2,7 3,9l10 0c-2,-2 -3,-8 -4,-10 -1,-5 -2,-9 -6,-11l9 -15 -10 0 -6 14 -1 0 0 -14 -10 0zm57 14c0,-7 -2,-15 -13,-15 -5,0 -9,2 -12,3l2 6c2,-1 5,-2 8,-2 3,0 5,2 5,5l0 1c-8,0 -17,4 -17,14 0,6 4,11 10,11 3,0 6,-2 8,-5l0 0 1 4 8 0c0,-2 0,-5 0,-8l0 -14zm-10 11c0,0 0,1 0,1 -1,3 -2,3 -4,3 -2,0 -4,-1 -4,-4 0,-5 5,-7 8,-7l0 7zm20 20c3,-6 7,-14 9,-20l-10 1c-1,5 -3,13 -5,19l6 0zm36 -9l9 0 0 -48 -8 0 -11 5 1 8 9 -4 0 0 0 39zm24 1c1,0 3,0 4,-1 5,0 9,-2 12,-6 4,-4 8,-12 8,-23 0,-12 -5,-20 -14,-20 -9,0 -14,9 -14,17 0,9 5,14 11,14 3,0 6,-1 7,-3l0 0c0,5 -2,8 -4,10 -2,2 -4,3 -6,3 -2,0 -3,1 -4,1l0 8zm10 -43c2,0 4,4 4,10 0,3 0,4 0,5 -1,1 -2,3 -4,3 -3,0 -4,-4 -5,-9 0,-6 2,-9 5,-9zm42 42l0 -12 5 0 0 -7 -5 0 0 -29 -10 0 -15 30 0 6 16 0 0 12 9 0zm-17 -19l0 0 5 -11c1,-2 2,-5 3,-7l1 0c-1,2 -1,5 -1,8l0 10 -8 0zm25 -5l0 7 15 0 0 -7 -15 0zm21 -26l0 50c2,0 5,0 9,0 7,0 13,-1 16,-5 3,-3 4,-7 4,-11 0,-5 -2,-9 -4,-12 -3,-2 -7,-4 -11,-4 -2,0 -3,0 -4,1l0 -11 16 0 0 -8 -26 0zm10 26c1,0 1,0 2,0 2,0 4,1 5,3 2,1 2,3 2,5 0,3 0,5 -2,6 -1,2 -3,3 -5,3 -1,0 -1,0 -2,-1l0 -16zm-494 109c2,1 5,1 9,1 8,0 13,-2 16,-5 3,-2 4,-6 4,-10 0,-5 -3,-10 -9,-12l0 0c5,-2 7,-7 7,-11 0,-4 -1,-7 -4,-9 -3,-3 -8,-4 -12,-4 -4,0 -8,1 -11,1l0 49zm9 -42c1,0 2,0 3,0 4,0 6,2 6,6 0,4 -3,7 -7,7l-2 0 0 -13zm0 20l2 0c4,0 8,3 8,8 0,5 -3,8 -7,8 -1,0 -2,0 -3,-1l0 -15zm22 -14l10 34c0,0 1,1 1,1 0,1 -1,1 -1,2 -1,1 -2,3 -3,4 -1,2 -3,3 -5,3l3 9c2,-1 5,-2 8,-6 4,-5 7,-12 9,-19l7 -28 -10 0 -3 19c0,2 0,4 0,6l-1 0c0,-2 0,-4 -1,-6l-3 -19 -11 0zm34 0l0 16c0,4 -1,9 -2,11 -1,1 -1,2 -3,3l1 7c2,0 4,0 5,-1 7,-3 8,-10 8,-20l0 -8 5 0 0 29 10 0 0 -37 -24 0zm37 37c3,0 5,-2 5,-6 0,-4 -2,-7 -5,-7 -3,0 -6,3 -6,7 0,4 3,6 6,6zm24 -51l0 51 10 0 0 -42 13 0 0 -9 -23 0zm47 36c0,-1 0,-3 0,-5 0,-11 -5,-17 -13,-17 -8,0 -14,7 -14,19 0,12 5,18 15,18 4,0 8,-1 10,-2l-1 -7c-2,1 -4,2 -7,2 -4,0 -8,-2 -8,-8l18 0zm-18 -7c0,-4 2,-8 5,-8 3,0 4,3 4,8l-9 0zm23 36l10 0 0 -17 0 0c1,1 3,3 6,3 6,0 12,-6 12,-19 0,-10 -3,-18 -11,-18 -4,0 -6,1 -8,4l0 0 -1 -4 -8 0c0,4 0,7 0,12l0 39zm10 -37c0,-1 0,-2 0,-3 1,-2 2,-3 4,-3 3,0 4,4 4,10 0,6 -1,11 -4,11 -1,0 -3,0 -3,-3 -1,0 -1,-1 -1,-3l0 -9zm36 -14c-7,0 -14,5 -14,19 0,11 6,18 14,18 6,0 14,-3 14,-19 0,-11 -5,-18 -14,-18zm0 7c4,0 5,6 5,11 0,6 -1,12 -4,12 -4,0 -5,-5 -5,-12 0,-5 1,-11 4,-11zm29 30l0 -37 -9 0 0 37 9 0zm-11 -42c3,0 4,-2 4,-5 0,-3 -1,-5 -4,-5 -2,0 -4,2 -4,5 0,3 2,5 4,5zm13 0c3,0 5,-2 5,-5 0,-3 -2,-5 -5,-5 -2,0 -4,2 -4,5 0,3 2,5 4,5zm5 42c2,0 6,0 9,0 8,0 20,-1 20,-11 0,-4 -4,-8 -9,-9l0 0c4,-1 7,-4 7,-8 0,-8 -10,-9 -16,-9 -4,0 -8,0 -11,0l0 37zm10 -31c0,0 1,0 2,0 4,0 6,1 6,4 0,3 -3,5 -6,5l-2 0 0 -9zm0 15l2 0c4,0 7,2 7,5 0,4 -3,5 -7,5 -1,0 -2,0 -2,0l0 -10zm68 16l9 0 -3 -51 -10 0 -4 19c-2,6 -3,12 -3,17l-1 0c-1,-5 -2,-11 -3,-17l-4 -19 -11 0 -3 51 8 0 1 -18c0,-5 1,-11 1,-17l0 0c1,6 2,12 3,16l4 18 7 0 5 -18c0,-4 2,-10 3,-16l0 0c0,6 0,12 0,17l1 18zm40 -22c0,-8 -2,-15 -13,-15 -5,0 -9,1 -11,2l2 7c2,-1 4,-2 7,-2 3,0 5,2 5,5l0 1c-8,0 -17,4 -17,13 0,7 5,11 10,11 3,0 6,-1 8,-4l0 0 1 4 9 0c-1,-3 -1,-6 -1,-9l0 -13zm-10 10c0,1 0,1 0,2 0,2 -2,3 -4,3 -1,0 -3,-1 -3,-5 0,-5 4,-6 7,-6l0 6zm17 -25l0 37 9 0c2,-5 5,-12 6,-14 1,-4 2,-7 3,-11l1 0c-1,5 -1,9 -1,17l0 8 9 0 0 -37 -9 0 -6 14c-1,3 -3,7 -4,11l0 0c0,-4 1,-10 1,-17l0 -8 -9 0zm4 -14c0,6 3,9 9,9 6,0 9,-3 10,-9l-6 0c0,3 -1,5 -4,5 -2,0 -3,-2 -3,-5l-6 0zm34 14l0 10c0,4 -1,8 -2,12 0,3 -1,5 -2,8l-3 0 0 17 8 0 0 -10 18 0 0 10 7 0 1 -17 -4 0 0 -30 -23 0zm8 8l6 0 0 21 -9 0c1,-2 2,-4 2,-7 1,-4 1,-8 1,-11l0 -3zm49 7c0,-8 -2,-15 -13,-15 -5,0 -10,1 -12,2l2 7c2,-1 5,-2 7,-2 4,0 6,2 6,5l0 1c-9,0 -17,4 -17,13 0,7 4,11 10,11 3,0 6,-1 8,-4l0 0 0 4 9 0c0,-3 0,-6 0,-9l0 -13zm-10 10c0,1 0,1 0,2 -1,2 -3,3 -4,3 -2,0 -4,-1 -4,-5 0,-5 5,-6 8,-6l0 6zm16 -25l0 37 10 0 0 -15 8 0 0 15 10 0 0 -37 -10 0 0 14 -8 0 0 -14 -10 0zm31 0l10 34c0,0 0,1 0,1 0,1 0,1 0,2 -1,1 -2,3 -3,4 -2,2 -4,3 -5,3l3 9c1,-1 5,-2 8,-6 4,-5 6,-12 8,-19l8 -28 -10 0 -3 19c0,2 -1,4 -1,6l0 0c0,-2 -1,-4 -1,-6l-4 -19 -10 0zm-458 122c2,0 5,1 9,1 9,0 14,-2 17,-5 2,-3 3,-6 3,-10 0,-6 -3,-11 -8,-12l0 -1c4,-2 7,-6 7,-10 0,-4 -1,-7 -4,-10 -4,-3 -8,-3 -13,-3 -4,0 -8,0 -11,1l0 49zm10 -43c0,0 1,0 2,0 4,0 6,3 6,7 0,4 -3,7 -6,7l-2 0 0 -14zm0 21l2 0c4,0 7,3 7,8 0,5 -3,7 -7,7 -1,0 -2,0 -2,0l0 -15zm22 -14l10 34c0,0 0,0 0,1 0,0 0,1 0,2 -1,1 -2,3 -3,4 -2,1 -4,2 -5,3l3 8c1,0 5,-2 8,-5 4,-5 6,-12 8,-19l8 -28 -10 0 -3 19c0,2 -1,4 -1,6l0 0c0,-2 -1,-4 -1,-6l-4 -19 -10 0zm33 0l0 16c0,4 0,8 -1,11 -1,1 -2,2 -4,2l2 8c1,0 3,0 5,-1 6,-3 7,-11 7,-20l0 -8 6 0 0 28 9 0 0 -36 -24 0zm37 37c4,0 6,-3 6,-7 0,-4 -3,-6 -6,-6 -3,0 -6,3 -6,6 0,4 3,7 6,7zm24 -51l0 50 10 0 0 -41 13 0 0 -9 -23 0zm47 36c0,-2 0,-3 0,-6 0,-11 -4,-17 -12,-17 -8,0 -15,7 -15,20 0,11 6,18 16,18 3,0 7,-1 10,-2l-2 -7c-1,1 -4,1 -7,1 -4,0 -7,-2 -7,-7l17 0zm-17 -7c0,-4 1,-9 4,-9 3,0 4,4 4,9l-8 0zm23 36l10 0 0 -18 0 0c1,2 3,4 6,4 6,0 12,-6 12,-19 0,-10 -4,-19 -12,-19 -3,0 -6,2 -7,5l-1 0 0 -4 -9 0c1,3 1,7 1,11l0 40zm10 -38c0,-1 0,-2 0,-2 0,-2 2,-4 3,-4 3,0 5,4 5,11 0,6 -1,11 -5,11 -1,0 -2,-1 -3,-3 0,-1 0,-2 0,-3l0 -10zm36 -14c-7,0 -14,6 -14,19 0,12 5,19 14,19 5,0 14,-4 14,-19 0,-12 -5,-19 -14,-19zm0 8c3,0 4,6 4,11 0,5 -1,11 -4,11 -4,0 -4,-5 -4,-11 0,-5 0,-11 4,-11zm29 29l0 -36 -10 0 0 36 10 0zm-12 -41c3,0 5,-2 5,-5 0,-3 -2,-5 -5,-5 -2,0 -4,2 -4,5 0,3 2,5 4,5zm14 0c2,0 4,-2 4,-5 0,-3 -2,-5 -4,-5 -3,0 -5,2 -5,5 0,3 2,5 5,5zm5 41c2,1 5,1 9,1 7,0 19,-2 19,-11 0,-5 -3,-8 -9,-9l0 0c4,-1 7,-4 7,-9 0,-8 -9,-9 -16,-9 -3,0 -7,1 -10,1l0 36zm9 -30c1,0 2,0 3,0 3,0 5,1 5,4 0,3 -2,4 -6,4l-2 0 0 -8zm0 15l2 0c4,0 7,1 7,5 0,3 -3,4 -6,4 -1,0 -2,0 -3,0l0 -9zm37 -35l0 50 10 0 0 -21 0 0c4,0 6,4 7,10 1,4 2,8 3,11l9 0c-1,-4 -2,-9 -3,-14 -1,-6 -3,-11 -8,-13l11 -23 -10 0 -9 22 0 0 0 -22 -10 0zm33 65l10 0 0 -18 0 0c1,2 3,4 6,4 6,0 12,-6 12,-19 0,-10 -3,-19 -11,-19 -4,0 -7,2 -8,5l0 0 -1 -4 -8 0c0,3 0,7 0,11l0 40zm10 -38c0,-1 0,-2 0,-2 1,-2 2,-4 4,-4 2,0 4,4 4,11 0,6 -1,11 -5,11 -1,0 -2,-1 -3,-3 0,-1 0,-2 0,-3l0 -10zm19 -13l10 34c0,0 1,0 1,1 0,0 -1,1 -1,2 -1,1 -2,3 -3,4 -1,1 -3,2 -5,3l3 8c2,0 5,-2 8,-5 4,-5 7,-12 9,-19l7 -28 -10 0 -3 19c0,2 0,4 0,6l-1 0c0,-2 0,-4 -1,-6l-3 -19 -11 0zm31 0l0 8 9 0 0 28 9 0 0 -28 8 0 0 -8 -26 0zm-493 122c3,0 6,0 9,0 9,0 14,-2 17,-5 2,-2 4,-6 4,-10 0,-5 -3,-10 -9,-12l0 0c5,-2 7,-6 7,-11 0,-3 -1,-7 -4,-9 -3,-3 -8,-4 -13,-4 -4,0 -8,1 -11,1l0 50zm10 -43c1,0 2,0 3,0 4,0 5,3 5,6 0,4 -2,7 -6,7l-2 0 0 -13zm0 21l2 0c4,0 8,2 8,7 0,5 -4,8 -8,8 -1,0 -1,0 -2,0l0 -15zm22 -15l10 34c0,1 0,1 0,2 0,0 0,1 0,1 -1,2 -2,3 -3,5 -2,1 -3,2 -5,2l3 9c1,0 5,-2 8,-6 4,-4 7,-12 8,-18l8 -29 -10 0 -3 20c0,2 0,4 -1,6l0 0c0,-2 0,-4 -1,-7l-3 -19 -11 0zm33 0l0 17c0,4 0,8 -1,10 -1,1 -2,2 -3,3l1 8c2,0 4,-1 5,-1 7,-4 8,-11 8,-21l0 -8 5 0 0 29 10 0 0 -37 -25 0zm37 38c4,0 6,-3 6,-7 0,-4 -2,-6 -6,-6 -3,0 -5,2 -5,6 0,4 2,7 5,7zm24 -51l0 18c0,8 3,14 12,14 3,0 5,-1 7,-2l0 0 0 21 10 0 0 -51 -10 0 0 23c-1,0 -2,1 -4,1 -3,0 -5,-3 -5,-7l0 -17 -10 0zm49 13c-7,0 -14,6 -14,19 0,12 5,19 14,19 6,0 14,-4 14,-19 0,-12 -5,-19 -14,-19zm0 7c4,0 4,7 4,12 0,5 0,11 -4,11 -3,0 -4,-5 -4,-11 0,-5 1,-12 4,-12zm20 44l9 0 0 -17 0 0c1,2 3,4 6,4 7,0 12,-6 12,-19 0,-10 -3,-19 -11,-19 -3,0 -6,2 -8,5l0 0 0 -5 -9 0c0,4 1,8 1,12l0 39zm9 -37c0,-1 0,-2 1,-3 0,-1 1,-3 3,-3 3,0 5,4 5,11 0,5 -2,11 -5,11 -1,0 -2,-1 -3,-3 -1,-1 -1,-2 -1,-3l0 -10zm24 -14l0 37 10 0 0 -14 7 0 0 14 10 0 0 -37 -10 0 0 14 -7 0 0 -14 -10 0zm47 0c-8,0 -14,6 -14,19 0,12 5,19 14,19 5,0 13,-4 13,-19 0,-12 -5,-19 -13,-19zm0 7c3,0 4,7 4,12 0,5 -1,11 -4,11 -4,0 -5,-5 -5,-11 0,-5 1,-12 5,-12zm18 30l8 0 1 -13c0,-3 0,-8 0,-15l0 0c1,3 2,11 3,15l3 12 8 0 3 -12c1,-6 2,-12 3,-15l0 0c0,7 0,12 1,15l0 13 9 0 -2 -37 -12 0 -3 12c-1,3 -1,6 -2,11l0 0c-1,-5 -2,-8 -3,-11l-3 -12 -12 0 -2 37zm57 -37c-7,0 -14,6 -14,19 0,12 6,19 14,19 6,0 14,-4 14,-19 0,-12 -5,-19 -14,-19zm0 7c4,0 5,7 5,12 0,5 -1,11 -5,11 -3,0 -4,-5 -4,-11 0,-5 1,-12 4,-12zm20 44l9 0 0 -17 1 0c1,2 3,4 6,4 6,0 11,-6 11,-19 0,-10 -3,-19 -11,-19 -3,0 -6,2 -8,5l0 0 0 -5 -9 0c0,4 1,8 1,12l0 39zm9 -37c0,-1 0,-2 1,-3 0,-1 2,-3 3,-3 3,0 5,4 5,11 0,5 -2,11 -5,11 -1,0 -2,-1 -3,-3 0,-1 -1,-2 -1,-3l0 -10z"/>
    <path id="1" class="fil1" d="M74 5l14 43c1,2 1,3 1,4 -1,3 -4,6 -7,6 -2,0 -3,0 -3,0l-1 10c2,0 3,1 5,1 6,0 10,-4 13,-9 3,-5 6,-14 8,-21l9 -34 -12 0 -4 24c-1,3 -2,7 -2,10l0 0c-1,-3 -1,-7 -2,-10l-6 -24 -13 0zm97 62l11 0 -4 -62 -12 0 -5 22c-2,8 -3,15 -4,22l-1 0c-1,-7 -2,-14 -4,-22l-5 -22 -13 0 -4 62 10 0 1 -21c0,-7 1,-15 1,-21l0 0c1,6 3,14 4,19l5 22 9 0 5 -22c2,-5 3,-13 4,-19l1 0c-1,6 0,14 0,20l1 22zm26 1c5,0 7,-3 7,-8 0,-5 -3,-8 -7,-8 -3,0 -7,3 -7,8 0,5 3,8 7,8zm15 -63l0 22c0,11 4,18 15,18 3,0 6,-1 9,-2l0 0 0 25 12 0 0 -63 -12 0 0 28c-1,1 -3,2 -5,2 -5,0 -7,-4 -7,-9l0 -21 -12 0zm74 25l-15 0 0 -15 15 0 0 -10 -27 0 0 62 28 0 0 -10 -16 0 0 -17 15 0 0 -10zm10 37l12 0 0 -23c1,0 2,0 2,0 6,0 12,-2 16,-6 3,-3 5,-8 5,-15 0,-5 -2,-11 -5,-14 -4,-4 -10,-5 -17,-5 -5,0 -10,1 -13,2l0 61zm12 -52c1,-1 2,-1 3,-1 6,0 8,5 8,10 0,6 -3,10 -9,10 -1,0 -1,0 -2,0l0 -19zm30 -10l0 62 13 0 0 -26 12 0 0 26 12 0 0 -62 -12 0 0 25 -12 0 0 -25 -13 0zm48 0l0 62 12 0 0 -62 -12 0zm23 62c3,1 7,1 12,1 10,0 17,-2 20,-6 3,-4 5,-8 5,-13 0,-7 -4,-13 -11,-15l0 0c6,-3 9,-8 9,-14 0,-4 -2,-8 -5,-11 -4,-4 -10,-5 -16,-5 -5,0 -10,1 -14,2l0 61zm13 -53c0,0 1,0 3,0 5,0 7,3 7,8 0,5 -4,8 -8,8l-2 0 0 -16zm0 25l2 0c5,0 9,4 9,10 0,6 -4,9 -9,9 -1,0 -2,0 -2,0l0 -19zm32 -34l0 62 32 0 0 14 9 0 1 -24 -5 0 0 -52 -12 0 0 52 -13 0 0 -52 -12 0zm49 0l0 62 12 0 0 -62 -12 0zm29 33c4,0 7,-4 7,-8 0,-5 -3,-8 -7,-8 -4,0 -7,4 -7,8 0,4 3,8 7,8zm0 30c4,0 7,-3 7,-8 0,-4 -3,-7 -7,-7 -4,0 -7,3 -7,7 0,5 3,8 7,8zm-464 85c2,0 5,0 9,0 9,0 14,-1 17,-5 2,-2 3,-5 3,-9 0,-6 -3,-11 -8,-12l0 -1c4,-2 7,-6 7,-11 0,-3 -1,-7 -4,-9 -4,-3 -8,-3 -13,-3 -4,0 -8,0 -11,1l0 49zm10 -43c0,0 1,0 2,0 4,0 6,3 6,6 0,4 -3,7 -6,7l-2 0 0 -13zm0 21l2 0c4,0 7,2 7,7 0,5 -3,8 -7,8 -1,0 -2,0 -2,0l0 -15zm22 -14l10 33c0,1 0,1 0,2 0,0 0,1 0,1 -1,2 -2,3 -3,5 -2,1 -4,2 -5,3l3 8c1,0 5,-2 8,-6 4,-4 6,-11 8,-18l8 -28 -10 0 -3 19c0,2 -1,4 -1,6l0 0c0,-2 -1,-4 -1,-6l-4 -19 -10 0zm33 0l0 16c0,4 0,8 -1,10 -1,2 -2,3 -4,3l2 8c1,0 3,-1 5,-1 6,-3 7,-11 7,-21l0 -7 6 0 0 28 9 0 0 -36 -24 0zm37 37c4,0 6,-3 6,-7 0,-4 -3,-6 -6,-6 -3,0 -6,2 -6,6 0,4 3,7 6,7zm24 -1l10 0 0 -19c1,0 1,0 2,0 4,0 9,-1 12,-4 3,-3 5,-7 5,-12 0,-5 -2,-9 -5,-12 -3,-3 -8,-3 -13,-3 -4,0 -8,0 -11,1l0 49zm10 -42c1,0 2,0 3,0 4,0 6,3 6,7 0,5 -2,9 -7,9 -1,0 -1,0 -2,-1l0 -15zm21 6l10 33c0,1 0,1 0,2 0,0 0,1 0,1 -1,2 -2,3 -3,5 -2,1 -3,2 -5,3l3 8c1,0 5,-2 8,-6 4,-4 7,-11 8,-18l8 -28 -10 0 -3 19c0,2 0,4 -1,6l0 0c0,-2 0,-4 -1,-6l-3 -19 -11 0zm51 28c-1,0 -2,1 -4,1 -4,0 -7,-5 -7,-11 0,-6 3,-11 7,-11 2,0 3,1 4,1l1 -8c-1,0 -3,-1 -5,-1 -10,0 -17,8 -17,19 0,12 6,18 16,18 2,0 5,0 6,-1l-1 -7zm5 -28l0 36c2,0 6,0 9,0 5,0 11,0 14,-3 3,-2 5,-5 5,-10 0,-8 -7,-12 -15,-12 -1,0 -2,0 -4,0l0 -11 -9 0zm9 18c1,0 2,0 2,0 4,0 7,2 7,6 0,4 -3,5 -7,5 0,0 -1,0 -2,0l0 -11zm24 -18l0 36 10 0 0 -15 0 0c3,0 4,3 5,6 1,4 2,7 3,9l10 0c-2,-2 -3,-8 -4,-10 -1,-5 -2,-9 -6,-11l9 -15 -10 0 -6 14 -1 0 0 -14 -10 0zm57 14c0,-7 -2,-15 -13,-15 -5,0 -9,2 -12,3l2 6c2,-1 5,-2 8,-2 3,0 5,2 5,5l0 1c-8,0 -17,4 -17,14 0,6 4,11 10,11 3,0 6,-2 8,-5l0 0 1 4 8 0c0,-2 0,-5 0,-8l0 -14zm-10 11c0,0 0,1 0,1 -1,3 -2,3 -4,3 -2,0 -4,-1 -4,-4 0,-5 5,-7 8,-7l0 7zm20 20c3,-6 7,-14 9,-20l-10 1c-1,5 -3,13 -5,19l6 0zm36 -9l9 0 0 -48 -8 0 -11 5 1 8 9 -4 0 0 0 39zm24 1c1,0 3,0 4,-1 5,0 9,-2 12,-6 4,-4 8,-12 8,-23 0,-12 -5,-20 -14,-20 -9,0 -14,9 -14,17 0,9 5,14 11,14 3,0 6,-1 7,-3l0 0c0,5 -2,8 -4,10 -2,2 -4,3 -6,3 -2,0 -3,1 -4,1l0 8zm10 -43c2,0 4,4 4,10 0,3 0,4 0,5 -1,1 -2,3 -4,3 -3,0 -4,-4 -5,-9 0,-6 2,-9 5,-9zm42 42l0 -12 5 0 0 -7 -5 0 0 -29 -10 0 -15 30 0 6 16 0 0 12 9 0zm-17 -19l0 0 5 -11c1,-2 2,-5 3,-7l1 0c-1,2 -1,5 -1,8l0 10 -8 0zm25 -5l0 7 15 0 0 -7 -15 0zm21 -26l0 50c2,0 5,0 9,0 7,0 13,-1 16,-5 3,-3 4,-7 4,-11 0,-5 -2,-9 -4,-12 -3,-2 -7,-4 -11,-4 -2,0 -3,0 -4,1l0 -11 16 0 0 -8 -26 0zm10 26c1,0 1,0 2,0 2,0 4,1 5,3 2,1 2,3 2,5 0,3 0,5 -2,6 -1,2 -3,3 -5,3 -1,0 -1,0 -2,-1l0 -16zm-494 109c2,1 5,1 9,1 8,0 13,-2 16,-5 3,-2 4,-6 4,-10 0,-5 -3,-10 -9,-12l0 0c5,-2 7,-7 7,-11 0,-4 -1,-7 -4,-9 -3,-3 -8,-4 -12,-4 -4,0 -8,1 -11,1l0 49zm9 -42c1,0 2,0 3,0 4,0 6,2 6,6 0,4 -3,7 -7,7l-2 0 0 -13zm0 20l2 0c4,0 8,3 8,8 0,5 -3,8 -7,8 -1,0 -2,0 -3,-1l0 -15zm22 -14l10 34c0,0 1,1 1,1 0,1 -1,1 -1,2 -1,1 -2,3 -3,4 -1,2 -3,3 -5,3l3 9c2,-1 5,-2 8,-6 4,-5 7,-12 9,-19l7 -28 -10 0 -3 19c0,2 0,4 0,6l-1 0c0,-2 0,-4 -1,-6l-3 -19 -11 0zm34 0l0 16c0,4 -1,9 -2,11 -1,1 -1,2 -3,3l1 7c2,0 4,0 5,-1 7,-3 8,-10 8,-20l0 -8 5 0 0 29 10 0 0 -37 -24 0zm37 37c3,0 5,-2 5,-6 0,-4 -2,-7 -5,-7 -3,0 -6,3 -6,7 0,4 3,6 6,6zm24 -51l0 51 10 0 0 -42 13 0 0 -9 -23 0zm47 36c0,-1 0,-3 0,-5 0,-11 -5,-17 -13,-17 -8,0 -14,7 -14,19 0,12 5,18 15,18 4,0 8,-1 10,-2l-1 -7c-2,1 -4,2 -7,2 -4,0 -8,-2 -8,-8l18 0zm-18 -7c0,-4 2,-8 5,-8 3,0 4,3 4,8l-9 0zm23 36l10 0 0 -17 0 0c1,1 3,3 6,3 6,0 12,-6 12,-19 0,-10 -3,-18 -11,-18 -4,0 -6,1 -8,4l0 0 -1 -4 -8 0c0,4 0,7 0,12l0 39zm10 -37c0,-1 0,-2 0,-3 1,-2 2,-3 4,-3 3,0 4,4 4,10 0,6 -1,11 -4,11 -1,0 -3,0 -3,-3 -1,0 -1,-1 -1,-3l0 -9zm36 -14c-7,0 -14,5 -14,19 0,11 6,18 14,18 6,0 14,-3 14,-19 0,-11 -5,-18 -14,-18zm0 7c4,0 5,6 5,11 0,6 -1,12 -4,12 -4,0 -5,-5 -5,-12 0,-5 1,-11 4,-11zm29 30l0 -37 -9 0 0 37 9 0zm-11 -42c3,0 4,-2 4,-5 0,-3 -1,-5 -4,-5 -2,0 -4,2 -4,5 0,3 2,5 4,5zm13 0c3,0 5,-2 5,-5 0,-3 -2,-5 -5,-5 -2,0 -4,2 -4,5 0,3 2,5 4,5zm5 42c2,0 6,0 9,0 8,0 20,-1 20,-11 0,-4 -4,-8 -9,-9l0 0c4,-1 7,-4 7,-8 0,-8 -10,-9 -16,-9 -4,0 -8,0 -11,0l0 37zm10 -31c0,0 1,0 2,0 4,0 6,1 6,4 0,3 -3,5 -6,5l-2 0 0 -9zm0 15l2 0c4,0 7,2 7,5 0,4 -3,5 -7,5 -1,0 -2,0 -2,0l0 -10zm68 16l9 0 -3 -51 -10 0 -4 19c-2,6 -3,12 -3,17l-1 0c-1,-5 -2,-11 -3,-17l-4 -19 -11 0 -3 51 8 0 1 -18c0,-5 1,-11 1,-17l0 0c1,6 2,12 3,16l4 18 7 0 5 -18c0,-4 2,-10 3,-16l0 0c0,6 0,12 0,17l1 18zm40 -22c0,-8 -2,-15 -13,-15 -5,0 -9,1 -11,2l2 7c2,-1 4,-2 7,-2 3,0 5,2 5,5l0 1c-8,0 -17,4 -17,13 0,7 5,11 10,11 3,0 6,-1 8,-4l0 0 1 4 9 0c-1,-3 -1,-6 -1,-9l0 -13zm-10 10c0,1 0,1 0,2 0,2 -2,3 -4,3 -1,0 -3,-1 -3,-5 0,-5 4,-6 7,-6l0 6zm17 -25l0 37 9 0c2,-5 5,-12 6,-14 1,-4 2,-7 3,-11l1 0c-1,5 -1,9 -1,17l0 8 9 0 0 -37 -9 0 -6 14c-1,3 -3,7 -4,11l0 0c0,-4 1,-10 1,-17l0 -8 -9 0zm4 -14c0,6 3,9 9,9 6,0 9,-3 10,-9l-6 0c0,3 -1,5 -4,5 -2,0 -3,-2 -3,-5l-6 0zm34 14l0 10c0,4 -1,8 -2,12 0,3 -1,5 -2,8l-3 0 0 17 8 0 0 -10 18 0 0 10 7 0 1 -17 -4 0 0 -30 -23 0zm8 8l6 0 0 21 -9 0c1,-2 2,-4 2,-7 1,-4 1,-8 1,-11l0 -3zm49 7c0,-8 -2,-15 -13,-15 -5,0 -10,1 -12,2l2 7c2,-1 5,-2 7,-2 4,0 6,2 6,5l0 1c-9,0 -17,4 -17,13 0,7 4,11 10,11 3,0 6,-1 8,-4l0 0 0 4 9 0c0,-3 0,-6 0,-9l0 -13zm-10 10c0,1 0,1 0,2 -1,2 -3,3 -4,3 -2,0 -4,-1 -4,-5 0,-5 5,-6 8,-6l0 6zm16 -25l0 37 10 0 0 -15 8 0 0 15 10 0 0 -37 -10 0 0 14 -8 0 0 -14 -10 0zm31 0l10 34c0,0 0,1 0,1 0,1 0,1 0,2 -1,1 -2,3 -3,4 -2,2 -4,3 -5,3l3 9c1,-1 5,-2 8,-6 4,-5 6,-12 8,-19l8 -28 -10 0 -3 19c0,2 -1,4 -1,6l0 0c0,-2 -1,-4 -1,-6l-4 -19 -10 0zm-458 122c2,0 5,1 9,1 9,0 14,-2 17,-5 2,-3 3,-6 3,-10 0,-6 -3,-11 -8,-12l0 -1c4,-2 7,-6 7,-10 0,-4 -1,-7 -4,-10 -4,-3 -8,-3 -13,-3 -4,0 -8,0 -11,1l0 49zm10 -43c0,0 1,0 2,0 4,0 6,3 6,7 0,4 -3,7 -6,7l-2 0 0 -14zm0 21l2 0c4,0 7,3 7,8 0,5 -3,7 -7,7 -1,0 -2,0 -2,0l0 -15zm22 -14l10 34c0,0 0,0 0,1 0,0 0,1 0,2 -1,1 -2,3 -3,4 -2,1 -4,2 -5,3l3 8c1,0 5,-2 8,-5 4,-5 6,-12 8,-19l8 -28 -10 0 -3 19c0,2 -1,4 -1,6l0 0c0,-2 -1,-4 -1,-6l-4 -19 -10 0zm33 0l0 16c0,4 0,8 -1,11 -1,1 -2,2 -4,2l2 8c1,0 3,0 5,-1 6,-3 7,-11 7,-20l0 -8 6 0 0 28 9 0 0 -36 -24 0zm37 37c4,0 6,-3 6,-7 0,-4 -3,-6 -6,-6 -3,0 -6,3 -6,6 0,4 3,7 6,7zm24 -51l0 50 10 0 0 -41 13 0 0 -9 -23 0zm47 36c0,-2 0,-3 0,-6 0,-11 -4,-17 -12,-17 -8,0 -15,7 -15,20 0,11 6,18 16,18 3,0 7,-1 10,-2l-2 -7c-1,1 -4,1 -7,1 -4,0 -7,-2 -7,-7l17 0zm-17 -7c0,-4 1,-9 4,-9 3,0 4,4 4,9l-8 0zm23 36l10 0 0 -18 0 0c1,2 3,4 6,4 6,0 12,-6 12,-19 0,-10 -4,-19 -12,-19 -3,0 -6,2 -7,5l-1 0 0 -4 -9 0c1,3 1,7 1,11l0 40zm10 -38c0,-1 0,-2 0,-2 0,-2 2,-4 3,-4 3,0 5,4 5,11 0,6 -1,11 -5,11 -1,0 -2,-1 -3,-3 0,-1 0,-2 0,-3l0 -10zm36 -14c-7,0 -14,6 -14,19 0,12 5,19 14,19 5,0 14,-4 14,-19 0,-12 -5,-19 -14,-19zm0 8c3,0 4,6 4,11 0,5 -1,11 -4,11 -4,0 -4,-5 -4,-11 0,-5 0,-11 4,-11zm29 29l0 -36 -10 0 0 36 10 0zm-12 -41c3,0 5,-2 5,-5 0,-3 -2,-5 -5,-5 -2,0 -4,2 -4,5 0,3 2,5 4,5zm14 0c2,0 4,-2 4,-5 0,-3 -2,-5 -4,-5 -3,0 -5,2 -5,5 0,3 2,5 5,5zm5 41c2,1 5,1 9,1 7,0 19,-2 19,-11 0,-5 -3,-8 -9,-9l0 0c4,-1 7,-4 7,-9 0,-8 -9,-9 -16,-9 -3,0 -7,1 -10,1l0 36zm9 -30c1,0 2,0 3,0 3,0 5,1 5,4 0,3 -2,4 -6,4l-2 0 0 -8zm0 15l2 0c4,0 7,1 7,5 0,3 -3,4 -6,4 -1,0 -2,0 -3,0l0 -9zm37 -35l0 50 10 0 0 -21 0 0c4,0 6,4 7,10 1,4 2,8 3,11l9 0c-1,-4 -2,-9 -3,-14 -1,-6 -3,-11 -8,-13l11 -23 -10 0 -9 22 0 0 0 -22 -10 0zm33 65l10 0 0 -18 0 0c1,2 3,4 6,4 6,0 12,-6 12,-19 0,-10 -3,-19 -11,-19 -4,0 -7,2 -8,5l0 0 -1 -4 -8 0c0,3 0,7 0,11l0 40zm10 -38c0,-1 0,-2 0,-2 1,-2 2,-4 4,-4 2,0 4,4 4,11 0,6 -1,11 -5,11 -1,0 -2,-1 -3,-3 0,-1 0,-2 0,-3l0 -10zm19 -13l10 34c0,0 1,0 1,1 0,0 -1,1 -1,2 -1,1 -2,3 -3,4 -1,1 -3,2 -5,3l3 8c2,0 5,-2 8,-5 4,-5 7,-12 9,-19l7 -28 -10 0 -3 19c0,2 0,4 0,6l-1 0c0,-2 0,-4 -1,-6l-3 -19 -11 0zm31 0l0 8 9 0 0 28 9 0 0 -28 8 0 0 -8 -26 0zm-493 122c3,0 6,0 9,0 9,0 14,-2 17,-5 2,-2 4,-6 4,-10 0,-5 -3,-10 -9,-12l0 0c5,-2 7,-6 7,-11 0,-3 -1,-7 -4,-9 -3,-3 -8,-4 -13,-4 -4,0 -8,1 -11,1l0 50zm10 -43c1,0 2,0 3,0 4,0 5,3 5,6 0,4 -2,7 -6,7l-2 0 0 -13zm0 21l2 0c4,0 8,2 8,7 0,5 -4,8 -8,8 -1,0 -1,0 -2,0l0 -15zm22 -15l10 34c0,1 0,1 0,2 0,0 0,1 0,1 -1,2 -2,3 -3,5 -2,1 -3,2 -5,2l3 9c1,0 5,-2 8,-6 4,-4 7,-12 8,-18l8 -29 -10 0 -3 20c0,2 0,4 -1,6l0 0c0,-2 0,-4 -1,-7l-3 -19 -11 0zm33 0l0 17c0,4 0,8 -1,10 -1,1 -2,2 -3,3l1 8c2,0 4,-1 5,-1 7,-4 8,-11 8,-21l0 -8 5 0 0 29 10 0 0 -37 -25 0zm37 38c4,0 6,-3 6,-7 0,-4 -2,-6 -6,-6 -3,0 -5,2 -5,6 0,4 2,7 5,7zm24 -51l0 18c0,8 3,14 12,14 3,0 5,-1 7,-2l0 0 0 21 10 0 0 -51 -10 0 0 23c-1,0 -2,1 -4,1 -3,0 -5,-3 -5,-7l0 -17 -10 0zm49 13c-7,0 -14,6 -14,19 0,12 5,19 14,19 6,0 14,-4 14,-19 0,-12 -5,-19 -14,-19zm0 7c4,0 4,7 4,12 0,5 0,11 -4,11 -3,0 -4,-5 -4,-11 0,-5 1,-12 4,-12zm20 44l9 0 0 -17 0 0c1,2 3,4 6,4 7,0 12,-6 12,-19 0,-10 -3,-19 -11,-19 -3,0 -6,2 -8,5l0 0 0 -5 -9 0c0,4 1,8 1,12l0 39zm9 -37c0,-1 0,-2 1,-3 0,-1 1,-3 3,-3 3,0 5,4 5,11 0,5 -2,11 -5,11 -1,0 -2,-1 -3,-3 -1,-1 -1,-2 -1,-3l0 -10zm24 -14l0 37 10 0 0 -14 7 0 0 14 10 0 0 -37 -10 0 0 14 -7 0 0 -14 -10 0zm47 0c-8,0 -14,6 -14,19 0,12 5,19 14,19 5,0 13,-4 13,-19 0,-12 -5,-19 -13,-19zm0 7c3,0 4,7 4,12 0,5 -1,11 -4,11 -4,0 -5,-5 -5,-11 0,-5 1,-12 5,-12zm18 30l8 0 1 -13c0,-3 0,-8 0,-15l0 0c1,3 2,11 3,15l3 12 8 0 3 -12c1,-6 2,-12 3,-15l0 0c0,7 0,12 1,15l0 13 9 0 -2 -37 -12 0 -3 12c-1,3 -1,6 -2,11l0 0c-1,-5 -2,-8 -3,-11l-3 -12 -12 0 -2 37zm57 -37c-7,0 -14,6 -14,19 0,12 6,19 14,19 6,0 14,-4 14,-19 0,-12 -5,-19 -14,-19zm0 7c4,0 5,7 5,12 0,5 -1,11 -5,11 -3,0 -4,-5 -4,-11 0,-5 1,-12 4,-12zm20 44l9 0 0 -17 1 0c1,2 3,4 6,4 6,0 11,-6 11,-19 0,-10 -3,-19 -11,-19 -3,0 -6,2 -8,5l0 0 0 -5 -9 0c0,4 1,8 1,12l0 39zm9 -37c0,-1 0,-2 1,-3 0,-1 2,-3 3,-3 3,0 5,4 5,11 0,5 -2,11 -5,11 -1,0 -2,-1 -3,-3 0,-1 -1,-2 -1,-3l0 -10z"/>
   </g>
   <g>
    <path class="fil0 str0" d="M426 402c-1,0 -2,0 -3,0 -5,0 -8,-4 -8,-10 0,-7 3,-11 8,-11 1,0 3,0 3,1l2 -8c-1,0 -3,-1 -6,-1 -10,0 -16,8 -16,19 0,12 6,18 15,18 3,0 5,0 6,-1l-1 -7zm5 -29l0 37c3,0 6,0 9,0 6,0 11,-1 15,-3 2,-2 4,-5 4,-10 0,-9 -7,-12 -15,-12 -1,0 -2,0 -3,0l0 -12 -10 0zm10 19c0,0 1,0 2,0 3,0 6,2 6,6 0,3 -3,5 -6,5 -1,0 -2,0 -2,0l0 -11zm24 -19l0 37 9 0 0 -15 1 0c2,0 4,2 5,6 0,4 1,7 2,9l10 0c-1,-3 -3,-8 -3,-10 -1,-5 -3,-10 -7,-11l10 -16 -10 0 -7 15 -1 0 0 -15 -9 0zm56 15c0,-7 -2,-15 -13,-15 -5,0 -9,2 -11,3l2 6c2,-1 4,-2 7,-2 4,0 5,2 5,5l0 1c-8,0 -16,4 -16,13 0,7 4,12 9,12 3,0 6,-2 8,-5l0 0 1 4 9 0c-1,-3 -1,-6 -1,-8l0 -14zm-9 11c0,0 -1,1 -1,1 0,2 -2,3 -4,3 -1,0 -3,-1 -3,-5 0,-5 4,-6 8,-6l0 7zm20 20c3,-6 6,-14 8,-20l-10 0c-1,6 -3,14 -5,20l7 0zm48 -9l0 -12 5 0 0 -7 -5 0 0 -29 -10 0 -15 30 0 6 16 0 0 12 9 0zm-17 -19l0 -1 5 -10c1,-2 2,-5 3,-7l1 0c-1,2 -1,5 -1,8l0 10 -8 0zm50 -3c0,-7 -1,-15 -12,-15 -6,0 -10,2 -12,3l2 6c2,-1 5,-2 7,-2 4,0 6,2 6,5l0 1c-9,0 -17,4 -17,13 0,7 4,12 9,12 4,0 7,-2 9,-5l0 0 0 4 9 0c0,-3 -1,-6 -1,-8l0 -14zm-9 11c0,0 0,1 0,1 -1,2 -3,3 -4,3 -2,0 -4,-1 -4,-5 0,-5 5,-6 8,-6l0 7zm-490 46l0 51 10 0 0 -42 13 0 0 -9 -23 0zm22 65l10 0 0 -17 0 0c1,1 3,3 6,3 6,0 12,-6 12,-19 0,-10 -3,-19 -11,-19 -4,0 -6,2 -8,5l0 0 -1 -4 -8 0c0,4 0,7 0,12l0 39zm10 -38c0,0 0,-1 0,-2 1,-2 2,-3 4,-3 3,0 4,3 4,10 0,6 -1,11 -4,11 -2,0 -3,0 -4,-3 0,0 0,-2 0,-3l0 -10zm48 2c0,-8 -2,-15 -13,-15 -5,0 -9,1 -11,2l2 7c2,-1 4,-2 7,-2 4,0 5,2 5,5l0 1c-8,0 -16,3 -16,13 0,7 4,11 9,11 3,0 6,-1 8,-4l0 0 1 4 9 0c-1,-3 -1,-6 -1,-9l0 -13zm-9 10c0,1 -1,1 -1,2 0,2 -2,3 -4,3 -1,0 -3,-1 -3,-5 0,-5 4,-6 8,-6l0 6zm29 -38l0 12c-9,2 -14,9 -14,19 0,11 4,18 14,19l0 14 9 0 -1 -14c10,-1 15,-8 15,-19 0,-10 -5,-17 -15,-19l1 -12 -9 0zm0 44c-4,-1 -6,-7 -6,-13 0,-5 1,-11 6,-13l0 26zm8 -26c5,2 6,8 6,13 0,6 -1,11 -6,13l0 -26zm30 32l0 -37 -10 0 0 37 10 0zm-5 -52c-3,0 -5,2 -5,6 0,3 2,5 5,5 3,0 5,-2 5,-5 0,-4 -2,-6 -5,-6zm12 15l0 37 9 0 0 -16 1 0c3,0 4,3 5,7 1,3 1,7 3,9l9 0c-1,-3 -2,-8 -3,-11 -1,-5 -3,-9 -6,-10l9 -16 -10 0 -6 15 -2 0 0 -15 -9 0zm43 51l9 0 0 -17 1 0c1,1 3,3 6,3 6,0 11,-6 11,-19 0,-10 -3,-19 -11,-19 -3,0 -6,2 -8,5l0 0 0 -4 -9 0c0,4 1,7 1,12l0 39zm9 -38c0,0 0,-1 1,-2 0,-2 2,-3 3,-3 3,0 5,3 5,10 0,6 -2,11 -5,11 -1,0 -2,0 -3,-3 0,0 -1,-2 -1,-3l0 -10zm37 -14c-7,0 -14,6 -14,19 0,12 5,19 14,19 5,0 14,-4 14,-19 0,-11 -6,-19 -14,-19zm0 8c3,0 4,6 4,11 0,6 -1,12 -4,12 -4,0 -5,-6 -5,-12 0,-5 1,-11 5,-11zm44 -23c-1,1 -6,2 -8,2 -7,1 -11,5 -14,9 -3,5 -4,12 -4,20 0,10 3,22 15,22 9,0 14,-8 14,-19 0,-12 -5,-18 -12,-18 -4,0 -7,3 -9,6l0 0c0,-2 1,-5 2,-7 2,-2 4,-4 10,-5 2,0 4,-1 6,-1l0 -9zm-6 35c0,3 -1,11 -5,11 -5,0 -6,-8 -6,-12 0,-2 1,-4 1,-7 1,-2 2,-3 5,-3 4,0 5,6 5,11zm28 -20c-8,0 -15,6 -15,19 0,12 6,19 14,19 6,0 14,-4 14,-19 0,-11 -5,-19 -13,-19zm-1 8c4,0 5,6 5,11 0,6 -1,12 -4,12 -4,0 -5,-6 -5,-12 0,-5 1,-11 4,-11zm17 -7l0 8 8 0 0 29 9 0 0 -29 9 0 0 -8 -26 0zm30 0l0 37 9 0c2,-5 5,-12 6,-14 1,-4 2,-7 3,-11l1 0c-1,5 -1,9 -1,17l0 8 9 0 0 -37 -10 0 -5 14c-1,3 -3,7 -4,11l0 0c0,-4 0,-10 0,-17l0 -8 -8 0zm39 13c4,0 6,-3 6,-6 0,-4 -2,-7 -6,-7 -3,0 -5,3 -5,7 0,3 2,6 5,6zm0 24c4,0 6,-2 6,-6 0,-4 -2,-6 -6,-6 -3,0 -5,3 -5,6 0,4 2,6 5,6zm-341 60c-4,2 -7,7 -7,13 0,7 6,13 14,13 8,0 15,-5 15,-14 0,-6 -3,-11 -8,-13l0 0c5,-3 7,-8 7,-11 0,-7 -6,-12 -13,-12 -7,0 -14,5 -14,13 0,4 2,8 6,11l0 0zm8 19c-4,0 -5,-3 -5,-7 0,-4 1,-7 4,-9 3,1 5,4 5,9 0,4 -1,7 -4,7zm0 -36c3,0 4,3 4,6 0,3 -2,6 -4,7 -2,-2 -4,-4 -4,-7 0,-3 1,-6 4,-6zm25 18c3,0 5,-2 5,-6 0,-4 -2,-6 -5,-6 -3,0 -6,3 -6,6 0,4 3,6 6,6zm0 25c3,0 5,-3 5,-6 0,-4 -2,-7 -5,-7 -3,0 -6,3 -6,7 0,3 3,6 6,6zm24 -50c-10,0 -15,11 -15,25 0,13 4,25 15,25 7,0 14,-8 14,-25 0,-12 -3,-25 -14,-25zm0 9c3,0 4,6 4,16 0,11 -1,16 -4,16 -3,0 -5,-5 -5,-16 0,-11 2,-16 5,-16zm32 -9c-10,0 -15,11 -15,25 0,13 4,25 14,25 8,0 14,-8 14,-25 0,-12 -2,-25 -13,-25zm0 9c3,0 4,6 4,16 0,11 -1,16 -4,16 -4,0 -5,-5 -5,-16 0,-11 1,-16 5,-16zm29 17l0 7 33 0 0 -7 -33 0zm60 23l10 0 0 -48 -8 0 -12 5 2 8 8 -4 0 0 0 39zm45 0l0 -11 5 0 0 -8 -5 0 0 -29 -10 0 -15 30 0 7 16 0 0 11 9 0zm-17 -19l0 0 5 -11c1,-2 2,-4 3,-7l1 0c0,2 -1,5 -1,8l0 10 -8 0zm32 -5c3,0 5,-2 5,-6 0,-4 -2,-6 -5,-6 -3,0 -6,3 -6,6 0,4 3,6 6,6zm0 25c3,0 5,-3 5,-6 0,-4 -2,-7 -5,-7 -3,0 -6,3 -6,7 0,3 3,6 6,6zm24 -50c-10,0 -14,11 -14,25 0,13 3,25 14,25 8,0 14,-8 14,-25 0,-12 -3,-25 -14,-25zm0 9c3,0 4,6 4,16 0,11 -1,16 -4,16 -3,0 -5,-5 -5,-16 0,-11 2,-16 5,-16zm32 -9c-10,0 -15,11 -15,25 0,13 4,25 14,25 8,0 15,-8 15,-25 0,-12 -3,-25 -14,-25zm0 9c3,0 4,6 4,16 0,11 -1,16 -4,16 -4,0 -5,-5 -5,-16 0,-11 2,-16 5,-16z"/>
    <path id="1" class="fil1" d="M426 402c-1,0 -2,0 -3,0 -5,0 -8,-4 -8,-10 0,-7 3,-11 8,-11 1,0 3,0 3,1l2 -8c-1,0 -3,-1 -6,-1 -10,0 -16,8 -16,19 0,12 6,18 15,18 3,0 5,0 6,-1l-1 -7zm5 -29l0 37c3,0 6,0 9,0 6,0 11,-1 15,-3 2,-2 4,-5 4,-10 0,-9 -7,-12 -15,-12 -1,0 -2,0 -3,0l0 -12 -10 0zm10 19c0,0 1,0 2,0 3,0 6,2 6,6 0,3 -3,5 -6,5 -1,0 -2,0 -2,0l0 -11zm24 -19l0 37 9 0 0 -15 1 0c2,0 4,2 5,6 0,4 1,7 2,9l10 0c-1,-3 -3,-8 -3,-10 -1,-5 -3,-10 -7,-11l10 -16 -10 0 -7 15 -1 0 0 -15 -9 0zm56 15c0,-7 -2,-15 -13,-15 -5,0 -9,2 -11,3l2 6c2,-1 4,-2 7,-2 4,0 5,2 5,5l0 1c-8,0 -16,4 -16,13 0,7 4,12 9,12 3,0 6,-2 8,-5l0 0 1 4 9 0c-1,-3 -1,-6 -1,-8l0 -14zm-9 11c0,0 -1,1 -1,1 0,2 -2,3 -4,3 -1,0 -3,-1 -3,-5 0,-5 4,-6 8,-6l0 7zm20 20c3,-6 6,-14 8,-20l-10 0c-1,6 -3,14 -5,20l7 0zm48 -9l0 -12 5 0 0 -7 -5 0 0 -29 -10 0 -15 30 0 6 16 0 0 12 9 0zm-17 -19l0 -1 5 -10c1,-2 2,-5 3,-7l1 0c-1,2 -1,5 -1,8l0 10 -8 0zm50 -3c0,-7 -1,-15 -12,-15 -6,0 -10,2 -12,3l2 6c2,-1 5,-2 7,-2 4,0 6,2 6,5l0 1c-9,0 -17,4 -17,13 0,7 4,12 9,12 4,0 7,-2 9,-5l0 0 0 4 9 0c0,-3 -1,-6 -1,-8l0 -14zm-9 11c0,0 0,1 0,1 -1,2 -3,3 -4,3 -2,0 -4,-1 -4,-5 0,-5 5,-6 8,-6l0 7zm-490 46l0 51 10 0 0 -42 13 0 0 -9 -23 0zm22 65l10 0 0 -17 0 0c1,1 3,3 6,3 6,0 12,-6 12,-19 0,-10 -3,-19 -11,-19 -4,0 -6,2 -8,5l0 0 -1 -4 -8 0c0,4 0,7 0,12l0 39zm10 -38c0,0 0,-1 0,-2 1,-2 2,-3 4,-3 3,0 4,3 4,10 0,6 -1,11 -4,11 -2,0 -3,0 -4,-3 0,0 0,-2 0,-3l0 -10zm48 2c0,-8 -2,-15 -13,-15 -5,0 -9,1 -11,2l2 7c2,-1 4,-2 7,-2 4,0 5,2 5,5l0 1c-8,0 -16,3 -16,13 0,7 4,11 9,11 3,0 6,-1 8,-4l0 0 1 4 9 0c-1,-3 -1,-6 -1,-9l0 -13zm-9 10c0,1 -1,1 -1,2 0,2 -2,3 -4,3 -1,0 -3,-1 -3,-5 0,-5 4,-6 8,-6l0 6zm29 -38l0 12c-9,2 -14,9 -14,19 0,11 4,18 14,19l0 14 9 0 -1 -14c10,-1 15,-8 15,-19 0,-10 -5,-17 -15,-19l1 -12 -9 0zm0 44c-4,-1 -6,-7 -6,-13 0,-5 1,-11 6,-13l0 26zm8 -26c5,2 6,8 6,13 0,6 -1,11 -6,13l0 -26zm30 32l0 -37 -10 0 0 37 10 0zm-5 -52c-3,0 -5,2 -5,6 0,3 2,5 5,5 3,0 5,-2 5,-5 0,-4 -2,-6 -5,-6zm12 15l0 37 9 0 0 -16 1 0c3,0 4,3 5,7 1,3 1,7 3,9l9 0c-1,-3 -2,-8 -3,-11 -1,-5 -3,-9 -6,-10l9 -16 -10 0 -6 15 -2 0 0 -15 -9 0zm43 51l9 0 0 -17 1 0c1,1 3,3 6,3 6,0 11,-6 11,-19 0,-10 -3,-19 -11,-19 -3,0 -6,2 -8,5l0 0 0 -4 -9 0c0,4 1,7 1,12l0 39zm9 -38c0,0 0,-1 1,-2 0,-2 2,-3 3,-3 3,0 5,3 5,10 0,6 -2,11 -5,11 -1,0 -2,0 -3,-3 0,0 -1,-2 -1,-3l0 -10zm37 -14c-7,0 -14,6 -14,19 0,12 5,19 14,19 5,0 14,-4 14,-19 0,-11 -6,-19 -14,-19zm0 8c3,0 4,6 4,11 0,6 -1,12 -4,12 -4,0 -5,-6 -5,-12 0,-5 1,-11 5,-11zm44 -23c-1,1 -6,2 -8,2 -7,1 -11,5 -14,9 -3,5 -4,12 -4,20 0,10 3,22 15,22 9,0 14,-8 14,-19 0,-12 -5,-18 -12,-18 -4,0 -7,3 -9,6l0 0c0,-2 1,-5 2,-7 2,-2 4,-4 10,-5 2,0 4,-1 6,-1l0 -9zm-6 35c0,3 -1,11 -5,11 -5,0 -6,-8 -6,-12 0,-2 1,-4 1,-7 1,-2 2,-3 5,-3 4,0 5,6 5,11zm28 -20c-8,0 -15,6 -15,19 0,12 6,19 14,19 6,0 14,-4 14,-19 0,-11 -5,-19 -13,-19zm-1 8c4,0 5,6 5,11 0,6 -1,12 -4,12 -4,0 -5,-6 -5,-12 0,-5 1,-11 4,-11zm17 -7l0 8 8 0 0 29 9 0 0 -29 9 0 0 -8 -26 0zm30 0l0 37 9 0c2,-5 5,-12 6,-14 1,-4 2,-7 3,-11l1 0c-1,5 -1,9 -1,17l0 8 9 0 0 -37 -10 0 -5 14c-1,3 -3,7 -4,11l0 0c0,-4 0,-10 0,-17l0 -8 -8 0zm39 13c4,0 6,-3 6,-6 0,-4 -2,-7 -6,-7 -3,0 -5,3 -5,7 0,3 2,6 5,6zm0 24c4,0 6,-2 6,-6 0,-4 -2,-6 -6,-6 -3,0 -5,3 -5,6 0,4 2,6 5,6zm-341 60c-4,2 -7,7 -7,13 0,7 6,13 14,13 8,0 15,-5 15,-14 0,-6 -3,-11 -8,-13l0 0c5,-3 7,-8 7,-11 0,-7 -6,-12 -13,-12 -7,0 -14,5 -14,13 0,4 2,8 6,11l0 0zm8 19c-4,0 -5,-3 -5,-7 0,-4 1,-7 4,-9 3,1 5,4 5,9 0,4 -1,7 -4,7zm0 -36c3,0 4,3 4,6 0,3 -2,6 -4,7 -2,-2 -4,-4 -4,-7 0,-3 1,-6 4,-6zm25 18c3,0 5,-2 5,-6 0,-4 -2,-6 -5,-6 -3,0 -6,3 -6,6 0,4 3,6 6,6zm0 25c3,0 5,-3 5,-6 0,-4 -2,-7 -5,-7 -3,0 -6,3 -6,7 0,3 3,6 6,6zm24 -50c-10,0 -15,11 -15,25 0,13 4,25 15,25 7,0 14,-8 14,-25 0,-12 -3,-25 -14,-25zm0 9c3,0 4,6 4,16 0,11 -1,16 -4,16 -3,0 -5,-5 -5,-16 0,-11 2,-16 5,-16zm32 -9c-10,0 -15,11 -15,25 0,13 4,25 14,25 8,0 14,-8 14,-25 0,-12 -2,-25 -13,-25zm0 9c3,0 4,6 4,16 0,11 -1,16 -4,16 -4,0 -5,-5 -5,-16 0,-11 1,-16 5,-16zm29 17l0 7 33 0 0 -7 -33 0zm60 23l10 0 0 -48 -8 0 -12 5 2 8 8 -4 0 0 0 39zm45 0l0 -11 5 0 0 -8 -5 0 0 -29 -10 0 -15 30 0 7 16 0 0 11 9 0zm-17 -19l0 0 5 -11c1,-2 2,-4 3,-7l1 0c0,2 -1,5 -1,8l0 10 -8 0zm32 -5c3,0 5,-2 5,-6 0,-4 -2,-6 -5,-6 -3,0 -6,3 -6,6 0,4 3,6 6,6zm0 25c3,0 5,-3 5,-6 0,-4 -2,-7 -5,-7 -3,0 -6,3 -6,7 0,3 3,6 6,6zm24 -50c-10,0 -14,11 -14,25 0,13 3,25 14,25 8,0 14,-8 14,-25 0,-12 -3,-25 -14,-25zm0 9c3,0 4,6 4,16 0,11 -1,16 -4,16 -3,0 -5,-5 -5,-16 0,-11 2,-16 5,-16zm32 -9c-10,0 -15,11 -15,25 0,13 4,25 14,25 8,0 15,-8 15,-25 0,-12 -3,-25 -14,-25zm0 9c3,0 4,6 4,16 0,11 -1,16 -4,16 -4,0 -5,-5 -5,-16 0,-11 2,-16 5,-16z"/>
   </g>
  </g>
 </g>
</svg>
