<?xml version="1.0" encoding="UTF-8"?>
<!DOCTYPE svg PUBLIC "-//W3C//DTD SVG 1.1//EN" "http://www.w3.org/Graphics/SVG/1.1/DTD/svg11.dtd">
<!-- Creator: CorelDRAW X7 -->
<svg xmlns="http://www.w3.org/2000/svg" xml:space="preserve" width="29.3667mm" height="37.033mm" version="1.1" style="shape-rendering:geometricPrecision; text-rendering:geometricPrecision; image-rendering:optimizeQuality; fill-rule:evenodd; clip-rule:evenodd"
viewBox="0 0 464 585"
 xmlns:xlink="http://www.w3.org/1999/xlink">
 <defs>
  <style type="text/css">
   <![CDATA[
    .fil0 {fill:#E31E24;fill-rule:nonzero}
    .fil1 {fill:#005487;fill-rule:nonzero}
   ]]>
  </style>
 </defs>
 <g id="Слой_x0020_1">
  <metadata id="CorelCorpID_0Corel-Layer"/>
  <g id="_130018256">
   <path class="fil0" d="M48 1l10 31c0,1 1,2 0,3 0,2 -2,5 -5,5 -1,0 -1,0 -2,-1l0 8c1,0 2,0 3,0 4,0 8,-2 10,-6 2,-4 4,-10 5,-16l7 -24 -9 0 -3 17c0,3 -1,5 -1,8l0 0c-1,-2 -1,-5 -2,-8l-4 -17 -9 0zm41 0l0 16c0,8 3,13 11,13 2,0 4,-1 6,-2l0 0 0 19 9 0 0 -46 -9 0 0 21c-1,0 -2,1 -3,1 -4,0 -5,-3 -5,-7l0 -15 -9 0zm55 32c1,-1 1,-2 1,-5 0,-10 -4,-15 -11,-15 -8,0 -14,6 -14,17 0,11 5,17 14,17 4,0 7,-1 9,-2l-1 -6c-2,0 -4,1 -6,1 -4,0 -7,-2 -7,-7l15 0zm-15 -6c0,-4 1,-8 4,-8 3,0 4,4 4,8l-8 0zm21 32l8 0 0 -16 0 0c1,2 3,4 6,4 5,0 11,-6 11,-17 0,-9 -3,-17 -11,-17 -3,0 -5,2 -6,4l-1 0 0 -4 -8 0c0,4 1,7 1,11l0 35zm8 -34c0,0 0,-1 1,-2 0,-1 1,-3 3,-3 2,0 4,4 4,10 0,5 -1,10 -4,10 -1,0 -3,-1 -3,-3 -1,-1 -1,-2 -1,-3l0 -9zm22 -12l0 33 8 0 0 -13 7 0 0 13 9 0 0 -33 -9 0 0 13 -7 0 0 -13 -8 0zm39 33l0 -33 -9 0 0 33 9 0zm-5 -46c-2,0 -4,2 -4,5 0,3 2,5 4,5 3,0 5,-2 5,-5 0,-3 -2,-5 -5,-5zm11 46c2,0 5,1 8,1 7,0 17,-2 17,-10 0,-4 -2,-7 -7,-8l0 0c3,-1 6,-4 6,-8 0,-7 -9,-8 -14,-8 -4,0 -7,0 -10,1l0 32zm8 -27c1,0 2,0 3,0 3,0 5,1 5,3 0,3 -3,5 -6,5l-2 0 0 -8zm0 13l2 0c4,0 7,2 7,5 0,3 -3,4 -6,4 -1,0 -2,0 -3,0l0 -9zm45 1c0,-1 0,-2 0,-5 0,-10 -4,-15 -11,-15 -7,0 -13,6 -13,17 0,11 5,17 14,17 3,0 7,-1 9,-2l-1 -6c-2,0 -4,1 -7,1 -3,0 -6,-2 -7,-7l16 0zm-16 -6c1,-4 2,-8 5,-8 2,0 3,4 3,8l-8 0zm21 -14l0 33 20 0 1 9 6 0 0 -15 -3 0 0 -27 -8 0 0 26 -7 0 0 -26 -9 0zm31 0l0 33c3,0 6,1 9,1 5,0 9,-1 13,-4 2,-2 4,-4 4,-8 0,-8 -6,-11 -14,-11 -1,0 -2,0 -3,0l0 -11 -9 0zm9 17c1,0 1,0 2,0 3,0 6,2 6,5 0,4 -3,5 -6,5 -1,0 -1,0 -2,0l0 -10zm22 -17l0 33 8 0 0 -13 1 0c2,0 3,2 4,5 1,4 2,6 3,8l8 0c-1,-2 -2,-7 -3,-9 0,-4 -2,-8 -5,-9l8 -15 -9 0 -6 14 -1 0 0 -14 -8 0zm36 33l0 -33 -9 0 0 33 9 0zm-4 -46c-3,0 -5,2 -5,5 0,3 2,5 5,5 2,0 4,-2 4,-5 0,-3 -2,-5 -4,-5zm10 13l0 33 9 0c1,-4 4,-10 5,-12 1,-4 2,-6 3,-10l0 0c0,5 0,8 0,15l0 7 8 0 0 -33 -9 0 -5 13c-1,3 -2,6 -3,10l0 0c0,-4 0,-9 0,-15l0 -8 -8 0zm4 -12c0,5 3,8 8,8 6,0 9,-3 9,-8l-5 0c0,2 -1,4 -4,4 -1,0 -2,-2 -3,-4l-5 0zm-243 89c-6,0 -12,5 -12,17 0,11 4,17 12,17 5,0 13,-4 13,-17 0,-11 -5,-17 -13,-17zm0 6c3,0 4,6 4,11 0,4 -1,10 -4,10 -3,0 -4,-5 -4,-10 0,-5 1,-11 4,-11zm40 -20c-1,1 -5,2 -7,2 -6,1 -10,4 -12,8 -3,4 -4,10 -4,18 0,9 2,20 13,20 9,0 13,-8 13,-17 0,-11 -4,-17 -11,-17 -3,0 -6,3 -8,6l0 0c0,-3 1,-5 2,-6 1,-3 3,-4 9,-5 2,0 4,-1 5,-1l0 -8zm-6 31c0,3 0,10 -4,10 -4,0 -5,-7 -5,-11 0,-1 0,-3 1,-5 1,-2 2,-4 4,-4 4,0 4,6 4,10zm15 -17l0 15c0,3 0,7 -1,9 -1,2 -2,2 -3,3l1 7c2,0 3,-1 5,-1 6,-3 6,-10 6,-18l0 -7 5 0 0 25 9 0 0 -33 -22 0zm50 14c0,-7 -1,-14 -11,-14 -5,0 -9,1 -10,2l1 6c2,-1 4,-2 7,-2 3,0 4,2 4,5l0 1c-7,0 -15,3 -15,12 0,6 4,10 9,10 3,0 6,-2 7,-4l1 0 0 3 8 0c-1,-2 -1,-5 -1,-7l0 -12zm-8 9c0,0 0,1 0,1 -1,2 -3,3 -4,3 -1,0 -3,-1 -3,-4 0,-5 4,-6 7,-6l0 6zm32 3c-1,0 -2,0 -3,0 -4,0 -7,-3 -7,-9 0,-6 3,-10 7,-10 1,0 2,1 3,1l1 -7c-1,-1 -3,-1 -5,-1 -9,0 -15,7 -15,17 0,11 6,17 14,17 3,0 5,-1 6,-1l-1 -7zm4 -26l0 8 7 0 0 25 9 0 0 -25 7 0 0 -8 -23 0zm36 33l0 -33 -9 0 0 33 9 0zm-5 -46c-2,0 -4,2 -4,5 0,3 2,5 4,5 3,0 5,-2 5,-5 0,-3 -2,-5 -5,-5zm16 25c3,0 5,-3 5,-6 0,-3 -2,-5 -5,-5 -3,0 -5,2 -5,5 0,3 2,6 5,6zm0 22c3,0 5,-3 5,-6 0,-3 -2,-5 -5,-5 -3,0 -5,2 -5,5 0,3 2,6 5,6zm-265 339l0 45 8 0 0 -38 12 0 0 -7 -20 0zm20 58l8 0 0 -16 1 0c1,2 2,3 5,3 6,0 11,-5 11,-16 0,-10 -3,-17 -10,-17 -4,0 -6,1 -7,4l0 0 -1 -4 -8 0c1,3 1,7 1,11l0 35zm8 -34c0,-1 1,-1 1,-2 0,-2 1,-3 3,-3 2,0 4,3 4,10 0,5 -1,9 -4,9 -1,0 -2,0 -3,-2 0,-1 -1,-2 -1,-3l0 -9zm44 1c0,-6 -2,-13 -12,-13 -4,0 -8,1 -10,2l2 6c2,-1 4,-2 6,-2 3,0 5,2 5,5l0 0c-8,0 -15,4 -15,13 0,5 4,9 8,9 3,0 6,-1 8,-3l0 0 0 3 8 0c0,-2 0,-5 0,-8l0 -12zm-9 10c0,0 0,1 0,1 -1,2 -2,3 -4,3 -1,0 -3,-1 -3,-4 0,-5 4,-6 7,-6l0 6zm26 -35l1 12c-9,1 -13,7 -13,17 0,9 4,15 13,17l-1 12 8 0 0 -12c9,-2 13,-8 13,-17 0,-10 -4,-16 -13,-17l0 -12 -8 0zm1 40c-4,-1 -5,-6 -5,-12 0,-4 0,-9 5,-11l0 23zm7 -23c4,2 5,7 5,11 0,6 -1,11 -5,12l0 -23zm27 28l0 -33 -9 0 0 33 9 0zm-5 -46c-2,0 -4,2 -4,5 0,2 2,4 4,4 3,0 5,-2 5,-4 0,-3 -2,-5 -5,-5zm11 13l0 33 9 0 0 -14 0 0c2,0 4,3 4,6 1,3 2,6 3,8l9 0c-1,-2 -3,-7 -3,-9 -1,-5 -3,-9 -6,-10l8 -14 -9 0 -5 13 -1 0 0 -13 -9 0zm38 46l9 0 0 -16 0 0c1,2 3,3 6,3 5,0 10,-5 10,-16 0,-10 -3,-17 -10,-17 -3,0 -5,1 -7,4l0 0 0 -4 -8 0c0,3 0,7 0,11l0 35zm9 -34c0,-1 0,-1 1,-2 0,-2 1,-3 2,-3 3,0 5,3 5,10 0,5 -1,9 -5,9 -1,0 -2,0 -2,-2 -1,-1 -1,-2 -1,-3l0 -9zm33 -12c-7,0 -13,5 -13,17 0,10 5,16 13,16 5,0 12,-3 12,-17 0,-10 -4,-16 -12,-16zm0 6c3,0 4,6 4,10 0,5 -1,11 -4,11 -3,0 -4,-5 -4,-11 0,-4 1,-10 4,-10zm40 -20c-2,1 -6,1 -8,2 -6,1 -10,4 -12,8 -3,4 -4,10 -4,17 0,9 3,21 14,21 8,0 13,-8 13,-18 0,-10 -5,-16 -11,-16 -4,0 -7,3 -8,5l0 0c0,-2 0,-4 1,-5 2,-3 4,-5 9,-5 2,-1 4,-1 5,-1l1 -8zm-6 31c0,3 -1,10 -5,10 -3,0 -4,-7 -4,-11 0,-1 0,-4 1,-6 0,-1 1,-3 3,-3 4,0 5,6 5,10zm25 -17c-7,0 -13,5 -13,17 0,10 5,16 13,16 5,0 12,-3 12,-17 0,-10 -4,-16 -12,-16zm0 6c3,0 4,6 4,10 0,5 -1,11 -4,11 -3,0 -4,-5 -4,-11 0,-4 1,-10 4,-10zm14 -6l0 7 8 0 0 26 8 0 0 -26 8 0 0 -7 -24 0zm27 0l0 33 9 0c1,-4 4,-10 5,-13 1,-3 2,-5 3,-9l0 0c0,4 0,8 0,15l0 7 8 0 0 -33 -9 0 -4 13c-2,2 -3,6 -4,9l0 0c0,-3 0,-9 0,-15l0 -7 -8 0zm36 12c3,0 5,-3 5,-6 0,-3 -2,-6 -5,-6 -3,0 -5,3 -5,6 0,3 2,6 5,6zm0 21c3,0 5,-2 5,-5 0,-3 -2,-6 -5,-6 -3,0 -5,3 -5,6 0,3 2,5 5,5zm-306 54c-4,2 -7,6 -7,12 0,7 5,11 13,11 7,0 13,-4 13,-12 0,-5 -3,-9 -7,-12l0 0c5,-3 6,-7 6,-9 0,-7 -5,-11 -11,-11 -7,0 -13,4 -13,11 0,4 2,7 6,10l0 0zm6 18c-3,0 -4,-4 -4,-7 0,-4 1,-6 3,-8 3,1 5,4 5,8 0,4 -1,7 -4,7zm0 -33c3,0 4,2 4,5 0,3 -1,6 -3,7 -3,-2 -4,-4 -4,-7 0,-3 1,-5 3,-5zm23 16c3,0 5,-2 5,-5 0,-3 -3,-6 -5,-6 -3,0 -5,3 -5,6 0,3 2,5 5,5zm0 22c3,0 5,-2 5,-5 0,-3 -3,-6 -5,-6 -3,0 -5,3 -5,6 0,3 2,5 5,5zm21 -44c-9,0 -13,10 -13,22 0,12 4,22 13,22 7,0 13,-6 13,-22 0,-10 -2,-22 -13,-22zm0 7c3,0 4,6 4,15 0,10 -1,15 -4,15 -3,0 -4,-5 -4,-15 0,-10 2,-15 4,-15zm29 -7c-9,0 -13,10 -13,22 0,12 3,22 13,22 7,0 12,-6 12,-22 0,-10 -2,-22 -12,-22zm0 7c3,0 4,6 4,15 0,10 -1,15 -4,15 -3,0 -4,-5 -4,-15 0,-10 1,-15 4,-15zm27 16l0 6 29 0 0 -6 -29 0zm54 21l8 0 0 -44 -7 0 -10 6 1 6 8 -3 0 0 0 35zm42 0l0 -8 -14 0 0 0 3 -3c5,-6 10,-12 10,-21 0,-6 -3,-12 -13,-12 -4,0 -7,1 -9,3l1 6c2,-1 4,-2 7,-2 3,0 5,3 5,6 0,6 -4,12 -10,19l-4 6 0 6 24 0zm11 -22c3,0 5,-2 5,-5 0,-3 -2,-6 -5,-6 -3,0 -5,3 -5,6 0,3 2,5 5,5zm0 22c3,0 5,-2 5,-5 0,-3 -2,-6 -5,-6 -3,0 -5,3 -5,6 0,3 2,5 5,5zm22 -44c-9,0 -13,10 -13,22 0,12 3,22 13,22 7,0 12,-6 12,-22 0,-10 -2,-22 -12,-22zm0 7c3,0 3,6 3,15 0,10 -1,15 -3,15 -3,0 -4,-5 -4,-15 0,-10 1,-15 4,-15zm28 -7c-9,0 -13,10 -13,22 0,12 4,22 13,22 7,0 13,-6 13,-22 0,-10 -3,-22 -13,-22zm0 7c3,0 4,6 4,15 0,10 -1,15 -4,15 -3,0 -4,-5 -4,-15 0,-10 1,-15 4,-15z"/>
   <path class="fil1" d="M78 192c-1,0 -3,1 -4,1 -5,0 -9,-4 -9,-15 0,-11 4,-16 9,-16 2,0 3,1 4,1l2 -7c-1,-1 -3,-1 -7,-1 -8,0 -18,6 -18,23 0,13 6,22 17,22 3,0 6,0 7,-1l-1 -7zm13 8l8 0 0 -37 8 0 0 -8 -24 0 0 8 8 0 0 37zm32 -46c-10,0 -15,11 -15,23 0,13 4,24 15,24 8,0 14,-7 14,-24 0,-11 -3,-23 -14,-23zm0 8c4,0 5,7 5,15 0,9 -1,16 -5,16 -4,0 -5,-5 -5,-15 0,-10 1,-16 5,-16zm20 38l9 0 0 -17c0,0 1,0 1,0 4,0 8,-1 11,-4 3,-2 4,-6 4,-11 0,-4 -1,-7 -4,-10 -3,-2 -7,-3 -12,-3 -3,0 -7,0 -9,1l0 44zm9 -38c0,0 1,0 2,0 4,0 5,3 5,7 0,4 -2,7 -6,7 0,0 -1,0 -1,0l0 -14zm34 -8c-10,0 -15,11 -15,23 0,13 4,24 14,24 9,0 15,-7 15,-24 0,-11 -3,-23 -14,-23zm0 8c4,0 5,7 5,15 0,9 -1,16 -5,16 -4,0 -6,-5 -6,-15 0,-10 2,-16 6,-16zm15 -7l13 21c-7,1 -9,7 -10,12 -1,4 -2,8 -3,12l9 0c1,-3 1,-6 2,-9 1,-5 3,-10 8,-10l0 0 0 19 8 0 0 -19 1 0c5,0 7,5 8,10 0,3 1,6 2,9l9 0c-2,-4 -3,-8 -4,-12 -1,-5 -3,-11 -9,-12l12 -21 -10 0 -8 19 -1 0 0 -19 -8 0 0 19 0 0 -9 -19 -10 0zm51 0l0 45 8 0 6 -17c2,-4 4,-9 5,-13l0 0c0,4 -1,11 -1,20l0 10 8 0 0 -45 -8 0 -7 17c-1,4 -3,10 -4,14l-1 0c1,-5 1,-13 1,-21l0 -10 -7 0zm34 0l0 45 9 0 0 -19 9 0 0 19 9 0 0 -45 -9 0 0 18 -9 0 0 -18 -9 0zm53 18l-10 0 0 -10 11 0 0 -8 -20 0 0 45 21 0 0 -8 -12 0 0 -12 10 0 0 -7zm8 -18l0 45 22 0 1 10 6 0 1 -17 -4 0 0 -38 -9 0 0 37 -9 0 0 -37 -8 0zm35 0l0 45c2,0 4,0 8,0 6,0 11,-1 14,-4 2,-3 4,-6 4,-11 0,-8 -6,-13 -14,-13 -2,0 -3,0 -4,0l0 -17 -8 0zm8 24c1,0 2,0 2,0 5,0 7,3 7,7 0,4 -2,7 -7,7 -1,0 -1,0 -2,0l0 -14zm-390 98c2,0 5,0 8,0 7,0 17,-1 17,-10 0,-3 -2,-7 -7,-7l0 -1c3,0 6,-3 6,-7 0,-7 -9,-8 -14,-8 -4,0 -7,0 -10,0l0 33zm8 -27c1,0 2,-1 3,-1 3,0 5,2 5,4 0,3 -3,4 -6,4l-2 0 0 -7zm0 13l3 0c3,0 6,1 6,4 0,4 -3,5 -6,5 -1,0 -2,0 -3,0l0 -9zm19 -19l9 31c0,0 0,0 0,1 0,0 0,1 -1,1 0,2 -1,3 -2,4 -2,1 -3,2 -5,3l3 7c1,0 5,-1 7,-5 4,-4 6,-10 8,-16l6 -26 -8 0 -3 18c0,1 -1,3 -1,5l0 0c0,-2 0,-4 -1,-6l-3 -17 -9 0zm30 0l0 15c0,3 -1,7 -2,9 -1,1 -1,2 -3,3l2 7c1,0 3,-1 4,-1 6,-3 7,-10 7,-19l0 -7 5 0 0 26 8 0 0 -33 -21 0zm33 34c3,0 5,-3 5,-6 0,-4 -2,-6 -5,-6 -3,0 -5,2 -5,6 0,3 2,6 5,6zm22 -1c2,0 4,0 8,0 7,0 12,-1 15,-4 2,-2 3,-5 3,-9 0,-5 -3,-9 -8,-11l0 0c4,-2 6,-6 6,-10 0,-3 -1,-6 -3,-8 -3,-3 -7,-3 -11,-3 -4,0 -8,0 -10,1l0 44zm8 -38c1,-1 2,-1 3,-1 3,0 5,3 5,6 0,4 -3,6 -6,6l-2 0 0 -11zm0 18l2 0c4,0 7,2 7,7 0,4 -3,7 -7,7 0,0 -1,0 -2,-1l0 -13zm23 -13l0 33 8 0c2,-4 5,-10 6,-13 1,-3 2,-5 3,-9l0 0c0,5 -1,8 -1,15l0 7 8 0 0 -33 -8 0 -5 13c-1,2 -2,6 -3,9l-1 0c1,-3 1,-9 1,-15l0 -7 -8 0zm34 0l0 9c0,4 0,8 -1,11 -1,2 -1,5 -2,7l-3 0 0 15 7 0 0 -9 16 0 1 9 6 0 0 -15 -3 0 0 -27 -21 0zm8 7l5 0 0 19 -8 0c1,-2 2,-4 2,-6 0,-3 1,-7 1,-10l0 -3zm20 -7l0 33 9 0c1,-4 4,-10 5,-13 1,-3 2,-5 3,-9l0 0c0,5 0,8 0,15l0 7 8 0 0 -33 -9 0 -5 13c-1,2 -2,6 -3,9l0 0c0,-3 0,-9 0,-15l0 -7 -8 0zm31 0l0 33 9 0 0 -13 6 0 0 13 9 0 0 -33 -9 0 0 13 -6 0 0 -13 -9 0zm39 33l0 -33 -9 0 0 33 9 0zm-4 -46c-3,0 -5,2 -5,5 0,3 2,4 5,4 2,0 4,-1 4,-4 0,-3 -2,-5 -4,-5zm10 46c2,0 5,0 8,0 7,0 18,-1 18,-10 0,-3 -3,-7 -8,-7l0 -1c3,0 6,-3 6,-7 0,-7 -8,-8 -14,-8 -4,0 -7,0 -10,0l0 33zm9 -27c0,0 1,-1 2,-1 3,0 5,2 5,4 0,3 -2,4 -5,4l-2 0 0 -7zm0 13l2 0c3,0 6,1 6,4 0,4 -3,5 -6,5 -1,0 -2,0 -2,0l0 -9zm39 7c-1,0 -2,0 -4,0 -4,0 -6,-3 -6,-9 0,-6 2,-10 7,-10 1,0 2,0 3,1l1 -7c-1,-1 -3,-1 -5,-1 -9,0 -15,7 -15,17 0,11 6,16 14,16 2,0 5,0 6,0l-1 -7zm4 -26l0 33c2,0 6,0 8,0 5,0 10,0 13,-3 3,-2 4,-4 4,-8 0,-8 -6,-12 -13,-12 -1,0 -2,1 -3,1l0 -11 -9 0zm9 17c0,0 1,0 1,0 4,0 7,1 7,5 0,3 -3,5 -7,5 0,0 -1,0 -1,0l0 -10zm21 -17l0 33 9 0 0 -13 0 0c3,0 4,2 5,5 0,3 1,6 2,8l9 0c-1,-2 -3,-7 -3,-9 -1,-4 -3,-8 -6,-10l9 -14 -10 0 -5 13 -1 0 0 -13 -9 0zm39 0c-7,0 -13,5 -13,17 0,10 5,17 13,17 5,0 12,-4 12,-17 0,-11 -4,-17 -12,-17zm0 6c3,0 4,6 4,11 0,4 -1,10 -4,10 -3,0 -4,-5 -4,-10 0,-5 1,-11 4,-11zm17 -6l0 33 9 0 0 -25 9 0 0 -8 -18 0zm33 0c-7,0 -13,5 -13,17 0,10 5,17 13,17 5,0 12,-4 12,-17 0,-11 -4,-17 -12,-17zm0 6c3,0 4,6 4,11 0,4 -1,10 -4,10 -3,0 -4,-5 -4,-10 0,-5 1,-11 4,-11zm-347 59l0 45 9 0 0 -19 0 0c4,0 5,3 6,9 1,3 2,7 3,10l8 0c-1,-4 -2,-8 -3,-13 -1,-5 -2,-9 -7,-11l10 -21 -9 0 -8 20 0 0 0 -20 -9 0zm34 0l0 20c0,9 -1,14 -3,17 -1,1 -2,1 -3,1l2 8c2,0 4,-1 6,-2 5,-5 6,-14 6,-25l0 -11 7 0 0 37 8 0 0 -45 -23 0zm31 0l0 45 9 0 0 -45 -9 0zm17 0l0 45 40 0 0 -45 -8 0 0 37 -8 0 0 -37 -8 0 0 37 -8 0 0 -37 -8 0zm48 0l0 45 9 0 0 -19 0 0c4,0 5,3 6,9 1,3 1,7 3,10l8 0c-1,-4 -2,-8 -3,-13 -1,-5 -3,-9 -7,-11l10 -21 -10 0 -7 20 0 0 0 -20 -9 0zm30 0l0 45 9 0 0 -45 -9 0zm17 45c2,0 5,0 8,0 8,0 12,-1 15,-4 2,-2 3,-5 3,-9 0,-5 -3,-9 -8,-11l0 0c5,-2 7,-6 7,-10 0,-3 -1,-6 -4,-8 -3,-3 -7,-3 -11,-3 -4,0 -7,0 -10,1l0 44zm9 -38c0,-1 1,-1 2,-1 4,0 5,3 5,6 0,4 -2,6 -5,6l-2 0 0 -11zm0 18l2 0c3,0 6,2 6,7 0,4 -3,7 -6,7 -1,0 -2,0 -2,-1l0 -13zm23 -25l0 45 23 0 0 10 7 0 0 -17 -3 0 0 -38 -9 0 0 37 -9 0 0 -37 -9 0zm35 0l0 45 9 0 0 -45 -9 0zm-343 122c1,0 4,0 8,0 6,0 17,-1 17,-10 0,-4 -3,-7 -8,-7l0 -1c4,0 7,-3 7,-7 0,-7 -9,-8 -15,-8 -3,0 -7,0 -9,0l0 33zm8 -27c1,-1 1,-1 2,-1 3,0 5,2 5,4 0,3 -2,4 -5,4l-2 0 0 -7zm0 13l2 0c3,0 6,1 6,4 0,4 -3,5 -6,5 -1,0 -1,0 -2,-1l0 -8zm18 -19l9 31c0,0 0,0 0,1 0,0 0,1 0,1 -1,2 -2,3 -3,4 -1,1 -3,2 -4,3l2 7c2,0 5,-2 8,-5 3,-4 6,-10 7,-16l7 -26 -9 0 -2 17c-1,2 -1,4 -1,6l0 0c-1,-2 -1,-4 -1,-6l-4 -17 -9 0zm30 0l0 15c0,3 0,7 -1,9 -1,1 -2,2 -3,3l1 7c1,0 3,-1 5,-1 5,-3 6,-10 6,-19l0 -7 5 0 0 26 9 0 0 -33 -22 0zm33 33c3,0 5,-2 5,-5 0,-4 -2,-6 -5,-6 -2,0 -5,2 -5,6 0,3 3,5 5,5zm43 -8c-1,0 -3,1 -4,1 -6,0 -10,-5 -10,-15 0,-12 5,-16 10,-16 2,0 3,1 4,1l1 -7c-1,-1 -3,-2 -6,-2 -9,0 -18,7 -18,24 0,13 5,22 17,22 3,0 5,0 7,-1l-1 -7zm1 -25l0 7 7 0 0 26 9 0 0 -26 7 0 0 -7 -23 0zm27 46l8 0 0 -16 1 0c1,2 2,3 5,3 6,0 11,-5 11,-16 0,-10 -3,-17 -10,-17 -3,0 -6,1 -7,4l0 0 -1 -4 -8 0c1,3 1,7 1,11l0 35zm8 -34c0,-1 1,-1 1,-2 0,-2 2,-3 3,-3 2,0 4,3 4,10 0,5 -1,9 -4,9 -1,0 -2,0 -3,-2 0,-1 -1,-2 -1,-3l0 -9zm18 -12l9 31c0,0 0,0 0,1 0,0 0,1 0,1 -1,2 -2,3 -3,4 -1,1 -3,2 -4,3l2 7c2,0 5,-2 8,-5 3,-4 6,-10 7,-16l7 -26 -9 0 -2 17c-1,2 -1,4 -1,6l0 0c-1,-2 -1,-4 -1,-6l-4 -17 -9 0zm28 33l8 0 0 -11c0,-4 0,-8 0,-14l0 0c1,3 2,9 3,13l3 11 7 0 2 -11c1,-5 3,-11 3,-13l0 0c0,7 1,10 1,14l0 11 8 0 -2 -33 -11 0 -2 11c-1,2 -1,5 -2,9l0 0c-1,-4 -2,-7 -2,-9l-3 -11 -11 0 -2 33zm49 0l0 -33 -9 0 0 33 9 0zm-4 -46c-3,0 -5,2 -5,5 0,2 2,4 5,4 2,0 4,-2 4,-4 0,-3 -2,-5 -4,-5zm10 13l0 33 9 0 0 -13 7 0 0 13 9 0 0 -33 -9 0 0 13 -7 0 0 -13 -9 0zm48 26c-1,0 -2,0 -3,0 -4,0 -7,-3 -7,-9 0,-6 3,-10 7,-10 2,0 3,0 3,1l2 -7c-1,-1 -3,-1 -5,-1 -9,0 -15,7 -15,17 0,11 5,16 13,16 3,0 5,0 6,-1l-1 -6zm4 -26l0 33c3,0 6,0 9,0 5,0 9,0 13,-3 2,-2 4,-5 4,-8 0,-8 -6,-12 -14,-12 -1,0 -2,0 -3,1l0 -11 -9 0zm9 17c1,0 1,0 2,0 3,0 6,1 6,5 0,3 -3,5 -6,5 -1,0 -1,0 -2,0l0 -10zm22 -17l0 33 8 0 0 -14 1 0c2,0 3,3 4,6 1,3 2,6 3,8l8 0c-1,-2 -2,-7 -3,-9 0,-5 -2,-9 -5,-10l8 -14 -9 0 -6 13 -1 0 0 -13 -8 0zm38 0c-6,0 -12,5 -12,17 0,10 5,16 12,16 5,0 13,-3 13,-16 0,-11 -5,-17 -13,-17zm0 6c3,0 4,6 4,11 0,4 -1,10 -3,10 -4,0 -4,-5 -4,-10 0,-5 0,-11 3,-11zm18 -6l0 33 9 0 0 -26 9 0 0 -7 -18 0zm32 0c-6,0 -12,5 -12,17 0,10 4,16 12,16 5,0 13,-3 13,-16 0,-11 -5,-17 -13,-17zm0 6c3,0 4,6 4,11 0,4 -1,10 -4,10 -3,0 -4,-5 -4,-10 0,-5 1,-11 4,-11z"/>
  </g>
 </g>
</svg>
