<?xml version="1.0" encoding="UTF-8"?>
<!DOCTYPE svg PUBLIC "-//W3C//DTD SVG 1.1//EN" "http://www.w3.org/Graphics/SVG/1.1/DTD/svg11.dtd">
<!-- Creator: CorelDRAW X7 -->
<svg xmlns="http://www.w3.org/2000/svg" xml:space="preserve" width="31.0266mm" height="37.533mm" version="1.1" style="shape-rendering:geometricPrecision; text-rendering:geometricPrecision; image-rendering:optimizeQuality; fill-rule:evenodd; clip-rule:evenodd"
viewBox="0 0 605 732"
 xmlns:xlink="http://www.w3.org/1999/xlink">
 <defs>
  <style type="text/css">
   <![CDATA[
    .str0 {stroke:#FEFEFE;stroke-width:9.75032;stroke-linecap:round;stroke-linejoin:round}
    .fil0 {fill:none;fill-rule:nonzero}
    .fil1 {fill:#E31E24;fill-rule:nonzero}
    .fil2 {fill:#005487;fill-rule:nonzero}
   ]]>
  </style>
 </defs>
 <g id="Слой_x0020_1">
  <metadata id="CorelCorpID_0Corel-Layer"/>
  <g id="_820147360">
   <g>
    <path class="fil0 str0" d="M76 6l13 39c0,1 0,2 0,3 -1,3 -4,6 -6,6 -2,0 -2,0 -3,0l0 8c1,1 2,1 4,1 5,0 9,-3 11,-7 3,-5 5,-13 7,-20l8 -30 -11 0 -3 21c-1,3 -1,7 -2,9l0 0c0,-2 -1,-5 -2,-8l-5 -22 -11 0zm51 0l0 20c0,10 3,16 13,16 3,0 5,-1 8,-2l0 0 0 22 11 0 0 -56 -11 0 0 26c-1,0 -3,1 -5,1 -4,0 -6,-3 -6,-8l0 -19 -10 0zm68 39c0,-1 0,-2 0,-5 0,-12 -5,-19 -13,-19 -10,0 -17,8 -17,21 0,13 6,20 17,20 5,0 9,0 11,-1l-1 -8c-2,0 -5,1 -8,1 -4,0 -8,-2 -8,-9l19 0zm-19 -7c0,-4 1,-9 5,-9 3,0 4,4 4,9l-9 0zm25 40l11 0 0 -19 0 0c1,1 4,3 7,3 7,0 13,-6 13,-20 0,-12 -4,-21 -12,-21 -4,0 -7,2 -9,5l0 0 -1 -5 -9 0c0,4 0,8 0,13l0 44zm11 -42c0,-1 0,-2 1,-3 0,-2 2,-3 3,-3 3,0 5,4 5,12 0,6 -1,12 -5,12 -1,0 -2,-1 -3,-3 -1,-1 -1,-3 -1,-4l0 -11zm26 -15l0 41 11 0 0 -16 9 0 0 16 10 0 0 -41 -10 0 0 16 -9 0 0 -16 -11 0zm49 41l0 -41 -11 0 0 41 11 0zm-6 -57c-3,0 -5,2 -5,6 0,3 2,6 5,6 3,0 6,-3 6,-6 0,-4 -3,-6 -6,-6zm13 57c3,0 6,0 10,0 9,0 22,-1 22,-12 0,-5 -4,-9 -10,-10l0 0c4,-1 8,-4 8,-9 0,-9 -11,-10 -18,-10 -4,0 -8,0 -12,1l0 40zm11 -34c1,0 1,0 3,0 3,0 6,1 6,5 0,3 -3,5 -7,5l-2 0 0 -10zm0 17l2 0c5,0 8,1 8,5 0,4 -4,5 -8,5 0,0 -2,0 -2,0l0 -10zm55 0c0,-1 0,-2 0,-5 0,-12 -5,-19 -14,-19 -9,0 -16,8 -16,21 0,13 6,20 17,20 4,0 8,0 11,-1l-1 -8c-2,0 -5,1 -8,1 -5,0 -8,-2 -8,-9l19 0zm-19 -7c0,-4 1,-9 5,-9 3,0 4,4 4,9l-9 0zm25 -17l0 41 25 0 0 11 8 0 1 -19 -4 0 0 -33 -11 0 0 32 -8 0 0 -32 -11 0zm39 0l0 41c3,0 7,0 10,0 6,0 12,-1 16,-4 3,-2 5,-5 5,-10 0,-10 -8,-14 -17,-14 -1,0 -2,0 -4,0l0 -13 -10 0zm10 21c1,0 2,0 3,0 3,0 7,2 7,6 0,4 -3,6 -7,6 -1,0 -2,0 -3,0l0 -12zm27 -21l0 41 11 0 0 -17 0 0c3,0 5,3 6,7 1,4 1,8 3,10l10 0c-1,-3 -3,-9 -3,-12 -1,-5 -3,-10 -7,-11l10 -18 -11 0 -7 17 -1 0 0 -17 -11 0zm45 41l0 -41 -11 0 0 41 11 0zm-5 -57c-3,0 -6,2 -6,6 0,3 2,6 5,6 4,0 6,-3 6,-6 0,-4 -2,-6 -5,-6zm13 16l0 41 10 0c2,-5 5,-13 6,-16 2,-4 3,-7 4,-11l1 0c-1,5 -1,10 -1,18l0 9 10 0 0 -41 -11 0 -6 16c-1,3 -3,8 -4,12l0 0c0,-4 0,-11 0,-19l0 -9 -9 0zm4 -15c0,6 4,10 10,10 7,0 11,-4 11,-10l-7 0c0,3 -1,5 -3,5 -3,0 -4,-2 -4,-5l-7 0zm-299 110c-8,0 -16,6 -16,21 0,13 6,20 16,20 6,0 15,-4 15,-21 0,-12 -6,-20 -15,-20zm0 8c3,0 4,7 4,12 0,6 -1,13 -4,13 -4,0 -5,-6 -5,-13 0,-5 1,-12 5,-12zm49 -25c-2,1 -7,2 -9,2 -8,1 -12,5 -15,10 -4,5 -5,13 -5,22 0,11 3,25 16,25 11,0 16,-10 16,-22 0,-13 -5,-20 -13,-20 -4,0 -8,3 -10,7l0 0c0,-3 1,-5 2,-7 2,-3 5,-5 11,-6 3,-1 5,-1 7,-2l0 -9zm-7 38c0,4 -1,12 -6,12 -4,0 -5,-8 -5,-13 0,-2 0,-5 1,-7 0,-2 2,-4 4,-4 5,0 6,7 6,12zm18 -21l0 18c0,5 0,10 -2,12 0,1 -1,3 -3,3l1 9c2,0 4,-1 6,-2 7,-3 8,-11 8,-22l0 -9 6 0 0 32 11 0 0 -41 -27 0zm62 17c0,-9 -2,-17 -14,-17 -6,0 -11,2 -13,3l2 7c2,-1 5,-2 8,-2 4,0 6,2 6,5l0 1c-9,0 -19,5 -19,15 0,7 5,12 11,12 4,0 7,-1 9,-4l0 0 1 4 9 0c0,-3 0,-6 0,-9l0 -15zm-11 11c0,1 0,1 0,2 -1,2 -3,4 -4,4 -2,0 -4,-2 -4,-6 0,-6 5,-7 8,-7l0 7zm40 4c-1,0 -2,0 -4,0 -5,0 -8,-4 -8,-11 0,-7 3,-12 8,-12 2,0 3,0 4,0l2 -8c-2,-1 -4,-1 -6,-1 -12,0 -19,9 -19,21 0,13 7,20 17,20 3,0 6,0 7,-1l-1 -8zm5 -32l0 9 9 0 0 32 11 0 0 -32 9 0 0 -9 -29 0zm44 41l0 -41 -11 0 0 41 11 0zm-6 -57c-2,0 -5,2 -5,6 0,3 2,6 5,6 4,0 6,-3 6,-6 0,-4 -2,-6 -6,-6zm20 30c4,0 6,-2 6,-6 0,-5 -2,-7 -6,-7 -3,0 -6,3 -6,7 0,4 3,6 6,6zm0 27c4,0 6,-2 6,-6 0,-5 -2,-7 -6,-7 -3,0 -6,3 -6,7 0,4 3,6 6,6z"/>
    <path id="1" class="fil1" d="M76 6l13 39c0,1 0,2 0,3 -1,3 -4,6 -6,6 -2,0 -2,0 -3,0l0 8c1,1 2,1 4,1 5,0 9,-3 11,-7 3,-5 5,-13 7,-20l8 -30 -11 0 -3 21c-1,3 -1,7 -2,9l0 0c0,-2 -1,-5 -2,-8l-5 -22 -11 0zm51 0l0 20c0,10 3,16 13,16 3,0 5,-1 8,-2l0 0 0 22 11 0 0 -56 -11 0 0 26c-1,0 -3,1 -5,1 -4,0 -6,-3 -6,-8l0 -19 -10 0zm68 39c0,-1 0,-2 0,-5 0,-12 -5,-19 -13,-19 -10,0 -17,8 -17,21 0,13 6,20 17,20 5,0 9,0 11,-1l-1 -8c-2,0 -5,1 -8,1 -4,0 -8,-2 -8,-9l19 0zm-19 -7c0,-4 1,-9 5,-9 3,0 4,4 4,9l-9 0zm25 40l11 0 0 -19 0 0c1,1 4,3 7,3 7,0 13,-6 13,-20 0,-12 -4,-21 -12,-21 -4,0 -7,2 -9,5l0 0 -1 -5 -9 0c0,4 0,8 0,13l0 44zm11 -42c0,-1 0,-2 1,-3 0,-2 2,-3 3,-3 3,0 5,4 5,12 0,6 -1,12 -5,12 -1,0 -2,-1 -3,-3 -1,-1 -1,-3 -1,-4l0 -11zm26 -15l0 41 11 0 0 -16 9 0 0 16 10 0 0 -41 -10 0 0 16 -9 0 0 -16 -11 0zm49 41l0 -41 -11 0 0 41 11 0zm-6 -57c-3,0 -5,2 -5,6 0,3 2,6 5,6 3,0 6,-3 6,-6 0,-4 -3,-6 -6,-6zm13 57c3,0 6,0 10,0 9,0 22,-1 22,-12 0,-5 -4,-9 -10,-10l0 0c4,-1 8,-4 8,-9 0,-9 -11,-10 -18,-10 -4,0 -8,0 -12,1l0 40zm11 -34c1,0 1,0 3,0 3,0 6,1 6,5 0,3 -3,5 -7,5l-2 0 0 -10zm0 17l2 0c5,0 8,1 8,5 0,4 -4,5 -8,5 0,0 -2,0 -2,0l0 -10zm55 0c0,-1 0,-2 0,-5 0,-12 -5,-19 -14,-19 -9,0 -16,8 -16,21 0,13 6,20 17,20 4,0 8,0 11,-1l-1 -8c-2,0 -5,1 -8,1 -5,0 -8,-2 -8,-9l19 0zm-19 -7c0,-4 1,-9 5,-9 3,0 4,4 4,9l-9 0zm25 -17l0 41 25 0 0 11 8 0 1 -19 -4 0 0 -33 -11 0 0 32 -8 0 0 -32 -11 0zm39 0l0 41c3,0 7,0 10,0 6,0 12,-1 16,-4 3,-2 5,-5 5,-10 0,-10 -8,-14 -17,-14 -1,0 -2,0 -4,0l0 -13 -10 0zm10 21c1,0 2,0 3,0 3,0 7,2 7,6 0,4 -3,6 -7,6 -1,0 -2,0 -3,0l0 -12zm27 -21l0 41 11 0 0 -17 0 0c3,0 5,3 6,7 1,4 1,8 3,10l10 0c-1,-3 -3,-9 -3,-12 -1,-5 -3,-10 -7,-11l10 -18 -11 0 -7 17 -1 0 0 -17 -11 0zm45 41l0 -41 -11 0 0 41 11 0zm-5 -57c-3,0 -6,2 -6,6 0,3 2,6 5,6 4,0 6,-3 6,-6 0,-4 -2,-6 -5,-6zm13 16l0 41 10 0c2,-5 5,-13 6,-16 2,-4 3,-7 4,-11l1 0c-1,5 -1,10 -1,18l0 9 10 0 0 -41 -11 0 -6 16c-1,3 -3,8 -4,12l0 0c0,-4 0,-11 0,-19l0 -9 -9 0zm4 -15c0,6 4,10 10,10 7,0 11,-4 11,-10l-7 0c0,3 -1,5 -3,5 -3,0 -4,-2 -4,-5l-7 0zm-299 110c-8,0 -16,6 -16,21 0,13 6,20 16,20 6,0 15,-4 15,-21 0,-12 -6,-20 -15,-20zm0 8c3,0 4,7 4,12 0,6 -1,13 -4,13 -4,0 -5,-6 -5,-13 0,-5 1,-12 5,-12zm49 -25c-2,1 -7,2 -9,2 -8,1 -12,5 -15,10 -4,5 -5,13 -5,22 0,11 3,25 16,25 11,0 16,-10 16,-22 0,-13 -5,-20 -13,-20 -4,0 -8,3 -10,7l0 0c0,-3 1,-5 2,-7 2,-3 5,-5 11,-6 3,-1 5,-1 7,-2l0 -9zm-7 38c0,4 -1,12 -6,12 -4,0 -5,-8 -5,-13 0,-2 0,-5 1,-7 0,-2 2,-4 4,-4 5,0 6,7 6,12zm18 -21l0 18c0,5 0,10 -2,12 0,1 -1,3 -3,3l1 9c2,0 4,-1 6,-2 7,-3 8,-11 8,-22l0 -9 6 0 0 32 11 0 0 -41 -27 0zm62 17c0,-9 -2,-17 -14,-17 -6,0 -11,2 -13,3l2 7c2,-1 5,-2 8,-2 4,0 6,2 6,5l0 1c-9,0 -19,5 -19,15 0,7 5,12 11,12 4,0 7,-1 9,-4l0 0 1 4 9 0c0,-3 0,-6 0,-9l0 -15zm-11 11c0,1 0,1 0,2 -1,2 -3,4 -4,4 -2,0 -4,-2 -4,-6 0,-6 5,-7 8,-7l0 7zm40 4c-1,0 -2,0 -4,0 -5,0 -8,-4 -8,-11 0,-7 3,-12 8,-12 2,0 3,0 4,0l2 -8c-2,-1 -4,-1 -6,-1 -12,0 -19,9 -19,21 0,13 7,20 17,20 3,0 6,0 7,-1l-1 -8zm5 -32l0 9 9 0 0 32 11 0 0 -32 9 0 0 -9 -29 0zm44 41l0 -41 -11 0 0 41 11 0zm-6 -57c-2,0 -5,2 -5,6 0,3 2,6 5,6 4,0 6,-3 6,-6 0,-4 -2,-6 -6,-6zm20 30c4,0 6,-2 6,-6 0,-5 -2,-7 -6,-7 -3,0 -6,3 -6,7 0,4 3,6 6,6zm0 27c4,0 6,-2 6,-6 0,-5 -2,-7 -6,-7 -3,0 -6,3 -6,7 0,4 3,6 6,6z"/>
   </g>
   <g>
    <path class="fil0 str0" d="M113 242c-1,0 -3,1 -5,1 -6,0 -12,-6 -12,-19 0,-14 6,-19 12,-19 3,0 4,1 5,1l2 -9c-1,-1 -4,-1 -8,-1 -10,0 -22,8 -22,29 0,16 7,27 21,27 4,0 7,0 8,-1l-1 -9zm16 10l10 0 0 -46 10 0 0 -10 -30 0 0 10 10 0 0 46zm40 -57c-12,0 -18,14 -18,29 0,15 4,28 17,28 11,0 18,-8 18,-29 0,-13 -4,-28 -17,-28zm-1 10c5,0 7,9 7,18 0,12 -2,20 -6,20 -5,0 -7,-6 -7,-19 0,-12 2,-19 6,-19zm25 47l11 0 0 -21c1,0 1,0 2,0 4,0 10,-2 13,-5 3,-3 5,-8 5,-14 0,-4 -1,-9 -5,-12 -3,-3 -8,-4 -15,-4 -4,0 -8,0 -11,1l0 55zm11 -47c0,0 1,0 2,0 5,0 7,3 7,8 0,5 -2,9 -7,9 -1,0 -2,0 -2,0l0 -17zm42 -10c-12,0 -18,14 -18,29 0,15 5,28 18,28 10,0 18,-8 18,-29 0,-13 -4,-28 -18,-28zm0 10c5,0 6,9 6,18 0,12 -1,20 -6,20 -4,0 -7,-6 -7,-19 0,-12 3,-19 7,-19zm19 -9l15 25c-7,2 -10,10 -11,16 -1,5 -2,10 -4,15l10 0c2,-4 2,-8 3,-12 2,-5 3,-12 10,-12l1 0 0 24 9 0 0 -24 1 0c6,0 8,7 10,12 1,4 1,8 3,12l10 0c-2,-5 -3,-10 -4,-15 -1,-6 -4,-14 -11,-16l15 -25 -13 0 -10 24 -1 0 0 -24 -9 0 0 24 -1 0 -10 -24 -13 0zm62 0l0 56 10 0 8 -22c2,-4 5,-11 6,-16l0 0c0,6 -1,14 -1,25l0 13 10 0 0 -56 -10 0 -8 22c-2,4 -5,11 -6,16l0 0c0,-6 1,-15 1,-26l0 -12 -10 0zm42 0l0 56 11 0 0 -24 12 0 0 24 10 0 0 -56 -10 0 0 22 -12 0 0 -22 -11 0zm66 22l-12 0 0 -13 13 0 0 -9 -24 0 0 56 25 0 0 -10 -14 0 0 -15 12 0 0 -9zm10 -22l0 56 27 0 1 12 8 0 0 -21 -4 -1 0 -46 -11 0 0 46 -11 0 0 -46 -10 0zm43 0l0 55c2,1 5,1 10,1 8,0 14,-2 17,-6 3,-3 5,-7 5,-12 0,-11 -7,-17 -17,-17 -3,0 -4,0 -5,0l0 -21 -10 0zm10 30c1,-1 2,-1 3,-1 5,0 8,4 8,9 0,5 -3,9 -9,9 0,0 -1,0 -2,0l0 -17zm-493 94l0 8 16 0 0 -8 -16 0zm22 27c3,0 7,0 10,0 9,0 22,-1 22,-12 0,-5 -4,-9 -10,-10l0 0c4,-1 8,-4 8,-9 0,-9 -11,-10 -18,-10 -4,0 -8,0 -12,0l0 41zm11 -34c1,0 2,0 3,0 4,0 6,1 6,4 0,4 -3,5 -7,5l-2 0 0 -9zm0 16l2 0c5,0 8,2 8,6 0,4 -4,5 -7,5 -1,0 -2,0 -3,0l0 -11zm22 -23l11 38c0,0 1,1 1,1 0,1 -1,1 -1,2 -1,2 -2,3 -3,5 -2,1 -4,2 -6,3l4 9c1,0 5,-2 9,-6 4,-5 7,-13 9,-21l8 -31 -11 0 -3 21c0,3 -1,5 -1,7l0 0c0,-2 -1,-4 -1,-7l-4 -21 -12 0zm37 0l0 18c0,4 0,9 -2,12 0,1 -1,2 -3,3l2 8c1,0 3,0 5,-1 7,-3 8,-12 8,-22l0 -9 6 0 0 32 11 0 0 -41 -27 0zm41 41c4,0 7,-3 7,-7 0,-4 -3,-7 -7,-7 -3,0 -6,3 -6,7 0,4 3,7 6,7zm27 -1c3,1 6,1 10,1 10,0 15,-2 18,-6 3,-2 5,-6 5,-10 0,-7 -4,-12 -10,-14l0 0c5,-2 8,-7 8,-12 0,-4 -2,-8 -4,-10 -4,-4 -9,-4 -15,-4 -4,0 -9,0 -12,1l0 54zm11 -47c1,0 2,0 3,0 4,0 6,3 6,7 0,5 -3,8 -7,8l-2 0 0 -15zm0 23l2 0c5,0 8,3 8,8 0,6 -3,9 -8,9 -1,0 -1,0 -2,0l0 -17zm28 -16l0 41 10 0c2,-5 6,-13 7,-16 1,-4 2,-7 4,-11l0 0c0,5 -1,10 -1,18l0 9 10 0 0 -41 -10 0 -6 16c-2,3 -4,7 -5,12l0 0c0,-5 1,-12 1,-19l0 -9 -10 0zm42 0l0 11c0,5 -1,9 -1,13 -1,3 -2,6 -3,9l-4 0 1 19 8 0 0 -11 20 0 1 11 8 0 0 -19 -4 0 0 -33 -26 0zm9 9l7 0 0 23 -10 0c1,-2 2,-5 2,-8 1,-4 1,-8 1,-12l0 -3zm26 -9l0 41 10 0c2,-5 6,-13 7,-16 1,-4 2,-7 4,-11l0 0c-1,5 -1,10 -1,18l0 9 10 0 0 -41 -10 0 -6 16c-2,3 -4,7 -5,12l0 0c0,-5 1,-12 1,-19l0 -9 -10 0zm37 0l0 41 11 0 0 -16 9 0 0 16 11 0 0 -41 -11 0 0 16 -9 0 0 -16 -11 0zm49 41l0 -41 -11 0 0 41 11 0zm-6 -57c-3,0 -5,2 -5,6 0,3 2,5 5,5 4,0 6,-2 6,-5 0,-4 -2,-6 -6,-6zm13 57c3,0 7,0 10,0 9,0 22,-1 22,-12 0,-5 -4,-9 -10,-10l0 0c4,-1 8,-4 8,-9 0,-9 -11,-10 -18,-10 -4,0 -8,0 -12,0l0 41zm11 -34c1,0 2,0 3,0 3,0 6,1 6,4 0,4 -3,5 -7,5l-2 0 0 -9zm0 16l2 0c5,0 8,2 8,6 0,4 -4,5 -7,5 -1,0 -2,0 -3,0l0 -11zm48 8c-1,1 -2,1 -4,1 -5,0 -8,-4 -8,-11 0,-7 3,-12 8,-12 2,0 3,0 4,0l2 -8c-1,-1 -4,-1 -6,-1 -11,0 -19,8 -19,21 0,13 7,20 17,20 3,0 6,-1 7,-1l-1 -9zm5 -31l0 40c3,1 7,1 11,1 5,0 11,-1 16,-4 2,-2 5,-6 5,-10 0,-10 -8,-14 -17,-14 -1,0 -3,0 -4,0l0 -13 -11 0zm11 21c1,0 1,0 2,0 4,0 8,2 8,6 0,4 -4,6 -8,6 -1,0 -1,0 -2,0l0 -12zm27 -21l0 41 10 0 0 -17 1 0c3,0 4,3 5,7 1,4 2,7 3,10l11 0c-1,-3 -3,-9 -4,-12 -1,-5 -3,-10 -7,-11l11 -18 -12 0 -7 16 -1 0 0 -16 -10 0zm47 0c-8,0 -15,6 -15,21 0,13 6,20 15,20 6,0 16,-4 16,-21 0,-12 -6,-20 -16,-20zm0 8c4,0 5,7 5,12 0,6 -1,13 -5,13 -3,0 -4,-6 -4,-13 0,-5 0,-12 4,-12zm22 -8l0 41 11 0 0 -32 11 0 0 -9 -22 0zm40 0c-8,0 -16,6 -16,21 0,13 6,20 16,20 6,0 15,-4 15,-21 0,-12 -6,-20 -15,-20zm0 8c4,0 4,7 4,12 0,6 0,13 -4,13 -4,0 -5,-6 -5,-13 0,-5 1,-12 5,-12zm-439 72l0 56 11 0 0 -24 1 0c4,0 6,4 7,11 1,4 2,9 3,13l11 0c-2,-6 -3,-11 -4,-16 -1,-7 -3,-12 -9,-14l13 -26 -12 0 -9 24 -1 0 0 -24 -11 0zm42 0l0 25c0,11 0,17 -4,20 -1,1 -2,2 -3,2l2 9c3,0 5,-1 7,-2 7,-6 8,-17 8,-30l0 -15 8 0 0 47 11 0 0 -56 -29 0zm39 0l0 56 11 0 0 -56 -11 0zm20 0l0 56 50 0 0 -56 -10 0 0 46 -9 0 0 -46 -11 0 0 46 -9 0 0 -46 -11 0zm60 0l0 56 10 0 0 -24 1 0c4,0 6,4 7,11 1,4 2,9 3,13l11 0c-1,-6 -2,-11 -4,-16 -1,-7 -3,-12 -9,-14l13 -26 -12 0 -9 24 -1 0 0 -24 -10 0zm37 0l0 56 11 0 0 -56 -11 0zm21 55c2,1 6,1 10,1 9,0 15,-2 18,-6 3,-2 4,-6 4,-11 0,-6 -3,-11 -10,-13l0 0c6,-3 8,-7 8,-12 0,-4 -1,-8 -4,-10 -4,-4 -9,-4 -14,-4 -5,0 -9,0 -12,1l0 54zm10 -47c1,0 2,0 3,0 5,0 7,3 7,7 0,5 -3,8 -7,8l-3 0 0 -15zm0 23l3 0c4,0 8,3 8,8 0,6 -4,9 -8,9 -1,0 -2,0 -3,-1l0 -16zm29 -31l0 56 28 0 1 12 8 0 0 -21 -4 -1 0 -46 -11 0 0 46 -11 0 0 -46 -11 0zm43 0l0 56 11 0 0 -56 -11 0zm-435 124l0 8 16 0 0 -8 -16 0zm22 27c3,0 6,0 10,0 8,0 22,-2 22,-12 0,-5 -4,-9 -10,-10l0 0c4,-1 8,-4 8,-9 0,-9 -11,-11 -18,-11 -4,0 -8,1 -12,1l0 41zm11 -34c1,0 1,0 3,0 3,0 6,1 6,4 0,3 -3,5 -7,5l-2 0 0 -9zm0 16l2 0c4,0 8,2 8,6 0,4 -4,5 -8,5 0,0 -2,0 -2,0l0 -11zm22 -23l11 38c0,0 0,1 0,1 0,1 0,1 0,2 -1,1 -2,3 -3,5 -2,1 -4,2 -6,3l3 9c2,0 6,-2 10,-6 4,-5 7,-13 9,-21l8 -31 -11 0 -3 21c0,3 -1,5 -1,7l0 0c-1,-2 -1,-4 -1,-7l-4 -21 -12 0zm37 0l0 18c0,4 0,9 -2,12 0,1 -1,2 -3,3l1 8c2,0 4,0 6,-1 7,-3 8,-12 8,-22l0 -9 6 0 0 32 11 0 0 -41 -27 0zm41 41c4,0 6,-3 6,-7 0,-4 -2,-7 -6,-7 -3,0 -6,3 -6,7 0,4 3,7 6,7zm53 -10c-2,0 -4,0 -6,0 -6,0 -11,-5 -11,-18 0,-14 5,-19 11,-19 3,0 4,0 5,1l2 -9c-1,-1 -4,-2 -7,-2 -11,0 -23,9 -23,30 0,15 7,27 21,27 4,0 7,-1 9,-1l-1 -9zm1 -31l0 9 9 0 0 32 10 0 0 -32 9 0 0 -9 -28 0zm33 56l11 0 0 -19 0 0c1,2 3,4 7,4 6,0 13,-6 13,-21 0,-11 -4,-21 -13,-21 -4,0 -7,2 -8,6l0 0 -1 -5 -9 0c0,4 0,8 0,13l0 43zm11 -41c0,-1 0,-2 0,-3 1,-2 2,-3 4,-3 3,0 5,4 5,11 0,7 -1,12 -5,12 -1,0 -3,0 -4,-3 0,-1 0,-2 0,-3l0 -11zm21 -15l12 38c0,0 0,1 0,1 0,1 0,1 -1,2 0,1 -2,3 -3,5 -2,1 -4,2 -5,3l3 9c1,0 6,-2 9,-6 4,-5 7,-13 9,-21l8 -31 -10 0 -4 21c0,3 0,5 -1,7l0 0c0,-2 -1,-4 -1,-7l-4 -21 -12 0zm35 41l9 0 1 -15c0,-3 0,-8 0,-17l0 0c1,4 3,12 4,17l3 14 9 0 3 -14c1,-6 3,-13 3,-17l0 0c0,9 1,14 1,17l0 15 10 0 -2 -41 -14 0 -3 13c0,3 -1,7 -2,12l0 0c-1,-5 -2,-9 -3,-12l-3 -13 -13 0 -3 41zm60 0l0 -41 -10 0 0 41 10 0zm-5 -57c-3,0 -6,2 -6,5 0,4 3,6 6,6 3,0 6,-2 5,-6 0,-3 -2,-5 -5,-5zm13 16l0 41 11 0 0 -16 8 0 0 16 11 0 0 -41 -11 0 0 15 -8 0 0 -15 -11 0zm59 31c-1,1 -2,1 -4,1 -5,0 -8,-4 -8,-12 0,-7 3,-12 8,-12 2,0 4,1 4,1l2 -8c-1,-1 -4,-1 -6,-1 -11,0 -19,8 -19,21 0,13 7,20 17,20 3,0 6,-1 7,-1l-1 -9zm5 -31l0 40c3,1 7,1 11,1 6,0 12,-1 16,-4 3,-2 5,-6 5,-11 0,-9 -8,-13 -17,-13 -1,0 -2,0 -4,0l0 -13 -11 0zm11 21c1,0 2,0 2,0 4,0 8,1 8,6 0,4 -4,6 -8,6 0,0 -1,0 -2,0l0 -12zm27 -21l0 41 10 0 0 -17 1 0c3,0 4,3 5,7 1,4 2,7 3,10l11 0c-1,-3 -3,-9 -3,-12 -2,-5 -4,-10 -8,-12l11 -17 -11 0 -7 16 -2 0 0 -16 -10 0zm48 -1c-8,0 -16,7 -16,21 0,14 6,21 15,21 7,0 16,-4 16,-21 0,-13 -6,-21 -15,-21zm-1 9c4,0 5,7 5,12 0,6 -1,13 -4,13 -4,0 -5,-6 -5,-13 0,-5 1,-12 4,-12zm22 -8l0 41 11 0 0 -32 11 0 0 -9 -22 0zm40 -1c-8,0 -16,7 -16,21 0,14 6,21 16,21 6,0 15,-4 15,-21 0,-13 -5,-21 -15,-21zm0 9c4,0 5,7 5,12 0,6 -1,13 -5,13 -4,0 -5,-6 -5,-13 0,-5 1,-12 5,-12zm-491 72l0 55 10 0 0 -46 15 0 0 -9 -25 0zm24 71l11 0 0 -19 0 0c2,2 4,4 7,4 7,0 13,-6 13,-21 0,-11 -3,-21 -12,-21 -4,0 -7,2 -9,6l0 0 -1 -5 -9 0c0,4 0,8 0,13l0 43zm11 -41c0,-1 0,-2 1,-3 0,-2 2,-4 3,-4 4,0 5,5 5,12 0,7 -1,12 -5,12 -1,0 -2,0 -3,-3 -1,-1 -1,-2 -1,-3l0 -11zm54 1c0,-8 -2,-17 -15,-17 -5,0 -10,2 -12,3l2 8c2,-2 5,-3 8,-3 4,0 6,3 6,6l0 1c-10,0 -19,4 -19,15 0,7 5,12 11,12 3,0 7,-1 9,-5l0 0 1 4 9 0c0,-2 0,-6 0,-9l0 -15zm-11 12c0,1 0,1 0,2 -1,2 -3,3 -5,3 -1,0 -4,-1 -4,-5 0,-6 5,-7 9,-7l0 7zm33 -43l0 14c-11,2 -16,10 -16,21 0,12 5,20 16,21l0 15 9 0 0 -15c11,-1 16,-9 16,-21 0,-11 -6,-19 -16,-21l0 -14 -9 0zm0 50c-5,-2 -7,-9 -7,-15 0,-5 1,-12 7,-14l0 29zm9 -29c5,2 6,9 6,14 0,6 -1,13 -6,15l0 -29zm33 34l0 -40 -11 0 0 40 11 0zm-6 -57c-3,0 -5,3 -5,6 0,4 2,6 5,6 4,0 6,-2 6,-6 0,-3 -2,-6 -6,-6zm14 17l0 40 10 0 0 -16 1 0c3,0 4,3 5,7 1,4 2,7 3,9l11 0c-1,-2 -3,-8 -4,-11 -1,-5 -3,-10 -7,-12l11 -17 -12 0 -7 16 -1 0 0 -16 -10 0zm47 56l11 0 0 -19 0 0c1,2 3,4 7,4 6,0 13,-6 13,-21 0,-11 -4,-21 -13,-21 -4,0 -7,2 -8,6l-1 0 0 -5 -9 0c0,4 0,8 0,13l0 43zm11 -41c0,-1 0,-2 0,-3 1,-2 2,-4 4,-4 3,0 5,5 5,12 0,7 -2,12 -5,12 -2,0 -3,0 -4,-3 0,-1 0,-2 0,-3l0 -11zm40 -16c-8,0 -16,7 -16,21 0,14 6,21 16,21 6,0 15,-4 15,-21 0,-13 -5,-21 -15,-21zm0 9c4,0 5,7 5,12 0,6 -1,13 -5,13 -4,0 -5,-6 -5,-13 0,-5 1,-12 5,-12zm49 -25c-1,0 -7,1 -9,2 -7,1 -12,4 -15,9 -4,6 -5,14 -5,22 0,11 3,25 17,25 10,0 16,-9 16,-21 0,-13 -6,-20 -14,-20 -4,0 -8,3 -9,7l-1 0c1,-3 1,-6 2,-8 2,-3 5,-5 11,-6 3,0 5,0 7,-1l0 -9zm-7 37c0,4 -1,13 -6,13 -4,0 -5,-9 -5,-13 0,-2 0,-5 1,-7 0,-3 2,-5 4,-5 5,0 6,8 6,12zm31 -21c-8,0 -16,7 -16,21 0,14 6,21 16,21 6,0 15,-4 15,-21 0,-13 -6,-21 -15,-21zm0 9c4,0 4,7 4,12 0,6 0,13 -4,13 -4,0 -5,-6 -5,-13 0,-5 1,-12 5,-12zm18 -8l0 9 9 0 0 31 10 0 0 -31 9 0 0 -9 -28 0zm33 0l0 40 10 0c2,-4 6,-12 7,-15 1,-4 2,-7 4,-12l0 0c0,6 -1,10 -1,19l0 8 10 0 0 -40 -10 0 -6 16c-2,3 -3,7 -5,11l0 0c0,-4 1,-11 1,-18l0 -9 -10 0zm44 14c4,0 6,-3 6,-7 0,-4 -2,-7 -6,-7 -3,0 -6,3 -6,7 0,4 3,7 6,7zm0 27c4,0 6,-3 6,-7 0,-4 -2,-7 -6,-7 -3,0 -6,3 -6,7 0,4 3,7 6,7zm-378 66c-4,3 -8,8 -8,14 0,9 6,15 16,15 9,0 16,-6 16,-16 0,-6 -4,-11 -9,-14l0 0c6,-3 8,-8 8,-12 0,-8 -7,-13 -14,-13 -9,0 -16,5 -16,14 0,4 2,9 7,12l0 0zm8 22c-4,0 -6,-4 -6,-9 0,-4 2,-7 5,-9 3,1 6,5 6,10 0,4 -2,8 -5,8zm0 -41c3,0 5,4 5,7 0,3 -2,7 -4,8 -3,-2 -5,-4 -5,-8 0,-3 1,-7 4,-7zm28 21c4,0 6,-3 6,-7 0,-4 -3,-7 -6,-7 -3,0 -6,3 -6,7 0,4 2,7 6,7zm0 27c4,0 6,-3 6,-7 0,-4 -3,-7 -6,-7 -3,0 -6,3 -6,7 0,4 2,7 6,7zm27 -55c-11,0 -16,12 -16,28 0,14 4,27 15,27 9,0 16,-8 16,-28 0,-12 -3,-27 -15,-27zm0 9c3,0 4,7 4,19 0,12 -1,18 -4,18 -4,0 -6,-6 -5,-18 -1,-13 1,-19 5,-19zm35 -9c-11,0 -16,12 -16,28 0,14 4,27 16,27 8,0 15,-8 15,-28 0,-12 -3,-27 -15,-27zm0 9c3,0 4,7 4,19 0,12 -1,18 -4,18 -4,0 -5,-6 -5,-18 0,-13 1,-19 5,-19zm33 20l0 8 36 0 0 -8 -36 0zm66 25l11 0 0 -53 -9 0 -13 6 2 9 9 -5 0 0 0 43zm52 0l0 -9 -16 0 0 0 3 -4c6,-7 12,-15 12,-25 0,-8 -3,-16 -15,-16 -5,0 -10,2 -12,3l2 9c2,-1 5,-3 8,-3 4,0 7,3 7,7 0,8 -6,15 -13,24l-5 7 0 7 29 0zm14 -26c4,0 6,-3 6,-7 0,-4 -2,-7 -6,-7 -3,0 -6,3 -6,7 0,4 3,7 6,7zm0 27c4,0 6,-3 6,-7 0,-4 -2,-7 -6,-7 -3,0 -6,3 -6,7 0,4 3,7 6,7zm27 -55c-11,0 -16,12 -16,28 0,14 4,27 16,27 8,0 15,-8 15,-28 0,-12 -2,-27 -15,-27zm0 9c3,0 5,7 5,19 0,12 -2,18 -5,18 -4,0 -5,-6 -5,-18 0,-13 2,-19 5,-19zm35 -9c-11,0 -16,12 -16,28 0,14 4,27 16,27 9,0 16,-8 16,-28 0,-12 -3,-27 -16,-27zm0 9c4,0 5,7 5,19 0,12 -2,18 -5,18 -3,0 -5,-6 -5,-18 0,-13 2,-19 5,-19z"/>
    <path id="1" class="fil2" d="M113 242c-1,0 -3,1 -5,1 -6,0 -12,-6 -12,-19 0,-14 6,-19 12,-19 3,0 4,1 5,1l2 -9c-1,-1 -4,-1 -8,-1 -10,0 -22,8 -22,29 0,16 7,27 21,27 4,0 7,0 8,-1l-1 -9zm16 10l10 0 0 -46 10 0 0 -10 -30 0 0 10 10 0 0 46zm40 -57c-12,0 -18,14 -18,29 0,15 4,28 17,28 11,0 18,-8 18,-29 0,-13 -4,-28 -17,-28zm-1 10c5,0 7,9 7,18 0,12 -2,20 -6,20 -5,0 -7,-6 -7,-19 0,-12 2,-19 6,-19zm25 47l11 0 0 -21c1,0 1,0 2,0 4,0 10,-2 13,-5 3,-3 5,-8 5,-14 0,-4 -1,-9 -5,-12 -3,-3 -8,-4 -15,-4 -4,0 -8,0 -11,1l0 55zm11 -47c0,0 1,0 2,0 5,0 7,3 7,8 0,5 -2,9 -7,9 -1,0 -2,0 -2,0l0 -17zm42 -10c-12,0 -18,14 -18,29 0,15 5,28 18,28 10,0 18,-8 18,-29 0,-13 -4,-28 -18,-28zm0 10c5,0 6,9 6,18 0,12 -1,20 -6,20 -4,0 -7,-6 -7,-19 0,-12 3,-19 7,-19zm19 -9l15 25c-7,2 -10,10 -11,16 -1,5 -2,10 -4,15l10 0c2,-4 2,-8 3,-12 2,-5 3,-12 10,-12l1 0 0 24 9 0 0 -24 1 0c6,0 8,7 10,12 1,4 1,8 3,12l10 0c-2,-5 -3,-10 -4,-15 -1,-6 -4,-14 -11,-16l15 -25 -13 0 -10 24 -1 0 0 -24 -9 0 0 24 -1 0 -10 -24 -13 0zm62 0l0 56 10 0 8 -22c2,-4 5,-11 6,-16l0 0c0,6 -1,14 -1,25l0 13 10 0 0 -56 -10 0 -8 22c-2,4 -5,11 -6,16l0 0c0,-6 1,-15 1,-26l0 -12 -10 0zm42 0l0 56 11 0 0 -24 12 0 0 24 10 0 0 -56 -10 0 0 22 -12 0 0 -22 -11 0zm66 22l-12 0 0 -13 13 0 0 -9 -24 0 0 56 25 0 0 -10 -14 0 0 -15 12 0 0 -9zm10 -22l0 56 27 0 1 12 8 0 0 -21 -4 -1 0 -46 -11 0 0 46 -11 0 0 -46 -10 0zm43 0l0 55c2,1 5,1 10,1 8,0 14,-2 17,-6 3,-3 5,-7 5,-12 0,-11 -7,-17 -17,-17 -3,0 -4,0 -5,0l0 -21 -10 0zm10 30c1,-1 2,-1 3,-1 5,0 8,4 8,9 0,5 -3,9 -9,9 0,0 -1,0 -2,0l0 -17zm-493 94l0 8 16 0 0 -8 -16 0zm22 27c3,0 7,0 10,0 9,0 22,-1 22,-12 0,-5 -4,-9 -10,-10l0 0c4,-1 8,-4 8,-9 0,-9 -11,-10 -18,-10 -4,0 -8,0 -12,0l0 41zm11 -34c1,0 2,0 3,0 4,0 6,1 6,4 0,4 -3,5 -7,5l-2 0 0 -9zm0 16l2 0c5,0 8,2 8,6 0,4 -4,5 -7,5 -1,0 -2,0 -3,0l0 -11zm22 -23l11 38c0,0 1,1 1,1 0,1 -1,1 -1,2 -1,2 -2,3 -3,5 -2,1 -4,2 -6,3l4 9c1,0 5,-2 9,-6 4,-5 7,-13 9,-21l8 -31 -11 0 -3 21c0,3 -1,5 -1,7l0 0c0,-2 -1,-4 -1,-7l-4 -21 -12 0zm37 0l0 18c0,4 0,9 -2,12 0,1 -1,2 -3,3l2 8c1,0 3,0 5,-1 7,-3 8,-12 8,-22l0 -9 6 0 0 32 11 0 0 -41 -27 0zm41 41c4,0 7,-3 7,-7 0,-4 -3,-7 -7,-7 -3,0 -6,3 -6,7 0,4 3,7 6,7zm27 -1c3,1 6,1 10,1 10,0 15,-2 18,-6 3,-2 5,-6 5,-10 0,-7 -4,-12 -10,-14l0 0c5,-2 8,-7 8,-12 0,-4 -2,-8 -4,-10 -4,-4 -9,-4 -15,-4 -4,0 -9,0 -12,1l0 54zm11 -47c1,0 2,0 3,0 4,0 6,3 6,7 0,5 -3,8 -7,8l-2 0 0 -15zm0 23l2 0c5,0 8,3 8,8 0,6 -3,9 -8,9 -1,0 -1,0 -2,0l0 -17zm28 -16l0 41 10 0c2,-5 6,-13 7,-16 1,-4 2,-7 4,-11l0 0c0,5 -1,10 -1,18l0 9 10 0 0 -41 -10 0 -6 16c-2,3 -4,7 -5,12l0 0c0,-5 1,-12 1,-19l0 -9 -10 0zm42 0l0 11c0,5 -1,9 -1,13 -1,3 -2,6 -3,9l-4 0 1 19 8 0 0 -11 20 0 1 11 8 0 0 -19 -4 0 0 -33 -26 0zm9 9l7 0 0 23 -10 0c1,-2 2,-5 2,-8 1,-4 1,-8 1,-12l0 -3zm26 -9l0 41 10 0c2,-5 6,-13 7,-16 1,-4 2,-7 4,-11l0 0c-1,5 -1,10 -1,18l0 9 10 0 0 -41 -10 0 -6 16c-2,3 -4,7 -5,12l0 0c0,-5 1,-12 1,-19l0 -9 -10 0zm37 0l0 41 11 0 0 -16 9 0 0 16 11 0 0 -41 -11 0 0 16 -9 0 0 -16 -11 0zm49 41l0 -41 -11 0 0 41 11 0zm-6 -57c-3,0 -5,2 -5,6 0,3 2,5 5,5 4,0 6,-2 6,-5 0,-4 -2,-6 -6,-6zm13 57c3,0 7,0 10,0 9,0 22,-1 22,-12 0,-5 -4,-9 -10,-10l0 0c4,-1 8,-4 8,-9 0,-9 -11,-10 -18,-10 -4,0 -8,0 -12,0l0 41zm11 -34c1,0 2,0 3,0 3,0 6,1 6,4 0,4 -3,5 -7,5l-2 0 0 -9zm0 16l2 0c5,0 8,2 8,6 0,4 -4,5 -7,5 -1,0 -2,0 -3,0l0 -11zm48 8c-1,1 -2,1 -4,1 -5,0 -8,-4 -8,-11 0,-7 3,-12 8,-12 2,0 3,0 4,0l2 -8c-1,-1 -4,-1 -6,-1 -11,0 -19,8 -19,21 0,13 7,20 17,20 3,0 6,-1 7,-1l-1 -9zm5 -31l0 40c3,1 7,1 11,1 5,0 11,-1 16,-4 2,-2 5,-6 5,-10 0,-10 -8,-14 -17,-14 -1,0 -3,0 -4,0l0 -13 -11 0zm11 21c1,0 1,0 2,0 4,0 8,2 8,6 0,4 -4,6 -8,6 -1,0 -1,0 -2,0l0 -12zm27 -21l0 41 10 0 0 -17 1 0c3,0 4,3 5,7 1,4 2,7 3,10l11 0c-1,-3 -3,-9 -4,-12 -1,-5 -3,-10 -7,-11l11 -18 -12 0 -7 16 -1 0 0 -16 -10 0zm47 0c-8,0 -15,6 -15,21 0,13 6,20 15,20 6,0 16,-4 16,-21 0,-12 -6,-20 -16,-20zm0 8c4,0 5,7 5,12 0,6 -1,13 -5,13 -3,0 -4,-6 -4,-13 0,-5 0,-12 4,-12zm22 -8l0 41 11 0 0 -32 11 0 0 -9 -22 0zm40 0c-8,0 -16,6 -16,21 0,13 6,20 16,20 6,0 15,-4 15,-21 0,-12 -6,-20 -15,-20zm0 8c4,0 4,7 4,12 0,6 0,13 -4,13 -4,0 -5,-6 -5,-13 0,-5 1,-12 5,-12zm-439 72l0 56 11 0 0 -24 1 0c4,0 6,4 7,11 1,4 2,9 3,13l11 0c-2,-6 -3,-11 -4,-16 -1,-7 -3,-12 -9,-14l13 -26 -12 0 -9 24 -1 0 0 -24 -11 0zm42 0l0 25c0,11 0,17 -4,20 -1,1 -2,2 -3,2l2 9c3,0 5,-1 7,-2 7,-6 8,-17 8,-30l0 -15 8 0 0 47 11 0 0 -56 -29 0zm39 0l0 56 11 0 0 -56 -11 0zm20 0l0 56 50 0 0 -56 -10 0 0 46 -9 0 0 -46 -11 0 0 46 -9 0 0 -46 -11 0zm60 0l0 56 10 0 0 -24 1 0c4,0 6,4 7,11 1,4 2,9 3,13l11 0c-1,-6 -2,-11 -4,-16 -1,-7 -3,-12 -9,-14l13 -26 -12 0 -9 24 -1 0 0 -24 -10 0zm37 0l0 56 11 0 0 -56 -11 0zm21 55c2,1 6,1 10,1 9,0 15,-2 18,-6 3,-2 4,-6 4,-11 0,-6 -3,-11 -10,-13l0 0c6,-3 8,-7 8,-12 0,-4 -1,-8 -4,-10 -4,-4 -9,-4 -14,-4 -5,0 -9,0 -12,1l0 54zm10 -47c1,0 2,0 3,0 5,0 7,3 7,7 0,5 -3,8 -7,8l-3 0 0 -15zm0 23l3 0c4,0 8,3 8,8 0,6 -4,9 -8,9 -1,0 -2,0 -3,-1l0 -16zm29 -31l0 56 28 0 1 12 8 0 0 -21 -4 -1 0 -46 -11 0 0 46 -11 0 0 -46 -11 0zm43 0l0 56 11 0 0 -56 -11 0zm-435 124l0 8 16 0 0 -8 -16 0zm22 27c3,0 6,0 10,0 8,0 22,-2 22,-12 0,-5 -4,-9 -10,-10l0 0c4,-1 8,-4 8,-9 0,-9 -11,-11 -18,-11 -4,0 -8,1 -12,1l0 41zm11 -34c1,0 1,0 3,0 3,0 6,1 6,4 0,3 -3,5 -7,5l-2 0 0 -9zm0 16l2 0c4,0 8,2 8,6 0,4 -4,5 -8,5 0,0 -2,0 -2,0l0 -11zm22 -23l11 38c0,0 0,1 0,1 0,1 0,1 0,2 -1,1 -2,3 -3,5 -2,1 -4,2 -6,3l3 9c2,0 6,-2 10,-6 4,-5 7,-13 9,-21l8 -31 -11 0 -3 21c0,3 -1,5 -1,7l0 0c-1,-2 -1,-4 -1,-7l-4 -21 -12 0zm37 0l0 18c0,4 0,9 -2,12 0,1 -1,2 -3,3l1 8c2,0 4,0 6,-1 7,-3 8,-12 8,-22l0 -9 6 0 0 32 11 0 0 -41 -27 0zm41 41c4,0 6,-3 6,-7 0,-4 -2,-7 -6,-7 -3,0 -6,3 -6,7 0,4 3,7 6,7zm53 -10c-2,0 -4,0 -6,0 -6,0 -11,-5 -11,-18 0,-14 5,-19 11,-19 3,0 4,0 5,1l2 -9c-1,-1 -4,-2 -7,-2 -11,0 -23,9 -23,30 0,15 7,27 21,27 4,0 7,-1 9,-1l-1 -9zm1 -31l0 9 9 0 0 32 10 0 0 -32 9 0 0 -9 -28 0zm33 56l11 0 0 -19 0 0c1,2 3,4 7,4 6,0 13,-6 13,-21 0,-11 -4,-21 -13,-21 -4,0 -7,2 -8,6l0 0 -1 -5 -9 0c0,4 0,8 0,13l0 43zm11 -41c0,-1 0,-2 0,-3 1,-2 2,-3 4,-3 3,0 5,4 5,11 0,7 -1,12 -5,12 -1,0 -3,0 -4,-3 0,-1 0,-2 0,-3l0 -11zm21 -15l12 38c0,0 0,1 0,1 0,1 0,1 -1,2 0,1 -2,3 -3,5 -2,1 -4,2 -5,3l3 9c1,0 6,-2 9,-6 4,-5 7,-13 9,-21l8 -31 -10 0 -4 21c0,3 0,5 -1,7l0 0c0,-2 -1,-4 -1,-7l-4 -21 -12 0zm35 41l9 0 1 -15c0,-3 0,-8 0,-17l0 0c1,4 3,12 4,17l3 14 9 0 3 -14c1,-6 3,-13 3,-17l0 0c0,9 1,14 1,17l0 15 10 0 -2 -41 -14 0 -3 13c0,3 -1,7 -2,12l0 0c-1,-5 -2,-9 -3,-12l-3 -13 -13 0 -3 41zm60 0l0 -41 -10 0 0 41 10 0zm-5 -57c-3,0 -6,2 -6,5 0,4 3,6 6,6 3,0 6,-2 5,-6 0,-3 -2,-5 -5,-5zm13 16l0 41 11 0 0 -16 8 0 0 16 11 0 0 -41 -11 0 0 15 -8 0 0 -15 -11 0zm59 31c-1,1 -2,1 -4,1 -5,0 -8,-4 -8,-12 0,-7 3,-12 8,-12 2,0 4,1 4,1l2 -8c-1,-1 -4,-1 -6,-1 -11,0 -19,8 -19,21 0,13 7,20 17,20 3,0 6,-1 7,-1l-1 -9zm5 -31l0 40c3,1 7,1 11,1 6,0 12,-1 16,-4 3,-2 5,-6 5,-11 0,-9 -8,-13 -17,-13 -1,0 -2,0 -4,0l0 -13 -11 0zm11 21c1,0 2,0 2,0 4,0 8,1 8,6 0,4 -4,6 -8,6 0,0 -1,0 -2,0l0 -12zm27 -21l0 41 10 0 0 -17 1 0c3,0 4,3 5,7 1,4 2,7 3,10l11 0c-1,-3 -3,-9 -3,-12 -2,-5 -4,-10 -8,-12l11 -17 -11 0 -7 16 -2 0 0 -16 -10 0zm48 -1c-8,0 -16,7 -16,21 0,14 6,21 15,21 7,0 16,-4 16,-21 0,-13 -6,-21 -15,-21zm-1 9c4,0 5,7 5,12 0,6 -1,13 -4,13 -4,0 -5,-6 -5,-13 0,-5 1,-12 4,-12zm22 -8l0 41 11 0 0 -32 11 0 0 -9 -22 0zm40 -1c-8,0 -16,7 -16,21 0,14 6,21 16,21 6,0 15,-4 15,-21 0,-13 -5,-21 -15,-21zm0 9c4,0 5,7 5,12 0,6 -1,13 -5,13 -4,0 -5,-6 -5,-13 0,-5 1,-12 5,-12zm-491 72l0 55 10 0 0 -46 15 0 0 -9 -25 0zm24 71l11 0 0 -19 0 0c2,2 4,4 7,4 7,0 13,-6 13,-21 0,-11 -3,-21 -12,-21 -4,0 -7,2 -9,6l0 0 -1 -5 -9 0c0,4 0,8 0,13l0 43zm11 -41c0,-1 0,-2 1,-3 0,-2 2,-4 3,-4 4,0 5,5 5,12 0,7 -1,12 -5,12 -1,0 -2,0 -3,-3 -1,-1 -1,-2 -1,-3l0 -11zm54 1c0,-8 -2,-17 -15,-17 -5,0 -10,2 -12,3l2 8c2,-2 5,-3 8,-3 4,0 6,3 6,6l0 1c-10,0 -19,4 -19,15 0,7 5,12 11,12 3,0 7,-1 9,-5l0 0 1 4 9 0c0,-2 0,-6 0,-9l0 -15zm-11 12c0,1 0,1 0,2 -1,2 -3,3 -5,3 -1,0 -4,-1 -4,-5 0,-6 5,-7 9,-7l0 7zm33 -43l0 14c-11,2 -16,10 -16,21 0,12 5,20 16,21l0 15 9 0 0 -15c11,-1 16,-9 16,-21 0,-11 -6,-19 -16,-21l0 -14 -9 0zm0 50c-5,-2 -7,-9 -7,-15 0,-5 1,-12 7,-14l0 29zm9 -29c5,2 6,9 6,14 0,6 -1,13 -6,15l0 -29zm33 34l0 -40 -11 0 0 40 11 0zm-6 -57c-3,0 -5,3 -5,6 0,4 2,6 5,6 4,0 6,-2 6,-6 0,-3 -2,-6 -6,-6zm14 17l0 40 10 0 0 -16 1 0c3,0 4,3 5,7 1,4 2,7 3,9l11 0c-1,-2 -3,-8 -4,-11 -1,-5 -3,-10 -7,-12l11 -17 -12 0 -7 16 -1 0 0 -16 -10 0zm47 56l11 0 0 -19 0 0c1,2 3,4 7,4 6,0 13,-6 13,-21 0,-11 -4,-21 -13,-21 -4,0 -7,2 -8,6l-1 0 0 -5 -9 0c0,4 0,8 0,13l0 43zm11 -41c0,-1 0,-2 0,-3 1,-2 2,-4 4,-4 3,0 5,5 5,12 0,7 -2,12 -5,12 -2,0 -3,0 -4,-3 0,-1 0,-2 0,-3l0 -11zm40 -16c-8,0 -16,7 -16,21 0,14 6,21 16,21 6,0 15,-4 15,-21 0,-13 -5,-21 -15,-21zm0 9c4,0 5,7 5,12 0,6 -1,13 -5,13 -4,0 -5,-6 -5,-13 0,-5 1,-12 5,-12zm49 -25c-1,0 -7,1 -9,2 -7,1 -12,4 -15,9 -4,6 -5,14 -5,22 0,11 3,25 17,25 10,0 16,-9 16,-21 0,-13 -6,-20 -14,-20 -4,0 -8,3 -9,7l-1 0c1,-3 1,-6 2,-8 2,-3 5,-5 11,-6 3,0 5,0 7,-1l0 -9zm-7 37c0,4 -1,13 -6,13 -4,0 -5,-9 -5,-13 0,-2 0,-5 1,-7 0,-3 2,-5 4,-5 5,0 6,8 6,12zm31 -21c-8,0 -16,7 -16,21 0,14 6,21 16,21 6,0 15,-4 15,-21 0,-13 -6,-21 -15,-21zm0 9c4,0 4,7 4,12 0,6 0,13 -4,13 -4,0 -5,-6 -5,-13 0,-5 1,-12 5,-12zm18 -8l0 9 9 0 0 31 10 0 0 -31 9 0 0 -9 -28 0zm33 0l0 40 10 0c2,-4 6,-12 7,-15 1,-4 2,-7 4,-12l0 0c0,6 -1,10 -1,19l0 8 10 0 0 -40 -10 0 -6 16c-2,3 -3,7 -5,11l0 0c0,-4 1,-11 1,-18l0 -9 -10 0zm44 14c4,0 6,-3 6,-7 0,-4 -2,-7 -6,-7 -3,0 -6,3 -6,7 0,4 3,7 6,7zm0 27c4,0 6,-3 6,-7 0,-4 -2,-7 -6,-7 -3,0 -6,3 -6,7 0,4 3,7 6,7zm-378 66c-4,3 -8,8 -8,14 0,9 6,15 16,15 9,0 16,-6 16,-16 0,-6 -4,-11 -9,-14l0 0c6,-3 8,-8 8,-12 0,-8 -7,-13 -14,-13 -9,0 -16,5 -16,14 0,4 2,9 7,12l0 0zm8 22c-4,0 -6,-4 -6,-9 0,-4 2,-7 5,-9 3,1 6,5 6,10 0,4 -2,8 -5,8zm0 -41c3,0 5,4 5,7 0,3 -2,7 -4,8 -3,-2 -5,-4 -5,-8 0,-3 1,-7 4,-7zm28 21c4,0 6,-3 6,-7 0,-4 -3,-7 -6,-7 -3,0 -6,3 -6,7 0,4 2,7 6,7zm0 27c4,0 6,-3 6,-7 0,-4 -3,-7 -6,-7 -3,0 -6,3 -6,7 0,4 2,7 6,7zm27 -55c-11,0 -16,12 -16,28 0,14 4,27 15,27 9,0 16,-8 16,-28 0,-12 -3,-27 -15,-27zm0 9c3,0 4,7 4,19 0,12 -1,18 -4,18 -4,0 -6,-6 -5,-18 -1,-13 1,-19 5,-19zm35 -9c-11,0 -16,12 -16,28 0,14 4,27 16,27 8,0 15,-8 15,-28 0,-12 -3,-27 -15,-27zm0 9c3,0 4,7 4,19 0,12 -1,18 -4,18 -4,0 -5,-6 -5,-18 0,-13 1,-19 5,-19zm33 20l0 8 36 0 0 -8 -36 0zm66 25l11 0 0 -53 -9 0 -13 6 2 9 9 -5 0 0 0 43zm52 0l0 -9 -16 0 0 0 3 -4c6,-7 12,-15 12,-25 0,-8 -3,-16 -15,-16 -5,0 -10,2 -12,3l2 9c2,-1 5,-3 8,-3 4,0 7,3 7,7 0,8 -6,15 -13,24l-5 7 0 7 29 0zm14 -26c4,0 6,-3 6,-7 0,-4 -2,-7 -6,-7 -3,0 -6,3 -6,7 0,4 3,7 6,7zm0 27c4,0 6,-3 6,-7 0,-4 -2,-7 -6,-7 -3,0 -6,3 -6,7 0,4 3,7 6,7zm27 -55c-11,0 -16,12 -16,28 0,14 4,27 16,27 8,0 15,-8 15,-28 0,-12 -2,-27 -15,-27zm0 9c3,0 5,7 5,19 0,12 -2,18 -5,18 -4,0 -5,-6 -5,-18 0,-13 2,-19 5,-19zm35 -9c-11,0 -16,12 -16,28 0,14 4,27 16,27 9,0 16,-8 16,-28 0,-12 -3,-27 -16,-27zm0 9c4,0 5,7 5,19 0,12 -2,18 -5,18 -3,0 -5,-6 -5,-18 0,-13 2,-19 5,-19z"/>
   </g>
  </g>
 </g>
</svg>
