<?xml version="1.0" encoding="UTF-8"?>
<!DOCTYPE svg PUBLIC "-//W3C//DTD SVG 1.1//EN" "http://www.w3.org/Graphics/SVG/1.1/DTD/svg11.dtd">
<!-- Creator: CorelDRAW X7 -->
<svg xmlns="http://www.w3.org/2000/svg" xml:space="preserve" width="7.2782mm" height="58.4226mm" version="1.1" style="shape-rendering:geometricPrecision; text-rendering:geometricPrecision; image-rendering:optimizeQuality; fill-rule:evenodd; clip-rule:evenodd"
viewBox="0 0 538 4321"
 xmlns:xlink="http://www.w3.org/1999/xlink">
 <defs>
  <style type="text/css">
   <![CDATA[
    .fil0 {fill:#006CB5;fill-rule:nonzero}
   ]]>
  </style>
 </defs>
 <g id="Слой_x0020_1">
  <metadata id="CorelCorpID_0Corel-Layer"/>
  <path class="fil0" d="M0 4161c0,-47 18,-84 55,-111 43,-32 114,-48 214,-48 100,0 172,16 215,48 36,27 54,64 54,111 0,48 -19,87 -59,116 -39,29 -110,44 -211,44 -99,0 -170,-16 -214,-48 -36,-27 -54,-64 -54,-112zm84 0c0,12 4,22 11,30 8,9 22,16 42,21 26,6 70,9 132,9 62,0 105,-2 128,-8 23,-6 38,-13 46,-22 8,-8 12,-18 12,-30 0,-11 -4,-21 -12,-30 -8,-8 -22,-15 -42,-20 -26,-6 -70,-10 -132,-10 -62,0 -104,3 -127,9 -23,6 -39,13 -47,22 -7,8 -11,18 -11,29zm310 -223l-11 -94c23,-2 41,-10 55,-23 13,-14 19,-29 19,-46 0,-20 -8,-36 -25,-50 -18,-14 -44,-20 -78,-20 -33,0 -57,6 -73,20 -17,13 -25,31 -25,53 0,27 13,51 38,73l-11 76 -273 -48 0 -249 94 0 0 177 89 15c-11,-21 -17,-42 -17,-64 0,-42 17,-77 49,-106 33,-30 75,-44 127,-44 44,0 82,12 117,35 46,32 69,76 69,133 0,45 -13,82 -39,111 -26,29 -61,46 -105,51zm-394 -539c0,-47 18,-85 55,-111 43,-32 114,-48 214,-48 100,0 172,16 215,48 36,27 54,64 54,111 0,48 -19,86 -59,116 -39,29 -110,43 -211,43 -99,0 -170,-16 -214,-48 -36,-26 -54,-63 -54,-111zm84 0c0,11 4,21 11,30 8,9 22,16 42,20 26,7 70,10 132,10 62,0 105,-3 128,-9 23,-5 38,-12 46,-21 8,-9 12,-19 12,-30 0,-11 -4,-21 -12,-30 -8,-9 -22,-16 -42,-20 -26,-7 -70,-10 -132,-10 -62,0 -104,3 -127,9 -23,5 -39,13 -47,21 -7,9 -11,19 -11,30zm310 -414l-11 -93c23,-3 41,-11 55,-24 13,-14 19,-29 19,-46 0,-20 -8,-36 -25,-50 -18,-13 -44,-20 -78,-20 -33,0 -57,6 -73,20 -17,13 -25,31 -25,53 0,27 13,51 38,73l-11 76 -273 -48 0 -249 94 0 0 177 89 15c-11,-21 -17,-42 -17,-64 0,-42 17,-77 49,-106 33,-29 75,-44 127,-44 44,0 82,12 117,35 46,32 69,77 69,133 0,46 -13,83 -39,111 -26,29 -61,46 -105,51zm-394 -539c0,-47 18,-84 55,-111 43,-32 114,-48 214,-48 100,0 172,16 215,48 36,27 54,64 54,111 0,48 -19,86 -59,116 -39,29 -110,44 -211,44 -99,0 -170,-17 -214,-49 -36,-26 -54,-63 -54,-111zm84 0c0,11 4,21 11,30 8,9 22,16 42,21 26,6 70,9 132,9 62,0 105,-3 128,-8 23,-6 38,-13 46,-22 8,-9 12,-19 12,-30 0,-11 -4,-21 -12,-30 -8,-9 -22,-15 -42,-20 -26,-7 -70,-10 -132,-10 -62,0 -104,3 -127,9 -23,6 -39,13 -47,21 -7,9 -11,19 -11,30zm19 -222l-93 0 0 -322 73 0c28,27 68,54 121,81 52,28 108,49 167,63 59,15 111,22 158,21l0 91c-73,-2 -147,-16 -223,-42 -76,-27 -144,-62 -203,-106l0 214zm141 -652c-11,24 -26,42 -45,53 -19,11 -40,16 -63,16 -40,0 -72,-13 -98,-38 -25,-26 -38,-62 -38,-109 0,-47 13,-83 38,-108 26,-26 58,-39 98,-39 24,0 46,6 65,18 19,12 33,28 43,50 12,-28 29,-48 52,-62 22,-15 48,-22 78,-22 49,0 88,15 119,44 30,28 45,67 45,115 0,44 -12,81 -38,111 -29,35 -70,52 -122,52 -28,0 -55,-6 -78,-19 -24,-13 -43,-34 -56,-62zm-101 -20c20,0 36,-5 47,-16 11,-10 17,-24 17,-42 0,-18 -6,-32 -17,-43 -11,-10 -27,-16 -47,-16 -19,0 -34,6 -46,16 -11,11 -17,25 -17,42 0,18 6,32 17,43 12,11 27,16 46,16zm226 9c28,0 49,-7 65,-20 16,-13 23,-30 23,-49 0,-20 -7,-36 -22,-49 -15,-12 -37,-18 -65,-18 -25,0 -45,6 -60,19 -15,13 -23,29 -23,49 0,23 9,40 26,51 17,11 35,17 56,17zm-125 -371c-11,25 -26,42 -45,53 -19,11 -40,17 -63,17 -40,0 -72,-13 -98,-38 -25,-26 -38,-62 -38,-109 0,-47 13,-83 38,-109 26,-25 58,-38 98,-38 24,0 46,6 65,18 19,11 33,28 43,50 12,-28 29,-48 52,-63 22,-14 48,-21 78,-21 49,0 88,14 119,43 30,29 45,68 45,116 0,44 -12,81 -38,111 -29,35 -70,52 -122,52 -28,0 -55,-6 -78,-20 -24,-13 -43,-33 -56,-62zm-101 -19c20,0 36,-5 47,-16 11,-11 17,-25 17,-42 0,-18 -6,-32 -17,-43 -11,-10 -27,-16 -47,-16 -19,0 -34,6 -46,16 -11,11 -17,25 -17,42 0,18 6,32 17,43 12,10 27,16 46,16zm226 9c28,0 49,-7 65,-20 16,-13 23,-30 23,-50 0,-19 -7,-35 -22,-48 -15,-12 -37,-19 -65,-19 -25,0 -45,7 -60,20 -15,13 -23,29 -23,49 0,23 9,40 26,51 17,11 35,17 56,17zm25 -481l-11 -94c23,-3 41,-11 55,-24 13,-13 19,-29 19,-46 0,-19 -8,-36 -25,-50 -18,-13 -44,-20 -78,-20 -33,0 -57,7 -73,20 -17,14 -25,31 -25,53 0,27 13,51 38,73l-11 76 -273 -48 0 -249 94 0 0 178 89 14c-11,-21 -17,-42 -17,-64 0,-42 17,-77 49,-106 33,-29 75,-44 127,-44 44,0 82,12 117,35 46,32 69,77 69,133 0,46 -13,83 -39,111 -26,29 -61,46 -105,52zm-394 -540c0,-47 18,-84 55,-111 43,-32 114,-48 214,-48 100,0 172,16 215,48 36,27 54,64 54,111 0,48 -19,87 -59,116 -39,29 -110,44 -211,44 -99,0 -170,-16 -214,-48 -36,-27 -54,-64 -54,-112zm84 0c0,12 4,22 11,30 8,9 22,16 42,21 26,6 70,9 132,9 62,0 105,-3 128,-8 23,-6 38,-13 46,-22 8,-9 12,-18 12,-30 0,-11 -4,-21 -12,-30 -8,-8 -22,-15 -42,-20 -26,-6 -70,-10 -132,-10 -62,0 -104,3 -127,9 -23,6 -39,13 -47,22 -7,8 -11,18 -11,29z"/>
 </g>
</svg>
