<?xml version="1.0" encoding="UTF-8"?>
<!DOCTYPE svg PUBLIC "-//W3C//DTD SVG 1.1//EN" "http://www.w3.org/Graphics/SVG/1.1/DTD/svg11.dtd">
<!-- Creator: CorelDRAW X7 -->
<svg xmlns="http://www.w3.org/2000/svg" xml:space="preserve" width="14.9899mm" height="6.2503mm" version="1.1" style="shape-rendering:geometricPrecision; text-rendering:geometricPrecision; image-rendering:optimizeQuality; fill-rule:evenodd; clip-rule:evenodd"
viewBox="0 0 62588 26097"
 xmlns:xlink="http://www.w3.org/1999/xlink">
 <defs>
  <style type="text/css">
   <![CDATA[
    .fil0 {fill:#E31E24;fill-rule:nonzero}
   ]]>
  </style>
 </defs>
 <g id="Слой_x0020_1">
  <metadata id="CorelCorpID_0Corel-Layer"/>
  <path class="fil0" d="M14272 0l-3194 7394c-310,725 -646,1331 -1007,1819 -358,486 -813,852 -1362,1098 -548,245 -1267,368 -2153,368 -241,0 -533,-17 -874,-51 -344,-33 -666,-89 -968,-165l0 -2374c268,106 558,177 870,214 311,34 591,54 841,54 263,0 479,-45 644,-128 167,-84 297,-191 393,-319 95,-128 166,-253 216,-373l-3432 -7537 3063 0 1297 3213c66,165 144,364 235,602 91,238 179,479 263,724 83,246 147,459 192,641l85 0c60,-233 138,-504 239,-805 100,-305 201,-590 302,-860 100,-267 172,-461 215,-581l1071 -2934 3064 0zm964 0l3668 0c1520,0 2605,225 3250,675 649,452 973,1100 973,1942 0,461 -84,851 -248,1173 -167,322 -376,575 -626,761 -253,187 -511,315 -774,383l0 71c288,72 575,192 860,357 284,164 523,412 712,741 189,329 284,773 284,1335 0,636 -162,1186 -486,1648 -324,459 -785,812 -1384,1060 -599,248 -1311,371 -2136,371l-4093 0 0 -10517zm2841 4033l857 0c469,0 800,-96 991,-289 192,-194 288,-430 288,-710 0,-287 -108,-505 -327,-658 -218,-150 -554,-226 -1011,-226l-798 0 0 1883zm0 2080l0 2209 999 0c496,0 840,-105 1036,-319 197,-213 295,-481 295,-803 0,-186 -42,-363 -126,-530 -83,-164 -225,-300 -427,-403 -201,-103 -481,-154 -834,-154l-943 0zm13536 4404l-518 -1959 -3417 0 -530 1959 -3123 0 3430 -10517 3790 0 3474 10517 -3106 0zm-1107 -4289l-454 -1719c-47,-186 -118,-451 -209,-797 -91,-346 -181,-702 -270,-1073 -88,-371 -157,-675 -203,-913 -45,238 -106,532 -185,884 -78,350 -159,696 -245,1041 -84,343 -155,630 -218,858l-452 1719 2236 0zm12361 -6228l0 2295 -4156 0 0 8222 -2855 0 0 -10517 7011 0zm7957 10517l-518 -1959 -3417 0 -531 1959 -3122 0 3429 -10517 3791 0 3473 10517 -3105 0zm-1107 -4289l-454 -1719c-47,-186 -119,-451 -209,-797 -91,-346 -182,-702 -270,-1073 -89,-371 -157,-675 -204,-913 -44,238 -106,532 -184,884 -79,350 -160,696 -246,1041 -83,343 -154,630 -218,858l-452 1719 2237 0zm7541 533l-2371 0 -368 -6761 3108 0 -369 6761zm-2710 2528c0,-508 150,-864 450,-1070 299,-206 655,-309 1067,-309 408,0 759,103 1051,309 292,206 439,562 439,1070 0,486 -147,835 -439,1051 -292,216 -643,324 -1051,324 -412,0 -768,-108 -1067,-324 -300,-216 -450,-565 -450,-1051z"/>
  <path class="fil0" d="M5704 23860l-1807 0 0 -2713 -2090 0 0 2713 -1807 0 0 -6657 1807 0 0 2469 2090 0 0 -2469 1807 0 0 6657zm6260 -2543c0,423 -59,799 -177,1127 -118,330 -289,604 -514,828 -224,224 -496,394 -815,508 -318,116 -679,173 -1080,173 -373,0 -715,-57 -1025,-173 -311,-114 -583,-284 -813,-508 -231,-224 -409,-498 -535,-828 -126,-328 -189,-704 -189,-1127 0,-560 104,-1034 312,-1423 207,-388 505,-684 892,-886 387,-203 848,-304 1386,-304 494,0 936,101 1321,304 385,202 687,498 908,886 220,389 329,863 329,1423zm-3341 0c0,285 26,524 78,720 51,194 133,343 248,444 114,101 263,151 448,151 185,0 332,-50 441,-151 111,-101 190,-250 240,-444 49,-196 74,-435 74,-720 0,-284 -25,-522 -74,-713 -50,-189 -131,-334 -241,-430 -110,-97 -261,-146 -450,-146 -270,0 -464,109 -584,326 -119,218 -180,538 -180,963zm9132 -1218c0,264 -80,499 -244,706 -161,206 -410,335 -744,388l0 37c367,42 650,167 849,375 199,208 298,474 298,800 0,255 -68,493 -207,715 -138,221 -382,399 -730,536 -349,135 -839,204 -1470,204l-2527 0 0 -5063 2535 0c519,0 943,50 1272,149 330,100 574,246 731,440 158,194 237,432 237,713zm-1653 2132c0,-127 -44,-231 -129,-312 -87,-79 -255,-120 -503,-120l-710 0 0 895 691 0c235,0 401,-43 502,-129 100,-85 149,-197 149,-334zm-118 -1894c0,-123 -42,-216 -127,-280 -86,-64 -209,-95 -368,-95l-729 0 0 717 665 0c188,0 327,-33 421,-97 91,-65 138,-146 138,-245zm4648 -1540l0 5063 -1781 0 0 -5063 1781 0zm-883 -2079c255,0 477,54 667,160 189,106 284,317 284,632 0,306 -95,515 -284,622 -190,107 -412,162 -667,162 -261,0 -485,-55 -668,-162 -183,-107 -275,-316 -275,-622 0,-315 92,-526 275,-632 183,-106 407,-160 668,-160zm9442 2079l0 5063 -1781 0 0 -3739 -1333 0 0 3739 -1779 0 0 -5063 4893 0zm609 0l1876 0 875 2920c12,42 23,93 36,155 12,61 23,126 32,196 8,69 14,135 17,202l37 0c16,-123 33,-230 54,-322 18,-91 37,-164 55,-222l897 -2929 1817 0 -2039 5414c-159,413 -342,760 -549,1040 -208,279 -465,491 -769,633 -306,142 -684,213 -1136,213 -165,0 -304,-7 -421,-24 -118,-17 -219,-35 -308,-53l0 -1397c67,12 149,23 246,35 98,13 199,19 304,19 198,0 358,-39 480,-115 123,-76 224,-175 304,-300 79,-124 147,-258 205,-402l18 -45 -2031 -5018zm8090 0l0 1799 1411 0 0 -1799 1781 0 0 5063 -1781 0 0 -1940 -1411 0 0 1940 -1779 0 0 -5063 1779 0zm8031 0l1965 0 -1929 2426 2080 2637 -2034 0 -1913 -2569 0 2569 -1779 0 0 -5063 1779 0 0 2454 1831 -2454zm7476 1324l-1699 0 0 3739 -1781 0 0 -3739 -1697 0 0 -1324 5177 0 0 1324zm2461 -1324l0 1970c0,104 -2,213 -6,325 -5,112 -11,222 -19,333 -8,110 -14,217 -22,322 -7,104 -15,200 -21,290l1948 -3240 1940 0 0 5063 -1621 0 0 -1832c0,-159 3,-322 8,-491 4,-171 11,-336 20,-496 9,-162 21,-308 36,-438l-1966 3257 -1921 0 0 -5063 1624 0zm4827 4286c0,-322 95,-547 284,-678 190,-130 418,-195 685,-195 252,0 471,65 656,195 185,131 278,356 278,678 0,307 -93,528 -278,665 -185,137 -404,205 -656,205 -267,0 -495,-68 -685,-205 -189,-137 -284,-358 -284,-665zm0 -3509c0,-318 95,-544 284,-675 190,-130 418,-195 685,-195 252,0 471,65 656,195 185,131 278,357 278,675 0,312 -93,536 -278,671 -185,135 -404,202 -656,202 -267,0 -495,-67 -685,-202 -189,-135 -284,-359 -284,-671z"/>
 </g>
</svg>
