<?xml version="1.0" encoding="UTF-8"?>
<!DOCTYPE svg PUBLIC "-//W3C//DTD SVG 1.1//EN" "http://www.w3.org/Graphics/SVG/1.1/DTD/svg11.dtd">
<!-- Creator: CorelDRAW X7 -->
<svg xmlns="http://www.w3.org/2000/svg" xml:space="preserve" width="15.49mm" height="8.0951mm" version="1.1" style="shape-rendering:geometricPrecision; text-rendering:geometricPrecision; image-rendering:optimizeQuality; fill-rule:evenodd; clip-rule:evenodd"
viewBox="0 0 154900 80951"
 xmlns:xlink="http://www.w3.org/1999/xlink">
 <defs>
  <style type="text/css">
   <![CDATA[
    .str0 {stroke:#FEFEFE;stroke-width:5000;stroke-linejoin:round}
    .fil0 {fill:none;fill-rule:nonzero}
    .fil1 {fill:#E31E24;fill-rule:nonzero}
   ]]>
  </style>
 </defs>
 <g id="Слой_x0020_1">
  <metadata id="CorelCorpID_0Corel-Layer"/>
  <g>
   <path class="fil0 str0" d="M36682 2501l-7650 21519c-742,2110 -1547,3874 -2412,5295 -857,1414 -1947,2480 -3262,3196 -1312,713 -3034,1070 -5156,1070 -577,0 -1277,-50 -2093,-148 -824,-96 -1595,-259 -2318,-480l0 -6909c642,308 1336,515 2084,623 745,98 1415,157 2014,157 630,0 1147,-131 1542,-373 400,-244 711,-556 941,-929 228,-373 398,-736 517,-1085l-8220 -21935 7336 0 3106 9351c158,480 345,1060 563,1752 218,693 429,1394 630,2107 199,716 352,1336 460,1866l204 0c144,-678 331,-1467 572,-2343 240,-887 481,-1717 723,-2503 240,-777 412,-1342 515,-1692l2565 -8539 7338 0 1 0zm2309 0l8785 0c3640,0 6239,655 7784,1965 1554,1316 2330,3202 2330,5652 0,1341 -201,2476 -594,3413 -400,937 -901,1673 -1499,2215 -606,545 -1224,917 -1854,1115l0 206c690,209 1377,559 2060,1039 680,478 1253,1200 1705,2157 453,958 680,2249 680,3885 0,1851 -388,3451 -1164,4796 -776,1336 -1880,2364 -3315,3086 -1435,721 -3140,1080 -5116,1080l-9803 0 0 -30608 1 -1zm6804 11737l2053 0c1123,0 1916,-279 2373,-840 460,-566 690,-1252 690,-2066 0,-835 -259,-1469 -783,-1915 -522,-437 -1327,-658 -2421,-658l-1911 0 0 5481 -1 -2zm0 6053l0 6430 2393 0c1188,0 2012,-305 2481,-929 472,-620 707,-1400 707,-2337 0,-540 -101,-1056 -302,-1542 -199,-477 -539,-873 -1023,-1172 -481,-300 -1152,-449 -1997,-449l-2258 0 -1 -1zm32419 12818l-1241 -5702 -8184 0 -1269 5702 -7480 0 8215 -30608 9077 0 8320 30608 -7439 0 1 0zm-2651 -12482l-1087 -5003c-113,-541 -283,-1313 -501,-2320 -218,-1007 -433,-2043 -647,-3123 -211,-1080 -376,-1965 -486,-2658 -108,693 -254,1549 -443,2573 -187,1018 -381,2026 -587,3029 -201,998 -371,1834 -522,2497l-1083 5003 5355 0 1 2zm29604 -18126l0 6680 -9954 0 0 23929 -6838 0 0 -30608 16791 0 1 -1zm19058 30608l-1241 -5702 -8184 0 -1272 5702 -7477 0 8212 -30608 9079 0 8318 30608 -7437 0 2 0zm-2652 -12482l-1087 -5003c-113,-541 -285,-1313 -501,-2320 -218,-1007 -436,-2043 -647,-3123 -213,-1080 -376,-1965 -489,-2658 -105,693 -254,1549 -441,2573 -189,1018 -383,2026 -589,3029 -199,998 -369,1834 -522,2497l-1083 5003 5358 0 1 2zm18061 1550l-5679 0 -881 -19677 7444 0 -884 19677zm-6490 7358c0,-1479 359,-2514 1078,-3115 716,-599 1569,-899 2555,-899 977,0 1818,300 2517,899 699,599 1051,1636 1051,3115 0,1414 -352,2430 -1051,3058 -699,629 -1540,943 -2517,943 -987,0 -1839,-314 -2555,-943 -719,-628 -1078,-1644 -1078,-3058z"/>
   <path id="1" class="fil1" d="M36682 2501l-7650 21519c-742,2110 -1547,3874 -2412,5295 -857,1414 -1947,2480 -3262,3196 -1312,713 -3034,1070 -5156,1070 -577,0 -1277,-50 -2093,-148 -824,-96 -1595,-259 -2318,-480l0 -6909c642,308 1336,515 2084,623 745,98 1415,157 2014,157 630,0 1147,-131 1542,-373 400,-244 711,-556 941,-929 228,-373 398,-736 517,-1085l-8220 -21935 7336 0 3106 9351c158,480 345,1060 563,1752 218,693 429,1394 630,2107 199,716 352,1336 460,1866l204 0c144,-678 331,-1467 572,-2343 240,-887 481,-1717 723,-2503 240,-777 412,-1342 515,-1692l2565 -8539 7338 0 1 0zm2309 0l8785 0c3640,0 6239,655 7784,1965 1554,1316 2330,3202 2330,5652 0,1341 -201,2476 -594,3413 -400,937 -901,1673 -1499,2215 -606,545 -1224,917 -1854,1115l0 206c690,209 1377,559 2060,1039 680,478 1253,1200 1705,2157 453,958 680,2249 680,3885 0,1851 -388,3451 -1164,4796 -776,1336 -1880,2364 -3315,3086 -1435,721 -3140,1080 -5116,1080l-9803 0 0 -30608 1 -1zm6804 11737l2053 0c1123,0 1916,-279 2373,-840 460,-566 690,-1252 690,-2066 0,-835 -259,-1469 -783,-1915 -522,-437 -1327,-658 -2421,-658l-1911 0 0 5481 -1 -2zm0 6053l0 6430 2393 0c1188,0 2012,-305 2481,-929 472,-620 707,-1400 707,-2337 0,-540 -101,-1056 -302,-1542 -199,-477 -539,-873 -1023,-1172 -481,-300 -1152,-449 -1997,-449l-2258 0 -1 -1zm32419 12818l-1241 -5702 -8184 0 -1269 5702 -7480 0 8215 -30608 9077 0 8320 30608 -7439 0 1 0zm-2651 -12482l-1087 -5003c-113,-541 -283,-1313 -501,-2320 -218,-1007 -433,-2043 -647,-3123 -211,-1080 -376,-1965 -486,-2658 -108,693 -254,1549 -443,2573 -187,1018 -381,2026 -587,3029 -201,998 -371,1834 -522,2497l-1083 5003 5355 0 1 2zm29604 -18126l0 6680 -9954 0 0 23929 -6838 0 0 -30608 16791 0 1 -1zm19058 30608l-1241 -5702 -8184 0 -1272 5702 -7477 0 8212 -30608 9079 0 8318 30608 -7437 0 2 0zm-2652 -12482l-1087 -5003c-113,-541 -285,-1313 -501,-2320 -218,-1007 -436,-2043 -647,-3123 -213,-1080 -376,-1965 -489,-2658 -105,693 -254,1549 -441,2573 -189,1018 -383,2026 -589,3029 -199,998 -369,1834 -522,2497l-1083 5003 5358 0 1 2zm18061 1550l-5679 0 -881 -19677 7444 0 -884 19677zm-6490 7358c0,-1479 359,-2514 1078,-3115 716,-599 1569,-899 2555,-899 977,0 1818,300 2517,899 699,599 1051,1636 1051,3115 0,1414 -352,2430 -1051,3058 -699,629 -1540,943 -2517,943 -987,0 -1839,-314 -2555,-943 -719,-628 -1078,-1644 -1078,-3058z"/>
  </g>
  <g>
   <path class="fil0 str0" d="M16162 71941l-4328 0 0 -7896 -5006 0 0 7896 -4328 0 0 -19374 4328 0 0 7185 5006 0 0 -7185 4328 0 0 19374zm14992 -7401c0,1231 -141,2326 -424,3280 -283,960 -692,1758 -1231,2409 -536,652 -1188,1147 -1952,1479 -762,338 -1626,503 -2587,503 -893,0 -1712,-166 -2455,-503 -745,-332 -1396,-826 -1947,-1479 -553,-651 -980,-1449 -1281,-2409 -302,-956 -453,-2049 -453,-3280 0,-1630 249,-3009 747,-4141 496,-1129 1209,-1991 2136,-2579 927,-591 2031,-885 3319,-885 1183,0 2242,294 3164,885 922,588 1645,1450 2175,2579 527,1132 788,2511 788,4141l1 0zm-8001 0c0,830 62,1525 187,2095 122,565 319,997 594,1292 273,294 630,439 1073,439 443,0 795,-145 1056,-439 266,-295 455,-728 575,-1292 117,-570 177,-1266 177,-2095 0,-826 -60,-1519 -177,-2076 -120,-550 -314,-972 -577,-1251 -263,-282 -625,-426 -1078,-426 -647,0 -1111,318 -1399,950 -285,634 -431,1566 -431,2802l0 1zm21871 -3545c0,768 -192,1452 -584,2055 -386,599 -982,975 -1782,1129l0 108c879,123 1557,486 2033,1091 477,605 714,1380 714,2329 0,742 -163,1435 -496,2080 -331,643 -915,1162 -1748,1560 -836,393 -2009,594 -3521,594l-6052 0 0 -14735 6071 0c1243,0 2258,146 3046,434 790,292 1375,716 1751,1281 378,565 568,1258 568,2075l0 -1zm-3959 6205c0,-370 -105,-672 -309,-908 -208,-230 -611,-349 -1205,-349l-1700 0 0 2606 1655 0c563,0 960,-125 1202,-376 240,-248 357,-573 357,-972l0 -1zm-283 -5512c0,-359 -101,-628 -304,-815 -206,-186 -501,-278 -881,-278l-1746 0 0 2087 1593 0c450,0 783,-96 1008,-282 218,-190 331,-425 331,-713l-1 1zm11132 -4482l0 14735 -4266 0 0 -14735 4266 0zm-2114 -6051c611,0 1142,157 1597,465 453,309 680,923 680,1840 0,891 -228,1498 -680,1811 -455,311 -987,471 -1597,471 -625,0 -1162,-160 -1600,-471 -438,-311 -659,-920 -659,-1811 0,-916 220,-1531 659,-1840 438,-308 975,-465 1600,-465zm22613 6051l0 14735 -4266 0 0 -10881 -3193 0 0 10881 -4261 0 0 -14735 11719 0 1 0zm1459 0l4493 0 2096 8498c29,123 55,271 86,451 29,177 55,367 77,570 19,200 34,392 41,588l89 0c38,-359 79,-670 129,-937 43,-265 89,-478 132,-646l2148 -8525 4352 0 -4883 15757c-381,1202 -819,2212 -1315,3027 -498,812 -1114,1429 -1842,1842 -733,413 -1638,620 -2721,620 -395,0 -728,-21 -1008,-69 -283,-50 -525,-102 -738,-155l0 -4066c160,36 357,67 589,103 235,37 477,55 728,55 474,0 857,-113 1150,-334 295,-221 536,-509 728,-873 189,-361 352,-751 491,-1171l43 -131 -4864 -14604 -1 0zm19375 0l0 5237 3379 0 0 -5237 4266 0 0 14735 -4266 0 0 -5645 -3379 0 0 5645 -4261 0 0 -14735 4261 0zm19235 0l4706 0 -4620 7060 4982 7675 -4871 0 -4582 -7476 0 7476 -4261 0 0 -14735 4261 0 0 7142 4385 -7142zm17905 3854l-4069 0 0 10881 -4266 0 0 -10881 -4064 0 0 -3854 12399 0 0 3854zm5894 -3854l0 5734c0,302 -5,619 -14,945 -12,326 -26,646 -46,970 -19,319 -34,631 -53,936 -17,303 -36,583 -50,845l4665 -9430 4646 0 0 14735 -3882 0 0 -5332c0,-463 7,-937 19,-1429 10,-498 26,-978 48,-1443 22,-472 50,-897 86,-1275l-4709 9479 -4601 0 0 -14735 3889 0 2 0zm11561 12474c0,-937 228,-1592 680,-1973 455,-378 1001,-568 1641,-568 604,0 1128,190 1571,568 443,381 666,1036 666,1973 0,893 -223,1537 -666,1936 -443,398 -968,596 -1571,596 -639,0 -1186,-198 -1641,-596 -453,-399 -680,-1042 -680,-1936zm0 -10212c0,-926 228,-1584 680,-1965 455,-378 1001,-568 1641,-568 604,0 1128,190 1571,568 443,381 666,1039 666,1965 0,908 -223,1560 -666,1953 -443,392 -968,588 -1571,588 -639,0 -1186,-195 -1641,-588 -453,-393 -680,-1045 -680,-1953z"/>
   <path id="1" class="fil1" d="M16162 71941l-4328 0 0 -7896 -5006 0 0 7896 -4328 0 0 -19374 4328 0 0 7185 5006 0 0 -7185 4328 0 0 19374zm14992 -7401c0,1231 -141,2326 -424,3280 -283,960 -692,1758 -1231,2409 -536,652 -1188,1147 -1952,1479 -762,338 -1626,503 -2587,503 -893,0 -1712,-166 -2455,-503 -745,-332 -1396,-826 -1947,-1479 -553,-651 -980,-1449 -1281,-2409 -302,-956 -453,-2049 -453,-3280 0,-1630 249,-3009 747,-4141 496,-1129 1209,-1991 2136,-2579 927,-591 2031,-885 3319,-885 1183,0 2242,294 3164,885 922,588 1645,1450 2175,2579 527,1132 788,2511 788,4141l1 0zm-8001 0c0,830 62,1525 187,2095 122,565 319,997 594,1292 273,294 630,439 1073,439 443,0 795,-145 1056,-439 266,-295 455,-728 575,-1292 117,-570 177,-1266 177,-2095 0,-826 -60,-1519 -177,-2076 -120,-550 -314,-972 -577,-1251 -263,-282 -625,-426 -1078,-426 -647,0 -1111,318 -1399,950 -285,634 -431,1566 -431,2802l0 1zm21871 -3545c0,768 -192,1452 -584,2055 -386,599 -982,975 -1782,1129l0 108c879,123 1557,486 2033,1091 477,605 714,1380 714,2329 0,742 -163,1435 -496,2080 -331,643 -915,1162 -1748,1560 -836,393 -2009,594 -3521,594l-6052 0 0 -14735 6071 0c1243,0 2258,146 3046,434 790,292 1375,716 1751,1281 378,565 568,1258 568,2075l0 -1zm-3959 6205c0,-370 -105,-672 -309,-908 -208,-230 -611,-349 -1205,-349l-1700 0 0 2606 1655 0c563,0 960,-125 1202,-376 240,-248 357,-573 357,-972l0 -1zm-283 -5512c0,-359 -101,-628 -304,-815 -206,-186 -501,-278 -881,-278l-1746 0 0 2087 1593 0c450,0 783,-96 1008,-282 218,-190 331,-425 331,-713l-1 1zm11132 -4482l0 14735 -4266 0 0 -14735 4266 0zm-2114 -6051c611,0 1142,157 1597,465 453,309 680,923 680,1840 0,891 -228,1498 -680,1811 -455,311 -987,471 -1597,471 -625,0 -1162,-160 -1600,-471 -438,-311 -659,-920 -659,-1811 0,-916 220,-1531 659,-1840 438,-308 975,-465 1600,-465zm22613 6051l0 14735 -4266 0 0 -10881 -3193 0 0 10881 -4261 0 0 -14735 11719 0 1 0zm1459 0l4493 0 2096 8498c29,123 55,271 86,451 29,177 55,367 77,570 19,200 34,392 41,588l89 0c38,-359 79,-670 129,-937 43,-265 89,-478 132,-646l2148 -8525 4352 0 -4883 15757c-381,1202 -819,2212 -1315,3027 -498,812 -1114,1429 -1842,1842 -733,413 -1638,620 -2721,620 -395,0 -728,-21 -1008,-69 -283,-50 -525,-102 -738,-155l0 -4066c160,36 357,67 589,103 235,37 477,55 728,55 474,0 857,-113 1150,-334 295,-221 536,-509 728,-873 189,-361 352,-751 491,-1171l43 -131 -4864 -14604 -1 0zm19375 0l0 5237 3379 0 0 -5237 4266 0 0 14735 -4266 0 0 -5645 -3379 0 0 5645 -4261 0 0 -14735 4261 0zm19235 0l4706 0 -4620 7060 4982 7675 -4871 0 -4582 -7476 0 7476 -4261 0 0 -14735 4261 0 0 7142 4385 -7142zm17905 3854l-4069 0 0 10881 -4266 0 0 -10881 -4064 0 0 -3854 12399 0 0 3854zm5894 -3854l0 5734c0,302 -5,619 -14,945 -12,326 -26,646 -46,970 -19,319 -34,631 -53,936 -17,303 -36,583 -50,845l4665 -9430 4646 0 0 14735 -3882 0 0 -5332c0,-463 7,-937 19,-1429 10,-498 26,-978 48,-1443 22,-472 50,-897 86,-1275l-4709 9479 -4601 0 0 -14735 3889 0 2 0zm11561 12474c0,-937 228,-1592 680,-1973 455,-378 1001,-568 1641,-568 604,0 1128,190 1571,568 443,381 666,1036 666,1973 0,893 -223,1537 -666,1936 -443,398 -968,596 -1571,596 -639,0 -1186,-198 -1641,-596 -453,-399 -680,-1042 -680,-1936zm0 -10212c0,-926 228,-1584 680,-1965 455,-378 1001,-568 1641,-568 604,0 1128,190 1571,568 443,381 666,1039 666,1965 0,908 -223,1560 -666,1953 -443,392 -968,588 -1571,588 -639,0 -1186,-195 -1641,-588 -453,-393 -680,-1045 -680,-1953z"/>
  </g>
 </g>
</svg>
